<?xml version="1.0" encoding="UTF-8" standalone="no"?>
<svg
   xmlns:dc="http://purl.org/dc/elements/1.1/"
   xmlns:cc="http://creativecommons.org/ns#"
   xmlns:rdf="http://www.w3.org/1999/02/22-rdf-syntax-ns#"
   xmlns:svg="http://www.w3.org/2000/svg"
   xmlns="http://www.w3.org/2000/svg"
   xmlns:sodipodi="http://sodipodi.sourceforge.net/DTD/sodipodi-0.dtd"
   xmlns:inkscape="http://www.inkscape.org/namespaces/inkscape"
   width="6095"
   height="2826"
   version="1.1"
   id="svg8"
   sodipodi:docname="OPENID_CONNECT_NEW-Logo (2).svg"
   inkscape:version="0.92.4 (5da689c313, 2019-01-14)">
  <metadata
     id="metadata14">
    <rdf:RDF>
      <cc:Work
         rdf:about="">
        <dc:format>image/svg+xml</dc:format>
        <dc:type
           rdf:resource="http://purl.org/dc/dcmitype/StillImage" />
      </cc:Work>
    </rdf:RDF>
  </metadata>
  <defs
     id="defs12" />
  <sodipodi:namedview
     pagecolor="#ffffff"
     bordercolor="#666666"
     borderopacity="1"
     objecttolerance="10"
     gridtolerance="10"
     guidetolerance="10"
     inkscape:pageopacity="0"
     inkscape:pageshadow="2"
     inkscape:window-width="1920"
     inkscape:window-height="1019"
     id="namedview10"
     showgrid="false"
     showguides="true"
     inkscape:guide-bbox="true"
     inkscape:zoom="0.12158292"
     inkscape:cx="2358.3551"
     inkscape:cy="2584.5629"
     inkscape:window-x="0"
     inkscape:window-y="32"
     inkscape:window-maximized="1"
     inkscape:current-layer="svg8">
    <sodipodi:guide
       position="1222,333"
       orientation="1,0"
       id="guide821"
       inkscape:locked="false" />
  </sodipodi:namedview>
  <path
     fill="#636363"
     d="M3454 2822c-49-3-91-16-124-39a191 191 0 01-83-138c-2-12-2-42 0-55a193 193 0 0174-130c40-31 90-46 154-46 28 0 52 3 77 9l58 15-3 9c-5 15-9 37-11 61l-1 12c-1 1-11 2-14 1-2-1-2-3-2-17 0-23-2-32-13-43-17-18-46-26-94-26-23 0-35 1-53 5-43 9-74 34-95 76-12 24-17 48-19 82-1 37 6 72 20 101 8 17 17 29 32 43 29 29 64 45 108 50 16 2 54 1 69-2 24-4 46-12 65-24l8-5 1 2 2 4-5 12c-5 14-5 13-24 21a272 272 0 01-127 22zm297 0a118 118 0 01-66-32c-25-25-38-60-38-102 0-18 1-28 5-42 12-47 50-84 98-94 35-8 71-5 99 9 45 23 70 68 68 124-2 39-17 73-44 98a151 151 0 01-122 39zm60-21c19-7 36-22 44-43 8-19 11-45 9-75-2-36-11-63-26-85a75 75 0 00-63-33c-14 0-23 2-34 8-11 5-25 18-30 29-9 17-12 30-13 58 0 29 3 50 11 75 10 33 27 53 51 63 16 7 35 8 51 3zm914 19c-52-5-90-32-106-78-6-18-7-27-7-53 0-22 0-25 2-37 5-21 14-42 23-54 11-15 42-35 66-43 14-5 25-7 42-7 30 0 54 9 74 28 12 12 20 26 25 44 4 15 5 38 3 49-1 4-1 4-17 7-21 3-40 4-103 4l-63 1v10a102 102 0 0031 77c19 18 51 28 79 24 15-1 25-5 45-15 18-9 18-9 19-7 2 2 2 3-1 8l-4 10c-1 3-3 4-10 8-19 12-41 20-61 23-11 2-27 2-37 1zm64-158c11-1 11-1 9-22-2-29-7-44-20-57a57 57 0 00-45-18c-20 0-33 6-46 19-9 9-14 17-18 30-3 10-6 29-6 38l1 7 4 1c9 1 103 3 121 2zm213 158c-51-4-88-32-104-77-11-33-10-79 2-110 11-29 24-41 65-64 20-11 29-15 41-18 9-3 11-3 33-3 24 0 32 1 47 5l20 10c1 1 0 5-1 18a718 718 0 00-6 52l-7 1c-8 0-7 2-9-18l-3-17c-3-7-18-16-37-21-8-3-10-3-26-3-19 0-27 1-39 7-21 11-34 34-38 66-1 12-1 37 2 49 8 48 31 79 66 91 25 8 51 7 79-5 14-6 16-6 18-2l2 3-5 8-7 10-31 13c-17 5-43 7-62 5zm215-3c-22-3-37-18-42-39v-101-78l-1-3-20 1c-23 0-22 0-22-6 0-3 2-5 9-8 12-4 32-14 33-15l1-43v-41l9-4c5-1 15-6 23-10 11-5 14-7 16-6 4 2 4 3 3 19l-5 78v9l39-1h38c1 1 0 6-2 13l-2 12h-36c-27 0-36 1-37 2l-1 82v82l2 6c7 14 19 20 41 20 9 0 21-2 27-4 2-1 2 0 3 2 3 7 3 6-10 17l-15 12c-10 4-38 6-51 4zm-1271-4l-1-7 1-6 15-1c21 0 24-2 27-16 2-11 2-178 0-186s-4-9-25-10h-17v-15l11-2c24-3 47-9 62-15 14-6 15-6 17-4l1 7a552 552 0 00-1 41l27-21c24-21 25-21 32-23 18-6 39-7 55-4 18 4 35 12 46 23 9 9 15 22 18 35 2 9 2 14 3 88 1 79 1 87 5 94 3 7 7 8 24 8l16 1v14h-4a824 824 0 00-90-1l1-33c2-44 1-142-1-153-5-21-23-37-47-42-10-2-27-2-36 1-21 6-41 22-46 38-4 13-4 21-4 87 1 63 2 74 5 81 3 6 6 7 24 7 10 0 16 1 16 2v12h-21a1546 1546 0 00-113 0zm329 0v-12c0-1 3-2 15-2 13 0 15 0 19-2 5-3 8-6 9-16 2-9 3-151 1-170-1-23-2-24-27-24l-17-1v-13l8-2a322 322 0 0081-22c2 0 3 4 2 17v33c1 0 13-9 26-21 24-20 25-21 32-23a112 112 0 0169 0c30 10 47 29 52 60 1 4 2 34 2 83 1 79 1 88 5 94 3 6 7 7 24 7l16 1v14h-4a819 819 0 00-91 0l2-37c2-48 1-138-1-149-4-16-14-29-27-36-12-6-20-8-35-8-17 0-23 1-36 7-15 8-27 20-31 33-4 12-4 19-4 86 1 65 2 75 5 81 3 7 7 8 24 8l16 1v14l-16-1a2243 2243 0 00-119 0z"
     id="path2" />
  <path
     d="m 3321,2460 c -6862,990 -3431,495 0,0 z m -560,285 c -1.4306,-326.9994 -1.0973,-654.0042 1,-981 37.9982,-1.1821 76.0284,-0.8485 114,1 l 1,48 c 0,52 0,51 6,40 14,-26 37,-50 62,-65 29,-19 72,-33 118,-38 19,-3 68,-3 88,0 65,8 116,30 164,70 70,61 114,165 118,280 5,153 -46,275 -143,339 -43,29 -90,44 -147,49 -20,2 -62,1 -79,-2 -50,-7 -89,-21 -122,-42 -25,-17 -43,-34 -57,-56 l -7,-8 -1,181 -1,183 -57,1 z m 367,-359 c 38,-4 67,-16 95,-39 48,-38 76,-100 85,-188 2,-21 2,-65 0,-82 -9,-84 -40,-147 -91,-186 -27,-21 -58,-34 -96,-39 h -63 c -54.148,5.9919 -103.0343,35.1777 -134,80 -34,48 -51,110 -51,187 0,122 44,209 126,249 23,11 47,17 82,20 z m -984,109 c -107.5271,-5.254 -209.195,-50.5586 -285,-127 -85.1645,-91.4611 -135.1267,-210.1656 -141,-335 -2,-19 -2,-78 0,-98 11,-138 61,-255 143,-338 85.7265,-86.0418 203.6493,-132.1224 325,-127 144.9172,-6.7005 283.522,59.7848 369,177 141.1387,209.3827 136.3443,484.6591 -12,689 -73.8045,90.3659 -180.8169,147.2951 -297,158 -18,2 -85,3 -102,1 z m 66,-108 c 108.8445,-2.8708 207.589,-64.4904 258,-161 65.4155,-126.7891 76.9517,-274.5969 32,-410 -25,-80 -71,-143 -130,-184 -44,-29 -86,-44 -140,-50 -50,-6 -104,-1 -148,12 -48,15 -98,47 -133,85 -39,44 -68,101 -84,164 -13,51 -17,86 -17,141 -2.1315,78.5036 14.6757,156.3657 49,227 33,65 79,113 139,144 50,25 108,36 174,32 z M 1223,1344 1222,199.08431 1416,102 1630,-2 v 2302 c -1,2 -405,193 -408,193 z m 2579,1144 c -45,-5 -81,-14 -115,-31 -56,-27 -99,-69 -130,-124 -24,-43 -41,-101 -48,-166 -11,-93 5,-180 46,-253 50.4985,-89.5795 140.0851,-150.2911 242,-164 18,-3 67,-3 87,0 64,8 109,27 156,69 26,22 47,50 66,82 42.7486,76.7275 61.5555,164.4931 54,252 l -266,1 h -265 v 15 c 0,45 13,91 34,125 32,51 85,83 151,92 16,2 53,2 68,0 35,-4 61,-13 86,-30 31.3558,-22.5563 53.6824,-55.5147 63,-93 l 4,-13 h 57 l 57,-1 v 5 l -11,43 c -15,43 -35,78 -63,107 -45,46 -102,73 -177,83 -17,2 -78,3 -96,1 z m 234,-444 c 0,-16 -7,-44 -15,-65 -21,-54 -61,-94 -115,-116 -42,-16 -98,-17 -142,-2 -15,6 -36,16 -49,25 -11,8 -28,24 -37,35 -29.0953,37.0032 -46.1916,82.0119 -49,129 l 204,1 h 204 z m 205,75 1,-355 h 108 l 1,57 1,55 c 1,0 3,-2 9,-12 12,-19 30,-41 45,-54 18,-16 34,-27 55,-37 39,-19 82,-27 135,-25 52,1 90,9 124,27 35.1114,17.5836 63.2886,46.4652 80,82 14,26 21,51 26,94 2,17 2,17 3,270 v 253 h -116 l -1,-253 v -252 l -3,-11 c -6,-30 -18,-52 -37,-70 -27,-27 -66,-39 -115,-37 -36,1 -65,8 -91,20 -58,28 -95,83 -105,158 -3,21 -4,51 -4,248 v 197 h -116 z m 748,-135 v -491 l 72,1 h 72 v 980 h -144 z m 296,489 -1,-490 1,-489 h 383 c 157,9 277,66 347,166 39,57 64,130 73,217 4,36 5,41 5,86 -1,45 -1,64 -5,100 -18,160 -75,269 -175,336 -73.8273,44.7684 -157.7424,70.2181 -244,74 -25,2 -384,2 -384,0 z m 385,-110 c 62,-5 109,-22 159,-55 43,-29 78,-75 100,-133 18,-45 26,-84 31,-140 2,-19 2,-94 0,-114 -4,-51 -11,-90 -22,-124 -30.2434,-105.8585 -123.221,-181.6772 -233,-190 -29,-3 -40,-4 -166,-4 h -124 v 761 h 119 z"
     id="path4"
     inkscape:connector-curvature="0"
     style="fill:#f6921e"
     sodipodi:nodetypes="ccccccccccccccccccccccccccccccsccccccccccccccccccccccccccccccccscccccccccccsccccccccccccsccccccccccccccccccccccccccccccccsccccccccccccccccccccccccccccscccc" />
  <path
     d="m 1149,753 c -304.35831,26.75083 -595.56844,136.38694 -842,317 -84.56382,64.2961 -157.3125,142.797 -215,232 -68.789419,109.4903 -101.0063248,238.0078 -92,367 11,114 54,220 129,321 138,183 376,334 670,422 137.85305,41.4187 279.5976,68.5613 423,81 v -257 l -24,-3 c -168,-24 -324,-74 -451,-144 -90.42035,-48.0192 -170.58853,-113.2407 -236,-192 -45,-57 -77,-119 -92,-181 -16,-63 -16,-128 -1,-191 17,-69 50,-133 103,-196 16,-20 59,-62 81,-81 69.38082,-57.9642 146.86786,-105.4671 230,-141 101.1112,-44.088 207.231,-75.6553 316,-94 l 3,-1 V 883 c 0.1986,-43.33579 -0.1348,-86.67239 -1,-130 z m 555,0 h -1 l -1,130 1,129 6,1 26,5 c 98,19 194,48 280,86 37,16 107,52 107,55 l -108,62 c -36.5052,20.7012 -72.8398,41.7019 -109,63 l 97,21 c 0,0 689,150 689,150 l -56,-583 c -70.1486,36.83988 -139.4979,75.18205 -208,115 l -17,-9 C 2192.4043,855.79713 1952.1794,779.2382 1704,753 Z"
     id="path6"
     inkscape:connector-curvature="0"
     style="fill:#babbbd"
     sodipodi:nodetypes="ccccccccccccccccccccccccccccccccccccc" />
</svg>
