<svg viewBox="0 0 135.467 135.467" class="svg gitea-gitea" width="16" height="16" aria-hidden="true"><path d="M27.707 33.619c-9.547-.028-22.338 6.797-21.63 23.903C7.183 84.25 31.532 86.734 41.267 86.95c1.068 5.013 12.521 22.298 21.001 23.209h37.158c22.278-1.668 38.957-75.753 26.59-76.035-20.713 1.097-32.485 1.556-42.97 1.637v23.21l-3.24-1.613-.026-21.53c-11.886-.01-22.487-.603-42.358-1.704-2.495-.027-5.98-.494-9.715-.504zm2.497 9.459c1.352 13.694 3.557 21.7 8.02 33.94-11.382-1.504-21.072-5.222-22.853-19.107-.951-7.411 2.39-15.167 14.833-14.833zm43.334 13.469a5.477 5.477 0 012.108.545l3.878 1.885-2.778 5.689a3.475 3.475 0 00-1.249.198 3.475 3.475 0 00-2.091 4.449 3.475 3.475 0 00.57 1.017l-4.787 9.798a3.475 3.475 0 00-1.15.206 3.475 3.475 0 00-2.091 4.449 3.475 3.475 0 004.44 2.091 3.475 3.475 0 002.1-4.448 3.475 3.475 0 00-.819-1.273l4.663-9.558a3.475 3.475 0 001.514-.19 3.475 3.475 0 001.24-.778c4.537 2.193 5.7 2.866 6.308 3.671.114.151.249.417.298.588.153.527.042 1.51-.281 2.455-.384 1.123-2.275 5.239-3.754 8.302a3.475 3.475 0 00-1.356.198 3.475 3.475 0 00-2.092 4.448 3.475 3.475 0 004.449 2.092 3.475 3.475 0 002.092-4.448 3.475 3.475 0 00-.72-1.174c2.773-5.883 3.781-8.196 4.143-9.749.13-.561.154-.777.157-1.537.003-.776-.011-.935-.124-1.299-.35-1.126-1.165-2.139-2.415-3.01-.942-.655-2.119-1.26-5.515-2.86-.044-.02-.087-.045-.132-.066a3.475 3.475 0 00-.198-1.273 3.475 3.475 0 00-.753-1.216l2.729-5.606 15.13 7.35a5.466 5.466 0 012.53 7.326L89.19 96.226a5.476 5.476 0 01-7.334 2.53L60.457 88.363a5.479 5.479 0 01-2.538-7.334L68.321 59.63a5.472 5.472 0 015.217-3.084z" fill="#609926" stroke="#428f29" stroke-width=".999" paint-order="markers fill stroke"/></svg>