<svg viewBox="0 0 198.13 197.58" class="svg gitea-rubygems" width="16" height="16" aria-hidden="true"><defs><linearGradient id="gitea-rubygems__b" x1="194.9" x2="141.03" y1="153.56" y2="117.41" gradientUnits="userSpaceOnUse"><stop stop-color="#871101" offset="0"/><stop stop-color="#911209" offset=".99"/><stop stop-color="#911209" offset="1"/></linearGradient><linearGradient id="gitea-rubygems__c" x1="151.8" x2="97.93" y1="217.79" y2="181.64" gradientUnits="userSpaceOnUse"><stop stop-color="#871101" offset="0"/><stop stop-color="#911209" offset=".99"/><stop stop-color="#911209" offset="1"/></linearGradient><linearGradient id="gitea-rubygems__d" x1="38.696" x2="47.047" y1="127.39" y2="181.66" gradientUnits="userSpaceOnUse"><stop stop-color="#fff" offset="0"/><stop stop-color="#E57252" offset=".23"/><stop stop-color="#DE3B20" offset=".46"/><stop stop-color="#A60003" offset=".99"/><stop stop-color="#A60003" offset="1"/></linearGradient><linearGradient id="gitea-rubygems__e" x1="96.133" x2="99.21" y1="76.715" y2="132.1" gradientUnits="userSpaceOnUse"><stop stop-color="#fff" offset="0"/><stop stop-color="#E4714E" offset=".23"/><stop stop-color="#BE1A0D" offset=".56"/><stop stop-color="#A80D00" offset=".99"/><stop stop-color="#A80D00" offset="1"/></linearGradient><linearGradient id="gitea-rubygems__f" x1="147.1" x2="156.31" y1="25.521" y2="65.216" gradientUnits="userSpaceOnUse"><stop stop-color="#fff" offset="0"/><stop stop-color="#E46342" offset=".18"/><stop stop-color="#C82410" offset=".4"/><stop stop-color="#A80D00" offset=".99"/><stop stop-color="#A80D00" offset="1"/></linearGradient><linearGradient id="gitea-rubygems__g" x1="118.98" x2="158.67" y1="11.542" y2="-8.305" gradientUnits="userSpaceOnUse"><stop stop-color="#fff" offset="0"/><stop stop-color="#C81F11" offset=".54"/><stop stop-color="#BF0905" offset=".99"/><stop stop-color="#BF0905" offset="1"/></linearGradient><linearGradient id="gitea-rubygems__h" x1="3.903" x2="7.17" y1="113.55" y2="146.26" gradientUnits="userSpaceOnUse"><stop stop-color="#fff" offset="0"/><stop stop-color="#DE4024" offset=".31"/><stop stop-color="#BF190B" offset=".99"/><stop stop-color="#BF190B" offset="1"/></linearGradient><linearGradient id="gitea-rubygems__i" x1="-18.556" x2="135.02" y1="155.1" y2="-2.809" gradientUnits="userSpaceOnUse"><stop stop-color="#BD0012" offset="0"/><stop stop-color="#fff" offset=".07"/><stop stop-color="#fff" offset=".17"/><stop stop-color="#C82F1C" offset=".27"/><stop stop-color="#820C01" offset=".33"/><stop stop-color="#A31601" offset=".46"/><stop stop-color="#B31301" offset=".72"/><stop stop-color="#E82609" offset=".99"/><stop stop-color="#E82609" offset="1"/></linearGradient><linearGradient id="gitea-rubygems__j" x1="99.075" x2="52.818" y1="171.03" y2="159.62" gradientUnits="userSpaceOnUse"><stop stop-color="#8C0C01" offset="0"/><stop stop-color="#990C00" offset=".54"/><stop stop-color="#A80D0E" offset=".99"/><stop stop-color="#A80D0E" offset="1"/></linearGradient><linearGradient id="gitea-rubygems__k" x1="178.53" x2="137.43" y1="115.51" y2="78.684" gradientUnits="userSpaceOnUse"><stop stop-color="#7E110B" offset="0"/><stop stop-color="#9E0C00" offset=".99"/><stop stop-color="#9E0C00" offset="1"/></linearGradient><linearGradient id="gitea-rubygems__l" x1="193.62" x2="173.15" y1="47.937" y2="26.054" gradientUnits="userSpaceOnUse"><stop stop-color="#79130D" offset="0"/><stop stop-color="#9E120B" offset=".99"/><stop stop-color="#9E120B" offset="1"/></linearGradient><linearGradient id="gitea-rubygems__o" x1="26.67" x2="9.989" y1="197.34" y2="140.74" gradientUnits="userSpaceOnUse"><stop stop-color="#8B2114" offset="0"/><stop stop-color="#9E100A" offset=".43"/><stop stop-color="#B3100C" offset=".99"/><stop stop-color="#B3100C" offset="1"/></linearGradient><linearGradient id="gitea-rubygems__p" x1="154.64" x2="192.04" y1="9.798" y2="26.306" gradientUnits="userSpaceOnUse"><stop stop-color="#B31000" offset="0"/><stop stop-color="#910F08" offset=".44"/><stop stop-color="#791C12" offset=".99"/><stop stop-color="#791C12" offset="1"/></linearGradient><linearGradient id="gitea-rubygems__a" x1="174.07" x2="132.28" y1="215.55" y2="141.75" gradientUnits="userSpaceOnUse"><stop stop-color="#FB7655" offset="0"/><stop stop-color="#E42B1E" offset=".41"/><stop stop-color="#900" offset=".99"/><stop stop-color="#900" offset="1"/></linearGradient><radialGradient id="gitea-rubygems__m" cx="143.83" cy="79.388" r="50.358" gradientUnits="userSpaceOnUse"><stop stop-color="#A80D00" offset="0"/><stop stop-color="#7E0E08" offset=".99"/><stop stop-color="#7E0E08" offset="1"/></radialGradient><radialGradient id="gitea-rubygems__n" cx="74.092" cy="145.75" r="66.944" gradientUnits="userSpaceOnUse"><stop stop-color="#A30C00" offset="0"/><stop stop-color="#800E08" offset=".99"/><stop stop-color="#800E08" offset="1"/></radialGradient></defs><path clip-rule="evenodd" fill="url(#gitea-rubygems__a)" fill-rule="evenodd" d="M153.5 130.41 40.38 197.58l146.47-9.94 11.28-147.69z"/><path clip-rule="evenodd" fill="url(#gitea-rubygems__b)" fill-rule="evenodd" d="m187.09 187.54-12.59-86.89-34.29 45.28z"/><path clip-rule="evenodd" fill="url(#gitea-rubygems__c)" fill-rule="evenodd" d="m187.26 187.54-92.23-7.24-54.16 17.09z"/><path clip-rule="evenodd" fill="url(#gitea-rubygems__d)" fill-rule="evenodd" d="m41 197.41 23.04-75.48-50.7 10.84z"/><path clip-rule="evenodd" fill="url(#gitea-rubygems__e)" fill-rule="evenodd" d="M140.2 146.18 119 63.14l-60.67 56.87z"/><path clip-rule="evenodd" fill="url(#gitea-rubygems__f)" fill-rule="evenodd" d="m193.32 64.31-57.35-46.84L120 69.1z"/><path clip-rule="evenodd" fill="url(#gitea-rubygems__g)" fill-rule="evenodd" d="m166.5.77-33.73 18.64L111.49.52z"/><path clip-rule="evenodd" fill="url(#gitea-rubygems__h)" fill-rule="evenodd" d="m0 158.09 14.13-25.77-11.43-30.7z"/><path d="m1.94 100.65 11.5 32.62 49.97-11.211 57.05-53.02 16.1-51.139L111.209 0l-43.1 16.13C54.53 28.76 28.18 53.75 27.23 54.22c-.94.48-17.4 31.59-25.29 46.43z" clip-rule="evenodd" fill="#fff" fill-rule="evenodd"/><path d="M42.32 42.05c29.43-29.18 67.37-46.42 81.93-31.73 14.551 14.69-.88 50.39-30.31 79.56s-66.9 47.36-81.45 32.67c-14.56-14.68.4-51.33 29.83-80.5z" clip-rule="evenodd" fill="url(#gitea-rubygems__i)" fill-rule="evenodd"/><path d="m41 197.38 22.86-75.72 75.92 24.39c-27.45 25.74-57.98 47.5-98.78 51.33z" clip-rule="evenodd" fill="url(#gitea-rubygems__j)" fill-rule="evenodd"/><path d="m120.56 68.89 19.49 77.2c22.93-24.11 43.51-50.03 53.589-82.09l-73.079 4.89z" clip-rule="evenodd" fill="url(#gitea-rubygems__k)" fill-rule="evenodd"/><path d="M193.44 64.39c7.8-23.54 9.6-57.31-27.181-63.58l-30.18 16.67 57.361 46.91z" clip-rule="evenodd" fill="url(#gitea-rubygems__l)" fill-rule="evenodd"/><path d="M0 157.75c1.08 38.851 29.11 39.43 41.05 39.771L13.47 133.11 0 157.75z" clip-rule="evenodd" fill="#9e1209" fill-rule="evenodd"/><path d="M120.67 69.01c17.62 10.83 53.131 32.58 53.851 32.98 1.119.63 15.31-23.93 18.53-37.81l-72.381 4.83z" clip-rule="evenodd" fill="url(#gitea-rubygems__m)" fill-rule="evenodd"/><path d="m63.83 121.66 30.56 58.96c18.07-9.8 32.22-21.74 45.18-34.53l-75.74-24.43z" clip-rule="evenodd" fill="url(#gitea-rubygems__n)" fill-rule="evenodd"/><path d="m13.35 133.19-4.33 51.56c8.17 11.16 19.41 12.13 31.2 11.26-8.53-21.23-25.57-63.68-26.87-62.82z" clip-rule="evenodd" fill="url(#gitea-rubygems__o)" fill-rule="evenodd"/><path d="m135.9 17.61 60.71 8.52C193.37 12.4 183.42 3.54 166.46.77L135.9 17.61z" clip-rule="evenodd" fill="url(#gitea-rubygems__p)" fill-rule="evenodd"/></svg>