<svg xmlns="http://www.w3.org/2000/svg" style="shape-rendering:geometricPrecision;text-rendering:geometricPrecision;image-rendering:optimizeQuality;fill-rule:evenodd;clip-rule:evenodd" viewBox="0 0 64 64" class="svg gitea-azureadv2" width="16" height="16" aria-hidden="true"><path fill="#59e7ff" d="M30.5 2.5v25l-18 4.5c-2.212.79-4.212.623-6-.5a741.369 741.369 0 0 1 24-29Z" style="opacity:1"/><path fill="#88c6f4" d="M32.5 3.5c2.087 1.085 3.42 2.751 4 5-2.087-1.085-3.42-2.751-4-5Z" style="opacity:.988"/><path fill="#8bc7f4" d="M38.5 10.5c2.087 1.085 3.42 2.751 4 5-2.087-1.085-3.42-2.751-4-5Z" style="opacity:.988"/><path fill="#52abed" d="M32.5 3.5c.58 2.249 1.913 3.915 4 5 1 .333 1.667 1 2 2 .58 2.249 1.913 3.915 4 5 2.743 1.74 4.743 4.073 6 7a11.81 11.81 0 0 0-3.5-2c-4.618 1.72-8.784 4.054-12.5 7h-1c-.326-8.184.008-16.184 1-24Z" style="opacity:1"/><path fill="#3e9fe6" d="M48.5 22.5c1 .333 1.667 1 2 2 .58 2.249 1.913 3.915 4 5 1 .333 1.667 1 2 2-7.954-.214-15.954-1.548-24-4 3.716-2.946 7.882-5.28 12.5-7a11.81 11.81 0 0 1 3.5 2Z" style="opacity:1"/><path fill="#74b8ed" d="M50.5 24.5c2.087 1.085 3.42 2.751 4 5-2.087-1.085-3.42-2.751-4-5Z" style="opacity:.984"/><path fill="#9bebff" d="M30.5 27.5v23A556.45 556.45 0 0 1 4.5 33c.544-.717 1.21-1.217 2-1.5 1.788 1.123 3.788 1.29 6 .5l18-4.5Z" style="opacity:.997"/><path fill="#86e0fb" d="M32.5 3.5c-.992 7.816-1.326 15.816-1 24v23h-1v-48c.827-.939 1.494-.605 2 1Z" style="opacity:1"/><path fill="#54b1e0" d="M31.5 27.5h1c8.046 2.452 16.046 3.786 24 4 1.832.64 2.165 1.64 1 3a29656.73 29656.73 0 0 0-26 16v-23Z" style="opacity:1"/><path fill="#4fe5fe" d="M31.5 53.5v7c-10.678-5.882-21.344-12.548-32-20v-2c1.16-.956 2.326-1.956 3.5-3a267.156 267.156 0 0 1 28.5 18Z" style="opacity:.866"/><path fill="#47aced" d="M62.5 38.5a81.912 81.912 0 0 1-10 2c.17 1.322-.163 2.489-1 3.5-2.178 1.202-4.51 1.702-7 1.5 4.523-4.188 9.69-7.52 15.5-10 1.31.63 2.144 1.63 2.5 3Z" style="opacity:1"/><path fill="#39a2e7" d="M62.5 38.5h1v2a484.621 484.621 0 0 1-32 20v-7c.342-.838 1.008-1.172 2-1 4.08-.555 7.747-1.889 11-4v-3c2.49.202 4.822-.298 7-1.5.837-1.011 1.17-2.178 1-3.5a81.912 81.912 0 0 0 10-2Z" style="opacity:1"/><path fill="#43abec" d="M44.5 45.5v3c-3.253 2.111-6.92 3.445-11 4 3.15-3.08 6.817-5.413 11-7Z" style="opacity:1"/></svg>