<svg xmlns="http://www.w3.org/2000/svg" xml:space="preserve" viewBox="147 6 105 106" class="svg gitea-conan" width="16" height="16" aria-hidden="true"><path fill="#6699cb" d="m198.7 59.75-51.08-29.62v47.49l51.08 33.65z"/><clipPath id="gitea-conan__a"><path d="m147.49 30.14 51.21 29.61 51.08-27.24-52.39-25.78z"/></clipPath><path fill="#afd5e6" d="M147.49 6.73h102.3v53.01h-102.3z" clip-path="url(#gitea-conan__a)"/><path fill="#7ba7d3" fill-rule="evenodd" d="m198.7 59.75 51.08-27.24v47.48l-51.08 31.28z" clip-rule="evenodd"/><path fill="#6699cb" d="m198.93 19.49-2.96.33-.43.18-.47.01-.42.18-2.31.55-.33.14-.31.01-.28.23-4.27 1.58-.22.17c-1.93.75-3.49 1.8-5.16 2.66l-.19.2c-1.5.84-2.03 1.28-3.08 2.32l-.25.17-1.06 1.42-.21.18-.35.71-.19.2c-1.2 2.75-1.18 3.19-.93 6.4l.21.32v.33l.15.29.4.99.17.23.18.51.21.18c.61 1.1 1.37 1.97 2.1 2.77.41.45 2.16 1.87 2.85 2.22l.19.21c1.4.67 2.44 1.51 4.22 2.13l.24.16 3.45 1.08.39.19c1.19.13 2.44.48 3.76.65 1.44.19 2.2-.5 3.4-1.02l.23-.17h.16l.23-.17 5.47-2.52.23-.17h.16l.23-.17 3.15-1.49-.28-.12c-1.85-.08-4.04.2-6.04.15-2.01-.05-3.87-.42-5.71-.5l-.39-.19c-1.33-.13-2.66-.69-3.81-1.08l-.25-.16c-1.85-.66-3.55-2.12-4.35-3.63-1.27-2.4-.48-4.18.48-6.21l.21-.18.17-.33.22-.18c.99-1.41 3.43-3.37 5.83-4.13l.25-.16 2.54-.72.37-.19.39.02.39-.19 1.69-.14c.41-.27.62-.23 1.2-.24h3.93c.62-.02 1.16-.02 1.6.23l2.29.31.28.22c1.39.2 2.55.97 3.72 1.4l.2.19.73.34.19.2c1.23.65 3.41 2.65 3.87 4.24l.16.26c.52 1.8.39 2.4-.01 4.17l-.16.33-.64 1.38.96-.39.21-.18 7.56-3.91.21-.18 1.81-.89.21-.18 1.81-.89.21-.2c.07-.39-2.27-2.32-2.77-2.79l-.18-.25c-.61-.52-1.49-1.28-2.21-1.73l-.18-.22c-.72-.41-1.33-1.05-2.03-1.39l-.19-.2-1.83-1.05-.19-.2-2.38-1.24-.23-.17-3.07-1.27-.26-.16-1.85-.52-.29-.22h-.32l-.36-.16h-.34l-.32-.21c-1.51-.14-3.17-.63-4.86-.79-2.03-.18-4.01.05-5.83-.11l-.72.22z"/><path fill="#2f6799" fill-rule="evenodd" d="m225.14 45.65 1.91-1.02v49.28l-1.91 1.17z" clip-rule="evenodd"/></svg>