<svg xmlns="http://www.w3.org/2000/svg" viewBox="0 0 67.733 67.733" class="svg gitea-gogs" width="16" height="16" aria-hidden="true"><g style="display:inline"><path d="M28.764 62.186c-.212-.03-.436-.106-.498-.17-.143-.149-.325-.78-.89-3.087-.248-1.01-.506-1.976-.574-2.146-.149-.372-.48-.586-2.138-1.376-1.849-.882-3.864-2.103-5.63-3.413l-.753-.56-2.322.68c-1.278.372-2.658.75-3.069.839l-.745.161-.352-.536c-.952-1.453-3.563-5.958-4.626-7.978l-.557-1.06.483-.591c.266-.326 1.293-1.418 2.282-2.427l1.8-1.835-.181-1.039c-.161-.925-.18-1.32-.183-3.624-.002-2.082.026-2.778.143-3.58l.146-.994-2.063-2.035c-1.532-1.51-2.104-2.127-2.22-2.393-.154-.353-.154-.361.003-.767.476-1.232 4.42-7.981 5.186-8.876l.257-.3.484.125c.267.07 1.586.437 2.93.818l2.445.691.43-.26c.236-.144.845-.565 1.352-.936 1.305-.955 2.69-1.762 4.708-2.743 1.875-.912 1.839-.883 2.124-1.683.066-.184.337-1.17.602-2.193.265-1.022.573-2.136.685-2.476.176-.534.233-.623.422-.665.484-.106 3.97-.15 7.292-.093l3.52.061.43 1.748c.51 2.069.91 3.48 1.128 3.991.174.407.008.309 2.594 1.536 1.355.643 2.654 1.424 4.307 2.59.702.497 1.338.945 1.413.996.11.075.503-.016 1.995-.464a90.709 90.709 0 0 1 3.022-.85l1.163-.295.145.192c.933 1.235 5.325 8.9 5.325 9.293 0 .334-.488.915-2.54 3.027l-1.894 1.948.158.96c.228 1.383.275 3.127.159 5.922l-.102 2.451 1.51 1.495c1.55 1.535 2.471 2.55 2.683 2.959.116.223.104.265-.329 1.131-1.29 2.583-4.51 8.106-4.924 8.445-.23.187-.907.06-3.362-.636-1.264-.358-2.428-.67-2.585-.693-.255-.038-.378.02-1.095.52-2.75 1.915-3.396 2.301-5.615 3.357-.864.41-1.587.808-1.713.941-.28.295-.5 1.01-1.142 3.71l-.508 2.141-1.894.05c-2.516.066-8.338.064-8.822-.004zm7.858-12.12c2.091-.389 5.175-1.724 6.867-2.974 1.797-1.327 4.758-4.883 4.977-5.976.047-.236.02-.268-.545-.647-.9-.603-2.188-1.377-5.078-3.05-4.184-2.421-4.523-2.676-4.524-3.398-.001-1.34-1.22-3.278-2.424-3.858-1.79-.861-3.842-.522-5.214.864-.315.318-.68.79-.821 1.058-1.356 2.595.091 5.559 3.005 6.155.886.181 1.73.074 2.913-.372l.88-.332 2.022 1.158c2.672 1.531 3.619 2.123 4.1 2.561.34.31.392.395.347.573-.077.304-.674 1.002-1.394 1.63-1.608 1.404-3.353 2.267-5.547 2.743-1.178.256-3.523.256-4.7 0-1.21-.262-1.987-.533-3.065-1.07a12.46 12.46 0 0 1-6.83-9.635c-.156-1.255-.067-3.198.201-4.38 1.025-4.512 4.41-7.971 8.972-9.169 1.369-.359 1.99-.43 3.327-.382 1.261.046 1.954.168 3.54.625.566.162 1.095.26 1.455.268.495.012.62-.018 1.01-.236 1.08-.605 1.36-1.855.603-2.693-1.318-1.458-6.683-2.214-10.374-1.462-2.483.506-5.054 1.805-6.994 3.535-2.575 2.295-4.26 4.712-5.127 7.353-.924 2.816-1.025 6.141-.275 9.11.774 3.063 2.55 5.963 4.958 8.095 2.442 2.162 5.767 3.672 8.928 4.055 1.089.132 3.735.05 4.807-.15z" style="display:inline;fill:#d75547;fill-opacity:1;fill-rule:evenodd;stroke:#428f29;stroke-width:.0190672;paint-order:markers fill stroke"/></g></svg>