<svg xmlns="http://www.w3.org/2000/svg" viewBox="0 0 36 36" class="svg gitea-chef" width="16" height="16" aria-hidden="true"><g fill="none" fill-rule="evenodd"><path fill="#435363" d="M18 25.8c-4.3 0-7.7-3.6-7.7-8s3.4-7.9 7.7-7.9c3.5 0 6.4 2.4 7.3 5.7h3c-1-5-5.2-8.7-10.3-8.7-5.9 0-10.6 4.9-10.6 10.9 0 6.1 4.7 11 10.6 11 5.1 0 9.3-3.7 10.3-8.7h-3c-.9 3.3-3.8 5.7-7.3 5.7"/><path fill="#435363" d="M12.8 23.2c1.3 1.4 3.1 2.3 5.2 2.3v-3.2c-1.2 0-2.3-.5-3.1-1.3l-2.1 2.2"/><path fill="#F38B00" d="M10.6 17.8c0 1.1.3 2.2.6 3.1l2.9-1.3c-.3-.5-.4-1.1-.4-1.8 0-2.4 1.9-4.4 4.3-4.4v-3.2c-4.1 0-7.4 3.4-7.4 7.6"/><path fill="#435363" d="m20.6 10.7-1.1 3c.9.4 1.7 1.1 2.2 1.9H25c-.7-2.2-2.3-4-4.4-4.9"/><path fill="#F38B00" d="m19.5 22 1.1 2.9c2.1-.8 3.7-2.6 4.4-4.8h-3.3c-.5.8-1.3 1.5-2.2 1.9"/><path fill="#435363" d="M4.4 22.1c-.1-.2-.1-.3-.1-.5-.1-.2-.1-.3-.2-.5V21c0-.1 0-.3-.1-.4v-.5c-.1-.1-.1-.2-.1-.3-.1-.6-.1-1.3-.1-2H.9c0 .8 0 1.5.1 2.2 0 .2.1.4.1.6v.1c0 .2.1.4.1.5s0 .2.1.3v.3c.1.1.1.2.1.4 0 0 .1.1.1.2 0 .2 0 .3.1.4v.2c.2.7.5 1.3.7 2L5 23.8c-.2-.6-.4-1.1-.6-1.7"/><path fill="#F38B00" d="M18 32.6c-3.9 0-7.5-1.7-10.1-4.4l-2 2.2c3.1 3.2 7.3 5.2 12.1 5.2 8.7 0 15.8-6.8 16.9-15.5H32c-1.1 7-7 12.5-14 12.5M18 3.1c3.1 0 6.1 1.1 8.4 2.9l1.8-2.4C25.3 1.4 21.8.1 18 .1 10.7.1 4.5 4.8 2.1 11.4l2.7 1.1C6.8 7 12 3.1 18 3.1"/><path fill="#435363" d="M32 15.6h2.9c-.3-2.6-1.2-5-2.5-7.2L30 10c1 1.7 1.7 3.6 2 5.6"/><path fill="#F38B00" d="M28.7 15.6h2.9c-.8-5.1-4.1-9.3-8.6-11.1l-1.1 2.8c3.5 1.3 6 4.5 6.8 8.3"/><path fill="#435363" d="M18 6.5v-3c-5.9 0-10.9 3.8-12.9 9.1l2.7 1.1C9.4 9.5 13.3 6.5 18 6.5"/><path fill="#F38B00" d="M7 17.8H4.1c0 6.1 3.6 11.2 8.7 13.4l1.1-2.8C9.9 26.7 7 22.6 7 17.8"/><path fill="#435363" d="M18 29.2v3c6.9 0 12.6-5.3 13.6-12.1h-2.9c-1 5.2-5.4 9.1-10.7 9.1"/></g></svg>