<svg xmlns="http://www.w3.org/2000/svg" style="shape-rendering:geometricPrecision;text-rendering:geometricPrecision;image-rendering:optimizeQuality;fill-rule:evenodd;clip-rule:evenodd" viewBox="0 0 64 64" class="svg gitea-google" width="16" height="16" aria-hidden="true"><path fill="#ea4536" d="M23.5-.5h16c5.358 1.52 10.025 4.354 14 8.5L44 17.5c-12.561-8.09-22.728-5.757-30.5 7a94.077 94.077 0 0 0-11-7C4.615 11.79 8.281 7.29 13.5 4c3.393-1.62 6.727-3.12 10-4.5Z" style="opacity:.958"/><path fill="#fabb06" d="M2.5 17.5a94.077 94.077 0 0 1 11 7c-1.226 4.345-1.226 8.678 0 13a102.193 102.193 0 0 1-11 8l-3-6v-16l3-6Z" style="opacity:.955"/><path fill="#4385f4" d="M52.5 56.5a50.459 50.459 0 0 0-10-9c2.558-2.399 4.558-5.232 6-8.5-5.657-.5-11.324-.666-17-.5v-13h31c.946 8.803-.554 17.136-4.5 25-1.331 2.496-3.164 4.496-5.5 6Z" style="opacity:.968"/><path fill="#37a854" d="M13.5 37.5c6.396 12.466 16.063 15.8 29 10a50.459 50.459 0 0 1 10 9 54.124 54.124 0 0 1-12 7h-17c-9.481-3.15-16.481-9.15-21-18a102.193 102.193 0 0 0 11-8Z" style="opacity:.975"/></svg>