<svg xmlns="http://www.w3.org/2000/svg" viewBox="0 0 32 32" class="svg gitea-gitlab" width="16" height="16" aria-hidden="true"><path fill="#E24329" d="m31.462 12.779-.045-.115-4.35-11.35a1.137 1.137 0 0 0-.447-.541 1.163 1.163 0 0 0-1.343.071c-.187.15-.322.356-.386.587l-2.94 9.001h-11.9l-2.941-9a1.138 1.138 0 0 0-1.045-.84 1.153 1.153 0 0 0-1.13.72L.579 12.68l-.045.113a8.09 8.09 0 0 0 2.68 9.34l.016.012.038.03 6.635 4.967 3.28 2.484 1.994 1.51a1.35 1.35 0 0 0 1.627 0l1.994-1.51 3.282-2.484 6.673-4.997.018-.013a8.088 8.088 0 0 0 2.69-9.352Z"/><path fill="#FC6D26" d="m31.462 12.779-.045-.115a14.748 14.748 0 0 0-5.856 2.634l-9.553 7.24A11225.6 11225.6 0 0 0 22.1 27.14l6.673-4.997.019-.013a8.09 8.09 0 0 0 2.67-9.352Z"/><path fill="#FCA326" d="m9.908 27.14 3.275 2.485 1.994 1.51a1.35 1.35 0 0 0 1.627 0l1.994-1.51 3.282-2.484s-2.835-2.14-6.092-4.603l-6.08 4.603Z"/><path fill="#FC6D26" d="M6.435 15.305A14.712 14.712 0 0 0 .58 12.672l-.045.113a8.09 8.09 0 0 0 2.68 9.347l.016.012.038.03 6.635 4.967 6.105-4.603-9.573-7.233Z"/></svg>