<svg xmlns="http://www.w3.org/2000/svg" xml:space="preserve" fill-rule="evenodd" stroke-linecap="round" stroke-linejoin="round" clip-rule="evenodd" viewBox="0 0 32 32" class="svg gitea-cargo" width="16" height="16" aria-hidden="true"><path d="M15.993 1.54c-7.972 0-14.461 6.492-14.461 14.462 0 7.969 6.492 14.461 14.461 14.461 7.97 0 14.462-6.492 14.462-14.461 0-7.97-6.492-14.462-14.462-14.462zm-.021 1.285a.954.954 0 0 1 .924.951c0 .522-.43.952-.952.952s-.951-.43-.951-.952.429-.952.951-.952l.028.001zm2.178 1.566a11.717 11.717 0 0 1 8.016 5.709l-1.123 2.533a.874.874 0 0 0 .44 1.147l2.16.958c.067.675.076 1.355.025 2.031h-1.202c-.12 0-.169.08-.169.196v.551c0 1.297-.731 1.582-1.373 1.652-.612.07-1.288-.257-1.374-.63-.361-2.029-.961-2.46-1.909-3.21 1.178-.746 2.401-1.85 2.401-3.325 0-1.594-1.092-2.597-1.835-3.09-1.046-.688-2.203-.826-2.515-.826H7.271a11.712 11.712 0 0 1 6.55-3.696l1.466 1.536a.862.862 0 0 0 1.223.028l1.64-1.564zM4.628 11.434c.511.015.924.44.924.951 0 .522-.43.952-.952.952s-.951-.43-.951-.952.429-.951.951-.951h.028zm22.685.043c.511.015.924.44.924.951 0 .522-.43.952-.952.952s-.951-.43-.951-.952a.956.956 0 0 1 .979-.951zm-20.892.153h1.658v7.477H4.732a11.715 11.715 0 0 1-.38-4.47l2.05-.912a.865.865 0 0 0 .441-1.144l-.422-.951zm6.92.079h3.949c.205 0 1.441.236 1.441 1.163 0 .768-.948 1.043-1.728 1.043h-3.665l.003-2.206zm0 5.373h3.026c.275 0 1.477.079 1.86 1.615.119.471.385 2.007.566 2.499.18.551.911 1.652 1.691 1.652h4.938c-.331.444-.693.863-1.083 1.255l-2.01-.432a.87.87 0 0 0-1.031.667l-.477 2.228a11.714 11.714 0 0 1-9.762-.046l-.478-2.228a.867.867 0 0 0-1.028-.667l-1.967.423a11.866 11.866 0 0 1-1.016-1.2h9.567c.107 0 .181-.018.181-.119v-3.384c0-.097-.074-.119-.181-.119h-2.799l.003-2.144zm-4.415 7.749c.512.015.924.44.924.951 0 .522-.429.952-.951.952s-.952-.43-.952-.952.43-.952.952-.952l.027.001zm14.089.043a.954.954 0 0 1 .923.951c0 .522-.429.952-.951.952s-.951-.43-.951-.952a.956.956 0 0 1 .979-.951z"/><path d="M29.647 16.002c0 7.49-6.163 13.653-13.654 13.653-7.49 0-13.654-6.163-13.654-13.653 0-7.491 6.164-13.654 13.654-13.654 7.491 0 13.654 6.163 13.654 13.654zm-.257-1.319 2.13 1.319-2.13 1.318 1.83 1.71-2.344.878 1.463 2.035-2.475.404 1.04 2.282-2.506-.089.575 2.442-2.441-.576.089 2.506-2.283-1.04-.403 2.475-2.035-1.462-.878 2.343-1.71-1.829-1.319 2.129-1.318-2.129-1.71 1.829-.878-2.343-2.035 1.462-.404-2.475-2.282 1.04.089-2.506-2.442.576.575-2.442-2.505.089 1.04-2.282-2.475-.404 1.462-2.035-2.343-.878 1.829-1.71-2.129-1.318 2.129-1.319-1.829-1.71 2.343-.878-1.462-2.035 2.475-.404-1.04-2.282 2.505.089-.575-2.441 2.442.575-.089-2.506 2.282 1.04.404-2.475 2.035 1.463.878-2.344 1.71 1.83 1.318-2.13 1.319 2.13 1.71-1.83.878 2.344 2.035-1.463.403 2.475 2.283-1.04-.089 2.506 2.441-.575-.575 2.441 2.506-.089-1.04 2.282 2.475.404-1.463 2.035 2.344.878-1.83 1.71z"/></svg>