<?xml version="1.0" encoding="UTF-8" standalone="no"?><svg xmlns:dc="http://purl.org/dc/elements/1.1/" xmlns:cc="http://creativecommons.org/ns#"    xmlns:rdf="http://www.w3.org/1999/02/22-rdf-syntax-ns#" xmlns:svg="http://www.w3.org/2000/svg"    xmlns="http://www.w3.org/2000/svg" xmlns:xlink="http://www.w3.org/1999/xlink" xml:space="preserve"    viewBox="0 0 186 162" class="svg gitea-arch" width="16" height="16" aria-hidden="true" version="1.1">    <title>Arch Logo</title>    <metadata>        <rdf:RDF>            <cc:Work rdf:about="">                <dc:title>Arch Logo</dc:title>                <dc:description>This is shape (source) for Clarity vector icon theme for gtk</dc:description>                <dc:creator>                    <cc:Agent>                        <dc:title>Jakub Jankiewicz</dc:title>                    </cc:Agent>                </dc:creator>                <dc:rights>                    <cc:Agent>                        <dc:title>Jakub Jankiewicz</dc:title>                    </cc:Agent>                </dc:rights>                <dc:date>2010</dc:date>                <dc:format>image/svg+xml</dc:format>                <dc:type rdf:resource="http://purl.org/dc/dcmitype/StillImage" />                <cc:license rdf:resource="http://creativecommons.org/licenses/by-sa/3.0/" />            </cc:Work>        </rdf:RDF>    </metadata>    <path        d="M 104.50715,93.106041 C 88.620817,63.814747 65.644515,19.806944 63.527825,10.315314 c 0,0 -4.615285,11.632936 -12.844798,29.55467 2.996466,4.643391 10.373351,9.644813 13.072949,12.854838 C 54.434655,49.783544 48.759029,43.931831 48.759029,43.931831 39.182344,64.563041 25.655464,91.759025 10.315318,116.87166 17.635956,113.1318 37.808382,100.77398 52.286979,99.147945 51.798935,92.318635 51.961614,72.968879 63.186594,72.643673 74.411572,72.318466 77.177147,88.741364 75.550339,99.310548 85.961911,101.58699 109.38796,111.83097 117.68468,117.68468 l -8.86611,-16.7481 c 0,0 -12.282401,-8.374053 -18.220253,-12.683025 7.645999,0.162604 12.011193,3.806015 13.908833,4.852486 z" /></svg>