<svg xmlns="http://www.w3.org/2000/svg" xml:space="preserve" stroke-linejoin="round" stroke-miterlimit="1.414" clip-rule="evenodd" viewBox="0 0 24 24" class="svg material-folder-admin-open" width="16" height="16" aria-hidden="true"><path fill="#e57373" d="M19 20H4a2 2 0 0 1-2-2V6c0-1.11.89-2 2-2h6l2 2h7c1.097 0 2 .903 2 2H4v10l2.14-8h17.07l-2.28 8.5c-.23.87-1.01 1.5-1.93 1.5z" style="fill:#546e7a"/><path d="m18.139 8.318-5.326 2.367v3.55c0 3.285 2.272 6.356 5.326 7.102 3.054-.746 5.326-3.817 5.326-7.101v-3.55l-5.326-2.368m0 2.367a1.775 1.775 0 0 1 1.775 1.775 1.775 1.775 0 0 1-1.775 1.776 1.775 1.775 0 0 1-1.775-1.776 1.775 1.775 0 0 1 1.775-1.775m3.036 7.101a5.734 5.734 0 0 1-3.036 2.32 5.734 5.734 0 0 1-3.036-2.32 6.016 6.016 0 0 1-.515-.905c0-.976 1.604-1.775 3.551-1.775s3.55.78 3.55 1.775c-.141.314-.313.61-.514.905z" style="fill:#cfd8dc;stroke-width:.59177"/></svg>