<svg xmlns="http://www.w3.org/2000/svg" fill-rule="evenodd" stroke-linejoin="round" stroke-miterlimit="1.414" clip-rule="evenodd" viewBox="0 0 24 24" class="svg material-folder-mock-open" width="16" height="16" aria-hidden="true"><path fill="#4DD0E1" fill-rule="nonzero" d="M19 20H4a2 2 0 0 1-2-2V6c0-1.11.89-2 2-2h6l2 2h7c1.097 0 2 .903 2 2H4v10l2.14-8h17.07l-2.28 8.5c-.23.87-1.01 1.5-1.93 1.5z" style="fill:#8d6e63"/><path d="M12.213 18.337v2.402h2.402l7.083-7.084-2.401-2.401zm11.343-6.539a.638.638 0 0 0 0-.903l-1.499-1.499a.638.638 0 0 0-.903 0l-1.172 1.172 2.402 2.402z" style="fill:#d7ccc8;stroke-width:.64046"/></svg>