<svg xmlns="http://www.w3.org/2000/svg" xml:space="preserve" stroke-linejoin="round" stroke-miterlimit="1.414" clip-rule="evenodd" viewBox="0 0 24 24" class="svg material-folder-azure-pipelines-open" width="16" height="16" aria-hidden="true"><path fill="#1e88e5" d="M19 20H4a2 2 0 0 1-2-2V6c0-1.11.89-2 2-2h6l2 2h7c1.097 0 2 .903 2 2H4v10l2.14-8h17.07l-2.28 8.5c-.23.87-1.01 1.5-1.93 1.5z"/><path fill="#bbdefb" d="M18.432 9.019a.988.988 0 0 0-.822.44l-1.689 2.528h-3.954a.494.494 0 0 0-.494.495v2.72l1.731 1.783.597-.639.742.742-.603.604.73.731.605-.604.747.748-.592.592 1.731 1.731h2.72a.494.494 0 0 0 .495-.494V16.44l2.528-1.687a.99.99 0 0 0 .44-.823V9.514a.494.494 0 0 0-.495-.495zm1.944 1.484a1.483 1.483 0 0 1 1.05 2.533 1.485 1.485 0 0 1-1.627.318 1.485 1.485 0 0 1-.79-.789 1.472 1.472 0 0 1-.086-.278v-.001a1.486 1.486 0 0 1 1.453-1.783zm-8.903 7.42v2.968h2.968V20h-2.078v-2.078z"/></svg>