<svg xmlns="http://www.w3.org/2000/svg" viewBox="0 0 24 24" class="svg material-caddy" width="16" height="16" aria-hidden="true"><g fill="#4fc3f7" fill-rule="evenodd"><path d="M22.453 14.346c0-5.773-4.68-10.453-10.453-10.453S1.547 8.573 1.547 14.346a10.405 10.405 0 0 0 1.356 5.151v-.654A2.56 2.56 0 0 1 5.181 16.3v-3.398c0-4.038 2.529-6.188 6.719-6.134 2.037.027 3.674.52 4.825 1.501 1.232 1.05 1.871 2.629 1.871 4.697l-.006 3.355a2.56 2.56 0 0 1 2.133 2.522v1.265a10.404 10.404 0 0 0 1.73-5.762z"/><path d="M15.52 16.284V13.98a7.545 7.545 0 0 1-.01-.27 9.128 9.128 0 0 0-.037-.757 4.423 4.423 0 0 0-.162-.865c-.173-.568-.469-1.024-.928-1.36-.564-.411-1.37-.638-2.462-.638-1.102 0-1.92.229-2.496.644-.471.339-.776.799-.95 1.367a4.206 4.206 0 0 0-.167.933 7.608 7.608 0 0 0-.013.781 29.77 29.77 0 0 1 .004.166v2.304z"/></g></svg>