<svg xmlns="http://www.w3.org/2000/svg" xml:space="preserve" fill-rule="evenodd" stroke-linejoin="round" stroke-miterlimit="1.414" clip-rule="evenodd" viewBox="0 0 24 24" class="svg material-folder-dist" width="16" height="16" aria-hidden="true"><path fill="#e57373" fill-rule="nonzero" d="M10 4H4c-1.11 0-2 .89-2 2v12c0 1.097.903 2 2 2h16c1.097 0 2-.903 2-2V8a2 2 0 0 0-2-2h-8l-2-2z"/><path fill="#ffcdd2" d="M18.575 11.113h-2.576V9.825h2.576m3.864 1.288h-2.576V9.825l-1.288-1.288h-2.576L14.71 9.825v1.288h-2.577c-.715 0-1.288.573-1.288 1.288v7.085a1.288 1.288 0 0 0 1.288 1.288H22.44a1.288 1.288 0 0 0 1.288-1.288V12.4c0-.715-.58-1.288-1.288-1.288z"/></svg>