<svg xmlns="http://www.w3.org/2000/svg" viewBox="0 0 33 33" class="svg material-cucumber" width="16" height="16" aria-hidden="true"><path fill="#4caf50" fill-rule="evenodd" d="M16.633 2.088c-7.028 0-12.714 5.686-12.714 12.714 0 6.187 4.435 11.327 10.288 12.471v3.64c7.609-1.148 14.346-7.187 14.848-15.117.303-4.772-2.076-9.644-6.09-12.01a10.575 10.575 0 0 0-1.455-.728l-.243-.097c-.223-.083-.448-.175-.68-.243a12.614 12.614 0 0 0-3.954-.63zm2.62 4.707a1.387 1.387 0 0 0-1.213.485c-.233.31-.379.611-.534.922-.466 1.087-.31 2.252.388 3.106 1.087-.233 2.01-.927 2.475-2.014a2.45 2.45 0 0 0 .243-1.02c.048-.824-.634-1.405-1.359-1.48zm-5.654.073c-.708.067-1.382.63-1.382 1.407 0 .31.087.708.243 1.019.466 1.087 1.46 1.78 2.546 2.014.621-.854.782-2.019.316-3.106-.155-.31-.3-.616-.534-.85a1.364 1.364 0 0 0-1.188-.484zM9.79 10.603c-1.224.063-1.77 1.602-.752 2.402.31.233.612.403.922.558 1.087.466 2.344.306 3.275-.315-.233-1.01-1.023-1.936-2.11-2.402-.388-.155-.703-.243-1.092-.243-.087-.01-.161-.004-.243 0zm11.961 4.707a3.551 3.551 0 0 0-2.013.583c.233 1.009 1.023 1.935 2.11 2.401.389.155.705.243 1.093.243 1.397.078 2.08-1.65.994-2.426-.31-.233-.611-.379-.922-.534a3.354 3.354 0 0 0-1.262-.267zm-10.603.073a3.376 3.376 0 0 0-1.261.267c-.389.155-.69.325-.923.558-1.009.854-.33 2.48 1.068 2.402a2.51 2.51 0 0 0 1.092-.243c1.087-.466 1.859-1.392 2.014-2.401a3.474 3.474 0 0 0-1.99-.583zm3.931 2.378c-1.087.233-2.009.927-2.475 2.014-.155.31-.243.684-.243.994-.077 1.32 1.724 2.03 2.5 1.02.233-.31.378-.612.534-.923.466-1.009.306-2.174-.316-3.105zm2.887.073c-.621.854-.781 2.018-.315 3.105.155.311.3.616.534.85.854.93 2.65.242 2.572-.923 0-.31-.088-.708-.243-1.019-.466-1.087-1.46-1.78-2.547-2.013z"/></svg>