<svg xmlns="http://www.w3.org/2000/svg" viewBox="0 0 24 24" class="svg material-cake" width="16" height="16" aria-hidden="true"><path d="M12 7.175a1.807 1.807 0 0 0 1.808-1.808c0-.343-.09-.66-.262-.93L12 1.75l-1.546 2.685a1.72 1.72 0 0 0-.262.931A1.808 1.808 0 0 0 12 7.175m4.158 9.04-.967-.977-.976.977c-1.175 1.166-3.237 1.175-4.42 0l-.959-.977-.994.977a3.134 3.134 0 0 1-3.978.352v4.167a.904.904 0 0 0 .904.904h14.463a.904.904 0 0 0 .904-.904v-4.167a3.134 3.134 0 0 1-3.977-.353m1.265-6.327h-4.52V8.079h-1.807v1.808h-4.52a2.712 2.712 0 0 0-2.712 2.712v1.392c0 .976.795 1.772 1.772 1.772.488 0 .94-.181 1.247-.516l1.953-1.925 1.907 1.925c.669.67 1.835.67 2.504 0l1.916-1.925 1.944 1.925c.316.335.768.516 1.247.516.977 0 1.781-.796 1.781-1.772v-1.392a2.712 2.712 0 0 0-2.712-2.712z" style="fill:#ff7043;stroke-width:.90395"/></svg>