<svg xmlns="http://www.w3.org/2000/svg" xml:space="preserve" style="enable-background:new 0 0 300 300" viewBox="0 0 300 300" class="svg material-nest-resolver" width="16" height="16" aria-hidden="true"><path d="M201.6 200.1c-2.1 0-4.1.5-5.9 1.1 3.9 2.6 6 6 7.1 9.9.1.5.2.9.3 1.4s.2.9.2 1.4c.3 6.7-1.8 7.5-3.2 11.5-2.2 5.1-1.6 10.6 1.1 15 .2.5.5 1.1.9 1.7-2.9-19.3 13.2-22.2 16.2-28.2.2-5.3-4.1-8.8-7.5-11.2-3.5-2-6.5-2.6-9.2-2.6zm24.2 4.3c-.3 1.8-.1 1.3-.2 2.2-.1.6-.1 1.4-.2 2-.2.6-.3 1.2-.5 1.8l-.6 1.8c-.3.6-.5 1.1-.8 1.8l-.6.9c-.2.2-.3.5-.5.7-.4.5-.8 1.1-1.1 1.5-.5.5-.8 1-1.4 1.4v.1c-.5.4-.9.8-1.4 1.2-1.6 1.2-3.4 2.1-5.1 3.3-.5.4-1.1.7-1.5 1.1-.5.4-1 .8-1.4 1.2l-1.4 1.4c-.4.5-.8 1-1.1 1.5-.4.5-.8 1.1-1.1 1.6-.3.6-.5 1.1-.8 1.8-.2.6-.5 1.1-.6 1.8-.2.7-.4 1.3-.5 1.9-.1.3-.1.7-.2 1s-.1.6-.2.9c0 .6-.1 1.3-.1 1.9 0 .5 0 .9.1 1.4 0 .6.1 1.2.2 1.9.1.6.2 1.2.4 1.8l.6 1.8c.2.4.4.8.5 1.1l-17.5-6.8c-3-.8-5.9-1.6-8.8-2.3-1.6-.4-3.2-.8-4.8-1.1-4.6-.9-9.2-1.6-13.9-2.1-.2 0-.2-.1-.4-.1-4.6-.5-9.1-.7-13.6-.7-3.4 0-6.7.2-10 .4-4.6.3-9.3.9-13.9 1.7-1.1.2-2.3.4-3.4.6-2.4.5-4.6 1-6.9 1.5-1.1.3-2.3.6-3.4.9-1.1.5-2.2 1-3.3 1.4-.8.4-1.7.8-2.5 1.1-.2.1-.3.1-.4.2-.8.4-1.4.7-2.1 1.1-.2.1-.4.2-.5.2-.8.4-1.7.8-2.4 1.2-.5.2-1.1.5-1.5.8-.2.2-.5.3-.7.4-.7.4-1.4.8-2 1.1-.7.4-1.3.8-1.8 1.1-.5.4-1.1.7-1.5 1.1-.1.1-.2.1-.2.2-.5.3-1 .7-1.4 1.1l-.2.2c-.4.3-.8.6-1.1.9-.2.1-.3.2-.5.3-.4.3-.8.7-1.1 1-.1.2-.2.2-.3.3-.5.5-.9.8-1.4 1.3-.1 0-.1.1-.2.2-.5.4-.9.8-1.4 1.3-.1.1-.1.2-.2.2-.4.4-.8.8-1.1 1.2-.2.2-.4.3-.5.5-.4.5-.8.9-1.3 1.4-.1.2-.2.2-.3.4-.6.6-1.1 1.2-1.8 1.8l-.2.2c-1.2 1.3-2.5 2.6-3.9 3.7-1.4 1.2-2.8 2.4-4.3 3.4-1.5 1.1-3 2-4.6 2.9-1.5.8-3.1 1.6-4.8 2.3-1.6.7-3.3 1.3-5 1.8-3.2.7-6.5 2-9.3 2.2-.6 0-1.3.2-1.9.2-.7.2-1.3.3-1.9.5s-1.2.5-1.8.7-1.2.5-1.8.8c-.5.4-1.1.7-1.7 1.1-.5.4-1.1.8-1.5 1.3-.5.4-1.1.9-1.5 1.4-.5.5-.9 1-1.3 1.5-.4.6-.8 1.1-1.1 1.8-.4.5-.8 1.1-1.1 1.8s-.6 1.3-.8 2c-.2.6-.5 1.3-.7 2-.2.6-.3 1.2-.4 1.8 0 .1-.1.2-.1.2-.2.7-.2 1.6-.2 2.1-.1.5-.2 1-.2 1.5 0 .3 0 .7.1 1 .1.5.2 1 .3 1.4.2.5.3.9.5 1.4v.1c.2.5.5.9.8 1.4s.6.9 1 1.4c.4.4.8.8 1.3 1.2.5.5.9.8 1.4 1.2 1.8 1.6 2.3 2.1 4.6 3.4l1.2.6c.1 0 .2.1.2.1 0 .2 0 .2.1.4.1.6.2 1.2.4 1.8.2.7.4 1.3.6 1.8s.4.9.6 1.4c.1.2.2.3.2.4.3.6.6 1.1.9 1.7.4.5.8 1.1 1.1 1.6.4.5.8 1 1.3 1.4.5.5.9.8 1.4 1.3 0 0 .1.1.2.1.5.4.9.8 1.4 1.1.5.4 1.1.7 1.7 1 .5.3 1.1.6 1.8.8.5.2 1 .4 1.5.5.1.1.2.1.3.2.3.1.7.2 1 .2-.2 4.1-.3 8 .3 9.4.7 1.5 4-3.1 7.4-8.5-.5 5.3-.8 11.4 0 13.3s5.4-4 9.4-10.6c54-12.5 103.3 24.8 108.5 77.6-1-8.2-11.1-12.8-15.8-11.7-2.3 5.6-6.2 12.9-12.4 17.4.5-5 .3-10.2-.8-15.2-1.7 7-5 13.6-9.4 19.2-7.2.5-14.5-3-18.3-8.2-.3-.2-.4-.7-.6-1-.2-.5-.5-1.1-.6-1.6-.2-.5-.4-1.1-.5-1.6s-.1-1.1-.1-1.7V403c.1-.5.2-1.1.4-1.6s.3-1.1.5-1.6c.3-.5.5-1.1.9-1.6 1.3-3.7 1.3-6.6-1.1-8.4-.5-.3-.9-.5-1.4-.8-.3-.1-.7-.2-1-.3-.2-.1-.4-.2-.6-.2-.5-.2-1.1-.3-1.6-.4-.5-.2-1.1-.2-1.6-.2-.5-.1-1.1-.2-1.7-.2-.4 0-.8.1-1.1.1-.6 0-1.1.1-1.7.2-.5.1-1.1.2-1.6.3-.5.2-1.1.3-1.6.5s-1 .5-1.5.7-.9.5-1.4.8c-17.8 11.6-7.2 38.7 5 46.5-4.6.8-9.2 1.8-10.5 2.8l-.2.2c3.3 2 6.7 3.7 10.3 5.1 4.9 1.6 10.1 3 12.3 3.7v.1c6.3 1.3 12.7 1.8 19.2 1.4 33.7-2.4 61.4-28 66.4-61.9.2.7.3 1.3.5 2 .2 1.4.5 2.8.7 4.3v.1c.2.7.2 1.4.3 2v.3c.1.7.2 1.4.2 2 .1.8.2 1.7.2 2.5v1.2c0 .4.1.8.1 1.2 0 .5-.1.9-.1 1.4v1.1c0 .5-.1 1-.1 1.5 0 .3 0 .6-.1 1 0 .5-.1 1.1-.1 1.7-.1.2-.1.5-.1.7-.1.6-.2 1.1-.2 1.8 0 .2 0 .5-.1.7-.1.8-.2 1.4-.3 2.2v.2c-.2.7-.3 1.4-.5 2.1v.2c-.2.7-.3 1.4-.5 2.1 0 .1-.1.2-.1.3-.2.7-.3 1.4-.5 2.1v.2c-.2.8-.5 1.4-.6 2.1-.1.1-.1.2-.1.2-.2.8-.5 1.5-.7 2.3-.3.8-.5 1.4-.8 2.2s-.5 1.5-.8 2.2c-.3.8-.6 1.4-.9 2.2h-.1c-.3.7-.6 1.4-1 2.1-.1.2-.2.4-.2.5-.1.1-.1.2-.2.2-5 10-12.3 18.7-21.4 25.6-.6.4-1.2.8-1.8 1.3-.2.2-.4.2-.5.4-.5.4-1.1.8-1.7 1.1l.2.5h.1c1.1-.2 2.1-.3 3.2-.5h.1c2-.3 4-.7 5.9-1.1.5-.1 1.1-.2 1.7-.4.4-.1.7-.2 1.1-.2.5-.1 1.1-.2 1.6-.3.5-.2.9-.2 1.4-.4 7.6-1.8 15-4.3 22.1-7.3-12.1 16.5-28.3 29.9-47.3 38.6 8.8-.6 17.5-2.1 26-4.5 30.7-9.1 56.5-29.7 72-57.5-3.1 17.6-10.1 34.4-20.5 49 7.4-4.9 14.2-10.5 20.3-16.9 17.1-17.8 28.3-40.5 32.1-64.8 2.6 12 3.4 24.5 2.2 36.7 55-76.7 4.6-156.3-16.5-177.2-.1-.2-.2-.2-.2-.4-.1.1-.1.1-.1.2 0-.1 0-.1-.1-.2 0 .9-.1 1.8-.2 2.7-.2 1.8-.5 3.4-.8 5.1-.4 1.7-.8 3.4-1.3 5s-1.1 3.3-1.8 4.9c-.7 1.5-1.4 3.1-2.3 4.6-.8 1.4-1.8 3-2.7 4.3-1 1.4-2.1 2.8-3.1 4.1-1.1 1.4-2.4 2.6-3.6 3.8-.8.7-1.4 1.3-2.2 1.9-.6.5-1.1 1-1.8 1.5-1.4 1.1-2.7 2.1-4.3 3-1.4.9-3 1.8-4.5 2.6-1.6.8-3.2 1.4-4.8 2.1-1.6.6-3.3 1.1-5 1.6s-3.4.8-5.1 1.1c-1.8.3-3.5.5-5.2.6-1.2.1-2.4.2-3.7.2-1.8 0-3.5-.2-5.2-.3-1.8-.2-3.5-.4-5.2-.8-1.8-.3-3.4-.8-5.1-1.3h-.1c1.7-.2 3.4-.3 5-.6 1.8-.3 3.4-.7 5.1-1.1 1.7-.5 3.4-1 5-1.6 1.7-.6 3.3-1.4 4.8-2.1 1.6-.8 3-1.6 4.6-2.5 1.4-1 2.9-2 4.3-3 1.4-1.1 2.7-2.2 3.9-3.4 1.3-1.1 2.4-2.4 3.6-3.7 1.1-1.4 2.2-2.7 3.2-4.1.2-.2.3-.5.5-.8.8-1.2 1.5-2.4 2.2-3.7.8-1.5 1.6-3 2.3-4.6s1.3-3.2 1.8-4.9c.5-1.6.9-3.3 1.3-5 .3-1.8.6-3.4.8-5.1.2-1.8.3-3.5.3-5.2 0-1.2-.1-2.4-.2-3.7-.2-1.8-.4-3.4-.6-5.1-.3-1.8-.7-3.4-1.1-5.1-.5-1.6-1.1-3.3-1.7-4.9s-1.4-3.2-2.1-4.7c-.8-1.5-1.7-3-2.6-4.5l-3-4.2c-1.1-1.3-2.3-2.6-3.5-3.9-.6-.6-1.3-1.3-2-1.9-3.4-2.7-7-5.2-10.6-7.5-.5-.3-1-.5-1.5-.8-2.4-1.8-4.7-2.6-7.1-3.4z" style="fill:#ec407a" transform="translate(.312 -146.38) scale(.85352)"/></svg>