<svg xmlns="http://www.w3.org/2000/svg" stroke-linejoin="round" stroke-miterlimit="1.414" clip-rule="evenodd" viewBox="0 0 24 24" class="svg material-folder-utils-open" width="16" height="16" aria-hidden="true"><path fill="#7CB342" d="M19 20H4a2 2 0 0 1-2-2V6c0-1.11.89-2 2-2h6l2 2h7c1.097 0 2 .903 2 2H4v10l2.14-8h17.07l-2.28 8.5c-.23.87-1.01 1.5-1.93 1.5z"/><path d="M13.313 11.766h-1.122v7.856c0 .617.504 1.122 1.122 1.122h7.856v-1.122h-7.856zm8.978-2.244h-6.733c-.617 0-1.123.504-1.123 1.122v6.733c0 .618.506 1.122 1.123 1.122h6.733c.618 0 1.122-.504 1.122-1.122v-6.733c0-.618-.504-1.122-1.122-1.122zm-.561 5.05h-2.245v2.244h-1.122v-2.244h-2.245v-1.123h2.245v-2.244h1.122v2.244h2.245z" style="fill:#dcedc8;stroke-width:1.0688"/></svg>