<svg xmlns="http://www.w3.org/2000/svg" xml:space="preserve" fill-rule="evenodd" stroke-linejoin="round" stroke-miterlimit="1.414" clip-rule="evenodd" viewBox="0 0 24 24" class="svg material-folder-project" width="16" height="16" aria-hidden="true"><path fill="#e57373" fill-rule="nonzero" d="M10 4H4c-1.11 0-2 .89-2 2v12c0 1.097.903 2 2 2h16c1.097 0 2-.903 2-2V8a2 2 0 0 0-2-2h-8l-2-2z" style="fill:#1e88e5"/><path d="m20.283 15.319 3.45 3.425-2.035 2.01-3.425-3.425v-.564l1.446-1.446h.564m.558-1.55-.595-.588-2.935 2.94v1.208l-3.45 3.45-2.009-2.035 3.425-3.425h1.207l.478-.478-2.353-2.359h-.796l-1.722-1.74 1.605-1.605 1.716 1.715v.803l2.383 2.353 1.63-1.63-.588-.619.796-.803h-1.63l-.398-.398 2.028-2.034.405.404v1.63l.803-.809 2.01 2.01c.667.674.667 1.77 0 2.439l-1.208-1.232z" style="fill:#bbdefb;stroke-width:.61271"/></svg>