<svg xmlns="http://www.w3.org/2000/svg" viewBox="0 0 24 24" class="svg material-folder-supabase-open" width="16" height="16" aria-hidden="true"><path fill="#66bb6a" d="M19 20H4a2 2 0 0 1-2-2V6c0-1.11.89-2 2-2h6l2 2h7c1.097 0 2 .903 2 2H4v10l2.14-8h17.07l-2.28 8.5c-.23.87-1.01 1.5-1.93 1.5Z"/><path fill="#c8e6c9" d="M18.931 20.579c-.302.379-.917.17-.924-.312l-.106-3.572-.022-3.496h4.81c.867 0 1.352.995.812 1.669l-4.57 5.712zM16.92 8.749c.306-.409.926-.185.933.335l.048 7.612h-4.779c-.874 0-1.363-1.072-.819-1.797l4.617-6.151z"/></svg>