<svg xmlns="http://www.w3.org/2000/svg" fill="none" viewBox="0 0 24 24" class="svg material-deno" width="16" height="16" aria-hidden="true"><path fill="#CFD8DC" fill-rule="evenodd" d="M12 22c5.523 0 10-4.477 10-10S17.523 2 12 2 2 6.477 2 12s4.477 10 10 10ZM6.437 11.77c0-2.278 2.266-4.11 5.172-4.11 1.399 0 2.598.387 3.543 1.125a5.035 5.035 0 0 1 1.7 2.477l.007.023.008.027.016.051.023.094.063.219.066.25.113.414.18.656.29 1.078.327 1.227.528 1.972.199.743-.043.047a8.977 8.977 0 0 1-5.442 2.843l-.019-.129-.035-.258-.031-.187-.036-.246-.046-.3-.02-.118-.043-.285-.027-.168-.035-.219-.036-.21-.035-.204-.035-.2-.031-.195-.035-.187-.032-.18-.023-.133-.027-.128-.016-.082-.031-.165-.024-.117-.027-.144-.023-.102-.02-.097-.02-.094-.011-.063-.028-.117-.02-.086-.019-.086-.015-.054-.02-.079-.015-.074-.02-.074-.02-.07-.011-.043-.02-.067-.015-.062-.012-.043-.016-.04-.011-.034-.016-.055-.012-.04-.008-.023a2.628 2.628 0 0 0-.07-.183l-.012-.024.09-.234-.355.012-.098.004c-3.226.066-5.309-1.305-5.309-3.454Zm2.024 6.648a.486.486 0 0 1 .594-.332c.258.066.41.328.347.586l-.004.012-.472 1.761-.067-.027a8.932 8.932 0 0 1-.84-.363l.438-1.625.004-.012Zm2.719-1.191a.488.488 0 0 1 .902-.086l.016.07.023.113.016.082-.004.02-.012.055v.011l-.664 2.461-.004.012a.488.488 0 0 1-.941-.254v-.012l.664-2.46.004-.012Zm-4.063-2.793.031-.075c.247.215.532.41.844.575l-.601 2.234-.004.012a.488.488 0 0 1-.942-.258l.004-.012.664-2.46.004-.016ZM4.97 11.859a.495.495 0 0 1 .597-.332c.254.07.407.332.344.59v.012l-.664 2.46-.004.013a.488.488 0 0 1-.941-.258v-.012l.664-2.46.004-.013Zm14.89-.558a.488.488 0 0 1 .941.254v.015l-.667 2.461v.012a.49.49 0 0 1-.945-.258l.003-.012.665-2.46.003-.012Zm-16.785-.344a8.922 8.922 0 0 1 1.043-3.273.49.49 0 0 1 .465.605l-.004.012-.664 2.46-.004.012a.492.492 0 0 1-.836.184Zm15.102-2.926a.496.496 0 0 1 .597-.332c.254.07.41.332.348.59l-.004.012-.664 2.46-.004.012a.488.488 0 0 1-.941-.257l.004-.012.664-2.461v-.012ZM7.008 5.36a.492.492 0 0 0-.594.332l-.004.012-.664 2.461-.004.012a.488.488 0 0 0 .942.258l.003-.012.665-2.461.003-.016a.488.488 0 0 0-.347-.586Zm8.535.465a.495.495 0 0 0-.598.332l-.004.012-.445 1.656c.289.142.565.31.824.5l.043.035.524-1.933v-.012a.491.491 0 0 0-.344-.59Zm-4.344-2.773a8.982 8.982 0 0 0-.93.133l-.066.011-.617 2.293-.004.012a.488.488 0 0 0 .941.254l.004-.012.664-2.46.004-.012a.484.484 0 0 0 .004-.22Zm6.11 1.699-.13.484-.003.012a.488.488 0 0 0 .941.254l.004-.012.016-.05a9.03 9.03 0 0 0-.77-.645l-.058-.043Zm-3.864-1.617-.234.87-.004.013a.488.488 0 0 0 .941.254l.004-.012.246-.918a8.924 8.924 0 0 0-.882-.195l-.07-.012Zm-.769 6.355a.625.625 0 1 0-.884.884.625.625 0 0 0 .884-.884Z" clip-rule="evenodd"/></svg>