<svg xmlns="http://www.w3.org/2000/svg" xml:space="preserve" fill-rule="evenodd" stroke-linejoin="round" stroke-miterlimit="1.414" clip-rule="evenodd" viewBox="0 0 24 24" class="svg material-folder-svg" width="16" height="16" aria-hidden="true"><path fill="#e57373" fill-rule="nonzero" d="M10 4H4c-1.11 0-2 .89-2 2v12c0 1.097.903 2 2 2h16c1.097 0 2-.903 2-2V8a2 2 0 0 0-2-2h-8l-2-2z" style="fill:#ffb300"/><path d="M12.91 14.24h2.402l-1.702-1.702a1.177 1.177 0 0 1-1.175-1.182 1.175 1.175 0 0 1 1.175-1.175c.655 0 1.182.527 1.182 1.175l1.702 1.702v-2.402a1.182 1.182 0 0 1 0-1.663 1.163 1.163 0 0 1 1.657 0 1.182 1.182 0 0 1 0 1.663v2.402l1.708-1.702a1.176 1.176 0 0 1 2.35 0c0 .655-.526 1.182-1.175 1.182l-1.702 1.702h2.402a1.182 1.182 0 0 1 1.664 0 1.163 1.163 0 0 1 0 1.657 1.182 1.182 0 0 1-1.664 0h-2.402l1.702 1.708c.65 0 1.176.52 1.176 1.176a1.175 1.175 0 0 1-1.176 1.175 1.172 1.172 0 0 1-1.175-1.175l-1.708-1.702v2.402a1.182 1.182 0 0 1 0 1.663 1.163 1.163 0 0 1-1.657 0 1.182 1.182 0 0 1 0-1.663v-2.402l-1.702 1.702c0 .648-.527 1.175-1.182 1.175a1.176 1.176 0 0 1 0-2.35l1.702-1.709H12.91a1.182 1.182 0 0 1-1.663 0 1.163 1.163 0 0 1 0-1.657 1.182 1.182 0 0 1 1.663 0z" style="fill:#fff9c4;stroke-width:.64225"/></svg>