<svg xmlns="http://www.w3.org/2000/svg" fill-rule="evenodd" stroke-linejoin="round" stroke-miterlimit="1.414" clip-rule="evenodd" viewBox="0 0 24 24" class="svg material-folder-prisma" width="16" height="16" aria-hidden="true"><path fill="#00BFA5" d="M10 4H4c-1.11 0-2 .89-2 2v12c0 1.097.903 2 2 2h16c1.097 0 2-.903 2-2V8a2 2 0 0 0-2-2h-8l-2-2z"/><g style="fill:#a7ffeb"><path d="m23.036 18.979-6.134 1.768c-.187.054-.367-.104-.328-.288l2.191-10.225c.041-.191.312-.222.398-.045l4.058 8.395a.284.284 0 0 1-.185.395zm1.051-.417-4.698-9.72a.755.755 0 0 0-.642-.418.752.752 0 0 0-.687.347l-5.095 8.041a.735.735 0 0 0 .009.807l2.491 3.759a.807.807 0 0 0 .9.322l7.23-2.083a.784.784 0 0 0 .497-.419.735.735 0 0 0-.005-.636z" style="clip-rule:evenodd;fill-rule:evenodd;fill:#a7ffeb" transform="translate(-1.444)"/></g></svg>