<svg xmlns="http://www.w3.org/2000/svg" viewBox="0 0 16 16" class="svg material-fortran" width="16" height="16" aria-hidden="true"><g aria-label="F" style="fill:#ff7043"><path d="M12.564 5.092h-.615q-.172-.648-.722-1.386-.541-.738-1.042-.812-.254-.033-.607-.049-.344-.016-.787-.016H6.839v4.675h1.337q.607 0 .943-.123.336-.131.574-.394.164-.18.295-.558.14-.385.18-.82h.624v4.569h-.623q-.025-.361-.172-.82-.14-.46-.304-.665-.246-.303-.623-.41-.37-.115-.894-.115H6.839v4.01q0 .272.107.485.106.213.377.344.123.058.533.14.41.082.623.09v.582H3.435v-.582q.246-.016.656-.05.41-.04.533-.098.246-.106.353-.311.115-.214.115-.509V3.87q0-.27-.09-.475-.09-.214-.378-.345-.221-.106-.598-.189-.37-.082-.59-.098v-.582h9.128z" style="fill:#ff7043;stroke-width:1.1453"/></g></svg>