<svg xmlns="http://www.w3.org/2000/svg" fill="none" viewBox="0 0 24 24" class="svg material-architecture" width="16" height="16" aria-hidden="true"><path fill="#66BB6A" d="M6.278 22 6 19.556l3.167-8.723a4.366 4.366 0 0 0 1.944 1.056l-3.055 8.389L6.278 22Zm11.666 0-1.777-1.722-3.056-8.39c.37-.092.718-.226 1.042-.402a4.38 4.38 0 0 0 .903-.653l3.166 8.723L17.944 22Zm-5.833-11.111c-.926 0-1.713-.324-2.361-.972-.648-.648-.972-1.436-.972-2.361 0-.723.208-1.366.624-1.932.417-.564.95-.957 1.598-1.18V2h2.222v2.444a3.273 3.273 0 0 1 1.598 1.18c.416.566.624 1.21.624 1.932 0 .925-.324 1.713-.972 2.36-.648.649-1.435.973-2.36.973Zm0-2.222c.315 0 .579-.107.792-.32.213-.213.32-.477.32-.791 0-.315-.107-.58-.32-.793a1.078 1.078 0 0 0-.792-.319c-.315 0-.578.107-.791.32-.213.213-.32.477-.32.792 0 .314.107.578.32.79.213.214.476.32.791.32Z"/></svg>