<svg xmlns="http://www.w3.org/2000/svg" class="material-bitbucket__header__svg-logo svg material-bitbucket" preserveAspectRatio="xMinYMin" viewBox="0 0 24 24" width="16" height="16" aria-hidden="true"><defs><linearGradient id="material-bitbucket__a" x1="64.01" x2="32.99" y1="65.26" y2="89.48" gradientUnits="userSpaceOnUse"><stop offset=".18" stop-color="#1565c0"/><stop offset="1" stop-color="#1e88e5"/></linearGradient></defs><g class="material-bitbucket__header__svg-logo__icon"><path fill="#1e88e5" d="M2.985 3.333a.618.618 0 0 0-.617.716l2.621 15.914a.84.84 0 0 0 .822.701h12.576a.618.618 0 0 0 .618-.519l2.627-16.09a.618.618 0 0 0-.617-.716zm11.039 11.501H10.01L8.923 9.16h6.074z"/><path fill="url(#material-bitbucket__a)" d="M59.67 60.12H40.9L37.75 78.5h-13L9.4 96.73a2.71 2.71 0 0 0 1.75.66h40.74a2 2 0 0 0 2-1.68z" transform="matrix(.30877 0 0 .30877 2.368 -9.404)"/></g></svg>