<svg xmlns="http://www.w3.org/2000/svg" viewBox="0 0 24 24" class="svg material-sonarcloud" width="16" height="16" aria-hidden="true"><path fill="#ef6c00" d="M11.985 2.949c-3.269 0-5.909 2.745-5.936 6.12-2.332.834-4.022 3.116-4.022 5.813 0 3.392 2.663 6.169 5.948 6.169 1.513-.003 2.943-.625 4.025-1.675 1.081 1.052 2.513 1.673 4.026 1.675 3.278 0 5.947-2.77 5.947-6.17v-.001c0-1.145-.314-2.26-.891-3.237a8.288 8.288 0 0 0-1.192-1.379l-.089-.081a5.193 5.193 0 0 0-.163-.14l-.02-.016-.037-.03a5.654 5.654 0 0 0-1.666-.945c-.036-3.36-2.669-6.103-5.93-6.103zm.007 1.937c2.242 0 4.072 1.894 4.072 4.238v.002a4.317 4.317 0 0 1-1.717 3.46h-.002a.985.985 0 0 0-.218 1.33l.002.002c.179.262.47.41.766.41a.91.91 0 0 0 .546-.182c1.04-.78 1.769-1.882 2.16-3.115a4.238 4.238 0 0 1 2.51 3.855c-.006 2.337-1.836 4.234-4.085 4.234-2.24 0-4.07-1.895-4.071-4.238v-.002a.954.954 0 0 0-.932-.964h-.007a.952.952 0 0 0-.936.966v.002c0 1.08.317 2.077.788 2.961a3.97 3.97 0 0 1-2.894 1.28c-2.242 0-4.075-1.897-4.075-4.24 0-2.341 1.833-4.238 4.075-4.238.487 0 .957.09 1.412.258l.007.004.016.004.005.002.008.004c.07.025.154.061.23.098.08.04.156.09.155.09a.913.913 0 0 0 1.32-.11.981.981 0 0 0-.102-1.347l-.002-.002c-.362-.318-.864-.504-.994-.552h-.002a5.76 5.76 0 0 0-2.047-.374h-.01c.206-2.15 1.91-3.836 4.023-3.836z" color="#000"/></svg>