<svg xmlns="http://www.w3.org/2000/svg" xml:space="preserve" fill-rule="evenodd" stroke-linejoin="round" stroke-miterlimit="1.414" clip-rule="evenodd" viewBox="0 0 24 24" class="svg material-folder-quasar" width="16" height="16" aria-hidden="true"><path fill="#e57373" fill-rule="nonzero" d="M10 4H4c-1.11 0-2 .89-2 2v12c0 1.097.903 2 2 2h16c1.097 0 2-.903 2-2V8a2 2 0 0 0-2-2h-8l-2-2z" style="fill:#1976d2"/><path fill="#263238" d="M19.018 14.626a1.198 1.198 0 0 1-1.198 1.198 1.198 1.198 0 0 1-1.197-1.198 1.198 1.198 0 0 1 1.197-1.198 1.198 1.198 0 0 1 1.198 1.198zm4.118-3.07a6.138 6.138 0 0 0-.94-1.229l-1.385.8a4.611 4.611 0 0 0-1.445-.838 5.682 5.682 0 0 0-1.119 1.596c1.541-.105 3.132.453 4.61 1.607l.871-.503a6.138 6.138 0 0 0-.592-1.432zm0 6.139a6.138 6.138 0 0 0 .595-1.43l-1.384-.8a4.611 4.611 0 0 0 .003-1.67 5.68 5.68 0 0 0-1.942-.17c.861 1.282 1.174 2.939.913 4.795l.871.503a6.138 6.138 0 0 0 .944-1.228zm-5.315 3.069a6.138 6.138 0 0 0 1.535-.2v-1.598a4.611 4.611 0 0 0 1.449-.833 5.68 5.68 0 0 0-.823-1.767c-.68 1.387-1.959 2.486-3.697 3.189v1.006a6.138 6.138 0 0 0 1.536.203zm-5.316-3.069a6.138 6.138 0 0 0 .941 1.23l1.384-.8c.432.37.922.652 1.446.838a5.682 5.682 0 0 0 1.118-1.596c-1.54.105-3.132-.453-4.61-1.607l-.87.503a6.138 6.138 0 0 0 .591 1.432zm0-6.138a6.138 6.138 0 0 0-.595 1.43l1.385.8a4.611 4.611 0 0 0-.003 1.67c.651.17 1.302.227 1.942.17-.862-1.282-1.174-2.939-.913-4.796l-.872-.503a6.138 6.138 0 0 0-.944 1.23zm5.315-3.069a6.138 6.138 0 0 0-1.535.2v1.598a4.611 4.611 0 0 0-1.448.833 5.68 5.68 0 0 0 .823 1.767c.68-1.387 1.958-2.486 3.697-3.189V8.691a6.138 6.138 0 0 0-1.537-.203z" style="fill:#bbdefb;stroke-width:.0049288"/></svg>