<svg xmlns="http://www.w3.org/2000/svg" xml:space="preserve" stroke-linejoin="round" stroke-miterlimit="1.414" clip-rule="evenodd" viewBox="0 0 24 24" class="svg material-folder-gamemaker-open" width="16" height="16" aria-hidden="true"><path fill="#26a69a" d="M19 20H4a2 2 0 0 1-2-2V6c0-1.11.89-2 2-2h6l2 2h7c1.097 0 2 .903 2 2H4v10l2.14-8h17.07l-2.28 8.5c-.23.87-1.01 1.5-1.93 1.5z"/><path fill="#b2dfdb" d="m17.612 8.537 6.119 6.119h-3.497v3.583c-.874.787-1.748 1.66-2.622 2.535l-6.119-6.119zm-2.535 6.119 2.535 2.534v-2.535h2.535a34.676 34.676 0 0 0-2.535-2.534 34.675 34.675 0 0 0-2.535 2.534z"/></svg>