<svg xmlns="http://www.w3.org/2000/svg" viewBox="0 0 24 24" class="svg material-percy" width="16" height="16" aria-hidden="true"><path d="M22.847 7.51a.742.742 0 0 0-.706-.527.76.76 0 0 0-.288.051 3.234 3.234 0 0 1-1.064.21c-.914-.672-3.131-2.293-4.448-3.204 0 0 .178.531.418 1.521 0 0-2.086-1.193-3.473-2.106 0 0 .506 1.05.543 1.388 0 0-1.663-.309-4.092-.864 0 0 1.796 1.017 2.232 1.62 0 0-2.18-.182-4.747-.369 0 0 1.291.664 1.918 1.193 0 0-2.336.294-4.112.348 0 0 1.298 1.025 1.82 1.519 0 0-2.23.814-4.904 2.266 0 0 1.394.09 2.394.42 0 0-1.232 1.022-3.441 3.376 0 0 1.392-.026 2.517-.155 0 0-.902 1.31-2.038 3.672 0 0 .758-.449 1.487-.604 0 0 .03 2.674 1.533 3.128l.002-.002a.706.706 0 0 0 .205.034.86.86 0 0 0 .23-.029c.481-.124.852-.575 1.282-1.098.142-.173.288-.35.443-.523.171-.226.394-.461.66-.666.549-.423 1.305-.734 2.218-.575.99.12 1.589 1.093 2.072 1.878.37.6.662 1.074 1.08 1.126.03.004.06.006.088.006.641.011.88-.71 1.181-1.621l.062-.186.009.018c.224-.74.649-1.535 1.164-2.25.698-.968 1.59-1.828 2.438-2.22l.003.005c.46-.248.945-.481 1.422-.711h.001c1.483-.715 2.884-1.39 3.599-2.438.358-.524.542-1.171.548-1.924a6.04 6.04 0 0 0-.256-1.706zm-6.19 7.882c-.428.378-.848.85-1.218 1.364-.61.846-1.064 1.776-1.208 2.552.403.668.77 1 1.117 1.011h.011c.32.006.534-.198.637-.606.077-.305.1-.725.127-1.211.048-.886.11-2.027.534-3.11zm-9.87 3.82-.005-.013a3.12 3.12 0 0 1 .697-.751c.442-.34 1.022-.588 1.716-.516a17.67 17.67 0 0 1-.274.647c-.342.763-.748 1.55-1.173 1.607a.497.497 0 0 1-.076.005c-.331-.006-.621-.326-.885-.98zm8.512-12.44-1.831-1.18L16.5 6.697zm-5.1.437 2.919.776 1.286-.389zm5.203 1.512.634-.448-2.43.352zm-4.15-.071-1.015.633-2.775-.304zm3.103 1.678 1.027-.533-3.79.33zm-2.813.564-.73 1.116-3.563.779zm-4.447.618-2.768 1.124 3.414-2.283zm-1.527 1.378-.13 1.17-1.611 1.887z" style="clip-rule:evenodd;fill-rule:evenodd;fill:#ba68c8;stroke-width:.43728"/></svg>