<svg xmlns="http://www.w3.org/2000/svg" xml:space="preserve" fill-rule="evenodd" stroke-linejoin="round" stroke-miterlimit="1.414" clip-rule="evenodd" viewBox="0 0 24 24" class="svg material-folder-ngrx-actions" width="16" height="16" aria-hidden="true"><path fill="#ab47bc" fill-rule="nonzero" d="M10 4H4c-1.11 0-2 .89-2 2v12c0 1.097.903 2 2 2h16c1.097 0 2-.903 2-2V8a2 2 0 0 0-2-2h-8l-2-2z"/><path fill="#e1bee7" d="m17.655 8.39-6.152 2.193.933 8.142 5.219 2.888 5.219-2.888.932-8.142zm-1.278 2.067c.234-.004.487.07.768.223.124.066.498.16.83.21 1.183.17 2.586 1.073 3.03 1.95.306.602.243.927-.225 1.169-.404.209-1.23.108-2.43-.297l-1.012-.342-.36.137c-.522.2-1.044.694-1.258 1.19-.154.359-.177.527-.149 1.116.028.59.071.761.28 1.132.239.422.786.96.88.866.026-.026-.03-.197-.124-.38-.093-.183-.148-.368-.122-.41.026-.042.273.114.548.347.611.518 1.326.848 1.981.917.538.056.661-.044.258-.211a1.238 1.238 0 0 1-.374-.25c-.157-.173-.166-.168.504-.318.417-.094 1.24-.531 1.29-.685.016-.05-.118-.07-.338-.053-.2.016-.363-.004-.363-.046 0-.04.164-.243.363-.451.748-.781 1.004-1.365 1.083-2.474l.055-.767.176.365c.194.401.23.98.091 1.478-.115.416-.038.462.173.104.261-.443.345-.373.299.251-.05.678-.283 1.187-.808 1.762-.429.468-.377.552.141.233.5-.308.567-.26.31.224-.487.914-1.516 1.69-2.585 1.948-.647.158-1.106.187-1.7.11-1.55-.204-3.018-1.249-3.718-2.648a8.736 8.736 0 0 0-.572-.989c-.275-.373-.298-.54-.113-.823.093-.141.114-.286.076-.502-.176-.999-.17-1.03.23-1.437.35-.353.371-.4.371-.813 0-.358.036-.475.198-.637.109-.108.282-.199.384-.2.296-.003.807-.277 1.11-.595.252-.265.52-.4.822-.404z"/></svg>