<svg xmlns="http://www.w3.org/2000/svg" viewBox="0 0 50 50" class="svg material-twig" width="16" height="16" aria-hidden="true"><path fill="#9bb92f" d="M9.727 47.556c-.125-.223-.297-2.168-.183-2.087.034.025.171.267.304.537s.282.487.332.482c.123-.011.075-1.196-.1-2.454-.331-2.397-1.176-4.434-2.358-5.69-.2-.212-.344-.4-.319-.418.093-.067 1.327.842 1.842 1.358.293.293.735.825.981 1.182.328.474.465.618.51.533.078-.147-.21-9.903-.376-12.7-.074-1.256.063-1.023.61 1.034 1.064 4.007 1.858 7.922 2.342 11.55.086.637.173 1.173.195 1.19.022.017.092.002.157-.033.888-.484 1.524-.667 2.55-.736.727-.049.945.062.35.177-1.15.223-1.99 1.013-2.344 2.201-.315 1.061-.327 2.707-.024 3.435.152.365.037.425-1.067.56-.716.088-.977.095-1.202.037-.356-.093-1.118-.098-1.195-.009-.031.037-.243.066-.47.066-.38 0-.423-.017-.534-.215zm1.974-3.232c.152-.205.072-.412-.204-.522-.225-.091-.263-.089-.437.024-.21.137-.252.43-.08.554.18.13.607.096.72-.056zm1.248.085a.763.763 0 0 0 .214-.202c.241-.33-.352-.622-.745-.366-.406.264.08.785.531.568zm2.288 3.094c-.033-.038.117-.387.334-.774.216-.388.411-.666.433-.619.07.153-.201 1.28-.33 1.373-.15.107-.354.116-.437.02zm-7.036-.41c-.29-.344-.221-.434.14-.183.176.124.321.264.321.311 0 .164-.279.086-.46-.129zm8.649-.146c0-.053.102-.18.227-.282.25-.204.312-.113.143.208-.095.18-.37.235-.37.074zm8.065-.827c-.243-.025-.48-.088-.527-.14-.11-.125-.114-3.044-.004-3.044.045 0 .132.15.193.331.127.38.228.421.31.124.094-.337.065-3.471-.039-4.296-.449-3.55-1.865-6.124-4.342-7.89-1.086-.774-2.653-1.437-4.047-1.712-.764-.15-.522-.224.598-.182 2.364.09 4.167.707 5.847 2.002a11.044 11.044 0 0 1 2.32 2.501c.453.682.64.854.64.584 0-.07.063-.882.139-1.805.679-8.26 2.396-15.1 4.984-19.86 1.86-3.422 5.108-6.817 7.885-8.244 1.397-.717 2.539-.988 4.02-.952.933.023 1.01.036 1.77.308a6.822 6.822 0 0 1 1.363.661c.612.407 1.309 1.004 1.234 1.058-.025.018-.342-.165-.704-.407-2.657-1.771-5.062-1.52-7.12.742-1.108 1.22-2.652 3.53-3.634 5.443-2.828 5.503-4.541 11.464-5.291 18.413-.163 1.509-.282 3.76-.195 3.703.032-.022.266-.52.518-1.108 1.597-3.723 3.578-6.428 5.79-7.908.672-.45 1.612-.904 1.714-.83.023.016-.17.22-.43.453-1.958 1.755-3.25 3.76-4.233 6.573-.938 2.68-1.366 5.588-1.369 9.299 0 1.742.189 4.385.367 5.102.125.505.08.546-.585.546-.55 0-2.306.138-3.417.27-.413.05-.816.04-1.608-.036-.58-.056-1.13-.119-1.219-.14-.164-.037-.18-.014-.198.302-.012.186-.1.203-.73.139zm2.507-6.725c.294-.11.375-.22.375-.517 0-.63-1.309-.706-1.524-.088-.074.212.13.51.42.616.297.109.413.107.73-.011zm2.369-.052c.277-.222.318-.364.174-.611-.4-.69-1.755-.307-1.428.405.121.265.299.35.738.353.227.001.387-.044.516-.147zm3.011 6.681c-.027-.05.088-.267.256-.483.879-1.135 1.22-1.545 1.285-1.545.039 0 .055.037.035.083l-.423.963c-.213.484-.445.925-.519.977-.169.122-.57.125-.634.005zm2.446-.596c0-.12.853-.683.896-.59.018.04-.056.21-.166.377-.168.258-.238.304-.464.304-.164 0-.266-.035-.266-.09zm-13.04-.124c-.176-.159-.493-.656-.461-.725.018-.038.248.1.512.309s.456.405.428.438c-.076.088-.372.074-.479-.022z"/></svg>