<svg xmlns="http://www.w3.org/2000/svg" xml:space="preserve" fill-rule="evenodd" stroke-linejoin="round" stroke-miterlimit="1.414" clip-rule="evenodd" viewBox="0 0 24 24" class="svg material-folder-svelte" width="16" height="16" aria-hidden="true"><path fill="#ff5722" fill-rule="nonzero" d="M10 4H4c-1.11 0-2 .89-2 2v12c0 1.097.903 2 2 2h16c1.097 0 2-.903 2-2V8a2 2 0 0 0-2-2h-8l-2-2z"/><path fill="#ffccbc" d="M19.57 8.483a3.524 3.524 0 0 0-1.832.546l-2.863 1.825a3.283 3.283 0 0 0-1.484 2.196 3.462 3.462 0 0 0 .34 2.222 3.287 3.287 0 0 0-.49 1.227 3.498 3.498 0 0 0 .597 2.648c1.142 1.634 3.397 2.118 5.027 1.08l2.864-1.818a3.293 3.293 0 0 0 1.484-2.195 3.46 3.46 0 0 0-.342-2.221 3.308 3.308 0 0 0 .492-1.228 3.502 3.502 0 0 0-.598-2.648v-.008a3.826 3.826 0 0 0-3.195-1.626zm.251 1.402a2.274 2.274 0 0 1 1.765.977 2.101 2.101 0 0 1 .36 1.592 2.212 2.212 0 0 1-.068.266l-.055.165-.146-.11a3.708 3.708 0 0 0-1.12-.56l-.11-.031.01-.11a.643.643 0 0 0-.116-.426.684.684 0 0 0-.731-.265.628.628 0 0 0-.176.077l-2.864 1.821a.598.598 0 0 0-.27.399.641.641 0 0 0 .11.48.686.686 0 0 0 .73.273.659.659 0 0 0 .176-.077l1.098-.696a2.043 2.043 0 0 1 .582-.256 2.272 2.272 0 0 1 2.44.905 2.103 2.103 0 0 1 .36 1.592 1.976 1.976 0 0 1-.892 1.324l-2.864 1.824a2.106 2.106 0 0 1-.582.256 2.276 2.276 0 0 1-2.442-.906 2.101 2.101 0 0 1-.359-1.591 1.866 1.866 0 0 1 .068-.265l.054-.165.147.11a3.708 3.708 0 0 0 1.117.556l.11.031-.01.11a.648.648 0 0 0 .12.423.686.686 0 0 0 .735.272.642.642 0 0 0 .175-.077l2.86-1.824a.595.595 0 0 0 .268-.4.633.633 0 0 0-.11-.48.686.686 0 0 0-.735-.272.628.628 0 0 0-.176.077l-1.098.697a2.097 2.097 0 0 1-.58.255 2.275 2.275 0 0 1-2.438-.905 2.103 2.103 0 0 1-.356-1.592 1.976 1.976 0 0 1 .892-1.324l2.868-1.824a2.091 2.091 0 0 1 .577-.255 2.274 2.274 0 0 1 .676-.07z"/></svg>