<svg xmlns="http://www.w3.org/2000/svg" xml:space="preserve" fill-rule="evenodd" stroke-linejoin="round" stroke-miterlimit="1.414" clip-rule="evenodd" viewBox="0 0 24 24" class="svg material-folder-server" width="16" height="16" aria-hidden="true"><path fill="#e57373" fill-rule="nonzero" d="M10 4H4c-1.11 0-2 .89-2 2v12c0 1.097.903 2 2 2h16c1.097 0 2-.903 2-2V8a2 2 0 0 0-2-2h-8l-2-2z" style="fill:#fbc02d"/><path d="M13.424 8.543h9.37a.586.586 0 0 1 .586.585v2.343a.586.586 0 0 1-.586.586h-9.37a.586.586 0 0 1-.586-.586V9.128a.586.586 0 0 1 .586-.585m0 4.685h9.37a.586.586 0 0 1 .586.586v2.342a.586.586 0 0 1-.586.586h-9.37a.586.586 0 0 1-.586-.586v-2.342a.586.586 0 0 1 .586-.586m0 4.685h9.37a.586.586 0 0 1 .586.586v2.342a.586.586 0 0 1-.586.586h-9.37a.586.586 0 0 1-.586-.586V18.5a.586.586 0 0 1 .586-.586m2.928-7.028h.586v-1.17h-.586v1.17m0 4.686h.586V14.4h-.586v1.172m0 4.685h.586v-1.172h-.586v1.172M14.01 9.714v1.171h1.17V9.714h-1.17m0 4.685v1.171h1.17V14.4h-1.17m0 4.685v1.171h1.17v-1.17z" style="fill:#fffde7;stroke-width:.58564"/></svg>