<svg xmlns="http://www.w3.org/2000/svg" viewBox="0 0 24 24" class="svg material-javascript-map" width="16" height="16" aria-hidden="true"><g fill="#ffca28"><path d="M17.778 7.747v2h2v10h-10v-2h-2v4h14v-14z"/><path d="M2.222 2.253h14.136V16.39H2.222V2.253m3.714 11.811c.315.668.935 1.217 1.995 1.217 1.178 0 1.987-.628 1.987-2.002v-4.54H8.583v4.509c0 .675-.275.848-.707.848-.455 0-.644-.314-.856-.684l-1.084.652m4.697-.141c.392.77 1.186 1.358 2.426 1.358 1.257 0 2.2-.651 2.2-1.853 0-1.107-.637-1.602-1.768-2.089l-.33-.141c-.573-.244-.816-.408-.816-.801 0-.322.243-.573.636-.573.377 0 .628.165.856.573l1.029-.683c-.432-.754-1.045-1.045-1.885-1.045-1.186 0-1.948.754-1.948 1.751 0 1.084.636 1.595 1.594 2.003l.33.141c.613.267.974.432.974.888 0 .377-.353.651-.903.651-.652 0-1.029-.337-1.312-.808z"/></g></svg>