<svg xmlns="http://www.w3.org/2000/svg" xmlns:xlink="http://www.w3.org/1999/xlink" xml:space="preserve" stroke-linejoin="round" stroke-miterlimit="1.414" clip-rule="evenodd" viewBox="0 0 24 24" class="svg material-folder-docker-open" width="16" height="16" aria-hidden="true"><defs><clipPath id="material-folder-docker-open__a"><use xlink:href="#material-folder-docker-open__SVGID_2_" width="100%" height="100%"/></clipPath></defs><path fill="#e57373" d="M19 20H4a2 2 0 0 1-2-2V6c0-1.11.89-2 2-2h6l2 2h7c1.097 0 2 .903 2 2H4v10l2.14-8h17.07l-2.28 8.5c-.23.87-1.01 1.5-1.93 1.5z" style="fill:#039be5"/><g style="fill:#b3e5fc"><path d="M8.7 24c-1.1 0-2.1-.9-2.1-2s.9-2 2.1-2 2.1.9 2.1 2-1 2-2.1 2zm25.8-10.9c-.2-1.6-1.2-2.9-2.5-3.9l-.5-.4-.4.5c-.8.9-1.1 2.5-1 3.7.1.9.4 1.8.9 2.5-.4.2-.9.4-1.3.6-.9.3-1.8.4-2.7.4H1.1l-.1.6c-.2 1.9.1 3.9.9 5.7l.4.7v.1c2.4 4 6.7 5.8 11.4 5.8 9 0 16.4-3.9 19.9-12.3 2.3.1 4.6-.5 5.7-2.7l.3-.5-.5-.3c-1.3-.8-3.1-.9-4.6-.5zm-12.9-1.6h-3.9v3.9h3.9zm0-4.9h-3.9v3.9h3.9zm0-5h-3.9v3.9h3.9zm4.8 9.9h-3.9v3.9h3.9zm-14.5 0H8v3.9h3.9zm4.9 0h-3.9v3.9h3.9zm-9.7 0H3.2v3.9h3.9zm9.7-4.9h-3.9v3.9h3.9zm-4.9 0H8v3.9h3.9z" class="material-folder-docker-open__st0" style="fill:#b3e5fc" transform="matrix(.3949 0 0 .39489 8.319 9.626)"/><g class="material-folder-docker-open__st1" clip-path="url(#material-folder-docker-open__a)" style="fill:#b3e5fc" transform="matrix(.3949 0 0 .39489 8.319 9.626)"><path d="M-48.8-21H1226v151.4H-48.8z" class="material-folder-docker-open__st0" style="fill:#b3e5fc"/></g></g></svg>