<svg xmlns="http://www.w3.org/2000/svg" fill-rule="evenodd" stroke-linejoin="round" stroke-miterlimit="1.414" clip-rule="evenodd" viewBox="0 0 24 24" class="svg material-folder-packages" width="16" height="16" aria-hidden="true"><path fill="#303F9F" fill-rule="nonzero" d="M10 4H4c-1.11 0-2 .89-2 2v12c0 1.097.903 2 2 2h16c1.097 0 2-.903 2-2V8a2 2 0 0 0-2-2h-8l-2-2z" style="fill:#1e88e5"/><path d="m23.013 10.784-.877-1.06a.953.952 0 0 0-.734-.341h-7.574a.918.918 0 0 0-.727.347l-.877 1.054a1.253 1.253 0 0 0-.29.808v7.89c0 .695.562 1.263 1.262 1.263h8.838c.694 0 1.263-.568 1.263-1.262v-7.89c0-.31-.108-.588-.284-.81zm-5.398 2.701 3.472 3.472h-2.209v1.263h-2.526v-1.263h-2.209zm-4.342-2.84.517-.63h7.576l.587.63z" style="fill:#bbdefb;stroke-width:.98809"/></svg>