<svg xmlns="http://www.w3.org/2000/svg" viewBox="0 0 30 30" class="svg material-erlang" width="16" height="16" aria-hidden="true"><path fill="#f44336" d="M5.207 4.33c-.047.051-.096.1-.143.153C2.688 7.145 1.5 10.76 1.5 15.33c0 4.418 1.155 7.862 3.459 10.34h19.415c2.553-1.152 4.127-3.43 4.127-3.43l-3.147-2.52L23.9 21.1c-.867.773-.845.931-2.315 1.78-1.495.674-3.04.966-4.634.966-2.515 0-4.423-.909-5.723-2.059-1.286-1.15-1.985-4.511-2.096-6.68l17.458.067-.183-1.472s-.847-7.129-2.541-9.372zm8.76.846c1.565 0 3.22.535 3.961 1.471.74.937.931 1.667.973 3.524H9.11c.112-1.955.436-2.81 1.373-3.698.936-.887 2.03-1.297 3.484-1.297z"/></svg>