<svg xmlns="http://www.w3.org/2000/svg" viewBox="0 0 24 24" class="svg material-actionscript" width="16" height="16" aria-hidden="true"><path fill="#f44336" d="M4.744 2.031c-1.157 0-1.994.31-2.51.93-.515.612-.771 1.678-.771 3.197v2.467c0 1.408-.402 2.111-1.201 2.111v2.035c.8 0 1.2.679 1.2 2.036v2.654c0 1.512.26 2.562.78 3.152s1.355.885 2.502.885V19.43c-.447 0-.77-.151-.97-.453-.195-.303-.292-.815-.292-1.538v-2.267c0-1.807-.404-2.938-1.214-3.395v-.045c.81-.464 1.214-1.581 1.214-3.351V6.025c0-1.283.42-1.925 1.262-1.925V2.03zm14.66 0V4.1c.842 0 1.262.642 1.262 1.925v2.268c0 1.843.402 2.996 1.207 3.46v.046c-.805.442-1.207 1.544-1.207 3.306v2.356c0 .715-.1 1.22-.299 1.516-.2.302-.521.453-.963.453v2.068c1.152 0 1.984-.295 2.494-.885.516-.59.772-1.663.772-3.219V14.84c0-1.38.404-2.069 1.209-2.069v-2.035c-.805 0-1.21-.696-1.21-2.09V6.113c0-1.49-.255-2.54-.77-3.152-.516-.62-1.348-.93-2.495-.93zm-3.055 4.46c-.455 0-.886.057-1.293.173a3.055 3.055 0 0 0-1.078.527c-.307.241-.55.549-.73.924-.18.37-.27.817-.27 1.336 0 .663.165 1.227.492 1.695.332.468.832.864 1.502 1.188.264.125.51.249.737.369s.422.245.586.375c.167.13.299.271.394.424s.145.327.145.521c0 .144-.03.28-.09.405a.9.9 0 0 1-.275.318 1.4 1.4 0 0 1-.455.209 2.34 2.34 0 0 1-.635.076c-.415 0-.826-.083-1.233-.25a3.645 3.645 0 0 1-1.13-.764v2.223a3.68 3.68 0 0 0 1.101.418c.427.093.875.139 1.346.139.459 0 .893-.05 1.304-.153a3.001 3.001 0 0 0 1.09-.5c.311-.236.557-.542.737-.917.183-.38.275-.849.275-1.405 0-.403-.053-.755-.156-1.056-.104-.306-.254-.577-.45-.813s-.43-.447-.705-.633a6.753 6.753 0 0 0-.921-.535c-.252-.12-.477-.236-.676-.348-.2-.115-.37-.231-.51-.347a1.503 1.503 0 0 1-.322-.375.91.91 0 0 1-.116-.453.81.81 0 0 1 .102-.408.948.948 0 0 1 .29-.32c.123-.089.275-.156.454-.202a2.18 2.18 0 0 1 .598-.078c.16 0 .326.015.502.043.18.028.36.07.539.13.18.056.354.13.521.218.172.088.33.188.473.304V6.871a4.039 4.039 0 0 0-.957-.285 6.448 6.448 0 0 0-1.186-.096zm-8.773.165-3.123 9.967h2.094l.605-2.217h3.053l.61 2.217h2.107L9.869 6.656H7.576zm1.072 1.78h.047c.028.347.077.646.145.896l.922 3.35H7.564l.934-3.377c.08-.288.13-.578.15-.87z"/></svg>