<svg xmlns="http://www.w3.org/2000/svg" viewBox="0 0 24 24" class="svg material-wolframlanguage" width="16" height="16" aria-hidden="true"><g fill="none" fill-rule="evenodd" transform="translate(-.009 -.001) scale(.12121)"><circle cx="99.197" cy="98.946" r="83.28" fill="#212121"/><path fill="#e53935" d="M182.53 98.828a83.406 83.406 0 0 1-39.14 70.722.064.064 0 0 1-.037.019l-28.62-35.664 23.71 2.611s11.385 1.178 13.979 0c2.373-.938 15.174-18.963 15.174-18.963s-36.75-23.23-49.312-36.032c1.435-21.575-1.655-50.269-1.655-50.03-9.252 9.234-10.43 10.668-19.681 19.202-4.028-13.04-5.923-17.546-9.95-30.587-12.104 9.95-21.337 26.799-27.977 46.48a78.667 78.667 0 0 0-4.23 5.095 109.683 109.683 0 0 0-2.668 3.66 114.546 114.546 0 0 0-5.131 8 172.503 172.503 0 0 0-3.403 6.052c-7.707 14.476-14.034 31.067-19.515 46.002a.858.858 0 0 1-.092-.184C8.993 104.299 14.48 67.36 37.804 42.138c23.325-25.223 59.722-33.574 91.71-21.045 31.988 12.53 53.029 43.382 53.017 77.736z"/><path fill="#fff" d="M101.45 69.178s-1.416-8.295-2.373-11.367c6.401-6.18 7.357-7.118 13.52-13.041.477 11.845.238 18.007-.479 32.482-3.55-3.568-10.668-8.075-10.668-8.075zm-27.737 40.778s-6.64-4.028-11.624-4.727c1.435-3.33 5.224-7.597 6.18-8.774-1.913.7-15.652 6.861-17.087 12.084a74.79 74.79 0 0 1 11.385 3.79 35.994 35.994 0 0 0-8.773 20.158s21.814-3.329 38.184-1.195c.283.168.608.25.938.239l8.534.239 27.11 45.137.222.35c-.037.018-.056.036-.074.036-51.133 18.485-88.085-15.542-95.975-27.442.033-.102.058-.206.074-.312 7.1-30.018 15.855-65.94 29.999-76.552 7.357-12.82 9.49-31.783 22.752-41.734 3.329 9.95 8.553 30.588 12.103 40.538 15.653 15.653 39.36 35.094 55.234 43.15 1.655.956 3.789 7.596 3.789 7.596l-6.401 8.056-68.275-6.879a54.46 54.46 0 0 0-4.58-.184 86.838 86.838 0 0 0-14.144 1.361c3.31-8.295 10.429-14.935 10.429-14.935zm22.053-8.774c3.789-.46 7.817.957 12.323 3.569 4.267-1.196 4.745-1.435 9.013-2.612-5.463-4.028-11.385-8.295-19.442-7.118a47.247 47.247 0 0 0-1.895 6.161z"/></g></svg>