<svg xmlns="http://www.w3.org/2000/svg" viewBox="0 0 1024 1024" class="svg material-otne" width="16" height="16" aria-hidden="true"><g fill="#00c853"><path d="M512 254.16A257.841 257.841 0 0 0 254.16 512 257.841 257.841 0 0 0 512 769.841a257.841 257.841 0 0 0 257.841-257.84 257.841 257.841 0 0 0-257.84-257.842zM941.74 512A429.739 429.739 0 0 1 512 941.74 429.739 429.739 0 0 1 82.262 512 429.739 429.739 0 0 1 512 82.262 429.739 429.739 0 0 1 941.74 512z"/><path d="M695.945 450.836h-92.08l-.005 122.318h92.084zm-122.854-122.78H450.92v367.89h122.17zm-152.942 122.78h-92.084v122.318h92.08z"/></g></svg>