<svg xmlns="http://www.w3.org/2000/svg" viewBox="0 0 24 24" class="svg material-babel" width="16" height="16" aria-hidden="true"><path d="M18.23 11.21c-.03-.16-.47-.71-1.32-1.65-.02-.19.29-.45.9-.8l1.74-1.55c.39-.5.62-1.28.69-2.38l-.02-.26c-.07-.78-.63-1.4-1.69-1.89-.63-.42-1.76-.65-3.38-.68-1.35.11-3.11.59-5.28 1.43-.6.43-1.28.86-2.04 1.28l.01.14.21-.08c.08-.01.13.03.14.11l.13-.07.07-.01.01.06c0 .07-.47.44-1.76 1.35l-.06.12c-.31.02-.61.25-.91.67l.08.12.25-.09.18.24c.32-.33.66-.62 1.03-.87.19.05.29.11.44.16 1.02-.75 2.03-1.3 3.04-1.64l.01.14c-.2.27-.32.42-.38.42l.1.23c.01.19-2.55 7-6.66 14.44l.08.19c.35-.08.58-.17.75-.26l.01.13.4-.03-.67 1.76.14.06c.57-.64 1-1.29 1.3-1.88 1.67-.49 2.94-.97 3.82-1.44.88-.08 1.56-.31 2.02-.7l.92-.47c1.27-.98 2.22-1.67 2.87-2.08 1.33-.98 2.2-1.93 2.6-2.85l.23-1.37m-3.46 2.31L13 14.91c-1.29.85-2 1.3-2.09 1.3-2.07 1.13-3.36 1.72-3.86 1.76l-.05.01c.04-.23.96-2.12 2.75-5.67.78-.06 2.02-.43 3.71-1.1l.41-.03c.85-.08 1.49.09 1.91.49l.03.26c-.31.9-.67 1.44-1.04 1.59m1.09-5.78c-.18.22-.68.59-1.5 1.11-.27.03-1.27.42-3.01 1.18l-.28-.05-.01-.12c-.02-.25.09-.57.34-.95.13-.7.28-1.12.44-1.2l1.45-3.28c-.02-.22.29-.35.93-.46l.21-.02.01.18 1.16-.16c1.15-.1 1.75.14 1.8.7l.13-.02-.03-.32.15-.02c.35.19.52.4.54.68.02.18-.08.41-.29.68-.09.01-.14-.06-.15-.18l-.14.01-.03.4c-.58.87-1.01 1.31-1.27 1.34z" style="fill:#fdd835"/></svg>