<svg xmlns="http://www.w3.org/2000/svg" viewBox="0 0 200 200" class="svg material-idris" width="16" height="16" aria-hidden="true"><g style="fill:#f44336"><path d="M103.07 189.45c-7.937-2.666-8.004-2.718-9.763-7.517-.974-2.657-2.302-9.039-2.952-14.18-.997-7.897-.931-10.755.422-18.392 2.778-15.674 9.623-27.676 27.672-48.52 20.87-24.103 24.51-32.428 20.238-46.29-3.656-11.866-13.458-22.97-33.613-38.078-12.915-9.68-13.458-10.303-5.013-5.736 22.554 12.196 40.365 27.413 46.375 39.621 4.182 8.495 5.13 17.92 2.664 26.458-2.622 9.076-7.402 17.316-21.141 36.448-18.697 26.035-24.133 38.641-23.165 53.723.411 6.41 1.147 8.82 5.004 16.396 5.204 10.22 5.321 10.114-6.728 6.066zm-16.791-83.413c-4.28-13.575-13.604-22.609-29.213-28.302-4.127-1.505-7.504-2.968-7.504-3.25 0-1.027 18.939.848 22.98 2.274 10.092 3.56 15.043 10.936 15.799 23.537.643 10.726.039 12.409-2.063 5.742zm16.539-21.356C96.771 68.28 86.659 59 69.062 53.7c-9.46-2.849-9.054-3.744 1.347-2.967 20.536 1.534 29.413 7.298 33.642 21.846.953 3.279 1.488 8.121 1.31 11.864l-.299 6.323zm13.371-24.882c-5.02-11.521-12.108-17.947-25.873-23.454-5.394-2.158-6.8-3.084-5.48-3.608 2.477-.983 14.766.98 19.144 3.058 4.914 2.332 11.082 9.558 13.024 15.26 1.553 4.56 3.246 15.212 2.416 15.212-.228 0-1.682-2.91-3.232-6.467z" style="color-rendering:auto;color:#000;dominant-baseline:auto;fill:#f44336;font-feature-settings:normal;font-variant-alternates:normal;font-variant-caps:normal;font-variant-east-asian:normal;font-variant-ligatures:normal;font-variant-numeric:normal;font-variant-position:normal;font-variation-settings:normal;image-rendering:auto;inline-size:0;isolation:auto;mix-blend-mode:normal;shape-margin:0;shape-padding:0;shape-rendering:auto;solid-color:#000;stop-color:#000;text-decoration-color:#000;text-decoration-line:none;text-decoration-style:solid;text-indent:0;text-orientation:mixed;text-transform:none;white-space:normal" transform="translate(0 .001)"/><path d="M94.58 7.496c-.085-.009-.186-.028-.357.057s-.319.377-.303.54c.03.328.15.375.258.499.434.497 1.427 1.302 3.168 2.654 1.74 1.352 4.196 3.206 7.425 5.627 20.123 15.084 29.828 26.115 33.436 37.824 2.116 6.866 2.271 12.23-.671 18.96s-9.042 14.816-19.467 26.856c-18.07 20.87-24.992 32.99-27.787 48.76-1.357 7.655-1.426 10.628-.426 18.541.653 5.175 1.966 11.528 2.978 14.291.88 2.401 1.386 3.746 2.73 4.781 1.346 1.036 3.376 1.704 7.345 3.037 3.011 1.012 5.263 1.78 6.898 2.207.818.214 1.479.346 2.031.373.552.028 1.038-.04 1.399-.365.36-.325.449-.832.39-1.336-.059-.504-.244-1.077-.53-1.779-.57-1.404-1.556-3.311-2.857-5.865-3.85-7.56-4.541-9.822-4.95-16.201-.48-7.473.617-14.292 4.167-22.525s9.565-17.87 18.904-30.875c13.747-19.142 18.572-27.446 21.217-36.6 2.504-8.666 1.536-18.22-2.697-26.818-6.11-12.412-23.974-27.614-46.584-39.84-2.114-1.143-3.663-1.961-4.625-2.406-.48-.223-.753-.36-1.092-.397zm2.588 2.3c.832.43 1.427.72 2.652 1.382 22.498 12.165 40.254 27.397 46.164 39.402 4.13 8.39 5.063 17.686 2.633 26.098-2.6 8.998-7.337 17.174-21.068 36.295-9.358 13.03-15.41 22.713-19.01 31.062-3.6 8.35-4.736 15.376-4.248 22.986.413 6.44 1.193 9 5.059 16.59 1.301 2.556 2.282 4.465 2.82 5.789.269.662.423 1.18.463 1.52.04.339-.014.429-.067.476-.052.047-.251.129-.68.107-.427-.02-1.041-.134-1.826-.34-1.569-.41-3.82-1.175-6.834-2.187-3.967-1.333-5.94-2.024-7.052-2.88s-1.522-1.937-2.4-4.335c-.936-2.553-2.281-8.963-2.926-14.072-.995-7.878-.933-10.622.418-18.24 2.76-15.578 9.53-27.46 27.559-48.28 10.444-12.063 16.6-20.188 19.627-27.112 3.027-6.924 2.866-12.656.71-19.652-3.703-12.022-13.603-23.199-33.79-38.33-3.228-2.42-5.683-4.273-7.413-5.617-.452-.351-.435-.374-.79-.66zm-8.889 22.212c-1.594-.08-2.825-.056-3.629.264-.202.08-.382.172-.539.334s-.27.44-.23.689c.078.499.43.742.9 1.05.94.62 2.64 1.381 5.346 2.464 13.695 5.48 20.624 11.764 25.602 23.189a101.44 101.44 0 0 0 2.121 4.591c.296.592.55 1.073.754 1.419.101.172.188.31.273.423.043.057.083.108.143.164.06.056.119.17.398.17a.648.648 0 0 0 .59-.43 1.63 1.63 0 0 0 .106-.488c.035-.352.028-.8-.006-1.35-.068-1.097-.252-2.58-.51-4.206-.517-3.254-1.326-7.059-2.123-9.399-2.005-5.885-8.154-13.117-13.283-15.55-2.298-1.091-6.463-2.087-10.42-2.72-1.979-.315-3.898-.535-5.492-.615zm-.05.998c1.542.077 3.434.294 5.384.605 3.901.623 8.07 1.648 10.15 2.635 4.699 2.23 10.886 9.451 12.766 14.97.757 2.219 1.57 6.02 2.08 9.232.255 1.606.436 3.071.5 4.113.007.12-.002.165.002.273-.123-.231-.22-.396-.367-.691-.58-1.16-1.328-2.771-2.1-4.543-5.06-11.617-12.31-18.186-26.144-23.721-2.688-1.075-4.388-1.854-5.17-2.37-.302-.198-.324-.264-.356-.284.023-.012.015-.012.045-.024.434-.172 1.666-.272 3.21-.195zm-23.76 16.96c-.692.01-1.23.047-1.643.12-.207.037-.381.08-.545.152-.164.073-.346.177-.453.413-.107.235-.034.526.074.687.108.161.24.268.396.377.313.218.743.429 1.325.672 1.162.486 2.918 1.076 5.29 1.79 17.495 5.27 27.427 14.388 33.433 30.677l2.244 6.084.969-.149.298-6.324c.18-3.81-.354-8.668-1.33-12.025-2.136-7.347-5.49-12.562-10.914-16.084-5.424-3.522-12.863-5.35-23.172-6.12-2.607-.196-4.59-.288-5.972-.268zm.015 1c1.324-.018 3.29.07 5.883.265 10.227.764 17.496 2.584 22.7 5.964 5.206 3.38 8.406 8.323 10.499 15.523.93 3.2 1.467 8.025 1.293 11.7l-.184 3.865-1.392-3.776c-6.089-16.513-16.38-25.956-34.08-31.287-2.357-.71-4.099-1.299-5.196-1.758-.39-.163-.592-.283-.81-.406.317-.044.712-.082 1.287-.09zm-11.889 22.74c-.93-.027-1.696-.022-2.258.025a3.457 3.457 0 0 0-.71.116.942.942 0 0 0-.311.148.646.646 0 0 0-.258.49c0 .267.116.349.18.414.063.066.121.109.187.155.132.091.292.183.492.289.402.21.96.47 1.647.767 1.373.595 3.255 1.338 5.326 2.094 15.509 5.656 24.672 14.547 28.908 27.984.53 1.68.956 2.83 1.34 3.518.192.343.317.624.738.752a.758.758 0 0 0 .656-.155 1.02 1.02 0 0 0 .274-.445c.227-.632.276-1.624.275-3.203 0-1.58-.085-3.702-.246-6.389-.382-6.36-1.825-11.449-4.482-15.408-2.658-3.959-6.525-6.762-11.648-8.57-1.094-.386-3.031-.763-5.387-1.125-2.356-.362-5.108-.699-7.736-.96s-5.128-.443-6.987-.497zm-.03 1c1.82.053 4.307.236 6.919.494 2.612.259 5.35.593 7.681.951 2.332.359 4.28.753 5.207 1.08 4.968 1.753 8.62 4.417 11.15 8.186 2.53 3.769 3.94 8.667 4.315 14.908.16 2.676.243 4.785.244 6.33 0 1.235-.09 1.828-.174 2.291-.296-.583-.677-1.54-1.156-3.059-4.323-13.713-13.809-22.894-29.518-28.623-2.056-.75-3.927-1.489-5.273-2.072-.431-.187-.7-.322-1.01-.47.46-.019.93-.036 1.615-.016z" style="color-rendering:auto;color:#000;dominant-baseline:auto;fill:#f44336;font-feature-settings:normal;font-variant-alternates:normal;font-variant-caps:normal;font-variant-east-asian:normal;font-variant-ligatures:normal;font-variant-numeric:normal;font-variant-position:normal;font-variation-settings:normal;image-rendering:auto;inline-size:0;isolation:auto;mix-blend-mode:normal;shape-margin:0;shape-padding:0;shape-rendering:auto;solid-color:#000;stop-color:#000;text-decoration-color:#000;text-decoration-line:none;text-decoration-style:solid;text-indent:0;text-orientation:mixed;text-transform:none;white-space:normal" transform="translate(0 .001)"/></g></svg>