<svg xmlns="http://www.w3.org/2000/svg" xml:space="preserve" viewBox="0 0 300 300" class="svg material-eslint" width="16" height="16" aria-hidden="true"><path fill="#7986cb" d="m97.478 120.86 50.098-28.924a4.052 4.052 0 0 1 4.053 0l50.1 28.924a4.055 4.055 0 0 1 2.026 3.51v57.848a4.06 4.06 0 0 1-2.027 3.51l-50.099 28.924a4.052 4.052 0 0 1-4.053 0l-50.098-28.924a4.055 4.055 0 0 1-2.026-3.51V124.37a4.057 4.057 0 0 1 2.026-3.51"/><path fill="#3f51b5" d="M279.863 147.21 220.005 43.077c-2.174-3.765-6.19-6.542-10.538-6.542H89.745c-4.349 0-8.366 2.777-10.54 6.542L19.347 146.983c-2.174 3.766-2.174 8.52 0 12.285L79.205 262.55c2.174 3.765 6.191 5.69 10.54 5.69h119.722c4.347 0 8.365-1.867 10.538-5.633l59.858-103.45c2.176-3.764 2.176-8.18 0-11.944m-49.565 50.075c0 1.53-.921 2.947-2.249 3.713l-76.245 43.99a4.338 4.338 0 0 1-4.314 0l-76.304-43.99c-1.326-.766-2.254-2.181-2.254-3.713v-87.981c0-1.532.914-2.947 2.241-3.714l76.243-43.99a4.33 4.33 0 0 1 4.311 0l76.31 43.99c1.327.767 2.261 2.182 2.261 3.714z"/></svg>