<svg xmlns="http://www.w3.org/2000/svg" stroke-linejoin="round" stroke-miterlimit="1.414" clip-rule="evenodd" viewBox="0 0 24 24" class="svg material-folder-layout-open" width="16" height="16" aria-hidden="true"><path fill="#303F9F" d="M19 20H4a2 2 0 0 1-2-2V6c0-1.11.89-2 2-2h6l2 2h7c1.097 0 2 .903 2 2H4v10l2.14-8h17.07l-2.28 8.5c-.23.87-1.01 1.5-1.93 1.5z" style="fill:#039be5"/><path d="M15.505 20.695h3.699v-4.439h-3.698zm-4.437 0h3.698v-9.617h-3.698zm8.875 0h3.7v-4.439h-3.7zm-4.437-9.617v4.439h8.136v-4.439z" style="fill:#b3e5fc;stroke-width:1.1328"/></svg>