<svg xmlns="http://www.w3.org/2000/svg" fill-rule="evenodd" stroke-linejoin="round" stroke-miterlimit="1.414" clip-rule="evenodd" viewBox="0 0 24 24" class="svg material-folder-content" width="16" height="16" aria-hidden="true"><path fill="#00BCD4" fill-rule="nonzero" d="M10 4H4c-1.11 0-2 .89-2 2v12c0 1.097.903 2 2 2h16c1.097 0 2-.903 2-2V8a2 2 0 0 0-2-2h-8l-2-2z"/><path d="M17.51 14.937h3.932v.965H17.51zm0-1.608h3.932v.965H17.51zm0 3.216h3.932v.965H17.51zm4.494-6.754H11.89c-.618 0-1.123.58-1.123 1.287v8.363c0 .707.505 1.286 1.123 1.286h10.115c.617 0 1.124-.579 1.124-1.287v-8.363c0-.707-.506-1.286-1.125-1.286zm0 9.649h-5.056v-8.363h5.056z" style="fill:#b2ebf2;stroke-width:1.075"/></svg>