<svg xmlns="http://www.w3.org/2000/svg" xml:space="preserve" fill-rule="evenodd" stroke-linejoin="round" stroke-miterlimit="1.414" clip-rule="evenodd" viewBox="0 0 24 24" class="svg material-folder-mercurial" width="16" height="16" aria-hidden="true"><path fill="#78909c" fill-rule="nonzero" d="M10 4H4c-1.11 0-2 .89-2 2v12c0 1.097.903 2 2 2h16c1.097 0 2-.903 2-2V8a2 2 0 0 0-2-2h-8l-2-2z"/><g fill="#cfd8dc"><path d="M23.718 15.101c.194-3.36-2.326-6.98-6.204-6.527-1.745.194-2.779 1.098-3.231 2.068-.776 1.616.065 3.748 2.585 4.46 1.551.451 1.874 1.098 1.68 1.873-.194.711-.71 1.487-.84 2.133-.064.194-.064.388-.064.582.064 1.421 2.972 2.003 5.234-1.81.517-.775.776-1.745.84-2.779zM13.701 14.326v-.259c0-.065 0-.13-.064-.194-.13-.646-.647-1.034-1.293-.97s-1.099.582-1.163 1.229v.323c.064.71.71 1.228 1.357 1.163.71-.13 1.163-.646 1.163-1.292z"/><path d="M16.545 17.75c-.259-1.033-1.293-1.68-2.327-1.356-.84.194-1.357.904-1.422 1.745-.064.258 0 .517.065.775.259 1.034 1.357 1.68 2.391 1.357.905-.258 1.487-1.098 1.422-2.068-.065-.13-.065-.258-.13-.452z"/></g></svg>