<svg xmlns="http://www.w3.org/2000/svg" xml:space="preserve" fill-rule="evenodd" stroke-linejoin="round" stroke-miterlimit="1.414" clip-rule="evenodd" viewBox="0 0 24 24" class="svg material-folder-audio" width="16" height="16" aria-hidden="true"><path fill="#ef5350" fill-rule="nonzero" d="M10 4H4c-1.11 0-2 .89-2 2v12c0 1.097.903 2 2 2h16c1.097 0 2-.903 2-2V8a2 2 0 0 0-2-2h-8l-2-2z"/><path fill="#ffcdd2" d="M19.946 13.159V11.83h-2.658v3.654a1.663 1.663 0 0 0-.996-.332 1.661 1.661 0 0 0-1.661 1.661 1.661 1.661 0 0 0 1.66 1.661 1.661 1.661 0 0 0 1.662-1.66v-3.655h1.993m-2.658-4.65a6.644 6.644 0 0 1 6.644 6.643 6.644 6.644 0 0 1-6.644 6.644 6.644 6.644 0 0 1-6.644-6.644 6.644 6.644 0 0 1 6.644-6.644z"/></svg>