<svg xmlns="http://www.w3.org/2000/svg" xml:space="preserve" stroke-linejoin="round" stroke-miterlimit="1.414" clip-rule="evenodd" viewBox="0 0 24 24" class="svg material-folder-messages-open" width="16" height="16" aria-hidden="true"><path fill="#e57373" d="M19 20H4a2 2 0 0 1-2-2V6c0-1.11.89-2 2-2h6l2 2h7c1.097 0 2 .903 2 2H4v10l2.14-8h17.07l-2.28 8.5c-.23.87-1.01 1.5-1.93 1.5z" style="fill:#ff9800"/><path d="M15.12 23.509a.63.63 0 0 1-.63-.63V20.99h-2.519a1.26 1.26 0 0 1-1.259-1.26v-7.555c0-.7.567-1.26 1.26-1.26h10.074a1.26 1.26 0 0 1 1.26 1.26v7.556a1.26 1.26 0 0 1-1.26 1.26h-3.84l-2.33 2.335a.642.642 0 0 1-.441.183h-.315M12.6 12.805v1.26h8.816v-1.26H12.6m0 2.519v1.26h5.038v-1.26H12.6m0 2.518v1.26h6.297v-1.26z" style="fill:#fff9c4;stroke-width:.62969"/></svg>