<svg xmlns="http://www.w3.org/2000/svg" fill="none" viewBox="0 0 245 245" class="svg material-gridsome" width="16" height="16" aria-hidden="true"><path fill="#00bfa5" d="M121.79 19.003c-60.269.998-103.37 50.943-102.92 102.33-.003.142-.021.28-.021.422 0 .72.04 1.424.054 2.139.003.084 0 .167.003.251 0 .016.005.032.005.048 1.317 62.142 52.51 103.07 104.3 101.79 62.264-1.73 106.45-55.813 102.72-104.09a18.369 18.369 0 0 0-.349-2.242c-1.698-8.569-9.478-15.046-18.582-15.046h-27.21c-10.31 0-18.67 8.308-18.67 18.556 0 10.25 8.359 18.556 18.67 18.556h6.803c-7.518 24.105-31.273 47.113-64.269 48.03-33.064.815-66.143-25.438-67.103-66.18-.001-.194.013-.385.005-.58-1.279-32.13 25.005-65.97 68.06-67.763 9.974-.416 17.724-8.86 17.31-18.862-.414-10.001-8.836-17.773-18.81-17.357zm.78 85.601c-10.234 0-18.54 8.319-18.54 18.582s8.306 18.584 18.54 18.584c10.235 0 18.543-8.32 18.543-18.584 0-10.263-8.307-18.582-18.543-18.582z"/></svg>