<svg xmlns="http://www.w3.org/2000/svg" xml:space="preserve" stroke-linejoin="round" stroke-miterlimit="1.414" clip-rule="evenodd" viewBox="0 0 24 24" class="svg material-folder-next-open" width="16" height="16" aria-hidden="true"><path fill="#546e7a" d="M19 20H4a2 2 0 0 1-2-2V6c0-1.11.89-2 2-2h6l2 2h7c1.097 0 2 .903 2 2H4v10l2.14-8h17.07l-2.28 8.5c-.23.87-1.01 1.5-1.93 1.5z"/><path fill="#cfd8dc" d="M20.728 9.381c-4.049-2.38-9.193.527-9.238 5.22-.043 4.585 4.807 7.545 8.846 5.527l-4.712-6.68-.03 4.907c0 .445-1.054.445-1.054 0l.01-6.772c0-.354.888-.383 1.074-.076l5.32 8.275c3.776-2.432 3.725-8.084-.216-10.401zm-.048 8.04-1.023-1.474v-4.364c0-.334 1.023-.334 1.023 0v5.838z"/></svg>