<svg xmlns="http://www.w3.org/2000/svg" xml:space="preserve" fill-rule="evenodd" stroke-linejoin="round" stroke-miterlimit="1.414" clip-rule="evenodd" viewBox="0 0 24 24" class="svg material-folder-event" width="16" height="16" aria-hidden="true"><path fill="#e57373" fill-rule="nonzero" d="M10 4H4c-1.11 0-2 .89-2 2v12c0 1.097.903 2 2 2h16c1.097 0 2-.903 2-2V8a2 2 0 0 0-2-2h-8l-2-2z" style="fill:#fbc02d"/><path d="M23.626 20.068v.655H11.837v-.655l1.31-1.31v-3.93c0-2.03 1.33-3.818 3.275-4.394v-.19a1.31 1.31 0 0 1 1.31-1.31 1.31 1.31 0 0 1 1.31 1.31v.19a4.578 4.578 0 0 1 3.274 4.394v3.93l1.31 1.31m-4.585 1.31a1.31 1.31 0 0 1-1.31 1.31 1.31 1.31 0 0 1-1.31-1.31" style="fill:#fff9c4;stroke-width:.65496"/></svg>