<svg xmlns="http://www.w3.org/2000/svg" fill-rule="evenodd" stroke-linejoin="round" stroke-miterlimit="1.414" clip-rule="evenodd" viewBox="0 0 24 24" class="svg material-folder-flow" width="16" height="16" aria-hidden="true"><path fill="#37474F" fill-rule="nonzero" d="M10 4H4c-1.11 0-2 .89-2 2v12c0 1.097.903 2 2 2h16c1.097 0 2-.903 2-2V8a2 2 0 0 0-2-2h-8l-2-2z" style="fill:#546e7a"/><path fill="#fbc02d" fill-opacity=".976" d="m12.673 9.352 3.89 3.89h-3.102l3.07 3.071h-3.873l4.693 4.694v-9.97h2.344l1.025 1.024h-2.28v3.843h1.106l1.23 1.229h-2.401l.016.016v3.874h5.48l-1.968-1.969v-.793l.425.425V14.8h-.787v-1.917l1.511 1.51v-3.89h-3.257l-1.152-1.151h-2.205z"/></svg>