<svg xmlns="http://www.w3.org/2000/svg" viewBox="0 0 24 24" class="svg material-folder-plastic-open" width="16" height="16" aria-hidden="true"><path fill="#ff9800" d="M19 20H4a2 2 0 0 1-2-2V6c0-1.11.89-2 2-2h6l2 2h7c1.097 0 2 .903 2 2H4v10l2.14-8h17.07l-2.28 8.5c-.23.87-1.01 1.5-1.93 1.5z"/><g fill="#fff3e0"><path d="M22.6 11.236 18.345 8.8a1.25 1.25 0 0 0-1.244 0l-4.257 2.437a1.255 1.255 0 0 0-.63 1.088v4.857c0 .449.232.822.622 1.046l.603.343.019-5.697c0-.121.026-.246.067-.355a1 1 0 0 1 .42-.487l3.296-1.887a.968.968 0 0 1 .964 0L21.5 12.03a.97.97 0 0 1 .488.842v3.76a.97.97 0 0 1-.488.842l-3.296 1.887a.962.962 0 0 1-.486.128v1.38c.215 0 .432-.055.624-.165l4.257-2.438c.39-.223.63-.638.63-1.087v-4.856a1.242 1.242 0 0 0-.628-1.087z" class="material-folder-plastic-open__st1"/><path d="m18.067 18.057 2.364-1.354a.695.695 0 0 0 .35-.604v-2.696a.702.702 0 0 0-.35-.604l-2.364-1.353a.697.697 0 0 0-.691 0L15.012 12.8a.702.702 0 0 0-.35.604l-.009 5.853 1.261.707v-2.742l1.462.836a.69.69 0 0 0 .691 0zm-1.954-2.146a.413.413 0 0 1-.208-.359v-1.6a.411.411 0 0 1 .208-.358l1.404-.804a.415.415 0 0 1 .41 0l1.404.803a.412.412 0 0 1 .207.358v1.601c0 .148-.08.285-.208.359l-1.404.803a.411.411 0 0 1-.41 0z" class="material-folder-plastic-open__st1"/></g></svg>