<svg xmlns="http://www.w3.org/2000/svg" fill-rule="evenodd" stroke-linejoin="round" stroke-miterlimit="1.414" clip-rule="evenodd" viewBox="0 0 24 24" class="svg material-folder-vm-open" width="16" height="16" aria-hidden="true"><path fill="#455A64" fill-rule="nonzero" d="M19 20H4a2 2 0 0 1-2-2V6c0-1.11.89-2 2-2h6l2 2h7c1.097 0 2 .903 2 2H4v10l2.14-8h17.07l-2.28 8.5c-.23.87-1.01 1.5-1.93 1.5z" style="fill:#039be5"/><path d="M22.636 19.674V11.8H12.138v7.874h-1.05v1.05h12.598v-1.049zm-4.199 0h-2.1v-.524h2.1zm3.15-1.574h-8.399v-5.25h8.398z" style="fill:#b3e5fc;stroke-width:1.0811"/></svg>