<svg xmlns="http://www.w3.org/2000/svg" xml:space="preserve" fill-rule="evenodd" stroke-linejoin="round" stroke-miterlimit="1.414" clip-rule="evenodd" viewBox="0 0 24 24" class="svg material-folder-admin" width="16" height="16" aria-hidden="true"><path fill="#e57373" fill-rule="nonzero" d="M10 4H4c-1.11 0-2 .89-2 2v12c0 1.097.903 2 2 2h16c1.097 0 2-.903 2-2V8a2 2 0 0 0-2-2h-8l-2-2z" style="fill:#546e7a"/><path d="m18.139 8.318-5.326 2.367v3.55c0 3.285 2.272 6.356 5.326 7.102 3.054-.746 5.326-3.817 5.326-7.102v-3.55l-5.326-2.367m0 2.367a1.775 1.775 0 0 1 1.775 1.775 1.775 1.775 0 0 1-1.775 1.775 1.775 1.775 0 0 1-1.775-1.775 1.775 1.775 0 0 1 1.775-1.775m3.036 7.101a5.734 5.734 0 0 1-3.036 2.32 5.735 5.735 0 0 1-3.036-2.32 6.016 6.016 0 0 1-.515-.905c0-.977 1.604-1.776 3.551-1.776s3.55.782 3.55 1.776c-.141.313-.313.61-.514.905z" style="fill:#cfd8dc;stroke-width:.59177"/></svg>