<svg xmlns="http://www.w3.org/2000/svg" xml:space="preserve" stroke-linejoin="round" stroke-miterlimit="1.414" clip-rule="evenodd" viewBox="0 0 24 24" class="svg material-folder-theme-open" width="16" height="16" aria-hidden="true"><path fill="#1e88e5" d="M19 20H4a2 2 0 0 1-2-2V6c0-1.11.89-2 2-2h6l2 2h7c1.097 0 2 .903 2 2H4v10l2.14-8h17.07l-2.28 8.5c-.23.87-1.01 1.5-1.93 1.5z"/><path fill="#bbdefb" d="M21.043 15.266a1.07 1.07 0 0 1-1.07-1.07 1.07 1.07 0 0 1 1.07-1.071 1.07 1.07 0 0 1 1.07 1.07 1.07 1.07 0 0 1-1.07 1.071m-2.141-2.855a1.07 1.07 0 0 1-1.07-1.07 1.07 1.07 0 0 1 1.07-1.071 1.07 1.07 0 0 1 1.07 1.07 1.07 1.07 0 0 1-1.07 1.071m-3.569 0a1.07 1.07 0 0 1-1.07-1.07 1.07 1.07 0 0 1 1.07-1.071 1.07 1.07 0 0 1 1.07 1.07 1.07 1.07 0 0 1-1.07 1.071m-2.141 2.855a1.07 1.07 0 0 1-1.07-1.07 1.07 1.07 0 0 1 1.07-1.071 1.07 1.07 0 0 1 1.07 1.07 1.07 1.07 0 0 1-1.07 1.071m3.925-6.424a6.424 6.424 0 0 0-6.423 6.424 6.424 6.424 0 0 0 6.423 6.424 1.07 1.07 0 0 0 1.071-1.07c0-.28-.107-.53-.278-.715a1.105 1.105 0 0 1-.271-.713 1.07 1.07 0 0 1 1.07-1.071h1.263a3.569 3.569 0 0 0 3.57-3.569c0-3.154-2.877-5.71-6.425-5.71z"/></svg>