<svg xmlns="http://www.w3.org/2000/svg" xml:space="preserve" stroke-linejoin="round" stroke-miterlimit="1.414" clip-rule="evenodd" viewBox="0 0 24 24" class="svg material-folder-java-open" width="16" height="16" aria-hidden="true"><path fill="#ef5350" d="M19 20H4a2 2 0 0 1-2-2V6c0-1.11.89-2 2-2h6l2 2h7c1.097 0 2 .903 2 2H4v10l2.14-8h17.07l-2.28 8.5c-.23.87-1.01 1.5-1.93 1.5z"/><path fill="#ffcdd2" d="M10.856 20.781h11.581v-1.287H10.856m11.581-7.077H21.15v-1.93h1.287m0-1.287H12.143v6.434a2.574 2.574 0 0 0 2.573 2.573h3.86a2.574 2.574 0 0 0 2.574-2.573v-1.93h1.287a1.287 1.287 0 0 0 1.287-1.287v-1.93A1.287 1.287 0 0 0 22.437 9.2z"/></svg>