<svg xmlns="http://www.w3.org/2000/svg" xml:space="preserve" fill-rule="evenodd" stroke-linejoin="round" stroke-miterlimit="1.414" clip-rule="evenodd" viewBox="0 0 24 24" class="svg material-folder-azure-pipelines" width="16" height="16" aria-hidden="true"><path fill="#1e88e5" fill-rule="nonzero" d="M10 4H4c-1.11 0-2 .89-2 2v12c0 1.097.903 2 2 2h16c1.097 0 2-.903 2-2V8a2 2 0 0 0-2-2h-8l-2-2z"/><path fill="#bbdefb" d="M18.432 9.02a.988.988 0 0 0-.822.44l-1.689 2.528h-3.954a.494.494 0 0 0-.494.494v2.72l1.731 1.784.597-.64.742.743-.603.603.73.732.605-.604.747.747-.592.593 1.731 1.731h2.72a.494.494 0 0 0 .495-.495v-3.954l2.528-1.688a.99.99 0 0 0 .44-.823V9.514a.494.494 0 0 0-.495-.495zm1.944 1.483a1.483 1.483 0 0 1 1.05 2.534 1.485 1.485 0 0 1-1.627.318 1.485 1.485 0 0 1-.79-.79 1.486 1.486 0 0 1 1.367-2.061zm-8.903 7.42v2.968h2.968v-.89h-2.078v-2.078z"/></svg>