<svg xmlns="http://www.w3.org/2000/svg" viewBox="0 0 140 140" class="svg material-browserlist_light" width="16" height="16" aria-hidden="true"><g stroke-width=".855" transform="translate(10.508 10.205)"><circle cx="59.492" cy="59.795" r="59.828" fill="#ffca28"/><path fill="#37474f" d="M54.656 8.752c-4.89 3.464-8.862 8.508-11.791 14.262-2.198-2.28-4.185-5.05-6.111-8.672-3.318 4.976-5.216 11.09-5.893 17.496-2.807-1.335-5.6-3.18-8.63-5.814-1.314 5.83-.895 12.216.767 18.436-3.164-.223-6.498-.95-10.36-2.356.865 5.92 3.548 11.737 7.333 16.951-2.978.885-6.287 1.383-10.3 1.453 2.939 5.233 7.547 9.714 12.972 13.23-2.505 1.959-5.478 3.654-9.299 5.198 4.596 3.815 10.474 6.341 16.766 7.685-1.62 2.647-3.743 5.228-6.674 7.96 5.65 1.912 12.03 2.166 18.377 1.17-.556 3.098-1.626 6.314-3.412 9.975h.002c5.977-.24 12.042-2.3 17.623-5.52.6 3.108.76 6.51.402 10.593 12.047-5.19 21.395-18.638 24.695-31.951.9-2.408 1.385-5.881 1.385-10.7 0-1.293-.031-2.531-.076-3.745 9.742-1.655 16.839-5.001 20.914-7.39 1.494-.877 3.01-2.165 3.496-3.22v-.002a5.128 5.128 0 0 0-3.7-8.435 5.128 5.128 0 0 0-5.183 3.889c-7.92-4.122-16.98-12.477-14.779-24.551 1.646-2.299 3.947-4.603 7.13-7.016-5.952-.698-12.276.392-18.302 2.707-.095-3.135.28-6.492 1.262-10.43-5.776 1.473-11.262 4.733-16.041 9.02-1.22-2.902-2.076-6.18-2.572-10.223zm26.465 19.557c-.015 6.117 2.648 11.628 7.412 16.281 4.366 4.265 10.426 7.55 15.258 8.795.298.328.331.728-.035 1.285-.392.304-.825.603-1.276.867-4.612 2.704-10.256 5.019-16.87 6.506-1.072.24-2.154.458-3.25.649-.265-4.945-.848-9.243-1.422-13.125a3.419 3.419 0 1 0-.092-6.703 2.138 2.138 0 0 1-.28 4.177c-1.11-7.435-1.84-13.218.555-18.732z"/></g></svg>