<svg xmlns="http://www.w3.org/2000/svg" xml:space="preserve" fill-rule="evenodd" stroke-linejoin="round" stroke-miterlimit="1.414" clip-rule="evenodd" viewBox="0 0 24 24" class="svg material-folder-expo" width="16" height="16" aria-hidden="true"><path fill="#01579b" fill-rule="nonzero" d="M10 4H4c-1.11 0-2 .89-2 2v12c0 1.097.903 2 2 2h16c1.097 0 2-.903 2-2V8a2 2 0 0 0-2-2h-8l-2-2z" style="fill:#1976d2"/><path fill="#1173b6" d="M58.827-101.24c-.489-.745-.605-.844-1.6-.844h-.024c-.996 0-1.106.099-1.601.844-.46.699-5.024 9.058-5.024 9.291 0 .338.087.658.402 1.112.32.46.873.716 1.275.309.273-.274 3.201-5.321 4.616-7.23a.425.425 0 0 1 .693 0c1.414 1.909 4.343 6.956 4.616 7.23.402.407.955.15 1.275-.309.314-.454.402-.774.402-1.112-.006-.233-4.57-8.598-5.03-9.291z" style="fill:#bbdefb" transform="translate(-40.252 111.06)"/></svg>