<svg xmlns="http://www.w3.org/2000/svg" fill-rule="evenodd" stroke-linejoin="round" stroke-miterlimit="1.414" clip-rule="evenodd" viewBox="0 0 24 24" class="svg material-folder-syntax-open" width="16" height="16" aria-hidden="true"><path fill="#E53935" fill-rule="nonzero" d="M19 20H4a2 2 0 0 1-2-2V6c0-1.11.89-2 2-2h6l2 2h7c1.097 0 2 .903 2 2H4v10l2.14-8h17.07l-2.28 8.5c-.23.87-1.01 1.5-1.93 1.5z" style="fill:#ef5350"/><path d="M17.726 17.072h1.184l-2.894-7.36h-1.053l-2.894 7.36h1.184l.634-1.698h3.193zm-3.409-2.832 1.172-3.124 1.172 3.124zm8.585.335-4.58 4.58-2.079-2.083-.8.798 2.884 2.882 5.373-5.378z" style="fill:#ffcdd2;stroke-width:1.1672"/></svg>