<svg xmlns="http://www.w3.org/2000/svg" fill-rule="evenodd" stroke-linejoin="round" stroke-miterlimit="1.414" clip-rule="evenodd" viewBox="0 0 24 24" class="svg material-folder-functions" width="16" height="16" aria-hidden="true"><path fill="#01579B" fill-rule="nonzero" d="M10 4H4c-1.11 0-2 .89-2 2v12c0 1.097.903 2 2 2h16c1.097 0 2-.903 2-2V8a2 2 0 0 0-2-2h-8l-2-2z" style="fill:#0288d1"/><path d="M17.66 10.789a1.287 1.287 0 0 0-1.398 1.172l-.16 1.862h1.816v1.288h-1.933l-.283 3.265a2.577 2.577 0 0 1-4.753 1.134l.966-.966a1.28 1.28 0 0 0 1.61.837c.502-.155.857-.6.902-1.12l.27-3.15h-1.932v-1.288h2.048l.174-1.978a2.583 2.583 0 0 1 2.789-2.35c.811.07 1.546.521 1.97 1.217l-.965.966a1.29 1.29 0 0 0-1.121-.889m6.17 5.384-.908-.908-1.823 1.823-1.822-1.823-.921.908 1.835 1.836-1.835 1.81.92.908 1.823-1.823 1.823 1.823.908-.908-1.823-1.81z" style="fill:#b3e5fc;stroke-width:.64407"/></svg>