<svg xmlns="http://www.w3.org/2000/svg" xmlns:xlink="http://www.w3.org/1999/xlink" xml:space="preserve" fill-rule="evenodd" stroke-linejoin="round" stroke-miterlimit="1.414" clip-rule="evenodd" viewBox="0 0 24 24" class="svg material-folder-aurelia-open" width="16" height="16" aria-hidden="true"><defs><linearGradient xlink:href="#material-folder-aurelia-open__a" id="material-folder-aurelia-open__i" x1="-31.824" x2="19.682" y1="-11.741" y2="35.548" gradientTransform="scale(.95818 1.0436)" gradientUnits="userSpaceOnUse"/><linearGradient id="material-folder-aurelia-open__a" x1="-3.881" x2="2.377" y1="-1.442" y2="4.304"><stop offset="0" stop-color="#C06FBB"/><stop offset="1" stop-color="#6E4D9B"/></linearGradient><linearGradient xlink:href="#material-folder-aurelia-open__b" id="material-folder-aurelia-open__j" x1="12.022" x2="-15.716" y1="13.922" y2="-23.952" gradientTransform="scale(.96226 1.0392)" gradientUnits="userSpaceOnUse"/><linearGradient id="material-folder-aurelia-open__b" x1=".729" x2="-.971" y1=".844" y2="-1.477"><stop offset="0" stop-color="#6E4D9B"/><stop offset=".14" stop-color="#77327A"/><stop offset=".29" stop-color="#B31777"/><stop offset=".84" stop-color="#CD0F7E"/><stop offset="1" stop-color="#ED2C89"/></linearGradient><linearGradient xlink:href="#material-folder-aurelia-open__c" id="material-folder-aurelia-open__k" x1="-23.39" x2="23.931" y1="-57.289" y2="8.573" gradientTransform="scale(1.0429 .95884)" gradientUnits="userSpaceOnUse"/><linearGradient id="material-folder-aurelia-open__c" x1="-2.839" x2="2.875" y1="-6.936" y2="1.017"><stop offset="0" stop-color="#C06FBB"/><stop offset="1" stop-color="#6E4D9B"/></linearGradient><linearGradient xlink:href="#material-folder-aurelia-open__d" id="material-folder-aurelia-open__l" x1="-53.331" x2="6.771" y1="-30.517" y2="18.785" gradientTransform="scale(.99898 1.001)" gradientUnits="userSpaceOnUse"/><linearGradient id="material-folder-aurelia-open__d" x1="-8.212" x2="1.02" y1="-4.691" y2="2.882"><stop offset="0" stop-color="#C06FBB"/><stop offset="1" stop-color="#6E4D9B"/></linearGradient><linearGradient xlink:href="#material-folder-aurelia-open__e" id="material-folder-aurelia-open__m" x1="-14.029" x2="41.998" y1="-23.111" y2="26.259" gradientTransform="scale(1.0003 .99965)" gradientUnits="userSpaceOnUse"/><linearGradient id="material-folder-aurelia-open__e" x1="-1.404" x2="4.19" y1="-2.309" y2="2.62"><stop offset="0" stop-color="#C06FBB"/><stop offset="1" stop-color="#6E4D9B"/></linearGradient><linearGradient xlink:href="#material-folder-aurelia-open__f" id="material-folder-aurelia-open__n" x1="31.177" x2="3.37" y1="41.442" y2="3.402" gradientTransform="scale(.96254 1.0389)" gradientUnits="userSpaceOnUse"/><linearGradient id="material-folder-aurelia-open__f" x1="1.911" x2=".204" y1="2.539" y2=".204"><stop offset="0" stop-color="#6E4D9B"/><stop offset=".14" stop-color="#77327A"/><stop offset=".29" stop-color="#B31777"/><stop offset=".84" stop-color="#CD0F7E"/><stop offset="1" stop-color="#ED2C89"/></linearGradient><linearGradient xlink:href="#material-folder-aurelia-open__g" id="material-folder-aurelia-open__o" x1="-31.905" x2="19.599" y1="-14.258" y2="42.767" gradientTransform="scale(.95823 1.0436)" gradientUnits="userSpaceOnUse"/><linearGradient id="material-folder-aurelia-open__g" x1="-3.881" x2="2.377" y1="-1.738" y2="5.19"><stop offset="0" stop-color="#C06FBB"/><stop offset="1" stop-color="#6E4D9B"/></linearGradient><linearGradient xlink:href="#material-folder-aurelia-open__h" id="material-folder-aurelia-open__p" x1="4.301" x2="34.534" y1="34.41" y2="4.514" gradientTransform="scale(1.002 .99796)" gradientUnits="userSpaceOnUse"/><linearGradient id="material-folder-aurelia-open__h" x1=".112" x2=".901" y1=".897" y2=".116"><stop offset="0" stop-color="#6E4D9B"/><stop offset=".14" stop-color="#77327A"/><stop offset=".53" stop-color="#B31777"/><stop offset=".79" stop-color="#CD0F7E"/><stop offset="1" stop-color="#ED2C89"/></linearGradient></defs><path fill="#f06292" fill-rule="nonzero" d="M19 20H4a2 2 0 0 1-2-2V6c0-1.11.89-2 2-2h6l2 2h7c1.097 0 2 .903 2 2H4v10l2.14-8h17.07l-2.28 8.5c-.23.87-1.01 1.5-1.93 1.5z"/><g fill="none"><path fill="url(#material-folder-aurelia-open__i)" d="M8.002 6.127 4.117 8.719.116 2.723 4 .13z" transform="translate(16.57 9.132) scale(.31633)"/><path fill="url(#material-folder-aurelia-open__j)" d="m9.179 1.887 6.637 9.946-7.906 5.276-6.637-9.946L.115 5.43 8.02.153z" transform="translate(17.197 16.172) scale(.31633)"/><path fill="url(#material-folder-aurelia-open__k)" d="m7.3 1.88 1.462 2.189-6.018 4.015L.124 4.16l1.315-.877L6.143.144z" transform="translate(14.642 18.276) scale(.31633)"/><path fill="url(#material-folder-aurelia-open__l)" d="M2.328 1.146 4.016.02l2.619 3.925L2.75 6.537l-1.46-2.19 2.197-1.466zm-1.04 3.201L.132 2.612l2.197-1.466 1.158 1.735z" transform="translate(20.405 14.919) scale(.31633)"/><path fill="url(#material-folder-aurelia-open__m)" d="m5.346 9.155-1.315.877L.03 4.035 6.047.019l2.805 4.204L4.15 7.36l4.703-3.138 1.197 1.793z" transform="translate(10.833 12.564) scale(.31633)"/><path fill="url(#material-folder-aurelia-open__n)" d="m14.533 9.934 1.197 1.793-7.907 5.276-1.196-1.793L.052 5.358 7.958.082z" transform="translate(12.186 8.655) scale(.31633)"/><path fill="url(#material-folder-aurelia-open__o)" d="M6.235 7.177 4.038 8.643 2.84 6.849.036 2.646 3.92.053 7.923 6.05z" transform="translate(16.596 9.156) scale(.31633)"/><path fill="#714896" d="m15.463 19.864-.366-.549 1.488-.993.366.549z"/><path fill="#6f4795" d="m20.812 16.294-.366-.548.695-.464.366.549z"/><path fill="#88519f" d="m12.524 15.46-.379-.567 1.488-.993.379.567z"/><path fill="#85509e" d="m17.873 11.89-.378-.567.695-.464.378.567z"/><path fill="#8d166a" d="m20.1 16.769-2.5 1.669-.366-.549 2.5-1.669z"/><path fill="#a70d6f" d="m16.783 11.797.379.568-2.501 1.669-.379-.568z"/><path fill="#9e61ad" d="m11.815 11.344.472.707-.708.472-.472-.707z"/><path fill="#8053a3" d="m14.364 19.824.472.708-.707.472-.472-.708z"/><path fill="url(#material-folder-aurelia-open__p)" d="M8.372 38.294.017 29.876 29.749.08l8.636 8.201z" transform="matrix(.31022 .0619 -.0619 .31022 12.276 8.139)"/></g></svg>