<svg xmlns="http://www.w3.org/2000/svg" xml:space="preserve" fill-rule="evenodd" stroke-linejoin="round" stroke-miterlimit="1.414" clip-rule="evenodd" viewBox="0 0 24 24" class="svg material-folder-queue" width="16" height="16" aria-hidden="true"><path fill="#039be5" fill-rule="nonzero" d="M10 4H4c-1.11 0-2 .89-2 2v12c0 1.097.903 2 2 2h16c1.097 0 2-.903 2-2V8a2 2 0 0 0-2-2h-8l-2-2z"/><g fill="#b3e5fc" stroke-miterlimit="3.7" stroke-width="190.6" color="#000" style="paint-order:markers fill stroke"><path d="M2504 4949c-27-4-81-22-120-38-116-50-2226-1168-2266-1200-91-76-121-236-67-352 15-32 41-67 60-81 40-29 2245-1022 2334-1050 73-24 171-20 259 11 97 34 2268 1012 2302 1037 50 37 78 105 82 199 5 106-21 179-81 231-42 35-2191 1176-2297 1219-67 27-138 36-206 24zm1114.7-820.42c607-326 1104.1-625.72 1104.1-629.72 1-4-453.84-218.87-1059.8-474.87l-1103-464-1098 462c-604 255-1053.5 477.72-1054.5 482.72-1 6 446.5 266.28 1050.5 591.28 603 326 1098 593 1098 593s456.7-234.42 1062.7-560.42z" style="-inkscape-stroke:none" transform="matrix(.00246 0 0 -.00246 10.884 21.263)"/><path d="M2552.7 2116.4c-47.089-.1-93.309 6.604-136.9 20.863-16.756 5.31-26.646 9.92-48.068 18.894-21.697 9.09-50.214 21.316-84.869 36.352-69.311 30.072-163.04 71.336-273.11 120.14-220.12 97.601-505.44 225.3-789.25 353.04-283.81 127.74-566.06 255.5-780.05 353.23-106.99 48.863-196.89 90.201-261.61 120.38-32.361 15.091-58.381 27.367-77.471 36.588-9.545 4.61-17.306 8.427-23.746 11.715-6.44 3.288-5.366.735-22.568 13.207a95.311 95.311 0 0 0-.594.433c-46.64 34.367-68.13 71.133-89.758 117.27a95.311 95.311 0 0 0-.107.229c-73.85 158.64-41.291 353.79 92.309 465.37a95.311 95.311 0 0 0 1.555 1.272c14.72 11.776 14.567 10.094 20.73 13.737 6.163 3.643 13.627 7.914 22.799 13.08 18.344 10.333 43.34 24.126 74.414 41.1 62.146 33.947 148.43 80.505 251.17 135.62 205.49 110.22 476.7 254.58 750.31 399.52s549.58 290.42 764.56 402.88c107.49 56.232 199.71 104.2 268.94 139.79 69.226 35.598 109.33 56.356 134.89 67.371a95.311 95.311 0 0 0 1.55.653c44.127 18.104 91.93 36.515 141.43 43.967 86.631 14.907 175.09 3.009 256.36-29.742a95.311 95.311 0 0 0 .203-.082c29.301-11.886 65.677-31.208 135.08-66.803 69.401-35.595 162.35-83.907 271-140.76 217.3-113.7 497.28-261.51 775.28-409.07 278-147.57 553.98-294.87 763.29-407.58 104.65-56.354 192.6-104.04 256.04-138.92 31.721-17.441 57.268-31.651 76.096-42.371 9.414-5.36 17.098-9.81 23.516-13.668s6.653-2.222 21.893-14.922a95.311 95.311 0 0 0 1.407-1.196c83.017-71.948 119.57-183.8 113.79-307.31-4.76-110.83-39.366-211.27-120.51-271.32a95.311 95.311 0 0 0-.235-.171c-19.944-14.665-16.594-10.22-22.746-13.332s-13.61-6.757-22.842-11.19c-18.46-8.866-43.787-20.768-75.385-35.46-63.195-29.381-151.29-69.82-256.31-117.74-210.06-95.837-487.73-221.53-767.4-347.52-279.67-125.98-561.28-252.24-779.2-349.2-108.96-48.476-201.97-89.618-271.02-119.81-68.983-30.162-104.89-46.393-131.94-55.882-59.883-21.09-122.11-32.535-182.9-32.664zm-13.555 192.28c41.382-1.25 89.738 4.872 133.18 20.176a95.311 95.311 0 0 0 .14.051c-2.808-.985 50.336 20.778 118.71 50.676 68.379 29.898 161.15 70.936 269.9 119.32 217.49 96.764 498.94 222.95 778.39 348.84s556.97 251.51 766.57 347.14c104.8 47.815 192.65 88.149 255.07 117.17 31.21 14.51 56.108 26.216 73.23 34.439 8.033 3.857 13.992 6.789 18.105 8.857 17.97 15.445 37.229 50.854 40.328 123.68a95.311 95.311 0 0 0 .019.44c4.027 85.38-10.447 120.04-44.7 151.15-.075.047-.114.094-.189.139-4.185 2.515-10.964 6.462-19.623 11.393-17.318 9.86-42.352 23.795-73.619 40.986-62.535 34.382-150.2 81.916-254.58 138.12-208.76 112.42-484.53 259.61-762.28 407.04s-557.52 295.13-774.28 408.55c-108.38 56.712-201.04 104.87-269.62 140.04-68.513 35.139-122.38 60.832-119.68 59.746-52.114 20.974-104.93 27.092-153.67 18.49a95.311 95.311 0 0 0-2.595-.422c-4.19-.621-63.1-17.81-96.883-31.56-4.227-1.873-54.598-26.59-122.53-61.524-68.524-35.238-160.49-83.07-267.75-139.18-214.52-112.22-490.3-257.61-763.69-402.43-273.39-144.82-544.42-289.08-749.44-399.05-102.51-54.983-188.54-101.41-249.89-134.92-30.677-16.757-55.227-30.312-72.242-39.896-8.474-4.773-15.095-8.578-19.273-11.047-46.567-42.85-72.297-163.87-38.914-235.78 6.788-14.391 27.462-38.292 30.91-43.9 4.23-2.123 8.944-4.476 16.018-7.893 17.648-8.525 43.189-20.583 75.123-35.475 63.868-29.783 153.5-71 260.24-119.75 213.48-97.493 495.54-225.17 779.1-352.8 283.56-127.63 568.68-255.24 788.28-352.61 109.8-48.684 203.24-89.818 271.71-119.52 34.233-14.853 62.254-26.862 82.654-35.408s38.243-14.975 32.215-13.078a95.311 95.311 0 0 0 1.166-.373c17.24-5.668 39.559-9.074 64.389-9.824zm33.455 156.83a95.311 95.311 0 0 0-49.57 6.621l-1098 462a95.311 95.311 0 0 0-.106.045c-303.35 128.07-567.75 247.96-756.78 336.62-94.515 44.331-170.15 80.832-222.64 106.78-26.247 12.976-46.635 23.271-61.219 30.867-7.292 3.798-13.002 6.836-18.193 9.76-2.595 1.462-4.868 2.731-8.638 5.148-1.886 1.209-3.955 2.448-8.524 6.043-2.284 1.798-5.15 3.949-10.354 9.412s-16.952 9.244-24.54 47.188a95.311 95.311 0 0 0-.553 3.024c-6.504 39.02 6.793 55.66 12.389 64.965s9.315 13.07 12.152 16.117c5.673 6.092 8.318 8.019 10.617 9.885 4.597 3.73 7.098 5.398 9.879 7.308 5.561 3.821 11.259 7.458 18.53 12.004 14.546 9.091 34.688 21.238 60.69 36.623 52.005 30.77 127.05 74.211 221.03 127.63 187.91 106.82 451.27 253.41 753.9 416.25l.07.037.096.053c602.92 325.96 1097.9 592.95 1097.9 592.95a95.311 95.311 0 0 0 88.762.908s457.5-234.82 1064.3-561.24c304.67-163.63 581.51-320.51 782.44-437.14 100.47-58.315 181.93-106.55 238.58-140.64 28.325-17.045 50.39-30.518 65.898-40.188 7.753-4.834 13.767-8.643 18.795-11.953 2.513-1.655 4.615-3.039 7.77-5.322 1.576-1.141 3.205-2.244 7.056-5.53 1.925-1.642 4.287-3.485 9.248-8.997 2.48-2.756 5.695-6.247 10.414-13.92 3.949-6.422 11.127-15.654 13.385-36.533 9.25-50.052-14.784-66.708-21.557-74.791-7.192-8.584-10.852-11.106-13.697-13.385-5.692-4.558-7.91-5.762-9.973-7.053-4.127-2.583-6.374-3.773-8.984-5.188-5.221-2.83-10.867-5.708-18.131-9.337-14.528-7.26-34.918-17.136-61.242-29.65-52.648-25.03-128.71-60.427-223.76-103.71-190.11-86.568-456.02-204.6-759.95-332.99a95.311 95.311 0 0 0-.133-.057l-1103-464a95.311 95.311 0 0 0-24.344-6.618zm-12.606 197.86 1066 448.45c302.01 127.58 566.47 244.97 755 330.82a18053.263 18053.263 0 0 1 143.12 65.908 19227.079 19227.079 0 0 1-173.62 101.98c-199.38 115.73-474.61 271.7-776.94 434.07a95.311 95.311 0 0 0-.057.031c-521.7 280.65-913.15 483.26-1016.5 536.58-37.675-20.323-475.02-256.22-1053.7-569.07a95.311 95.311 0 0 0-.166-.09c-301.3-162.12-563.63-308.14-750.19-414.19a18225.996 18225.996 0 0 1-148.82-85.496c41.65-20.115 88.494-42.52 144.94-68.996 186.95-87.687 449.27-206.64 749.87-333.55l.105-.045zm2070.4 812.36a95.311 95.311 0 0 0-2.846 23.113c0-5.036.32-9.388.76-13.455a157.88 157.88 0 0 1 2.086-9.658z" style="-inkscape-stroke:none" transform="matrix(.00246 0 0 -.00246 10.884 21.263)"/><path d="M4 2568c14-143 49-247 99-299 27-27 255-134 1173-546 626-281 1157-516 1179-522 68-18 160-13 238 13s2241 995 2294 1028c48 29 98 139 117 257 27 158 39 152-131 67-82-40-658-308-1280-595l-1133-522-1132 522c-623 287-1200 555-1282 596l-149 74z" style="-inkscape-stroke:none" transform="matrix(.00246 0 0 -.00246 10.884 21.263)"/><path d="M2538.7 1094.3c-36.908.625-73.264 5.35-108.05 14.559a95.311 95.311 0 0 0-.69.185c-15.992 4.362-14.484 4.872-20.584 7.334-6.1 2.463-13.565 5.572-22.766 9.463-18.4 7.783-43.576 18.633-75.07 32.338-62.988 27.41-151.1 66.18-258.08 113.54-213.97 94.721-503.32 223.77-816.45 364.33-459.12 206.05-745.71 335.84-921.86 417.94-88.074 41.051-148.42 70.1-190.03 91.438-41.606 21.338-57.56 24.261-89.477 56.178a95.311 95.311 0 0 0-1.308 1.334c-78.601 81.746-110.09 201.9-125.15 355.77a95.311 95.311 0 0 0-.02.188l-7 73a95.311 95.311 0 0 0 137.26 94.453l149-74a95.311 95.311 0 0 0 .23-.115c70.636-35.317 656.42-307.76 1279.3-594.68a95.311 95.311 0 0 0 .034-.016l1092.1-503.61 1093.1 503.62c621.51 286.77 1202.7 557.32 1277.8 593.97 41.372 20.695 71.746 36.777 98.984 49.016 13.689 6.15 26.314 11.636 43.926 15.9 17.612 4.264 45.923 10.486 81.998-8.006s53.8-58.88 57.428-80.898c3.627-22.018 1.837-35.934.267-50.014-3.138-28.16-9.067-56.328-15.604-94.574l.15.902c-10.846-67.365-29.968-131.25-54.972-186.2-24.932-54.791-49.6-102.44-106.37-136.92-19.958-12.376-23.394-12.436-42.506-21.514-19.348-9.19-45.54-21.394-77.9-36.328-64.722-29.868-153.98-70.581-259.81-118.57-211.67-95.987-489.53-221.05-768.19-345.91-278.66-124.86-558.09-249.49-772.87-344.59-107.39-47.553-198.6-87.715-265.64-116.91-33.52-14.596-60.971-26.439-81.623-35.19-20.652-8.75-29.423-12.909-45.078-18.127-59.906-19.969-122.96-30.319-184.47-29.277zm1.906 192.07c39.307-.248 84.696 5.496 122.29 18.027-5.905-1.968 11.362 4.49 30.99 12.807s46.698 19.99 79.891 34.443c66.385 28.906 157.37 68.971 264.56 116.43 214.37 94.925 493.64 219.48 772.1 344.25 278.46 124.77 556.17 249.76 767.41 345.56 105.62 47.897 194.65 88.505 258.67 118.05 32.008 14.771 57.797 26.793 75.994 35.436 8.886 4.22 18.021 9.063 23.588 11.98.99 2.924 19.716 22.778 33.572 53.228 12.313 27.06 23.86 61.34 32.365 97.709-107.22-51.764-660.12-308.86-1269.1-589.84a95.311 95.311 0 0 0-.049-.023l-1133-522a95.311 95.311 0 0 0-79.787.014l-1132 522c-606.96 279.61-1158.3 535.31-1273 591.63 15.034-65.891 35.263-112.02 50.371-133.25 5.148-2.985 22.846-15.631 46.582-27.805 37.425-19.194 96.517-47.707 183.57-88.281 174.1-81.148 460.51-210.86 919.38-416.81a95.311 95.311 0 0 0 .01 0c312.87-140.44 602.02-269.39 815.55-363.92 106.77-47.264 194.66-85.934 256.98-113.05 31.162-13.561 55.971-24.25 73.266-31.564 8.647-3.657 15.46-6.487 19.86-8.264.715-.288 1.242-.412 2.052-.69 15.792-3.787 35.73-5.924 57.838-6.064zm2396.1 1036.5a95.311 95.311 0 0 0 1.092.67c-.124-.075-.1-.023-.211-.088-.511-.322-.224-.173-.88-.582z" style="-inkscape-stroke:none" transform="matrix(.00246 0 0 -.00246 10.884 21.263)"/><path d="M5 1544c14-149 61-275 118-318 35-25 2244-1020 2317-1043 63-20 164-19 235 2 67 19 2274 1007 2317 1037 59 41 107 169 123 326l7 73-173-86c-182-92-2374-1105-2389-1105S210 1509 101 1566l-103 55z" style="-inkscape-stroke:none" transform="matrix(.00246 0 0 -.00246 10.884 21.263)"/><path d="M2555.9 71.551c-49.476-.54-98.714 6.026-144.62 20.588-18.585 5.862-25.374 9.558-46.102 18.34-20.771 8.8-48.469 20.771-82.377 35.578-67.817 29.614-160.35 70.52-269.41 119.02-218.13 97.004-502.27 224.35-785.25 351.77-282.98 127.42-564.74 254.89-778.12 352.15-106.69 48.627-196.24 89.686-260.5 119.5-32.13 14.907-57.892 26.979-76.639 35.945-9.373 4.483-16.942 8.161-23.129 11.27-6.187 3.108-3.22-.772-22.129 12.734a95.311 95.311 0 0 0-2.002 1.47c-54.174 40.869-82.829 96.923-107.06 162.13-24.234 65.21-40.731 141.13-48.426 223.03a95.311 95.311 0 0 0-.027.288l-7 77a95.311 95.311 0 0 0 139.8 92.695l102.34-54.65c12.934-6.759 189.82-90.49 424.09-199.57 234.34-109.11 536.84-249.3 836.4-387.71 299.56-138.41 596.19-275.04 818.76-377.01 111.28-50.988 204.07-93.325 269.29-122.81 28.508-12.89 49.216-22.148 66.262-29.707a8703.667 8703.667 0 0 1 60.236 26.957c61.43 27.745 148.92 67.636 254.06 115.8 210.29 96.33 491.32 225.8 777.55 358.14 572.47 264.68 1174.9 545.51 1254.1 585.55a95.311 95.311 0 0 0 .572.285l173 86a95.311 95.311 0 0 0 137.29-94.436l-7-73a95.311 95.311 0 0 0-.057-.564c-8.71-85.464-25.88-163.74-51-230.43-25.114-66.676-54.692-124.03-112.38-164.14-15.266-10.643-15.207-9.115-21.668-12.381-6.48-3.276-14.316-7.098-23.936-11.71-19.238-9.222-45.416-21.488-77.92-36.546-65.01-30.116-155.14-71.303-262.26-119.93-214.25-97.253-496.34-224.2-779.21-350.81-282.87-126.61-566.46-252.88-783.71-348.75-108.62-47.937-200.63-88.264-267.88-117.33-33.627-14.535-61.025-26.24-81.545-34.805-20.387-8.51-24.033-11.552-46.928-18.07-46.7-13.747-96.21-21.341-145.49-21.88zm-2.762 194.15c34.49.21 70.743 3.559 94.852 10.689a95.311 95.311 0 0 0 1.03.297c-14.925-4.232 6.69 2.7 25.88 10.71 19.191 8.01 46.121 19.509 79.338 33.866 66.435 28.715 158.18 68.928 266.55 116.76 216.75 95.656 500.16 221.83 782.79 348.34 282.63 126.51 564.54 253.38 778.29 350.4 106.88 48.514 196.75 89.585 260.93 119.32 32.09 14.866 57.804 26.92 75.65 35.476 8.863 4.248 15.784 7.64 20.189 9.865 3.405 3.457 25.122 29.341 41.818 73.67 8.693 23.082 16.694 50.43 23.457 80.772l-11.902-5.916c-102.79-51.96-687.35-323.63-1260.1-588.45-286.39-132.41-567.54-261.94-778.16-358.42-105.31-48.24-192.96-88.21-254.98-116.22-31.013-14.007-55.571-25.005-73.055-32.693-8.742-3.844-15.635-6.832-21.262-9.183-2.814-1.176-5.191-2.157-8.25-3.32-1.53-.582-3.104-1.191-6.18-2.182s3.663-4.776-29.975-4.776c-35.822 0-27.486 3.961-30.496 4.95-3.01.988-4.558 1.591-6.082 2.177-3.048 1.172-5.494 2.187-8.414 3.414-5.84 2.455-13.111 5.617-22.352 9.692-18.481 8.15-44.531 19.836-77.418 34.707-65.775 29.74-158.72 72.146-270.15 123.21-222.87 102.12-519.61 238.8-819.31 377.27-299.69 138.47-602.31 278.71-836.91 387.95-171.62 79.907-299.74 139.55-373.18 174.66 6.19-27.517 13.496-52.696 21.516-74.275 15.319-41.222 34.986-67.252 40.975-73.816a1229.45 1229.45 0 0 1 16.926-8.239c17.493-8.366 42.85-20.256 74.615-34.994 63.53-29.475 152.86-70.432 259.33-118.96 212.94-97.058 494.55-224.46 777.32-351.79 282.77-127.33 566.75-254.61 784.44-351.41 108.84-48.404 201.14-89.202 268.24-118.5 33.549-14.65 60.829-26.438 80.453-34.752 19.624-8.314 38.679-15.093 29.129-12.084a95.311 95.311 0 0 0 .197-.062c17.064-5.417 49.793-8.345 84.283-8.135zm35.502 255.36c-.362.78 1.108 2.443-7.94 3.445 2.522-1.09 6.314-2.76 7.94-3.445zm-56.566.277c1.522.64 4.745 2.055 7.031 3.041-6.88-.913-6.67-2.271-7.03-3.04z" style="-inkscape-stroke:none" transform="matrix(.00246 0 0 -.00246 10.884 21.263)"/></g></svg>