<svg xmlns="http://www.w3.org/2000/svg" xml:space="preserve" fill-rule="evenodd" stroke-linejoin="round" stroke-miterlimit="1.414" clip-rule="evenodd" viewBox="0 0 24 24" class="svg material-folder-css-open" width="16" height="16" aria-hidden="true"><path fill="#42a5f5" fill-rule="nonzero" d="M19 20H4a2 2 0 0 1-2-2V6c0-1.11.89-2 2-2h6l2 2h7c1.097 0 2 .903 2 2H4v10l2.14-8h17.07l-2.28 8.5c-.23.87-1.01 1.5-1.93 1.5z"/><path fill="#bbdefb" fill-rule="nonzero" d="m12.488 9.415-.44 2.259h9.188l-.298 1.46h-9.18l-.447 2.251H20.5l-.514 2.576-3.705 1.224-3.211-1.224.223-1.109h-2.258l-.534 2.704 5.307 2.029 6.118-2.029.812-4.076.162-.818 1.041-5.247H12.488z"/></svg>