<svg xmlns="http://www.w3.org/2000/svg" xml:space="preserve" stroke-linejoin="round" stroke-miterlimit="1.414" clip-rule="evenodd" viewBox="0 0 24 24" class="svg material-folder-ngrx-actions-open" width="16" height="16" aria-hidden="true"><path fill="#ab47bc" d="M19 20H4a2 2 0 0 1-2-2V6c0-1.11.89-2 2-2h6l2 2h7c1.097 0 2 .903 2 2H4v10l2.14-8h17.07l-2.28 8.5c-.23.87-1.01 1.5-1.93 1.5z"/><path fill="#e1bee7" d="m17.655 8.39-6.152 2.192.933 8.143 5.219 2.888 5.219-2.888.932-8.143zm-1.278 2.067c.234-.004.487.07.768.222.124.067.498.162.83.21 1.183.171 2.586 1.074 3.03 1.95.306.603.243.928-.225 1.17-.404.208-1.23.107-2.43-.298l-1.012-.341-.36.137c-.522.2-1.044.694-1.258 1.19-.154.359-.177.527-.149 1.116.028.59.071.761.28 1.132.239.422.786.96.88.866.026-.026-.03-.197-.124-.38-.093-.183-.148-.368-.122-.41.026-.042.273.114.548.347.611.517 1.326.848 1.981.917.538.056.661-.044.258-.211a1.238 1.238 0 0 1-.374-.25c-.157-.173-.166-.168.504-.318.417-.094 1.24-.531 1.29-.685.016-.05-.118-.07-.338-.053-.2.016-.363-.005-.363-.046 0-.04.164-.243.363-.452.748-.78 1.004-1.364 1.083-2.474l.055-.766.176.364c.194.402.23.981.091 1.479-.115.416-.038.462.173.103.261-.442.345-.372.299.252-.05.678-.283 1.186-.808 1.761-.429.47-.377.553.141.234.5-.308.567-.26.31.224-.487.914-1.516 1.689-2.585 1.948-.647.158-1.106.187-1.7.109-1.55-.203-3.018-1.248-3.718-2.647a8.736 8.736 0 0 0-.572-.989c-.275-.373-.298-.54-.113-.823.093-.142.114-.286.076-.502-.176-.999-.17-1.03.23-1.437.35-.353.371-.4.371-.813 0-.358.036-.475.198-.637.109-.109.282-.2.384-.2.296-.003.807-.277 1.11-.595.252-.265.52-.4.822-.404z"/></svg>