<svg xmlns="http://www.w3.org/2000/svg" fill="none" viewBox="0 0 24 24" class="svg material-folder-vuex-store" width="16" height="16" aria-hidden="true"><path d="M10 4H4a2 2 0 0 0-2 2v12c0 1.1.9 2 2 2h16c1.1 0 2-.9 2-2V8a2 2 0 0 0-2-2h-8z" style="fill:#009688"/><path d="M.2 15.99 6.52 3.24 8.1 6.35v3.27l-3.14 6.37zM16 16 9.68 3.25 8.1 6.36v3.27L11.23 16z" style="fill:#41b883" transform="translate(12.08 9.002) scale(.73408)"/><path d="m.2.04 3.95 7.98 2.37-4.78L4.94.04zm15.8 0-3.95 7.98-2.37-4.78 1.58-3.2z" style="fill:#35495e" transform="translate(12.08 9.002) scale(.73408)"/></svg>