<svg xmlns="http://www.w3.org/2000/svg" fill="none" viewBox="0 0 24 24" class="svg material-folder-shader" width="16" height="16" aria-hidden="true"><path fill="#AB47BC" d="M10 4H4c-1.11 0-2 .89-2 2v12c0 1.097.903 2 2 2h16c1.097 0 2-.903 2-2V8a2 2 0 0 0-2-2h-8l-2-2z"/><path fill="#E1BEE7" d="M16.053 18.84a2.526 2.526 0 1 1-5.053 0 2.526 2.526 0 0 1 5.053 0zm3.136-5.98a2.526 2.526 0 1 0-3.37 2.04c1.937.761 2.393 1.53 2.151 3.605a2.526 2.526 0 1 0 3.37-2.038c-1.937-.762-2.394-1.532-2.15-3.607z"/></svg>