<svg xmlns="http://www.w3.org/2000/svg" viewBox="0 0 24 24" class="svg material-robots" width="16" height="16" aria-hidden="true"><path fill="#ff5252" d="M12 2.909a1.818 1.818 0 0 1 1.818 1.818c0 .673-.363 1.264-.909 1.573v1.155h.909a6.364 6.364 0 0 1 6.364 6.364h.909a.909.909 0 0 1 .909.908v2.727a.909.909 0 0 1-.909.909h-.909v.909a1.818 1.818 0 0 1-1.818 1.818H5.636a1.818 1.818 0 0 1-1.818-1.817v-.909h-.909A.909.909 0 0 1 2 17.455v-2.728a.909.909 0 0 1 .909-.909h.909a6.364 6.364 0 0 1 6.364-6.363h.909V6.3a1.802 1.802 0 0 1-.909-1.573A1.818 1.818 0 0 1 12 2.909m-4.091 10a2.273 2.273 0 0 0-2.273 2.273 2.273 2.273 0 0 0 2.273 2.273 2.273 2.273 0 0 0 2.273-2.273 2.273 2.273 0 0 0-2.273-2.273m8.182 0a2.273 2.273 0 0 0-2.273 2.273 2.273 2.273 0 0 0 2.273 2.273 2.273 2.273 0 0 0 2.273-2.273 2.273 2.273 0 0 0-2.273-2.273z"/></svg>