<svg xmlns="http://www.w3.org/2000/svg" xml:space="preserve" viewBox="0 0 300 300" class="svg material-jest" width="16" height="16" aria-hidden="true"><g style="fill:#000"><g style="fill:#f4511e"><path d="m207.6 95.6-20.7 41.8c6.8 6.3 11.6 14.6 13.5 24H216c1.8-8.9 6.2-16.9 12.5-23.1z" style="fill:#f4511e" transform="translate(24.251 8.091) scale(.82124)"/><path d="m169.5 127.3 38.1-77 38 77.5c1.5-.5 3-.9 4.5-1.3L286.2 20H128.9l36 106.2c1.5.3 3.1.7 4.6 1.1zm-13.1 68.1c13.9 0 25.2-11.3 25.2-25.2 0-5.1-1.5-9.8-4.1-13.8-.8-1.3-1.8-2.5-2.8-3.6l-.1-.1c-1-1.1-2.2-2.1-3.4-2.9l-.1-.1c-.3-.2-.7-.5-1.1-.7-.1 0-.1-.1-.2-.1-.4-.2-.8-.5-1.2-.7h-.1c-.4-.2-.9-.5-1.3-.7h-.1c-.4-.2-.8-.4-1.2-.5-.1 0-.2-.1-.3-.1-.3-.1-.7-.3-1-.4-.1 0-.2-.1-.4-.1-.4-.1-.8-.3-1.2-.4h-.1c-.5-.1-.9-.2-1.4-.3-.1 0-.2 0-.4-.1-.4-.1-.7-.1-1.1-.2-.2 0-.3 0-.5-.1-.3 0-.7-.1-1-.1h-3.9c-.4 0-.7.1-1.1.1h-.4c-.4.1-.8.1-1.2.2h-.3c-.5.1-.9.2-1.4.3-11 2.7-19.2 12.7-19.2 24.5.2 13.7 11.5 25.1 25.4 25.1zm106-50.4h-.2c-.4 0-.7-.1-1.1-.1h-1.3c-.5 0-1 0-1.6.1h-.5c-.4 0-.8.1-1.2.1-.1 0-.3 0-.4.1l-1.5.3h-.1c-.5.1-.9.2-1.4.3-.1 0-.3.1-.4.1-.4.1-.8.2-1.2.4-.1 0-.2.1-.3.1-.5.2-1 .4-1.4.6-.5.2-.9.4-1.4.6-.1 0-.2.1-.3.1-.4.2-.8.4-1.2.7 0 0-.1 0-.1.1-.9.5-1.8 1.1-2.6 1.8l-.1.1c-1.3 1-2.4 2.1-3.5 3.3s-2 2.6-2.8 4c-2.1 3.7-3.3 8-3.3 12.5 0 13.9 11.3 25.2 25.2 25.2s25.2-11.3 25.2-25.2c0-12.2-8.8-22.5-20.3-24.8-.6-.2-1.4-.3-2.2-.4zM51.9 195.4c13.9 0 25.2-11.3 25.2-25.2S65.8 145 51.9 145s-25.2 11.3-25.2 25.2 11.3 25.2 25.2 25.2z" style="fill:#f4511e" transform="translate(24.251 8.091) scale(.82124)"/><path d="M259.9 214.9c-20.8 0-38.3-14.3-43.3-33.5h-16.8c-5 19.2-22.5 33.5-43.3 33.5-2.4 0-4.7-.2-6.9-.5-5.8 8.9-12.7 17.1-20.8 24.7-14.3 13.5-30.5 23.5-48 29.8l-4.1 1.5-3.8-2c-21-10.8-31.8-32.7-28-53.9-2.4-.4-4.7-1-6.9-1.8-.4.7-.7 1.5-1.1 2.3-6.4 13.2-13.1 26.8-15.5 41.4-2.6 15.6-3.7 44.1 18.3 59.3 9.6 6.6 19.7 9.9 31 9.9 21.7 0 45.1-11.6 69.9-23.9 19.4-9.6 39.4-19.6 60.2-24.7 7.9-1.9 15.9-3.1 23.6-4.2 14.1-2 27.5-4 38.4-10.3 11.6-6.7 19.5-17.9 21.7-30.7 1.4-7.8.6-15.7-2-23-6.6 3.8-14.3 6.1-22.6 6.1z" style="fill:#f4511e" transform="translate(24.251 8.091) scale(.82124)"/></g></g></svg>