<svg xmlns="http://www.w3.org/2000/svg" xml:space="preserve" stroke-linejoin="round" stroke-miterlimit="1.414" clip-rule="evenodd" viewBox="0 0 24 24" class="svg material-folder-review-open" width="16" height="16" aria-hidden="true"><path fill="#e57373" d="M19 20H4a2 2 0 0 1-2-2V6c0-1.11.89-2 2-2h6l2 2h7c1.097 0 2 .903 2 2H4v10l2.14-8h17.07l-2.28 8.5c-.23.87-1.01 1.5-1.93 1.5z" style="fill:#2196f3"/><path d="M17.22 14.679a1.765 1.765 0 0 0-1.765 1.765 1.765 1.765 0 0 0 1.765 1.765 1.765 1.765 0 0 0 1.765-1.765 1.765 1.765 0 0 0-1.765-1.765m0 4.707a2.942 2.942 0 0 1-2.942-2.942 2.942 2.942 0 0 1 2.942-2.942 2.942 2.942 0 0 1 2.942 2.942 2.942 2.942 0 0 1-2.942 2.942m0-7.355a6.958 6.958 0 0 0-6.472 4.413 6.958 6.958 0 0 0 6.472 4.413 6.958 6.958 0 0 0 6.472-4.413 6.958 6.958 0 0 0-6.472-4.413z" style="fill:#bbdefb;stroke-width:.58837"/></svg>