<svg xmlns="http://www.w3.org/2000/svg" xml:space="preserve" viewBox="0 0 80 80" class="svg material-bun" width="16" height="16" aria-hidden="true"><g stroke-width=".919"><path fill="#fff3e0" d="M72.182 42.37c0 13.985-14.408 25.323-32.182 25.323S7.818 56.356 7.818 42.37c0-8.67 5.517-16.33 13.994-20.872 8.478-4.542 13.755-9.195 18.187-9.195s8.22 3.798 18.187 9.195C66.664 26.04 72.18 33.7 72.18 42.37z"/><path fill="#fbe9e7" d="M72.182 42.37a19.925 19.925 0 0 0-.736-5.315c-2.51 30.62-39.859 32.09-54.544 22.932A36.78 36.78 0 0 0 40 67.693c17.746 0 32.182-11.355 32.182-25.323z" data-name="Bottom Shadow"/><path fill="#fafafa" d="M27.615 19.815c4.11-2.464 9.572-7.09 14.941-7.098A8.542 8.542 0 0 0 40 12.303c-2.225 0-4.598 1.15-7.586 2.878-1.039.607-2.115 1.278-3.255 1.977-2.142 1.324-4.597 2.823-7.356 4.321C13.05 26.215 7.818 34.02 7.818 42.37v1.094C13.39 23.777 23.514 22.28 27.615 19.814z" data-name="Light Shine"/><path fill="#bcaaa4" fill-rule="evenodd" d="M37.352 14.629a15.089 15.089 0 0 1-5.177 11.466c-.257.23-.055.671.276.542 3.099-1.204 7.282-4.808 5.517-12.082-.074-.413-.616-.303-.616.074zm2.087 0a14.932 14.932 0 0 1 1.48 12.386c-.11.322.286.598.506.331 2.014-2.574 3.77-7.687-1.49-13.204-.266-.24-.68.129-.496.45zm2.538-.156a15.098 15.098 0 0 1 6.298 10.813.303.303 0 0 0 .598.1c.846-3.208.368-8.68-6.593-11.52-.367-.147-.606.35-.303.57zm-16.974 9.562a15.576 15.576 0 0 0 9.627-8.275c.166-.331.69-.202.607.166-1.59 7.355-6.915 8.89-10.225 8.689-.35.009-.34-.479-.01-.58z"/><path fill="#b71c1c" d="M46.483 49.082a8.211 8.211 0 0 1-2.685 4.33 6.262 6.262 0 0 1-3.678 1.73 6.29 6.29 0 0 1-3.797-1.73 8.211 8.211 0 0 1-2.648-4.33.662.662 0 0 1 .735-.745h11.346a.662.662 0 0 1 .727.745z"/><path fill="#ff5252" d="M36.322 53.487a6.354 6.354 0 0 0 3.788 1.747 6.354 6.354 0 0 0 3.78-1.747 9.774 9.774 0 0 0 .919-.984 6.28 6.28 0 0 0-4.506-2.124 5.655 5.655 0 0 0-4.597 2.556c.211.193.395.377.616.552z" data-name="Background"/><path fill="#37474f" d="M36.469 52.761a4.928 4.928 0 0 1 3.853-1.913A5.517 5.517 0 0 1 44 52.403c.211-.23.413-.469.606-.708a6.436 6.436 0 0 0-4.33-1.774 5.848 5.848 0 0 0-4.497 2.17 8.763 8.763 0 0 0 .69.671z" data-name="Outline"/><path fill="#37474f" d="M40.083 55.694a6.823 6.823 0 0 1-4.092-1.839 8.753 8.753 0 0 1-2.86-4.643 1.103 1.103 0 0 1 .24-.92 1.296 1.296 0 0 1 1.039-.469h11.346a1.324 1.324 0 0 1 1.039.47 1.094 1.094 0 0 1 .23.919 8.753 8.753 0 0 1-2.86 4.643 6.823 6.823 0 0 1-4.082 1.839zM34.41 48.89c-.147 0-.184.064-.193.083a7.622 7.622 0 0 0 2.51 4.018 5.728 5.728 0 0 0 3.356 1.609 5.774 5.774 0 0 0 3.356-1.59 7.632 7.632 0 0 0 2.501-4.019.193.193 0 0 0-.184-.083z" data-name="Outline"/><ellipse cx="53.994" cy="46.489" fill="#f8bbd0" data-name="Right Blush" rx="5.379" ry="3.163"/><ellipse cx="26.162" cy="46.489" fill="#f8bbd0" data-name="Left Bluch" rx="5.379" ry="3.163"/><path fill="#37474f" fill-rule="evenodd" d="M28.691 45.22a5.066 5.066 0 1 0-5.057-5.066 5.066 5.066 0 0 0 5.057 5.066zm22.776 0a5.066 5.066 0 1 0-5.03-5.066 5.057 5.057 0 0 0 5.03 5.066z"/><path fill="#fff" fill-rule="evenodd" d="M27.127 40.476a1.903 1.903 0 1 0-1.894-1.903 1.903 1.903 0 0 0 1.894 1.903zm22.776 0a1.903 1.903 0 1 0-1.894-1.903 1.903 1.903 0 0 0 1.876 1.903z"/></g></svg>