<svg xmlns="http://www.w3.org/2000/svg" xml:space="preserve" viewBox="0 0 512 512" class="svg material-ionic" width="16" height="16" aria-hidden="true"><g fill="#4f8ff7"><path d="M423.59 132.8a31.855 31.855 0 0 0 5.408-17.804c0-17.675-14.33-32-32-32a31.853 31.853 0 0 0-17.805 5.409c-34.486-25.394-77.085-40.409-123.2-40.409-114.88 0-208 93.125-208 208 0 114.88 93.125 208 208 208 114.87 0 208-93.123 208-208 0-46.111-15.016-88.71-40.408-123.2zm-31.762 259.03c-17.646 17.646-38.191 31.499-61.064 41.174-23.672 10.012-48.826 15.089-74.766 15.089s-51.095-5.077-74.767-15.089c-22.873-9.675-43.417-23.527-61.064-41.174s-31.5-38.191-41.174-61.064c-10.013-23.672-15.09-48.828-15.09-74.768s5.077-51.095 15.089-74.767c9.674-22.873 23.527-43.417 41.174-61.064s38.191-31.5 61.064-41.174c23.673-10.013 48.828-15.09 74.768-15.09 25.939 0 51.094 5.077 74.766 15.089a191.221 191.221 0 0 1 37.802 21.327 31.853 31.853 0 0 0-3.568 14.679c0 17.675 14.327 32 32 32 5.293 0 10.28-1.293 14.678-3.568a191.085 191.085 0 0 1 21.327 37.801c10.013 23.672 15.09 48.827 15.09 74.767 0 25.939-5.077 51.096-15.09 74.768-9.675 22.873-23.527 43.418-41.175 61.064z"/><circle cx="256" cy="256" r="96"/></g></svg>