<svg xmlns="http://www.w3.org/2000/svg" xml:space="preserve" stroke-linejoin="round" stroke-miterlimit="1.414" clip-rule="evenodd" viewBox="0 0 24 24" class="svg material-folder-pdf-open" width="16" height="16" aria-hidden="true"><path fill="#ef5350" d="M19 20H4a2 2 0 0 1-2-2V6c0-1.11.89-2 2-2h6l2 2h7c1.097 0 2 .903 2 2H4v10l2.14-8h17.07l-2.28 8.5c-.23.87-1.01 1.5-1.93 1.5z"/><path fill="#ffcdd2" d="M17.251 13.933a10.013 10.013 0 0 1-.69 1.637c-.135.258-.265.5-.336.704l.074-.028a12.451 12.451 0 0 1 2.272-.628 3.655 3.655 0 0 1-.285-.22c-.401-.347-.756-.85-1.035-1.465zm4.401 2.592c-.11.132-.319.203-.611.203-.52 0-1.345-.155-2.03-.502-1.186.123-2.06.285-2.751.51l-.125.048c-.845 1.443-1.47 2.087-2.022 2.087a.662.662 0 0 1-.299-.071l-.326-.214-.016-.036a.567.567 0 0 1-.036-.366c.072-.36.445-.928 1.28-1.44.129-.094.33-.206.605-.333.201-.355.419-.767.647-1.227.348-.697.564-1.39.739-1.988l-.003-.008c-.25-.824-.4-1.318-.149-2.22.075-.262.285-.527.54-.527h.161c.16 0 .303.058.413.167.448.448.243 1.541.015 2.444l-.024.096c.268.767.652 1.383 1.085 1.738.174.137.37.271.586.398.31-.034.607-.05.883-.05.843 0 1.35.152 1.548.466a.55.55 0 0 1 .084.375.652.652 0 0 1-.194.45zm.743-7.988h-9.517a1.36 1.36 0 0 0-1.36 1.36v9.518c0 .75.608 1.36 1.36 1.36h9.517c.75 0 1.36-.61 1.36-1.36V9.897c0-.751-.61-1.36-1.36-1.36zm-1.01 7.508c-.076-.072-.355-.242-1.304-.242-.047 0-.094 0-.156.068.502.218.984.348 1.293.348a.896.896 0 0 0 .133-.01l.023-.004c.033-.01.055-.021.061-.088-.01-.017-.025-.043-.05-.072zm-6.244.989a2.615 2.615 0 0 0-.323.214c-.487.441-.789.887-.826 1.15.309-.106.709-.552 1.15-1.364zm2.05-4.695.038-.025c.05-.22.082-.409.109-.56l.02-.11c.066-.368.058-.58-.066-.745l-.1-.034c-.013.02-.033.049-.046.08-.113.282-.11.781.046 1.394z"/></svg>