<svg xmlns="http://www.w3.org/2000/svg" viewBox="0 0 24 24" class="svg material-python" width="16" height="16" aria-hidden="true"><path fill="#3c78aa" d="M9.86 2A2.86 2.86 0 0 0 7 4.86v1.68h4.29c.39 0 .71.57.71.96H4.86A2.86 2.86 0 0 0 2 10.36v3.781a2.86 2.86 0 0 0 2.86 2.86h1.18v-2.68a2.85 2.85 0 0 1 2.85-2.86h5.25c1.58 0 2.86-1.271 2.86-2.851V4.86A2.86 2.86 0 0 0 14.14 2zm-.72 1.61c.4 0 .72.12.72.71s-.32.891-.72.891c-.39 0-.71-.3-.71-.89s.32-.711.71-.711z"/><path fill="#fdd835" d="M17.959 7v2.68a2.85 2.85 0 0 1-2.85 2.859H9.86A2.85 2.85 0 0 0 7 15.389v3.75a2.86 2.86 0 0 0 2.86 2.86h4.28A2.86 2.86 0 0 0 17 19.14v-1.68h-4.291c-.39 0-.709-.57-.709-.96h7.14A2.86 2.86 0 0 0 22 13.64V9.86A2.86 2.86 0 0 0 19.14 7zM8.32 11.513l-.004.004c.012-.002.025-.001.038-.004zm6.54 7.276c.39 0 .71.3.71.89a.71.71 0 0 1-.71.71c-.4 0-.72-.12-.72-.71s.32-.89.72-.89z"/></svg>