<svg xmlns="http://www.w3.org/2000/svg" viewBox="0 0 24 24" class="svg material-robot" width="16" height="16" aria-hidden="true"><path d="M56.674 87.412c0 6.53 5.307 11.838 11.827 11.838 6.527 0 11.835-5.308 11.835-11.838a4.295 4.295 0 0 0-4.293-4.301 4.295 4.295 0 0 0-4.293 4.301 3.243 3.243 0 0 1-3.248 3.235 3.242 3.242 0 0 1-3.241-3.235 4.294 4.294 0 1 0-8.586 0m48.999-19.891a4.294 4.294 0 0 0-4.293-4.301H61.548a4.294 4.294 0 0 0-4.293 4.301 4.295 4.295 0 0 0 4.293 4.302h39.833a4.295 4.295 0 0 0 4.293-4.302M87.06 85.002a4.296 4.296 0 0 0 1.16 5.965l9.957 6.727c1.952 1.357 4.636.808 5.963-1.145a4.296 4.296 0 0 0-1.16-5.965l-9.957-6.726a4.223 4.223 0 0 0-2.395-.748 4.32 4.32 0 0 0-3.568 1.892m27.268-26.448c0-.812-.323-1.591-.898-2.167l-7.4-7.403a3.067 3.067 0 0 0-2.168-.897H58.486c-.813 0-1.592.323-2.167.897l-7.4 7.403a3.067 3.067 0 0 0-.898 2.167v45.36c0 .814.323 1.593.897 2.167l7.401 7.404a3.066 3.066 0 0 0 2.167.897h45.377c.814 0 1.593-.323 2.167-.897l7.401-7.404a3.062 3.062 0 0 0 .898-2.167zm6.299 52.479-9.663 9.665a7.808 7.808 0 0 1-5.52 2.288H56.896a7.807 7.807 0 0 1-5.522-2.29l-9.656-9.664a7.81 7.81 0 0 1-2.285-5.521V56.959a7.81 7.81 0 0 1 2.287-5.523l9.662-9.665a7.806 7.806 0 0 1 5.521-2.287h48.54a7.81 7.81 0 0 1 5.521 2.287l9.663 9.665a7.808 7.808 0 0 1 2.287 5.523v48.55a7.811 7.811 0 0 1-2.287 5.524" style="fill:#00bfa5" transform="matrix(.22332 0 0 -.22326 -6.127 30.137)"/></svg>