<svg xmlns="http://www.w3.org/2000/svg" xml:space="preserve" style="clip-rule:evenodd;fill-rule:evenodd;stroke-linejoin:round;stroke-miterlimit:2" viewBox="0 0 24 24" class="svg material-folder-scala-open" width="16" height="16" aria-hidden="true"><path d="M19 20H4a2 2 0 0 1-2-2V6c0-1.11.89-2 2-2h6l2 2h7c1.097 0 2 .903 2 2H4v10l2.14-8h17.07l-2.28 8.5c-.23.87-1.01 1.5-1.93 1.5z" style="fill-rule:nonzero;fill:#f44336"/><path d="m20.732 9 .001 2.79a.105.105 0 0 1-.022.064.787.787 0 0 1-.389.351c-.15.067-.865.484-3.126.794-1.956.268-3.017.41-3.519.487-.448.069-.409.133-.409.133v-2.736a.1.1 0 0 1 .077-.098c.136-.037.48-.116 1.232-.205 1.519-.18 3.36-.464 4.801-.817C20.741 9.43 20.732 9 20.732 9zm0 3.763.001 2.79a.103.103 0 0 1-.022.063.787.787 0 0 1-.389.351c-.15.067-.865.484-3.126.795-1.956.268-3.017.409-3.519.486-.448.069-.409.133-.409.133v-2.735a.1.1 0 0 1 .077-.098c.136-.038.48-.116 1.232-.205 1.519-.18 3.36-.465 4.801-.817 1.363-.333 1.354-.763 1.354-.763zm0 3.618.001 2.791a.103.103 0 0 1-.022.063.787.787 0 0 1-.389.351c-.15.067-.865.484-3.126.794-1.956.269-3.017.41-3.519.487-.448.069-.409.133-.409.133v-2.736a.1.1 0 0 1 .077-.098c.136-.037.48-.116 1.232-.205 1.519-.179 3.36-.464 4.801-.816 1.363-.334 1.354-.764 1.354-.764z" style="fill:#ffcdd2" transform="translate(.028 .028)"/></svg>