<svg xmlns="http://www.w3.org/2000/svg" xml:space="preserve" stroke-linejoin="round" stroke-miterlimit="1.414" clip-rule="evenodd" viewBox="0 0 24 24" class="svg material-folder-private-open" width="16" height="16" aria-hidden="true"><path fill="#e57373" d="M19 20H4a2 2 0 0 1-2-2V6c0-1.11.89-2 2-2h6l2 2h7c1.097 0 2 .903 2 2H4v10l2.14-8h17.07l-2.28 8.5c-.23.87-1.01 1.5-1.93 1.5z" style="fill:#ff5252"/><path d="M17.249 9.26a5.945 5.945 0 0 0-5.943 5.944 5.945 5.945 0 0 0 5.943 5.943 5.945 5.945 0 0 0 5.943-5.943 5.945 5.945 0 0 0-5.943-5.943zm0 10.698a4.753 4.753 0 0 1-4.754-4.755c0-1.1.374-2.11 1.004-2.912l6.662 6.662a4.696 4.696 0 0 1-2.912 1.005zm3.75-1.843-6.662-6.662a4.696 4.696 0 0 1 2.912-1.004 4.753 4.753 0 0 1 4.754 4.754c0 1.1-.374 2.11-1.004 2.912z" style="fill:#ffcdd2;stroke-width:.59431"/></svg>