<svg xmlns="http://www.w3.org/2000/svg" xml:space="preserve" stroke-linejoin="round" stroke-miterlimit="1.414" clip-rule="evenodd" viewBox="0 0 24 24" class="svg material-folder-typescript-open" width="16" height="16" aria-hidden="true"><path fill="#ffca28" d="M19 20H4a2 2 0 0 1-2-2V6c0-1.11.89-2 2-2h6l2 2h7c1.097 0 2 .903 2 2H4v10l2.14-8h17.07l-2.28 8.5c-.23.87-1.01 1.5-1.93 1.5z" style="fill:#0288d1"/><g style="fill:#90caf9"><g style="clip-rule:evenodd;fill-rule:evenodd;fill:#90caf9;stroke-linejoin:round;stroke-miterlimit:1.414"><path d="M290.43 246.08c-.134 0-.257.003-.349.012-.719.062-1.39.376-1.85.865-.23.245-.439.596-.54.91-.113.346-.112.34-.112.882 0 .693.036.864.272 1.325.237.464.598.842 1.12 1.173.228.146.813.437 1.29.644 1.04.45 1.369.658 1.521.961l.063.125v.262c0 .253 0 .266-.052.37-.117.241-.394.439-.749.534-.134.036-.195.041-.495.041-.293 0-.364-.006-.499-.04a1.915 1.915 0 0 1-.586-.243c-.19-.125-.562-.5-.713-.72-.067-.096-.134-.175-.149-.175-.025 0-1.308.733-1.532.876-.075.048-.094.07-.094.108 0 .08.3.533.534.808.479.56 1.438 1.055 2.288 1.179.336.048.893.064 1.283.036a3.86 3.86 0 0 0 .791-.149c1.004-.294 1.689-.92 1.942-1.774a3.18 3.18 0 0 0 .111-1.138c-.07-.742-.298-1.267-.748-1.72-.418-.423-.991-.762-2.124-1.259-.982-.43-1.238-.598-1.38-.9-.122-.261-.098-.62.055-.844.18-.261.547-.39.957-.336.38.05.626.201.868.532.125.171.212.26.253.26.042 0 .219-.109.768-.474.56-.371.736-.497.748-.535.019-.059-.07-.197-.326-.511-.515-.632-1.12-.968-1.898-1.052a6.91 6.91 0 0 0-.668-.033zm-6.186.107h-1.574c-3.038.004-3.744.009-3.763.028-.018.019-.023.205-.023.9v.877l1.382.005 1.381.005v3.91c0 2.152.006 3.93.012 3.952l.01.04h1.005c.899 0 1.005-.001 1.015-.028.006-.015.01-1.793.01-3.951v-3.923l1.382-.005 1.381-.005v-.887c0-.769-.003-.89-.027-.904-.012-.008-.806-.013-2.19-.014z" style="fill:#90caf9;stroke-width:.018001" transform="matrix(.9358 0 0 .93581 -251.847 -218.702)"/></g></g></svg>