<svg xmlns="http://www.w3.org/2000/svg" xml:space="preserve" fill-rule="evenodd" stroke-linejoin="round" stroke-miterlimit="1.414" clip-rule="evenodd" viewBox="0 0 24 24" class="svg material-folder-temp" width="16" height="16" aria-hidden="true"><path fill="#0097a7" fill-rule="nonzero" d="M10 4H4c-1.11 0-2 .89-2 2v12c0 1.097.903 2 2 2h16c1.097 0 2-.903 2-2V8a2 2 0 0 0-2-2h-8l-2-2z"/><path fill="#b2ebf2" stroke="#b2ebf2" stroke-miterlimit="4" stroke-width=".271" d="M17.651 19.894a4.761 4.761 0 0 0 4.761-4.761 4.761 4.761 0 0 0-4.761-4.761 4.761 4.761 0 0 0-4.761 4.76 4.761 4.761 0 0 0 4.761 4.762m0-10.713a5.952 5.952 0 0 1 5.952 5.952 5.952 5.952 0 0 1-5.952 5.951 5.957 5.957 0 0 1-5.952-5.952 5.952 5.952 0 0 1 5.952-5.951m.298 2.976v3.124l2.678 1.59-.447.731-3.124-1.874v-3.571z"/></svg>