<svg xmlns="http://www.w3.org/2000/svg" fill-rule="evenodd" stroke-linejoin="round" stroke-miterlimit="1.414" clip-rule="evenodd" viewBox="0 0 24 24" class="svg material-folder-mappings-open" width="16" height="16" aria-hidden="true"><path fill="#DCE775" d="M19 20H4a2 2 0 0 1-2-2V6c0-1.11.89-2 2-2h6l2 2h7c1.097 0 2 .903 2 2H4v10l2.14-8h17.07l-2.28 8.5c-.23.87-1.01 1.5-1.93 1.5z" style="fill:#afb42b"/><path d="M21.589 10.926v8.28h-8.28v-8.28h8.28m.65-1.183h-9.58a.53.53 0 0 0-.532.532v9.58c0 .237.236.533.532.533h9.58c.237 0 .533-.296.533-.532v-9.58c0-.297-.296-.533-.532-.533zm-5.382 2.365h3.549v1.183h-3.549zm0 2.366h3.549v1.183h-3.549zm0 2.366h3.549v1.183h-3.549zm-2.365-4.732h1.183v1.183h-1.183zm0 2.366h1.183v1.183h-1.183zm0 2.366h1.183v1.183h-1.183z" style="fill:#f0f4c3;stroke-width:1.0138"/></svg>