<svg xmlns="http://www.w3.org/2000/svg" xml:space="preserve" stroke-linejoin="round" stroke-miterlimit="1.414" clip-rule="evenodd" viewBox="0 0 24 24" class="svg material-folder-import-open" width="16" height="16" aria-hidden="true"><path fill="#039be5" d="M19 20H4a2 2 0 0 1-2-2V6c0-1.11.89-2 2-2h6l2 2h7c1.097 0 2 .903 2 2H4v10l2.14-8h17.07l-2.28 8.5c-.23.87-1.01 1.5-1.93 1.5z" style="fill:#afb42b"/><path d="M20.62 15.706h-2.434v2.434H16.97v-2.434h-2.434v-1.217h2.434v-2.434h1.217v2.434h2.434m-3.042-5.476a6.085 6.085 0 0 0-6.085 6.084 6.085 6.085 0 0 0 6.085 6.085 6.085 6.085 0 0 0 6.084-6.085 6.085 6.085 0 0 0-6.084-6.084z" style="fill:#f0f4c3;stroke-width:.60845"/></svg>