<svg xmlns="http://www.w3.org/2000/svg" fill-rule="evenodd" stroke-linejoin="round" stroke-miterlimit="1.414" clip-rule="evenodd" viewBox="0 0 24 24" class="svg material-folder-core-open" width="16" height="16" aria-hidden="true"><path fill="#1976D2" d="M19 20H4a2 2 0 0 1-2-2V6c0-1.11.89-2 2-2h6l2 2h7c1.097 0 2 .903 2 2H4v10l2.14-8h17.07l-2.28 8.5c-.23.87-1.01 1.5-1.93 1.5z"/><path d="M11.47 10.422h1.29v-1.29c-.71 0-1.29.58-1.29 1.29zm0 5.158h1.29v-1.29h-1.29zm2.58 5.16h1.29v-1.29h-1.29zM11.47 13h1.29v-1.288h-1.29zm6.45-3.868h-1.291v1.29h1.29zm3.869 0v1.29h1.289c0-.71-.58-1.29-1.29-1.29zM12.76 20.74v-1.29h-1.29c0 .71.58 1.29 1.29 1.29zm-1.29-2.58h1.29v-1.288h-1.29zm3.87-9.028h-1.29v1.29h1.29zm1.289 11.608h1.29v-1.29h-1.29zm5.16-5.159h1.289v-1.29h-1.29zm0 5.159c.708 0 1.289-.58 1.289-1.29h-1.29zm0-7.739h1.289v-1.289h-1.29zm0 5.159h1.289v-1.288h-1.29zm-2.58 2.58h1.29v-1.29h-1.29zm0-10.318h1.29v-1.29h-1.29zM14.05 18.16h6.449v-6.448h-6.45zm1.29-5.158h3.869v3.869H15.34z" style="fill:#bbdefb;stroke-width:1.0094"/></svg>