<svg xmlns="http://www.w3.org/2000/svg" viewBox="0 0 24 24" class="svg material-slug" width="16" height="16" aria-hidden="true"><path fill="#f9a825" d="m9.164 21.221-.983-.056c-3.402-.19-5.654-.714-6.125-1.427-.136-.205-.146-.515-.022-.681.115-.154.377-.28.744-.355l.313-.064.373.122c1.568.517 2.903.589 4.875.263.82-.135 1.26-.29 1.736-.613.183-.124.26-.152.413-.152.62-.002 1.581-.168 2.066-.357 1.392-.544 2.655-2.023 2.979-3.49.159-.717.072-1.83-.211-2.693l-.13-.397.028-.747c.023-.606.047-.818.126-1.123.29-1.108.991-1.878 1.957-2.145.374-.103 1.17-.093 1.589.02a3.336 3.336 0 0 1 1.595.941c.505.548.707 1.025.735 1.738.021.55-.034.809-.283 1.316-.211.43-.542.833-.909 1.107-.15.113-.302.23-.336.26-.052.046-.067.192-.087.837-.014.43-.053.986-.086 1.235-.458 3.354-2.234 5.421-5.307 6.174-1.023.25-1.37.283-3.183.292-.908.005-1.748.002-1.867-.005zm-3.967-2.877-.45-.07-.3-.322c-1.514-1.613-2.085-4.002-1.43-5.98.646-1.953 2.32-3.39 4.496-3.86.557-.121 1.912-.133 2.437-.023a6.687 6.687 0 0 1 1.631.56c1.828.904 2.982 2.495 3.205 4.421.111.955-.13 1.793-.763 2.651-.712.966-1.618 1.525-2.681 1.654l-.233.028.267-.277c.475-.495.596-.93.596-2.15 0-.683-.011-.831-.087-1.134-.182-.721-.476-1.239-.967-1.705-.643-.611-1.44-.923-2.349-.92-1.295.005-2.196.828-2.196 2.006 0 .398.069.695.24 1.033.135.269.446.62.68.769.368.233.984.35 1.195.225a.387.387 0 0 0 .096-.61c-.09-.101-.15-.126-.364-.154-.337-.043-.437-.086-.642-.275-.26-.239-.395-.57-.397-.964-.002-.269.014-.348.11-.543.133-.27.396-.497.703-.603.327-.114.98-.096 1.386.038.854.281 1.456.918 1.699 1.797.054.196.07.401.07.903 0 .57-.011.683-.092.941-.103.327-.31.758-.488 1.019-.295.429-.853.927-1.283 1.144-.691.348-2.98.573-4.09.4zM19.199 6.578l-.244-.078.14-.4c.537-1.544 1.334-2.521 2.057-2.521.567 0 1.043.588.862 1.067-.045.12-.244.345-.37.419-.044.025-.31.054-.597.065-.497.019-.524.024-.688.139-.221.154-.503.575-.69 1.03-.081.2-.166.361-.188.36a3.193 3.193 0 0 1-.282-.081zm-2.185-.06c-.068-.115-.127-.837-.126-1.545.001-.639.015-.863.07-1.08.194-.765.529-1.121 1.055-1.121.588 0 .932.42.782.957-.072.258-.183.365-.591.568-.312.155-.394.216-.496.369-.176.262-.228.59-.2 1.253l.023.538-.165.027c-.09.014-.202.035-.249.047-.046.011-.092.006-.103-.012z"/></svg>