<svg xmlns="http://www.w3.org/2000/svg" xml:space="preserve" stroke-linejoin="round" stroke-miterlimit="1.414" clip-rule="evenodd" viewBox="0 0 24 24" class="svg material-folder-cart-open" width="16" height="16" aria-hidden="true"><path fill="#e57373" d="M19 20H4a2 2 0 0 1-2-2V6c0-1.11.89-2 2-2h6l2 2h7c1.097 0 2 .903 2 2H4v10l2.14-8h17.07l-2.28 8.5c-.23.87-1.01 1.5-1.93 1.5z" style="fill:#009688"/><path d="M21.275 18.517c-.678 0-1.222.544-1.222 1.222a1.222 1.222 0 0 0 1.222 1.222 1.222 1.222 0 0 0 1.222-1.222c0-.678-.55-1.222-1.222-1.222M11.5 8.742v1.222h1.222l2.2 4.637-.832 1.497a1.245 1.245 0 0 0-.146.586 1.222 1.222 0 0 0 1.222 1.222h7.33v-1.222h-7.074a.153.153 0 0 1-.153-.153.13.13 0 0 1 .019-.073l.55-.996h4.551a1.23 1.23 0 0 0 1.07-.629l2.186-3.953a.773.773 0 0 0 .074-.305.61.61 0 0 0-.611-.611h-9.036l-.574-1.222m1.668 9.775c-.679 0-1.222.544-1.222 1.222a1.222 1.222 0 0 0 1.222 1.222 1.222 1.222 0 0 0 1.222-1.222c0-.678-.55-1.222-1.222-1.222z" style="fill:#b2dfdb;stroke-width:.61094"/></svg>