<svg xmlns="http://www.w3.org/2000/svg" viewBox="0 0 24 24" class="svg material-husky" width="16" height="16" aria-hidden="true"><path d="M13.083 2.937c1.003.4 1.4 1.98.875 3.539-.519 1.552-1.745 2.497-2.752 2.104-1-.389-1.404-1.972-.888-3.536.512-1.557 1.753-2.493 2.765-2.107m5.61 3.239c.848.688.65 2.227-.426 3.457-1.105 1.225-2.67 1.67-3.514.995-.853-.68-.647-2.215.445-3.436 1.09-1.234 2.654-1.68 3.495-1.016M6.801 4.122c1.117.132 1.93 1.533 1.863 3.116-.12 1.584-1.075 2.769-2.184 2.641-1.108-.127-1.918-1.515-1.827-3.105.092-1.59 1.068-2.773 2.148-2.652m14.124 8.155c.646.875.11 2.312-1.222 3.186s-2.938.867-3.603-.03c-.664-.896-.116-2.316 1.196-3.212 1.338-.849 2.957-.845 3.63.056m-6.195 7.702c-.394.756-1.43 1.245-2.282 1.162-1.776-.168-2.67-2.462-4.23-3.364-1.562-.901-4.043-.482-5.02-1.977-.564-.838-.516-2.17.075-2.959.816-1.088 2.583-.904 3.909-1.28 1.745-.467 3.73-2.093 5.308-1.183 1.569.906 1.218 3.434 1.62 5.184.319 1.46 1.304 3.106.62 4.417z" style="fill:#90a4ae;stroke-width:.90605"/></svg>