<svg xmlns="http://www.w3.org/2000/svg" xml:space="preserve" fill-rule="evenodd" stroke-linejoin="round" stroke-miterlimit="1.414" clip-rule="evenodd" viewBox="0 0 24 24" class="svg material-folder-debug" width="16" height="16" aria-hidden="true"><path fill="#e57373" fill-rule="nonzero" d="M10 4H4c-1.11 0-2 .89-2 2v12c0 1.097.903 2 2 2h16c1.097 0 2-.903 2-2V8a2 2 0 0 0-2-2h-8l-2-2z" style="fill:#f9a825"/><path d="M19.262 15.092h-3.063v-1.531h3.063m0 4.594h-3.063v-1.531h3.063m4.594-4.595h-2.151a4.582 4.582 0 0 0-1.394-1.5l1.248-1.249-1.08-1.08-1.661 1.662a4.595 4.595 0 0 0-2.167 0l-1.67-1.661-1.08 1.08 1.241 1.247a4.64 4.64 0 0 0-1.386 1.501h-2.151v1.532h1.6a5.082 5.082 0 0 0-.069.765v.766h-1.531v1.531h1.531v.766c0 .26.03.513.069.766h-1.6v1.531h2.151c.797 1.37 2.275 2.297 3.975 2.297s3.177-.926 3.974-2.297h2.151v-1.531h-1.6c.038-.253.069-.506.069-.766v-.766h1.531v-1.531h-1.531v-.766c0-.26-.03-.513-.069-.765h1.6z" style="fill:#fff9c4;stroke-width:.76571"/></svg>