<svg xmlns="http://www.w3.org/2000/svg" viewBox="0 0 24 24" class="svg material-kl" width="16" height="16" aria-hidden="true"><path d="M12 1.703c-.25-.002-.5.11-.729.338a5355.467 5355.467 0 0 0-9.226 9.235c-.144.144-.229.347-.341.522v.41c.16.223.294.474.485.666a3259.51 3259.51 0 0 0 8.936 8.937c.193.192.443.325.666.486h.41c.205-.142.436-.256.609-.429 3.046-3.04 6.09-6.082 9.133-9.126.47-.47.472-1.005.006-1.472L12.73 2.052c-.23-.23-.48-.346-.731-.349zM10.938 6.25l1.386.832c.702.422 1.403.845 2.109 1.262a.544.544 0 0 1 .04.026l.016.013.017.013c.061.056.089.122.088.224a510.281 510.281 0 0 0 0 3.793.463.463 0 0 1-.007.094c-.015.07-.054.104-.142.11a.464.464 0 0 1-.044.001l-.136-.003c-.323-.005-.648 0-.998 0v-2.543l.004-.668c0-.146-.039-.23-.17-.307-.893-.528-1.78-1.067-2.67-1.6-.051-.03-.101-.065-.173-.112l.001-.002-.001-.001zm.362 3.39c.068-.003.119.042.173.138.085.147.174.293.264.439l.015.025c.096.155.194.31.292.47l-1.915 1.176c-.337.208-.673.418-1.014.618-.113.066-.154.143-.154.277.01.977.01 1.954.014 2.932v.253H7.664c-.004-.054-.014-.112-.014-.17-.005-1.25-.006-2.502-.015-3.752 0-.14.045-.22.164-.293a467.13 467.13 0 0 0 3.353-2.055l.016-.009a.606.606 0 0 1 .032-.018l.016-.007a.308.308 0 0 1 .033-.013l.012-.004a.157.157 0 0 1 .028-.005l.01-.002zm5.677 3.125.314.54.346.595v.001c-.158.094-.298.177-.438.258l-3.097 1.798c-.106.062-.189.072-.3.01l-.893-.495-1.524-.843-.895-.493c-.035-.02-.068-.044-.129-.085h.001v-.001l.137-.25.495-.902 1.446.795c.442.244.886.484 1.323.735.121.069.212.071.334 0 .894-.526 1.792-1.044 2.689-1.563.057-.034.118-.062.191-.1z" style="fill:#29b6f6;stroke-width:.041008"/></svg>