<svg xmlns="http://www.w3.org/2000/svg" viewBox="0 0 24 24" class="svg material-groovy" width="16" height="16" aria-hidden="true"><path fill="#26c6da" d="M12 1.88A10.119 10.119 0 0 0 1.881 12 10.119 10.119 0 0 0 12 22.119a10.119 10.119 0 0 0 10.119-10.12A10.119 10.119 0 0 0 12 1.882zm1.254 2.423c.91 0 1.647.26 2.213.78.571.517.857 1.188.857 2.013 0 .888-.319 1.672-.959 2.35-.64.676-1.376 1.015-2.207 1.015-.486 0-.89-.12-1.213-.357-.317-.238-.476-.532-.476-.881 0-.212.06-.399.181-.563.127-.164.274-.246.438-.246.159 0 .238.092.238.277 0 .164.06.291.182.381.122.09.261.135.42.135.423 0 .828-.289 1.215-.865.391-.582.587-1.202.587-1.863 0-.466-.151-.844-.453-1.135-.301-.296-.69-.446-1.166-.446-.714 0-1.406.319-2.078.954-.666.634-1.211 1.469-1.635 2.505-.417 1.032-.627 2.015-.627 2.946 0 .857.185 1.539.555 2.047.37.502.863.754 1.477.754 1.037 0 2.028-.734 2.974-2.2l1.493-.213c.185-.026.277.019.277.135 0 .053-.072.28-.215.682-.143.402-.337 1.074-.586 2.016.82-.477 1.455-1.004 1.904-1.58v.913c-.36.418-1.046.889-2.062 1.413-.212 1.407-.682 2.492-1.406 3.26-.725.772-1.54 1.16-2.444 1.16-.433 0-.774-.102-1.023-.303-.243-.201-.365-.478-.365-.832 0-.984.955-1.94 2.865-2.865a42.97 42.97 0 0 1 .586-1.928c-.333.481-.817.907-1.451 1.277-.635.37-1.225.555-1.77.555-.889 0-1.628-.384-2.22-1.15-.588-.773-.881-1.749-.881-2.928 0-1.243.333-2.42 1-3.532a7.747 7.747 0 0 1 2.625-2.673c1.084-.672 2.134-1.008 3.15-1.008zM12.03 16.49c-1.375.687-2.062 1.365-2.062 2.031 0 .354.169.533.508.533.666 0 1.184-.856 1.554-2.564z"/></svg>