<svg xmlns="http://www.w3.org/2000/svg" xml:space="preserve" fill-rule="evenodd" stroke-linejoin="round" stroke-miterlimit="1.414" clip-rule="evenodd" viewBox="0 0 24 24" class="svg material-folder-apollo" width="16" height="16" aria-hidden="true"><path fill="#7e57c2" fill-rule="nonzero" d="M10 4H4c-1.11 0-2 .89-2 2v12c0 1.097.903 2 2 2h16c1.097 0 2-.903 2-2V8a2 2 0 0 0-2-2h-8l-2-2z"/><path fill="#d1c4e9" d="M17.265 8.493a6.433 6.433 0 1 0 6.197 4.698h-.002a.321.321 0 0 0-.015-.057c-.002-.007-.009-.02-.009-.02a.321.321 0 0 0-.29-.186.322.322 0 0 0-.323.32.32.32 0 0 0 .018.104l-.001.001a5.813 5.813 0 0 1 .214 1.573 5.752 5.752 0 0 1-1.695 4.094 5.752 5.752 0 0 1-4.094 1.695 5.752 5.752 0 0 1-4.095-1.695 5.753 5.753 0 0 1-1.696-4.094c0-1.547.603-3.001 1.696-4.095a5.751 5.751 0 0 1 4.095-1.695c1.38 0 2.687.48 3.73 1.362a.786.786 0 0 0-.054.288.786.786 0 1 0 .517-.739 6.408 6.408 0 0 0-4.193-1.554zm-.813 2.999-2.37 6.15h1.486l.387-1.042h2.239l-.405-1.153h-1.475l.96-2.645 1.705 4.84h1.484l-2.37-6.15z"/></svg>