<svg xmlns="http://www.w3.org/2000/svg" xml:space="preserve" fill-rule="evenodd" stroke-linejoin="round" stroke-miterlimit="1.414" clip-rule="evenodd" viewBox="0 0 24 24" class="svg material-folder-generator" width="16" height="16" aria-hidden="true"><path fill="#0288d1" fill-rule="nonzero" d="M10 4H4c-1.11 0-2 .89-2 2v12c0 1.097.903 2 2 2h16c1.097 0 2-.903 2-2V8a2 2 0 0 0-2-2h-8l-2-2z" style="fill:#ef5350"/><path fill="#b3e5fc" stroke="#b3e5fc" stroke-width=".29" d="M17.813 11.575v1.951l2.602-2.601-2.602-2.602v1.951a5.203 5.203 0 0 0-5.203 5.204c0 1.02.299 1.97.806 2.77l.95-.95a3.838 3.838 0 0 1-.456-1.82 3.903 3.903 0 0 1 3.903-3.903m4.397 1.132-.95.95a3.92 3.92 0 0 1 .456 1.82 3.903 3.903 0 0 1-3.903 3.903v-1.95l-2.602 2.602 2.602 2.601v-1.951a5.203 5.203 0 0 0 5.203-5.204c0-1.02-.299-1.97-.806-2.77z" style="fill:#ffcdd2;stroke:#ffcdd2"/></svg>