<svg xmlns="http://www.w3.org/2000/svg" xml:space="preserve" viewBox="0 0 511.875 511.824" class="svg material-racket" width="16" height="16" aria-hidden="true"><path d="M455.4 412.2c33.792-43.021 53.946-97.262 53.946-156.21 0-139.78-113.31-253.09-253.09-253.09-30.406 0-59.558 5.367-86.566 15.197 102.75 53.899 238.66 229.75 285.71 394.11z" style="fill:#0288d1" transform="translate(49.76 49.948) scale(.80459)"/><path d="M220 164.34c-39.481-42.533-83.695-76.312-130.52-98.715-52.907 46.389-86.321 114.47-86.321 190.36 0 63.814 23.626 122.1 62.597 166.62 34.355-103.22 98.941-202.7 154.25-258.27zm46.64 57.39c-54.792 59.051-109.39 162.42-129.15 257.79 35.419 18.857 75.84 29.559 118.77 29.559 44.132 0 85.618-11.306 121.74-31.163-20.821-96.205-60.124-184.31-111.35-256.19z" style="fill:#e53935" transform="translate(49.76 49.948) scale(.80459)"/></svg>