<svg xmlns="http://www.w3.org/2000/svg" xml:space="preserve" stroke-linejoin="round" stroke-miterlimit="1.414" clip-rule="evenodd" viewBox="0 0 24 24" class="svg material-folder-expo-open" width="16" height="16" aria-hidden="true"><path fill="#01579b" d="M19 20H4a2 2 0 0 1-2-2V6c0-1.11.89-2 2-2h6l2 2h7c1.097 0 2 .903 2 2H4v10l2.14-8h17.07l-2.28 8.5c-.23.87-1.01 1.5-1.93 1.5z" style="fill:#1976d2"/><path fill="#1173b6" fill-rule="evenodd" d="M58.827-101.24c-.489-.745-.605-.844-1.6-.844h-.024c-.996 0-1.106.099-1.601.844-.46.699-5.024 9.058-5.024 9.291 0 .338.087.658.402 1.112.32.46.873.716 1.275.309.273-.274 3.201-5.321 4.616-7.23a.425.425 0 0 1 .693 0c1.414 1.909 4.343 6.956 4.616 7.23.402.407.955.15 1.275-.309.314-.454.402-.774.402-1.112-.006-.233-4.57-8.598-5.03-9.291z" class="material-folder-expo-open__st0" style="fill:#bbdefb" transform="translate(-40.252 111.06)"/></svg>