<svg xmlns="http://www.w3.org/2000/svg" xml:space="preserve" stroke-linejoin="round" stroke-miterlimit="1.414" clip-rule="evenodd" viewBox="0 0 24 24" class="svg material-folder-tasks-open" width="16" height="16" aria-hidden="true"><path fill="#e57373" d="M19 20H4a2 2 0 0 1-2-2V6c0-1.11.89-2 2-2h6l2 2h7c1.097 0 2 .903 2 2H4v10l2.14-8h17.07l-2.28 8.5c-.23.87-1.01 1.5-1.93 1.5z" style="fill:#5c6bc0"/><path d="M21.981 19.546H13.36v-6.774h8.621m0-3.08h-.616v-1.23h-1.231v1.23h-4.927v-1.23h-1.232v1.23h-.615c-.684 0-1.232.555-1.232 1.232v8.622a1.232 1.232 0 0 0 1.232 1.232h8.621a1.232 1.232 0 0 0 1.232-1.232v-8.621a1.232 1.232 0 0 0-1.232-1.232m-1.521 4.963-.653-.652-3.005 3.005-1.306-1.306-.652.653 1.958 1.958z" style="fill:#c5cae9;stroke-width:.61582"/></svg>