<svg xmlns="http://www.w3.org/2000/svg" fill-rule="evenodd" stroke-linejoin="round" stroke-miterlimit="1.414" clip-rule="evenodd" viewBox="0 0 24 24" class="svg material-folder-stack" width="16" height="16" aria-hidden="true"><path fill="#FFA726" fill-rule="nonzero" d="M10 4H4c-1.11 0-2 .89-2 2v12c0 1.097.903 2 2 2h16c1.097 0 2-.903 2-2V8a2 2 0 0 0-2-2h-8l-2-2z"/><path d="M23.651 13.415v-1.223h-1.2V10.97c0-.672-.54-1.222-1.2-1.222h-8.4c-.66 0-1.2.55-1.2 1.222v8.556c0 .672.54 1.222 1.2 1.222h8.4c.66 0 1.2-.55 1.2-1.222v-1.222h1.2v-1.223h-1.2v-1.222h1.2v-1.221h-1.2v-1.222zm-2.4 6.11h-8.4V10.97h8.4zm-7.2-3.666h3v2.445h-3zm3.6-3.667h2.4v1.834h-2.4zm-3.6 0h3v3.056h-3zm3.6 2.445h2.4v3.667h-2.4z" style="fill:#ffe0b2"/></svg>