<svg xmlns="http://www.w3.org/2000/svg" xml:space="preserve" fill-opacity=".05" viewBox="0 0 400 400" class="svg material-bithound" width="16" height="16" aria-hidden="true"><g fill="#e53935" fill-opacity="1"><path d="M350.738 186.163c-1.32-13.024-4.224-26.312-8.36-38.72-11.88-35.464-33.968-71.808-61.864-96.888-1.232-1.056-5.896-3.872-7.656-2.904-4.576 2.552 4.048 20.064 5.104 23.232 6.512 19.36 10.648 39.864 5.984 60.104-6.248 26.752-26.752 45.496-54.12 47.784-15.048 1.232-30.184-.44-45.232 1.32-22.528 2.64-45.496 10.384-59.84 28.864-1.672 2.112-3.168 4.488-4.576 6.952h-.352c-5.544.616-11.088-1.76-13.816-3.256-.704-.44-1.408-.792-1.936-1.056-16.72-9.24-29.04-29.92-36.608-46.992-3.432-7.92-6.336-16.192-8.184-24.552-.88-3.784-.968-7.744-1.144-11.616-.088-2.376.264-5.72-1.056-7.832-2.904-4.576-6.6-.176-7.216 3.52-.968 6.072-1.848 12.056-1.584 18.216.44 10.384 3.344 20.68 7.04 30.36 5.456 14.256 13.112 27.368 23.056 39.072 4.136 4.84 8.536 9.328 13.288 13.464 4.224 3.784 9.592 6.776 12.76 11.616 3.696 5.544 4.312 12.408 3.96 18.832-.88 16.984-1.408 32.912 3.432 49.456 4.224 14.696 9.504 29.744 18.304 42.328 4.4 6.248 9.856 12.848 15.84 17.512 4.048 3.168 11.704 3.52 7.304-8.096-9.768-25.784-10.648-52.536 4.576-76.648 12.76-20.064 35.288-37.928 60.72-34.76 37.4 4.664 63.448 38.984 61.6 75.68-.528 10.296-.88 19.096-4.136 28.776-1.32 3.872-2.288 8.8-1.32 12.848 1.584 6.864 9.24 4.312 12.584-.176 9.064-12.32 18.568-24.288 27.104-36.96 27.808-41.536 41.36-89.584 36.344-139.48z"/><path d="M141.21 85.051c.616 2.024 1.232 4.224 1.672 6.6.088.968.352 2.024.88 2.992 2.288 5.984 7.832 9.24 13.024 12.32 3.168 1.936 8.888 3.784 12.408 5.192 4.576 1.848 14.432-.528 19.096-.88 10.736-.88 20.68-4.664 30.536 1.056-50.512 59.224-2.816 72.424 34.144 43.912 42.24-32.56 2.464-109.384 2.464-109.384s-.88-5.984-16.896-9.504a51.52 51.52 0 0 0-4.488-2.112c-15.84-7.304-30.096 4.664-41.536 14.432-3.344 2.816-6.6 5.632-10.12 8.272-4.752 3.52-9.856 6.424-15.224 8.976-5.632 2.64-12.32 5.632-18.568 5.896-.88 0-2.552.176-4.312.528-2.728.264-4.136.968-4.752 2.2-1.056.88-1.76 2.112-1.584 3.696.176 2.2 1.232 4.048 2.376 5.456.352.088.616.264.88.352z"/></g></svg>