<svg xmlns="http://www.w3.org/2000/svg" viewBox="0 0 108 108" class="svg material-wepy" width="16" height="16" aria-hidden="true"><path d="M54 10.994A43.006 43.006 0 0 0 10.994 54v36.951c0 3.355 2.7 6.056 6.056 6.056h36.948a43.006 43.006 0 0 0 .003 0A43.006 43.006 0 0 0 97.007 54 43.006 43.006 0 0 0 54 10.995zm0 11.349A31.657 31.657 0 0 1 85.657 54 31.657 31.657 0 0 1 54 85.657 31.657 31.657 0 0 1 22.343 54 31.657 31.657 0 0 1 54 22.343z" style="fill:#4caf50;paint-order:fill markers stroke;stroke-width:.9126"/></svg>