<svg xmlns="http://www.w3.org/2000/svg" fill-rule="evenodd" stroke-linejoin="round" stroke-miterlimit="1.414" clip-rule="evenodd" viewBox="0 0 24 24" class="svg material-folder-vuepress" width="16" height="16" aria-hidden="true"><path fill="#41b883" fill-rule="nonzero" d="M10 4H4c-1.11 0-2 .89-2 2v12c0 1.097.903 2 2 2h16c1.097 0 2-.903 2-2V8a2 2 0 0 0-2-2h-8z"/><path fill="#d6f0e4" d="M14.924 9.185a1.5 1.5 0 0 0-1.5 1.5v9a1.5 1.5 0 0 0 1.5 1.5h7a1.5 1.5 0 0 0 1.5-1.5v-9a1.5 1.5 0 0 0-1.5-1.5z" style="fill:#e8f5e9" transform="translate(.31 -.414)"/><path fill="#41b883" d="m15.257 11.772 3.477 6 3.477-5.971v-.03h-1.352l-2.105 3.615-2.095-3.614z"/><path fill="#35495e" d="m16.66 11.772 2.094 3.615 2.105-3.615h-1.268l-.828 1.422-.825-1.422z"/></svg>