<svg xmlns="http://www.w3.org/2000/svg" xml:space="preserve" stroke-linejoin="round" stroke-miterlimit="1.414" clip-rule="evenodd" viewBox="0 0 24 24" class="svg material-folder-netlify" width="16" height="16" aria-hidden="true"><defs><clipPath id="material-folder-netlify__a"><path fill="#fff" d="M0 0h128v112.64H0z"/></clipPath></defs><path fill="#26a69a" d="M10 4H4c-1.1 0-2 .9-2 2v12c0 1.1.9 2 2 2h16c1.1 0 2-.9 2-2V8c0-1.1-.9-2-2-2h-8l-2-2z"/><path fill="#a7ffeb" d="M59.677.002 58.95.73v26.327l.727.744h8.792l.727-.744V.73L68.47.002h-8.792zM33.384 18.584l-6.036 6.02v1.217l9.232 9.215h6.374l.863-.845V27.8L34.6 18.584h-1.217zM47.536 38.03l-.727.728v35.102l.727.744h8.775l.744-.744v-26.58l.406-.44c2.774-.109 5.374-.161 7.643-.102 4.408.1 5.85 2.94 5.85 6.595v20.544l.727.727h8.776l.727-.727V51.929c0-7.678-6.222-13.9-13.9-13.9H47.537zM.733 51.184l-.744.728v8.809l.744.727h35.119l.727-.727v-8.81l-.727-.727H.733zm91.424 0-.727.728v8.809l.727.727h35.119l.744-.727v-8.81l-.744-.727H92.157zM36.579 77.595l-9.232 9.216v1.2l6.036 6.036h1.218l9.215-9.215v-6.391l-.863-.846H36.58zm23.097 7.237-.727.744v26.327l.727.727h8.792l.727-.727V85.576l-.727-.744h-8.792z" clip-path="url(#material-folder-netlify__a)" transform="translate(8.943 7.752) scale(.11551)"/></svg>