<svg xmlns="http://www.w3.org/2000/svg" xml:space="preserve" viewBox="0 0 24 24" class="svg material-folder-changesets" width="16" height="16" aria-hidden="true"><path fill="#2196f3" d="M10 4H4c-1.11 0-2 .89-2 2v12c0 1.097.903 2 2 2h16c1.097 0 2-.903 2-2V8a2 2 0 0 0-2-2h-8l-2-2Z"/><path fill="#bbdefb" d="M10.845 11.106c0 2.668 2.03 4.831 4.535 4.831h1.361c-2.505 0-4.535 2.163-4.535 4.831h.908c1.872 0 3.48-1.208 4.173-2.933.692 1.725 2.3 2.933 4.172 2.933h.908c0-2.668-2.03-4.83-4.535-4.83h1.36c2.505 0 4.536-2.164 4.536-4.832H21.46c-1.872 0-3.48 1.209-4.172 2.934-.693-1.725-2.3-2.934-4.173-2.934zm6.441 2.936c.234.582.363 1.223.363 1.895s-.129 1.313-.363 1.896a5.087 5.087 0 0 1-.362-1.896c0-.672.129-1.313.363-1.895z"/></svg>