<svg xmlns="http://www.w3.org/2000/svg" viewBox="0 0 23 24" class="svg material-mathematica" width="16" height="16" aria-hidden="true"><path fill="#f44336" fill-rule="evenodd" stroke="#f44336" stroke-linejoin="round" stroke-width=".775" d="m11.498 1.525-.073.025-.46.794-.454.763-1.218 2.089h-.017L5.42 3.5l-.1-.047h-.018v.092l.025.163v.086l.132 1.227v.082l.032.252v.082l.22 2.137v.075l.018.082v.06l-2.349.506-.04.015-.456.1-.025.01h-.043l-1.095.245-.04.007-.17.035v.082l.018.01 1.859 2.086.052.053.115.132.804.908v.006l-.053.05-.22.256-2.564 2.876-.01.007v.082l.071.006.295.074 1.697.367v.006l2.14.471h.014v.047l-.035.252v.08l-.047.412v.082l-.035.245v.082l-.046.412v.08l-.05.409v.08l-.036.245v.082l-.046.412v.082l-.05.407v.082l-.032.248v.082l-.05.407v.104h.037l3.642-1.6.294-.135h.018l.177.312.539.912.015.032.854 1.465.16.262.404.694.007.022h.092l.005-.022.017-.025.56-.946.015-.043.599-1.032.316-.54.645-1.09.05.012 3.905 1.722h.035v-.085l-.138-1.32v-.082l-.032-.245V18.7l-.035-.244v-.085l-.033-.245v-.08l-.032-.245v-.082l-.032-.245v-.085l-.035-.244v-.082l-.032-.245v-.082l-.033-.245v-.085l-.025-.17v-.052l1.632-.355.043-.007.458-.107h.028v-.01l.23-.05.03-.01h.042l.382-.09.025-.01h.043l.194-.05h.033l1.015-.23.07-.007v-.065l-.015-.013-1.19-1.342-.028-.027-.197-.22-1.428-1.604v-.006l.295-.324.4-.457 2.148-2.408.015-.01v-.065l-.035-.007-1.288-.28-.372-.085-.047-.01-2.481-.544v-.045l.432-4.264v-.02h-.042l-.302.134-.01.015h-.025L14.01 5.06l-.297.135h-.015L11.67 1.712l-.099-.145-.014-.045zm-.002 1.113 1.366 2.324.34.591-.008.025-1.18 1.512-.518.66-.011-.011-.258-.334-.04-.05L9.79 5.568l.03-.063 1.378-2.366.287-.49zm4.91 2.04-.008.024-.169.226-.537.066zm-9.818.004.052.02.677.299H6.82l-.224-.299zM16.933 5l-.123 1.248-.113-.927.225-.308zm-9.26.157.053.023.705.31-.758-.175zm7.387.115.02.169-1.317.403.002-.003.16-.072 1.015-.444zM9.655 6.39l.944 1.204v.01l-1.13-.403zm3.55.171.209.683-.233.083-.09.022-.7.255.006-.022.777-.981zm-5 .836.986.356.898.312.048.021 1.053.372.012 3.086-.362-.117-.67-.224-.081-.038-.736-.245-.769-.256-.291-.1-.01-.254-.033-1.196-.01-.287-.014-.893-.014-.298zm6.583 0-.012.228-.028.9-.007.302-.032 1.475-.01.262-.337.118-.734.244-.77.257-.713.244-.354.117.01-3.086 1.632-.577zm.584.437.09.735.79-.096-.915 1.302-.017.006.01-.183.018-.878zm-9.451.536.152.22 1.448 2.05-2.608.967-.05.015L2.892 9.41l-.28-.312.003-.01.114-.018.425-.1.14-.022.336-.077.042-.01zm11.146.003 3.284.713.03.01-.023.026-1.954 2.191-.276.312-.093-.035-2.563-.95.474-.682.153-.215zm-10.295.15h.861l.035 1.258-.013-.006-.763-1.078zm1.358 2.624.152.06.77.252.713.245.745.248.49.167-.065.092-1.723 2.333-1.015-.301-.082-.018-.035-.015-1.901-.56.937-1.22.982-1.277zm6.73 0 .033.006 1.787 2.328.132.17-.127.035-.033.015-2.195.641-.106.033-.564.17-.017-.003-1.054-1.44-.174-.24-.546-.726-.008-.017.47-.16.768-.255.714-.244.769-.252zm-7.765.305-.008.02-.404.524-.291-.292.657-.245zm8.802 0 .042.008.579.212.713.27-.66.394-.375-.48-.03-.042-.262-.341zm-10.843.75-.67.668.355-.397.206-.23zm12.91.016.068.025.045.043.554.627.043.042.203.229-.255.134zm-6.473.265.022.015 1.38 1.872.032.05.343.466.008.03-.088.118-.422.628-.047.075-.245.343-.97 1.43-.013.007-1.18-1.72-.095-.16-.494-.709-.007-.036 1.617-2.192.007-.01zm7.827 1.194.566.633.063.082-.273-.092-.036-.013zm-15.785.148.298.299-.637.218-.153.05.038-.057zm13.225.47-.855.449.346.659-.185-.057-.27-.088-1.092-.349.012-.01zm-9.687.255 1.222.356-.006.008-.458.145-.443.134-.032.01-.49.157zm-2.765.049.318.319 2.007.517-.567.18-.055.005-2.103-.47-.744-.156.007-.006zm14.966.205.548.187v.003l-.457.1-.043.014-1.07.23zM9.04 15.31l.007.227.01.347.025 1.362.025.691-.007.255-.24.107-2.863 1.256.033-.372.032-.255.017-.227.031-.257.037-.407.045-.419.018-.23.032-.252.032-.411.05-.415.013-.14 1.455-.456.003-.015.302-.098zm4.909 0 1.245.39v.014l.312.1 1.145.361.022.23.031.255.043.409.04.419.017.23.032.252.032.411.043.325.077.849-.077-.04-3.025-1.323-.005-.304.06-2.369zm-4.295.616.014.008.068.107.599.874-.639.532-.035-1.439zm3.67 0h.008l-.005.06-.02.678-.004.214-.48-.222zm-2.888 3.605.763.916.001.37-.017-.007-.025-.05-.464-.79-.012-.018zm1.53.61.184.083-.343.586-.018.007.002-.531z"/></svg>