<svg xmlns="http://www.w3.org/2000/svg" fill-rule="evenodd" stroke-linejoin="round" stroke-miterlimit="1.414" clip-rule="evenodd" viewBox="0 0 24 24" class="svg material-folder-custom" width="16" height="16" aria-hidden="true"><path fill="#FF5722" fill-rule="nonzero" d="M10 4H4c-1.11 0-2 .89-2 2v12c0 1.097.903 2 2 2h16c1.097 0 2-.903 2-2V8a2 2 0 0 0-2-2h-8l-2-2z" style="fill:#ff7043"/><path d="M18.755 10.609a.518.518 0 0 0-.368.157l-7.166 7.166v2.574h2.573l7.176-7.157a.515.515 0 0 0 0-.74l-1.844-1.843a.525.525 0 0 0-.371-.157zm-.765 7.813-2.084 2.084h7.813v-2.084z" style="fill:#ffccbc;stroke-width:1.0416"/></svg>