<svg xmlns="http://www.w3.org/2000/svg" viewBox="0 0 24 24" class="svg material-razor" width="16" height="16" aria-hidden="true"><path d="M12 15c.81 0 1.5-.3 2.11-.89.59-.61.89-1.3.89-2.11s-.3-1.5-.89-2.11C13.5 9.3 12.81 9 12 9s-1.5.3-2.11.89C9.3 10.5 9 11.19 9 12s.3 1.5.89 2.11c.61.59 1.3.89 2.11.89m0-13c2.75 0 5.1 1 7.05 2.95S22 9.25 22 12v1.45c0 1-.35 1.85-1 2.55-.7.67-1.5 1-2.5 1-1.2 0-2.19-.5-2.94-1.5-1 1-2.18 1.5-3.56 1.5-1.37 0-2.55-.5-3.54-1.46C7.5 14.55 7 13.38 7 12c0-1.37.5-2.55 1.46-3.54C9.45 7.5 10.63 7 12 7c1.38 0 2.55.5 3.54 1.46C16.5 9.45 17 10.63 17 12v1.45c0 .41.16.77.46 1.08s.65.47 1.04.47c.42 0 .77-.16 1.07-.47s.43-.67.43-1.08V12c0-2.19-.77-4.07-2.35-5.65S14.19 4 12 4s-4.07.77-5.65 2.35S4 9.81 4 12s.77 4.07 2.35 5.65S9.81 20 12 20h5v2h-5c-2.75 0-5.1-1-7.05-2.95S2 14.75 2 12s1-5.1 2.95-7.05S9.25 2 12 2z" style="fill:#42a5f5"/></svg>