<svg xmlns="http://www.w3.org/2000/svg" viewBox="0 0 24 24" class="svg material-folder-decorators" width="16" height="16" aria-hidden="true"><path fill="#AB47BC" d="M10 4H4c-1.11 0-2 .89-2 2v12c0 1.097.903 2 2 2h16c1.097 0 2-.903 2-2V8a2 2 0 0 0-2-2h-8l-2-2Z"/><path fill="#e1bee7" d="M17.609 20.773c-.836 0-1.626-.16-2.37-.482a6.198 6.198 0 0 1-1.95-1.315 6.194 6.194 0 0 1-1.316-1.95 5.916 5.916 0 0 1-.482-2.371c0-.846.16-1.639.482-2.378.321-.74.76-1.387 1.315-1.943a6.203 6.203 0 0 1 1.95-1.316 5.923 5.923 0 0 1 2.371-.481c.846 0 1.639.16 2.378.481a6.217 6.217 0 0 1 3.258 3.259 5.9 5.9 0 0 1 .482 2.378v.887a2.12 2.12 0 0 1-.62 1.537c-.412.423-.92.635-1.521.635a2.296 2.296 0 0 1-1.805-.887 3.041 3.041 0 0 1-2.172.887 2.947 2.947 0 0 1-2.164-.895c-.597-.596-.895-1.318-.895-2.164s.298-1.568.895-2.165c.596-.596 1.318-.894 2.164-.894s1.568.298 2.165.894a2.95 2.95 0 0 1 .894 2.165v.887c0 .296.092.528.275.696a.92.92 0 0 0 .643.252.92.92 0 0 0 .642-.252c.184-.168.275-.4.275-.696v-.887c0-1.336-.481-2.486-1.445-3.45-.964-.963-2.113-1.445-3.45-1.445s-2.485.482-3.448 1.445c-.964.964-1.446 2.114-1.446 3.45s.482 2.485 1.446 3.449c.963.963 2.113 1.445 3.449 1.445h3.059v1.224zm0-4.283c.51 0 .943-.178 1.3-.535a1.77 1.77 0 0 0 .535-1.3c0-.51-.178-.943-.535-1.3s-.79-.536-1.3-.536-.943.179-1.3.536a1.77 1.77 0 0 0-.535 1.3c0 .51.178.943.535 1.3.357.357.79.535 1.3.535z"/></svg>