<svg xmlns="http://www.w3.org/2000/svg" xml:space="preserve" fill-rule="evenodd" stroke-linejoin="round" stroke-miterlimit="1.414" clip-rule="evenodd" viewBox="0 0 24 24" class="svg material-folder-secure" width="16" height="16" aria-hidden="true"><path fill="#e57373" fill-rule="nonzero" d="M10 4H4c-1.11 0-2 .89-2 2v12c0 1.097.903 2 2 2h16c1.097 0 2-.903 2-2V8a2 2 0 0 0-2-2h-8l-2-2z" style="fill:#f9a825"/><path d="M19.017 17.774a1.196 1.196 0 0 0 1.196-1.196c0-.663-.538-1.195-1.196-1.195a1.196 1.196 0 0 0-1.196 1.196 1.196 1.196 0 0 0 1.196 1.195m3.587-5.38a1.196 1.196 0 0 1 1.195 1.196v5.977a1.196 1.196 0 0 1-1.196 1.196H15.43a1.196 1.196 0 0 1-1.195-1.196V13.59c0-.664.538-1.196 1.195-1.196h.598V11.2a2.989 2.989 0 0 1 2.989-2.99 2.989 2.989 0 0 1 2.989 2.99v1.195h.598m-3.587-2.989a1.793 1.793 0 0 0-1.793 1.794v1.195h3.586V11.2a1.793 1.793 0 0 0-1.793-1.794z" style="fill:#fff9c4;stroke-width:.59776"/></svg>