<svg xmlns="http://www.w3.org/2000/svg" fill-rule="evenodd" stroke-linejoin="round" stroke-miterlimit="1.414" clip-rule="evenodd" viewBox="0 0 24 24" class="svg material-folder-stylus" width="16" height="16" aria-hidden="true"><path fill="#D4E157" fill-rule="nonzero" d="M10 4H4c-1.11 0-2 .89-2 2v12c0 1.097.903 2 2 2h16c1.097 0 2-.903 2-2V8a2 2 0 0 0-2-2h-8l-2-2z" style="fill:#c0ca33"/><path d="M20.759 19.209c1.1-1.315 1.229-2.673.378-5.194-.539-1.595-1.433-2.823-.776-3.814.7-1.056 2.188-.032.948 1.38l.247.171c1.487.173 2.22-1.864 1.11-2.445-2.93-1.53-5.494 1.411-4.364 4.815.486 1.445 1.165 2.975.615 4.193-.474 1.044-1.39 1.659-2.004 1.68-1.282.064-.43-2.876 1.045-3.609.129-.064.313-.15.14-.366-1.82-.204-2.888.635-3.501 1.81-1.79 3.416 3.393 4.676 6.162 1.379z" style="fill:#f0f4c3;stroke-width:1.0725"/></svg>