<svg xmlns="http://www.w3.org/2000/svg" xml:space="preserve" stroke-linejoin="round" stroke-miterlimit="1.414" clip-rule="evenodd" viewBox="0 0 24 24" class="svg material-folder-webpack-open" width="16" height="16" aria-hidden="true"><path fill="#03a9f4" d="M19 20H4a2 2 0 0 1-2-2V6c0-1.11.89-2 2-2h6l2 2h7c1.097 0 2 .903 2 2H4v10l2.14-8h17.07l-2.28 8.5c-.23.87-1.01 1.5-1.93 1.5z"/><path fill="#fff" fill-opacity=".785" d="m22.044 18.085-5.113 2.952-5.112-2.952v-5.904L16.93 9.23l5.113 2.951z"/><path fill="#8ed6fb" d="M17.342 8.793c-.14 0-.273.04-.379.12l-5.24 2.944a.658.658 0 0 0-.351.585v5.97c0 .251.139.47.351.583l5.24 2.945c.106.08.24.12.379.12s.272-.04.378-.12l5.24-2.945a.658.658 0 0 0 .351-.584v-5.97a.658.658 0 0 0-.351-.584l-5.24-2.944a.627.627 0 0 0-.378-.12zm0 1.427 4.643 2.613v1.395h-.01v3.434h.01v.358l-4.643 2.613-4.643-2.613v-5.187zm0 1.38-3.25 1.877 3.25 1.877 3.25-1.877zm-3.317 3.369v2.375l2.653 1.53V16.5zm6.633 0L18.005 16.5v2.375l2.653-1.531z"/><path fill="#1c78c0" d="m17.342 11.6-3.25 1.877 3.25 1.877 3.25-1.877zm-3.317 3.369v2.375l2.653 1.53V16.5zm6.633 0L18.005 16.5v2.375l2.653-1.531z"/></svg>