<svg xmlns="http://www.w3.org/2000/svg" xml:space="preserve" fill-rule="evenodd" stroke-linejoin="round" stroke-miterlimit="1.414" clip-rule="evenodd" viewBox="0 0 24 24" class="svg material-folder-markdown-open" width="16" height="16" aria-hidden="true"><path fill="#0277bd" d="M19 20H4a2 2 0 0 1-2-2V6c0-1.11.89-2 2-2h6l2 2h7c1.097 0 2 .903 2 2H4v10l2.14-8h17.07l-2.28 8.5c-.23.87-1.01 1.5-1.93 1.5z"/><path fill="#b3e5fc" d="m16.275 21.115-2.538.002V17.31l-1.903 2.441-1.903-2.441v3.807H7.393v-7.613h2.538l1.903 2.538 1.903-2.538 2.538-.003zm3.789.634L16.91 17.31h1.903v-3.806h2.538v3.806h1.903z"/></svg>