<svg xmlns="http://www.w3.org/2000/svg" xml:space="preserve" stroke-linejoin="round" stroke-miterlimit="1.414" clip-rule="evenodd" viewBox="0 0 24 24" class="svg material-folder-react-components-open" width="16" height="16" aria-hidden="true"><path fill="#00bcd4" d="M19 20H4a2 2 0 0 1-2-2V6c0-1.11.89-2 2-2h6l2 2h7c1.097 0 2 .903 2 2H4v10l2.14-8h17.07l-2.28 8.5c-.23.87-1.01 1.5-1.93 1.5z"/><path fill="#b2ebf2" d="M16.473 13.928c.723 0 1.313.59 1.313 1.327 0 .703-.59 1.3-1.313 1.3a1.318 1.318 0 0 1-1.313-1.3c0-.737.59-1.327 1.313-1.327m-3.252 6.946c.443.267 1.412-.14 2.529-1.194a16.997 16.997 0 0 1-1.06-1.335 15.945 15.945 0 0 1-1.686-.252c-.358 1.502-.225 2.535.217 2.78m.499-4.03-.204-.359c-.077.204-.154.408-.203.604.19.042.4.078.618.113l-.211-.359m4.593-.533.569-1.054-.57-1.053c-.21-.372-.434-.702-.638-1.032-.38-.022-.78-.022-1.201-.022-.421 0-.822 0-1.2.022-.205.33-.43.66-.64 1.032l-.569 1.053.569 1.054c.21.372.435.702.64 1.032.378.021.779.021 1.2.021.421 0 .822 0 1.2-.02.205-.33.43-.661.64-1.033m-1.84-4.72c-.133.155-.274.316-.414.506h.828c-.14-.19-.28-.351-.414-.506m0 7.332c.133-.154.274-.316.414-.505h-.828c.14.19.28.35.414.505m3.244-9.284c-.435-.267-1.404.14-2.52 1.194.364.414.723.864 1.06 1.334.575.057 1.144.14 1.685.253.358-1.503.225-2.535-.225-2.78m-.491 4.03.203.358c.078-.203.155-.407.204-.604-.19-.042-.4-.077-.618-.112l.21.358m1.02-4.95c1.032.589 1.144 2.141.708 3.953 1.784.527 3.07 1.398 3.07 2.584 0 1.187-1.286 2.058-3.07 2.585.436 1.812.323 3.364-.709 3.954-1.025.59-2.423-.085-3.771-1.37-1.348 1.285-2.746 1.96-3.778 1.37-1.026-.59-1.138-2.142-.703-3.954-1.783-.527-3.069-1.398-3.069-2.585s1.286-2.057 3.07-2.584c-.436-1.812-.324-3.364.702-3.954 1.032-.59 2.43.084 3.778 1.37 1.348-1.286 2.746-1.96 3.771-1.37m-.204 6.538c.24.527.45 1.054.625 1.588 1.475-.443 2.304-1.075 2.304-1.588 0-.512-.829-1.144-2.304-1.587a15.81 15.81 0 0 1-.625 1.587m-7.135 0a15.808 15.808 0 0 1-.625-1.587c-1.475.443-2.303 1.075-2.303 1.587 0 .513.828 1.145 2.303 1.588.176-.534.386-1.06.625-1.588m6.32 1.588-.21.358c.218-.035.428-.07.618-.113a5.56 5.56 0 0 0-.204-.604l-.203.359m-2.03 2.837c1.117 1.053 2.086 1.46 2.521 1.194.45-.246.583-1.278.225-2.781-.54.112-1.11.196-1.685.253-.338.47-.696.92-1.06 1.334m-3.477-6.012.21-.358c-.217.035-.428.07-.617.112.049.197.126.4.203.604l.204-.358m2.03-2.837c-1.117-1.053-2.086-1.46-2.529-1.194-.442.246-.576 1.278-.217 2.781a16.25 16.25 0 0 1 1.685-.253c.337-.47.695-.92 1.06-1.334z"/></svg>