<svg xmlns="http://www.w3.org/2000/svg" viewBox="0 0 24 24" class="svg material-powershell" width="16" height="16" aria-hidden="true"><path d="M21.783 4.039c.488 0 .796.398.667.885l-3.145 14.151c-.11.488-.587.886-1.075.886H2.218c-.487 0-.796-.398-.666-.886l3.144-14.15c.11-.488.587-.886 1.075-.886h16.012M15.812 15.98h-3.98a.832.832 0 0 0-.827.836c0 .467.369.845.826.845h3.981a.845.845 0 0 0 .846-.845.843.843 0 0 0-.846-.836m-10.001.278a.867.867 0 0 0-.209 1.214.884.884 0 0 0 1.234.23c7.315-5.146 7.364-5.205 7.414-5.235a.844.844 0 0 0 .279-.597.903.903 0 0 0-.16-.558L9.473 6.06a.863.863 0 0 0-1.244-.03.868.868 0 0 0-.05 1.234l4.13 4.418z" style="fill:#03a9f4;stroke-width:.99517"/></svg>