<svg xmlns="http://www.w3.org/2000/svg" viewBox="0 0 24 24" class="svg material-folder-cypress" width="16" height="16" aria-hidden="true"><path fill="#009688" d="M10 4H4c-1.11 0-2 .89-2 2v12c0 1.097.903 2 2 2h16c1.097 0 2-.903 2-2V8a2 2 0 0 0-2-2h-8l-2-2z"/><path fill="#b2dfdb" d="M17.584 8.548a6.11 6.11 0 0 0-6.113 6.114 6.11 6.11 0 0 0 6.114 6.114 6.11 6.11 0 0 0 6.114-6.114c0-3.379-2.757-6.114-6.115-6.114zm-2.868 7.426c.2.267.467.378.844.378.179 0 .357-.023.513-.09.154-.065.333-.155.555-.289l.622.89a2.652 2.652 0 0 1-1.756.622c-.534 0-.978-.111-1.378-.333a2.238 2.238 0 0 1-.89-.978c-.2-.423-.31-.911-.31-1.49 0-.555.11-1.066.31-1.49.19-.42.5-.775.891-1.021.377-.246.844-.357 1.356-.357.356 0 .689.045.956.156.3.116.577.282.822.49l-.622.844a2.438 2.438 0 0 0-.512-.29 1.43 1.43 0 0 0-.533-.089c-.756 0-1.134.579-1.134 1.756-.021.602.09 1.024.267 1.29zm6.114 1.379c-.222.69-.555 1.2-1.022 1.578-.467.379-1.09.579-1.868.645l-.155-1.044c.51-.068.889-.179 1.134-.357.088-.065.266-.266.266-.266l-1.845-5.915h1.533l1.068 4.425 1.134-4.425h1.49z"/></svg>