<svg xmlns="http://www.w3.org/2000/svg" viewBox="0 0 240 240" class="svg material-laravel" width="16" height="16" aria-hidden="true"><path d="M211.34 68.408c0-.088-.088-.177-.088-.265-.089-.177-.089-.354-.177-.443-.089-.088-.177-.177-.177-.265-.089-.089-.177-.266-.266-.354l-.265-.265c-.089-.089-.177-.177-.354-.266l-35.475-20.436a2.875 2.875 0 0 0-2.92 0L136.145 66.55c-.089.089-.177.177-.354.266l-.266.265c-.088.088-.177.265-.265.354-.089.088-.177.177-.177.265-.089.177-.177.266-.177.443 0 .088-.088.177-.088.265-.089.265-.089.53-.089.796v38.748l-29.547 16.986V49.033c0-.265 0-.53-.088-.796 0-.088-.089-.177-.089-.265-.088-.177-.088-.354-.177-.443-.088-.088-.177-.177-.177-.265-.088-.089-.177-.266-.265-.354l-.266-.265a1.208 1.208 0 0 0-.353-.266L68.203 26.12a2.875 2.875 0 0 0-2.92 0L29.808 46.556a1.215 1.215 0 0 1-.354.266l-.265.265c-.089.088-.177.265-.266.354-.088.088-.176.177-.176.265-.089.177-.177.266-.177.443 0 .088-.089.177-.089.265-.088.265-.088.53-.088.796v121.37c0 1.062.53 2.035 1.504 2.566l70.862 40.783c.177.088.354.177.442.177.088 0 .177.088.265.088.266.089.531.089.797.089s.53 0 .796-.089c.088 0 .088-.088.177-.088.177-.089.354-.089.53-.177l70.863-40.783c.884-.531 1.504-1.504 1.504-2.566v-38.748l33.97-19.55c.885-.532 1.505-1.505 1.505-2.566V69.11c-.177-.266-.266-.531-.266-.708zM102.09 167.05l-29.459-16.72 30.963-17.87 33.971-19.551 29.547 16.985-21.674 12.385zm67.942-75.816v33.618l-12.385-7.166-17.162-9.908V74.16l12.385 7.166zm3.008-39.102 29.547 16.985-29.547 16.985-29.547-16.985zM82.008 138.21l-12.385 7.166V71.152l17.162-9.909 12.385-7.165v74.135zM66.703 32.05 96.25 49.035 66.703 66.109 37.156 49.124zM34.148 54.167l12.385 7.166 17.162 9.908v79.266c0 .089 0 .266.088.354 0 .177 0 .265.089.442 0 .089.088.266.177.354.088.089.088.266.177.354l.265.266c.088.088.177.176.265.353.089.089.177.177.266.177.088.089.177.177.354.266l33.794 19.109v33.97l-65.023-37.421zm135.89 114.57-65.023 37.422v-33.971l48.126-27.513 16.897-9.643zm35.475-60.865-29.547 16.986V91.24l17.162-9.908 12.385-7.166z" style="fill:#ff5252;stroke-width:4.802;stroke:#ff5252"/></svg>