<svg xmlns="http://www.w3.org/2000/svg" xml:space="preserve" fill-rule="evenodd" stroke-linejoin="round" stroke-miterlimit="1.414" clip-rule="evenodd" viewBox="0 0 24 24" class="svg material-folder-gitlab" width="16" height="16" aria-hidden="true"><path fill="#757575" fill-rule="nonzero" d="M10 4H4c-1.11 0-2 .89-2 2v12c0 1.097.903 2 2 2h16c1.097 0 2-.903 2-2V8a2 2 0 0 0-2-2h-8l-2-2z"/><path fill="#e53935" d="m23.513 13.277-.017-.047-1.754-4.573a.455.455 0 0 0-.18-.218.463.463 0 0 0-.696.265l-1.183 3.623H14.89l-1.184-3.623a.464.464 0 0 0-.695-.265.455.455 0 0 0-.18.218l-1.753 4.574-.018.045a3.255 3.255 0 0 0 1.08 3.763l.007.005.015.011 2.667 2 1.323 1 .804.607a.543.543 0 0 0 .655 0l.804-.608 1.323-1 2.687-2.01.007-.006a3.255 3.255 0 0 0 1.081-3.761z"/><path fill="#ef6c00" d="m23.513 13.277-.017-.047a5.914 5.914 0 0 0-2.357 1.06l-3.85 2.912 2.451 1.853 2.686-2.011.008-.006a3.255 3.255 0 0 0 1.08-3.761z"/><path fill="#f9a825" d="m14.829 19.055 1.323 1 .804.607a.543.543 0 0 0 .655 0l.804-.607 1.324-1-2.452-1.853z"/><path fill="#ef6c00" d="M13.434 14.29a5.909 5.909 0 0 0-2.356-1.059l-.018.046a3.255 3.255 0 0 0 1.08 3.762l.007.005.015.012 2.667 1.999 2.453-1.853z"/></svg>