<svg xmlns="http://www.w3.org/2000/svg" viewBox="0 0 300 300" class="svg material-sbt" width="16" height="16" aria-hidden="true"><path fill="#0277bd" d="M105.46 209.517c-7.875 0-13.452-7.521-13.452-15.37v-.327c0-7.848 5.578-13.735 13.452-13.735h164.05c1.476-4.905 2.625-11.446 3.281-17.986h-137.81c-7.875 0-14.273-6.05-14.273-13.898s6.398-13.898 14.273-13.898h137.31c-.82-6.54-1.969-13.081-3.773-17.986h-104.01c-7.875 0-14.273-6.05-14.273-13.898s6.398-13.898 14.273-13.898h91.87c-21.327-37.607-60.864-61.315-106.14-61.315-67.918 0-123.04 54.448-123.04 122.3 0 67.856 55.122 123.28 123.04 123.28 46.59 0 87.112-25.507 107.95-63.114h-152.73z"/></svg>