<svg xmlns="http://www.w3.org/2000/svg" fill="none" viewBox="0 0 250 250" class="svg material-plop" width="16" height="16" aria-hidden="true"><path fill="#00bfa5" fill-rule="evenodd" d="M60.095 155.16c2.82 36.962 27.499 69.519 64.554 69.541h.702c37.056-.022 61.735-32.579 64.554-69.541.08-1.037.119-2.103.12-3.197v-.044c-.008-16.32-8.724-38.965-25.764-65.777a5571.2 5571.2 0 0 0-26.79-41.696 5948.5 5948.5 0 0 0-8.84-13.598 5350.906 5350.906 0 0 0-2.479-3.796 832.32 832.32 0 0 0-.653-1l-.499-.76-.498.76a832.32 832.32 0 0 0-.654 1l-2.478 3.797a5896.424 5896.424 0 0 0-8.842 13.597A5572 5572 0 0 0 85.74 86.142c-17.047 26.825-25.764 49.479-25.764 65.799 0 1.102.04 2.175.12 3.22zm31.661-2.755c1.444 18.924 14.084 35.594 33.065 35.605h.359c18.98-.012 31.62-16.681 33.065-35.605.04-.53.06-1.077.061-1.637v-.023c-.004-8.355-4.468-19.95-13.197-33.678a2858 2858 0 0 0-13.72-21.348 3425.1 3425.1 0 0 0-5.8-8.906l-.589-.901-.59.901a2608.2 2608.2 0 0 0-5.798 8.906 2858 2858 0 0 0-13.72 21.348c-8.732 13.734-13.197 25.333-13.197 33.69 0 .564.02 1.113.061 1.647z" clip-rule="evenodd"/></svg>