<svg xmlns="http://www.w3.org/2000/svg" xml:space="preserve" stroke-linejoin="round" stroke-miterlimit="1.414" clip-rule="evenodd" viewBox="0 0 24 24" class="svg material-folder-dist-open" width="16" height="16" aria-hidden="true"><path fill="#e57373" d="M19 20H4a2 2 0 0 1-2-2V6c0-1.11.89-2 2-2h6l2 2h7c1.097 0 2 .903 2 2H4v10l2.14-8h17.07l-2.28 8.5c-.23.87-1.01 1.5-1.93 1.5z"/><path fill="#ffcdd2" fill-rule="evenodd" d="M18.575 11.113h-2.576V9.825h2.576m3.864 1.288h-2.576V9.825l-1.288-1.288h-2.576L14.71 9.825v1.288h-2.577c-.715 0-1.288.573-1.288 1.288v7.085a1.288 1.288 0 0 0 1.288 1.288H22.44a1.288 1.288 0 0 0 1.288-1.288V12.4c0-.715-.58-1.288-1.288-1.288z"/></svg>