<svg xmlns="http://www.w3.org/2000/svg" fill-rule="evenodd" stroke-linejoin="round" stroke-miterlimit="1.414" clip-rule="evenodd" viewBox="0 0 24 24" class="svg material-folder-keys-open" width="16" height="16" aria-hidden="true"><path fill="#BDBDBD" d="M19 20H4a2 2 0 0 1-2-2V6c0-1.11.89-2 2-2h6l2 2h7c1.097 0 2 .903 2 2H4v10l2.14-8h17.07l-2.28 8.5c-.23.87-1.01 1.5-1.93 1.5z" style="fill:#26a69a"/><path fill="#757575" d="M16.935 16.425a3.54 3.54 0 0 0-3.339-2.363 3.548 3.548 0 0 0-3.545 3.545 3.548 3.548 0 0 0 3.545 3.546 3.54 3.54 0 0 0 3.339-2.364h2.57v2.364h2.364v-2.364h1.182v-2.364zm-3.339 2.364c-.65 0-1.182-.532-1.182-1.182s.532-1.182 1.182-1.182 1.182.532 1.182 1.182-.532 1.182-1.182 1.182z" style="fill:#b2dfdb"/></svg>