<svg xmlns="http://www.w3.org/2000/svg" xml:space="preserve" stroke-linejoin="round" stroke-miterlimit="1.414" clip-rule="evenodd" viewBox="0 0 24 24" class="svg material-folder-helper-open" width="16" height="16" aria-hidden="true"><path fill="#e57373" d="M19 20H4a2 2 0 0 1-2-2V6c0-1.11.89-2 2-2h6l2 2h7c1.097 0 2 .903 2 2H4v10l2.14-8h17.07l-2.28 8.5c-.23.87-1.01 1.5-1.93 1.5z" style="fill:#afb42b"/><path d="M20.671 9.434a1.22 1.22 0 0 0-.876.355l-3.559 3.565 3.461 3.461 3.565-3.559a1.239 1.239 0 0 0 0-1.733l-1.74-1.734a1.197 1.197 0 0 0-.851-.355m-5.023 4.502-3.65 3.65a1.231 1.231 0 0 0 .012 1.747c-.748.753-1.507 1.507-2.26 2.26h3.466l.527-.527a1.23 1.23 0 0 0 1.721-.012l3.645-3.65" style="fill:#f0f4c3;stroke-width:.61254"/></svg>