<svg xmlns="http://www.w3.org/2000/svg" viewBox="0 0 24 24" class="svg material-webpack" width="16" height="16" aria-hidden="true"><path fill="#fff" fill-opacity=".785" d="m19.376 15.988-7.708 4.45-7.709-4.45v-8.9l7.709-4.451 7.708 4.45z"/><path fill="#8ed6fb" d="M12.286 1.98c-.21 0-.41.059-.57.179l-7.9 4.44c-.32.17-.53.5-.53.88v9c0 .38.21.711.53.881l7.9 4.44c.16.12.36.18.57.18s.41-.06.57-.18l7.9-4.44c.32-.17.53-.5.53-.88v-9c0-.38-.21-.712-.53-.882l-7.9-4.44a.945.945 0 0 0-.57-.179zm0 2.15 7 3.94v2.103h-.016v5.177h.016v.54l-7 3.939-7-3.94V8.07l7-3.94zm0 2.08-4.9 2.83 4.9 2.83 4.9-2.83-4.9-2.83zm-5 5.08v3.58l4 2.309v-3.58l-4-2.31zm10 0-4 2.308v3.58l4-2.308v-3.58z"/><path fill="#1c78c0" d="m12.286 6.21-4.9 2.83 4.9 2.83 4.9-2.83-4.9-2.83zm-5 5.08v3.58l4 2.309v-3.58l-4-2.31zm10 0-4 2.308v3.58l4-2.308v-3.58z"/></svg>