<svg xmlns="http://www.w3.org/2000/svg" xml:space="preserve" stroke-linejoin="round" stroke-miterlimit="1.414" clip-rule="evenodd" viewBox="0 0 24 24" class="svg material-folder-angular-open" width="16" height="16" aria-hidden="true"><path fill="#ff5252" d="M19 20H4a2 2 0 0 1-2-2V6c0-1.11.89-2 2-2h6l2 2h7c1.097 0 2 .903 2 2H4v10l2.14-8h17.07l-2.28 8.5c-.23.87-1.01 1.5-1.93 1.5z"/><path fill="#ffcdd2" d="m18.034 9.132 5.692 2.028-.863 7.534-4.829 2.672-4.83-2.672-.862-7.534 5.692-2.028m0 1.352-3.56 7.984H15.8l.714-1.79h3.027l.714 1.79h1.32l-3.541-7.984m1.043 5.087h-2.08l1.037-2.492z"/></svg>