<svg xmlns="http://www.w3.org/2000/svg" xml:space="preserve" style="clip-rule:evenodd;fill-rule:evenodd;stroke-linejoin:round;stroke-miterlimit:1.4142" viewBox="0 0 24 24" class="svg material-folder-ansible" width="16" height="16" aria-hidden="true"><path d="M10 4H4c-1.11 0-2 .89-2 2v12c0 1.097.903 2 2 2h16c1.097 0 2-.903 2-2V8a2 2 0 0 0-2-2h-8l-2-2z" style="fill-rule:nonzero;fill:#616161"/><path d="M259.79 152.92c0 58.585-48.208 106.79-106.79 106.79S46.21 211.502 46.21 152.92 94.418 46.13 153 46.13h.006c58.581 0 106.79 48.206 106.79 106.79v.006" style="fill-rule:nonzero;fill:#848992" transform="translate(8.788 6.594) scale(.05784)"/><path d="m154.8 112.89 27.639 68.209-41.746-32.881L154.8 112.89zm49.096 83.922-42.51-102.3a6.87 6.87 0 0 0-6.586-4.513 7.1 7.1 0 0 0-6.765 4.513l-46.657 112.21h15.961l18.468-46.268 55.117 44.53c2.219 1.794 3.816 2.605 5.897 2.605l.179.002c4.182 0 7.624-3.442 7.624-7.625v-.006a10.103 10.103 0 0 0-.728-3.149" style="fill-rule:nonzero;fill:#fff" transform="translate(8.788 6.594) scale(.05784)"/></svg>