<svg xmlns="http://www.w3.org/2000/svg" xml:space="preserve" fill-rule="evenodd" stroke-linejoin="round" stroke-miterlimit="1.414" clip-rule="evenodd" viewBox="0 0 24 24" class="svg material-folder-benchmark" width="16" height="16" aria-hidden="true"><path fill="#e57373" fill-rule="nonzero" d="M10 4H4c-1.11 0-2 .89-2 2v12c0 1.097.903 2 2 2h16c1.097 0 2-.903 2-2V8a2 2 0 0 0-2-2h-8l-2-2z" style="fill:#1e88e5"/><path d="M16.364 17.621a2.08 2.08 0 0 1-2.08-2.08c0-.777.423-1.456 1.04-1.81l6.733-3.897-3.835 6.643a2.084 2.084 0 0 1-1.858 1.144m0-9.014a7.06 7.06 0 0 1 3.446.915l-1.456.839a5.545 5.545 0 0 0-1.99-.367 5.547 5.547 0 0 0-5.547 5.547 5.5 5.5 0 0 0 1.622 3.918h.007c.27.27.27.707 0 .977s-.714.27-.984.007a6.912 6.912 0 0 1-2.032-4.902 6.934 6.934 0 0 1 6.934-6.934m6.934 6.934a6.912 6.912 0 0 1-2.032 4.902.697.697 0 0 1-.977-.007.69.69 0 0 1 0-.977 5.512 5.512 0 0 0 1.622-3.918c0-.694-.131-1.387-.374-2.011l.839-1.456c.575 1.04.922 2.205.922 3.467z" style="fill:#bbdefb;stroke-width:.69341"/></svg>