<svg xmlns="http://www.w3.org/2000/svg" version="1.0" viewBox="0 0 24 24" class="svg material-tsconfig" width="16" height="16" aria-hidden="true"><path fill="#757575" d="M13 9h5.5L13 3.5V9M6 2h8l6 6v12a2 2 0 0 1-2 2H6a2 2 0 0 1-2-2V4c0-1.11.89-2 2-2m9 16v-2H6v2h9m3-4v-2H6v2h12z"/><path fill="#0288d1" d="M10.055 10.14h13v13h-13z"/><path fill="#fff" d="M19.963 13.364a1.798 1.798 0 0 1 .903.52 2.379 2.379 0 0 1 .348.463c.004.02-.624.441-1.005.675-.014.01-.069-.05-.13-.141a.818.818 0 0 0-.68-.406c-.437-.03-.72.199-.717.582a.527.527 0 0 0 .063.27c.096.2.275.319.836.562 1.033.448 1.477.738 1.751 1.155a2.096 2.096 0 0 1 .168 1.761 1.935 1.935 0 0 1-1.597 1.144 4.428 4.428 0 0 1-1.099-.013 2.653 2.653 0 0 1-1.47-.764 2.55 2.55 0 0 1-.375-.558 1.079 1.079 0 0 1 .132-.084l.536-.308.416-.245.087.126a1.938 1.938 0 0 0 .55.525 1.341 1.341 0 0 0 1.403-.07.627.627 0 0 0 .081-.803c-.111-.162-.34-.296-.992-.578a3.575 3.575 0 0 1-1.36-.834 1.903 1.903 0 0 1-.397-.721 2.89 2.89 0 0 1-.025-.922 1.76 1.76 0 0 1 1.48-1.371 3.656 3.656 0 0 1 1.094.035zm-3.389.601.005.592H14.7v5.34h-1.33v-5.34h-1.88v-.579a5.682 5.682 0 0 1 .017-.596c.006-.01 1.15-.013 2.537-.012l2.523.008z"/></svg>