<svg xmlns="http://www.w3.org/2000/svg" xml:space="preserve" stroke-linejoin="round" stroke-miterlimit="1.414" clip-rule="evenodd" viewBox="0 0 24 24" class="svg material-folder-i18n-open" width="16" height="16" aria-hidden="true"><path fill="#5c6bc0" d="M19 20H4a2 2 0 0 1-2-2V6c0-1.11.89-2 2-2h6l2 2h7c1.097 0 2 .903 2 2H4v10l2.14-8h17.07l-2.28 8.5c-.23.87-1.01 1.5-1.93 1.5z"/><path fill="#c5cae9" d="m17.293 17.786-1.53-1.512.018-.018a10.555 10.555 0 0 0 2.235-3.934h1.765v-1.205h-4.217V9.912h-1.205v1.205h-4.217v1.205h6.73a9.5 9.5 0 0 1-1.91 3.223 9.424 9.424 0 0 1-1.392-2.018h-1.205c.44.982 1.042 1.91 1.795 2.747l-3.067 3.024.856.856 3.012-3.013 1.874 1.874.458-1.229m3.392-3.054H19.48l-2.711 7.23h1.205l.674-1.808h2.862l.68 1.807h1.206l-2.711-7.23m-1.579 4.218.976-2.609.976 2.609z"/></svg>