<svg xmlns="http://www.w3.org/2000/svg" viewBox="0 0 210 210" class="svg material-prettier" width="16" height="16" aria-hidden="true"><g fill="none" fill-rule="evenodd" transform="matrix(.9 0 0 .9 10.5 10.5)"><rect width="20" height="10" x="165" y="40" fill="#56B3B4" rx="5"/><rect width="60" height="10" x="15" y="200" fill="#EA5E5E" rx="5"/><rect width="40" height="10" x="135" y="120" fill="#BF85BF" rx="5"/><rect width="50" height="10" x="75" y="120" fill="#EA5E5E" rx="5"/><rect width="50" height="10" x="15" y="120" fill="#56B3B4" rx="5"/><rect width="60" height="10" x="15" y="160" fill="#BF85BF" rx="5"/><rect width="60" height="10" x="15" y="80" fill="#BF85BF" rx="5"/><rect width="110" height="10" x="65" y="20" fill="#F7BA3E" rx="5"/><rect width="40" height="10" x="15" y="20" fill="#EA5E5E" rx="5"/><rect width="20" height="10" x="55" y="180" fill="#F7BA3E" rx="5"/><rect width="20" height="10" x="55" y="60" fill="#56B3B4" rx="5"/><rect width="30" height="10" x="15" y="180" fill="#56B3B4" rx="5"/><rect width="30" height="10" x="15" y="60" fill="#F7BA3E" rx="5"/><rect width="90" height="10" x="95" y="100" fill="#56B3B4" rx="5"/><rect width="40" height="10" x="45" y="100" fill="#F7BA3E" rx="5"/><rect width="20" height="10" x="15" y="100" fill="#EA5E5E" rx="5"/><rect width="50" height="10" x="105" y="40" fill="#BF85BF" rx="5"/><rect width="80" height="10" x="15" y="40" fill="#56B3B4" rx="5"/><rect width="100" height="10" x="45" y="140" fill="#F7BA3E" rx="5"/><rect width="20" height="10" x="15" y="140" fill="#BF85BF" rx="5"/><rect width="60" height="10" x="135" y="60" fill="#EA5E5E" rx="5"/><rect width="60" height="10" x="135" y="80" fill="#F7BA3E" rx="5"/><rect width="130" height="10" x="15" fill="#56B3B4" rx="5"/></g></svg>