<svg xmlns="http://www.w3.org/2000/svg" xml:space="preserve" stroke-linejoin="round" stroke-miterlimit="1.414" clip-rule="evenodd" viewBox="0 0 24 24" class="svg material-folder-stencil-open" width="16" height="16" aria-hidden="true"><path fill="#e57373" d="M19 20H4a2 2 0 0 1-2-2V6c0-1.11.89-2 2-2h6l2 2h7c1.097 0 2 .903 2 2H4v10l2.14-8h17.07l-2.28 8.5c-.23.87-1.01 1.5-1.93 1.5z" style="fill:#448aff"/><path d="M9.838 14.066h10.02L14.443 20H4.475zM26.25 7.033H5.664L.25 12.967h20.586zM12.041 0h9.984l-5.392 5.934H6.64z" style="fill:#bbdefb" transform="translate(8.874 9.409) scale(.56815)"/></svg>