<svg xmlns="http://www.w3.org/2000/svg" viewBox="0 0 24 24" class="svg material-cloudfoundry" width="16" height="16" aria-hidden="true"><path fill="#0288d1" d="M14.13 10.1c.6-.5.98-1.19.97-1.96-.01-1.47-1.4-2.66-3.1-2.66-1.7 0-3.09 1.18-3.1 2.65-.01.77.37 1.47.97 1.96.75.61 1.36 1.84 1.4 3.18.04 1.49-.06 3.22-.12 4.1-.8.11-1.36.38-1.36.69 0 .41.99.89 2.22.89 1.23 0 2.22-.48 2.22-.89 0-.31-.56-.58-1.36-.69-.06-.88-.16-2.6-.12-4.1.04-1.34.65-2.57 1.4-3.18z"/><path fill="#78909c" d="M17.89 18.77a1.89 1.89 0 0 1 .37-.11 2.33 2.33 0 0 1 .43-.05l-.02-.12c0-.07-.04-.16-.07-.26l-.05-.13c-.02-.04-.04-.08-.06-.11l-.06-.11a3.77 3.77 0 0 1-.44-.1 3.44 3.44 0 0 1-.4-.14c-.22-.09-.43-.2-.54-.32a.412.412 0 0 1-.16-.34.29.29 0 0 1 .07-.15.47.47 0 0 1 .16-.12l-.13-.07c-.04-.02-.08-.05-.14-.07-.05-.03-.11-.05-.17-.08-.11-.05-.22-.11-.32-.14l-.15-.06a2.93 2.93 0 0 1-.34.02c-.12 0-.25 0-.37-.01-.24-.02-.49-.05-.7-.12a1.74 1.74 0 0 1-.28-.1 1.32 1.32 0 0 1-.21-.11c-.11-.08-.19-.16-.19-.25l-.17-.03c-.1-.02-.33-.05-.47-.07 0 .02-.02.05-.02.09l-.04.17c-.07.35.13.7.47.8.83.24 1.46.64 1.64 1.13.37.99-1.18 1.96-3.52 1.96-2.35 0-3.89-.97-3.53-1.96.18-.48.78-.87 1.59-1.11a.72.72 0 0 0 .49-.84l-.05-.24-.31.04c-.14.02-.27.04-.37.06l-.17.03c.01.08-.05.17-.16.25a1.4 1.4 0 0 1-.2.12 2.41 2.41 0 0 1-.27.1 2.74 2.74 0 0 1-.33.08 3.3 3.3 0 0 1-.36.05c-.25.02-.5.02-.73 0l-.04.02c-.02.01-.07.03-.11.05l-.31.15c-.11.05-.21.12-.29.16l-.1.05-.03.02c.16.07.24.17.26.28.04.11-.01.23-.12.35a1.5 1.5 0 0 1-.22.18 1.98 1.98 0 0 1-.32.17 3.42 3.42 0 0 1-.83.26.53.53 0 0 0-.05.11l-.09.25-.04.26a.41.41 0 0 0-.01.12c.32 0 .61.06.83.14.25.08.4.21.52.36.09.16.13.33.05.53-.06.19-.22.41-.47.6l.04.03.12.08c.1.07.23.17.38.26l.44.24c.06.03.12.06.16.07a1.11 1.11 0 0 0 .06.03c.36-.15.75-.23 1.14-.28a3.34 3.34 0 0 1 .57-.01c.19.01.38.02.55.07.18.05.35.09.5.16a2.86 2.86 0 0 1 .42.24c.26.17.45.42.54.68l.33.01c.2.01.46.02.73.01l.72-.03.32-.03a1 1 0 0 1 .17-.38 1.22 1.22 0 0 1 .14-.16 1.61 1.61 0 0 1 .55-.39 2.29 2.29 0 0 1 .48-.17c.18-.04.35-.07.54-.08.19-.01.38-.01.57 0a4 4 0 0 1 1.15.24l.2-.11c.11-.07.28-.15.41-.25.13-.1.27-.19.35-.26l.13-.13c-.27-.19-.43-.39-.52-.58a.64.64 0 0 1-.06-.27.39.39 0 0 1 .06-.25c.07-.16.25-.27.45-.37M9.95 13.9s.35-1.32-1.17-3.03l-.05-.05a4.2 4.2 0 0 1-.98-2.7c0-2.32 1.89-4.2 4.2-4.2h.1a4.2 4.2 0 0 1 4.2 4.2 4.2 4.2 0 0 1-.99 2.7c-.01.01-.02.03-.05.05-1.34 1.35-1.17 3.03-1.17 3.03a6.137 6.137 0 0 0 4.13-5.75c.02-3.24-2.6-6-5.83-6.15a2.51 2.51 0 0 0-.12 0h-.58c-3.23.16-5.85 2.92-5.83 6.15.01 2.59 1.67 4.9 4.13 5.75z"/></svg>