<svg xmlns="http://www.w3.org/2000/svg" xml:space="preserve" fill-rule="evenodd" stroke-linejoin="round" stroke-miterlimit="1.414" clip-rule="evenodd" viewBox="0 0 24 24" class="svg material-folder-gulp" width="16" height="16" aria-hidden="true"><path fill="#ff5252" fill-rule="nonzero" d="M10 4H4c-1.11 0-2 .89-2 2v12c0 1.097.903 2 2 2h16c1.097 0 2-.903 2-2V8a2 2 0 0 0-2-2h-8l-2-2z"/><path fill="#ffcdd2" d="M14.27 17.241a458.302 458.302 0 0 1-.37-3.835c.001-.032-.174-.058-.389-.058h-.391V11.86h3.052V8.974l1.44-.865c.877-.528 1.522-.866 1.65-.866.307 0 .666.39.666.723 0 .145-.044.324-.098.398-.053.073-.555.407-1.115.743l-1.017.61-.022 1.071-.022 1.072h3.057v1.487h-.754l-.38 3.835-.382 3.835h-4.552l-.373-3.776z"/></svg>