<svg xmlns="http://www.w3.org/2000/svg" viewBox="0 0 24 24" class="svg material-folder-graphql" width="16" height="16" aria-hidden="true"><path fill="#ec407a" d="M10 4H4c-1.11 0-2 .89-2 2v12c0 1.097.903 2 2 2h16c1.097 0 2-.903 2-2V8a2 2 0 0 0-2-2h-8l-2-2z"/><path fill="#f8bbd0" d="M17.496 8.158a1.382 1.382 0 0 0-1.355 1.643l-2.582 1.492a1.386 1.386 0 0 0-.213-.154.168.168 0 0 0-.002 0 1.382 1.382 0 0 0-1.381 2.394c.078.045.158.08.24.108v2.984c-.08.028-.16.061-.236.105a1.386 1.386 0 0 0-.506 1.887c.379.66 1.225.886 1.887.508a1.34 1.34 0 0 0 .21-.152l2.583 1.49a1.382 1.382 0 1 0 2.738.262c0-.104-.013-.204-.035-.301l2.558-1.479a1.384 1.384 0 0 0 2.129-.326h.002v-.002a1.381 1.381 0 0 0-.506-1.887 1.37 1.37 0 0 0-.236-.105v-2.986a1.38 1.38 0 0 0 .24-.106c.659-.382.885-1.23.506-1.888a1.383 1.383 0 0 0-1.887-.506.168.168 0 0 0-.002 0 1.386 1.386 0 0 0-.214.154l-2.58-1.488a1.384 1.384 0 0 0-1.357-1.646zm-1.246 2.637-3.135 5.426v-2.59c.3-.106.567-.31.737-.606.169-.294.21-.624.154-.935l2.244-1.295zm2.5.004 2.236 1.293c-.056.31-.012.64.157.933.17.296.436.5.736.606v2.586l-3.129-5.418zm-1.506.097a1.313 1.313 0 0 0 .508 0l3.539 6.131a1.373 1.373 0 0 0-.152.211 1.365 1.365 0 0 0-.106.235h-7.072a1.365 1.365 0 0 0-.106-.235.168.168 0 0 0-.001-.002 1.378 1.378 0 0 0-.15-.207l3.54-6.133zm-2.875 7.49h6.322L18.414 19.7a1.37 1.37 0 0 0-.918-.357c-.341 0-.651.13-.892.336l-2.235-1.291z"/></svg>