<svg xmlns="http://www.w3.org/2000/svg" fill="none" viewBox="0 0 220 220" class="svg material-windicss" width="16" height="16" aria-hidden="true"><path fill="#42A5F5" d="M115.85 48.404C115.85 29.984 100.865 15 82.445 15c-19.412 0-31.018 14.555-31.018 28.632h19.088c0-3.96 3.703-9.544 11.93-9.544 7.893 0 14.316 6.423 14.316 14.316 0 7.893-5.761 14.316-20.29 14.316H24.5v19.09h51.971c24.521 0 39.379-14.984 39.379-33.405zm0 0C115.85 29.984 100.865 15 82.445 15c-19.412 0-31.018 14.555-31.018 28.632h19.088c0-3.96 3.703-9.544 11.93-9.544 7.893 0 14.316 6.423 14.316 14.316 0 7.893-5.761 14.316-20.29 14.316H24.5v19.09h51.971c24.521 0 39.379-14.984 39.379-33.405zm42.347 123.192c0 18.42-14.985 33.404-33.405 33.404-19.412 0-31.018-14.555-31.018-28.632h19.088c0 3.96 3.703 9.544 11.93 9.544 7.893 0 14.316-6.423 14.316-14.316 0-7.893-7.258-14.317-20.29-14.317H61.147v-19.088h57.671c24.521 0 39.379 14.984 39.379 33.405zm0 0c0 18.42-14.985 33.404-33.405 33.404-19.412 0-31.018-14.555-31.018-28.632h19.088c0 3.96 3.703 9.544 11.93 9.544 7.893 0 14.316-6.423 14.316-14.316 0-7.893-7.258-14.317-20.29-14.317H61.147v-19.088h57.671c24.521 0 39.379 14.984 39.379 33.405z"/><path fill="#42A5F5" d="M163.2 44.45c-21.054 0-35.906 16.011-35.906 37.065H144.2c0-10.465 7.6-18.065 19-18.065s17.1 7.6 17.1 18.065c0 10.466-7.403 19.089-27.55 19.089H24.5v19.088h131.1c29.835 0 43.7-19.177 43.7-38.177 0-21.054-14.25-37.065-36.1-37.065zM49.523 138.191H24.5v19.249h25.023v-19.249z"/></svg>