<svg xmlns="http://www.w3.org/2000/svg" viewBox="0 0 300 300" class="svg material-svelte" width="16" height="16" aria-hidden="true"><path d="M175.94 24.328c-13.037.252-26.009 3.872-37.471 11.174L79.912 72.818a67.134 67.134 0 0 0-30.355 44.906 70.794 70.794 0 0 0 6.959 45.445 67.224 67.224 0 0 0-10.035 25.102 71.535 71.535 0 0 0 12.236 54.156c23.351 33.41 69.468 43.311 102.81 22.07l58.559-37.158a67.359 67.359 0 0 0 30.355-44.906 70.771 70.771 0 0 0-6.982-45.422 67.65 67.65 0 0 0 10.059-25.102 71.625 71.625 0 0 0-12.236-54.156v-.18c-15.324-21.925-40.453-33.727-65.342-33.246zm5.137 28.68a46.5 46.5 0 0 1 36.09 19.969 42.975 42.975 0 0 1 7.365 32.557 45.242 45.242 0 0 1-1.393 5.455l-1.123 3.37-2.986-2.247a75.846 75.846 0 0 0-22.902-11.45l-2.244-.651.201-2.246a13.157 13.157 0 0 0-2.379-8.711 13.988 13.988 0 0 0-14.953-5.412 12.843 12.843 0 0 0-3.594 1.572l-58.578 37.25a12.237 12.237 0 0 0-5.502 8.15 13.112 13.112 0 0 0 2.246 9.834 14.033 14.033 0 0 0 14.93 5.569 13.472 13.472 0 0 0 3.594-1.573l22.453-14.234a41.785 41.785 0 0 1 11.898-5.232 46.477 46.477 0 0 1 49.914 18.502 43.02 43.02 0 0 1 7.363 32.557 40.415 40.415 0 0 1-18.254 27.078l-58.58 37.316a43.065 43.065 0 0 1-11.898 5.23A46.545 46.545 0 0 1 82.81 227.14a42.975 42.975 0 0 1-7.341-32.557 38.17 38.17 0 0 1 1.39-5.41l1.102-3.37 3.008 2.246a75.846 75.846 0 0 0 22.836 11.361l2.244.65-.201 2.247a13.247 13.247 0 0 0 2.447 8.644 14.033 14.033 0 0 0 15.043 5.569 13.135 13.135 0 0 0 3.592-1.573l58.467-37.316a12.169 12.169 0 0 0 5.502-8.173 12.955 12.955 0 0 0-2.246-9.811 14.033 14.033 0 0 0-15.043-5.568 12.843 12.843 0 0 0-3.592 1.57l-22.453 14.258a42.885 42.885 0 0 1-11.877 5.209 46.522 46.522 0 0 1-49.846-18.5 43.02 43.02 0 0 1-7.297-32.557A40.415 40.415 0 0 1 96.798 96.98l58.646-37.316a42.773 42.773 0 0 1 11.811-5.21 46.5 46.5 0 0 1 13.822-1.444z" style="fill:#ff5722;stroke-width:2.2453"/></svg>