<svg xmlns="http://www.w3.org/2000/svg" viewBox="0 0 24 24" class="svg material-r" width="16" height="16" aria-hidden="true"><path fill="#1976d2" d="M11.956 4.05c-5.694 0-10.354 3.106-10.354 6.947 0 3.396 3.686 6.212 8.531 6.813v2.205h3.53V17.82c.88-.093 1.699-.259 2.475-.497l1.43 2.692h3.996l-2.402-4.048c1.936-1.263 3.147-3.034 3.147-4.97 0-3.841-4.659-6.947-10.354-6.947m1.584 2.712c4.349 0 7.558 1.45 7.558 4.753 0 1.77-.952 3.013-2.505 3.779a1.081 1.081 0 0 1-.228-.156c-.373-.165-.994-.352-.994-.352s3.085-.227 3.085-3.302-3.23-3.127-3.23-3.127h-7.092v7.413c-2.64-.766-4.462-2.392-4.462-4.255 0-2.63 3.52-4.753 7.868-4.753m.156 4.12h2.143s.983-.05.983.974c0 1.004-.983 1.004-.983 1.004h-2.143v-1.977m-.031 4.566h.952c.186 0 .28.052.445.207.135.103.28.3.404.476-.57.073-1.17.104-1.801.104z"/></svg>