<svg xmlns="http://www.w3.org/2000/svg" viewBox="0 0 300 300" class="svg material-grunt" width="16" height="16" aria-hidden="true"><path fill="#fba919" d="M61.045 79.22s4.718 18.193 5.39 24.259c.675 6.064-12.128 19.54-12.128 26.279 0 6.74 2.691 18.87 17.518 24.935 14.827 6.065 16.847 21.563 16.847 31 0 9.433-5.39 27.626-5.39 27.626s-3.368 45.148 14.825 53.234c18.192 8.086 14.151 8.086 18.192 8.086 4.037 0 33.688 12.136 51.21 7.416 17.523-4.711 22.234-10.105 22.234-10.105s17.523 1.348 22.908-14.151c5.394-15.492 8.757-47.84 6.735-62.665s-4.72-34.362 7.408-41.105c12.129-6.734 24.931-14.825 22.908-21.56S236.9 116.297 236.9 116.297s-2.697-16.84-.683-20.885c2.023-4.038 14.151-14.152 7.409-21.56-6.734-7.409-18.871-7.409-18.871-7.409l-15.491 1.34s-26.27-23.59-60.641-22.242c-34.346 1.348-55.914 22.234-55.914 22.234s-11.454-4.044-21.562 0c-10.114 4.045-12.128 0-10.106 11.454z"/><g fill="#e78724"><path d="M122.623 179.552s-13.345 20.404-23.133 34.884c-1.514 2.24 9.788 2.395 9.788 2.395l13.346-37.28zm6.353-42.303s-4.022 10.035-6.226 15.355c-2.392 5.783-11.511 8.66-11.511 8.66s4.728-4.958 4.728-17.519c0-5.262 6.802-7.359 6.802-7.359l6.208.872z"/><path d="M124.909 142.92s-8.242 9.81-23.544 4.317c-15.306-5.493-16.874-25.117-16.874-30.611s29.04 5.494 32.964 7.849 11.378 11.772 7.454 18.445zM67.104 38.09s14.126-2.75 23.544 4.707c9.422 7.456 12.165 13.344 12.165 13.344L86.939 68.724s-7.67-3.557-10.026-13.761c-2.353-10.203-.783-14.911-9.81-16.873z"/><path d="M120.79 114.585c-6.084-8.634-16.107-12.4-24.11-13.025-13.646-1.066-20.125 3.758-20.125 3.758s22.349.946 28.79 9.407c11.992 15.746 29.487 17.025 32.284 13.567-3.235.161-6.793-1.442-10.602-5.043-2.38-2.253-4.309-5.924-6.239-8.664zm-37.73 30.528s-24.795-8.525-20.084-17.156c4.71-8.635.962-13.34.962-13.34s-13.847 10.337-10.32 21.324c2.17 6.742 5.808 11.626 25.783 20.984 9.58 17.793 1.978 49.829 2.434 49.977.759.246 13.452-6.274 12.585-36.246-.263-9.209-.995-21.765-11.355-25.555zm32.495-91.666c-10.398 5.283-24.642 12.638-24.642 12.638l5.606 2.804c-.534.868-.793 1.385-.793 1.385l5.748 2.616s14.044 10.176 22.653 16.717c-2.87-8.835-11.298-22.717-11.298-22.717s-2.393-6.378 2.713-13.444zm34.54 215.317c-31.958 0-42.783-16.223-42.783-16.223l4.995 12.161c1.888 5.263 22.027 21.634 37.74 21.634"/><path d="M110.815 241.575s2.94 17.97 14.713 17.97c10.004 0 12.952-15.179 12.952-18.316l-27.666.346zm-19.593-27.1c1.046-2.88 4.709-14.522 5.885-25.116 1.406-12.69.897-31.249.897-31.249s-3.141 12.166-5.896 14.132c-2.746 1.96-7.853 15.302-7.853 15.302s-2.738 19.862-4.037 26.538c3.602.722 6.628-1.4 10.986.393zm-28.43-78.732s6.668-2.356 8.634-16.874c1.96-14.521-2.357-27.079-2.357-27.079s.392 20.014-1.961 23.94c-2.357 3.922-4.317 5.1-7.065 10.204-2.749 5.103 1.176 8.239 2.749 9.81z"/></g><path fill="#fdc168" d="m70.755 41.524-1.361-.864c-4.015.137 1.362.864 1.362.864z"/><path fill="#fba919" d="M120.987 49.146s-6.278-1.046-9.419-5.754c-3.14-4.71-12.034-14.13-26.213-14.235-14.176-.107-28.204 3.768-28.204 3.768l12.244 7.73c1.296-.042 3.56-.025 7.305.098 15.366.51 17.732 15.705 17.732 15.705l54.162-7.457"/><path fill="#fff" d="M126.216 133.094s-7.326 7.326-18.576 4.97c-11.251-2.354-18.055-7.325-18.578-15.96-.523-8.634 2.357-12.034 2.357-12.034s12.564 3.93 18.583 9.16c6.019 5.238 10.467 13.608 16.223 13.871z"/><path fill="#c9c9c9" d="M117.352 130.48s-6.353 2.902-13.455.537c-9.297-3.1-9.917-12.77-9.917-12.77s-5.702 16.737 10.287 19.959c12.825 2.583 20.41-4.848 20.41-4.848l-7.325-2.878z"/><g fill="#463014"><path d="M121.866 45.596c-.684-14.354 11.083-25.787 15.16-26.272.225 2.432-.227 11.919 3.848 14.836 1.187-7.746 5.2-16.29 21.045-21.889-3.394 9-.453 16.54.947 20.034 10.82-9.82 18.11-8.198 18.11-8.198s-7.518 12.973-4.577 21.486c-21.721-1.704-54.427 2.307-54.533.003zM75.817 67.459c-5.182-4.3-1.32-8.29-1.729-13.175-.222-2.599-.427-5.052-1.285-6.406-4.77-7.53-16.018-9.815-16.133-9.839l-5.279-1.034 3.495-4.09c.452-.53 14.809-14.225 37.026-7.055 15.541 5.013 27.044 22.007 27.472 22.695l-7.787 3.663c-.09-.145-9.184-16.119-22.513-20.417-10.772-3.478-20.705-.17-24.964 1.998 4.522 1.806 10.434 5.094 14.003 10.72 1.686 2.655 1.965 6.002 2.237 9.24.361 4.288.698 8.336 3.856 10.957l-8.387 2.743zm-13.842 62.765s6.53-8.097 8.464-23.852c.76-6.206-.59-18.446-2.749-23.155.392 11.578-2.55 23.155-2.55 23.155s-1.982 21.497-3.158 23.852z"/><path d="M96.41 59.281c-.004-.016-2.096-9.158-7.894-13.773-8.182-6.507-18.17-3.045-18.267-3.015l-1.447-4.481c.485-.156 11.906-3.754 22.423 3.642 10.582 7.439 11.857 14.181 11.964 14.926l-6.776 2.701zm-13.923 65.136s-3.426-4.904-2.81-10.297c.307-2.664 1.541-5.397 3.745-6.367 4.094-1.793 5.912 2.845 5.912 2.845s-5.764 1.422-6.842 13.822z"/><path d="M120.099 131.893c.143.268.216.417.216.417s-10.685 8.019-21.634-.118c-5.863-4.358-5.308-15.138-3.513-19.71 4.67 1.061 8.63 2.969 11.941 5.197-4.183-3.733-7.846-6.48-7.836-6.545l-4.755-1.349-9.242-3.165c-.119.707-3.49 16.51 6.24 27.274 4.314 4.777 24.533 15.467 34.133-2.812l-5.55.83z"/><path d="M119.095 133.07c6.016 9.155 21.194 3.923 20.933-5.757 0 0-10.142 5.598-19.101-4.708-5.232-6.01-21.996-22.604-44.727-17.086 15.698 3.453 36.48 17.793 42.895 27.562z"/><path d="M74.077 158.905c1.447.836 6.55 6.121 6.553 14.027 0 3.964-.395 23.879-2.357 36.044 2.952 1.918 5.008 2.325 7.946 4.28 1.472-14.09 2.526-34.512 2.034-42.756-.559-9.398-5.591-15.705-10.253-18.394a187.257 187.257 0 0 0-4.523-2.498c-7.992-4.318-16.256-8.786-16.256-16.414 0-5.967 2.319-7.833 4.777-9.812l.264-.214c1.628-1.317 3.478-2.81 4.571-5.262 2.985-6.704 3.47-23.78 0-28.116-1.726-2.162-6.364-9.43-5.032-14.307.51-1.866 1.686-3.248 3.593-4.226 2.023-1.036 4.753-1.563 8.116-1.563 6.603 0 13.93 2.007 17.703 3.207 13.502 4.276 29.79 16.61 34.461 20.294l.23.172 2.985 2.08-1.866-3.132c-.115-.198-11.948-19.66-33.113-26.798-4.12-1.39-12.202-3.716-20.153-3.716-4.728 0-8.75.822-11.931 2.45-3.873 1.982-6.496 5.147-7.59 9.144-2.672 9.8 6.036 20.712 6.332 21.066 1.02 1.809 1.447 14.965-.897 20.236-.32.723-1.2 1.439-2.327 2.343-.345.28-.74.576-1.159.888-3.305 2.492-8.305 6.266-8.305 14.957 0 11.89 12.063 18.345 21.749 23.525 1.595.855 3.108 1.66 4.481 2.45z"/><path d="M75.817 67.459c-5.182-4.3-1.32-8.29-1.729-13.175-.222-2.599-.427-5.052-1.285-6.406-4.77-7.53-16.018-9.815-16.133-9.839l-5.279-1.034 3.495-4.09c.452-.53 14.809-14.225 37.026-7.055 15.541 5.013 27.044 22.007 27.472 22.695l-7.787 3.663c-.09-.145-9.184-16.119-22.513-20.417-10.772-3.478-20.705-.17-24.964 1.998 4.522 1.806 10.434 5.094 14.003 10.72 1.686 2.655 1.965 6.002 2.237 9.24.361 4.288.698 8.336 3.856 10.957l-8.387 2.743z"/><path d="m75.649 68.34-.335-.278c-3.843-3.182-3.161-6.331-2.501-9.365.3-1.398.617-2.854.488-4.342-.21-2.5-.41-4.86-1.164-6.052-4.539-7.17-15.516-9.464-15.623-9.489l-6.595-1.299 4.375-5.106c.082-.09 9.3-9.398 24.906-9.398 4.26 0 8.617.707 12.95 2.113 16.216 5.23 27.793 22.85 27.9 23.023l.469.748-9.218 4.342-.37-.584c-.987-1.686-9.727-16.1-22.094-20.088-3.034-.987-6.233-1.48-9.505-1.48-5.92 0-10.723 1.62-13.28 2.697 4.276 1.924 9.448 5.164 12.729 10.336 1.784 2.82 2.072 6.257 2.351 9.58.346 4.135.675 8.025 3.577 10.434l1.094.904-10.147 3.33z"/><path d="M96.41 59.281c-.004-.016-2.096-9.158-7.894-13.773-8.182-6.507-18.17-3.045-18.267-3.015l-1.447-4.481c.485-.156 11.906-3.754 22.423 3.642 10.582 7.439 11.857 14.181 11.964 14.926l-6.776 2.701z"/><path d="m95.842 60.35-.204-.9c-.021-.087-2.072-8.916-7.62-13.326-3.16-2.516-6.972-3.79-11.322-3.79-3.396 0-5.92.814-6.195.904l-.75.255-1.94-5.978.747-.238c.338-.107 3.364-1.053 7.656-1.053 5.657 0 11.002 1.661 15.466 4.802 10.854 7.63 12.178 14.678 12.293 15.459l.099.616-8.206 3.273zM76.696 40.762c4.648 0 8.905 1.43 12.301 4.131 4.926 3.923 7.242 10.846 7.943 13.33l5.337-2.128c-.483-1.885-2.61-7.54-11.512-13.798-4.257-2.993-9.156-4.509-14.562-4.509-2.967 0-5.27.472-6.41.76l.962 2.977a23.313 23.313 0 0 1 5.941-.763zm48.339 214.47c-2.32 0-4.686-.84-6.326-2.26-1.256-1.083-5.501-4.984-7.374-9.761-.699-1.787-.543-3.215.472-4.245.699-.704 2.15-1.547 5.094-1.547l2.095-.003c2.5-.003 6.701-.003 10.295-.003h3.445c2.245 0 3.848.485 4.769 1.43 1.184 1.218.806 2.772.477 3.586-.576 1.43-2.96 6.085-7.006 10.402-1.447 1.554-3.552 2.409-5.928 2.409zm2.43-121.628-8.371-.539s2.14 3.773 3.526 8.652c1.565 5.517-1.431 13.584-1.431 13.584s11.162-12.638 6.276-21.7zm-10.452 143.73c-29.797-2.29-40.28-30.446-40.28-36.31l7.781.003h-3.89 3.89c.04 2.54 7.958 26.625 33.096 28.557l-.596 7.762z"/></g><path fill="#fff" d="M108.644 226.897c-.465-2.691-.513-5.243.055-7.751-2.265-1.702-6.328-2.335-9.377-3.33-2.5-1.579-15.253 1.611-24.512-9.588-11.602-14.028-9.16-22.406-9.16-22.406-2.976 3.305-5.854 2.039-10.393 17.448s2.13 26.148 14.562 36.928c5.87 5.09 14.176 7.186 21.313 7.992-2.393-2.401 4.087-2.648 8.551-4.317-.361-3.61.239-7.104 2.928-9.925 1.62-1.702 3.708-2.713 5.87-3.527.124-.28.223-.535.338-.806a7.264 7.264 0 0 1-.19-.756z"/><path fill="#c9c9c9" d="M99.632 241.805c-.257-.757-.452-1.53-.643-2.305-.206-.847-1.234-3.25.033-.507a10.17 10.17 0 0 1-.696-2.155c-20.129-.026-37.643-13.846-34.255-42.905-2.632-3.499-6.324 7.055-6.324 7.055S47.675 230.25 73.7 241.59c8.675 3.782 16.339 6.494 18.148 5.4 3.765.765 7.17-1.86 8.444-3.588-.238-.53-.452-1.06-.641-1.599z"/><path fill="#463014" d="M108.283 222.68c.03-2.454.532-4.83 1.718-7.196.082-.164.179-.32.267-.478-7.745-.066-16.667-.809-24.264-3.848-8.346-3.341-18.79-14.768-20.59-28.194 0 0-15.721 12.135-11.1 38.108 4.333 24.39 24.741 32.342 48.02 33.687.016-.158-2.615-5.592-1.785-8.918-13.213.962-27.998-4.144-35.127-15.886-6.528-10.738-4.695-29.083-2.014-31.772 6.553 20.664 30.111 24.865 44.887 24.504z"/><path fill="#463014" d="M110.717 207.887c-4.189 12.292-12.745 22.24-12.745 22.24s11.77-.543 12.419-2.624c.481-1.537 10.627-25.284 14.521-53.11-3.663 6.02-13.837 32.43-14.195 33.483z"/><g fill="#e78724"><path d="M177.394 179.552s13.34 20.404 23.132 34.884c1.515 2.24-9.791 2.395-9.791 2.395zm-6.356-42.303s4.024 10.035 6.224 15.355c2.393 5.783 11.512 8.66 11.512 8.66s-4.728-4.958-4.728-17.519c0-5.262-6.802-7.359-6.802-7.359l-6.2.872z"/><path d="M175.1 142.92s8.241 9.81 23.547 4.317 16.875-25.117 16.875-30.611-29.04 5.494-32.965 7.849c-3.926 2.355-11.38 11.772-7.457 18.445zm57.804-104.83s-14.126-2.75-23.546 4.707c-9.423 7.456-12.17 13.344-12.17 13.344l15.87 12.582s7.672-3.556 10.024-13.76c2.351-10.203.78-14.911 9.81-16.873z"/><path d="M179.227 114.585c6.083-8.634 16.103-12.4 24.109-13.025 13.647-1.066 20.122 3.758 20.122 3.758s-22.349.946-28.791 9.407c-11.993 15.746-29.481 17.025-32.279 13.567 3.232.161 6.792-1.442 10.6-5.043 2.375-2.253 4.308-5.924 6.232-8.664zm37.727 30.528s24.795-8.525 20.086-17.157c-4.709-8.642-.964-13.345-.964-13.345s13.85 10.336 10.318 21.321c-2.169 6.743-5.806 11.627-25.782 20.984-9.587 17.794-1.981 49.83-2.433 49.977-.765.247-13.453-6.273-12.59-36.245.264-9.2.996-21.765 11.356-25.556zm-32.492-91.666a5329.28 5329.28 0 0 1 24.64 12.638l-5.6 2.804c.535.868.798 1.385.798 1.385l-5.747 2.616S184.509 83.066 175.9 89.607c2.87-8.835 11.29-22.717 11.29-22.717s2.392-6.378-2.714-13.444zm-34.54 215.317c31.953 0 42.778-16.223 42.778-16.223l-4.991 12.161c-1.888 5.263-22.028 21.634-37.739 21.634"/><path d="M189.201 241.575s-2.943 17.97-14.713 17.97c-10.003 0-12.95-15.179-12.95-18.316zm19.592-27.1c-1.046-2.88-4.708-14.522-5.887-25.116-1.411-12.69-.894-31.249-.894-31.249s3.141 12.166 5.884 14.132c2.75 1.96 7.85 15.302 7.85 15.302s2.733 19.862 4.033 26.538c-3.599.722-6.627-1.4-10.985.393zm28.434-78.732s-6.673-2.356-8.634-16.874c-1.962-14.521 2.355-27.079 2.355-27.079s-.394 20.014 1.957 23.94c2.352 3.924 4.317 5.1 7.063 10.204 2.747 5.102-1.184 8.239-2.746 9.81z"/></g><path fill="#fdc168" d="m229.254 41.524 1.365-.864c4.015.137-1.365.864-1.365.864z"/><path fill="#fba919" d="M179.03 49.146s6.28-1.046 9.418-5.754c3.141-4.71 12.038-14.13 26.216-14.235 14.178-.107 28.204 3.768 28.204 3.768l-12.244 7.73c-1.296-.042-3.56-.025-7.308.098-15.364.51-17.73 15.705-17.73 15.705l-54.154-7.457"/><path fill="#fff" d="M173.8 133.094s7.327 7.326 18.575 4.97c11.252-2.354 18.055-7.325 18.578-15.96.522-8.634-2.354-12.034-2.354-12.034s-12.56 3.93-18.577 9.16-10.464 13.608-16.222 13.871z"/><path fill="#c9c9c9" d="M182.664 130.48s6.356 2.902 13.456.537c9.3-3.1 9.918-12.77 9.918-12.77s5.7 16.737-10.29 19.959c-12.822 2.583-20.408-4.848-20.408-4.848l7.324-2.878z"/><g fill="#463014"><path d="M224.197 67.459c5.182-4.3 1.322-8.29 1.731-13.175.22-2.599.425-5.052 1.283-6.406 4.77-7.53 16.02-9.815 16.135-9.839l5.28-1.034-3.495-4.09c-.453-.53-14.81-14.225-37.027-7.055-15.54 5.013-27.044 22.007-27.471 22.695l7.786 3.663c.09-.145 9.185-16.119 22.522-20.417 10.772-3.478 20.705-.17 24.956 1.998-4.523 1.806-10.435 5.094-14.003 10.72-1.686 2.655-1.966 6.002-2.237 9.24-.362 4.288-.707 8.336-3.865 10.957l8.38 2.743zm13.838 62.765s-6.526-8.097-8.46-23.852c-.76-6.206.587-18.446 2.746-23.155-.393 11.578 2.553 23.155 2.553 23.155s1.985 21.497 3.161 23.852z"/><path d="M203.607 59.281c.004-.016 2.097-9.158 7.896-13.773 8.18-6.507 18.17-3.045 18.263-3.015l1.455-4.481c-.485-.156-11.901-3.754-22.426 3.642-10.59 7.439-11.857 14.181-11.972 14.926l6.775 2.701zm13.924 65.136s3.425-4.904 2.806-10.297c-.304-2.664-1.538-5.397-3.741-6.367-4.095-1.793-5.91 2.845-5.91 2.845s5.763 1.422 6.845 13.822z"/><path d="M179.918 131.893c-.142.268-.216.417-.216.417s10.68 8.019 21.63-.118c5.866-4.358 5.313-15.138 3.512-19.71-4.666 1.061-8.626 2.969-11.94 5.197 4.186-3.733 7.848-6.48 7.835-6.545l4.759-1.349 9.234-3.165c.115.707 3.486 16.51-6.25 27.274-4.316 4.777-24.536 15.467-34.132-2.812l5.55.83z"/><path d="M180.913 133.07c-6.016 9.155-21.19 3.923-20.927-5.757 0 0 10.139 5.598 19.098-4.708 5.231-6.01 21.997-22.604 44.729-17.086-15.697 3.453-36.482 17.793-42.9 27.562z"/><path d="M225.94 158.905c-1.447.836-6.554 6.121-6.554 14.027-.003 3.964.393 23.879 2.357 36.044-2.952 1.918-5.008 2.325-7.946 4.28-1.472-14.09-2.53-34.512-2.035-42.756.562-9.398 5.592-15.705 10.257-18.394 1.461-.84 2.99-1.667 4.531-2.498 7.992-4.318 16.256-8.786 16.256-16.414 0-5.967-2.322-7.833-4.777-9.812l-.263-.214c-1.628-1.317-3.477-2.81-4.566-5.262-2.985-6.704-3.479-23.78-.009-28.116 1.727-2.162 6.365-9.43 5.033-14.307-.51-1.866-1.686-3.248-3.594-4.226-2.022-1.036-4.752-1.563-8.115-1.563-6.603 0-13.93 2.007-17.704 3.207-13.501 4.276-29.79 16.61-34.469 20.294-.131.098-.214.164-.23.172l-2.993 2.08 1.866-3.132c.116-.198 11.948-19.66 33.113-26.798 4.12-1.39 12.202-3.716 20.153-3.716 4.728 0 8.741.822 11.923 2.45 3.873 1.982 6.496 5.147 7.59 9.144 2.672 9.8-6.027 20.712-6.332 21.066-1.02 1.809-1.447 14.965.897 20.236.32.723 1.208 1.439 2.327 2.343.353.28.74.576 1.159.888 3.305 2.492 8.305 6.266 8.305 14.957 0 11.89-12.055 18.345-21.74 23.525-1.588.855-3.109 1.66-4.474 2.45z"/><path d="M211.559 66.06c-1.918-3.249-6.822-9.52-18.125-15.032-12.613-6.147-27.212-9.267-43.396-9.275v-.003h-.058v.008c-16.182.008-30.785 3.133-43.399 9.275-11.297 5.518-16.198 11.783-18.122 15.031l-.822 1.094 9.677 2.153.31-.386.163-.357c.148-.642 1.447-4.095 12.238-9.357 11.536-5.626 24.989-8.478 39.987-8.486 14.998.006 28.45 2.859 39.986 8.486 10.788 5.262 12.095 8.715 12.243 9.355l.157.356.304.387 9.678-2.155-.822-1.088z"/><path d="M224.197 67.459c5.182-4.3 1.322-8.29 1.731-13.175.22-2.599.425-5.052 1.283-6.406 4.77-7.53 16.02-9.815 16.135-9.839l5.28-1.034-3.495-4.09c-.453-.53-14.81-14.225-37.027-7.055-15.54 5.013-27.044 22.007-27.471 22.695l7.786 3.663c.09-.145 9.185-16.119 22.522-20.417 10.772-3.478 20.705-.17 24.956 1.998-4.523 1.806-10.435 5.094-14.003 10.72-1.686 2.655-1.966 6.002-2.237 9.24-.362 4.288-.707 8.336-3.865 10.957l8.38 2.743z"/><path d="m214.223 65.017 1.09-.908c2.903-2.408 3.228-6.296 3.578-10.43.282-3.33.572-6.767 2.354-9.587 3.274-5.172 8.458-8.404 12.728-10.336-2.557-1.086-7.36-2.697-13.284-2.697-3.273 0-6.465.493-9.502 1.472-12.367 3.988-21.104 18.394-22.094 20.087l-.37.584-9.218-4.333.469-.748c.11-.173 11.676-17.794 27.895-23.024 4.342-1.406 8.7-2.113 12.959-2.113 15.615 0 24.832 9.308 24.906 9.399l4.375 5.114-6.595 1.291c-.107.017-11.084 2.319-15.623 9.489-.748 1.192-.946 3.552-1.16 6.052-.123 1.488.19 2.935.494 4.341.658 3.034 1.34 6.184-2.5 9.366l-.329.271-10.146-3.33z"/><path d="M203.607 59.281c.004-.016 2.097-9.158 7.896-13.773 8.18-6.507 18.17-3.045 18.263-3.015l1.455-4.481c-.485-.156-11.901-3.754-22.426 3.642-10.59 7.439-11.857 14.181-11.972 14.926l6.775 2.701z"/><path d="m195.968 57.08.09-.615c.116-.778 1.442-7.828 12.29-15.454 4.465-3.136 9.818-4.795 15.467-4.795 4.292 0 7.318.946 7.655 1.053l.749.246-1.94 5.978-.75-.247c-.279-.09-2.803-.904-6.19-.904-4.35 0-8.158 1.283-11.315 3.799-5.542 4.415-7.598 13.238-7.614 13.329l-.198.904-8.206-3.273zm33.294-15.557.966-2.975c-1.14-.29-3.447-.76-6.414-.76-5.405 0-10.305 1.518-14.562 4.51-8.903 6.257-11.03 11.912-11.513 13.797l5.342 2.127c.699-2.483 3.013-9.408 7.94-13.329 3.404-2.702 7.655-4.13 12.3-4.13 2.673 0 4.827.46 5.946.76zm-60.209 211.304c-4.043-4.323-6.435-8.975-7.013-10.404-.33-.814-.708-2.365.479-3.585.924-.943 2.526-1.427 4.766-1.427h3.453c3.594 0 7.795 0 10.295.008l2.097.008c2.943 0 4.399.847 5.09 1.546 1.02 1.028 1.175 2.459.476 4.251-1.874 4.777-6.117 8.683-7.375 9.76-1.645 1.423-4.005 2.262-6.323 2.262-2.377 0-4.482-.856-5.929-2.401zm3.5-119.227 8.367-.539s-2.138 3.773-3.523 8.652c-1.57 5.517 1.43 13.584 1.43 13.584s-11.166-12.639-6.281-21.7z"/></g><path fill="#e78724" d="M150.004 103.715c-5.336 0-12.293-.146-17.512-3.898 0 0 6.834 11.982 17.503 11.982l.008-1.516.01 1.516c10.67 0 17.504-11.98 17.504-11.98-5.22 3.75-12.182 3.897-17.513 3.897z"/><path fill="#463014" d="M164.698 103.657c-5.353 3.24-10.132 4.362-14.691 4.462-4.56-.1-9.339-1.222-14.692-4.461 0 0 7.795 9.513 14.653 9.587v.009h.038c.012 0 .024.008.038.008 6.858-.074 14.661-9.58 14.661-9.58zm18.3 173.686-.598-7.758c25.137-1.932 33.055-26.019 33.096-28.554h7.787c.008 5.863-10.484 34.022-40.274 36.311z"/><path fill="#fff" d="M191.372 226.897c.467-2.691.512-5.243-.055-7.751 2.268-1.702 6.328-2.335 9.377-3.33 2.493-1.579 15.255 1.611 24.512-9.588 11.596-14.028 9.151-22.406 9.151-22.406 2.977 3.305 5.856 2.039 10.392 17.448 4.539 15.41-2.134 26.148-14.564 36.928-5.87 5.09-14.174 7.186-21.314 7.992 2.392-2.401-4.079-2.648-8.544-4.317.362-3.61-.238-7.104-2.927-9.925-1.612-1.702-3.7-2.713-5.863-3.527-.123-.28-.222-.535-.337-.806.074-.247.14-.493.19-.756z"/><path fill="#c9c9c9" d="M200.376 241.805c.261-.757.452-1.53.644-2.305.21-.847 1.238-3.25-.03-.507a10.17 10.17 0 0 0 .695-2.155c20.13-.026 37.643-13.846 34.257-42.905 2.635-3.499 6.328 7.055 6.328 7.055s10.078 29.262-15.95 40.603c-8.672 3.782-16.335 6.494-18.144 5.4-3.77.765-7.17-1.86-8.442-3.588.238-.53.46-1.06.65-1.599z"/><g fill="#463014"><path d="M191.734 222.68c-.028-2.454-.532-4.83-1.715-7.196-.083-.164-.18-.32-.268-.478 7.746-.066 16.668-.809 24.265-3.848 8.35-3.341 18.795-14.768 20.59-28.194 0 0 15.726 12.135 11.105 38.108-4.341 24.39-24.747 32.342-48.023 33.687-.013-.158 2.619-5.592 1.787-8.918 13.213.962 27.998-4.144 35.135-15.886 6.529-10.738 4.695-29.083 2.014-31.772-6.545 20.664-30.11 24.865-44.887 24.504z"/><path d="M201.132 228.797c-2.78-3.006-7.893-6.59-19.682-6.59l-31.394-.019h-.074c-9.045.007-31.402.02-31.402.02-11.783 0-16.898 3.584-19.677 6.589-4.054 4.374-4.687 10.461-1.883 18.069 7.45 20.249 17.925 40.821 52.97 40.85v.003h.041c.017 0 .025.008.041.008 35.045-.024 45.52-20.597 52.97-40.85 2.804-7.606 2.171-13.69-1.883-18.065zm-5.456 16.649c-3.55 10.168-13.09 34.78-45.669 34.823-32.58-.043-42.117-24.654-45.668-34.823-1.963-5.64-1.814-9.816.46-12.41 1.555-1.772 5.123-3.889 13.255-3.889l8.497-.002c6.268-.006 14.138-.013 23.459-.017 9.316.004 17.19.01 23.457.017l8.493.003c8.135 0 11.703 2.113 13.257 3.88 2.272 2.591 2.423 6.768.459 12.409z"/><path d="M189.292 207.887c4.188 12.292 12.743 22.24 12.743 22.24s-11.766-.543-12.416-2.624c-.477-1.537-10.624-25.284-14.513-53.11 3.667 6.02 13.839 32.43 14.2 33.483z"/></g></svg>