<svg xmlns="http://www.w3.org/2000/svg" xml:space="preserve" stroke-linejoin="round" stroke-miterlimit="1.414" clip-rule="evenodd" viewBox="0 0 24 24" class="svg material-folder-terraform-open" width="16" height="16" aria-hidden="true"><path fill="#5c6bc0" d="M19 20H4a2 2 0 0 1-2-2V6c0-1.11.89-2 2-2h6l2 2h7c1.097 0 2 .903 2 2H4v10l2.14-8h17.07l-2.28 8.5c-.23.87-1.01 1.5-1.93 1.5z"/><g fill="#c5cae9"><path d="m19.903 17.826 3.822-2.205v-4.416l-3.822 2.209" class="material-folder-terraform-open__rect-dark"/><path d="m15.66 11.205 3.823 2.209v4.412l-3.822-2.207m-4.242-2.464 3.822 2.207v-4.414L11.42 8.741m4.242 11.777 3.822 2.207v-4.414l-3.822-2.207" class="material-folder-terraform-open__rect-light"/></g></svg>