<svg xmlns="http://www.w3.org/2000/svg" viewBox="0 0 40 40" class="svg material-livescript" width="16" height="16" aria-hidden="true"><g fill="#317eac"><path d="M5.419 3.18h3.685v34.207H5.419z"/><path d="M37.074 31.2v3.685H2.867V31.2z"/><path d="m29.614 8.66 2.004 2.005L7.43 34.853l-2.004-2.005z"/><path d="M10.73 5.47h2.835v22.08H10.73zm4.63.05h2.835v17.382H15.36zm4.63-.05h2.835v12.802H19.99zm4.536.02h2.835v8.254h-2.835zm4.257-.03h2.835v5.197h-2.835z"/><path d="M34.801 29.54v-2.835h-22.08v2.835zm-.048-4.63v-2.835H17.371v2.835zm.048-4.63v-2.835H21.999v2.835zm-.02-4.53v-2.835h-8.254v2.835zm.028-4.26V8.655h-5.197v2.835z"/></g></svg>