<svg xmlns="http://www.w3.org/2000/svg" viewBox="0 0 50.843 50.843" class="svg material-quasar" width="16" height="16" aria-hidden="true"><path fill="#263238" d="M8738-1513.4a242.95 242.95 0 0 1-242.95 242.95 242.95 242.95 0 0 1-242.95-242.95 242.95 242.95 0 0 1 242.95-242.95A242.95 242.95 0 0 1 8738-1513.4zm835.49-622.72a1245.4 1245.4 0 0 0-190.84-249.5l-280.86 162.16c-87.542-74.78-187.04-132.06-293.24-169.95-95.887 97.176-172.06 205.76-226.97 323.85 312.64-21.278 635.53 91.872 935.29 326.07l176.76-102.05a1245.4 1245.4 0 0 0-120.14-290.57zm.071 1245.3a1245.4 1245.4 0 0 0 120.65-290.02L9413.351-1343c20.99-113.2 20.848-228.01.563-338.93-132.1-34.452-264.22-46.128-393.94-34.635 174.75 260.12 238.2 596.32 185.26 973.02l176.76 102.05a1245.4 1245.4 0 0 0 191.57-249.33zm-1078.4 622.72a1245.4 1245.4 0 0 0 311.49-40.525v-324.31c108.53-38.425 207.88-95.948 293.8-168.98-36.214-131.63-92.163-251.89-166.98-358.48-137.89 281.39-397.33 504.45-750.03 646.95v204.11a1245.4 1245.4 0 0 0 311.71 41.242zm-1078.5-622.6a1245.4 1245.4 0 0 0 190.84 249.5l280.86-162.16c87.542 74.78 187.04 132.06 293.24 169.95 95.887-97.177 172.06-205.76 226.97-323.85-312.64 21.277-635.53-91.872-935.29-326.07l-176.76 102.05a1245.4 1245.4 0 0 0 120.14 290.57zm-.073-1245.3a1245.4 1245.4 0 0 0-120.65 290.02l280.86 162.16c-20.99 113.2-20.848 228.01-.563 338.93 132.1 34.453 264.22 46.129 393.94 34.636-174.75-260.12-238.2-596.32-185.26-973.02l-176.76-102.05a1245.4 1245.4 0 0 0-191.57 249.33zm1078.4-622.72a1245.4 1245.4 0 0 0-311.49 40.525v324.31c-108.53 38.424-207.88 95.948-293.8 168.98 36.214 131.63 92.164 251.89 166.98 358.48 137.9-281.39 397.33-504.45 750.03-646.95v-204.11a1245.4 1245.4 0 0 0-311.71-41.243z" style="fill:#1976d2" transform="translate(-120.01 51.331) scale(.01712)"/></svg>