<svg xmlns="http://www.w3.org/2000/svg" viewBox="0 0 24 24" class="svg material-assembly" width="16" height="16" aria-hidden="true"><path fill="#ff6e40" d="M1.7 1.547V22.45h3.382v-2.088H3.391V3.636h1.691v-2.09zm17.218 0v2.09h1.694v16.727h-1.694v2.09h3.383V1.548zm-3.753 2.461c-.5 0-.93.075-1.29.225-.36.149-.652.372-.877.67a2.99 2.99 0 0 0-.494 1.11 6.715 6.715 0 0 0-.156 1.54 7 7 0 0 0 .15 1.526c.101.442.265.812.49 1.11.223.299.513.525.873.677.36.152.795.23 1.304.23.518 0 .954-.075 1.308-.225a2.13 2.13 0 0 0 .868-.67c.22-.29.381-.662.485-1.113.104-.454.156-.967.156-1.54s-.052-1.078-.152-1.514a2.92 2.92 0 0 0-.485-1.106 2.09 2.09 0 0 0-.869-.686c-.353-.156-.79-.234-1.311-.234zm-6.814.12a.941.941 0 0 1-.138.458.849.849 0 0 1-.356.296 1.71 1.71 0 0 1-.503.137 5.244 5.244 0 0 1-.631.037v1.11h1.435v3.6H6.723v1.188h4.545V9.765H9.863V4.128zm6.814 1.138c.375 0 .643.176.805.527.161.347.241.932.241 1.756 0 .813-.082 1.399-.247 1.755-.164.357-.43.534-.799.534s-.636-.177-.801-.534-.247-.94-.247-1.748c0-.83.082-1.416.243-1.763.162-.35.43-.527.805-.527zm-6.33 7.64c-.5 0-.93.073-1.29.223a2.068 2.068 0 0 0-.877.673c-.226.301-.39.67-.494 1.106s-.155.949-.155 1.54c0 .573.049 1.082.15 1.527.1.442.264.813.49 1.112.222.299.514.524.874.677s.793.228 1.302.228c.518 0 .954-.075 1.308-.225a2.14 2.14 0 0 0 .869-.67c.219-.29.38-.662.484-1.113.104-.454.156-.967.156-1.54s-.05-1.078-.15-1.514a2.923 2.923 0 0 0-.487-1.106 2.084 2.084 0 0 0-.867-.686c-.353-.156-.792-.233-1.313-.233zm5.845.118a.941.941 0 0 1-.137.458.849.849 0 0 1-.357.296c-.134.064-.301.11-.502.137a5.245 5.245 0 0 1-.631.037v1.112h1.435v3.597h-1.435v1.189h4.544v-1.19h-1.404v-5.637H14.68zm-5.845 1.138c.375 0 .643.176.805.527.161.347.241.932.241 1.755 0 .814-.08 1.4-.245 1.756-.164.357-.432.534-.8.534s-.637-.177-.802-.534-.245-.939-.245-1.746c0-.83.08-1.418.241-1.765.162-.35.43-.527.805-.527z"/></svg>