<svg xmlns="http://www.w3.org/2000/svg" viewBox="0 0 256 256" class="svg material-mint" width="16" height="16" aria-hidden="true"><defs><linearGradient id="material-mint__a" x1="260.59" x2="260.59" y1="665.14" y2="435.85" gradientTransform="translate(-121.68 -399.26) scale(.95906)" gradientUnits="userSpaceOnUse"><stop offset="0" stop-color="#247e3d"/><stop offset="1" stop-color="#56cf86"/></linearGradient></defs><path fill="url(#material-mint__a)" fill-rule="evenodd" d="M128 18.753c-2.84 10.841-27.094 17.766-28.772 31.512l-2.738-8.22C82.21 60.232 83.473 69.446 83.473 69.446l-1.2-6.593c-10.422 17.426-8.215 25.963-7.012 28.566l.505.892s-.225-.287-.505-.892l-2.748-4.846c-10.824 29.941-1.371 39.133-1.371 39.133l-5.822-6.764c-2.573 22.94 4.11 32.368 4.11 32.368l-4.196-3.94c-.534 15.582 9.677 24.833 9.677 24.833l-6.73-4.615c12.951 56.58 38.666 58.104 41.982 58.061l-10.25.331c6.836 7.318 15.562 10.156 21.464 11.267 3.218-17.067 6.176-58.395 6.623-166.69.447 108.29 3.407 149.62 6.625 166.69 5.903-1.112 14.629-3.951 21.464-11.267l-10.248-.33c3.32.042 29.03-1.488 41.98-58.062l-6.73 4.616s10.211-9.25 9.677-24.833l-4.196 3.94s6.683-9.427 4.11-32.368l-5.822 6.764s9.453-9.192-1.371-39.133l-2.746 4.84c-.281.609-.508.895-.508.895l.508-.894c1.204-2.609 3.403-11.145-7.015-28.561l-1.199 6.593s1.264-9.215-13.017-27.402l-2.74 8.221c-1.677-13.745-25.93-20.67-28.771-31.51z" style="fill:#43a047"/></svg>