<svg xmlns="http://www.w3.org/2000/svg" xml:space="preserve" stroke-linejoin="round" stroke-miterlimit="1.414" clip-rule="evenodd" viewBox="0 0 24 24" class="svg material-folder-javascript-open" width="16" height="16" aria-hidden="true"><path fill="#ffca28" d="M19 20H4a2 2 0 0 1-2-2V6c0-1.11.89-2 2-2h6l2 2h7c1.097 0 2 .903 2 2H4v10l2.14-8h17.07l-2.28 8.5c-.23.87-1.01 1.5-1.93 1.5z"/><path fill="#ffecb3" d="M17.935 18.374a2.18 2.18 0 0 0 1.972 1.213c.829 0 1.354-.415 1.354-.987 0-.682-.542-.927-1.452-1.324l-.502-.216c-1.435-.613-2.404-1.378-2.404-3.005 0-1.5 1.167-2.638 2.917-2.638a2.957 2.957 0 0 1 2.842 1.599l-1.552.999a1.362 1.362 0 0 0-1.29-.858.873.873 0 0 0-.957.858c0 .583.374.84 1.226 1.213l.502.216c1.697.733 2.654 1.47 2.654 3.139 0 1.798-1.412 2.783-3.308 2.783a3.839 3.839 0 0 1-3.618-2.046zm-7.048.175c.315.583.583 1.027 1.283 1.027s1.066-.256 1.066-1.255v-6.774h1.998v6.804c0 2.064-1.214 3.01-2.982 3.01a3.104 3.104 0 0 1-2.993-1.826z"/></svg>