<svg xmlns="http://www.w3.org/2000/svg" xml:space="preserve" fill-rule="evenodd" stroke-linejoin="round" stroke-miterlimit="1.414" clip-rule="evenodd" viewBox="0 0 24 24" class="svg material-folder-vue" width="16" height="16" aria-hidden="true"><path fill="#009688" fill-rule="nonzero" d="M10 4H4c-1.11 0-2 .89-2 2v12c0 1.097.903 2 2 2h16c1.097 0 2-.903 2-2V8a2 2 0 0 0-2-2h-8l-2-2z"/><path d="m9.725 9.25 7.103 12.256L23.93 9.309V9.25h-2.762l-4.299 7.385-4.28-7.385H9.726z" style="fill:#41b883;stroke-width:.69572" transform="scale(1.00003)"/><path d="m5.935 4.151 6.152 10.617 6.181-10.617h-3.723L12.112 8.33 9.689 4.151z" style="fill:#35495e" transform="translate(8.459 6.362) scale(.69572)"/></svg>