<svg xmlns="http://www.w3.org/2000/svg" xml:space="preserve" stroke-linejoin="round" stroke-miterlimit="1.414" clip-rule="evenodd" viewBox="0 0 24 24" class="svg material-folder-database-open" width="16" height="16" aria-hidden="true"><path fill="#ffca28" d="M19 20H4a2 2 0 0 1-2-2V6c0-1.11.89-2 2-2h6l2 2h7c1.097 0 2 .903 2 2H4v10l2.14-8h17.07l-2.28 8.5c-.23.87-1.01 1.5-1.93 1.5z"/><path fill="#ffecb3" d="M17.762 8.858c-3.156 0-5.712 1.278-5.712 2.856 0 1.578 2.556 2.856 5.712 2.856 3.156 0 5.712-1.278 5.712-2.856 0-1.578-2.556-2.856-5.712-2.856m-5.712 4.284v2.142c0 1.578 2.556 2.856 5.712 2.856 3.156 0 5.712-1.278 5.712-2.856v-2.142c0 1.578-2.556 2.856-5.712 2.856-3.156 0-5.712-1.278-5.712-2.856m0 3.57v2.142c0 1.578 2.556 2.856 5.712 2.856 3.156 0 5.712-1.278 5.712-2.856v-2.142c0 1.578-2.556 2.856-5.712 2.856-3.156 0-5.712-1.278-5.712-2.856z"/></svg>