<svg xmlns="http://www.w3.org/2000/svg" xml:space="preserve" stroke-linejoin="round" stroke-miterlimit="1.414" clip-rule="evenodd" viewBox="0 0 24 24" class="svg material-folder-other-open" width="16" height="16" aria-hidden="true"><path fill="#039be5" d="M19 20H4a2 2 0 0 1-2-2V6c0-1.11.89-2 2-2h6l2 2h7c1.097 0 2 .903 2 2H4v10l2.14-8h17.07l-2.28 8.5c-.23.87-1.01 1.5-1.93 1.5z" style="fill:#ff7043"/><path d="M17.338 9.322a6.186 6.186 0 0 1 6.186 6.186 6.186 6.186 0 0 1-6.186 6.187 6.186 6.186 0 0 1-6.186-6.187 6.186 6.186 0 0 1 6.186-6.186m0 5.258a.928.928 0 0 0-.928.928.928.928 0 0 0 .928.928.928.928 0 0 0 .928-.928.928.928 0 0 0-.928-.927m-3.403 0a.928.928 0 0 0-.928.927.928.928 0 0 0 .928.928.928.928 0 0 0 .928-.928.928.928 0 0 0-.928-.927m6.806 0a.928.928 0 0 0-.928.927.928.928 0 0 0 .928.928.928.928 0 0 0 .928-.928.928.928 0 0 0-.928-.927z" style="fill:#ffccbc;stroke-width:.61865"/></svg>