<svg xmlns="http://www.w3.org/2000/svg" viewBox="0 0 24 24" class="svg material-docker" width="16" height="16" aria-hidden="true"><path fill="#0087c9" d="M22.593 10.11c-.065-.043-.605-.464-1.77-.464-.303 0-.606.032-.908.086-.227-1.512-1.49-2.278-1.544-2.31l-.313-.184-.195.291a3.57 3.57 0 0 0-.55 1.285c-.216.864-.087 1.685.356 2.387-.53.302-1.393.378-1.577.378H1.87a.675.675 0 0 0-.67.68c0 1.242.195 2.483.627 3.65.486 1.285 1.22 2.235 2.16 2.818 1.058.648 2.797 1.015 4.773 1.015.853 0 1.738-.075 2.613-.237a10.655 10.655 0 0 0 3.445-1.253 8.962 8.962 0 0 0 2.343-1.933c1.134-1.263 1.803-2.7 2.29-3.941h.204c1.231 0 1.998-.497 2.42-.918.28-.26.485-.572.636-.94l.087-.259-.205-.15M3.199 11.178h1.9a.178.178 0 0 0 .173-.173V9.3a.178.178 0 0 0-.173-.173H3.2a.17.17 0 0 0-.173.173v1.706c.01.098.075.173.173.173m2.624 0h1.9a.178.178 0 0 0 .173-.173V9.3a.178.178 0 0 0-.173-.173h-1.9a.17.17 0 0 0-.173.173v1.706c.01.098.075.173.173.173m2.667 0h1.89c.108 0 .183-.075.183-.173V9.3a.174.174 0 0 0-.183-.173H8.49c-.087 0-.162.076-.162.173v1.706c0 .098.065.173.162.173m2.635 0h1.91a.169.169 0 0 0 .163-.173V9.3c0-.086-.065-.173-.162-.173h-1.911c-.087 0-.162.076-.162.173v1.706c0 .098.075.173.162.173M5.823 8.76h1.9c.087 0 .173-.097.173-.194V6.87a.17.17 0 0 0-.173-.172h-1.9c-.098 0-.173.064-.173.172v1.696c.01.097.075.194.173.194m2.667 0h1.89c.108 0 .183-.097.183-.194V6.87c0-.097-.065-.172-.183-.172H8.49c-.087 0-.162.064-.162.172v1.696c0 .097.065.194.162.194m2.635 0h1.91c.087 0 .163-.097.163-.194V6.87a.168.168 0 0 0-.162-.172h-1.911c-.087 0-.162.064-.162.172v1.696c0 .097.075.194.162.194m0-2.462h1.91a.169.169 0 0 0 .163-.173V4.441c0-.108-.076-.184-.162-.184h-1.911c-.087 0-.162.065-.162.184v1.684c0 .087.075.173.162.173m2.656 4.881h1.9a.17.17 0 0 0 .173-.173V9.3a.178.178 0 0 0-.172-.173H13.78c-.086 0-.162.076-.162.173v1.706c0 .097.076.173.162.173"/></svg>