<svg xmlns="http://www.w3.org/2000/svg" xml:space="preserve" stroke-linejoin="round" stroke-miterlimit="1.414" clip-rule="evenodd" viewBox="0 0 24 24" class="svg material-folder-wordpress-open" width="16" height="16" aria-hidden="true"><path fill="#21759b" d="M19 20H4a2 2 0 0 1-2-2V6c0-1.11.89-2 2-2h6l2 2h7c1.097 0 2 .903 2 2H4v10l2.14-8h17.07l-2.28 8.5c-.23.87-1.01 1.5-1.93 1.5z"/><path fill="#e1f5fe" d="M16.361 8.295a6.385 6.385 0 0 0-5.338 2.881l.41.008c.67 0 1.705-.08 1.705-.08.343-.023.387.481.045.526l-.738.076 2.33 6.9 1.398-4.191-.996-2.71-.678-.075c-.335-.022-.298-.549.045-.527l1.681.081c.67 0 1.706-.08 1.706-.08.342-.023.389.481.039.526l-.73.076 2.307 6.847.64-2.128c.267-.886.484-1.519.484-2.062 0-.797-.283-1.341-.53-1.766-.32-.52-.625-.965-.625-1.494 0-.588.449-1.131 1.074-1.131h.081a6.381 6.381 0 0 0-4.31-1.677zm5.606 3.322.044.662c0 .648-.128 1.376-.492 2.284l-1.95 5.635a6.376 6.376 0 0 0 3.178-5.515 6.36 6.36 0 0 0-.78-3.066zm-11.444.461a6.507 6.507 0 0 0-.55 2.605 6.375 6.375 0 0 0 3.603 5.747zm5.95 3.163-1.914 5.57a6.276 6.276 0 0 0 1.802.258 6.27 6.27 0 0 0 2.123-.362l-.047-.092z"/></svg>