<svg xmlns="http://www.w3.org/2000/svg" viewBox="0 0 24 24" class="svg material-handlebars" width="16" height="16" aria-hidden="true"><path fill="#ff7043" fill-rule="evenodd" d="M8.528 11.121c-2.754 0-4.202 3.478-5.793 3.478-.98 0-1.127-.676-1.127-.914 0-.332.237-.706.565-.706.59 0 .414.77.414.77s.798-.555.272-1.298c-.421-.595-1.31-.623-1.92-.17-.618.458-1.057 1.146-.853 2.287.1.551.468 1.35 1.233 1.805.764.456 1.925.567 2.335.567 2.194 0 4.342-1.633 6.638-2.322a5.513 5.513 0 0 1 1.498-.222 6.19 6.19 0 0 1 1.92.225c2.296.689 4.444 2.324 6.638 2.324.41 0 1.57-.111 2.335-.567.765-.455 1.132-1.255 1.23-1.807.205-1.14-.234-1.829-.852-2.287-.61-.453-1.497-.423-1.918.172-.526.743.27 1.297.27 1.297s-.176-.77.414-.77c.329 0 .565.373.565.705 0 .239-.147.915-1.127.915-1.59 0-3.04-3.479-5.793-3.479-2.565 0-3.076 1.177-3.462 1.718-.004.005-.005.011-.008.017-.005-.007-.007-.014-.012-.02-.386-.541-.896-1.718-3.462-1.718z"/></svg>