<svg xmlns="http://www.w3.org/2000/svg" xml:space="preserve" fill-rule="evenodd" stroke-linejoin="round" stroke-miterlimit="1.414" clip-rule="evenodd" viewBox="0 0 24 24" class="svg material-folder-plugin" width="16" height="16" aria-hidden="true"><path fill="#e57373" fill-rule="nonzero" d="M10 4H4c-1.11 0-2 .89-2 2v12c0 1.097.903 2 2 2h16c1.097 0 2-.903 2-2V8a2 2 0 0 0-2-2h-8l-2-2z" style="fill:#0288d1"/><path d="M12.276 14.245h.922v-2.46c0-.682.553-1.229 1.23-1.229h2.459v-.922a1.537 1.537 0 0 1 1.537-1.537 1.537 1.537 0 0 1 1.537 1.537v.922h2.459a1.23 1.23 0 0 1 1.23 1.23v2.336h-.923c-.922 0-1.66.738-1.66 1.66 0 .922.738 1.66 1.66 1.66h.922v2.336a1.23 1.23 0 0 1-1.23 1.23h-2.335v-.923c0-.922-.738-1.66-1.66-1.66-.923 0-1.66.738-1.66 1.66v.922h-2.336a1.23 1.23 0 0 1-1.23-1.23V17.32h-.922a1.537 1.537 0 0 1-1.537-1.537 1.537 1.537 0 0 1 1.537-1.537z" style="fill:#b3e5fc;stroke-width:.61477"/></svg>