<svg xmlns="http://www.w3.org/2000/svg" viewBox="0 0 300 300" class="svg material-restql" width="16" height="16" aria-hidden="true"><g fill="none"><path fill="#83e8c2" d="M266.377 94.665c-1.327-8.361-6.357-15.836-13.806-20.138L164.349 23.59c-4.303-2.483-9.203-3.795-14.169-3.795s-9.865 1.312-14.166 3.793L47.793 74.524c-8.742 5.05-14.171 14.452-14.171 24.542v101.866c0 10.09 5.429 19.493 14.168 24.54l88.221 50.935c4.305 2.485 9.205 3.796 14.17 3.796s9.863-1.311 14.166-3.795l88.22-50.933c7.453-4.306 12.485-11.78 13.81-20.142zm-22.465 115.817-88.219 50.931a11.023 11.023 0 0 1-11.028 0l-88.219-50.931a11.03 11.03 0 0 1-5.513-9.55V99.066a11.03 11.03 0 0 1 5.513-9.55l88.219-50.934c1.705-.986 3.61-1.477 5.514-1.477s3.808.491 5.514 1.477l88.219 50.934a11.026 11.026 0 0 1 5.513 9.55v101.866a11.03 11.03 0 0 1-5.513 9.55z"/><path fill="#111d5a" d="M249.429 99.066a11.03 11.03 0 0 0-5.513-9.55l-88.219-50.934c-1.705-.986-3.61-1.477-5.514-1.477s-3.809.491-5.514 1.477L56.45 89.516a11.026 11.026 0 0 0-5.513 9.55v101.866a11.03 11.03 0 0 0 5.513 9.55l88.219 50.931a11.023 11.023 0 0 0 11.028 0l88.219-50.931a11.03 11.03 0 0 0 5.513-9.55zm-63.612 43.093c.162-.094.33-.16.497-.203.06-.016.12-.013.178-.024.104-.017.207-.04.31-.04l.02.002c.028.001.052.006.08.008.127.007.251.026.372.054.045.012.09.027.136.041.105.034.204.078.304.13.038.018.077.036.114.058.128.077.25.166.358.27.01.011.017.024.028.033.095.097.181.204.256.32.024.04.045.08.068.122.054.098.098.201.135.312.016.045.03.088.043.134.038.157.067.319.067.491v22.048l-4.459 2.575a2.105 2.105 0 0 0-.922 1.129 2.085 2.085 0 0 0-.134.699v5.148l-19.094 11.023c-.004.003-.01.003-.014.006-.157.088-.32.155-.481.198-.061.017-.123.015-.184.025-.1.016-.204.04-.306.04l-.019-.002c-.027-.002-.053-.007-.08-.008a1.99 1.99 0 0 1-.371-.056c-.047-.011-.09-.026-.136-.041a1.793 1.793 0 0 1-.304-.128c-.04-.02-.077-.037-.114-.06a1.972 1.972 0 0 1-.358-.269c-.012-.01-.02-.026-.031-.037a2.034 2.034 0 0 1-.252-.315c-.026-.04-.046-.082-.07-.123a1.934 1.934 0 0 1-.132-.311 2.315 2.315 0 0 1-.045-.138 2.023 2.023 0 0 1-.066-.487v-27.278a1.967 1.967 0 0 1 .988-1.707zm-36.622-80.724a1.97 1.97 0 0 1 1.975 0l62.217 35.923c1.316.759 1.316 2.658 0 3.417l-23.62 13.639a1.981 1.981 0 0 1-1.976 0l-21.07-12.165 2.35-1.354c1.407-.814 1.407-2.845 0-3.657l-17.834-10.296c-.325-.19-.69-.282-1.054-.282s-.728.093-1.054.282l-4.459 2.574-19.094-11.023c-1.316-.76-1.316-2.657 0-3.418zm-37.61 22.02c.342 0 .682.089.988.264l21.069 12.163-2.35 1.356c-1.406.812-1.406 2.843 0 3.657l2.35 1.354-21.067 12.165a1.981 1.981 0 0 1-1.975 0l-23.621-13.64c-1.317-.758-1.317-2.657 0-3.416l23.62-13.639c.307-.175.647-.264.987-.264zM98.583 209.04a1.98 1.98 0 0 1-.984-.267l-23.62-13.637a1.973 1.973 0 0 1-.988-1.708v-71.843c0-1.153.944-1.977 1.975-1.977.33 0 .667.084.985.268l23.621 13.636c.611.354.988 1.004.988 1.71v24.328l-2.35-1.356c-.34-.197-.7-.285-1.05-.285a2.11 2.11 0 0 0-2.114 2.113v20.592c0 .755.4 1.452 1.054 1.829l4.458 2.576v22.047c.002 1.15-.944 1.974-1.975 1.974zm40.572 20.306a1.975 1.975 0 0 1-2.96 1.71l-23.62-13.637a1.975 1.975 0 0 1-.988-1.71v-24.327l2.348 1.355c.34.197.7.287 1.051.287 1.103 0 2.114-.882 2.114-2.116v-2.71l21.068 12.163c.61.353.987 1.003.987 1.71zm0-44.57c0 .172-.027.334-.066.489-.012.048-.029.091-.044.137-.035.11-.08.214-.134.312-.024.04-.044.083-.068.122-.077.116-.16.223-.256.32-.011.01-.02.024-.029.034a2.02 2.02 0 0 1-.359.27c-.035.022-.075.039-.111.06a2.172 2.172 0 0 1-.441.168c-.124.031-.249.05-.378.056-.025 0-.05.008-.075.008l-.02.001c-.105 0-.211-.024-.317-.04-.059-.01-.115-.008-.17-.024a2.018 2.018 0 0 1-.498-.203l-19.09-11.023v-5.147a2.105 2.105 0 0 0-1.056-1.827l-4.456-2.573v-22.043c0-.173.027-.335.067-.491.012-.047.028-.09.043-.136a1.81 1.81 0 0 1 .135-.312c.023-.04.043-.084.07-.124.073-.114.157-.221.253-.318.011-.01.02-.024.029-.034.108-.103.229-.193.358-.27.037-.022.076-.04.114-.059a2.008 2.008 0 0 1 .818-.226c.025 0 .048-.007.074-.007l.02-.001c.107 0 .214.025.322.04.054.01.11.008.166.024.168.042.334.109.498.203l23.614 13.633a1.98 1.98 0 0 1 .988 1.712zm-13.58-61.717a1.97 1.97 0 0 1-.74-.748 1.994 1.994 0 0 1 0-1.922 1.96 1.96 0 0 1 .74-.748l19.095-11.023 4.457 2.573a2.117 2.117 0 0 0 2.11 0l4.458-2.575 19.095 11.025c1.317.759 1.317 2.658 0 3.418l-23.62 13.637a1.97 1.97 0 0 1-1.975 0zm101.8 70.367a1.97 1.97 0 0 1-.987 1.709l-62.217 35.921a1.952 1.952 0 0 1-.985.267c-1.03 0-1.976-.825-1.976-1.977V202.07c0-.706.377-1.356.989-1.71l21.066-12.161v2.71c0 1.232 1.011 2.115 2.113 2.115.353 0 .711-.09 1.053-.286l17.832-10.297a2.109 2.109 0 0 0 1.055-1.828v-5.147l19.095-11.024c.318-.184.655-.267.985-.267 1.03 0 1.976.824 1.976 1.976v27.275zm0-44.565c0 .706-.375 1.356-.987 1.708l-21.068 12.164v-2.71c0-1.233-1.012-2.114-2.114-2.114a2.066 2.066 0 0 0-1.052.285l-2.349 1.355v-24.327c0-.706.377-1.356.99-1.71l23.62-13.636a1.96 1.96 0 0 1 .984-.268c1.031 0 1.976.824 1.976 1.977z"/><path fill="#83e8c2" d="M114.05 141.958zm47.72 44.195zm.39.313zm-23.118-1.061zm-.957 1.115zm.471-.326zm.596-1.414zm-1.506 1.904zm23.627-1.414zm-23.107 15.097-21.069-12.163v2.711c0 1.233-1.01 2.115-2.113 2.115-.353 0-.712-.09-1.052-.287l-2.347-1.354v24.327c0 .706.375 1.356.987 1.71l23.62 13.637c.318.184.656.267.986.267a1.975 1.975 0 0 0 1.975-1.977v-27.276a1.978 1.978 0 0 0-.987-1.71zm23.284-14.649zm21.805-15.398zm-21.472-14.2a1.86 1.86 0 0 1 .412-.316l23.62-13.637-23.62 13.637a1.893 1.893 0 0 0-.412.316zm-22.943 29.72zm-26.66-43.382zm.472-.33zm.912-.234-.02.001c.112-.001.226.02.34.04-.107-.017-.214-.041-.32-.041zm-1.667.916zm1.193-.852zm-1.505 1.916zm25.101 42.823zm-24.991-43.45zm24.493 43.246-19.09-11.031zm.985.259.02-.002c-.111.002-.226-.021-.337-.04.106.017.212.042.317.042zm48.639-44.593zm-46.924 14.355zm48.937-14.331zm-23.671 44.31zm23.249-44.496zm-.598-.105c-.102 0-.205.025-.31.04.11-.02.22-.04.329-.038l-.019-.002zm38.589-22.284c-.328 0-.665.084-.985.268l-23.62 13.636a1.977 1.977 0 0 0-.989 1.71v24.327l2.35-1.355c.34-.197.7-.287 1.05-.285 1.103 0 2.115.88 2.115 2.113v2.711l21.068-12.164c.61-.352.987-1.002.987-1.708v-27.276a1.975 1.975 0 0 0-1.976-1.977zM186.9 141.9zm-23.718 44.852c.101 0 .204-.025.306-.04-.108.018-.216.038-.323.038l.017.002zm-.098 0zm-13.891-50.056zm13.384 49.96zm62.817-22.484a1.98 1.98 0 0 0-.985.267l-19.094 11.024v5.147a2.11 2.11 0 0 1-1.056 1.829l-17.832 10.296c-.342.196-.7.286-1.053.286a2.113 2.113 0 0 1-2.112-2.115v-2.71l-21.067 12.162a1.977 1.977 0 0 0-.989 1.71v27.276c0 1.152.945 1.976 1.976 1.976.33 0 .667-.084.985-.267l62.217-35.921c.61-.352.988-1.004.988-1.709v-27.276c-.002-1.149-.947-1.975-1.978-1.975zM125.57 75.074c-1.315.76-1.315 2.658 0 3.418l19.095 11.023 4.458-2.575c.327-.189.691-.281 1.055-.281s.729.092 1.054.281l17.833 10.297c1.408.812 1.408 2.843 0 3.656l-2.349 1.355 21.07 12.164a1.981 1.981 0 0 0 1.975 0l23.62-13.639c1.316-.759 1.316-2.657 0-3.416l-62.216-35.923a1.97 1.97 0 0 0-1.975 0zM86.976 97.358c-1.317.759-1.317 2.658 0 3.417l23.621 13.639a1.981 1.981 0 0 0 1.975 0l21.067-12.165-2.35-1.354c-1.406-.814-1.406-2.845 0-3.657l2.35-1.356L112.57 83.72a1.983 1.983 0 0 0-1.974 0zm13.58 109.702v-22.048l-4.459-2.576a2.107 2.107 0 0 1-1.054-1.828v-20.592a2.11 2.11 0 0 1 2.114-2.114c.352 0 .711.088 1.051.286l2.35 1.356v-24.329c0-.706-.376-1.356-.988-1.71l-23.621-13.634a1.953 1.953 0 0 0-.985-.268 1.975 1.975 0 0 0-1.975 1.976v71.842c0 .704.375 1.356.987 1.708l23.62 13.638c.319.183.656.266.985.266 1.03.001 1.975-.823 1.975-1.974zm88.221-41.147-4.458 2.575 4.458-2.575v-22.047zm-.313-23.105zm.068.122z"/><path fill="#de5941" d="M161.783 156.12a1.971 1.971 0 0 0-.577 1.391v27.277l.001.002c0 .172.028.332.066.487.013.046.028.09.045.138.035.108.08.212.133.311.023.04.043.083.07.123.074.114.156.22.25.315.013.012.021.027.032.037.108.105.23.193.358.27.037.022.075.039.114.059a1.987 1.987 0 0 0 .81.224c.028.002.054.007.081.009.108 0 .215-.022.324-.039.061-.009.122-.008.183-.024.162-.042.324-.109.482-.199.004-.002.01-.002.014-.005l19.094-11.023v-5.148c0-.245.054-.477.133-.7a2.1 2.1 0 0 1 .923-1.129l4.458-2.574v-22.048c0-.173-.028-.334-.066-.49-.013-.046-.029-.09-.044-.136a1.723 1.723 0 0 0-.135-.311c-.023-.042-.043-.083-.068-.122a1.939 1.939 0 0 0-.255-.32c-.011-.011-.02-.023-.029-.033a1.918 1.918 0 0 0-.358-.27c-.036-.022-.076-.04-.114-.059a2.053 2.053 0 0 0-.44-.17 2.165 2.165 0 0 0-.37-.054c-.03-.002-.054-.007-.08-.009-.11 0-.22.02-.33.039-.058.01-.118.008-.178.024a1.93 1.93 0 0 0-.497.203l-23.62 13.637a1.968 1.968 0 0 0-.41.317zm-23.619-.326L114.55 142.16a1.938 1.938 0 0 0-.498-.202c-.056-.017-.112-.014-.166-.024-.114-.02-.228-.04-.341-.039-.026 0-.05.007-.075.007-.13.007-.256.027-.378.056-.047.012-.089.027-.135.04a1.913 1.913 0 0 0-.305.13c-.038.019-.077.036-.114.058a2.06 2.06 0 0 0-.358.27l-.028.035a2.009 2.009 0 0 0-.255.318c-.025.04-.046.083-.069.124-.054.1-.098.203-.135.311a1.99 1.99 0 0 0-.11.627v22.044l4.456 2.573a2.105 2.105 0 0 1 1.056 1.827v5.147l19.09 11.023c.162.093.33.16.498.203.056.016.112.013.17.023.112.019.226.04.337.04.026 0 .05-.007.075-.009.13-.005.256-.026.378-.056.047-.01.089-.025.135-.039.105-.034.207-.079.306-.13.037-.02.076-.036.112-.058a2.07 2.07 0 0 0 .359-.27c.01-.011.019-.025.028-.034.095-.097.181-.204.256-.32.024-.04.045-.082.068-.122.054-.098.098-.203.135-.312a1.97 1.97 0 0 0 .11-.627v-27.268a1.98 1.98 0 0 0-.988-1.712zm13.002-19.098 23.62-13.637c1.317-.76 1.317-2.66 0-3.418l-19.094-11.025-4.459 2.575a2.117 2.117 0 0 1-2.11 0l-4.457-2.573-19.095 11.023a1.96 1.96 0 0 0-.74.748 1.994 1.994 0 0 0 0 1.922c.165.296.413.558.74.748l23.622 13.637a1.969 1.969 0 0 0 1.973 0z"/></g></svg>