<svg xmlns="http://www.w3.org/2000/svg" xml:space="preserve" fill-rule="evenodd" stroke-linejoin="round" stroke-miterlimit="1.414" clip-rule="evenodd" viewBox="0 0 24 24" class="svg material-folder-json" width="16" height="16" aria-hidden="true"><path fill="#f9a825" fill-rule="nonzero" d="M10 4H4c-1.11 0-2 .89-2 2v12c0 1.097.903 2 2 2h16c1.097 0 2-.903 2-2V8a2 2 0 0 0-2-2h-8l-2-2z"/><path fill="#fff8e1" d="M11.81 9.306h1.274v1.274H11.81v3.184a1.274 1.274 0 0 1-1.274 1.274 1.274 1.274 0 0 1 1.274 1.274v3.185h1.274v1.274H11.81c-.682-.172-1.274-.573-1.274-1.274v-2.548a1.274 1.274 0 0 0-1.274-1.274h-.637v-1.274h.637a1.274 1.274 0 0 0 1.274-1.274V10.58a1.274 1.274 0 0 1 1.274-1.274m8.917 0a1.274 1.274 0 0 1 1.274 1.274v2.547a1.274 1.274 0 0 0 1.274 1.274h.637v1.274h-.637a1.274 1.274 0 0 0-1.274 1.274v2.548a1.274 1.274 0 0 1-1.274 1.274h-1.274v-1.274h1.274v-3.185a1.274 1.274 0 0 1 1.274-1.274 1.274 1.274 0 0 1-1.274-1.274V10.58h-1.274V9.306h1.274m-4.458 7.643a.637.637 0 0 1 .637.637.637.637 0 0 1-.637.637.637.637 0 0 1-.637-.637.637.637 0 0 1 .637-.637m-2.548 0a.637.637 0 0 1 .637.637.637.637 0 0 1-.637.637.637.637 0 0 1-.637-.637.637.637 0 0 1 .637-.637m5.095 0a.637.637 0 0 1 .637.637.637.637 0 0 1-.637.637.637.637 0 0 1-.637-.637.637.637 0 0 1 .637-.637z"/></svg>