<svg xmlns="http://www.w3.org/2000/svg" fill="none" viewBox="0 0 24 24" class="svg material-folder-verdaccio-open" width="16" height="16" aria-hidden="true"><path fill="#00897b" d="M19 20H4a2 2 0 0 1-2-2V6c0-1.11.89-2 2-2h6l2 2h7c1.097 0 2 .903 2 2H4v10l2.14-8h17.07l-2.28 8.5c-.23.87-1.01 1.5-1.93 1.5Z"/><path fill="#b2dfdb" d="M19.258 9.605v.01h3.914v-.01h-3.914zm-8.416.03 5.555 11.107h1.814l3.47-6.942h-3.103l-1.273 2.55-3.36-6.716h-3.103zm9.893 2.783 1.593.008.004-.008h-1.597z"/><path fill="#ffcdd2" d="M19.258 9.605v.643h1.238l-.203.406h-2.027v.64h1.701l-.242.483h-2.428v.64h5.035l1.387-2.802h-.547v-.01z"/></svg>