<svg xmlns="http://www.w3.org/2000/svg" xml:space="preserve" fill-rule="evenodd" stroke-linejoin="round" stroke-miterlimit="1.414" clip-rule="evenodd" viewBox="0 0 24 24" class="svg material-folder-vscode-open" width="16" height="16" aria-hidden="true"><path fill="#42a5f5" fill-rule="nonzero" d="M19 20H4a2 2 0 0 1-2-2V6c0-1.11.89-2 2-2h6l2 2h7c1.097 0 2 .903 2 2H4v10l2.14-8h17.07l-2.28 8.5c-.23.87-1.01 1.5-1.93 1.5z"/><path fill="#bbdefb" d="m20.81 8.52-5.988 5.506-3.346-2.522-1.384.805 3.3 3.03-3.3 3.032 1.384.807 3.346-2.522 5.988 5.503 2.921-1.419V9.94zm0 3.621v6.397l-4.245-3.198z"/></svg>