<svg xmlns="http://www.w3.org/2000/svg" fill="none" viewBox="0 0 24 24" class="svg material-tldraw" width="16" height="16" aria-hidden="true"><path fill="#b0bec5" d="M14.69 5.75c0 .705-.27 1.304-.808 1.796s-1.194.738-1.966.738c-.796 0-1.464-.246-2.002-.738-.539-.492-.808-1.09-.808-1.797 0-.705.27-1.304.808-1.796s1.206-.738 2.002-.738c.772 0 1.428.246 1.966.738.539.492.808 1.09.808 1.796zm-5.619 8.883c0-.706.27-1.305.808-1.797.562-.514 1.24-.77 2.037-.77.749 0 1.404.256 1.966.77.562.492.89 1.048.984 1.668.187 1.155-.047 2.3-.703 3.434-.632 1.133-1.545 2-2.74 2.598-.655.343-1.193.332-1.615-.032-.398-.342-.28-.748.352-1.219.35-.235.643-.535.878-.898.234-.364.386-.738.456-1.123.024-.171-.058-.257-.246-.257-.468-.021-.948-.257-1.44-.706a2.169 2.169 0 0 1-.737-1.668z"/></svg>