<svg xmlns="http://www.w3.org/2000/svg" xml:space="preserve" style="clip-rule:evenodd;fill-rule:evenodd;stroke-linejoin:round;stroke-miterlimit:1.4142" viewBox="0 0 24 24" class="svg material-folder-views-open" width="16" height="16" aria-hidden="true"><path d="M19 20H4a2 2 0 0 1-2-2V6c0-1.11.89-2 2-2h6l2 2h7c1.097 0 2 .903 2 2H4v10l2.14-8h17.07l-2.28 8.5c-.23.87-1.01 1.5-1.93 1.5z" style="fill-rule:nonzero;fill:#ff7043"/><path d="M14.167 28.901 12.482 10h18.516l-1.687 18.898L21.729 31l-7.562-2.099zm6.823-4.89-6-3.607v-1.307l6-3.608v2.023l-3.828 2.238 3.828 2.239v2.022zm1.5-.002v-2.021l3.855-2.238-3.855-2.237v-2.022l6 3.591v1.336l-6 3.591z" style="fill:#ffccbc" transform="translate(3.217 2.957) scale(.65434)"/></svg>