<svg xmlns="http://www.w3.org/2000/svg" xml:space="preserve" stroke-linejoin="round" stroke-miterlimit="1.414" clip-rule="evenodd" viewBox="0 0 24 24" class="svg material-folder-font-open" width="16" height="16" aria-hidden="true"><path fill="#e57373" d="M19 20H4a2 2 0 0 1-2-2V6c0-1.11.89-2 2-2h6l2 2h7c1.097 0 2 .903 2 2H4v10l2.14-8h17.07l-2.28 8.5c-.23.87-1.01 1.5-1.93 1.5z" style="fill:#ff5252"/><path d="m15.32 16.342 2.064-5.49 2.055 5.49m-2.922-7.805-4.77 12.14h1.951l.972-2.6h5.42l.98 2.6h1.951l-4.77-12.14z" style="fill:#ffcdd2;stroke-width:.86724"/></svg>