<svg xmlns="http://www.w3.org/2000/svg" preserveAspectRatio="xMidYMid" viewBox="0 0 250 250" class="svg material-sequelize" width="16" height="16" aria-hidden="true"><g stroke-width=".725"><path fill="#01579b" d="M190.945 86.173v77.236l-65.63 38.829-.593.54v28.867l.593.56 92.43-53.39V71.194l-.873-.215-26.058 14.568.132.629"/><path fill="#0288d1" d="m59.477 164.043 65.84 38.196v29.966l-93.063-53.601v-107.2l.955-.144 25.983 15.106.285.865v76.814"/><path fill="#4fc3f7" d="M59.477 87.223 32.254 71.396l92.852-53.601 92.64 53.39-26.8 14.983-65.84-37.563-65.63 38.618"/><path fill="#2f406a" d="m124.186 155.203-.713-.727v-29.002l.713-.369.173-.715 24.864-14.504.76.17v29.884l-25.798 15.263"/><path fill="#2379bd" d="M97.959 140.873v-31.029l.72-.035 25.292 14.718.216.58v30.098l-26.228-14.332"/><path fill="#03afef" d="m123.756 94.583-25.798 15.264 26.228 15.263 25.798-15.049-26.228-15.479"/><path fill="#01579b" d="m92.083 174.123-.713-.727v-29.003l.713-.368.173-.715 24.863-14.504.761.17v29.882l-25.798 15.264"/><path fill="#0288d1" d="M65.855 159.793v-31.03l.72-.036 25.292 14.72.215.58v30.098l-26.228-14.332"/><path fill="#4fc3f7" d="m91.653 113.503-25.799 15.263 26.229 15.264 25.798-15.049-26.228-15.479"/><path fill="#01579b" d="m158.585 174.843-.712-.727v-29.003l.713-.368.173-.715 24.864-14.504.76.17v29.882l-25.798 15.264"/><path fill="#0288d1" d="M132.356 160.513v-31.03l.72-.035 25.292 14.72.216.58v30.097l-26.228-14.332"/><path fill="#4fc3f7" d="m158.155 114.213-25.798 15.263 26.228 15.264 25.798-15.049-26.228-15.479"/><path fill="#01579b" d="m126.476 193.763-.713-.727v-29.003l.713-.368.173-.716 24.864-14.503.76.17V178.5l-25.798 15.264"/><path fill="#0288d1" d="M100.256 179.433v-31.03l.72-.035 25.293 14.718.214.58v30.099l-26.228-14.332"/><path fill="#4fc3f7" d="m126.046 133.133-25.799 15.264 26.229 15.264 25.798-15.049-26.228-15.479"/><path fill="#01579b" d="m124.186 114.073-.713-.728V84.343l.713-.368.173-.715 24.864-14.503.76.17v29.882l-25.798 15.264"/><path fill="#0288d1" d="M97.959 99.743v-31.03l.72-.035 25.292 14.718.216.58v30.099L97.959 99.743"/><path fill="#4fc3f7" d="M123.756 53.443 97.958 68.707l26.228 15.264 25.798-15.049-26.228-15.479"/><path fill="#01579b" d="m92.083 132.993-.713-.727v-29.002l.713-.369.173-.715 24.863-14.504.761.17v29.884l-25.798 15.263"/><path fill="#0288d1" d="M65.855 118.663V87.634l.72-.036 25.292 14.72.215.58v30.097l-26.228-14.332"/><path fill="#4fc3f7" d="m91.653 72.363-25.8 15.264 26.229 15.263 25.798-15.049-26.228-15.479"/><path fill="#01579b" d="m158.585 133.713-.712-.727v-29.002l.713-.369.173-.715 24.864-14.504.76.17v29.884l-25.798 15.263"/><path fill="#0288d1" d="M132.356 119.373V88.344l.72-.035 25.292 14.718.216.58v30.098l-26.228-14.332"/><path fill="#4fc3f7" d="m158.155 73.083-25.798 15.264 26.228 15.263 25.798-15.049-26.228-15.479"/><path fill="#01579b" d="m126.476 152.623-.713-.727v-29.003l.713-.368.173-.715 24.864-14.504.76.17v29.882l-25.798 15.264"/><path fill="#0288d1" d="M100.256 138.293v-31.03l.72-.036 25.293 14.72.214.58v30.098l-26.228-14.332"/><path fill="#4fc3f7" d="m126.046 92.003-25.799 15.264 26.229 15.264 25.798-15.049-26.228-15.479"/></g></svg>