<svg xmlns="http://www.w3.org/2000/svg" xml:space="preserve" stroke-linejoin="round" stroke-miterlimit="1.414" clip-rule="evenodd" viewBox="0 0 24 24" class="svg material-folder-guard-open" width="16" height="16" aria-hidden="true"><path fill="#e57373" d="M19 20H4a2 2 0 0 1-2-2V6c0-1.11.89-2 2-2h6l2 2h7c1.097 0 2 .903 2 2H4v10l2.14-8h17.07l-2.28 8.5c-.23.87-1.01 1.5-1.93 1.5z" style="fill:#43a047"/><path d="m17.871 8.199-5.593 2.486v3.728c0 3.45 2.386 6.675 5.593 7.458 3.207-.783 5.593-4.008 5.593-7.458v-3.728l-5.593-2.486m0 3.728c.87 0 1.74.684 1.74 1.554v.932c.373 0 .746.373.746.808v2.175c0 .373-.373.746-.808.746h-3.418c-.373 0-.746-.373-.746-.808V15.16c0-.373.373-.746.746-.746v-.932c0-.87.87-1.554 1.74-1.554m0 .746c-.497 0-.932.311-.932.808v.932h1.864v-.932c0-.497-.435-.808-.932-.808z" style="fill:#c8e6c9;stroke-width:.62147"/></svg>