<svg xmlns="http://www.w3.org/2000/svg" xml:space="preserve" fill-rule="evenodd" stroke-linejoin="round" stroke-miterlimit="1.414" clip-rule="evenodd" viewBox="0 0 24 24" class="svg material-folder-controller" width="16" height="16" aria-hidden="true"><path fill="#00acc1" fill-rule="nonzero" d="M10 4H4c-1.11 0-2 .89-2 2v12c0 1.097.903 2 2 2h16c1.097 0 2-.903 2-2V8a2 2 0 0 0-2-2h-8l-2-2z" style="fill:#ffc107"/><path fill="#80deea" d="M17.293 17.786a2.308 2.308 0 0 1-2.308-2.308 2.308 2.308 0 0 1 2.308-2.307 2.308 2.308 0 0 1 2.308 2.307 2.308 2.308 0 0 1-2.308 2.308m4.899-1.668c.026-.211.046-.422.046-.64 0-.217-.02-.435-.046-.659l1.391-1.075a.333.333 0 0 0 .08-.422l-1.32-2.28c-.079-.146-.257-.205-.402-.146l-1.641.66a4.779 4.779 0 0 0-1.115-.647l-.244-1.747a.333.333 0 0 0-.33-.277h-2.637a.333.333 0 0 0-.33.277l-.243 1.747a4.78 4.78 0 0 0-1.114.646l-1.642-.659a.324.324 0 0 0-.402.145l-1.319 2.281a.325.325 0 0 0 .08.422l1.39 1.075c-.026.224-.046.442-.046.66s.02.428.046.639l-1.39 1.094a.325.325 0 0 0-.08.422l1.319 2.282a.332.332 0 0 0 .402.145l1.642-.666c.342.264.698.488 1.114.653l.244 1.747a.333.333 0 0 0 .33.277h2.637a.333.333 0 0 0 .33-.277l.243-1.747a4.802 4.802 0 0 0 1.115-.653l1.641.666c.145.052.323 0 .403-.145l1.318-2.282a.333.333 0 0 0-.079-.422z" style="fill:#fff9c4"/></svg>