<svg xmlns="http://www.w3.org/2000/svg" stroke-linejoin="round" stroke-miterlimit="1.414" clip-rule="evenodd" viewBox="0 0 24 24" class="svg material-folder-content-open" width="16" height="16" aria-hidden="true"><path fill="#00BCD4" d="M19 20H4a2 2 0 0 1-2-2V6c0-1.11.89-2 2-2h6l2 2h7c1.097 0 2 .903 2 2H4v10l2.14-8h17.07l-2.28 8.5c-.23.87-1.01 1.5-1.93 1.5z"/><path d="M17.51 14.937h3.932v.965H17.51zm0-1.608h3.932v.965H17.51zm0 3.216h3.932v.966H17.51zm4.494-6.754H11.89c-.618 0-1.123.58-1.123 1.287v8.363c0 .708.505 1.286 1.123 1.286h10.115c.617 0 1.124-.578 1.124-1.287v-8.363c0-.707-.506-1.286-1.125-1.286zm0 9.65h-5.056v-8.364h5.056z" style="fill:#b2ebf2;stroke-width:1.075"/></svg>