<svg xmlns="http://www.w3.org/2000/svg" xml:space="preserve" stroke-linejoin="round" stroke-miterlimit="1.414" clip-rule="evenodd" viewBox="0 0 24 24" class="svg material-folder-husky-open" width="16" height="16" aria-hidden="true"><path fill="#e57373" d="M19 20H4a2 2 0 0 1-2-2V6c0-1.11.89-2 2-2h6l2 2h7c1.097 0 2 .903 2 2H4v10l2.14-8h17.07l-2.28 8.5c-.23.87-1.01 1.5-1.93 1.5z" style="fill:#607d8b"/><path d="M18.311 8.6c.67.269.935 1.324.585 2.366-.347 1.036-1.166 1.668-1.84 1.405-.667-.26-.937-1.317-.592-2.362.341-1.04 1.17-1.666 1.847-1.408m3.748 2.164c.567.46.435 1.488-.285 2.31-.738.818-1.783 1.116-2.348.664-.569-.454-.431-1.48.298-2.295.728-.824 1.773-1.122 2.335-.679m-7.945-1.372c.746.088 1.29 1.024 1.245 2.082-.08 1.058-.719 1.85-1.46 1.764-.74-.085-1.281-1.012-1.22-2.074.061-1.063.713-1.853 1.435-1.772m9.437 5.448c.431.585.072 1.545-.817 2.129-.89.584-1.963.58-2.407-.02-.444-.599-.078-1.548.799-2.146.893-.567 1.975-.565 2.425.037m-4.139 5.146c-.263.505-.955.832-1.524.776-1.187-.112-1.784-1.644-2.827-2.247-1.043-.602-2.7-.322-3.354-1.321-.376-.56-.344-1.45.05-1.977.546-.726 1.727-.604 2.612-.855 1.166-.312 2.492-1.399 3.546-.79 1.049.605.814 2.294 1.083 3.463.213.975.871 2.075.414 2.951z" style="fill:#cfd8dc;stroke-width:.60534"/></svg>