<svg xmlns="http://www.w3.org/2000/svg" fill="none" viewBox="0 0 24 24" class="svg material-folder-verdaccio" width="16" height="16" aria-hidden="true"><path fill="#00897b" d="M10 4H4c-1.11 0-2 .89-2 2v12c0 1.097.903 2 2 2h16c1.097 0 2-.903 2-2V8a2 2 0 0 0-2-2h-8l-2-2Z"/><path fill="#b2dfdb" d="M19.258 9.605v.01h3.914v-.01zm-8.416.03 5.555 11.107h1.814l3.471-6.942H18.58l-1.274 2.55-3.36-6.716zm9.893 2.783 1.594.008.004-.008z"/><path fill="#ffcdd2" d="M19.258 9.605v.643h1.239l-.204.406h-2.027v.64h1.701l-.242.483h-2.428v.64h5.036l1.386-2.802h-.547v-.01z"/></svg>