<svg xmlns="http://www.w3.org/2000/svg" xml:space="preserve" stroke-linejoin="round" stroke-miterlimit="1.414" clip-rule="evenodd" viewBox="0 0 24 24" class="svg material-folder-mjml-open" width="16" height="16" aria-hidden="true"><path fill="#ff5722" d="M19 20H4a2 2 0 0 1-2-2V6c0-1.11.89-2 2-2h6l2 2h7c1.097 0 2 .903 2 2H4v10l2.14-8h17.07l-2.28 8.5c-.23.87-1.01 1.5-1.93 1.5z"/><path fill="#ffccbc" d="M12.351 8.996a1.496 1.496 0 1 0 0 2.99h5.91a1.496 1.496 0 0 0 0-2.99zm9.768 0a1.527 1.496 0 0 0-1.528 1.494 1.527 1.496 0 0 0 1.528 1.496 1.527 1.496 0 0 0 1.525-1.496 1.527 1.496 0 0 0-1.525-1.494zM12.38 13.43c-.846 0-1.525.681-1.525 1.527 0 .835.68 1.517 1.525 1.527.846 0 1.528-.681 1.528-1.527 0-.846-.682-1.527-1.528-1.527zm3.694.03a1.5 1.5 0 0 0 .207 2.993h6.043a1.5 1.5 0 0 0-.205-2.992h-5.9zm-3.723 4.304a1.496 1.496 0 1 0 0 2.99h5.91a1.496 1.496 0 0 0 0-2.99zm9.768 0a1.527 1.496 0 0 0-1.528 1.494 1.527 1.496 0 0 0 1.528 1.496 1.527 1.496 0 0 0 1.525-1.496 1.527 1.496 0 0 0-1.525-1.494z"/></svg>