<svg xmlns="http://www.w3.org/2000/svg" viewBox="0 0 100 100" class="svg material-uml_light" width="16" height="16" aria-hidden="true"><g style="fill-rule:evenodd;fill:none"><path d="M64.98 45v27.661l17.951-9.197L83 73.887 52.035 90 52 51.677z" style="fill:#9575cd" transform="translate(-1.885 -2.474) scale(1.0709)"/><path d="m33.983 64.03-3.885-22.122L18 36v38.473l7.975 4.088V55.374l4.359 25.042 7.096 3.607 4.562-20.817v22.776L50 90V51.561l-12.165-5.874z" style="fill:#f9a825" transform="translate(-6.276 -2.474) scale(1.0709)"/><path d="m45.236 6.091-9.775 8.755s19.072 9.931 21.39 11.105c2.317 1.174 5.615 3.43 2.05 6.772-3.565 3.34-7.487 2.889-10.16 1.535A21829.587 21829.587 0 0 1 26.283 22.79l-10.07 8.667S35.64 41.48 38.849 43.194c3.208 1.716 15.15 5.959 26.47-2.979 11.318-8.938 9.714-12.188 9.714-12.82 0-.632-.267-3.972-2.228-6.049-1.96-2.076-7.664-5.056-10.07-6.32-2.407-1.264-17.497-8.935-17.497-8.935z" style="fill:#ec407a;stroke-width:1.0709" transform="translate(.001 .002)"/></g></svg>