<svg xmlns="http://www.w3.org/2000/svg" fill-rule="evenodd" stroke-linejoin="round" stroke-miterlimit="1.414" clip-rule="evenodd" viewBox="0 0 24 24" class="svg material-folder-vuepress-open" width="16" height="16" aria-hidden="true"><path fill="#41b883" d="M19 20H4a2 2 0 0 1-2-2V6c0-1.11.89-2 2-2h6l2 2h7c1.097 0 2 .903 2 2H4v10l2.14-8h17.07l-2.28 8.5c-.23.87-1.01 1.5-1.93 1.5z"/><path fill="#d6f0e4" d="M14.924 9.185a1.5 1.5 0 0 0-1.5 1.5v9a1.5 1.5 0 0 0 1.5 1.5h7a1.5 1.5 0 0 0 1.5-1.5v-9a1.5 1.5 0 0 0-1.5-1.5z" style="fill:#e8f5e9" transform="translate(.31 -.414)"/><path fill="#41b883" d="m15.257 11.772 3.477 6L22.21 11.8v-.03h-1.35l-2.105 3.615-2.095-3.614z"/><path fill="#35495e" d="m16.659 11.772 2.095 3.615 2.105-3.615H19.59l-.829 1.422-.825-1.422z"/></svg>