<svg xmlns="http://www.w3.org/2000/svg" fill-rule="evenodd" stroke-linejoin="round" stroke-miterlimit="1.414" clip-rule="evenodd" viewBox="0 0 24 24" class="svg material-folder-mail" width="16" height="16" aria-hidden="true"><path fill="#B71C1C" fill-rule="nonzero" d="M10 4H4c-1.11 0-2 .89-2 2v12c0 1.097.903 2 2 2h16c1.097 0 2-.903 2-2V8a2 2 0 0 0-2-2h-8l-2-2z" style="fill:#ff5252"/><path d="M21.995 11.082h-9.688a1.21 1.21 0 0 0-1.205 1.211l-.006 7.266c0 .666.545 1.211 1.21 1.211h9.689c.667 0 1.211-.545 1.211-1.21v-7.267c0-.667-.544-1.211-1.211-1.211zm0 2.422-4.844 3.028-4.844-3.028v-1.211l4.844 3.028 4.844-3.028z" style="fill:#ffcdd2;stroke-width:1.0531"/></svg>