<svg xmlns="http://www.w3.org/2000/svg" xml:space="preserve" fill-rule="evenodd" stroke-linejoin="round" stroke-miterlimit="1.414" clip-rule="evenodd" viewBox="0 0 24 24" class="svg material-folder-phpmailer-open" width="16" height="16" aria-hidden="true"><path fill="#616161" d="M19 20H4c-1.111 0-2-.9-2-2V6c0-1.11.89-2 2-2h6l2 2h7c1.097 0 2 .903 2 2H4v10l2.14-8h17.07l-2.28 8.5c-.23.87-1.011 1.5-1.93 1.5z"/><path fill="#e8e8e8" d="M9.031 21.532v-9.919l1.719-.01c2.814 0 4.151.603 4.2 3.024-.09 2.483-1.346 3.187-4.21 3.026v3.879H9.031zm1.699-5.246-.01-3.377q2.814-.181 2.794 1.709-.02 1.889-2.784 1.668z"/><path fill="#FFD180" d="m15.815 21.542.02-7.929 3.93 3.612 3.829-3.753.04 8.09-7.819-.02z"/><path fill="#FFD180" d="m15.815 11.603 3.94 3.748 3.819-3.789-7.759.041z"/></svg>