<svg xmlns="http://www.w3.org/2000/svg" xml:space="preserve" fill-rule="evenodd" stroke-linejoin="round" stroke-miterlimit="1.414" clip-rule="evenodd" viewBox="0 0 24 24" class="svg material-folder-ios" width="16" height="16" aria-hidden="true"><path fill="#e57373" fill-rule="nonzero" d="M10 4H4c-1.11 0-2 .89-2 2v12c0 1.097.903 2 2 2h16c1.097 0 2-.903 2-2V8a2 2 0 0 0-2-2h-8l-2-2z" style="fill:#78909c"/><path d="M23.395 13.464v-1.801h-3.602a1.801 1.801 0 0 0-1.801 1.801v1.801a1.801 1.801 0 0 0 1.8 1.801h1.802v1.801H17.99v1.801h3.603a1.801 1.801 0 0 0 1.8-1.8v-1.802a1.801 1.801 0 0 0-1.8-1.8h-1.801v-1.802m-4.503 5.403h-1.801v-5.403h1.8m0-1.801h-1.8a1.801 1.801 0 0 0-1.801 1.801v5.403a1.801 1.801 0 0 0 1.8 1.802h1.802a1.801 1.801 0 0 0 1.801-1.802v-5.403a1.801 1.801 0 0 0-1.801-1.801m-6.304 9.006h1.801v-5.404h-1.8m0-1.801h1.801v-1.801H8.986z" style="fill:#cfd8dc;stroke-width:.90056"/></svg>