<svg xmlns="http://www.w3.org/2000/svg" xml:space="preserve" stroke-linejoin="round" stroke-miterlimit="1.414" clip-rule="evenodd" viewBox="0 0 24 24" class="svg material-folder-container-open" width="16" height="16" aria-hidden="true"><path fill="#e57373" d="M19 20H4a2 2 0 0 1-2-2V6c0-1.11.89-2 2-2h6l2 2h7c1.097 0 2 .903 2 2H4v10l2.14-8h17.07l-2.28 8.5c-.23.87-1.01 1.5-1.93 1.5z" style="fill:#0288d1"/><path d="M23.288 18.015a.645.645 0 0 1-.345.573l-5.14 2.888c-.103.078-.234.117-.37.117s-.267-.039-.37-.117l-5.14-2.888a.645.645 0 0 1-.345-.573V12.16c0-.247.136-.462.345-.573l5.14-2.888c.103-.078.233-.117.37-.117s.267.039.37.117l5.14 2.888a.647.647 0 0 1 .345.573v5.855m-5.855-8.034-3.878 2.179 3.878 2.18 3.877-2.18-3.877-2.18m-4.554 7.651 3.903 2.199v-4.365l-3.903-2.193v4.36m9.108 0v-4.36l-3.904 2.193v4.365z" style="fill:#b3e5fc;stroke-width:.65056"/></svg>