<svg xmlns="http://www.w3.org/2000/svg" viewBox="0 0 24 24" class="svg material-objective-c" width="16" height="16" aria-hidden="true"><path fill="#ffab40" d="m17.426 16.84.512 2.975c-.317.17-.829.33-1.512.476-.695.158-1.512.243-2.45.243-2.695-.048-4.719-.853-6.072-2.39-1.39-1.548-2.049-3.51-2.049-5.888.05-2.817.878-4.975 2.488-6.487 1.56-1.524 3.56-2.304 5.974-2.304.914 0 1.707.085 2.365.232.659.146 1.146.304 1.463.487l-.731 3.036-1.268-.414c-.488-.122-1.061-.183-1.707-.183-1.402-.013-2.573.439-3.487 1.34-.927.89-1.39 2.256-1.439 4.073.012 1.658.451 2.95 1.317 3.902.866.939 2.073 1.426 3.645 1.438l1.622-.146a6.187 6.187 0 0 0 1.329-.39z"/></svg>