<svg xmlns="http://www.w3.org/2000/svg" viewBox="0 0 300 300" class="svg material-foxpro" width="16" height="16" aria-hidden="true"><path d="M94.5 276.08c1.65-.464 4.688-.897 6.75-.962L105 275v-4.895c0-9.345-6.133-24.015-13.36-31.957-1.177-1.293-5.285-3.94-9.128-5.883-6.814-3.443-7.2-3.516-15.5-2.926-4.681.333-11.212 1.343-14.512 2.244C32.089 237.158.557 221.81.512 206.277c-.016-5.749 2.494-8.036 10.707-9.755 9.889-2.069 16.683-5.287 17.428-8.255 1.138-4.533-.293-18.69-2.257-22.33-1.384-2.567-1.858-5.59-1.872-11.937-.018-8.111.154-8.775 3.742-14.5 2.068-3.3 5.88-8.627 8.472-11.836 4.394-5.442 4.737-6.287 5.082-12.5.4-7.195-2.303-19.938-5.972-28.164-4.14-9.283-3.535-34.433 1.288-53.455 4.923-19.42 14.71-35 20.776-33.074 2.01.637 2.138.978 9.06 24.095 2.047 6.836 2.32 7.199 8.426 11.214 10.09 6.634 19.347 17.392 28.698 33.354l2.59 4.422 9.846 1.244c16.696 2.108 36.255 9.681 46.936 18.172 2.18 1.733 4.655 2.936 5.5 2.674.845-.262 6.681-2.81 12.969-5.662 13.586-6.163 27.272-10.76 45.896-15.414 19.676-4.918 30.654-6.916 33.746-6.14 2.684.674 2.698.724 2.078 7.394-.705 7.582-4.866 20.711-9.417 29.716-6.98 13.808-24.13 32.812-40.424 44.794-7.341 5.399-7.716 5.868-8.32 10.41-5.05 38.043-15.315 59.037-41.975 85.846-12.494 12.564-13.478 13.315-24.517 18.723-15.047 7.373-22.836 9.42-42.5 11.167-3.895.347-4.337.259-2-.399zm-77.583-54.363c-.23-.156-1.317-.943-2.417-1.75-1.85-1.357-1.897-1.336-.627.283.755.962 1.842 1.75 2.416 1.75s.857-.127.628-.283z" style="fill:#fbc02d" transform="translate(13.054 6.501) scale(1.03623)"/><path d="M94.5 276.08c1.65-.464 4.688-.897 6.75-.962L105 275l-.012-4.75c-.014-5.535-1.79-12.755-4.83-19.625-1.572-3.555-1.742-4.525-.63-3.603 2.842 2.36 2.675.133-.315-4.202-3.481-5.046-8.553-9.302-16.29-13.668-3.047-1.72-6.524-4.258-7.726-5.64-1.32-1.519-3.248-2.513-4.872-2.513-2.609 0-2.564.096 1.493 3.214 2.3 1.768 4.182 3.502 4.182 3.852s-3.938.918-8.75 1.26c-4.813.34-11.45 1.357-14.75 2.258C32.089 237.158.557 221.81.512 206.277c-.017-5.749 2.494-8.036 10.707-9.754 9.922-2.076 16.683-5.286 17.434-8.278 1.196-4.767-.415-19.52-2.69-24.628-1.711-3.842-2.094-6.29-1.797-11.5.417-7.328 3.353-13.042 12.566-24.454 4.393-5.442 4.737-6.286 5.082-12.5.399-7.194-2.303-19.938-5.972-28.164-4.14-9.282-3.535-34.433 1.288-53.455 4.923-19.419 14.71-35 20.776-33.074 2.01.638 2.138.979 9.06 24.095 2.047 6.837 2.32 7.2 8.426 11.214 10.09 6.635 19.347 17.392 28.698 33.354l2.59 4.423 9.846 1.244c16.696 2.108 36.255 9.681 46.936 18.172 2.18 1.733 4.655 2.936 5.5 2.674.845-.262 6.68-2.81 12.969-5.662 13.586-6.163 27.272-10.76 45.896-15.414 19.676-4.918 30.654-6.916 33.746-6.14 2.684.674 2.697.724 2.078 7.394-.705 7.582-4.866 20.711-9.417 29.716-6.98 13.808-24.13 32.812-40.424 44.794-7.342 5.399-7.716 5.868-8.32 10.41-5.05 38.043-15.315 59.037-41.975 85.846-12.494 12.564-13.478 13.315-24.517 18.723-15.047 7.372-22.836 9.42-42.5 11.167-3.895.347-4.337.258-2-.399zm27.491-17.137c14.682-5.662 28.562-16.733 37.414-29.842 10.44-15.46 17.981-39.125 20.689-64.92l1.293-12.319 6.818-6.044c7.363-6.528 15.68-18.242 21.346-30.065 4.351-9.08 4.46-12.18.499-14.227-6.246-3.23-26.471-1.022-44.645 4.874-12.523 4.063-14.243 4.245-18.96 2.007l-3.357-1.593-7.294 4.836c-4.012 2.66-12.214 9.677-18.228 15.593C106.77 137.865 104 139.698 104 136.223c0-2.474 13.832-17.703 23.772-26.174 6.505-5.543 8.961-7.052 11.5-7.064 2.34-.011 2.83-.267 1.782-.93-.795-.503-3.516-.67-6.046-.37-3.879.46-5.693.003-11.555-2.903-3.825-1.897-11.68-5.433-17.454-7.858-9.511-3.995-11.263-5.164-18.597-12.417C82.948 74.103 76.475 66.225 73.016 61c-7.353-11.11-9.537-13.68-13.258-15.616-6.474-3.369-10.94 1.965-14.287 17.068-2.055 9.268-1.579 28.404 1.045 42.027 2.42 12.568 1.08 17.99-7.053 28.52-8.961 11.605-10.384 18.982-6.069 31.477 3.227 9.344 4.705 19.083 3.417 22.524-2.253 6.022-11.835 13-17.852 13-2.93 0-3.08.178-2.475 2.933.766 3.485-2.328 13.067-4.22 13.067-1.901 0-1.526 1.679.877 3.918 3.42 3.186 10.674 6.166 16.227 6.666 4.402.397 4.776.303 2.63-.663a945.06 945.06 0 0 1-5.5-2.508l-3-1.383 4 .735c6.652 1.222 20.563.683 28.198-1.092 3.958-.92 9.679-1.673 12.712-1.673 10.423 0 24.047 7.071 32.034 16.627 4.037 4.83 10.522 18.334 10.544 21.956.025 4.257.828 4.284 11.003.36zm-5.49-41.41c-32.903-5.777-36.854-6.582-38.328-7.805-2.74-2.274 2.558-2.28 30.666-.033 15.21 1.216 27.924 1.894 28.253 1.508.329-.387 1.08-5.578 1.668-11.535.589-5.958 1.341-11.102 1.672-11.433 1.649-1.649 2.68 2.619 3.67 15.19 1.223 15.523.98 16.324-5.17 17.043-1.888.22-11.982-1.1-22.432-2.935zm-51.126-28.735c-.809-1.309 1.993-3.587 10.992-8.94 9.382-5.579 20.833-9.582 31.458-10.997 12.942-1.723 16.518.425 5.906 3.548-4.058 1.194-5.791 2.368-7.729 5.238-3.192 4.729-9.255 9.122-13.75 9.966-1.932.362-6.523.09-10.203-.604-6.165-1.163-7.054-1.1-11.35.8-3.133 1.386-4.878 1.71-5.323.99zm-18.333-19.54c-3.98-5.648-4.904-11.258-2.715-16.497 1.054-2.523 1.362-5.377.979-9.083-.598-5.797.592-7.837 3.274-5.611.821.681 3.099 4.11 5.061 7.62 4.197 7.505 4.785 14.504 1.937 23.076-2.21 6.653-4.117 6.763-8.536.495z" style="fill:#ff9800" transform="translate(13.054 6.501) scale(1.03623)"/><path d="M94.5 276.08c1.65-.464 4.688-.897 6.75-.962 2.265-.072 3.754-.614 3.76-1.368.004-.704 5.138-2.96 11.75-5.163 14.85-4.948 24.343-9.314 32.951-15.153 27.996-18.99 46.251-54.38 46.281-89.73.01-10.088.309-10.567 10.465-16.705 8.16-4.931 29.543-26.439 29.543-29.716 0-.517 1.406-3.064 3.125-5.658 3.85-5.813 10.016-22.51 10.61-28.734.42-4.401.312-4.632-2.398-5.15-9.973-1.905-38.864 5.394-64.337 16.254-18.668 7.959-18.01 7.893-27.12 2.694-15.015-8.568-30.464-14.586-44.069-17.167-4.494-.852-8.237-1.656-8.317-1.787-1.174-1.896-12.875-17.374-15.677-20.737-2.063-2.475-7.119-7.404-11.236-10.955-8.009-6.905-11.121-11.624-14.497-21.98-2.554-7.834-4.573-11.08-6.858-11.02-.95.025-3.615 2.207-5.923 4.848-4.71 5.391-7.35 13.518-9.408 28.951-1.617 12.13-.572 38.667 2.112 53.656 3.02 16.863 1.66 22.788-7.11 31l-4.272 4 4.192-5.143c6.024-7.394 7.17-10.085 7.174-16.856.004-6.277-3.81-22.315-6.58-27.671-2.206-4.265-3.023-23.691-1.486-35.33C37.553 23.024 49.624-2.158 57.905.469c2.01.639 2.139.979 9.06 24.096 2.048 6.836 2.32 7.199 8.427 11.214 10.09 6.634 19.347 17.392 28.698 33.354l2.59 4.422 9.806 1.239c16.956 2.141 37.26 10.214 48.721 19.37l2.709 2.165 9.07-4.214c4.988-2.318 12.993-5.728 17.79-7.578 18.315-7.065 61.37-17.47 66.725-16.125 2.771.695 2.774.703 2.15 7.412-.704 7.581-4.865 20.71-9.417 29.716-6.979 13.808-24.13 32.812-40.424 44.794-7.341 5.398-7.716 5.867-8.319 10.41-5.05 38.043-15.316 59.037-41.976 85.846-12.494 12.564-13.478 13.315-24.517 18.723-15.047 7.372-22.836 9.419-42.5 11.167-3.895.346-4.337.258-2-.4zM31 231.393c-7.971-2.137-19.917-8.31-24.019-12.412-6.988-6.988-8.706-15.206-4.058-19.412 1.036-.938 4.842-2.324 8.457-3.08 8.473-1.773 14.282-4.394 18.476-8.335 1.846-1.735 3.983-3.155 4.75-3.155 4.856 0-6.006 11.203-12.606 13.002-2.475.675-5.058 1.384-5.739 1.577-.908.257-.977 1.04-.257 2.933 1.151 3.028-.778 8.55-4.302 12.314L9.5 217.177l3 2.433c10.659 8.647 22.82 10.304 43.027 5.864 12.444-2.734 12.794-2.756 16.039-1.009 5.948 3.203 5.05 4.194-4.402 4.862-4.765.337-11.139 1.296-14.164 2.13-6.83 1.886-14.815 1.863-22-.064zm100-12.961c-.825-.184-11.523-1.95-23.773-3.924-23.669-3.814-25.517-4.231-24.688-5.574.556-.899 1.003-.877 33.329 1.616 11.203.865 20.93 1.356 21.615 1.093.81-.31 1.496-4 1.96-10.55.696-9.815 1.956-13.513 3.027-8.884.292 1.26.953 6.983 1.47 12.719 1.186 13.183.772 14.11-6.226 13.956-2.869-.064-5.89-.267-6.715-.452zm-60.645-33.81c9.453-8.623 31.768-16.426 44.954-15.72 2.54.136 1.252 1.742-2.05 2.554-1.517.374-5.488 3.534-8.823 7.023-7.567 7.915-11.553 9.31-21.148 7.403-5.206-1.035-7.012-1.033-9.6.007-6.61 2.657-7.334 2.382-3.333-1.267zm-22.691-17.339c-4.017-6.329-4.457-9.451-2.12-15.043 1.108-2.653 1.354-5.208.872-9.066-.604-4.839-.491-5.337 1.142-5.022.997.192 3.397 3.049 5.334 6.348 4.416 7.523 5.257 15.402 2.446 22.916-1.011 2.704-2.327 5.08-2.924 5.278-.598.2-2.735-2.236-4.75-5.411zM105 135.533c0-1.944 12.386-15.907 19.611-22.107 8.856-7.6 11.585-9.427 14.083-9.427 4.07 0 2.505 2.683-4.444 7.616-3.713 2.635-11.443 9.425-17.18 15.088-5.737 5.663-10.8 10.296-11.25 10.296s-.82-.66-.82-1.466z" style="fill:#263238" transform="translate(13.054 6.501) scale(1.03623)"/></svg>