<svg xmlns="http://www.w3.org/2000/svg" xml:space="preserve" stroke-linejoin="round" stroke-miterlimit="1.414" clip-rule="evenodd" viewBox="0 0 24 24" class="svg material-folder-client-open" width="16" height="16" aria-hidden="true"><path fill="#e57373" d="M19 20H4a2 2 0 0 1-2-2V6c0-1.11.89-2 2-2h6l2 2h7c1.097 0 2 .903 2 2H4v10l2.14-8h17.07l-2.28 8.5c-.23.87-1.01 1.5-1.93 1.5z" style="fill:#039be5"/><path d="M21.985 18.967h-2.466v-4.316h2.466m.617-1.233h-3.7a.617.617 0 0 0-.616.617V20.2a.617.617 0 0 0 .616.617h3.7a.617.617 0 0 0 .616-.617v-6.165a.617.617 0 0 0-.616-.617m-11.714-1.233h11.097v-1.233H10.888a1.233 1.233 0 0 0-1.234 1.233v6.782H8.421v1.85h8.632v-1.85h-6.165z" style="fill:#b3e5fc;stroke-width:.61653"/></svg>