<svg xmlns="http://www.w3.org/2000/svg" xml:space="preserve" fill-rule="evenodd" stroke-linejoin="round" stroke-miterlimit="1.414" clip-rule="evenodd" viewBox="0 0 24 24" class="svg material-folder-angular" width="16" height="16" aria-hidden="true"><path fill="#ff5252" fill-rule="nonzero" d="M10 4H4c-1.11 0-2 .89-2 2v12c0 1.097.903 2 2 2h16c1.097 0 2-.903 2-2V8a2 2 0 0 0-2-2h-8l-2-2z"/><path fill="#ffcdd2" d="m18.034 9.132 5.692 2.028-.863 7.534-4.829 2.672-4.83-2.672-.862-7.534 5.692-2.028m0 1.352-3.56 7.984H15.8l.714-1.79h3.027l.714 1.79h1.32l-3.541-7.984m1.043 5.087h-2.08l1.037-2.492z"/></svg>