<svg xmlns="http://www.w3.org/2000/svg" viewBox="0 0 24 24" class="svg material-android" width="16" height="16" aria-hidden="true"><path fill="#c0ca33" d="M14.847 5.357h-.95v-.95h.95m-4.746.95h-.949v-.95h.95m5.248-1.745 1.243-1.244a.487.487 0 0 0 0-.674.487.487 0 0 0-.674 0L14.515 2.15a5.734 5.734 0 0 0-2.516-.589 5.63 5.63 0 0 0-2.524.598L8.06.744a.476.476 0 0 0-.665 0 .47.47 0 0 0 0 .674L8.64 2.662C7.225 3.706 6.305 5.357 6.305 7.255h11.39c0-1.898-.95-3.559-2.345-4.593m4.718 5.543a1.424 1.424 0 0 0-1.424 1.423v6.644a1.424 1.424 0 0 0 1.424 1.424 1.424 1.424 0 0 0 1.423-1.424V9.628a1.424 1.424 0 0 0-1.423-1.423m-16.136 0a1.424 1.424 0 0 0-1.424 1.423v6.644a1.424 1.424 0 0 0 1.424 1.424 1.424 1.424 0 0 0 1.423-1.424V9.628a1.424 1.424 0 0 0-1.423-1.423m2.372 9.491a.95.95 0 0 0 .95.95h.949v3.321a1.424 1.424 0 0 0 1.423 1.424 1.424 1.424 0 0 0 1.424-1.424v-3.322h1.898v3.322a1.424 1.424 0 0 0 1.424 1.424 1.424 1.424 0 0 0 1.424-1.424v-3.322h.949a.95.95 0 0 0 .95-.949V8.205H6.304z" style="fill:#8bc34a"/></svg>