<svg xmlns="http://www.w3.org/2000/svg" viewBox="0 0 290 290" class="svg material-yarn" width="16" height="16" aria-hidden="true"><path fill="#0288d1" d="M249.9 217.2c-12.389 2.942-18.661 5.652-33.993 15.641-24.004 15.486-50.176 22.688-50.176 22.688s-2.168 3.252-8.44 4.723c-10.84 2.633-51.647 4.879-55.364 4.956-9.989.077-16.106-2.555-17.81-6.66-5.187-12.388 7.434-17.808 7.434-17.808s-2.787-1.704-4.413-3.252c-1.471-1.471-3.02-4.414-3.485-3.33-1.935 4.723-2.942 16.261-8.13 21.45-7.124 7.2-20.597 4.8-28.572.619-8.75-4.646.62-15.564.62-15.564s-4.724 2.787-8.518-2.943c-3.407-5.265-6.582-14.247-5.73-25.32 1.084-12.776 15.177-25.01 15.177-25.01s-2.478-18.66 5.653-37.787c7.356-17.422 27.179-31.437 27.179-31.437s-16.648-18.35-10.453-34.999c4.026-10.84 5.652-10.763 6.968-11.228 4.646-1.78 9.137-3.716 12.467-7.356 16.648-17.964 37.864-14.557 37.864-14.557s9.912-30.43 19.203-24.468c2.865 1.859 13.163 24.778 13.163 24.778s10.995-6.427 12.234-4.026c6.66 12.93 7.434 37.632 4.491 52.654-4.955 24.778-17.345 38.097-22.3 46.459-1.161 1.936 13.318 8.053 22.455 33.373 8.44 23.152.93 42.588 2.246 44.756.232.387.31.542.31.542s9.679.774 29.114-11.228c10.376-6.427 22.688-13.628 36.703-13.783 13.55-.232 14.247 15.719 4.104 18.119z"/></svg>