<svg xmlns="http://www.w3.org/2000/svg" xml:space="preserve" fill-rule="evenodd" stroke-linejoin="round" stroke-miterlimit="1.414" clip-rule="evenodd" viewBox="0 0 24 24" class="svg material-folder-guard" width="16" height="16" aria-hidden="true"><path fill="#e57373" fill-rule="nonzero" d="M10 4H4c-1.11 0-2 .89-2 2v12c0 1.097.903 2 2 2h16c1.097 0 2-.903 2-2V8a2 2 0 0 0-2-2h-8l-2-2z" style="fill:#43a047"/><path d="m17.871 8.199-5.593 2.486v3.729c0 3.449 2.386 6.674 5.593 7.457 3.207-.783 5.593-4.008 5.593-7.457v-3.73L17.871 8.2m0 3.729c.87 0 1.74.683 1.74 1.553v.933c.373 0 .746.372.746.808v2.175c0 .372-.373.745-.808.745h-3.418c-.373 0-.746-.373-.746-.808V15.16c0-.373.373-.745.746-.745v-.933c0-.87.87-1.553 1.74-1.553m0 .745c-.497 0-.932.311-.932.808v.933h1.864v-.933c0-.497-.435-.808-.932-.808z" style="fill:#c8e6c9;stroke-width:.62147"/></svg>