<svg xmlns="http://www.w3.org/2000/svg" xml:space="preserve" fill-rule="evenodd" stroke-linejoin="round" stroke-miterlimit="1.414" clip-rule="evenodd" viewBox="0 0 24 24" class="svg material-folder-docs-open" width="16" height="16" aria-hidden="true"><path fill="#0277bd" fill-rule="nonzero" d="M19 20H4a2 2 0 0 1-2-2V6c0-1.11.89-2 2-2h6l2 2h7c1.097 0 2 .903 2 2H4v10l2.14-8h17.07l-2.28 8.5c-.23.87-1.01 1.5-1.93 1.5z"/><path fill="#b3e5fc" fill-rule="nonzero" d="M18.575 12.859h3.713l-3.713-3.713v3.713M13.85 8.134h5.4l4.05 4.05v8.1c0 .74-.61 1.35-1.35 1.35h-8.1a1.35 1.35 0 0 1-1.35-1.35v-10.8c0-.75.6-1.35 1.35-1.35m6.075 10.8v-1.35H13.85v1.35h6.075m2.025-2.7v-1.35h-8.1v1.35h8.1z"/></svg>