<svg xmlns="http://www.w3.org/2000/svg" xml:space="preserve" stroke-linejoin="round" stroke-miterlimit="1.414" clip-rule="evenodd" viewBox="0 0 24 24" class="svg material-folder-mobile-open" width="16" height="16" aria-hidden="true"><path fill="#e57373" d="M19 20H4a2 2 0 0 1-2-2V6c0-1.11.89-2 2-2h6l2 2h7c1.097 0 2 .903 2 2H4v10l2.14-8h17.07l-2.28 8.5c-.23.87-1.01 1.5-1.93 1.5z" style="fill:#ff5252"/><path d="M10.337 9.758h10.435A1.228 1.228 0 0 1 22 10.986v1.228h-2.456v-1.228h-7.98v7.366h5.525v1.228h-6.753a1.228 1.228 0 0 1-1.227-1.228v-7.366a1.228 1.228 0 0 1 1.227-1.228m8.594 3.684h3.684a.614.614 0 0 1 .613.613v6.14a.614.614 0 0 1-.613.613H18.93a.614.614 0 0 1-.613-.614v-6.139a.614.614 0 0 1 .613-.613m.614 1.227v4.297H22V14.67z" style="fill:#ffcdd2;stroke-width:.61386"/></svg>