<svg xmlns="http://www.w3.org/2000/svg" xml:space="preserve" stroke-linejoin="round" stroke-miterlimit="1.414" clip-rule="evenodd" viewBox="0 0 24 24" class="svg material-folder-redux-actions-open" width="16" height="16" aria-hidden="true"><path fill="#ab47bc" d="M19 20H4a2 2 0 0 1-2-2V6c0-1.11.89-2 2-2h6l2 2h7c1.097 0 2 .903 2 2H4v10l2.14-8h17.07l-2.28 8.5c-.23.87-1.01 1.5-1.93 1.5z"/><g fill="#e1bee7" stroke="#e1bee7" stroke-miterlimit="4" stroke-width=".293"><path d="M19.68 17.704a.967.967 0 0 0-.104-1.93h-.034a.964.964 0 0 0-.93 1 .99.99 0 0 0 .275.637c-.586 1.154-1.482 1.998-2.825 2.704-.913.483-1.86.655-2.808.534-.776-.103-1.379-.447-1.758-1.016-.551-.844-.603-1.757-.138-2.67a4.055 4.055 0 0 1 1.172-1.379 9.294 9.294 0 0 1-.224-.878c-2.498 1.809-2.24 4.255-1.482 5.41.569.86 1.723 1.395 2.998 1.395.345 0 .69-.035 1.034-.12 2.205-.431 3.876-1.74 4.824-3.687z"/><path d="M22.712 15.567c-1.31-1.533-3.24-2.377-5.444-2.377h-.276a.947.947 0 0 0-.844-.517h-.035a.964.964 0 0 0 .035 1.93h.034a.97.97 0 0 0 .844-.586h.31c1.31 0 2.55.379 3.67 1.12.862.568 1.482 1.309 1.826 2.205.293.723.276 1.43-.034 2.033-.483.913-1.292 1.412-2.36 1.412a4.41 4.41 0 0 1-1.689-.361c-.19.172-.534.447-.775.62.74.344 1.499.534 2.222.534 1.654 0 2.877-.913 3.343-1.826.5-1 .465-2.722-.827-4.187z"/><path d="M13.96 17.996c.017.517.448.93.965.93h.034a.964.964 0 0 0-.034-1.929h-.035c-.034 0-.086 0-.12.017-.707-1.171-1-2.446-.896-3.824.069-1.034.413-1.93 1.016-2.67.5-.638 1.465-.948 2.12-.965 1.825-.035 2.6 2.24 2.652 3.152.224.052.603.173.862.259-.207-2.791-1.93-4.238-3.584-4.238-1.55 0-2.98 1.12-3.549 2.773-.792 2.206-.275 4.325.69 5.996a.774.774 0 0 0-.121.5z"/></g></svg>