<svg xmlns="http://www.w3.org/2000/svg" viewBox="0 0 24 24" class="svg material-nuget" width="16" height="16" aria-hidden="true"><g fill="#0288d1"><path d="M16.693 5.536h-5.34a5.525 5.525 0 0 0-5.55 5.532v5.342a5.525 5.525 0 0 0 5.525 5.524h5.341a5.525 5.525 0 0 0 5.525-5.532v-5.334a5.525 5.525 0 0 0-5.5-5.532zm-5.397 5.972a1.6 1.6 0 1 1 .184-2.015 1.6 1.6 0 0 1-.184 2.015zm5.301 7.748a2.798 2.798 0 1 1 2.799-2.798 2.798 2.798 0 0 1-2.799 2.798z" class="material-nuget__cls-1"/><g transform="translate(1.086 1.018) scale(.79956)"><circle cx="3.65" cy="4.06" r="2" class="material-nuget__cls-1"/><circle cx="3.65" cy="4.06" r="2.75" class="material-nuget__cls-1"/></g></g></svg>