<svg xmlns="http://www.w3.org/2000/svg" xml:space="preserve" fill-rule="evenodd" stroke-linejoin="round" stroke-miterlimit="1.414" clip-rule="evenodd" viewBox="0 0 24 24" class="svg material-folder-rules" width="16" height="16" aria-hidden="true"><path fill="#e57373" fill-rule="nonzero" d="M10 4H4c-1.11 0-2 .89-2 2v12c0 1.097.903 2 2 2h16c1.097 0 2-.903 2-2V8a2 2 0 0 0-2-2h-8l-2-2z" style="fill:#ef5350"/><path d="m17.345 18.448-2.32-2.32.818-.818 1.502 1.497 3.822-3.822.818.824m-3.48-3.48a.58.58 0 0 1 .58.58.58.58 0 0 1-.58.58.58.58 0 0 1-.58-.58.58.58 0 0 1 .58-.58m4.06 0H20.14c-.243-.673-.881-1.16-1.635-1.16s-1.392.487-1.636 1.16h-2.424a1.16 1.16 0 0 0-1.16 1.16v8.119a1.16 1.16 0 0 0 1.16 1.16h8.12a1.16 1.16 0 0 0 1.16-1.16v-8.12a1.16 1.16 0 0 0-1.16-1.16z" style="fill:#ffcdd2;stroke-width:.57994"/></svg>