<svg xmlns="http://www.w3.org/2000/svg" xml:space="preserve" fill-rule="evenodd" stroke-linejoin="round" stroke-miterlimit="1.414" clip-rule="evenodd" viewBox="0 0 24 24" class="svg material-folder-java" width="16" height="16" aria-hidden="true"><path fill="#ef5350" fill-rule="nonzero" d="M10 4H4c-1.11 0-2 .89-2 2v12c0 1.097.903 2 2 2h16c1.097 0 2-.903 2-2V8a2 2 0 0 0-2-2h-8l-2-2z"/><path fill="#ffcdd2" d="M10.856 20.781h11.581v-1.287H10.856m11.581-7.077H21.15v-1.93h1.287m0-1.287H12.143v6.434a2.574 2.574 0 0 0 2.573 2.573h3.86a2.574 2.574 0 0 0 2.574-2.573v-1.93h1.287a1.287 1.287 0 0 0 1.287-1.287v-1.93A1.287 1.287 0 0 0 22.437 9.2z"/></svg>