<svg xmlns="http://www.w3.org/2000/svg" xml:space="preserve" viewBox="0 0 80 80" class="svg material-bun_light" width="16" height="16" aria-hidden="true"><g stroke-width=".904"><path fill="#455a64" d="M38.192 8.705c-2.712 0-5.423 1.255-8.595 3.135-1.04.614-2.115 1.276-3.254 1.98-2.07 1.275-4.392 2.73-7.103 4.176C9.885 23.047 4.298 31.48 4.298 40.52c0 6.604 2.96 12.662 7.868 17.375l3.131 3.132c6.219 6.246 15.79 10.27 26.51 10.27 18.691 0 33.894-12.185 33.894-27.116 0-6.38-2.747-12.428-7.601-17.182a10.664 10.664 0 0 0-.452-.452c-.154-.144-.298-.307-.452-.452-.154-.144-.298-.307-.452-.452-.154-.144-.298-.307-.452-.451-.153-.145-.298-.308-.452-.452-.153-.145-.298-.308-.452-.452-.128-.121-.251-.253-.377-.378-2.184-2.264-4.82-4.27-7.865-5.914-3.344-1.799-5.884-3.37-8.134-4.763a67.678 67.678 0 0 0-2.775-1.69c-2.965-1.754-5.334-2.838-8.045-2.838zm0 2.26c2.187 0 4.185.902 6.923 2.529.823.497 1.727 1.057 2.712 1.663 2.16 1.337 4.827 3.038 8.244 4.846 8.614 4.636 13.755 12.31 13.755 20.516 0 13.729-14.19 24.9-31.634 24.9S6.558 54.249 6.558 40.52c0-8.207 5.144-15.881 13.748-20.536 2.711-1.474 5.125-2.946 7.23-4.248 1.121-.687 2.178-1.347 3.2-1.943 2.937-1.7 5.269-2.828 7.456-2.828zm28.85 15.288a23.916 23.916 0 0 1 .726 1.006c-.236-.338-.472-.676-.726-1.006zm2.118 3.225a23.916 23.916 0 0 1 .341.648c-.112-.217-.222-.433-.34-.648zM14.543 59.95l.205.158-.205-.158zm1.307.968zm1.392.928c.073.046.143.093.216.138-.073-.045-.143-.092-.215-.138zm1.501.899.13.074-.13-.074zm6.457 2.858c.097.032.195.06.292.092-.097-.032-.195-.06-.292-.092zm1.665.512.436.118c-.145-.04-.291-.077-.436-.118zm1.654.432zm1.776.382zm1.778.3zm1.748.217c.232.024.463.052.697.072-.234-.02-.465-.048-.697-.072zm1.876.153c.216.013.43.03.648.04-.217-.01-.432-.027-.648-.04z"/><path fill="#fff3e0" d="M69.827 40.519c0 13.747-14.163 24.892-31.634 24.892S6.559 54.267 6.559 40.519c0-8.523 5.423-16.052 13.756-20.517s13.521-9.038 17.878-9.038c4.356 0 8.08 3.733 17.878 9.038 8.333 4.465 13.756 11.994 13.756 20.517z"/><path fill="#fbe9e7" d="M69.827 40.519a19.586 19.586 0 0 0-.723-5.224c-2.468 30.098-39.181 31.544-53.616 22.542a36.154 36.154 0 0 0 22.704 7.574c17.444 0 31.634-11.162 31.634-24.892z" data-name="Bottom Shadow"/><path fill="#fafafa" d="M26.018 18.348c4.04-2.422 9.409-6.969 14.687-6.978a8.397 8.397 0 0 0-2.513-.406c-2.187 0-4.519 1.13-7.456 2.829-1.022.596-2.08 1.256-3.2 1.943-2.106 1.301-4.52 2.775-7.23 4.248C11.7 24.639 6.557 32.312 6.557 40.519v1.076c5.478-19.351 15.43-20.824 19.46-23.247z" data-name="Light Shine"/><path fill="#bcaaa4" fill-rule="evenodd" d="M35.59 13.25a14.832 14.832 0 0 1-5.089 11.271c-.253.226-.054.66.272.533 3.045-1.184 7.158-4.727 5.423-11.876-.073-.406-.606-.298-.606.073zm2.052 0a14.678 14.678 0 0 1 1.455 12.175c-.109.316.28.588.497.325 1.98-2.53 3.706-7.556-1.464-12.979-.262-.235-.669.127-.488.443zm2.494-.154a14.841 14.841 0 0 1 6.192 10.63.298.298 0 0 0 .587.099c.832-3.155.362-8.532-6.48-11.325-.362-.145-.597.343-.299.56zm-16.685 9.4a15.311 15.311 0 0 0 9.463-8.134c.163-.326.678-.2.597.162-1.564 7.231-6.797 8.74-10.051 8.542-.343.009-.334-.47-.009-.57z"/></g><path fill="#b71c1c" d="M44.565 47.117a8.071 8.071 0 0 1-2.64 4.257 6.155 6.155 0 0 1-3.615 1.7 6.182 6.182 0 0 1-3.733-1.7 8.071 8.071 0 0 1-2.603-4.257.65.65 0 0 1 .723-.732h11.154a.65.65 0 0 1 .714.732z" data-name="Background"/><g stroke-width=".904"><path fill="#ff5252" d="M34.577 51.447a6.245 6.245 0 0 0 3.724 1.717 6.245 6.245 0 0 0 3.715-1.717 9.608 9.608 0 0 0 .903-.967 6.173 6.173 0 0 0-4.428-2.088 5.559 5.559 0 0 0-4.52 2.513c.208.19.39.37.606.542z" data-name="Background"/><path fill="#455a64" d="M34.722 50.733a4.845 4.845 0 0 1 3.787-1.88 5.423 5.423 0 0 1 3.616 1.527c.207-.225.406-.46.596-.695a6.327 6.327 0 0 0-4.257-1.745 5.748 5.748 0 0 0-4.42 2.133 8.614 8.614 0 0 0 .678.66z" data-name="Outline"/><path fill="#455a64" d="M38.274 53.616a6.707 6.707 0 0 1-4.022-1.808 8.604 8.604 0 0 1-2.811-4.564 1.085 1.085 0 0 1 .235-.904 1.274 1.274 0 0 1 1.021-.46H43.85a1.302 1.302 0 0 1 1.022.46 1.076 1.076 0 0 1 .226.904 8.604 8.604 0 0 1-2.811 4.564 6.707 6.707 0 0 1-4.013 1.808zm-5.577-6.688c-.144 0-.18.063-.19.081a7.493 7.493 0 0 0 2.468 3.95 5.63 5.63 0 0 0 3.299 1.581 5.676 5.676 0 0 0 3.299-1.563 7.502 7.502 0 0 0 2.458-3.95.19.19 0 0 0-.18-.081z" data-name="Outline"/><ellipse cx="51.949" cy="44.568" fill="#f8bbd0" data-name="Right Blush" rx="5.287" ry="3.109"/><ellipse cx="24.59" cy="44.568" fill="#f8bbd0" data-name="Left Bluch" rx="5.287" ry="3.109"/><path fill="#455a64" fill-rule="evenodd" d="M27.076 43.321a4.98 4.98 0 1 0-4.971-4.98 4.98 4.98 0 0 0 4.971 4.98zm22.388 0a4.98 4.98 0 1 0-4.944-4.98 4.971 4.971 0 0 0 4.944 4.98z"/><path fill="#fff" fill-rule="evenodd" d="M25.539 38.657a1.87 1.87 0 1 0-1.862-1.87 1.87 1.87 0 0 0 1.862 1.87zm22.388 0a1.87 1.87 0 1 0-1.862-1.87 1.87 1.87 0 0 0 1.844 1.87z"/></g></svg>