<svg xmlns="http://www.w3.org/2000/svg" stroke-linejoin="round" stroke-miterlimit="2" clip-rule="evenodd" viewBox="0 0 24 24" class="svg material-folder-yarn-open" width="16" height="16" aria-hidden="true"><path fill="#0288d1" d="M19 20H4a2 2 0 0 1-2-2V6c0-1.11.89-2 2-2h6l2 2h7c1.097 0 2 .903 2 2H4v10l2.14-8h17.07l-2.28 8.5c-.23.87-1.01 1.5-1.93 1.5z"/><path fill="#b3e5fc" d="M23.076 18.082c-.694.165-1.045.317-1.904.876-1.344.867-2.81 1.27-2.81 1.27s-.121.183-.473.265c-.607.148-2.892.273-3.1.278-.56.004-.902-.143-.998-.373-.29-.694.417-.998.417-.998s-.157-.095-.248-.182c-.082-.082-.169-.247-.195-.186-.108.264-.165.91-.455 1.201-.399.403-1.154.269-1.6.035-.49-.26.034-.872.034-.872s-.264.156-.477-.165c-.19-.295-.368-.798-.32-1.418.06-.715.85-1.4.85-1.4s-.14-1.046.316-2.117c.412-.976 1.522-1.76 1.522-1.76s-.932-1.028-.585-1.96c.225-.608.316-.603.39-.63.26-.1.512-.207.698-.411.933-1.006 2.12-.816 2.12-.816s.556-1.704 1.076-1.37c.16.104.737 1.388.737 1.388s.616-.36.686-.226c.373.724.416 2.108.251 2.95-.277 1.387-.971 2.133-1.249 2.601-.065.108.746.451 1.258 1.87.473 1.296.052 2.384.126 2.506l.017.03s.542.043 1.63-.629c.582-.36 1.271-.763 2.056-.772.759-.013.798.88.23 1.015z"/></svg>