<svg xmlns="http://www.w3.org/2000/svg" xml:space="preserve" fill-rule="evenodd" stroke-linejoin="round" stroke-miterlimit="1.414" clip-rule="evenodd" viewBox="0 0 24 24" class="svg material-folder-github" width="16" height="16" aria-hidden="true"><path fill="#546e7a" fill-rule="nonzero" d="M10 4H4c-1.11 0-2 .89-2 2v12c0 1.097.903 2 2 2h16c1.097 0 2-.903 2-2V8a2 2 0 0 0-2-2h-8l-2-2z"/><path fill="#eceff1" d="M16.698 7.825a6.797 6.797 0 0 0-6.797 6.796 6.815 6.815 0 0 0 4.65 6.457c.34.054.448-.156.448-.34V19.59c-1.883.407-2.284-.911-2.284-.911-.312-.788-.754-1-.754-1-.619-.42.047-.407.047-.407.68.048 1.04.7 1.04.7.592 1.033 1.59.727 1.978.564.061-.442.238-.74.428-.91-1.509-.17-3.092-.755-3.092-3.344 0-.755.258-1.36.7-1.842-.068-.17-.306-.877.068-1.795 0 0 .57-.183 1.869.694.537-.15 1.121-.225 1.7-.225s1.161.075 1.698.225c1.298-.877 1.87-.694 1.87-.694.373.918.135 1.625.067 1.795.442.482.7 1.087.7 1.842 0 2.596-1.59 3.167-3.106 3.337.245.21.47.625.47 1.257v1.862c0 .184.108.401.455.34a6.816 6.816 0 0 0 4.642-6.457 6.797 6.797 0 0 0-6.797-6.796z"/></svg>