<svg xmlns="http://www.w3.org/2000/svg" xml:space="preserve" style="enable-background:new 0 0 24 24" viewBox="0 0 24 24" class="svg material-folder-error" width="16" height="16" aria-hidden="true"><path d="M10 4H4c-1.1 0-2 .9-2 2v12c0 1.1.9 2 2 2h16c1.1 0 2-.9 2-2V8c0-1.1-.9-2-2-2h-8l-2-2z" style="fill:#ef5350"/><path d="M17.79 15.89h-1.18v-3.54h1.18m0 5.9h-1.18v-1.18h1.18M17.2 9.4a5.9 5.9 0 0 0-5.9 5.9 5.9 5.9 0 0 0 5.9 5.9 5.9 5.9 0 0 0 5.9-5.9 5.9 5.9 0 0 0-5.9-5.9z" style="fill:#ffcdd2;stroke-width:.59"/></svg>