<svg xmlns="http://www.w3.org/2000/svg" xml:space="preserve" fill-rule="evenodd" stroke-linejoin="round" stroke-miterlimit="1.414" clip-rule="evenodd" viewBox="0 0 24 24" class="svg material-folder-target-open" width="16" height="16" aria-hidden="true"><path fill="#546e7a" fill-rule="nonzero" d="M19 20H4a2 2 0 0 1-2-2V6c0-1.11.89-2 2-2h6l2 2h7c1.097 0 2 .903 2 2H4v10l2.14-8h17.07l-2.28 8.5c-.23.87-1.01 1.5-1.93 1.5z"/><path fill="#cfd8dc" d="M17.722 8.536a6.12 6.12 0 0 0-6.12 6.12 6.12 6.12 0 0 0 6.12 6.118 6.12 6.12 0 0 0 6.12-6.12 5.98 5.98 0 0 0-.374-2.074l-.98.98c.086.36.13.728.13 1.095a4.895 4.895 0 0 1-4.896 4.895 4.895 4.895 0 0 1-4.895-4.895 4.895 4.895 0 0 1 4.895-4.896c.368 0 .734.044 1.095.13l.986-.985a6.182 6.182 0 0 0-2.08-.368m4.283 0-2.448 2.448v.918l-1.562 1.56c-.091-.03-.182-.03-.275-.03a1.223 1.223 0 0 0-1.223 1.224 1.223 1.223 0 0 0 1.223 1.223 1.223 1.223 0 0 0 1.224-1.223c0-.093 0-.185-.03-.277l1.56-1.56h.918l2.448-2.447h-1.836V8.536m-4.284 2.448a3.672 3.672 0 0 0-3.67 3.67 3.672 3.672 0 0 0 3.67 3.672 3.672 3.672 0 0 0 3.672-3.671h-1.224a2.448 2.448 0 0 1-2.448 2.447 2.448 2.448 0 0 1-2.447-2.447 2.448 2.448 0 0 1 2.447-2.448z"/></svg>