<svg xmlns="http://www.w3.org/2000/svg" viewBox="0 0 300 300" class="svg material-nodejs_alt" width="16" height="16" aria-hidden="true"><path fill="#388e3c" d="M144.26 26.45 46.11 82.98a11.82 11.81 0 0 0-5.93 10.24v113.22a11.86 11.85 0 0 0 5.92 10.26l98.17 56.62a11.88 11.86 0 0 0 11.86 0l98.14-56.61a11.86 11.85 0 0 0 5.92-10.26V93.27a11.82 11.81 0 0 0-5.93-10.24L156.13 26.5a11.85 11.83 0 0 0-11.86 0z"/><path fill="#4caf50" d="M42.98 213.51a11.79 11.78 0 0 0 3.49 3.07l84.2 48.57 14.02 8.08a11.89 11.87 0 0 0 6.83 1.55 12.27 12.25 0 0 0 2.33-.43l103.53-189.3a12.13 12.11 0 0 0-2.7-2.19l-64.33-37.07-33.97-19.52a11.36 11.35 0 0 0-3.07-1.22z"/><path fill="#66bb6a" d="M257.38 213.51a11.79 11.78 0 0 1-3.49 3.07l-84.2 48.57-14.02 8.08a11.89 11.87 0 0 1-6.83 1.55 12.27 12.25 0 0 1-2.33-.43L42.98 85.03a12.13 12.11 0 0 1 2.7-2.19l64.33-37.05 33.97-19.52a11.36 11.35 0 0 1 3.07-1.22z"/></svg>