<svg xmlns="http://www.w3.org/2000/svg" fill-rule="evenodd" stroke-linejoin="round" stroke-miterlimit="1.414" clip-rule="evenodd" viewBox="0 0 500 500" class="svg material-typescript" width="16" height="16" aria-hidden="true"><path fill="#0288d1" d="M46 46v408h408V46H46zm310.02 198.17v.006c3.912.012 8.359.213 11.703.576 13.619 1.473 24.225 7.349 33.248 18.416 4.493 5.513 6.03 7.925 5.703 8.957-.211.666-3.294 2.874-13.096 9.38-9.629 6.393-12.73 8.308-13.45 8.308-.731 0-2.253-1.566-4.446-4.573-4.225-5.789-8.538-8.431-15.205-9.312-7.17-.95-13.602 1.31-16.752 5.888-2.693 3.912-3.1 10.206-.96 14.78 2.48 5.297 6.968 8.226 24.167 15.767 19.836 8.698 29.888 14.651 37.209 22.04 7.884 7.956 11.878 17.142 13.105 30.136.599 6.334-.133 13.84-1.945 19.943-4.445 14.961-16.44 25.916-34.02 31.072-4.86 1.425-9.382 2.276-13.855 2.604-6.829.503-16.603.226-22.486-.63-14.884-2.169-31.686-10.83-40.064-20.65-4.113-4.821-9.364-12.755-9.364-14.15 0-.674.334-1.057 1.656-1.897 3.922-2.492 26.394-15.338 26.83-15.338.264 0 1.438 1.383 2.608 3.074 2.651 3.828 9.17 10.407 12.484 12.602 2.707 1.793 6.169 3.232 10.279 4.271 2.354.587 3.6.692 8.736.692 5.248-.002 6.324-.09 8.672-.721 6.21-1.671 11.057-5.13 13.111-9.354.9-1.825.918-2.053.918-6.48v-4.59l-1.104-2.19c-2.673-5.306-8.433-8.947-26.645-16.835-8.365-3.624-18.61-8.733-22.61-11.275-9.129-5.801-15.456-12.433-19.608-20.551-4.13-8.073-4.745-11.078-4.755-23.217-.01-9.503-.026-9.386 1.941-15.451 1.785-5.504 5.439-11.652 9.473-15.94 8.05-8.557 19.813-14.057 32.406-15.151 1.61-.153 3.768-.212 6.115-.205zm-108.36 1.877h.004c24.253.012 38.156.096 38.379.236.42.26.473 2.371.473 15.842v15.541l-24.201.088-24.201.088v68.713c0 37.793-.077 68.938-.182 69.213-.171.463-2.033.498-17.78.498h-17.587l-.182-.71c-.117-.39-.203-31.537-.205-69.214l-.006-68.504-24.2-.086-24.202-.088v-15.357c0-12.18.084-15.442.409-15.766.333-.343 12.684-.431 65.902-.484 10.26-.01 19.495-.015 27.58-.01z"/></svg>