<svg xmlns="http://www.w3.org/2000/svg" xml:space="preserve" stroke-linejoin="round" stroke-miterlimit="1.414" clip-rule="evenodd" viewBox="0 0 24 24" class="svg material-folder-python-open" width="16" height="16" aria-hidden="true"><path fill="#e57373" d="M19 20H4a2 2 0 0 1-2-2V6c0-1.11.89-2 2-2h6l2 2h7c1.097 0 2 .903 2 2H4v10l2.14-8h17.07l-2.28 8.5c-.23.87-1.01 1.5-1.93 1.5z" style="fill:#42a5f5"/><path d="M9.86 2A2.86 2.86 0 0 0 7 4.86v1.68h4.29c.39 0 .71.57.71.96H4.86A2.86 2.86 0 0 0 2 10.36v3.782C2 15.722 3.28 17 4.86 17h1.18v-2.68a2.85 2.85 0 0 1 2.85-2.86h5.25A2.85 2.85 0 0 0 17 8.61V4.86A2.86 2.86 0 0 0 14.14 2zm-.72 1.61c.4 0 .72.121.72.711s-.32.89-.72.89c-.39 0-.71-.3-.71-.89s.32-.71.71-.71z" style="fill:#3c78aa" transform="matrix(.6453 0 0 .64533 9.543 7.246)"/><path d="M17.959 7v2.68a2.85 2.85 0 0 1-2.85 2.86H9.86A2.85 2.85 0 0 0 7 15.388v3.75A2.86 2.86 0 0 0 9.86 22h4.28A2.86 2.86 0 0 0 17 19.139v-1.68h-4.291c-.39 0-.709-.569-.709-.959h7.14A2.86 2.86 0 0 0 22 13.639v-3.78A2.86 2.86 0 0 0 19.14 7zM8.32 11.514l-.004.004c.012-.003.025-.002.038-.004zm6.54 7.275c.39 0 .71.3.71.89a.71.71 0 0 1-.71.71c-.4 0-.72-.12-.72-.71s.32-.89.72-.89z" style="fill:#fdd835" transform="matrix(.6453 0 0 .64533 9.543 7.246)"/></svg>