<svg xmlns="http://www.w3.org/2000/svg" xml:space="preserve" fill-rule="evenodd" stroke-linejoin="round" stroke-miterlimit="1.414" clip-rule="evenodd" viewBox="0 0 24 24" class="svg material-folder-redux-selector" width="16" height="16" aria-hidden="true"><path fill="#ff6e40" fill-rule="nonzero" d="M10 4H4c-1.11 0-2 .89-2 2v12c0 1.097.903 2 2 2h16c1.097 0 2-.903 2-2V8a2 2 0 0 0-2-2h-8l-2-2z"/><g fill="#ffccbc" stroke="#ffccbc" stroke-miterlimit="4" stroke-width=".293"><path d="M19.68 17.703a.967.967 0 0 0-.103-1.93h-.035a.964.964 0 0 0-.93 1 .99.99 0 0 0 .275.637c-.585 1.155-1.481 1.999-2.825 2.705-.913.483-1.86.655-2.808.534-.775-.103-1.378-.448-1.757-1.016-.552-.844-.603-1.758-.138-2.67a4.055 4.055 0 0 1 1.171-1.379 9.294 9.294 0 0 1-.224-.878c-2.498 1.808-2.24 4.255-1.481 5.41.568.86 1.722 1.395 2.997 1.395.345 0 .69-.035 1.034-.121 2.205-.43 3.876-1.74 4.824-3.687z"/><path d="M22.712 15.567c-1.31-1.533-3.239-2.378-5.444-2.378h-.276a.947.947 0 0 0-.844-.516h-.034a.964.964 0 0 0 .034 1.93h.035a.97.97 0 0 0 .844-.587h.31c1.31 0 2.55.38 3.67 1.12.86.569 1.481 1.31 1.826 2.205.292.724.275 1.43-.035 2.033-.482.913-1.292 1.413-2.36 1.413-.69 0-1.344-.207-1.688-.362-.19.173-.535.448-.776.62.741.345 1.5.535 2.223.535 1.654 0 2.877-.914 3.342-1.827.5-.999.465-2.722-.827-4.186z"/><path d="M13.96 17.996c.017.517.448.93.965.93h.034a.964.964 0 0 0-.034-1.93h-.035c-.034 0-.086 0-.12.018-.706-1.171-1-2.446-.896-3.825.069-1.033.414-1.93 1.016-2.67.5-.637 1.465-.947 2.12-.965 1.826-.034 2.601 2.24 2.653 3.153.224.052.603.172.861.259-.207-2.791-1.93-4.239-3.583-4.239-1.55 0-2.98 1.12-3.55 2.774-.792 2.205-.275 4.324.69 5.995a.774.774 0 0 0-.12.5z"/></g></svg>