<svg xmlns="http://www.w3.org/2000/svg" viewBox="0 0 24 24" class="svg material-gradle" width="16" height="16" aria-hidden="true"><path fill="#0097a7" d="M21.71 5.56c-.731-1.316-2.04-1.71-2.963-1.728-1.133-.023-2.065.605-1.888 1.017.037.088.25.55.38.74.19.276.527.065.646.002.353-.188.73-.25 1.16-.199.409.047.954.3 1.319 1.001.859 1.652-1.794 5.05-5.114 2.697-3.32-2.354-6.548-1.574-8.01-1.1-1.462.475-2.135.952-1.556 2.054.785 1.5.524 1.04 1.285 2.28 1.21 1.97 3.855-.907 3.855-.907-1.97 2.906-3.66 2.204-4.309 1.188-.584-.915-1.038-1.971-1.038-1.971-4.993 1.761-3.642 9.535-3.642 9.535h2.48c.632-2.863 2.892-2.757 3.28 0h1.891c1.674-5.59 5.915 0 5.915 0h2.466c-.69-3.813 1.388-5.01 2.697-7.246 1.31-2.235 2.55-4.97 1.146-7.364zm-6.362 7.361c-1.304-.426-.837-1.723-.837-1.723s1.139.368 2.68.87c-.09.403-.856 1.175-1.843.853z"/></svg>