<svg xmlns="http://www.w3.org/2000/svg" xml:space="preserve" viewBox="0 0 200 200" class="svg material-crystal" width="16" height="16" aria-hidden="true"><path fill="#cfd8dc" d="m179.363 121.67-57.623 57.507c-.23.23-.576.346-.806.23l-78.713-21.09c-.346-.115-.577-.345-.577-.576L20.44 79.144c-.115-.345 0-.576.23-.806L78.294 20.83c.23-.23.576-.346.807-.23l78.713 21.09c.345.114.576.345.576.575l21.09 78.597c.23.346.115.577-.115.807zm-77.215-62.58-77.33 20.63c-.115 0-.23.23-.115.345l56.586 56.47c.115.115.346.115.346-.115l20.744-77.215c.115 0-.115-.23-.23-.116z"/></svg>