<svg xmlns="http://www.w3.org/2000/svg" xml:space="preserve" fill-rule="evenodd" stroke-linejoin="round" stroke-miterlimit="1.414" clip-rule="evenodd" viewBox="0 0 24 24" class="svg material-folder-proto" width="16" height="16" aria-hidden="true"><path fill="#ff7043" fill-rule="nonzero" d="M10 4H4c-1.11 0-2 .89-2 2v12c0 1.097.903 2 2 2h16c1.097 0 2-.903 2-2V8a2 2 0 0 0-2-2h-8l-2-2z"/><g fill="#ffccbc" stroke-width="1.786"><path d="m9.635 13.162 7.046-4.625v2.99l-7.046 4.625z"/><path d="m9.635 16.152 7.046 4.625v-2.99l-7.046-4.625zm14.093 0-7.046 4.625v-2.99l7.046-4.625z"/><path d="m23.728 13.162-7.046-4.625v2.99l7.046 4.625z"/></g></svg>