<svg xmlns="http://www.w3.org/2000/svg" viewBox="0 0 165 165" class="svg material-vitest" width="16" height="16" aria-hidden="true"><path fill="#ffca28" d="m120.83 57.254-36.138 52.251a3.111 3.111 0 0 1-5.123-.008 3.079 3.079 0 0 1-.533-1.891l1.446-28.848-23.349-4.952A3.103 3.103 0 0 1 54.9 71.93a3.075 3.075 0 0 1 .33-2.895l36.137-52.25a3.117 3.117 0 0 1 3.552-1.179c.64.215 1.191.631 1.571 1.187.38.555.567 1.22.533 1.89l-1.446 28.849 23.349 4.951c.499.106.964.333 1.354.66a3.076 3.076 0 0 1 .55 4.112z"/><path fill="#689f38" d="M82.987 153.34a7.296 7.296 0 0 1-5.174-2.143l-34.146-34.144a7.315 7.315 0 0 1 5.177-12.477 7.32 7.32 0 0 1 5.17 2.129l28.973 28.97 63.118-63.115a7.316 7.316 0 0 1 10.347 10.347l-68.292 68.29a7.288 7.288 0 0 1-5.173 2.143z"/><path fill="#689f38" fill-opacity=".502" d="M82.957 153.34a7.296 7.296 0 0 0 5.174-2.143l34.146-34.144a7.313 7.313 0 0 0-.014-10.333 7.32 7.32 0 0 0-10.334-.015l-28.973 28.97L19.838 72.56A7.317 7.317 0 0 0 9.491 82.907l68.293 68.29a7.29 7.29 0 0 0 5.173 2.143z"/></svg>