<svg xmlns="http://www.w3.org/2000/svg" fill-rule="evenodd" stroke-linejoin="round" stroke-miterlimit="1.414" clip-rule="evenodd" viewBox="0 0 24 24" class="svg material-folder-meta" width="16" height="16" aria-hidden="true"><path fill="#7CB342" fill-rule="nonzero" d="M10 4H4c-1.11 0-2 .89-2 2v12c0 1.097.903 2 2 2h16c1.097 0 2-.903 2-2V8a2 2 0 0 0-2-2h-8l-2-2z"/><path d="M13.313 11.766h-1.122v7.855c0 .618.505 1.123 1.122 1.123h7.855V19.62h-7.855zm8.978-2.244h-6.734c-.617 0-1.122.505-1.122 1.122v6.733c0 .617.505 1.122 1.122 1.122h6.734c.617 0 1.122-.505 1.122-1.122v-6.733c0-.617-.505-1.122-1.122-1.122zm-.561 5.05h-5.611v-1.123h5.61zm-2.245 2.244H16.12v-1.122h3.366zm2.245-4.489h-5.611v-1.122h5.61z" style="fill:#dcedc8;stroke-width:1.0202"/></svg>