<svg xmlns="http://www.w3.org/2000/svg" viewBox="0 0 24 24" class="svg material-bucklescript" width="16" height="16" aria-hidden="true"><path fill="#26a69a" d="M3 3v18h18V3zm14.1 8.858a5.5 5.5 0 0 1 1.26.145c.417.093.778.213 1.082.357v1.723h-.179a3.281 3.281 0 0 0-.96-.603 2.867 2.867 0 0 0-1.155-.247c-.139 0-.276.012-.415.035a1.4 1.4 0 0 0-.396.12.756.756 0 0 0-.291.232.54.54 0 0 0-.123.347c0 .198.066.35.196.456.13.104.376.2.738.288.237.057.466.111.683.165.22.053.455.127.707.221.495.188.86.444 1.095.77.237.32.357.738.357 1.254 0 .736-.272 1.336-.813 1.798-.539.458-1.27.688-2.197.688a5.447 5.447 0 0 1-1.403-.161 6.724 6.724 0 0 1-1.117-.416v-1.794h.183c.345.318.73.563 1.156.734.428.171.838.257 1.232.257.101 0 .236-.011.4-.032s.3-.053.404-.1a.97.97 0 0 0 .313-.225c.084-.09.126-.224.126-.401a.568.568 0 0 0-.183-.423c-.119-.121-.294-.213-.525-.277a12.96 12.96 0 0 0-.773-.185 5.523 5.523 0 0 1-.76-.227c-.544-.204-.937-.48-1.177-.828-.238-.351-.357-.786-.357-1.305 0-.697.27-1.264.809-1.703.541-.442 1.235-.663 2.084-.663zm-8.98.136h2.51c.52 0 .902.02 1.142.06.243.04.484.128.722.266.246.143.428.337.547.582.122.24.181.518.181.83 0 .36-.082.68-.247.959a1.697 1.697 0 0 1-.7.642v.04c.424.098.758.298 1.004.603.25.305.374.706.374 1.205 0 .362-.063.686-.19.97-.125.285-.297.52-.517.707a2.31 2.31 0 0 1-.844.473c-.304.093-.69.14-1.16.14H8.12zm1.658 1.371v1.582h.262c.263 0 .487-.006.672-.016.185-.01.332-.044.44-.101.15-.077.248-.174.294-.295.047-.124.07-.266.07-.427a.909.909 0 0 0-.083-.371.518.518 0 0 0-.282-.277 1.187 1.187 0 0 0-.456-.086c-.18-.006-.432-.009-.76-.009zm0 2.873V18.1h.123c.469 0 .804-.002 1.007-.005a1.32 1.32 0 0 0 .56-.13.712.712 0 0 0 .357-.332c.067-.14.1-.3.1-.481 0-.238-.04-.42-.122-.548-.078-.13-.213-.227-.404-.29a1.842 1.842 0 0 0-.539-.072 50.163 50.163 0 0 0-.716-.004z"/></svg>