<svg xmlns="http://www.w3.org/2000/svg" viewBox="0 0 400 400" class="svg material-graphql" width="16" height="16" aria-hidden="true"><g style="fill:#ec407a;stroke-width:6.8031;stroke:#ec407a"><path d="m75.308 289.808-12.577-7.261L202.844 39.872l12.577 7.261z"/><path d="M59.851 263.158h280.215v14.523H59.851z"/><path d="m205.557 352.247-140.16-80.925 7.26-12.576 140.161 80.924zm121.758-210.915-140.16-80.924 7.261-12.577 140.16 80.925z"/><path d="m72.696 141.275-7.261-12.576 140.16-80.925 7.261 12.577z"/><path d="M324.731 289.808 184.62 47.133l12.577-7.261 140.112 242.675zM70.956 119.065H85.48v161.853H70.956zm243.565 0h14.523v161.853h-14.523z"/><path d="m203.088 346.104-6.343-10.987 121.902-70.383 6.343 10.985z"/><path d="M348.29 285.645c-8.398 14.61-27.12 19.597-41.73 11.198-14.61-8.398-19.597-27.12-11.198-41.73 8.398-14.611 27.12-19.598 41.73-11.199 14.698 8.486 19.686 27.121 11.199 41.731M104.554 144.883c-8.399 14.61-27.121 19.596-41.732 11.197-14.61-8.398-19.596-27.12-11.197-41.73 8.398-14.611 27.12-19.598 41.73-11.199 14.611 8.486 19.598 27.121 11.199 41.732M51.712 285.645c-8.4-14.61-3.412-33.245 11.197-41.73 14.61-8.4 33.246-3.413 41.732 11.197 8.398 14.61 3.412 33.245-11.198 41.731-14.697 8.4-33.333 3.412-41.731-11.198m243.737-140.762c-8.399-14.61-3.412-33.246 11.198-41.732 14.61-8.398 33.245-3.412 41.73 11.198 8.4 14.61 3.413 33.245-11.197 41.731-14.61 8.4-33.332 3.412-41.731-11.197M200 371.299c-16.885 0-30.533-13.647-30.533-30.532s13.648-30.532 30.533-30.532 30.532 13.647 30.532 30.532c0 16.798-13.647 30.532-30.532 30.532m0-281.535c-16.885 0-30.533-13.648-30.533-30.532S183.115 28.699 200 28.699s30.532 13.648 30.532 30.533S216.885 89.764 200 89.764"/></g></svg>