<svg xmlns="http://www.w3.org/2000/svg" xml:space="preserve" style="clip-rule:evenodd;fill-rule:evenodd;stroke-linejoin:round;stroke-miterlimit:1.4142" viewBox="0 0 24 24" class="svg material-folder-git-open" width="16" height="16" aria-hidden="true"><path d="M19 20H4a2 2 0 0 1-2-2V6c0-1.11.89-2 2-2h6l2 2h7c1.097 0 2 .903 2 2H4v10l2.14-8h17.07l-2.28 8.5c-.23.87-1.01 1.5-1.93 1.5z" style="fill-rule:nonzero;fill:#ff7043"/><g style="fill:#ffccbc"><path d="M2.6 10.59 8.38 4.8l1.69 1.7c-.24.85.15 1.78.93 2.23v5.54c-.6.34-1 .99-1 1.73 0 1.097.903 2 2 2s2-.903 2-2c0-.74-.4-1.39-1-1.73V9.41l2.07 2.09c-.07.15-.07.32-.07.5 0 1.097.903 2 2 2s2-.903 2-2-.903-2-2-2c-.18 0-.35 0-.5.07L13.93 7.5a1.98 1.98 0 0 0-1.15-2.34c-.43-.16-.88-.2-1.28-.09L9.8 3.38l.79-.78c.78-.79 2.04-.79 2.82 0l7.99 7.99c.79.78.79 2.04 0 2.82l-7.99 7.99c-.78.79-2.04.79-2.82 0L2.6 13.41c-.79-.78-.79-2.04 0-2.82z" style="fill-rule:nonzero;fill:#ffccbc" transform="translate(8.61 6.73) scale(.69978)"/></g></svg>