<svg xmlns="http://www.w3.org/2000/svg" xml:space="preserve" fill-rule="evenodd" stroke-linejoin="round" stroke-miterlimit="1.414" clip-rule="evenodd" viewBox="0 0 24 24" class="svg material-folder-export-open" width="16" height="16" aria-hidden="true"><g style="clip-rule:evenodd;stroke-linejoin:round;stroke-miterlimit:1.4142"><path d="M47.881 15.627h-15a2 2 0 0 1-2-2v-12c0-1.11.89-2 2-2h6l2 2h7c1.097 0 2 .903 2 2h-17v10l2.14-8h17.07l-2.28 8.5c-.23.87-1.01 1.5-1.93 1.5z" style="fill:#ff8a65" transform="translate(-28.881 4.373)"/></g><path d="M20.62 15.706h-6.085v-1.217h6.085m-3.042-5.476a6.085 6.085 0 0 0-6.085 6.084 6.085 6.085 0 0 0 6.085 6.085 6.085 6.085 0 0 0 6.084-6.085 6.085 6.085 0 0 0-6.084-6.084z" style="clip-rule:evenodd;fill-opacity:.94902;fill-rule:evenodd;fill:#fbe9e7;stroke-linejoin:round;stroke-miterlimit:1.4142;stroke-width:.60845"/></svg>