<svg xmlns="http://www.w3.org/2000/svg" viewBox="0 0 500 500" class="svg material-nix" width="16" height="16" aria-hidden="true"><g stroke-width=".395"><path fill="#5075c1" d="M133.347 451.499c0-.295-2.752-5.283-6.116-11.084-3.364-5.801-6.116-10.776-6.116-11.055s9.514-16.889 21.143-36.912c11.629-20.022 21.323-36.798 21.542-37.279.346-.76-1.608-4.363-14.896-27.466-8.412-14.625-15.294-26.785-15.294-27.023 0-.5 24.46-43.501 25.206-44.31.414-.45.592-.384 1.078.395.32.513 16.876 29.256 36.791 63.87 62.62 108.85 74.852 130.01 75.41 130.46.3.242.544.554.544.694 0 .14-11.836.21-26.302.154-23.023-.09-26.313-.175-26.393-.694-.11-.714-27.662-48.825-28.86-50.392-.746-.978-.906-1.035-1.426-.51-.688.696-28.954 49.323-29.49 50.733l-.364.96h-13.23c-10.895 0-13.228-.095-13.228-.538zm167.58-125.61c-.134-.216 1.189-2.863 2.939-5.882 6.924-11.944 84.29-145.75 96.49-166.88 7.143-12.371 13.143-22.465 13.334-22.433.362.062 25.86 43.105 25.86 43.655 0 .174-6.761 11.952-15.025 26.173-8.46 14.557-14.932 26.104-14.81 26.421.185.483 4.563.564 30.213.564h29.996l.957 1.48c.527.814 3.296 5.547 6.155 10.518 2.86 4.971 5.45 9.29 5.757 9.597.705.705.703.724-.16 1.572-.396.388-3.36 5.323-6.588 10.965-3.228 5.643-6.056 10.387-6.285 10.543-.23.156-19.695.171-43.256.034l-42.84-.249-.803 1.15c-.442.632-7.505 12.736-15.696 26.897l-14.892 25.747h-15.486c-8.518 0-20.015.116-25.551.259-6.55.168-10.15.121-10.308-.135zm-133.75-157.86c-56.373-.055-102.5-.182-102.5-.282 0-.1 5.617-10.132 12.481-22.294L89.64 123.34h30.332c27.113 0 30.332-.065 30.332-.611 0-.336-6.659-12.228-14.797-26.427-8.138-14.199-14.797-25.917-14.797-26.04 0-.123 2.682-4.853 5.96-10.51s6.003-10.578 6.056-10.934c.086-.586 1.375-.648 13.572-.648 7.412 0 13.463.143 13.446.317-.018.174.22.707.53 1.184.31.476 9.763 16.937 21.007 36.578 11.244 19.64 20.71 36.022 21.036 36.4.554.647 2.549.691 31.428.691h30.837l12.896 22.145c7.093 12.18 12.8 22.301 12.682 22.492-.117.19-4.776.303-10.352.249-5.575-.054-56.26-.143-112.63-.198z"/><path fill="#7db7e1" d="M23.046 238.939c-6.098 10.563-6.69 11.711-6.224 12.078.282.224 3.18 5.044 6.44 10.712 3.26 5.668 6.016 10.355 6.123 10.417.106.061 13.585.153 29.95.204 16.367.052 29.994.23 30.285.399.473.273-1.08 3.094-14.637 26.574l-15.166 26.269 12.907 21.865c7.1 12.026 12.982 21.906 13.068 21.956.087.05 23.257-39.831 51.492-88.624 11.352-19.617 21.214-36.64 30.37-52.442 23.308-40.452 30.68-53.468 30.73-54.132-1.096-.11-6.141-.187-13.006-.216-3.945-.01-7.82-.02-12.75-.002l-25.341.092-15.42 26.706c-14.256 24.693-15.445 26.663-16.278 26.86l-.023.037c-.012.003-1.622-.001-1.826 0-4.29.062-20.453.063-40.226-.01-22.632-.082-41.615-.125-42.183-.096-.567.03-1.147-.03-1.29-.132-.141-.102-3.29 5.066-6.996 11.485zm205.16-190.3c-.123.149 5.62 10.392 12.761 22.763 12.2 21.131 89.393 155.03 96.276 167 1.503 2.613 2.92 4.803 3.443 5.348.9-1.249 3.532-5.63 7.954-13.219a1342.88 1342.88 0 0 1 10.05-17.76l6.606-11.443c.691-1.403.753-1.818.652-2.117-.161-.48-6.903-12.332-14.982-26.337-8.078-14.005-14.824-25.849-14.99-26.32a.73.73 0 0 1-.01-.366l-.426-.913 21.636-36.976c3.69-6.307 6.425-11.042 9.471-16.29 9.158-15.948 12.036-21.189 11.895-21.55-.126-.324-2.7-4.83-5.72-10.017-3.021-5.185-5.845-10.148-6.275-11.026-.483-.987-.734-1.364-1.1-1.456-.054.014-.083.018-.144.035-.42.112-5.455.195-11.19.185-5.734-.01-11.22.024-12.187.073l-1.76.089-14.998 25.978c-12.824 22.212-15.084 25.964-15.595 25.883-.024-.004-.15-.189-.235-.301-.109.066-.2.09-.271.05-.256-.148-7.144-11.902-15.306-26.119L279.4 48.817c-.116-.186-.444-.744-.458-.752-.476-.275-50.502.287-50.737.57zm-18.646 283.09c-.047.109-.026.262.043.48.328 1.05 25.338 43.735 25.772 43.985.206.119 14.178.239 31.05.266 26.65.044 30.749.152 31.234.832.307.43 9.987 17.214 21.513 37.296s21.152 36.627 21.394 36.767c.241.14 5.926.243 12.633.23 6.705-.013 12.4.099 12.657.246.131.076.381-.141.851-.795l6.008-10.406c5.234-9.065 6.62-11.684 6.294-11.888-.575-.36-15.597-26.643-23.859-41.482-3.09-5.45-5.37-9.516-5.44-9.774-.196-.712-.066-.822 1.155-.98 1.956-.252 57.397-.057 58.071.205.237.092.79-.569 2.593-3.497 1.866-3.067 5.03-8.524 11.001-18.866 7.22-12.505 13.043-22.784 12.941-22.843-.102-.059-.77-.051-1.489.016l-.046.001c-4.451.204-33.918.203-149.74.025-38.96-.06-69.786-.09-71.912-.072-1.12.01-2.095.076-2.66.172a.25.25 0 0 0-.062.083z"/></g></svg>