<svg xmlns="http://www.w3.org/2000/svg" xml:space="preserve" viewBox="0 0 1424.1 1368" class="svg material-dinophp" width="16" height="16" aria-hidden="true"><g fill="#ff5252" stroke-width="1.05"><path d="M1101.8 130.51c-12.441.289-30.445 1.731-55.957 5.878-32.232 5.25-56.168 11.548-61.523 12.914-39.16 10.394-67.506 22.153-93.018 32.757-14.383 5.984-33.282 13.859-56.589 25.932l-.734.42c-11.129 5.774-19.738 10.394-24.357 12.914l-2.414 1.258c-16.693 9.03-32.862 15.958-49.765 24.777 0 0-16.167 8.505-39.999 24.043-6.929 4.515-12.914 9.028-12.914 9.028a140.696 140.696 0 0 0-4.621 3.57c-5.67 4.514-10.917 9.554-15.641 15.118-4.515 5.25-11.025 12.81-15.33 23.518-7.034 17.113-4.723 32.86-3.673 40 1.47 9.133 4.513 28.66 19.841 41.68 11.758 10.182 25.618 11.864 33.807 12.704 50.079 4.62 98.163-5.354 129.03-9.344 41.47-5.249 73.071-2.31 98.269 0 45.984 4.305 96.587 9.028 148.87 42.1 12.388 7.873 45.67 30.446 74.436 72.021 12.598 18.163 31.811 45.985 39.16 85.985 7.244 39.895-.84 72.755 7.77 74.96 4.094 1.05 8.714-5.354 17.848-17.848a208.446 208.446 0 0 0 28.346-54.173c2.625-7.664 5.25-19.109 10.5-42.1 5.774-24.988 8.607-37.48 10.496-49.344 1.575-10.183 3.465-24.987 4.095-63.937.63-43.674.944-65.513-1.575-89.029-3.465-32.02-10.498-63.516-20.997-93.858-11.34-32.02-22.992-64.252-51.76-94.699-20.681-21.942-38.95-31.076-45.353-34.015-18.163-8.503-33.595-10.708-43.673-12.178-3.255-.472-10.133-1.338-22.574-1.05zm-100.67 82.398c12.105.117 20.275 2.825 22.244 9.046 5.25 16.588-23.937 48.503-74.436 64.46-50.499 15.854-117.38 7.034-122.62-9.554s41.47-31.39 91.969-47.243c31.562-9.908 62.671-16.905 82.847-16.709z" class="material-dinophp__st0"/><path d="M925.47 442.64c1.785-5.354 27.401-1.47 37.27 0 27.926 4.2 55.433 8.399 88.189 25.932 23.517 12.493 59.107 36.85 85.774 80.105 5.25 8.399 30.026 49.869 33.176 110.03 2.94 54.908-13.858 95.748-22.677 116.53-37.06 87.349-106.04 132.7-139.42 154.02-22.887 14.593-81.575 48.714-161.05 57.953-40.735 4.724-94.698 3.884-96.798-6.72-.63-3.359 3.99-7.348 11.024-13.437 3.255-2.835 11.968-9.869 26.982-13.753 8.399-2.205 12.178-1.68 32.651-2.1 19.632-.42 29.396-.63 35.905-1.47 14.593-2.1 28.976-5.984 42.52-11.758 9.764-4.094 17.323-7.139 26.457-13.753a107.125 107.125 0 0 0 26.982-28.87c4.094-6.195 7.874-11.969 11.024-20.473 2.625-6.929 3.045-10.814 6.93-16.588 3.674-5.459 6.718-7.139 11.128-11.339 3.465-3.254 6.09-6.404 17.848-26.142 8.504-14.278 12.703-21.417 15.328-26.457 12.178-23.622 16.693-45.459 19.212-57.848 8.924-43.989 4.62-80.945 2.415-99.527-3.99-32.86-7.874-65.512-28.346-101.94-13.543-24.147-31.076-55.328-64.777-76.85-6.614-4.514-19.003-11.549-17.743-15.538z" class="material-dinophp__st0"/><path d="M843.89 890.41s6.614-13.963 21.522-55.958c5.67-15.853 8.924-24.987 10.394-38.74 1.89-17.428-.21-31.286-4.41-58.687-1.05-7.244-2.624-14.383-4.829-21.417-1.575-5.04-3.044-8.294-7.664-18.898-12.073-27.192-14.803-32.336-20.052-38.635-8.084-9.659-13.018-11.024-14.803-11.339-7.979-1.575-17.848 2.205-20.787 8.924-2.624 5.984 1.05 12.388 5.04 20.052 0 0 5.774 11.234 19.108 46.089 7.139 18.793 7.769 34.646 8.189 47.559 1.574 46.719-17.953 82.099-24.462 93.438-17.848 31.286-40 49.134-56.273 61.942-34.121 26.772-70.761 41.47-89.448 48.924-29.921 11.968-44.724 14.173-57.428 30.76-9.87 12.914-11.758 26.038-15.013 48.19 0 0-5.46 38.005 9.343 82.099 2.73 8.294 5.88 15.433 12.913 20.262 10.08 6.824 22.572 4.62 32.756 2.834 13.858-2.414 26.982-8.084 39.265-13.333 9.764-4.199 16.588-7.769 24.672-5.354 3.465 1.05 6.72 3.045 11.34 7.77 10.603 11.023 16.272 24.356 19.841 37.584 5.985 21.837 9.24 34.121 2.415 40.84-7.349 7.244-23.937 5.67-34.016-.42-6.929-4.2-7.244-8.504-15.013-11.339-5.984-2.205-10.499-1.365-20.997-.42-8.714.735-17.533.84-26.247 1.26-22.887 1.155-34.33 1.68-44.094 1.26-13.438-.63-19.842-1.995-23.832 2.415-4.514 4.934-1.575 12.074-7.244 16.588-3.36 2.624-7.454 2.73-12.178 2.834-5.46.105-11.758-1.155-15.328-3.254-8.714-5.04-6.824-17.953-9.344-47.35-1.575-19.002-2.624-15.222-6.929-51.337-.84-7.98-2.1-15.853-3.884-23.622-1.68-7.454-2.835-10.08-4.62-18.058-1.575-7.034-2.834-14.278-3.674-21.417-1.26-10.29-4.305-29.081-11.34-65.932 0 0-13.752-59.002-4.409-78.53 3.045-6.3 7.664-8.084 7.664-8.084 1.26-.525 2.31-.525 6.93-.42 7.453.315 11.128.42 16.587 1.26 7.245 1.05 6.825 1.784 9.66 1.574 4.724-.315 9.133-2.204 12.492-5.354 5.46-5.354 4.935-13.438 5.145-20.262.104-3.15.21-.735 11.024-41.575 8.818-32.966 7.979-31.706 10.499-39.37 4.934-14.698 9.973-25.512 15.328-36.64 19.318-39.79 28.87-59.632 39.685-77.27 21.627-35.38 42.1-57.953 67.61-86.194 25.723-28.45 48.085-52.913 83.78-78.11 38.005-26.772 60.682-32.966 78.53-34.75 11.234-1.156 27.61-2.836 45.669 4.408 29.71 11.968 42.834 39.895 55.013 65.512 19.527 41.155 21.417 77.795 22.257 97.952 1.574 37.375-4.62 64.987-8.084 80.105-10.92 47.454-30.131 81.05-41.47 85.354-1.26.525-7.14 2.415-9.344 7.454-1.575 3.675-.525 7.245-.21 8.714 2.94 13.018-10.92 30.446-13.753 34.016-12.808 16.063-29.606 20.577-38.845 23.097-2.205.63-33.491 8.714-39.265-1.574-2.205-3.99.525-8.714 4.62-17.428z" class="material-dinophp__st0"/><path d="M596.23 710.77c.105 4.095-.105 8.084-.42 12.178-1.785 21.207-8.819 33.806-17.953 54.803-9.974 22.992-15.853 36.43-20.787 55.853-3.15 12.388-7.244 24.462-9.554 37.06-2.73 14.908-2.624 21.627-8.189 25.092-6.089 3.78-10.814-1.68-29.396-2.1-9.658-.21-16.903 1.05-24.252 5.88-6.824 4.514-10.709 9.868-11.863 12.703a33.966 33.966 0 0 0-2.73 14.067c1.366 53.753.84 61.417-1.364 64.777-3.57 5.46-15.328 8.294-33.176 14.803-6.93 2.52-24.987 8.924-59.107 15.118-20.262 3.675-35.59 6.51-57.218 7.14-14.908.63-29.711 0-44.514-1.995-17.113-2.31-41.155-5.564-66.351-19.108-10.604-5.67-47.454-25.512-64.777-69.081-11.968-30.131-8.714-56.798-7.034-69.816a147.974 147.974 0 0 1 22.677-61.732c8.084-12.283 23.307-34.541 52.808-47.244 15.748-6.72 32.86-9.659 49.974-8.504 36.535 2.73 77.69 25.512 86.614 58.582 1.05 3.78 5.984 24.042-4.62 38.845-1.574 2.205-6.194 8.714-11.339 8.084-5.354-.63-7.139-8.294-14.593-22.152-6.194-11.549-9.343-17.323-14.803-22.677-14.488-14.068-34.54-14.068-36.64-14.068-21.207.315-34.75 13.858-40.42 19.422-4.304 4.304-21.522 21.837-20.997 49.134.105 3.465.735 25.827 17.848 43.674 18.268 19.213 43.15 20.472 57.218 20.997 32.231 1.26 58.162-10.919 85.774-26.982a334.14 334.14 0 0 0 8.084-4.83c48.4-30.235 88.19-64.566 112.34-87.558 16.588-15.853 21.522-21.942 41.89-40.42 15.853-14.383 18.268-15.643 27.296-25.092 7.98-8.4 13.543-15.223 24.252-23.832 4.83-3.99 9.974-7.664 15.328-11.024zm286.82 313.43c1.995-1.47 6.194-1.47 15.013-1.575 6.194-.105-1.155 0 12.808-.105 9.659-.105 11.129.105 16.693 0 2.625-.105 3.36-.105 8.399-.315 3.36-.105 8.084-.21 11.339-.21 1.575 0 2.835 1.26 2.835 2.73v.105c-.105 6.09.21 12.283-.105 19.212a129.43 129.43 0 0 0 0 9.029 85.777 85.777 0 0 1 0 7.349c-.315 6.614-.42 23.202 4.094 47.874 1.155 6.3 2.205 11.444 6.51 15.958 6.298 6.614 15.537 7.139 21.521 7.559 12.493.84 22.572-3.045 34.121-7.56 15.433-6.088 18.478-10.078 26.247-8.923 2.835.42 9.239 1.785 17.218 10.814 5.88 6.614 8.61 12.913 13.858 25.302 2.835 6.404 5.145 12.913 7.034 19.738 3.36 12.388 4.935 18.583 2.94 22.677-5.67 11.338-37.06 4.724-43.254.84-2.835-1.785-6.09-4.2-6.09-4.2-1.89-1.364-3.464-2.624-4.514-3.464-3.884-3.045-6.719-5.144-7.664-5.984-.525-.42-1.155-.84-1.68-1.26-.314-.21-.63-.42-1.05-.63-1.364-.735-2.73-1.365-4.199-1.785-1.89-.735-3.884-1.365-5.984-1.68-1.575-.314-1.89-.105-9.449-.21h-4.724c-1.05 0-2.31.105-6.614.63-4.2.525-6.51.735-8.504 1.05l-6.615 1.155s-9.868 2.1-18.163 3.255c-3.57.525-4.094.42-7.139.945-4.41.84-6.614 1.154-7.559 1.89-4.41 3.359 1.68 12.177-1.574 18.582-4.725 8.924-26.877 11.13-35.695 1.575-3.465-3.674-3.885-8.189-4.41-12.703-2.415-20.577-5.984-40.945-7.874-61.522-.84-9.449-1.68-18.268-3.674-30.236-1.05-6.51-3.045-25.197-7.14-62.467-.524-3.674-1.05-10.394 3.045-13.438z" class="material-dinophp__st0"/></g></svg>