<svg xmlns="http://www.w3.org/2000/svg" viewBox="0 0 24 24" class="svg material-lolcode" width="16" height="16" aria-hidden="true"><path d="m12 7.687-1.35.091c-.872-1.035-3.318-3.643-5.754-3.643 0 0-1.999 3.004-.04 7.013-.559.842-.904 1.278-.975 2.283l-1.958.294.213.995 1.786-.264.142.72-1.593.954.477.904 1.471-.904c1.167 2.477 4.12 3.735 7.581 3.735 3.46 0 6.414-1.258 7.58-3.735l1.472.904.477-.904-1.593-.953.142-.721 1.786.264.213-.995-1.958-.294c-.071-1.005-.416-1.441-.975-2.283 1.959-4.009-.04-7.013-.04-7.013-2.436 0-4.881 2.608-5.754 3.643L12 7.687m-3.044 3.044a1.015 1.015 0 0 1 1.014 1.015 1.015 1.015 0 0 1-1.014 1.015 1.015 1.015 0 0 1-1.015-1.015 1.015 1.015 0 0 1 1.015-1.015m6.089 0a1.015 1.015 0 0 1 1.014 1.015 1.015 1.015 0 0 1-1.014 1.015 1.015 1.015 0 0 1-1.015-1.015 1.015 1.015 0 0 1 1.015-1.015m-4.06 3.045h2.03l-.71 1.41c.203.65.77 1.127 1.471 1.127a1.522 1.522 0 0 0 1.522-1.522h.508a2.03 2.03 0 0 1-2.03 2.03c-.761 0-1.42-.416-1.776-1.015a2.068 2.068 0 0 1-1.776 1.015 2.03 2.03 0 0 1-2.03-2.03h.508a1.522 1.522 0 0 0 1.522 1.522c.7 0 1.268-.477 1.471-1.126z" style="fill:#ef5350;stroke-width:1.0148"/></svg>