<svg xmlns="http://www.w3.org/2000/svg" xml:space="preserve" viewBox="0 0 400 400" class="svg material-bower" width="16" height="16" aria-hidden="true"><path fill="#543729" d="M376.834 196.261c-18.912-18.172-113.486-29.517-143.327-32.819a87.566 87.566 0 0 0 3.692-10.58c4.068-1.78 8.46-3.438 13-4.822.553 1.632 3.159 7.885 4.644 10.853 60.004 1.655 63.085-44.591 65.525-57.26 2.387-12.389 2.265-24.359 22.847-46.241-30.663-8.936-74.759 13.85-89.53 47.762-5.55-2.08-11.114-3.615-16.615-4.565-3.943-15.905-24.474-60.215-78.352-60.215-68.215 0-142.567 56.276-142.567 151.542 0 80.078 54.672 150.258 85.559 150.258 13.49 0 25.094-10.103 27.818-19.158 2.284 6.209 9.292 25.51 11.593 30.424 3.402 7.267 19.134 13.554 26.018 6.014 8.852 4.917 25.095 7.88 33.947-5.235 17.049 3.606 32.12-6.56 32.45-18.691 8.365-.447 12.469-12.193 10.642-21.547-1.346-6.887-15.732-31.599-21.343-40.13 11.108 9.035 39.243 11.593 42.66.006 17.909 14.057 45.817 6.679 48.03-4.753 21.761 5.654 46.72-6.764 42.621-21.803 34.958-2.418 30.483-39.611 20.675-49.037z"/><path fill="#00acee" d="M279.494 116.935c7.529-14.938 16.99-31.25 28.94-41.34-13.153 5.3-26.139 21.146-33.817 38.083a118.443 118.443 0 0 0-11.893-6.646c10.71-22.862 35.598-41.955 63.025-43.447-18.37 16.662-11.85 51.29-26.954 69.623-4.322-4.342-14.247-12.72-19.301-16.273zm-11.876 24.326c.008-.572.222-4.981.624-6.994-1.054-.248-7.601-1.529-11.015-1.449-.249 4.288 1.802 11.581 3.828 15.972 13.956-.292 24.036-4.472 29.969-8.314-5.051-2.354-13.67-4.448-20.224-5.7-.732 1.513-2.531 5.368-3.182 6.485z"/><g stroke-width=".973" transform="translate(10.989 32.73) scale(.81733)"><path fill="#2baf2b" d="M250.54 277.39c.004.024.015.057.018.082-2.165-4.657-4.463-10.314-7.208-17.708 10.688 15.557 44.184 7.533 42.427-6.407 16.395 12.336 50.143-2.055 42.471-19.353 16.423 7.653 35.168-7.745 30.964-14.455 28 5.4 54.832 10.783 63.256 12.938-5.595 9.123-18.339 15.566-37.549 11.089 10.38 14.14-9.773 31.105-37.844 21.76 6.18 13.883-18.814 26.38-47.22 11.91.361 13.889-35.24 15.488-49.315.143zm55.543-70.194c32.497 2.495 86.238 7.34 119.51 11.997-2.102-10.828-7.844-13.921-25.905-18.772-19.425 2.072-68.706 6.913-93.604 6.776z"/><path fill="#ffcc2f" d="M285.78 253.36c16.395 12.336 50.143-2.055 42.471-19.353 16.423 7.653 35.168-7.745 30.964-14.455-33.103-6.383-67.84-12.788-75.719-13.908 4.78.254 12.702.797 22.59 1.556 24.899.137 74.18-4.704 93.604-6.775-31.452-7.975-95.666-19.613-140.01-22.48-2.055 3.003-5.833 8.097-12.413 13.51-19.403 41.053-54.557 68.34-93.454 68.34-11.335 0-24.018-1.912-38.233-6.456-8.865 9.497-46.661 16.694-77.329 1.641 24.326 56.961 80.74 94.984 143.19 94.984 52.591 0 75.912-53.704 70.808-67.914-1.238-3.45-6.145-14.889-8.891-22.283 10.689 15.556 44.185 7.532 42.429-6.408z"/><path fill="#cecece" d="M253.91 145.27c4.644-2.526 20.69-12.253 35.981-15.908a67.843 67.843 0 0 1-.536-5.12c-10.032 2.403-28.945 10.51-39.784-.661 22.866 6.9 34.283-6.149 51.09-6.149 10.014 0 24.305 2.798 35.57 7.22-9.061-8.37-38.772-33.63-75.558-33.717-8.213 9.957-17.09 31.526-6.764 54.334z"/><path fill="#ef5734" d="M115.58 253.33c14.215 4.544 26.898 6.457 38.233 6.457 38.896 0 74.05-27.29 93.454-68.341-14.351 11.978-39.291 22.228-78.241 22.228 34.694-7.866 64.56-25.156 79.753-50.427-10.68-16.998-22.263-54.603 7.07-84.33-4.512-14.497-26.475-52.766-75.095-52.766-84.85 0-155.17 71.001-155.17 166.15 0 22.525 4.547 43.65 12.67 62.664 30.666 15.054 68.462 7.858 77.327-1.64z"/><path fill="#ffcc2f" d="M141.03 108.45c0 21.644 17.546 39.191 39.19 39.191s39.192-17.548 39.192-39.191c0-21.644-17.548-39.191-39.192-39.191s-39.19 17.547-39.19 39.191z"/><path fill="#543729" d="M156.76 108.45c0 12.958 10.507 23.463 23.463 23.463 12.96 0 23.464-10.506 23.464-23.463 0-12.959-10.504-23.464-23.464-23.464-12.957 0-23.463 10.506-23.463 23.464z"/><ellipse cx="180.22" cy="98.044" fill="#fff" rx="13.673" ry="8.501"/></g></svg>