<svg xmlns="http://www.w3.org/2000/svg" viewBox="0 0 24 24" class="svg material-folder-node-open" width="16" height="16" aria-hidden="true"><path fill="#8bc34a" d="M19 20H4a2 2 0 0 1-2-2V6c0-1.11.89-2 2-2h6l2 2h7c1.097 0 2 .903 2 2H4v10l2.14-8h17.07l-2.28 8.5c-.23.87-1.01 1.5-1.93 1.5z"/><path fill="#dcedc8" d="m17.15 8.53-5.49 3.17c-.21.12-.33.34-.33.57v6.34c0 .24.13.46.33.57l5.49 3.18c.21.12.46.12.66 0l5.49-3.17c.2-.12.33-.34.33-.57v-6.34c0-.24-.13-.46-.33-.57l-5.49-3.18a.656.656 0 0 0-.66 0"/></svg>