<svg xmlns="http://www.w3.org/2000/svg" xml:space="preserve" fill-rule="evenodd" stroke-linejoin="round" stroke-miterlimit="1.414" clip-rule="evenodd" viewBox="0 0 24 24" class="svg material-folder-gradle" width="16" height="16" aria-hidden="true"><path fill="#e57373" fill-rule="nonzero" d="M10 4H4c-1.11 0-2 .89-2 2v12c0 1.097.903 2 2 2h16c1.097 0 2-.903 2-2V8a2 2 0 0 0-2-2h-8l-2-2z" style="fill:#0097a7"/><path d="M23.441 10.229c-.522-.94-1.456-1.22-2.115-1.233-.809-.016-1.473.432-1.348.726.027.063.179.393.272.529.135.196.376.045.46 0 .253-.134.523-.177.829-.141.292.033.68.214.941.714.613 1.179-1.28 3.604-3.65 1.925-2.369-1.68-4.673-1.123-5.717-.785-1.043.339-1.523.679-1.11 1.466.56 1.07.374.742.917 1.627.863 1.406 2.752-.647 2.752-.647-1.407 2.074-2.613 1.573-3.076.848a11.315 11.315 0 0 1-.74-1.407c-3.564 1.257-2.6 6.805-2.6 6.805h1.77c.45-2.043 2.064-1.967 2.34 0h1.35c1.195-3.99 4.222 0 4.222 0h1.76c-.493-2.72.99-3.576 1.925-5.171.935-1.596 1.82-3.547.818-5.256zm-4.54 5.254c-.931-.304-.598-1.23-.598-1.23s.813.263 1.912.621c-.063.288-.61.839-1.314.609z" style="fill:#b2ebf2;stroke-width:.33551"/></svg>