<svg xmlns="http://www.w3.org/2000/svg" viewBox="0 0 300 300" class="svg material-nodemon" width="16" height="16" aria-hidden="true"><path fill="#8bc34a" d="M149.868 20.62c-2.124 0-4.25.55-6.154 1.648L41.899 81.083a12.306 12.306 0 0 0-6.15 10.652v117.633a12.29 12.29 0 0 0 6.152 10.646l101.815 58.766h.001a12.282 12.282 0 0 0 12.291 0l101.84-58.766a12.29 12.29 0 0 0 6.153-10.652V91.738a12.31 12.31 0 0 0-6.146-10.652L156.015 22.27a12.302 12.302 0 0 0-6.153-1.648zM83.303 70.93s11.789 33.031 35.477 31.934l27.74-15.961a7.348 7.348 0 0 1 3.414-.99h.641a7.233 7.233 0 0 1 3.404.99l27.738 15.961c23.69 1.094 35.475-31.934 35.475-31.934 5.233 23.154 1.06 38.641-5.924 48.942l4.541 2.614h.002c2.321 1.327 3.734 3.795 3.737 6.49l-.12 95.811a3.724 3.724 0 0 1-1.855 3.227 3.624 3.624 0 0 1-3.735 0L177.1 206.971c-2.311-1.363-3.742-3.818-3.742-6.48v-44.763a7.44 7.44 0 0 0-3.737-6.465l-15.642-9.01a7.28 7.28 0 0 0-3.715-1.01 7.378 7.378 0 0 0-3.742 1.01l-15.648 9.01c-2.316 1.323-3.729 3.798-3.729 6.467v44.762c0 2.663-1.413 5.1-3.738 6.48l-36.748 21.041a3.571 3.571 0 0 1-3.71 0c-1.173-.65-1.864-1.887-1.864-3.224l-.137-95.812a7.483 7.483 0 0 1 3.74-6.49l4.541-2.615c-6.982-10.302-11.16-25.79-5.925-48.942z"/></svg>