<svg xmlns="http://www.w3.org/2000/svg" fill-rule="evenodd" stroke-linejoin="round" stroke-miterlimit="1.414" clip-rule="evenodd" viewBox="0 0 24 24" class="svg material-folder-syntax" width="16" height="16" aria-hidden="true"><path fill="#E53935" fill-rule="nonzero" d="M10 4H4c-1.11 0-2 .89-2 2v12c0 1.097.903 2 2 2h16c1.097 0 2-.903 2-2V8a2 2 0 0 0-2-2h-8l-2-2z" style="fill:#ef5350"/><path d="M17.726 17.072h1.184l-2.894-7.36h-1.053l-2.894 7.36h1.184l.634-1.698h3.193zm-3.409-2.832 1.172-3.124 1.172 3.124zm8.585.335-4.58 4.58-2.078-2.083-.8.798 2.883 2.882 5.373-5.378z" style="fill:#ffcdd2;stroke-width:1.1673"/></svg>