<svg xmlns="http://www.w3.org/2000/svg" viewBox="0 0 300 300" class="svg material-haml" width="16" height="16" aria-hidden="true"><path fill="#f4511e" d="M75.766 33.97c-12.149-.304-27.153 6.049-27.153 6.049l49.613 100.64-26.308 112.47c24.012 20.305 50.496 10.593 50.496 10.593l12.187-87.03c1.54 1.458 3.172 2.794 4.818 4.028 5.289 3.746 11.018 6.609 16.746 8.813 5.73 2.203 11.68 3.966 17.63 5.288 3.967.882 7.711 1.543 11.677 1.984-1.763 3.966-2.864 8.152-2.643 12.78 0 .44.22.88.661 1.1h.22c4.186 2.204 8.593 3.97 13.44 5.071 4.628.881 9.697 1.323 14.545.662 5.068-.661 10.136-2.645 14.103-5.95 3.967-3.306 6.831-7.714 8.594-12.34l.22-.221v-.219l.663-5.949v-.222c2.203-1.322 4.406-2.644 6.61-4.406 2.644-2.204 5.068-4.629 6.83-7.714 1.764-3.085 2.865-6.831 2.644-10.577-.22-3.525-1.544-7.049-3.086-10.134-1.543-3.085-3.525-5.951-5.728-8.596-4.408-5.068-9.696-9.253-15.425-12.559-5.51-3.525-11.68-6.392-17.85-8.375l-2.424-.662-1.98-.66c-1.322-.44-2.426-1.101-3.527-1.542-2.204-1.322-3.748-2.645-4.85-4.408-2.203-3.305-2.423-8.371-1.321-13.66.22-1.322.662-2.645 1.103-3.967.44-1.322.88-2.645 1.321-4.188a27.02 27.02 0 0 0 .603-4.44l29.451-25.77c-2.295-8.474-27.722-17.303-27.722-17.303l-75.57 64.269-43.61-82.277c-1.566-.353-3.245-.532-4.98-.575zm108.6 73.763c-.452 2.355-.652 4.836-.652 7.32.22 3.746 1.323 7.936 3.746 11.462 2.424 3.525 5.728 6.169 9.034 7.711a29.91 29.91 0 0 0 5.07 1.984l2.645.66 2.202.44c5.73 1.543 11.237 3.746 16.305 6.611 5.068 2.865 9.916 6.39 13.883 10.357 3.967 3.966 7.052 9.035 7.493 14.103.22 3.526-.222 6.17-1.324 8.373-1.101 2.424-2.864 4.627-4.847 6.61-.881.882-1.983 1.762-2.864 2.423 0-1.983-.22-3.965-.66-5.948-.22-1.102-.442-1.983-.882-3.085-.44-.881-.88-1.982-1.982-2.643-.22 0-.443-.001-.443.219-1.322 3.305-3.525 6.171-5.948 8.154-2.424 1.983-5.51 2.864-8.594 3.085-3.085.22-6.392-.44-9.697-1.322-3.306-.881-6.609-1.985-9.914-3.086l-.443-.221c-.661-.22-1.539.002-1.98.443-1.762 2.204-3.086 4.184-4.628 6.388a58.98 58.98 0 0 0-2.864 5.07c-3.967-1.543-7.715-2.866-11.68-4.408-5.51-2.204-11.02-4.406-16.087-7.05-5.289-2.424-10.354-5.29-14.761-8.596-3.178-2.383-6.114-4.886-8.255-7.747l2.424-17.318z"/></svg>