<svg xmlns="http://www.w3.org/2000/svg" fill="none" viewBox="0 0 24 24" class="svg material-gitpod" width="16" height="16" aria-hidden="true"><g fill="#ffa726" clip-path="url(#material-gitpod__a)" transform="translate(2.135 2.135) scale(.82213)"><path fill-rule="evenodd" d="M14.07 1.195a2.364 2.364 0 0 1-.887 3.236l-7.11 4.04a.6.6 0 0 0-.304.52v6.343a.6.6 0 0 0 .304.52l5.628 3.199a.605.605 0 0 0 .598 0l5.628-3.198a.6.6 0 0 0 .304-.521V11.39l-5.06 2.838a2.392 2.392 0 0 1-3.248-.9 2.364 2.364 0 0 1 .905-3.23l7.239-4.062C20.272 4.8 23 6.383 23 8.901v6.914a4.51 4.51 0 0 1-2.287 3.919l-6.461 3.671a4.56 4.56 0 0 1-4.504 0l-6.461-3.671A4.509 4.509 0 0 1 1 15.815V8.51c0-1.62.873-3.115 2.287-3.918l7.53-4.28a2.392 2.392 0 0 1 3.253.883z" clip-rule="evenodd"/></g><defs><clipPath id="material-gitpod__a"><path fill="#fff" d="M0 0h24v24H0z"/></clipPath></defs></svg>