<svg xmlns="http://www.w3.org/2000/svg" xml:space="preserve" fill-rule="evenodd" stroke-linejoin="round" stroke-miterlimit="1.414" clip-rule="evenodd" viewBox="0 0 24 24" class="svg material-folder-jinja_light" width="16" height="16" aria-hidden="true"><path fill="#616161" fill-rule="nonzero" d="M10 4H4c-1.11 0-2 .89-2 2v12c0 1.097.903 2 2 2h16c1.097 0 2-.903 2-2V8a2 2 0 0 0-2-2h-8l-2-2z"/><g fill="#f5f5f5"><path d="M9.875 11.625q3.828.472 6.563.469 2.69-.003 6.437-.469v1.719q-3.747.466-6.437.469-2.735.002-6.563-.469v-1.719z"/><path d="m12.844 13.008-.875 8.508 1.906-.008.281-8-1.312-.5zM19.688 13l.851 8.5h-1.883l-.281-8 1.313-.5z"/><path d="M9.797 15.172h13v1h-13z"/><path d="M15.797 13h1v2.375h-1z"/></g></svg>