<svg xmlns="http://www.w3.org/2000/svg" viewBox="0 0 200 200" class="svg material-travis" width="16" height="16" aria-hidden="true"><path fill="#cb3349" d="M53.341 89.17s-27.564 19.4-28.641 26.791l2.068-.425S59.776 93.66 85.942 90.991l.592-3.321zm43.27-2.773-21.712 15.4 1.174.941c.885-.714 38.567-12.222 38.567-12.222l7.944-4.981c-5.33.664-25.973.862-25.973.862zm18.869 18.627c15.417 0 38.527-15.1 38.527-15.1l-7.47-1.422c-.37.37-12.047-.409-12.047-.409l-5.544-1.54-13.243 15.091-1.078 2.619c.952-.387.854.76.854.76zm50.313 48.152-4.763 1.34-22.006-.475-13.766-10.705-16.64 4.163-19.244-1.665-10.777 11.776-20.22 6.04-10.097-3.13-.509-.438 4.532 11.097s10.265 11.005 15.999 12.299c5.733 1.294 16.09-.093 23.859-1.296 7.767-1.202 13.963-3.976 16.46-8.506 2.496-4.533 2.866-5.827 2.866-5.827s7.4 10.45 13.78 11.653c6.38 1.202 25.338-5.273 25.338-5.273s11.56-3.143 13.593-7.12c2.035-3.976 7.4-17.015 7.4-17.015zM50.4 162.216l-.32-.147c-.758-.655-1.378-1.19-1.783-1.538z"/><path fill="#f4edae" d="M184.483 74.565a42.582 42.582 0 0 0-.186-1.78 23.478 23.478 0 0 0-.19-1.26c-1.588-1.337-3.394-2.526-5.273-3.607-2.036-1.19-4.166-2.255-6.341-3.244-2.16-1.02-4.378-1.941-6.609-2.841-1.113-.452-2.237-.89-3.364-1.309-1.124-.438-2.259-.846-3.397-1.26 2.389.395 4.753.937 7.1 1.541 1.526.395 3.044.837 4.552 1.309-10.728-28.04-36.38-46.301-64.386-46.301-28.01 0-53.659 18.26-64.385 46.3a96.592 96.592 0 0 1 4.55-1.308c2.35-.604 4.716-1.146 7.103-1.542-1.142.415-2.274.823-3.402 1.261-1.122.419-2.246.857-3.364 1.309-2.231.9-4.443 1.822-6.608 2.84-2.17.99-4.302 2.056-6.339 3.245-1.879 1.08-3.682 2.27-5.277 3.606-.066.405-.133.843-.186 1.262-.071.59-.137 1.185-.186 1.78a45.49 45.49 0 0 0-.156 3.597 52.453 52.453 0 0 0 .443 7.183c.327 2.385.765 4.754 1.412 7.043.32 1.147.68 2.279 1.099 3.373a28.964 28.964 0 0 0 1.042 2.374l.153.291c.176.09.361.18.537.266l1.067.509c.594.27 1.417.66 2.097.966a1.55 1.55 0 0 0 .11-.101l-1.98-7.541c.42-.115 4.179-1.085 10.658-2.318a32.192 32.192 0 0 1-5.91-1.723c-.7-.295-1.388-.618-2.045-.988-.657-.377-1.304-.804-1.804-1.371 7.118 2.322 21.826 1.27 34.9-.08 11.957-1.233 23.942-2.032 35.99-2.056 12.048.024 24.037.823 35.99 2.055 13.08 1.351 27.787 2.403 34.904.08-.5.568-1.145.996-1.802 1.372a19.93 19.93 0 0 1-2.045.988 32.273 32.273 0 0 1-4.34 1.385c-.218.052-.438.1-.657.147 7.104 1.318 11.24 2.39 11.682 2.508l-1.894 7.184c.38-.172.765-.338 1.142-.509l1.065-.51c.177-.085.357-.175.538-.265l.147-.29c.13-.247.253-.505.371-.766.24-.523.468-1.062.677-1.608a37.415 37.415 0 0 0 1.1-3.373c.647-2.29 1.084-4.659 1.412-7.043.306-2.379.466-4.782.444-7.184-.01-1.201-.053-2.4-.159-3.596z"/><path fill="#e6ccad" d="M114.47 174.284c-.943.142-1.885.262-2.823.332-.604.03-1.243.09-1.823.09l-.215.005a516.423 516.423 0 0 0 1.7-3.844c.853.957 1.938 2.141 3.16 3.417zm2.046 2.091c2.926 2.898 6.553 4.558 10.544 4.853-6.704 2.723-13.023 3.774-17.89 4.101-4.853.325-9.772-.247-14.593-1.568.404-.073.7-.125 1.057-.168.396-.048 9.04-1.175 12.937-6.97l.366.009.957-.008c.647 0 1.235-.053 1.854-.077a38.7 38.7 0 0 0 4.321-.623c.148.151.295.3.447.45z"/><path fill="#656c67" d="M124.807 89.611c-.28.366-.595.77-.928 1.19-1.713 2.165-4.088 4.934-6.904 7.642a327.378 327.378 0 0 0-10.102-.157c-5.722 0-11.21.152-16.42.405 7.362-3.055 16.206-6.04 25.785-7.832 2.797-.53 5.66-.953 8.569-1.248zm-43.085 3.297c-2.627 1.846-5.595 4.202-8.473 7.06a319.025 319.025 0 0 0-19.104 2.49c8.155-3.75 17.462-7.2 27.577-9.55zm90.05 15.216-2.998 20.975-14.36 10.058-37.454-4.258-5.639-18.567a1.225 1.225 0 0 0-.981-.86c-1.388-.225-2.616-.339-3.639-.339-1.027 0-2.25.114-3.645.339a1.235 1.235 0 0 0-.98.86l-5.5 18.114-37.245 8.289-14.759-10.34-2.908-23.537c.633-.358 1.276-.714 1.927-1.07.914-.197 1.941-.406 3.079-.624l2.74 22.21c.043.347.234.656.52.856l10.152 7.115a1.263 1.263 0 0 0 .976.188l30.622-6.813a1.23 1.23 0 0 0 .909-.842l5.514-18.158c1.479-.38 5.268-1.266 8.597-1.266 3.321 0 7.113.885 8.593 1.266l5.514 18.157c.143.472.553.808 1.042.866l30.622 3.478c.297.033.6-.044.844-.214l10.159-7.109c.274-.195.46-.501.507-.838l2.713-18.974c2.038.393 3.741.75 5.078 1.038zm3.782-13.155-2.636 10c-5.39-1.188-17.234-3.52-33.354-5.09 5.267-2.246 10.63-5.063 15.53-8.584 9.592 1.356 16.635 2.807 20.46 3.674z"/><path fill="#e5caa3" d="M67.567 126.256c2.088-1.128 4.448-.96 8.14-.956.397.01.805.005 1.232-.004.363-.004.728-.01 1.114-.02 3.806-.037 6.97.325 6.915-5.652-.058-5.975-2.712-10.805-6.514-10.767-3.806.033-7.489 4.929-7.261 10.9.062 1.556.29 2.679.657 3.488-3.317.831-4.231 2.883-4.283 3.011zm45.758-24.58a41.308 41.308 0 0 1-4.65 3.288l-5.4 3.26a46.119 46.119 0 0 0-6.494 1.3 1.245 1.245 0 0 0-.838.827l-5.5 18.123-29.395 6.537-9.259-6.485-2.693-21.82c5.258-.966 12.29-2.084 20.736-3.03a50.316 50.316 0 0 0-2.617 3.415l-5.029 7.218 7.322-4.881c.11-.076 4.772-3.144 12.4-6.875a334.307 334.307 0 0 1 31.417-.877zm32.192 22.135c-.037-.141-.837-2.545-4.378-2.123.409-.888.59-2.087.462-3.73-.468-5.961-3.936-10.7-7.738-10.568-3.802.135-6.238 5.077-6.028 11.053.21 5.972 3.402 5.93 7.204 5.796 5.11-.095 7.918-1.665 10.478-.428zm18.761-17.17-2.65 18.551-9.336 6.537-29.356-3.336-5.477-18.038a1.25 1.25 0 0 0-.837-.827c-.182-.053-3.816-1.09-7.67-1.424l.704-.047c.609-.043 10.734-1.285 22.825-5.453 13.388 1.028 24.322 2.675 31.797 4.036z"/><path fill="#c7b39a" d="M67.567 126.256c2.088-1.128 4.448-.96 8.14-.956.397.01.805.005 1.232-.004.363-.004.728-.01 1.114-.02 3.806-.037 6.97.325 6.915-5.652-.058-5.975-2.712-10.805-6.514-10.767-3.806.033-7.489 4.929-7.261 10.9.062 1.556.29 2.679.657 3.488-3.317.831-4.231 2.883-4.283 3.011zm45.758-24.58a41.308 41.308 0 0 1-4.65 3.288l-5.4 3.26a46.119 46.119 0 0 0-6.494 1.3 1.245 1.245 0 0 0-.838.827l-5.5 18.123-29.395 6.537-9.259-6.485-2.693-21.82c5.258-.966 12.29-2.084 20.736-3.03a50.316 50.316 0 0 0-2.617 3.415l-5.029 7.218 7.322-4.881c.11-.076 4.772-3.144 12.4-6.875a334.307 334.307 0 0 1 31.417-.877zm32.192 22.135c-.037-.141-.837-2.545-4.378-2.123.409-.888.59-2.087.462-3.73-.468-5.961-3.936-10.7-7.738-10.568-3.802.135-6.238 5.077-6.028 11.053.21 5.972 3.402 5.93 7.204 5.796 5.11-.095 7.918-1.665 10.478-.428zm18.761-17.17-2.65 18.551-9.336 6.537-29.356-3.336-5.477-18.038a1.25 1.25 0 0 0-.837-.827c-.182-.053-3.816-1.09-7.67-1.424l.704-.047c.609-.043 10.734-1.285 22.825-5.453 13.388 1.028 24.322 2.675 31.797 4.036z"/><g fill="#e6ccad"><path d="M177.087 114.794c.45.371.807 1.332.404 5.809-.495 5.481-2.8 15.102-4.226 16.653-1.575.305-4.877-.057-6.89-.527.348-1.381.447-2.043.728-3.455l3.521-2.463c.28-.195.466-.501.514-.834l2.46-17.243c1.494.808 3.03 1.683 3.489 2.06zM47.279 137.302c.176.624.361 1.246.553 1.86-1.895.557-5.754 1.09-7.499.785-1.446-1.457-4.144-11.485-4.734-16.81-.481-4.315-.144-5.248.295-5.611.51-.428 2.416-1.513 4.068-2.398l2.232 18.114c.042.348.227.656.519.856zm71.23.248-.134 1.156s-4.058 3.763-10.59 4.605c-6.533.842-11.667-3.173-11.667-3.173.214.698.519 2.274 1.998 3.62a47.11 47.11 0 0 0-5.592-.348c-.712 0-1.432.02-2.127.054-4.02.21-9.676 6.289-13.654 12.413-1.951.618-8.05 2.554-15.111 4.64-6.59-9.132-9.831-18.463-10.16-19.428l.005-.005c-.133-.372-.267-.744-.39-1.124l1.694 1.186v.004l4.186 2.931 1.4.975c.209.148.456.224.703.224.09 0 .18-.01.27-.027l38.475-8.566c.431-.094.78-.419.908-.841l5.486-18.062a18.882 18.882 0 0 1 2.493-.195c.71 0 1.547.067 2.494.195l5.646 18.6c.143.47.552.814 1.037.865z"/><path d="m162.427 136.558 1.242-.872a77.088 77.088 0 0 1-.662 2.566c-1.726 5.534-3.765 10.43-6.028 14.754-.5.034-1.028.054-1.594.054-1.747 0-3.531-.148-5.506-.33-3.426-.314-8.864-.936-10.581-1.136-1.48-1.18-6.542-5.202-10.754-8.517-.166-.133-.308-.257-.447-.372-.742-.627-1.585-1.34-3.293-1.34-1.55 0-3.816.565-9.29 2.222 2.844-2.127 2.863-4.872 2.863-4.872l.134-1.156 36.094 4.1c.294.034.599-.042.846-.213l3.627-2.54z"/></g><path fill="#ebd599" d="M135.862 60.616c.11 3.21.029 9.03-1.466 14.478a1.18 1.18 0 0 0 0 .624 234.17 234.17 0 0 0-5.71-.524c2.136-4.477 2.602-9.244 2.703-10.923 1.64-1.167 3.274-2.566 4.473-3.655zM81.4 64.27c.098 1.68.564 6.437 2.697 10.91-1.903.152-3.806.328-5.705.528a1.176 1.176 0 0 0 0-.615c-1.494-5.438-1.57-11.262-1.465-14.478 1.198 1.09 2.825 2.489 4.472 3.655z"/><path fill="#2d3136" d="M145.517 123.811c-2.56-1.236-5.367.334-10.477.43-3.802.133-6.995.174-7.204-5.797-.21-5.976 2.226-10.918 6.028-11.053 3.802-.133 7.27 4.606 7.738 10.569.128 1.642-.054 2.84-.462 3.729 3.54-.423 4.34 1.98 4.377 2.122zm-11.948-8.75a1.951 1.951 0 0 0 1.908-1.98 1.937 1.937 0 0 0-1.98-1.906 1.944 1.944 0 0 0 .072 3.887z"/><circle cx="131.439" cy="115.529" r="1.943" fill="#edf6fa" transform="rotate(-1.049)"/><path fill="#2d3136" d="M84.967 119.622c.056 5.976-3.108 5.615-6.914 5.652-.386.01-.752.014-1.115.02-.427.01-.836.013-1.231.003-3.692-.004-6.053-.172-8.14.956.05-.128.965-2.18 4.282-3.012-.366-.81-.596-1.932-.657-3.487-.228-5.971 3.455-10.868 7.261-10.9 3.802-.038 6.457 4.792 6.514 10.767zm-5.876-3.126a1.944 1.944 0 1 0-.109-3.887 1.944 1.944 0 0 0 .109 3.887z"/><circle cx="76.07" cy="116.551" r="1.944" fill="#edf6fa" transform="rotate(-1.473)"/><path fill="#ebd599" fill-opacity=".8" d="M55.92 79.056s.59-7.7 1.797-10.65c.622-1.52 4.426-2.489 7.331-3.18 2.904-.692 7.537-2.075 8.437 2.005.899 4.08 2.35 7.053 3.318 8.367l-1.244-16.803-19.985 4.84-1.315 14.869.623 1.175 1.037-.623m101.131 0s-.59-7.7-1.797-10.65c-.623-1.52-4.427-2.489-7.33-3.18-2.906-.692-7.538-2.075-8.438 2.005-.898 4.08-2.351 7.053-3.32 8.367l1.246-16.803 19.985 4.84 1.314 14.869-.623 1.175-1.037-.623" opacity=".8"/><path fill="#ebd599" fill-opacity=".75" d="M128.793 28.763s-.53 40.295-9.942 40.295H94.379c-9.413 0-10.173-40.277-10.173-40.277l-4.624 13.675.076 18.764 3.283 2.61 1.493 8.058 2.088 4.7 40.288.075 1.864-3.358 1.567-5.67.225-3.58 4.45-12.704zm29.647 37.572s1.938 13.9 7.064 16.407c5.127 2.506 0 0 0 0l-7.178-2.165zm-104.1 0s-1.938 13.9-7.065 16.407c-5.127 2.506 0 0 0 0l7.179-2.165z" opacity=".75"/><path fill="#2d3136" d="M159.823 80.513c2.44.8 4.894 1.646 7.118 2.946-1.19-.472-2.418-.809-3.655-1.114a62.347 62.347 0 0 0-3.721-.818 116.16 116.16 0 0 0-7.528-1.176 168.891 168.891 0 0 0-7.57-.818c-2.531-.214-5.057-.428-7.594-.576-10.139-.624-20.306-.78-30.48-.79-10.172.005-20.34.196-30.48.795-2.535.147-5.062.362-7.593.576-2.53.214-5.058.486-7.57.818-2.522.305-5.03.705-7.527 1.175-1.247.234-2.49.505-3.726.814-1.232.305-2.465.642-3.655 1.114 2.223-1.299 4.677-2.15 7.123-2.95.205-.067.414-.124.623-.19-.014-.053-.029-.1-.038-.157-.043-.281-.947-6.962.628-16.516.076-.457.404-.828.852-.952l2.584-.736c.561-20.042 8.815-29.467 9.073-29.758-7.375 11.867-7.308 25.942-7.18 29.22l16.057-4.565.038-.008c.067-.015.133-.024.2-.029.018 0 .043-.005.066-.005.082-.004.173.005.263.024.014 0 .028.01.047.014.067.014.129.037.199.066.029.015.047.03.076.044.051.03.105.062.157.1.014.009.03.013.043.028l.028.029c.015.014.033.024.048.039.01.014.438.436 1.118 1.07-.161-5.29.09-20.469 7.319-33.049-.153.441-5.887 17.21-3.911 36.004a30.03 30.03 0 0 0 1.974 1.46c.318.22.514.58.518.966.006.062.143 6.053 2.789 11.149.037.076.065.156.09.237 6.58-.447 13.18-.628 19.764-.632 6.587.004 13.18.194 19.76.647.024-.086.053-.17.096-.252 2.645-5.096 2.784-11.087 2.784-11.15.009-.385.204-.746.523-.965a32.24 32.24 0 0 0 1.97-1.46c1.979-18.794-3.756-35.563-3.907-36.004 7.222 12.58 7.48 27.758 7.318 33.05a55.365 55.365 0 0 0 1.117-1.071c.014-.015.035-.024.047-.04.01-.008.016-.018.03-.028.014-.014.029-.02.043-.029.053-.037.105-.07.157-.104a.5.5 0 0 0 .071-.039c.072-.029.138-.052.21-.07.014 0 .029-.01.043-.01.085-.019.177-.028.262-.024.024 0 .043.005.062.005.066.005.138.014.205.029.01.005.024.005.037.009l16.058 4.563c.13-3.277.196-17.353-7.178-29.219.256.29 8.512 9.717 9.068 29.758l2.588.736c.442.124.775.495.852.952 1.574 9.554.666 16.235.627 16.516-.009.057-.023.11-.037.161.212.062.417.123.627.19zm-2.92-.857c.123-1.07.698-6.917-.524-14.882l-18.177-5.167c.163 3.078.235 9.754-1.512 16.12a1.43 1.43 0 0 1-.09.229c.18.019.362.033.537.057 5.11.585 10.197 1.403 15.226 2.507 1.517.352 3.035.729 4.539 1.136zm-22.508-4.563c1.495-5.447 1.576-11.267 1.466-14.478-1.199 1.09-2.832 2.488-4.473 3.654-.1 1.68-.567 6.447-2.703 10.923 1.903.154 3.807.325 5.71.524a1.179 1.179 0 0 1 0-.623zm-50.296.087c-2.133-4.473-2.599-9.232-2.698-10.91-1.646-1.166-3.274-2.565-4.473-3.654-.105 3.216-.028 9.04 1.466 14.478.057.21.051.42 0 .615 1.9-.201 3.801-.377 5.705-.529zm-7.913.765a1.461 1.461 0 0 1-.087-.218c-1.75-6.367-1.673-13.042-1.516-16.121l-18.171 5.167c-1.223 7.956-.652 13.803-.53 14.879 1.51-.41 3.022-.786 4.546-1.138 2.511-.556 5.043-1.022 7.579-1.45 2.541-.424 5.09-.747 7.64-1.057.182-.024.358-.037.54-.062z"/><path fill="#2d3136" d="M125.542 29.29v15.081h-10.69v-4.406h-2.41v20.357h3.64v11.382H97.385V60.322h3.625V39.966h-2.401v4.406H87.925V29.29zm-3.212 11.877v-8.671h-31.2v8.671h4.266v-4.406h8.826v26.773h-3.632V68.5h12.282v-4.966h-3.632V36.761h8.826v4.406z"/><path fill="#cb3349" d="M104.22 36.761h-8.823v4.406h-4.266v-8.672h31.205v8.672h-4.27v-4.406h-8.823v26.773h3.632V68.5H100.59v-4.966h3.632z"/><path fill="#656c67" d="M38.206 94.969c1.558-.354 3.663-.804 6.246-1.302a92.451 92.451 0 0 0-5.512 4.072z"/><g fill="#c7b39a"><path d="M95.266 136.301s.436 2.804-3.488 4.003c-3.922 1.2-28.773 8.606-31.607 8.205-2.834-.4-10.026-5.203-10.026-5.203l-1.745-6.204 10.644 6.636zm22.26-.541s-.314 2.82 3.659 3.85c3.972 1.028 29.12 7.347 31.933 6.824 2.813-.524 9.79-5.635 9.79-5.635l1.474-6.275-9.784 5.836z"/><path d="M36.184 131.146s3.443 6.887 9.005 4.502l3.973 1.457-.397 2.915-8.343 1.058-2.25-1.323zm140.965-1.896s-5.628 7.188-11.19 4.805l-1.788 1.153.397 2.913 8.343 1.06 2.25-1.324zM90.1 183.355s20.4 10.285 43.498-3.71l-7.417-.506s-16.186 6.406-29 2.866z"/></g><path fill="#2d3136" d="m110.785 164.408 1.412 1.682c.032.04 3.168 3.773 7.003 7.575 2.55 2.527 5.63 3.806 9.162 3.806a16.1 16.1 0 0 0 3.751-.463c1.187-.289 2.477-.596 3.797-.912 4.77-1.14 10.171-2.435 12.79-3.169a34.853 34.853 0 0 1 1.705-.418c3.485-.805 8.263-1.916 10.795-6.988 1.904-3.806 4.47-8.746 6.375-12.367-1.65.761-3.38 1.586-4.609 2.233-1.894.994-4.374 1.476-7.58 1.476-1.907 0-3.78-.16-5.851-.344-4.141-.381-11.149-1.206-11.22-1.216l-.537-.06-.424-.338c-.063-.046-6.203-4.939-11.166-8.842-.201-.164-.385-.317-.55-.454-.523-.446-.523-.446-.835-.446-1.591 0-6.218 1.435-16.353 4.577l-.623.198-.61-.23c-.07-.023-6.72-2.49-14.688-2.49-.652 0-1.302.017-1.935.05-.798.041-5.278 2.169-11.006 11.232l-.371.582-.657.21c-.095.034-9.954 3.216-20.41 6.206l-.679.193-.642-.298c-.068-.028-4.16-1.926-8.053-3.716 2.123 3.137 4.838 7.05 7.227 10.118 4.173 5.374 9.433 10.34 19.518 10.34 1.265 0 2.609-.077 3.989-.234 10.258-1.16 12.9-1.627 14.321-1.875.481-.082.862-.152 1.349-.21.077-.01 8.478-1.097 10.835-6.384 2.43-5.433 2.921-6.728 2.94-6.777l.857-2.288s.106-.593.28-.777c0 .004 0 .004.005.004l.017.014c.27.194.67.8.67.8zM46.895 61.832c-2.23.898-4.444 1.825-6.609 2.842-2.169.992-4.301 2.056-6.337 3.242-1.88 1.083-3.683 2.27-5.274 3.611a34.01 34.01 0 0 0-.187 1.26 45.497 45.497 0 0 0-.344 5.376 52.924 52.924 0 0 0 .445 7.185c.33 2.385.765 4.756 1.412 7.044a37.17 37.17 0 0 0 1.1 3.37c.207.551.436 1.087.676 1.61.118.26.242.518.365.765l.153.29c.178.091.362.182.536.265l1.068.508c.596.276 1.417.666 2.096.968.04-.032.078-.069.11-.1l-1.977-7.54c.418-.114 4.179-1.086 10.658-2.32a29.888 29.888 0 0 1-1.572-.335 32.512 32.512 0 0 1-4.339-1.385 20.282 20.282 0 0 1-2.045-.99c-.656-.377-1.303-.803-1.803-1.371 7.118 2.324 21.824 1.27 34.9-.078 11.958-1.234 23.94-2.031 35.988-2.06 12.046.028 24.038.825 35.99 2.06 13.083 1.348 27.79 2.403 34.905.078-.5.568-1.145.994-1.801 1.37-.655.372-1.348.693-2.046.991a32.744 32.744 0 0 1-4.343 1.385c-.216.05-.436.1-.656.147 7.104 1.316 11.24 2.389 11.68 2.508l-1.894 7.182c.381-.17.766-.334 1.141-.509l1.07-.508a21.4 21.4 0 0 0 .536-.266l.147-.289a17.5 17.5 0 0 0 .371-.765c.24-.524.468-1.06.68-1.61.417-1.09.778-2.224 1.095-3.37.647-2.288 1.087-4.66 1.412-7.044.307-2.38.468-4.783.445-7.186a46.792 46.792 0 0 0-.156-3.595 45.705 45.705 0 0 0-.188-1.78 25.93 25.93 0 0 0-.19-1.26c-1.591-1.34-3.393-2.527-5.273-3.61-2.037-1.188-4.167-2.251-6.342-3.243-2.16-1.017-4.378-1.944-6.608-2.842a125.94 125.94 0 0 0-3.367-1.308c-1.122-.435-2.26-.846-3.397-1.26 2.388.394 4.756.939 7.098 1.54 1.527.395 3.05.84 4.554 1.312-10.727-28.043-36.38-46.302-64.384-46.302-28.011 0-53.658 18.26-64.384 46.302a95.517 95.517 0 0 1 4.549-1.312c2.348-.6 4.714-1.146 7.104-1.54-1.143.413-2.275.825-3.403 1.26-1.123.417-2.246.857-3.365 1.307zm141.223 16.224c.129 2.581.06 5.167-.229 7.736a49.126 49.126 0 0 1-1.434 7.622 39.887 39.887 0 0 1-1.244 3.719 33.919 33.919 0 0 1-.788 1.834c-.143.302-.293.6-.463.908l-.252.454a7.944 7.944 0 0 1-.308.508l-.26.405-.409.21c-.436.225-.793.394-1.189.578l-1.15.519c-.77.33-1.545.64-2.32.943-.541.212-1.019.405-1.472.597l-1.28 4.86a93.918 93.918 0 0 0-1.136-.279l-.07.509c1.413.738 4.187 2.234 5.132 3.014 1.903 1.572 2.037 4.063 1.615 8.717-.216 2.39-1.009 7.039-2.109 11.31-1.9 7.35-2.908 8.213-4.21 8.546-.66.17-1.678.34-2.665.34-2.007 0-4.741.055-6.58-.39-.472 1.673-1.82 6.035-4.49 11.483.134-.065.266-.12.386-.184 3.292-1.729 9.62-4.485 9.887-4.605l4.999-2.172-2.56 4.814c-.06.105-5.549 10.429-8.91 17.17-3.34 6.677-9.598 8.13-13.345 8.992-.564.133-1.1.257-1.535.376-2.689.756-8.132 2.054-12.932 3.21-.057.013-.115.028-.174.036a56.741 56.741 0 0 1-9.704 4.793c-12.905 4.888-26.506 4.614-38.837.082-2.003.258-4.637.573-8.144.972a39.96 39.96 0 0 1-4.415.257c-11.75 0-17.977-5.966-22.522-11.808-4.865-6.256-10.817-15.542-11.07-15.931l-3.45-5.383 5.832 2.623c2.792 1.257 11.094 5.1 13.469 6.2.192-.054.38-.11.569-.165-3.948-5.63-7.186-12.05-9.474-19.163-1.944.586-4.94 1.04-7.269 1.04-.851 0-1.614-.063-2.2-.201-1.303-.298-2.789-1.554-4.811-8.676-1.174-4.135-2.05-8.65-2.306-10.973-.505-4.536-.413-6.966 1.472-8.535 1.137-.95 4.97-2.963 5.764-3.374l-.17-1.4c-12.18 7.157-19.48 13.482-19.626 13.611l-8.71 7.644 6.205-9.786c4.91-7.755 10.583-14.024 15.802-18.853-.216-.087-.417-.174-.629-.26l-1.15-.519a30.916 30.916 0 0 1-1.187-.578l-.409-.21-.261-.405c-.147-.22-.21-.344-.307-.508l-.257-.454c-.16-.307-.317-.606-.46-.908-.289-.61-.55-1.22-.787-1.834a39.63 39.63 0 0 1-1.244-3.719 48.493 48.493 0 0 1-1.435-7.622 48.421 48.421 0 0 1-.23-7.736c.07-1.289.194-2.577.372-3.857.092-.642.188-1.284.317-1.922.133-.65.262-1.256.459-1.967l.137-.5.358-.28c2.032-1.597 4.223-2.802 6.452-3.87a69.863 69.863 0 0 1 5.59-2.318C43.622 48.733 52.674 35.78 64.57 26.75c12.3-9.332 26.762-14.266 41.827-14.266 15.064 0 29.527 4.934 41.825 14.267 11.897 9.029 20.949 21.984 26.21 36.59a69.343 69.343 0 0 1 5.594 2.32c2.228 1.069 4.42 2.274 6.451 3.87l.358.281.138.5c.201.711.33 1.317.458 1.967.13.638.23 1.28.317 1.922.18 1.278.308 2.566.37 3.855zm-10.626 42.546c.404-4.475.052-5.438-.403-5.805-.454-.381-1.99-1.251-3.485-2.063l-2.462 17.24a1.23 1.23 0 0 1-.514.835l-3.522 2.464c-.28 1.41-.38 2.077-.724 3.457 2.013.468 5.314.83 6.887.527 1.428-1.548 3.733-11.17 4.223-16.655zm-4.571-15.633 2.637-10c-3.825-.867-10.869-2.317-20.462-3.674-4.899 3.521-10.26 6.337-15.528 8.584 16.12 1.569 27.965 3.903 33.353 5.09zm-4.146 24.127 2.999-20.972c-1.334-.289-3.04-.646-5.077-1.036l-2.71 18.976c-.05.335-.234.642-.509.835l-10.162 7.107a1.23 1.23 0 0 1-.839.215l-30.623-3.48a1.232 1.232 0 0 1-1.042-.862l-5.516-18.159c-1.477-.382-5.27-1.267-8.589-1.267-3.334 0-7.122.885-8.599 1.267l-5.517 18.16a1.23 1.23 0 0 1-.908.838l-30.624 6.814a1.342 1.342 0 0 1-.27.029c-.248 0-.496-.074-.702-.222l-10.158-7.112a1.237 1.237 0 0 1-.518-.857l-2.738-22.21c-1.137.221-2.164.432-3.082.624-.65.358-1.293.716-1.925 1.074l2.906 23.534 14.763 10.342 37.245-8.286 5.498-18.114a1.23 1.23 0 0 1 .982-.863c1.394-.224 2.613-.339 3.646-.339 1.02 0 2.246.115 3.636.339.467.073.847.408.981.863l5.64 18.563 37.453 4.259zm-7.148-3.907 2.65-18.556c-7.475-1.36-18.407-3.006-31.797-4.034-12.089 4.17-22.214 5.41-22.824 5.452l-.706.05c3.856.332 7.489 1.368 7.671 1.422.4.12.712.426.836.827l5.48 18.04 29.354 3.334zm2.04 10.492-1.244.87-3.347 2.35-3.628 2.54c-.247.17-.55.248-.845.215l-36.092-4.104-2.628-.299a1.23 1.23 0 0 1-1.037-.865l-5.649-18.6a18.895 18.895 0 0 0-2.489-.194c-.716 0-1.55.065-2.495.194l-5.485 18.063a1.225 1.225 0 0 1-.908.838l-38.475 8.568a1.426 1.426 0 0 1-.27.026c-.247 0-.495-.073-.707-.224l-1.397-.973-4.187-2.929v-.01l-1.692-1.182c.12.38.256.752.391 1.123l-.005.005c.326.967 3.568 10.295 10.157 19.424a774.104 774.104 0 0 0 15.11-4.636c3.975-6.127 9.634-12.203 13.657-12.413a45.248 45.248 0 0 1 2.127-.054c1.968 0 3.848.141 5.59.348-1.48-1.344-1.784-2.922-1.999-3.619 0 0 5.132 4.013 11.666 3.175 6.536-.844 10.594-4.61 10.594-4.61s-.02 2.748-2.867 4.875c5.476-1.656 7.741-2.224 9.291-2.224 1.71 0 2.554.715 3.293 1.345.142.114.285.237.449.371 4.21 3.315 9.272 7.337 10.754 8.516 1.715.201 7.153.82 10.58 1.137 1.975.178 3.76.33 5.506.33.565 0 1.093-.024 1.592-.057 2.266-4.322 4.303-9.222 6.03-14.75.232-.851.458-1.709.659-2.57zM150.35 89.98c-.01-.005-.018-.01-.028-.01a488.634 488.634 0 0 0-8.704-.577 803.09 803.09 0 0 0-12.106-.592 64.62 64.62 0 0 1-1.394 1.97c-2.196 2.973-6.553 8.425-12.14 13.048 7.908-1.417 21.622-4.925 33.487-13.203.297-.21.592-.43.885-.636zm-26.464.82c.334-.417.645-.82.924-1.187a99.352 99.352 0 0 0-8.565 1.247c-9.58 1.793-18.426 4.774-25.786 7.828a339.49 339.49 0 0 1 16.423-.403c3.462 0 6.828.06 10.101.156 2.816-2.707 5.192-5.476 6.903-7.64zm3.177 90.423c-3.989-.294-7.616-1.953-10.544-4.852a242.59 242.59 0 0 0-.444-.453 39.197 39.197 0 0 1-4.324.623c-.618.023-1.206.077-1.852.077l-.96.01-.365-.01c-3.894 5.793-12.542 6.921-12.937 6.972-.357.04-.65.09-1.055.164 4.82 1.321 9.74 1.894 14.592 1.568 4.865-.325 11.185-1.38 17.889-4.1zm-15.413-6.61a40.382 40.382 0 0 0 2.82-.334 123.084 123.084 0 0 1-3.16-3.417c-.417.959-.97 2.22-1.7 3.844h.214c.583 0 1.221-.063 1.826-.092zm-2.97-69.651a42.017 42.017 0 0 0 4.649-3.289c-2.115-.036-4.26-.063-6.447-.063-8.98 0-17.367.367-24.97.94-7.627 3.728-12.29 6.795-12.4 6.873l-7.323 4.885 5.03-7.219a46.46 46.46 0 0 1 2.619-3.416c-8.447.944-15.481 2.063-20.737 3.03l2.691 21.82 9.26 6.485 29.394-6.536 5.502-18.127a1.24 1.24 0 0 1 .556-.702.998.998 0 0 1 .279-.124c.17-.046 3.109-.885 6.498-1.298zm3.38-16.643c-2.047-.032-4.096-.05-6.142-.055h-.004c-3.003.005-6.012.037-9.025.097l-5.553 2.631c-.005.005-.037.02-.078.043-.835.407-8.127 4.086-14.987 10.648 6.15-3.233 15.188-7.456 25.823-10.731a127.72 127.72 0 0 1 9.966-2.633zM73.248 99.962c2.88-2.857 5.85-5.214 8.474-7.057-10.111 2.348-19.42 5.796-27.573 9.547a319.63 319.63 0 0 1 19.099-2.49zm1.912-8.813a132.42 132.42 0 0 1 10.464-2.476c-5.136.187-10.275.426-15.406.715-2.982.165-5.949.367-8.916.591a137.64 137.64 0 0 0-4.435.394c-.422.041-.835.087-1.256.142-3.87 2.315-18.715 11.634-28.905 23.818 9.903-6.881 27.153-17.222 48.454-23.184zm-27.327 48.008a61.003 61.003 0 0 1-.55-1.862l-4.572-3.2a1.232 1.232 0 0 1-.52-.858l-2.228-18.114c-1.651.885-3.558 1.971-4.068 2.398-.44.363-.775 1.294-.297 5.61.592 5.323 3.288 15.353 4.737 16.81 1.743.308 5.605-.228 7.498-.784zm-3.379-45.495c-2.582.5-4.688.949-6.246 1.302l.735 2.77a92.061 92.061 0 0 1 5.511-4.072z"/></svg>