<svg xmlns="http://www.w3.org/2000/svg" xml:space="preserve" viewBox="0 0 24 24" class="svg material-pinejs" width="16" height="16" aria-hidden="true"><path fill="#66bb6a" d="M12.038 3.115c-.134.002-.271.083-.426.24-.467.478-6.764 9.388-6.764 9.572 0 .264.458.677.75.677.154 0 .724-.24 1.268-.535.712-.386 1.012-.635 1.075-.892.254-1.04.873-1.57 1.827-1.57.73 0 1.494.723 1.6 1.517.073.542.174.66 1.259 1.463.649.48 1.244.874 1.323.874.08 0 .328-.096.553-.214.545-.284.886-.27 1.482.063.273.152.556.28.627.285.22.014 2.389-1.307 2.463-1.5.038-.1 0-.311-.083-.47-.119-.22-5.243-7.495-6.42-9.114-.195-.267-.362-.397-.534-.396z"/><path fill="#388e3c" d="m8.392 13.584-3.472 1.97-1.534 2.13c-1.614 2.241-1.82 2.643-1.534 2.988.153.184 1.488.212 10.068.212 5.44 0 9.994-.039 10.118-.086.124-.048.226-.23.226-.407 0-.341-3.33-5.189-3.648-5.31-.383-.148-1.491.674-1.841 1.364-.392.773-.883 1.085-1.674 1.064-.698-.018-1.306-.55-1.574-1.378-.154-.478-.397-.725-1.457-1.485-.862-.618-1.345-.88-1.499-.811-.502.223-1.274.217-1.72-.014z"/></svg>