<svg xmlns="http://www.w3.org/2000/svg" xml:space="preserve" stroke-linejoin="round" stroke-miterlimit="1.414" clip-rule="evenodd" viewBox="0 0 24 24" class="svg material-folder-public-open" width="16" height="16" aria-hidden="true"><path fill="#039be5" d="M19 20H4a2 2 0 0 1-2-2V6c0-1.11.89-2 2-2h6l2 2h7c1.097 0 2 .903 2 2H4v10l2.14-8h17.07l-2.28 8.5c-.23.87-1.01 1.5-1.93 1.5z"/><path fill="#b3e5fc" d="M20.037 16.746c.05-.408.087-.817.087-1.237s-.037-.83-.087-1.238h2.091c.099.396.16.81.16 1.238a5.1 5.1 0 0 1-.16 1.237m-3.186 3.44c.371-.687.656-1.43.854-2.203h1.825a4.967 4.967 0 0 1-2.68 2.203m-.154-3.44h-2.895c-.062-.408-.099-.817-.099-1.237s.037-.835.099-1.238h2.895c.056.403.1.817.1 1.238s-.044.829-.1 1.237m-1.447 3.687a8.39 8.39 0 0 1-1.182-2.45h2.363a8.39 8.39 0 0 1-1.181 2.45m-2.475-7.399H13.06a4.902 4.902 0 0 1 2.672-2.202 10.63 10.63 0 0 0-.866 2.202m-1.806 4.95h1.806c.217.773.495 1.515.866 2.202a4.954 4.954 0 0 1-2.672-2.203m-.508-1.237a5.099 5.099 0 0 1-.16-1.237 5.1 5.1 0 0 1 .16-1.238h2.091c-.05.409-.086.817-.086 1.238s.037.829.086 1.237m2.698-6.168a8.425 8.425 0 0 1 1.181 2.456h-2.363a8.426 8.426 0 0 1 1.182-2.456m4.28 2.456h-1.824a9.682 9.682 0 0 0-.854-2.202 4.941 4.941 0 0 1 2.679 2.202M17.34 9.322a6.193 6.193 0 0 0-6.187 6.187 6.186 6.186 0 0 0 6.187 6.186 6.186 6.186 0 0 0 6.186-6.186 6.186 6.186 0 0 0-6.186-6.187z"/></svg>