<svg xmlns="http://www.w3.org/2000/svg" xml:space="preserve" fill-rule="evenodd" stroke-linejoin="round" stroke-miterlimit="1.414" clip-rule="evenodd" viewBox="0 0 24 24" class="svg material-folder-scripts" width="16" height="16" aria-hidden="true"><path fill="#546e7a" fill-rule="nonzero" d="M10 4H4c-1.11 0-2 .89-2 2v12c0 1.097.903 2 2 2h16c1.097 0 2-.903 2-2V8a2 2 0 0 0-2-2h-8l-2-2z"/><path fill="#cfd8dc" fill-rule="nonzero" d="M18.466 20.241c.69 0 1.259-.568 1.259-1.258v-8.18H15.32a.632.632 0 0 0-.63.63v6.292h-1.887v-6.922c0-1.036.852-1.888 1.888-1.888h6.921c1.036 0 1.888.852 1.888 1.888v.63h-2.517v8.18a1.896 1.896 0 0 1-1.888 1.887h-6.292a1.896 1.896 0 0 1-1.888-1.888v-.629h6.293c0 .69.568 1.258 1.258 1.258z"/></svg>