<svg xmlns="http://www.w3.org/2000/svg" viewBox="0 0 300 300" class="svg material-circleci" width="16" height="16" aria-hidden="true"><circle cx="150" cy="150" r="30.221" style="fill:#fafafa;stroke-width:4.0451"/><path d="M148.1 23.078c-59.135 0-108.82 40.456-122.92 95.193a6.176 6.176 0 0 0-.213 1.509 6.045 6.045 0 0 0 6.044 6.044h51.172c2.439 0 4.52-1.448 5.475-3.532 0 0 .078-.144.102-.213 10.55-22.766 33.591-38.562 60.328-38.562 36.717 0 66.483 29.762 66.483 66.483 0 36.721-29.758 66.483-66.475 66.483-26.738 0-49.775-15.8-60.328-38.562-.028-.073-.102-.213-.102-.213a6.023 6.023 0 0 0-5.475-3.532H31.01a6.042 6.042 0 0 0-6.044 6.044c0 .522.088 1.028.213 1.51 14.097 54.737 63.782 95.192 122.92 95.192 70.097 0 126.92-56.829 126.92-126.92 0-70.093-56.825-126.92-126.92-126.92z" style="fill:#fafafa;stroke-width:4.0451"/></svg>