<svg xmlns="http://www.w3.org/2000/svg" version="1.0" viewBox="0 0 24 24" class="svg material-tilt" width="16" height="16" aria-hidden="true"><path fill="#4caf50" d="M8.264 3.088c-.222.128-.524.31-.664.4-.075.047-.54.328-1.033.624s-.9.55-.906.561a.04.04 0 0 1-.034.023c-.024 0-1.36.795-1.66.988a.984.984 0 0 0-.214.185l-.068.091-.007 1.095c-.008 1.327.007 1.38.402 1.464.156.033 4.792.008 4.874-.027.326-.136.321-.094.312-2.79l-.008-2.324-.073-.113c-.169-.26-.627-.348-.92-.177m2.278.003c-.068.043-.132.104-.142.135s-.03.057-.043.057c-.014 0-.024.01-.023.02a.077.077 0 0 1-.002.034c-.003.008-.013.05-.023.095-.047.211-.02 17.222.028 17.222.014 0 .017.012.01.026-.029.044.191.24.302.271.374.104 5.5.026 5.5-.085 0-.012.02-.022.042-.022.024 0 .036-.01.03-.022-.009-.013.01-.043.038-.068.03-.025.053-.068.053-.095 0-.028.006-.057.014-.065.008-.007.014-2.628.013-5.822 0-5.032.005-5.82.04-5.903.021-.052.033-.095.025-.095-.068 0 .227-.254.316-.272.022-.004.74-.012 1.596-.017 1.866-.01 1.79 0 1.943-.268l.063-.109V5.756c0-2.604.011-2.43-.173-2.603-.16-.15.125-.143-4.866-.142l-4.617.001-.124.08"/></svg>