<svg xmlns="http://www.w3.org/2000/svg" xml:space="preserve" stroke-linejoin="round" stroke-miterlimit="1.414" clip-rule="evenodd" viewBox="0 0 24 24" class="svg material-folder-audio-open" width="16" height="16" aria-hidden="true"><path fill="#ef5350" d="M19 20H4a2 2 0 0 1-2-2V6c0-1.11.89-2 2-2h6l2 2h7c1.097 0 2 .903 2 2H4v10l2.14-8h17.07l-2.28 8.5c-.23.87-1.01 1.5-1.93 1.5z"/><path fill="#ffcdd2" d="M19.946 13.16v-1.329h-2.658v3.654a1.663 1.663 0 0 0-.996-.332 1.661 1.661 0 0 0-1.661 1.661 1.661 1.661 0 0 0 1.66 1.661 1.661 1.661 0 0 0 1.662-1.66V13.16h1.993m-2.658-4.65a6.644 6.644 0 0 1 6.644 6.643 6.644 6.644 0 0 1-6.644 6.644 6.644 6.644 0 0 1-6.644-6.644 6.644 6.644 0 0 1 6.644-6.644z"/></svg>