<svg xmlns="http://www.w3.org/2000/svg" viewBox="0 0 24 24" class="svg material-folder-godot" width="16" height="16" aria-hidden="true"><path fill="#42a5f5" d="M10 4H4c-1.1 0-2 .9-2 2v12c0 1.1.9 2 2 2h16c1.1 0 2-.9 2-2V8c0-1.1-.9-2-2-2h-8l-2-2z"/><g fill="#bbdefb"><path d="M15.921 8.537a7.36 7.36 0 0 0-1.728.592c.013.486.043.951.107 1.423-.213.136-.438.254-.638.414-.203.156-.41.305-.593.488-.37-.247-.756-.471-1.154-.672-.43.463-.833.964-1.162 1.523.248.4.506.776.785 1.132h.008v3.437h.018l2.107.204a.226.226 0 0 1 .205.21l.064.93 1.838.13.127-.858a.227.227 0 0 1 .225-.194h2.222c.112 0 .208.083.224.194l.127.858 1.838-.13.065-.93a.229.229 0 0 1 .205-.21l2.106-.203.018-.001v-.275h.001v-3.161h.008c.278-.356.537-.731.785-1.132a8.842 8.842 0 0 0-1.163-1.523c-.4.2-.787.429-1.154.67-.183-.182-.39-.331-.593-.487-.199-.16-.423-.277-.636-.414.063-.473.094-.938.107-1.423a7.41 7.41 0 0 0-1.73-.592c-.237.398-.453.829-.642 1.25a4.306 4.306 0 0 0-.673-.054h-.009c-.225 0-.45.019-.673.054-.189-.421-.405-.852-.642-1.25zm-1.666 5.027a1.27 1.27 0 1 1 .068 2.54 1.27 1.27 0 0 1-.068-2.54zm5.972 0a1.27 1.27 0 0 1 .002 2.54h-.001a1.27 1.27 0 0 1-.001-2.54zm-2.986.742c.226 0 .409.167.409.372v1.169c0 .205-.184.371-.41.371-.225 0-.408-.166-.408-.371v-1.169c0-.206.183-.372.409-.372z"/><path d="m21.044 17.511-.064.935a.225.225 0 0 1-.21.21l-2.245.16-.016.001a.227.227 0 0 1-.225-.194l-.127-.873h-1.832l-.129.873a.226.226 0 0 1-.24.193l-2.244-.16a.229.229 0 0 1-.21-.21l-.066-.936-1.894-.182.004.47c0 2.002 2.537 2.963 5.69 2.974h.008c3.153-.011 5.69-.972 5.69-2.973l.004-.471z"/></g></svg>