<svg xmlns="http://www.w3.org/2000/svg" viewBox="0 0 24 24" class="svg material-nano-staged" width="16" height="16" aria-hidden="true"><path fill="#b0bec5" d="M12 1.481A10.495 10.495 0 0 0 1.48 11.999c0 5.828 4.69 10.52 10.518 10.52S22.52 17.826 22.52 12A10.496 10.496 0 0 0 12 1.481zM7.952 6.899a.21.21 0 0 1 .11.028l5.661 3.27a.21.21 0 0 0 .212 0l2.002-1.157a.21.21 0 0 1 .317.18v7.67a.21.21 0 0 1-.317.183l-5.662-3.27a.21.21 0 0 0-.21 0l-2.004 1.159a.21.21 0 0 1-.314-.183V7.11c0-.121.097-.208.205-.21z"/></svg>