<svg xmlns="http://www.w3.org/2000/svg" xml:space="preserve" fill-rule="evenodd" stroke-linejoin="round" stroke-miterlimit="1.414" clip-rule="evenodd" viewBox="0 0 24 24" class="svg material-folder-routes" width="16" height="16" aria-hidden="true"><path fill="#43a047" fill-rule="nonzero" d="M10 4H4c-1.11 0-2 .89-2 2v12c0 1.097.903 2 2 2h16c1.097 0 2-.903 2-2V8a2 2 0 0 0-2-2h-8l-2-2z"/><path fill="#c8e6c9" d="M11.373 9.095v5.92l2.09-2.09 2.088 2.437c.697.697.697 1.393.697 1.393v4.179h2.785v-4.875s0-.696-.369-1.393-1.024-1.393-1.024-1.393l-2.089-2.381 1.741-1.797m4.527 0-3.106 3.113.32.369s.648.696 1.024 1.393c.146.278.23.55.278.787l3.573-3.573"/></svg>