<svg xmlns="http://www.w3.org/2000/svg" xml:space="preserve" fill-rule="evenodd" stroke-linejoin="round" stroke-miterlimit="1.414" clip-rule="evenodd" viewBox="0 0 24 24" class="svg material-folder-husky" width="16" height="16" aria-hidden="true"><path fill="#e57373" fill-rule="nonzero" d="M10 4H4c-1.11 0-2 .89-2 2v12c0 1.097.903 2 2 2h16c1.097 0 2-.903 2-2V8a2 2 0 0 0-2-2h-8l-2-2z" style="fill:#607d8b"/><path d="M18.311 8.601c.67.268.935 1.323.585 2.365-.347 1.037-1.166 1.669-1.84 1.406-.667-.26-.937-1.318-.592-2.363.341-1.04 1.17-1.665 1.847-1.408m3.748 2.164c.567.46.435 1.488-.285 2.31-.738.818-1.783 1.116-2.348.665-.569-.455-.431-1.48.298-2.296.728-.824 1.773-1.122 2.335-.679m-7.945-1.371c.746.088 1.29 1.023 1.245 2.081-.08 1.059-.719 1.85-1.46 1.765-.74-.085-1.281-1.013-1.22-2.075.061-1.062.713-1.853 1.435-1.772m9.437 5.449c.431.584.072 1.544-.817 2.128-.89.584-1.963.58-2.407-.02-.444-.598-.078-1.547.799-2.146.893-.567 1.975-.564 2.425.038m-4.139 5.145c-.263.505-.955.833-1.524.777-1.187-.112-1.784-1.645-2.827-2.247-1.043-.603-2.7-.322-3.354-1.322-.376-.56-.344-1.45.05-1.976.546-.727 1.727-.605 2.612-.855 1.166-.313 2.492-1.4 3.546-.79 1.049.604.814 2.293 1.083 3.462.213.976.871 2.076.414 2.951z" style="fill:#cfd8dc;stroke-width:.60534"/></svg>