<svg xmlns="http://www.w3.org/2000/svg" xml:space="preserve" fill-rule="evenodd" stroke-linejoin="round" stroke-miterlimit="1.414" clip-rule="evenodd" viewBox="0 0 24 24" class="svg material-folder-mobile" width="16" height="16" aria-hidden="true"><path fill="#e57373" fill-rule="nonzero" d="M10 4H4c-1.11 0-2 .89-2 2v12c0 1.097.903 2 2 2h16c1.097 0 2-.903 2-2V8a2 2 0 0 0-2-2h-8l-2-2z" style="fill:#ff5252"/><path d="M10.337 9.759h10.435A1.228 1.228 0 0 1 22 10.987v1.227h-2.456v-1.227h-7.98v7.366h5.525v1.228h-6.753a1.228 1.228 0 0 1-1.227-1.228v-7.366a1.228 1.228 0 0 1 1.227-1.228m8.594 3.683h3.684a.614.614 0 0 1 .613.614v6.138a.614.614 0 0 1-.613.614H18.93a.614.614 0 0 1-.613-.614v-6.138a.614.614 0 0 1 .613-.614m.614 1.228v4.297H22V14.67z" style="fill:#ffcdd2;stroke-width:.61386"/></svg>