<svg xmlns="http://www.w3.org/2000/svg" xml:space="preserve" stroke-linejoin="round" stroke-miterlimit="1.414" clip-rule="evenodd" viewBox="0 0 24 24" class="svg material-folder-src-open" width="16" height="16" aria-hidden="true"><path fill="#4caf50" d="M19 20H4a2 2 0 0 1-2-2V6c0-1.11.89-2 2-2h6l2 2h7c1.097 0 2 .903 2 2H4v10l2.14-8h17.07l-2.28 8.5c-.23.87-1.01 1.5-1.93 1.5z"/><path fill="#c8e6c9" d="M15.597 21.678a.637.637 0 0 1-.147-.018.739.739 0 0 1-.513-.857l1.915-10.2a.734.734 0 0 1 .314-.482.63.63 0 0 1 .494-.087.74.74 0 0 1 .514.858l-1.92 10.2a.73.73 0 0 1-.312.481.632.632 0 0 1-.345.105zm3.839-1.445h-.048a.658.658 0 0 1-.472-.267.78.78 0 0 1 .07-1.003l3.292-3.218L19 12.75a.78.78 0 0 1-.1-1 .663.663 0 0 1 .468-.283.636.636 0 0 1 .501.167l3.866 3.534a.78.78 0 0 1 .102 1 .743.743 0 0 1-.1.116l-3.85 3.763a.646.646 0 0 1-.451.187zm-5.764.002a.648.648 0 0 1-.452-.189l-3.853-3.765a.775.775 0 0 1 .006-1.108l3.867-3.533a.623.623 0 0 1 .495-.169c.19.022.361.125.47.283a.78.78 0 0 1-.1 1.002l-3.276 2.993 3.292 3.216c.267.27.297.699.071 1.003a.656.656 0 0 1-.473.267z"/></svg>