<svg xmlns="http://www.w3.org/2000/svg" stroke-linejoin="round" stroke-miterlimit="1.414" clip-rule="evenodd" viewBox="0 0 24 24" class="svg material-folder-template-open" width="16" height="16" aria-hidden="true"><path fill="#A1887F" d="M19 20H4a2 2 0 0 1-2-2V6c0-1.11.89-2 2-2h6l2 2h7c1.097 0 2 .903 2 2H4v10l2.14-8h17.07l-2.28 8.5c-.23.87-1.01 1.5-1.93 1.5z" style="fill:#8d6e63"/><path fill="#D7CCC8" d="M10.6 17.829h5.333v-1.286H10.6zm0 2.571h5.333v-1.286H10.6zm0-5.143h5.333v-1.286H10.6zm0-3.857v1.286h5.333V11.4zm6.667 0H22.6v9h-5.333z"/></svg>