<svg xmlns="http://www.w3.org/2000/svg" xml:space="preserve" stroke-linejoin="round" stroke-miterlimit="1.414" clip-rule="evenodd" viewBox="0 0 24 24" class="svg material-folder-android-open" width="16" height="16" aria-hidden="true"><path fill="#e57373" d="M19 20H4a2 2 0 0 1-2-2V6c0-1.11.89-2 2-2h6l2 2h7c1.097 0 2 .903 2 2H4v10l2.14-8h17.07l-2.28 8.5c-.23.87-1.01 1.5-1.93 1.5z" style="fill:#8bc34a"/><path d="M19.588 11.113h-.598v-.598h.598m-2.992.598h-.598v-.598h.598m3.31-1.101.783-.784a.307.307 0 0 0 0-.425.307.307 0 0 0-.425 0l-.885.886a3.615 3.615 0 0 0-1.586-.371c-.574 0-1.113.137-1.591.377l-.892-.892a.3.3 0 0 0-.419 0 .296.296 0 0 0 0 .425l.784.784a3.58 3.58 0 0 0-1.472 2.896h7.18a3.61 3.61 0 0 0-1.478-2.896m2.974 3.494a.897.897 0 0 0-.898.897v4.189a.897.897 0 0 0 .898.897.897.897 0 0 0 .897-.897v-4.189a.897.897 0 0 0-.897-.897m-10.172 0a.897.897 0 0 0-.898.897v4.189a.897.897 0 0 0 .898.897.897.897 0 0 0 .897-.897v-4.189a.897.897 0 0 0-.897-.897m1.496 5.983a.598.598 0 0 0 .598.598h.598v2.094a.897.897 0 0 0 .898.898.897.897 0 0 0 .897-.898V19.49h1.197v2.094a.897.897 0 0 0 .897.898.897.897 0 0 0 .898-.898V19.49h.598a.598.598 0 0 0 .598-.598v-5.983h-7.18z" style="fill:#dcedc8;stroke-width:.59831"/></svg>