<svg xmlns="http://www.w3.org/2000/svg" xml:space="preserve" fill-rule="evenodd" stroke-linejoin="round" stroke-miterlimit="1.414" clip-rule="evenodd" viewBox="0 0 24 24" class="svg material-folder-target" width="16" height="16" aria-hidden="true"><path fill="#546e7a" fill-rule="nonzero" d="M10 4H4c-1.11 0-2 .89-2 2v12c0 1.097.903 2 2 2h16c1.097 0 2-.903 2-2V8a2 2 0 0 0-2-2h-8l-2-2z"/><path fill="#cfd8dc" d="M17.721 8.536a6.12 6.12 0 0 0-6.12 6.12 6.12 6.12 0 0 0 6.12 6.118 6.12 6.12 0 0 0 6.12-6.12 5.98 5.98 0 0 0-.374-2.073l-.98.979c.086.36.13.728.13 1.095a4.895 4.895 0 0 1-4.896 4.895 4.895 4.895 0 0 1-4.895-4.895 4.895 4.895 0 0 1 4.895-4.895c.368 0 .734.043 1.095.129l.986-.985a6.181 6.181 0 0 0-2.08-.368m4.282 0-2.447 2.448v.918l-1.562 1.56c-.091-.03-.183-.03-.275-.03a1.223 1.223 0 0 0-1.223 1.224 1.223 1.223 0 0 0 1.223 1.223 1.223 1.223 0 0 0 1.224-1.223c0-.093 0-.185-.03-.277l1.56-1.56h.918l2.447-2.447h-1.836V8.536m-4.283 2.448a3.672 3.672 0 0 0-3.67 3.67 3.672 3.672 0 0 0 3.67 3.672 3.672 3.672 0 0 0 3.672-3.671h-1.224a2.447 2.447 0 0 1-2.448 2.447 2.447 2.447 0 0 1-2.447-2.447 2.447 2.447 0 0 1 2.447-2.448z"/></svg>