<svg xmlns="http://www.w3.org/2000/svg" xml:space="preserve" fill-rule="evenodd" stroke-linejoin="round" stroke-miterlimit="1.414" clip-rule="evenodd" viewBox="0 0 24 24" class="svg material-folder-components" width="16" height="16" aria-hidden="true"><path fill="#c0ca33" fill-rule="nonzero" d="M10 4H4c-1.11 0-2 .89-2 2v12c0 1.097.903 2 2 2h16c1.097 0 2-.903 2-2V8a2 2 0 0 0-2-2h-8l-2-2z"/><path fill="#f0f4c3" d="M11.097 9.613h5.346v2.9l3.782-3.775L24 12.513l-3.775 3.782h2.9v5.346h-5.346v-5.346h2.446l-3.782-3.782v2.446h-5.346V9.613m0 6.682h5.346v5.346h-5.346z"/></svg>