<svg xmlns="http://www.w3.org/2000/svg" viewBox="0 0 140 140" class="svg material-browserlist" width="16" height="16" aria-hidden="true"><path fill="#ffca28" d="M70 10.172A59.828 59.828 0 0 0 10.172 70 59.828 59.828 0 0 0 70 129.828 59.828 59.828 0 0 0 129.828 70 59.828 59.828 0 0 0 70 10.172zm-4.836 8.785C65.66 23 66.516 26.28 67.736 29.18c4.779-4.287 10.265-7.546 16.041-9.02-.981 3.938-1.357 7.295-1.261 10.43 6.026-2.314 12.349-3.404 18.3-2.706-3.182 2.413-5.482 4.717-7.128 7.015-2.201 12.074 6.858 20.43 14.779 24.551a5.128 5.128 0 0 1 5.183-3.888 5.128 5.128 0 0 1 3.7 8.435V64c-.487 1.055-2.002 2.343-3.496 3.219-4.076 2.39-11.173 5.736-20.915 7.39.045 1.214.077 2.453.077 3.747 0 4.817-.485 8.291-1.385 10.699-3.3 13.313-12.648 26.76-24.695 31.95.357-4.082.197-7.484-.402-10.591-5.582 3.219-11.646 5.278-17.623 5.52h-.002c1.785-3.662 2.855-6.878 3.412-9.976-6.347.996-12.727.742-18.377-1.17 2.93-2.732 5.054-5.314 6.673-7.96-6.292-1.344-12.169-3.87-16.766-7.686 3.822-1.544 6.795-3.239 9.3-5.197-5.426-3.517-10.034-7.998-12.972-13.23 4.012-.07 7.321-.568 10.3-1.453-3.786-5.215-6.468-11.032-7.333-16.951 3.861 1.405 7.196 2.133 10.36 2.355-1.662-6.22-2.081-12.605-.768-18.436 3.03 2.634 5.824 4.48 8.63 5.815.677-6.406 2.576-12.52 5.893-17.496 1.926 3.622 3.914 6.392 6.111 8.672 2.93-5.754 6.9-10.798 11.791-14.262zM91.63 38.514c-2.395 5.514-1.665 11.297-.555 18.732a2.138 2.138 0 0 0 .28-4.178 3.419 3.419 0 1 1 .092 6.704c.574 3.882 1.157 8.18 1.421 13.125a67.143 67.143 0 0 0 3.25-.649c6.616-1.487 12.258-3.801 16.871-6.506.45-.264.884-.563 1.276-.867.366-.557.333-.957.035-1.285-4.831-1.245-10.891-4.53-15.258-8.795-4.764-4.653-7.427-10.164-7.412-16.281z"/></svg>