<svg xmlns="http://www.w3.org/2000/svg" xml:space="preserve" fill-rule="evenodd" stroke-linejoin="round" stroke-miterlimit="1.414" clip-rule="evenodd" viewBox="0 0 24 24" class="svg material-folder-database" width="16" height="16" aria-hidden="true"><path fill="#ffca28" fill-rule="nonzero" d="M10 4H4c-1.11 0-2 .89-2 2v12c0 1.097.903 2 2 2h16c1.097 0 2-.903 2-2V8a2 2 0 0 0-2-2h-8l-2-2z"/><path fill="#ffecb3" d="M17.761 8.859c-3.156 0-5.712 1.278-5.712 2.856 0 1.578 2.556 2.856 5.712 2.856 3.156 0 5.712-1.278 5.712-2.856 0-1.578-2.556-2.856-5.712-2.856m-5.712 4.284v2.142c0 1.578 2.556 2.856 5.712 2.856 3.156 0 5.712-1.278 5.712-2.856v-2.142c0 1.578-2.556 2.856-5.712 2.856-3.156 0-5.712-1.278-5.712-2.856m0 3.57v2.142c0 1.577 2.556 2.855 5.712 2.855 3.156 0 5.712-1.278 5.712-2.856v-2.141c0 1.578-2.556 2.856-5.712 2.856-3.156 0-5.712-1.278-5.712-2.856z"/></svg>