<svg xmlns="http://www.w3.org/2000/svg" xml:space="preserve" viewBox="0 0 24 24" class="svg material-rc" width="16" height="16" aria-hidden="true"><g fill="#0288d1"><path d="M4.491 6.368H2.614v13.14c0 1.038.84 1.878 1.877 1.878h13.14V19.51H4.492z"/><path d="M19.509 2.614H8.246c-1.038 0-1.878.84-1.878 1.877v11.263c0 1.038.84 1.878 1.878 1.878h11.263c1.037 0 1.877-.84 1.877-1.878V4.491c0-1.037-.84-1.877-1.877-1.877zm-6.404 10.108c.571.62 1.367.941 2.405.949l1.07-.097c.347-.065.636-.153.877-.257l.338 1.963c-.21.112-.547.216-.998.313a7.277 7.277 0 0 1-1.616.161c-1.778-.031-3.113-.563-4.007-1.576-.917-1.023-1.352-2.318-1.352-3.886.032-1.859.58-3.283 1.642-4.28 1.03-1.006 2.348-1.52 3.942-1.52.604 0 1.127.055 1.561.152s.757.201.966.322L17.45 6.97l-.837-.273a4.68 4.68 0 0 0-1.126-.121c-.926-.009-1.698.29-2.3.885-.612.588-.918 1.489-.95 2.687.007 1.094.297 1.947.868 2.575z"/></g></svg>