<svg xmlns="http://www.w3.org/2000/svg" viewBox="0 0 24 24" class="svg material-rome" width="16" height="16" aria-hidden="true"><path fill="#546e7a" d="M5.001 14v8h-3v-8h3zM22 14v8h-3v-8h3zM9.062 3.856l.792 1.652a.524.524 0 0 1-.3.723C6.897 7.175 5 9.616 5 12.479v.524H2v-.524C2 8.423 4.66 4.962 8.408 3.59a.524.524 0 0 1 .654.266zm6.53-.273C19.34 4.959 22 8.423 22 12.476V13h-3v-.524c0-2.863-1.893-5.303-4.555-6.248a.524.524 0 0 1-.299-.722l.791-1.657c.117-.244.4-.36.654-.266z"/><path fill="#ffc400" d="M12 6.762c3.314 0 6 2.558 6 5.714V22h-3v-9.524c0-1.578-1.343-2.857-3-2.857-1.656 0-2.999 1.278-2.999 2.857V22h-3v-9.524c0-3.156 2.687-5.714 6-5.714zm1.904-4.633a.525.525 0 0 1 .403.745l-.144.302-1.113 2.333a.528.528 0 0 1-.507.297 9.75 9.75 0 0 0-1.084 0 .527.527 0 0 1-.506-.297L9.838 3.176l-.144-.302a.525.525 0 0 1 .404-.745 14.115 14.115 0 0 1 3.806 0z"/></svg>