<svg xmlns="http://www.w3.org/2000/svg" viewBox="0 0 24 24" class="svg material-astyle" width="16" height="16" aria-hidden="true"><path fill="#ef5350" d="M8.203 5.447 5.83 6.777l1.329-2.374-1.33-2.374 2.374 1.33 2.374-1.33-1.33 2.374 1.33 2.374-2.374-1.33m11.394 9.305 2.374-1.329-1.33 2.374 1.33 2.373-2.374-1.329-2.374 1.33 1.33-2.374-1.33-2.374 2.374 1.33m2.374-12.724-1.33 2.374 1.33 2.374-2.374-1.33-2.374 1.33 1.33-2.374-1.33-2.374 2.374 1.33 2.374-1.33m-8.223 10.236 2.317-2.316-2.013-2.013-2.317 2.317 2.013 2.012m.978-5.212 2.222 2.222c.37.35.37.968 0 1.338L5.867 21.694c-.37.37-.987.37-1.339 0l-2.222-2.221c-.37-.352-.37-.969 0-1.34l11.081-11.08c.37-.37.988-.37 1.34 0z"/></svg>