<svg xmlns="http://www.w3.org/2000/svg" viewBox="0 0 24 24" class="svg material-gleam" width="16" height="16" aria-hidden="true"><path fill="#ea80fc" d="m12.717 2.53-.027.005-.438.092-.22.334.04.41-.187.307.041.052s.063.077.031.196c-.016.06-.114.318-.205.543-.09.225-.176.43-.176.43l-.017.042.021.038a.554.554 0 0 0 .026.517c.057.1.035.2-.006.287a.593.593 0 0 1-.1.147l-.013.015-.147.432-.023.182.029.066-.057.045-.304.945-.036.283-.097.399-.196.56-.05.293-.082.342-.118.27-.084.156-.152.46-.111.49.492.349.85-.123.584-.766.28-.771.182-.852.112-.63.066-.339.174-.806.053-.473.127-.39.021-.329.082-.576.037-.476.084-.274.055-.625-.031-.146.119-.368-.078-.093.03-.17-.144-.31-.437-.17zM2.059 5.442l-.04.018-.575.227-.258.283.893 1.142.326.032.267.453.457.172.069.16.357.285.932.678.664.433 1.312 1.055.112.209.365.201.467.399.588.517.101.223.625.043.656-.85-.006-.605-1.738-1.395-1.27-.922-1.245-.838-.954-.515-.056-.14-1.065-.628-.406-.324-.578-.313zm17.912 5.528-.152.134-.233-.062-.959.14-.47-.109.02.131c-.116-.065-.24-.049-.343-.035-.105.014-.187.019-.232-.006-.124-.069-.261-.034-.361.004-.07.026-.09.043-.12.06l-.263-.15-.373.166-.4-.04-.42-.018-.45.08-.252-.063-.617.067-.326-.084-.04.048s-.027.036-.062.063a.163.163 0 0 1-.047.025c-.01.003-.004.002-.004.002-.087-.05-.178-.04-.253-.031-.075.008-.135.021-.135.021l-.008.004-.248.118-.795.132-.021.028s-.12.143-.227.304a1.49 1.49 0 0 0-.133.246.385.385 0 0 0-.031.124.167.167 0 0 0 .053.132c-.002-.001.01.02.011.065a.756.756 0 0 1-.021.164 1.899 1.899 0 0 1-.068.226l-.026.063.461.367.47.063.29-.094.95-.174.185-.076.107.037.588-.053.19.106.124-.108.116.037.918-.138.402.125-.027-.147c.04.018.076.027.12.03.053.003.115.001.182-.002.134-.008.293-.028.448-.05.295-.04.548-.089.57-.093l.19.066.853-.127.527-.156.363.117.407-.058.224-.215.54.135-.018-.135s-.003-.062.027-.106c.015-.021.034-.04.084-.054a.556.556 0 0 1 .25.01c.276.058.45.023.557-.043a.332.332 0 0 0 .107-.106.326.326 0 0 0 .03-.066l.01-.043-.122-.158.053-.19-.338-.45-.576-.11-.358.005-.039-.062-.047-.002s-.247-.022-.449.045c-.107.036-.234-.072-.234-.072l-.139.127.01-.131zM9.03 13.117l-.033.018-.658.35-.23.22-.173.356.203.572.319.295.306.465-3.802 3.158-.12.17-.798.615-.328.334-.559.422-.09.135-.152.445.385.531.459-.31.207.093.166-.199.101.047.729-.572.238-.133.287-.068.344-.266-.04-.05.206-.07.416-.359.273-.076.328-.224.141-.268.031-.021.112.048.52-.546.54-.292 1.102-.923.457 1.283.252.375.146.629.213.082-.012.033.112.75.193.18-.08.326.316.164a.254.254 0 0 0 .016.156c.026.067.072.147.148.254.164.23.369.29.522.277a.582.582 0 0 0 .262-.09l.023-.015.186-.445-.256-1.391-.225-1.092-.275-.592-.194-.552v-.002c0-.002-.051-.155-.105-.336a3.977 3.977 0 0 1-.12-.487 1.086 1.086 0 0 0-.103-.373l-.002-.003-.142-.301.19-.178.558-.648.08-.729-.688-.762-.484.196-.379.406-.582-.867-.457-.145z" color="#000" style="-inkscape-stroke:none"/></svg>