<svg xmlns="http://www.w3.org/2000/svg" xml:space="preserve" stroke-linejoin="round" stroke-miterlimit="1.414" clip-rule="evenodd" viewBox="0 0 24 24" class="svg material-folder-kubernetes-open" width="16" height="16" aria-hidden="true"><path fill="#64b5f6" d="M19 20H4a2 2 0 0 1-2-2V6c0-1.11.89-2 2-2h6l2 2h7c1.097 0 2 .903 2 2H4v10l2.14-8h17.07l-2.28 8.5c-.23.87-1.01 1.5-1.93 1.5z"/><g stroke-width=".174"><path fill="#1976d2" d="M22.844 11.356a.97.97 0 0 0-.48-.554l-4.57-2.188a.838.838 0 0 0-.374-.075c-.12 0-.255 0-.375.03l-4.57 2.203a.805.805 0 0 0-.45.554l-1.138 4.93a.945.945 0 0 0 .165.719l3.161 3.91c.18.18.435.3.69.315h5.049a.75.75 0 0 0 .69-.314l3.16-3.911c.15-.21.21-.464.18-.72z" class="material-folder-kubernetes-open__st0"/><path fill="#fff" d="M22.12 16.06c-.014 0-.014 0-.014-.014 0-.015-.045-.015-.06-.015-.06-.015-.12-.015-.18-.015-.03 0-.06 0-.09-.015h-.015a3.028 3.028 0 0 1-.51-.09.181.181 0 0 1-.104-.105c0-.015-.015-.015-.015-.015l-.12-.03a3.91 3.91 0 0 0-.06-1.319 4.058 4.058 0 0 0-.524-1.228l.09-.09v-.015c0-.045.015-.105.045-.135.134-.105.27-.21.42-.285l.089-.045c.06-.03.105-.06.165-.09.015-.015.03-.015.045-.03l.015-.015a.293.293 0 0 0 .06-.42.286.286 0 0 0-.21-.104c-.075 0-.15.03-.21.075l-.015.015c-.015.015-.03.03-.045.03a.97.97 0 0 0-.12.135c-.015.03-.045.045-.06.06-.12.12-.24.24-.374.33-.03.014-.06.03-.09.03-.015 0-.045 0-.06-.016l-.12.09c-.12-.12-.255-.24-.374-.36a3.84 3.84 0 0 0-1.948-.779l-.015-.12-.015-.014c-.045-.03-.06-.075-.075-.12 0-.165 0-.33.03-.51v-.015c0-.03.015-.06.015-.09.015-.06.015-.12.03-.18v-.09c.015-.15-.105-.299-.255-.299a.34.34 0 0 0-.24.09.296.296 0 0 0-.09.21v.075c0 .06.015.12.03.18.015.03.015.06.015.09v.014c.03.165.03.33.03.51-.015.045-.03.09-.075.12l-.015.015-.014.12c-.165.014-.33.044-.51.074a3.572 3.572 0 0 0-1.843 1.05l-.09-.06h-.015c-.015 0-.03.014-.06.014s-.075-.015-.09-.03a4.199 4.199 0 0 1-.374-.344c-.015-.03-.045-.045-.06-.06-.045-.045-.075-.09-.12-.135-.015-.015-.03-.015-.045-.03l-.015-.015a.358.358 0 0 0-.21-.075.27.27 0 0 0-.224.105.322.322 0 0 0 .06.42c.014 0 .014.014.014.014s.03.03.045.03c.045.03.105.06.165.09l.09.045c.15.09.285.18.42.285.03.03.06.09.045.135v.015l.09.09c-.015.03-.03.045-.045.075a3.55 3.55 0 0 0-.51 2.457l-.12.03c0 .015-.015.015-.015.015-.015.045-.06.075-.105.105-.164.045-.33.075-.509.09h-.015c-.03 0-.06 0-.09.015-.06 0-.12.015-.18.015-.015 0-.03.015-.06.015-.015 0-.015 0-.03.015a.292.292 0 0 0-.24.344c.03.135.165.225.3.21.03 0 .045 0 .075-.015.015 0 .015 0 .015-.015s.03-.015.06-.015c.06-.015.12-.045.165-.06.03-.015.06-.03.09-.03h.015c.15-.06.314-.105.48-.135h.014a.17.17 0 0 1 .12.045c.015 0 .015.015.015.015l.135-.015c.225.69.644 1.304 1.229 1.753.134.105.254.195.404.27l-.06.12c0 .015.015.015.015.015.03.045.03.105.015.15-.06.15-.15.3-.24.434v.015c-.015.03-.03.045-.06.075s-.06.09-.104.15c-.015.015-.015.03-.03.045 0 0 0 .015-.015.015a.308.308 0 0 0 .12.404c.03.015.074.03.12.03.12 0 .224-.075.284-.18 0 0 0-.014.015-.014 0-.015.015-.03.03-.045.015-.06.045-.105.06-.165l.03-.09c.045-.165.12-.315.195-.465a.233.233 0 0 1 .12-.09c.015 0 .015 0 .015-.014l.06-.12c.419.164.854.24 1.303.24.27 0 .54-.03.81-.09.164-.03.329-.09.479-.135l.06.105c.015 0 .015 0 .015.014.044.015.09.045.12.09.074.15.134.3.194.45v.015l.03.09c.015.06.03.12.06.165.015.015.015.03.03.045 0 0 0 .015.015.015.06.104.165.18.285.18.045 0 .075-.016.12-.03a.25.25 0 0 0 .134-.165.437.437 0 0 0-.015-.24c0-.015-.015-.015-.015-.015 0-.015-.015-.03-.03-.045a.537.537 0 0 0-.104-.15.263.263 0 0 0-.06-.075v-.015a1.77 1.77 0 0 1-.24-.434.177.177 0 0 1 .015-.15c0-.015.015-.015.015-.015l-.045-.12a3.73 3.73 0 0 0 1.633-2.038l.12.015c.015 0 .015-.015.015-.015a.17.17 0 0 1 .12-.045h.015c.165.03.33.075.48.135h.014c.03.015.06.03.09.03a.73.73 0 0 0 .165.06c.015 0 .03.015.06.015.015 0 .015 0 .03.015.03.015.045.015.075.015.135 0 .255-.09.3-.21-.045-.15-.15-.27-.3-.3zm-4.314-.464-.405.195-.404-.195-.12-.434.284-.36h.465l.285.36zm2.442-.974c.075.315.09.63.06.944l-1.424-.404a.246.246 0 0 1-.18-.3.241.241 0 0 1 .06-.105l1.124-1.019c.165.27.285.57.36.884zm-.81-1.438-1.213.869c-.105.06-.255.045-.33-.06a.136.136 0 0 1-.044-.105l-.09-1.513c.629.075 1.228.36 1.678.809zm-2.711-.764.3-.06-.09 1.498c0 .135-.12.24-.255.24-.045 0-.075-.015-.12-.03l-1.214-.884a2.858 2.858 0 0 1 1.379-.764zm-1.828 1.318 1.109.989c.104.09.12.24.03.345-.03.045-.06.06-.12.075l-1.439.42c-.06-.63.09-1.274.42-1.829zm-.255 2.532 1.483-.254c.12 0 .24.075.255.194a.177.177 0 0 1-.015.15l-.57 1.379a2.948 2.948 0 0 1-1.153-1.469zm3.401 1.858c-.21.045-.434.075-.659.075-.315 0-.644-.06-.944-.15l.734-1.333a.232.232 0 0 1 .3-.06c.045.03.075.06.12.105l.719 1.303c-.075.015-.165.03-.27.06zm1.828-1.303c-.225.36-.54.674-.899.899l-.584-1.394a.253.253 0 0 1 .135-.3.437.437 0 0 1 .135-.03l1.498.255c-.075.21-.165.405-.285.57z" class="material-folder-kubernetes-open__st1"/></g></svg>