<svg xmlns="http://www.w3.org/2000/svg" viewBox="0 0 140.625 140.625" class="svg material-vagrant" width="16" height="16" aria-hidden="true"><g style="fill:none"><path d="m117.35 191.93 36.17-20.86 56.65-138.715V14.777l-42.19 24.545v14.827l-33.77 72.821-16.86 11.65zm-16.89-61.76 16.89-8.34v-21.19L92.033 41.579V24.868l-.173-.099-25.141 14.553v14.827z" style="fill:#1565c0" transform="translate(-5.18 8.577) scale(.64333)"/><path d="M142.66 24.694v16.884l-25.314 59.058v19.736l-16.884 9.793-33.744-76.017v-14.85l25.314-14.58L49.834 0 24.52 14.776v18.1l56.975 138.37 35.851 20.677v-51.967l16.86-9.793-.198-.124 33.967-75.893V39.295l42.198-24.521L184.859-.003l-42.174 24.694z" style="fill:#2979ff" transform="translate(-5.18 8.577) scale(.64333)"/></g></svg>