<svg xmlns="http://www.w3.org/2000/svg" xml:space="preserve" fill-rule="evenodd" stroke-linejoin="round" stroke-miterlimit="1.414" clip-rule="evenodd" viewBox="0 0 24 24" class="svg material-folder-other" width="16" height="16" aria-hidden="true"><path fill="#039be5" fill-rule="nonzero" d="M10 4H4c-1.11 0-2 .89-2 2v12c0 1.097.903 2 2 2h16c1.097 0 2-.903 2-2V8a2 2 0 0 0-2-2h-8l-2-2z" style="fill:#ff7043"/><path d="M17.338 9.322a6.186 6.186 0 0 1 6.186 6.186 6.186 6.186 0 0 1-6.186 6.187 6.186 6.186 0 0 1-6.186-6.187 6.186 6.186 0 0 1 6.186-6.186m0 5.258a.928.928 0 0 0-.928.928.928.928 0 0 0 .928.928.928.928 0 0 0 .928-.928.928.928 0 0 0-.928-.927m-3.403 0a.928.928 0 0 0-.928.927.928.928 0 0 0 .928.928.928.928 0 0 0 .928-.928.928.928 0 0 0-.928-.927m6.806 0a.928.928 0 0 0-.928.927.928.928 0 0 0 .928.928.928.928 0 0 0 .928-.928.928.928 0 0 0-.928-.927z" style="fill:#ffccbc;stroke-width:.61865"/></svg>