<svg xmlns="http://www.w3.org/2000/svg" xml:space="preserve" fill-rule="evenodd" stroke-linejoin="round" stroke-miterlimit="1.414" clip-rule="evenodd" viewBox="0 0 24 24" class="svg material-folder-export" width="16" height="16" aria-hidden="true"><path fill="#039be5" fill-rule="nonzero" d="M10 4H4c-1.11 0-2 .89-2 2v12c0 1.097.903 2 2 2h16c1.097 0 2-.903 2-2V8a2 2 0 0 0-2-2h-8l-2-2z" style="fill:#ff8a65"/><path d="M20.62 15.706h-6.085v-1.217h6.085m-3.042-5.476a6.085 6.085 0 0 0-6.085 6.084 6.085 6.085 0 0 0 6.085 6.085 6.085 6.085 0 0 0 6.084-6.085 6.085 6.085 0 0 0-6.084-6.084z" style="clip-rule:evenodd;fill-opacity:.94902;fill-rule:evenodd;fill:#fbe9e7;stroke-linejoin:round;stroke-miterlimit:1.4142;stroke-width:.60845"/></svg>