<svg xmlns="http://www.w3.org/2000/svg" fill-rule="evenodd" stroke-linejoin="round" stroke-miterlimit="1.414" clip-rule="evenodd" viewBox="0 0 24 24" class="svg material-folder-utils" width="16" height="16" aria-hidden="true"><path fill="#7CB342" fill-rule="nonzero" d="M10 4H4c-1.11 0-2 .89-2 2v12c0 1.097.903 2 2 2h16c1.097 0 2-.903 2-2V8a2 2 0 0 0-2-2h-8l-2-2z"/><path d="M13.314 11.766h-1.122v7.855c0 .618.504 1.123 1.122 1.123h7.855V19.62h-7.855zm8.978-2.244h-6.734c-.616 0-1.122.504-1.122 1.122v6.733c0 .618.506 1.122 1.122 1.122h6.734c.617 0 1.122-.504 1.122-1.122v-6.733c0-.618-.505-1.122-1.122-1.122zm-.561 5.05h-2.245v2.244h-1.122v-2.244H16.12v-1.123h2.244v-2.244h1.122v2.244h2.245z" style="fill:#dcedc8;stroke-width:1.0688"/></svg>