<svg xmlns="http://www.w3.org/2000/svg" fill-rule="evenodd" stroke-linejoin="round" stroke-miterlimit="1.414" clip-rule="evenodd" viewBox="0 0 24 24" class="svg material-folder-custom-open" width="16" height="16" aria-hidden="true"><path fill="#FF5722" fill-rule="nonzero" d="M19 20H4a2 2 0 0 1-2-2V6c0-1.11.89-2 2-2h6l2 2h7c1.097 0 2 .903 2 2H4v10l2.14-8h17.07l-2.28 8.5c-.23.87-1.01 1.5-1.93 1.5z" style="fill:#ff7043"/><path d="M18.756 10.609a.518.518 0 0 0-.368.157l-7.167 7.166v2.574h2.574l7.176-7.157a.515.515 0 0 0 0-.74l-1.844-1.843a.525.525 0 0 0-.371-.157zm-.765 7.813-2.084 2.084h7.813v-2.084z" style="fill:#ffccbc;stroke-width:1.0416"/></svg>