<svg xmlns="http://www.w3.org/2000/svg" xml:space="preserve" stroke-linejoin="round" stroke-miterlimit="1.414" clip-rule="evenodd" viewBox="0 0 24 24" class="svg material-folder-server-open" width="16" height="16" aria-hidden="true"><path fill="#e57373" d="M19 20H4a2 2 0 0 1-2-2V6c0-1.11.89-2 2-2h6l2 2h7c1.097 0 2 .903 2 2H4v10l2.14-8h17.07l-2.28 8.5c-.23.87-1.01 1.5-1.93 1.5z" style="fill:#fbc02d"/><path d="M13.424 8.543h9.37a.586.586 0 0 1 .586.585v2.343a.586.586 0 0 1-.586.586h-9.37a.586.586 0 0 1-.586-.586V9.128a.586.586 0 0 1 .586-.585m0 4.685h9.37a.586.586 0 0 1 .586.586v2.342a.586.586 0 0 1-.586.586h-9.37a.586.586 0 0 1-.586-.586v-2.342a.586.586 0 0 1 .586-.586m0 4.685h9.37a.586.586 0 0 1 .586.586v2.342a.586.586 0 0 1-.586.586h-9.37a.586.586 0 0 1-.586-.586V18.5a.586.586 0 0 1 .586-.586m2.928-7.028h.586v-1.17h-.586v1.17m0 4.686h.586V14.4h-.586v1.172m0 4.685h.586v-1.171h-.586v1.17M14.01 9.715v1.171h1.17V9.714h-1.17m0 4.685v1.171h1.17V14.4h-1.17m0 4.684v1.172h1.17v-1.172z" style="fill:#fffde7;stroke-width:.58564"/></svg>