<svg xmlns="http://www.w3.org/2000/svg" xml:space="preserve" stroke-linejoin="round" stroke-miterlimit="1.414" clip-rule="evenodd" viewBox="0 0 24 24" class="svg material-folder-proto-open" width="16" height="16" aria-hidden="true"><path fill="#ff7043" d="M19 20H4a2 2 0 0 1-2-2V6c0-1.11.89-2 2-2h6l2 2h7c1.097 0 2 .903 2 2H4v10l2.14-8h17.07l-2.28 8.5c-.23.87-1.01 1.5-1.93 1.5z"/><g fill="#ffccbc" stroke-width="1.786"><path d="m9.635 13.162 7.046-4.625v2.99l-7.046 4.625z"/><path d="m9.635 16.152 7.046 4.625v-2.99l-7.046-4.625zm14.093 0-7.046 4.625v-2.99l7.046-4.625z"/><path d="m23.728 13.162-7.046-4.625v2.99l7.046 4.625z"/></g></svg>