<svg xmlns="http://www.w3.org/2000/svg" viewBox="0 0 200 200" class="svg material-snyk" width="16" height="16" aria-hidden="true"><g fill="none" fill-rule="evenodd"><path fill="#607d8b" d="M136.1 65.338c-3.058 11.038-9.708 43.581-9.708 43.581s-12.23-4.552-26.141-4.574h-.102c-.764.004-1.519.022-2.272.047v76.955h12.337v.006h10.744v-.006h38.54c.204-15.108-3.763-50.01-3.763-50.01-2.011-4.21.848-14.168.848-14.168-16.385-16.8-20.482-51.83-20.482-51.83zm-6.202 81.22c10.118 0 2.553 8.574 1.662 9.55h-19.128c1.744-2.182 8.323-9.55 17.465-9.55z"/><path fill="#90a4ae" d="M64.42 65.334s-4.097 35.034-20.486 51.833c0 0 2.86 9.962.85 14.17 0 0-3.973 34.913-3.766 50.01h35.61v.006h13.08v-.006h10.614v-77.005h-.047c-13.916.024-26.146 4.579-26.146 4.579s-6.653-32.548-9.71-43.588zm6.03 81.225c9.146 0 15.724 7.367 17.466 9.549H68.788c-.886-.976-8.45-9.55 1.662-9.55z"/><path fill="#455a64" d="M133.158 162.43h-21.223v.223c0 7.406 6.408 13.405 13.925 13.405 7.52 0 13.929-6 13.929-13.405v-.223z"/><path fill="#fff" d="M117.24 162.43v.223c0 4.406 3.549 7.975 7.96 7.975s7.959-3.57 7.959-7.975v-.223z"/><path fill="#37474f" d="M127.656 162.43h-3.73c-.037 0-.068.018-.1.024.462.097.719 1.145.619 1.842-.15 1.066-1.058 1.806-2.1 1.825a3.504 3.504 0 0 0 2.95 2.725c1.93.273 3.714-1.049 3.987-2.975.197-1.418-.485-3.441-1.626-3.441z"/><path fill="#455a64" d="M81.928 162.43H60.707v.223c0 7.406 6.41 13.405 13.925 13.405 7.52 0 13.93-6 13.93-13.405v-.223z"/><path fill="#fff" d="M66.013 162.43v.223c0 4.406 3.551 7.975 7.956 7.975 4.413 0 7.96-3.57 7.96-7.975v-.223z"/><path fill="#37474f" d="M76.429 162.43h-3.734c-.033 0-.068.018-.097.024.46.097.716 1.145.619 1.842-.15 1.066-1.055 1.806-2.102 1.825a3.513 3.513 0 0 0 2.951 2.725c1.929.273 3.716-1.049 3.986-2.975.199-1.418-.482-3.441-1.623-3.441z"/><path fill="#607d8b" d="M62.845 18.65 55.08 32.875c-2.722 5.067-26.706 49.958-26.706 66.178v.953l10.98 29.22c-1.478 13.409-4.072 39.989-3.29 52.12h10.59c-.656-6.995 1.196-31.423 3.514-52.197l.141-1.25-1.987-5.343c6.825-7.148 11.613-16.986 14.917-26.35l.322 2.281 10.843 17.792 4.234-1.815c.106-.046 10.966-4.662 21.512-4.662 10.48 0 21.519 4.62 21.622 4.665l4.231 1.803 10.827-17.786.425-2.971c3.27 9.456 8.053 19.467 14.91 26.775l-2.08 5.605.14 1.253c2.326 20.854 4.186 45.387 3.54 52.202h10.49c.75-12.134-1.94-38.713-3.415-52.12l10.786-29.225v-.95c0-16.22-23.79-61.111-26.509-66.177L137.51 18.65l-10.897 76.18-5.03 8.274c-4.856-1.629-13.119-3.9-21.44-3.9-8.31 0-16.519 2.266-21.354 3.897l-5.03-8.271-3.825-26.703c.006-.044.013-.104.013-.131l-.031-.007zm-5.85 33.982 2.229 15.533c-.85 5.807-4.733 28.582-15.149 42.938l-4.8-12.914c.602-8.413 9.363-28.57 17.72-45.557zm86.405 0c8.356 16.987 17.122 37.144 17.723 45.557l-4.687 12.608c-11.254-15.804-14.783-41.498-15.09-43.846z"/></g></svg>