<svg xmlns="http://www.w3.org/2000/svg" xml:space="preserve" viewBox="0 0 135.467 135.467" class="svg material-craco" width="16" height="16" aria-hidden="true"><g style="display:inline"><path d="m33.042 144.565-.008-8.213-2.914-.937c-1.603-.515-4.29-1.632-5.972-2.481l-3.058-1.545-5.535 5.527-5.535 5.528-7.362-7.363-7.362-7.362 5.47-5.504 5.47-5.505-1.652-3.218c-.908-1.77-2.13-4.703-2.714-6.519l-1.063-3.302H-15.378V82.674l8.213-.008 8.212-.008.944-2.955c.519-1.626 1.71-4.467 2.649-6.314l1.705-3.359L.82 64.497l-5.525-5.533 7.362-7.362 7.362-7.362 5.674 5.628 5.674 5.628 2.656-1.367c1.461-.752 4.128-1.873 5.927-2.491l3.27-1.124.091-8.135.091-8.134h20.973l.091 8.167.09 8.168 3.038.99c1.67.544 4.46 1.696 6.201 2.56l3.165 1.57 5.4-5.391 5.398-5.391 7.362 7.362 7.362 7.362-5.406 5.415-5.407 5.414 1.624 3.25c.894 1.788 2.032 4.533 2.53 6.1l.907 2.85 8.213.002 8.212.001v20.998H87.01l-1.087 3.302c-.598 1.816-1.83 4.75-2.738 6.519l-1.65 3.217 5.474 5.505 5.475 5.505-7.363 7.362-7.362 7.362-5.534-5.527-5.535-5.527-3.07 1.55c-1.69.854-4.533 2.034-6.32 2.625l-3.25 1.073v16.14H33.052l-.008-8.213zm17.332-22.08c9.347-1.98 17.413-8.75 20.95-17.583 1.501-3.75 2.017-6.574 2.017-11.052 0-4.462-.516-7.303-1.996-10.999-3.56-8.89-11.6-15.651-20.97-17.638-2.896-.613-9.4-.613-12.295 0-9.372 1.987-17.411 8.749-20.971 17.638-1.48 3.696-1.995 6.537-1.995 10.999 0 6.368 1.458 11.269 4.885 16.42 4.03 6.054 10.774 10.645 17.929 12.202 2.766.602 9.637.61 12.446.016zM30.228 104.75l-2.255-2.256 4.482-4.49 4.481-4.492-4.481-4.491-4.482-4.491 2.255-2.256 2.255-2.255 6.888 6.657c3.789 3.66 6.888 6.737 6.888 6.836 0 .099-3.1 3.175-6.888 6.836l-6.888 6.657zm15.917 0-2.255-2.256 4.482-4.49 4.482-4.492-4.482-4.491-4.482-4.491 2.255-2.256 2.256-2.255 6.887 6.657c3.789 3.66 6.888 6.737 6.888 6.836 0 .099-3.1 3.175-6.888 6.836l-6.887 6.657z" style="fill:#00bfa5;fill-opacity:1;stroke-width:.338665" transform="translate(23.845 -25.778)"/></g></svg>