<svg xmlns="http://www.w3.org/2000/svg" xml:space="preserve" fill-rule="evenodd" stroke-linejoin="round" stroke-miterlimit="1.414" clip-rule="evenodd" viewBox="0 0 24 24" class="svg material-folder-review" width="16" height="16" aria-hidden="true"><path fill="#e57373" fill-rule="nonzero" d="M10 4H4c-1.11 0-2 .89-2 2v12c0 1.097.903 2 2 2h16c1.097 0 2-.903 2-2V8a2 2 0 0 0-2-2h-8l-2-2z" style="fill:#2196f3"/><path d="M17.22 14.68a1.765 1.765 0 0 0-1.765 1.765 1.765 1.765 0 0 0 1.765 1.765 1.765 1.765 0 0 0 1.765-1.765 1.765 1.765 0 0 0-1.765-1.765m0 4.707a2.942 2.942 0 0 1-2.942-2.942 2.942 2.942 0 0 1 2.942-2.942 2.942 2.942 0 0 1 2.942 2.942 2.942 2.942 0 0 1-2.942 2.942m0-7.355a6.958 6.958 0 0 0-6.472 4.413 6.958 6.958 0 0 0 6.472 4.413 6.958 6.958 0 0 0 6.472-4.413 6.958 6.958 0 0 0-6.472-4.413z" style="fill:#bbdefb;stroke-width:.58837"/></svg>