<svg xmlns="http://www.w3.org/2000/svg" xml:space="preserve" stroke-linejoin="round" stroke-miterlimit="1.414" clip-rule="evenodd" viewBox="0 0 24 24" class="svg material-folder-coverage-open" width="16" height="16" aria-hidden="true"><path fill="#e57373" d="M19 20H4a2 2 0 0 1-2-2V6c0-1.11.89-2 2-2h6l2 2h7c1.097 0 2 .903 2 2H4v10l2.14-8h17.07l-2.28 8.5c-.23.87-1.01 1.5-1.93 1.5z" style="fill:#26a69a"/><path d="m16.955 17.786-2.367-2.367.834-.834 1.533 1.526 3.9-3.9.834.84m-3.55-4.733-5.326 2.367v3.55c0 3.285 2.272 6.356 5.326 7.102 3.053-.746 5.325-3.817 5.325-7.102v-3.55z" style="fill:#b2dfdb;stroke-width:.59176"/></svg>