<svg xmlns="http://www.w3.org/2000/svg" xml:space="preserve" stroke-linejoin="round" stroke-miterlimit="2" clip-rule="evenodd" viewBox="0 0 24 24" class="svg material-folder-nuxt" width="16" height="16" aria-hidden="true"><path fill="#546e7a" d="M10 4H4c-1.11 0-2 .89-2 2v12c0 1.097.903 2 2 2h16c1.097 0 2-.903 2-2V8a2 2 0 0 0-2-2h-8l-2-2Z"/><g fill-rule="evenodd" stroke-width=".879"><path fill="#69f0ae" d="M15.137 12.002a1.016 1.016 0 0 0-1.753 0l-4.247 7.302c-.39.67.098 1.508.877 1.508h3.315a.97.97 0 0 1-.204-1.227l3.216-5.513z"/><path fill="#00e676" fill-rule="nonzero" d="M17.828 13.604a.846.846 0 0 1 1.451 0l3.515 5.975c.322.548-.08 1.233-.726 1.233H15.04c-.645 0-1.048-.685-.725-1.233z"/></g></svg>