<svg xmlns="http://www.w3.org/2000/svg" xml:space="preserve" fill-rule="evenodd" stroke-linejoin="round" stroke-miterlimit="1.414" clip-rule="evenodd" viewBox="0 0 24 24" class="svg material-folder-helper" width="16" height="16" aria-hidden="true"><path fill="#e57373" fill-rule="nonzero" d="M10 4H4c-1.11 0-2 .89-2 2v12c0 1.097.903 2 2 2h16c1.097 0 2-.903 2-2V8a2 2 0 0 0-2-2h-8l-2-2z" style="fill:#afb42b"/><path d="M20.671 9.434a1.22 1.22 0 0 0-.876.355l-3.559 3.565 3.461 3.461 3.565-3.559a1.239 1.239 0 0 0 0-1.733l-1.74-1.734a1.197 1.197 0 0 0-.851-.355m-5.023 4.502-3.65 3.65a1.231 1.231 0 0 0 .012 1.747c-.748.753-1.507 1.507-2.26 2.26h3.466l.527-.527a1.23 1.23 0 0 0 1.721-.012l3.645-3.65" style="fill:#f0f4c3;stroke-width:.61254"/></svg>