<svg xmlns="http://www.w3.org/2000/svg" viewBox="0 0 24 24" class="svg material-command" width="16" height="16" aria-hidden="true"><path fill="#90a4ae" d="M6.61 3.017a3.593 3.593 0 0 1 3.593 3.593v1.797h3.594V6.61a3.593 3.593 0 0 1 3.593-3.594 3.593 3.593 0 0 1 3.593 3.594 3.593 3.593 0 0 1-3.593 3.593h-1.797v3.594h1.797a3.593 3.593 0 0 1 3.593 3.593 3.593 3.593 0 0 1-3.593 3.593 3.593 3.593 0 0 1-3.593-3.593v-1.797h-3.594v1.797a3.593 3.593 0 0 1-3.593 3.593 3.593 3.593 0 0 1-3.594-3.593 3.593 3.593 0 0 1 3.594-3.593h1.797v-3.594H6.61A3.593 3.593 0 0 1 3.016 6.61 3.593 3.593 0 0 1 6.61 3.016m8.983 14.374a1.797 1.797 0 0 0 1.797 1.797 1.797 1.797 0 0 0 1.797-1.797 1.797 1.797 0 0 0-1.797-1.796h-1.797v1.797m-1.796-7.187h-3.594v3.593h3.594v-3.593m-7.187 5.39a1.797 1.797 0 0 0-1.797 1.797 1.797 1.797 0 0 0 1.797 1.796 1.797 1.797 0 0 0 1.797-1.796v-1.797H6.61M8.407 6.61A1.797 1.797 0 0 0 6.61 4.814 1.797 1.797 0 0 0 4.813 6.61 1.797 1.797 0 0 0 6.61 8.407h1.797V6.61m8.983 1.797a1.797 1.797 0 0 0 1.797-1.797 1.797 1.797 0 0 0-1.797-1.796 1.797 1.797 0 0 0-1.797 1.796v1.797z"/></svg>