<svg xmlns="http://www.w3.org/2000/svg" xml:space="preserve" stroke-linejoin="round" stroke-miterlimit="1.414" clip-rule="evenodd" viewBox="0 0 24 24" class="svg material-folder-github-open" width="16" height="16" aria-hidden="true"><path fill="#546e7a" d="M19 20H4a2 2 0 0 1-2-2V6c0-1.11.89-2 2-2h6l2 2h7c1.097 0 2 .903 2 2H4v10l2.14-8h17.07l-2.28 8.5c-.23.87-1.01 1.5-1.93 1.5z"/><path fill="#eceff1" d="M16.698 7.825a6.797 6.797 0 0 0-6.797 6.797 6.815 6.815 0 0 0 4.65 6.457c.34.054.448-.157.448-.34V19.59c-1.883.408-2.284-.91-2.284-.91-.312-.79-.754-1-.754-1-.619-.421.047-.408.047-.408.68.048 1.04.7 1.04.7.592 1.034 1.59.728 1.978.565.061-.442.238-.741.428-.911-1.509-.17-3.092-.755-3.092-3.344 0-.754.258-1.36.7-1.842-.068-.17-.306-.877.068-1.794 0 0 .57-.184 1.869.693.537-.15 1.121-.224 1.7-.224s1.161.074 1.698.224c1.298-.877 1.87-.693 1.87-.693.373.917.135 1.624.067 1.794.442.483.7 1.088.7 1.842 0 2.596-1.59 3.167-3.106 3.337.245.21.47.625.47 1.257v1.863c0 .183.108.4.455.34a6.816 6.816 0 0 0 4.642-6.457 6.797 6.797 0 0 0-6.797-6.797z"/></svg>