<svg xmlns="http://www.w3.org/2000/svg" xml:space="preserve" fill-rule="evenodd" stroke-linejoin="round" stroke-miterlimit="1.414" clip-rule="evenodd" viewBox="0 0 24 24" class="svg material-folder-firebase" width="16" height="16" aria-hidden="true"><path fill="#e57373" fill-rule="nonzero" d="M10 4H4c-1.11 0-2 .89-2 2v12c0 1.097.903 2 2 2h16c1.097 0 2-.903 2-2V8a2 2 0 0 0-2-2h-8l-2-2z" style="fill:#fbc02d"/><path d="m23.724 18.322-4.204 2.333a.887.887 0 0 1-.864 0l-4.147-2.333 7.516-7.574.202-.057c.172 0 .27.075.288.23l1.209 7.401m-6.134-7.459-2.62 4.349 1.094-6.883c.017-.155.115-.23.288-.23.115 0 .19.035.23.144l1.239 2.275-.23.346m2.591.725-5.5 5.524 4.175-7.085c.058-.115.144-.167.26-.167s.19.052.23.167z" style="fill:#fff9c4;stroke-width:.57594"/></svg>