<svg xmlns="http://www.w3.org/2000/svg" xml:space="preserve" stroke-linejoin="round" stroke-miterlimit="1.414" clip-rule="evenodd" viewBox="0 0 24 24" class="svg material-folder-lib-open" width="16" height="16" aria-hidden="true"><path fill="#c0ca33" d="M19 20H4a2 2 0 0 1-2-2V6c0-1.11.89-2 2-2h6l2 2h7c1.097 0 2 .903 2 2H4v10l2.14-8h17.07l-2.28 8.5c-.23.87-1.01 1.5-1.93 1.5z"/><path fill="#f0f4c3" d="M17.391 12.543a2.05 2.05 0 0 0 2.05-2.05 2.05 2.05 0 0 0-2.05-2.052 2.05 2.05 0 0 0-2.05 2.051 2.05 2.05 0 0 0 2.05 2.051m0 2.42a8.992 8.992 0 0 0-6.152-2.42v7.52c2.392 0 4.539.923 6.152 2.42a8.992 8.992 0 0 1 6.152-2.42v-7.52a8.992 8.992 0 0 0-6.152 2.42z"/></svg>