<svg xmlns="http://www.w3.org/2000/svg" xml:space="preserve" fill-rule="evenodd" stroke-linejoin="round" stroke-miterlimit="1.414" clip-rule="evenodd" viewBox="0 0 24 24" class="svg material-folder-kubernetes" width="16" height="16" aria-hidden="true"><path fill="#64b5f6" fill-rule="nonzero" d="M10 4H4c-1.11 0-2 .89-2 2v12c0 1.097.903 2 2 2h16c1.097 0 2-.903 2-2V8a2 2 0 0 0-2-2h-8l-2-2z"/><g stroke-width=".174"><path fill="#1976d2" d="M261.61 46.83a1.127 1.127 0 0 0-.557-.644l-5.309-2.541a.974.974 0 0 0-.435-.087c-.14 0-.296 0-.435.034l-5.31 2.56a.935.935 0 0 0-.522.643l-1.322 5.727c-.053.296.017.592.191.835l3.673 4.543c.209.21.505.349.8.366h5.866a.867.867 0 0 0 .801-.366l3.673-4.543c.174-.243.244-.54.209-.835z" style="fill:#326de6" transform="translate(-202.35 -28.956) scale(.8608)"/><path fill="#fff" d="M260.77 52.295c-.017 0-.017 0-.017-.017 0-.018-.053-.018-.07-.018-.07-.017-.14-.017-.209-.017-.035 0-.07 0-.104-.018h-.018a3.517 3.517 0 0 1-.592-.104.21.21 0 0 1-.121-.122c0-.017-.018-.017-.018-.017l-.139-.035a4.542 4.542 0 0 0-.07-1.532 4.715 4.715 0 0 0-.609-1.427l.105-.105v-.017c0-.052.017-.122.052-.157a2.96 2.96 0 0 1 .487-.33l.105-.053c.07-.034.121-.07.191-.104.017-.018.035-.018.052-.035l.018-.017a.343.343 0 0 0 .07-.488.332.332 0 0 0-.244-.122.416.416 0 0 0-.244.087l-.018.018c-.017.017-.034.035-.052.035-.052.052-.104.104-.139.156-.017.035-.052.053-.07.07a2.94 2.94 0 0 1-.435.383c-.035.017-.07.035-.104.035-.018 0-.052 0-.07-.018l-.139.105c-.14-.14-.296-.279-.435-.418a4.46 4.46 0 0 0-2.263-.905l-.017-.14-.018-.017c-.052-.035-.07-.087-.087-.139 0-.191 0-.383.035-.592v-.017c0-.035.017-.07.017-.105.018-.07.018-.139.035-.209v-.104c.018-.174-.122-.348-.296-.348a.395.395 0 0 0-.278.104.344.344 0 0 0-.105.244v.087c0 .07.018.14.035.209.018.035.018.07.018.104v.018c.034.191.034.383.034.592-.017.052-.034.104-.087.139l-.017.017-.017.14c-.192.017-.383.052-.592.087a4.15 4.15 0 0 0-2.141 1.218l-.105-.07h-.017c-.017 0-.035.018-.07.018s-.087-.018-.104-.035c-.157-.122-.296-.261-.435-.4-.018-.035-.052-.053-.07-.07-.052-.052-.087-.105-.14-.157-.017-.017-.034-.017-.051-.035l-.018-.017a.416.416 0 0 0-.243-.087.313.313 0 0 0-.262.122.374.374 0 0 0 .07.487c.017 0 .017.018.017.018s.035.034.053.034c.052.035.122.07.191.105l.105.052c.174.105.33.209.487.33.035.036.07.105.052.157v.018l.105.104c-.018.035-.035.053-.053.087a4.123 4.123 0 0 0-.591 2.855l-.14.035c0 .017-.017.017-.017.017-.017.052-.07.087-.122.122a3.233 3.233 0 0 1-.592.105h-.017c-.035 0-.07 0-.105.017-.07 0-.139.017-.208.017-.018 0-.035.018-.07.018-.017 0-.017 0-.035.017a.34.34 0 0 0-.278.4.323.323 0 0 0 .348.244c.035 0 .052 0 .087-.017.017 0 .017 0 .017-.018 0-.017.035-.017.07-.017.07-.017.139-.052.191-.07a.247.247 0 0 1 .105-.034h.017c.174-.07.366-.122.557-.157h.017c.053 0 .105.017.14.052.017 0 .017.017.017.017l.157-.017a4.2 4.2 0 0 0 1.427 2.037c.157.122.296.226.47.313l-.07.14c0 .017.018.017.018.017a.206.206 0 0 1 .017.174c-.07.174-.174.348-.278.505v.017c-.018.035-.035.052-.07.087s-.07.104-.122.174c-.017.017-.017.035-.034.052 0 0 0 .018-.018.018a.358.358 0 0 0 .14.47.328.328 0 0 0 .139.034.39.39 0 0 0 .33-.208s0-.018.018-.018c0-.017.017-.035.035-.052.017-.07.052-.122.07-.192l.034-.104c.052-.191.14-.366.226-.54a.27.27 0 0 1 .14-.104c.017 0 .017 0 .017-.017l.07-.14c.487.192.992.279 1.514.279a4.3 4.3 0 0 0 .94-.105c.191-.034.383-.104.557-.156l.07.122c.017 0 .017 0 .017.017a.27.27 0 0 1 .14.104c.086.174.156.349.225.523v.017l.035.104c.018.07.035.14.07.192.017.017.017.035.035.052 0 0 0 .018.017.018a.39.39 0 0 0 .33.208c.053 0 .088-.017.14-.034a.291.291 0 0 0 .157-.192.508.508 0 0 0-.018-.278c0-.018-.017-.018-.017-.018 0-.017-.018-.035-.035-.052a.624.624 0 0 0-.122-.174.306.306 0 0 0-.07-.087v-.017a2.057 2.057 0 0 1-.278-.505.206.206 0 0 1 .017-.174c0-.018.018-.018.018-.018l-.052-.139a4.332 4.332 0 0 0 1.897-2.367l.14.017c.017 0 .017-.017.017-.017a.198.198 0 0 1 .139-.053h.017c.192.035.383.088.557.157h.018c.034.018.07.035.104.035.07.035.122.052.192.07.017 0 .034.017.07.017.017 0 .017 0 .034.017a.157.157 0 0 0 .087.018.379.379 0 0 0 .348-.244c-.052-.174-.174-.313-.348-.348zm-5.013-.54-.47.227-.47-.227-.14-.504.332-.418h.54l.33.418zm2.837-1.131c.087.366.105.731.07 1.097l-1.654-.47c-.156-.035-.243-.192-.209-.348a.28.28 0 0 1 .07-.122l1.305-1.184c.192.313.331.662.418 1.027zm-.94-1.671-1.41 1.01c-.121.07-.296.052-.383-.07a.158.158 0 0 1-.052-.122l-.104-1.758a3.325 3.325 0 0 1 1.95.94zm-3.15-.888.348-.07-.105 1.741c0 .157-.139.279-.296.279-.052 0-.087-.018-.139-.035l-1.41-1.027a3.32 3.32 0 0 1 1.602-.888zm-2.124 1.532 1.288 1.149a.28.28 0 0 1 .035.4c-.035.052-.07.07-.14.087l-1.67.488a3.52 3.52 0 0 1 .487-2.124zm-.296 2.942 1.723-.296c.14 0 .279.087.296.226a.206.206 0 0 1-.017.174l-.662 1.602a3.424 3.424 0 0 1-1.34-1.706zm3.951 2.158a3.687 3.687 0 0 1-.766.087c-.365 0-.748-.07-1.096-.174l.853-1.55a.27.27 0 0 1 .348-.069c.052.035.087.07.14.122l.835 1.515c-.087.017-.192.034-.314.07zm2.124-1.514a3.324 3.324 0 0 1-1.044 1.044l-.68-1.619a.294.294 0 0 1 .157-.348.508.508 0 0 1 .157-.035l1.74.296c-.086.244-.19.47-.33.662z" style="fill:#fff" transform="translate(-202.35 -28.956) scale(.8608)"/></g></svg>