<svg xmlns="http://www.w3.org/2000/svg" fill-rule="evenodd" stroke-linejoin="round" stroke-miterlimit="1.414" clip-rule="evenodd" viewBox="0 0 24 24" class="svg material-folder-template" width="16" height="16" aria-hidden="true"><path fill="#A1887F" fill-rule="nonzero" d="M10 4H4c-1.11 0-2 .89-2 2v12c0 1.097.903 2 2 2h16c1.097 0 2-.903 2-2V8a2 2 0 0 0-2-2h-8l-2-2z" style="fill:#8d6e63"/><path fill="#D7CCC8" d="M10.6 17.829h5.333v-1.286H10.6zm0 2.571h5.333v-1.286H10.6zm0-5.143h5.333v-1.286H10.6zm0-3.857v1.286h5.333V11.4zm6.667 0H22.6v9h-5.333z"/></svg>