<svg xmlns="http://www.w3.org/2000/svg" xml:space="preserve" fill-rule="evenodd" stroke-linejoin="round" stroke-miterlimit="1.414" clip-rule="evenodd" viewBox="0 0 24 24" class="svg material-folder-global" width="16" height="16" aria-hidden="true"><path fill="#5c6bc0" fill-rule="nonzero" d="M10 4H4c-1.11 0-2 .89-2 2v12c0 1.097.903 2 2 2h16c1.097 0 2-.903 2-2V8a2 2 0 0 0-2-2h-8l-2-2z"/><path fill="#c5cae9" d="M21.132 18.585a1.22 1.22 0 0 0-1.156-.846h-.609v-1.825a.608.608 0 0 0-.608-.609h-3.65v-1.217h1.216a.608.608 0 0 0 .609-.608v-1.217h1.217a1.217 1.217 0 0 0 1.216-1.217v-.25a4.858 4.858 0 0 1 1.765 7.79m-4.198 1.545a4.86 4.86 0 0 1-4.26-4.826c0-.377.049-.742.128-1.089l2.915 2.915v.608a1.217 1.217 0 0 0 1.217 1.217m.608-9.735a6.085 6.085 0 0 0-6.085 6.084 6.085 6.085 0 0 0 6.085 6.085 6.085 6.085 0 0 0 6.085-6.085 6.085 6.085 0 0 0-6.085-6.084z"/></svg>