<svg xmlns="http://www.w3.org/2000/svg" xml:space="preserve" fill-rule="evenodd" stroke-linejoin="round" stroke-miterlimit="1.414" clip-rule="evenodd" viewBox="0 0 24 24" class="svg material-folder-webpack" width="16" height="16" aria-hidden="true"><path fill="#03a9f4" fill-rule="nonzero" d="M10 4H4c-1.11 0-2 .89-2 2v12c0 1.097.903 2 2 2h16c1.097 0 2-.903 2-2V8a2 2 0 0 0-2-2h-8l-2-2z"/><path fill="#fff" fill-opacity=".785" d="m22.044 18.085-5.113 2.952-5.113-2.952V12.18l5.113-2.952 5.113 2.952z"/><path fill="#8ed6fb" d="M17.341 8.793c-.14 0-.272.04-.378.12l-5.24 2.944a.658.658 0 0 0-.351.584v5.97c0 .252.138.471.35.584l5.24 2.945c.107.08.24.119.38.119s.271-.04.377-.12l5.24-2.944a.658.658 0 0 0 .352-.584v-5.97a.658.658 0 0 0-.351-.584l-5.24-2.945a.627.627 0 0 0-.379-.119zm0 1.426 4.643 2.613v1.396h-.01v3.434h.01v.357l-4.643 2.613-4.643-2.613v-5.187zm0 1.38-3.25 1.877 3.25 1.877 3.25-1.877zm-3.316 3.37v2.374l2.653 1.532V16.5zm6.633 0-2.654 1.53v2.376l2.654-1.532z"/><path fill="#1c78c0" d="m17.341 11.6-3.25 1.876 3.25 1.877 3.25-1.877zm-3.316 3.369v2.374l2.653 1.532V16.5zm6.633 0-2.654 1.53v2.376l2.654-1.532z"/></svg>