<svg xmlns="http://www.w3.org/2000/svg" xml:space="preserve" fill-rule="evenodd" clip-rule="evenodd" image-rendering="optimizeQuality" shape-rendering="geometricPrecision" text-rendering="geometricPrecision" viewBox="0 0 3473 3473" class="svg material-editorconfig" width="16" height="16" aria-hidden="true"><path fill="#e3e3f8" d="M989.342 1977.409c41.146-26.835 75.137-93.922 54.564-141.33-56.353 24.151-53.67 79.61-54.564 141.33zm636.877 153.851c44.724-14.311 87.66-64.402 63.509-116.283-34.886 24.151-57.248 57.247-63.51 116.284z" class="material-editorconfig__fil0"/><g fill="#fdfdfd"><path d="M374.827 2871.899c0 56.352 14.312 117.178 53.67 138.645 144.907 81.4 652.977 17.89 825.614-20.573 90.343-20.573 163.692-87.66 248.668-124.334 191.421-83.187 330.067-150.274 483.025-262.085 110.916-81.399 287.131-310.388 305.915-447.245l-151.169-33.991c-3.578 153.852-38.463 188.737-175.32 224.517-92.132 25.046-271.925 30.413-365.846 14.312-124.334-20.574-180.687-85.871-237.04-160.114-109.128-144.907 24.151-245.985-148.485-255.824-181.582 222.728-501.81 62.614-642.244 40.252-59.93 86.765-200.366 650.294-198.577 779.1 86.766-29.517 141.33 2.684 219.15 33.097 275.503 106.444 34.885 200.366-75.137 172.636-75.137-17.89-98.394-67.086-142.224-98.393zm360.48-1285.383c111.81 21.468 211.1 67.982 305.915 115.39 154.747 76.926 182.476 66.192 196.788 173.53 1.789 19.68-1.789 30.413 54.564 48.303 94.816 29.518-54.564-23.257 199.471-22.362 151.169.894 497.337 61.72 609.148 132.384 46.513 29.519 37.568 67.087 194.999 62.615-1.79-185.16-50.986-461.557-123.44-631.51-88.554-205.733-205.733-237.04-444.561-313.966-139.54-44.725-549.217-93.922-676.235-15.207-118.967 74.243-141.33 162.798-252.246 318.439-32.202 45.619-43.83 80.504-64.403 132.384z" class="material-editorconfig__fil1"/><path d="M1720.14 1966.675c89.45 36.674-4.472 273.714-128.806 216.466-40.252-113.6 55.458-178.003 81.398-228.99-53.67-8.05-206.627-32.2-252.246-15.206-59.036 22.363-72.454 148.486-42.041 207.522 143.118 280.87 775.523 220.94 708.436 2.684-26.835-88.555-51.88-102.867-142.224-133.28-72.454-24.15-144.907-49.196-224.517-49.196zm-1124.374-31.307c71.56 68.875 233.462 79.61 338.117 84.976 13.418-138.646 25.046-242.407 135.963-234.356 54.564 74.242 25.94 161.902-31.307 218.255 97.5-.894 153.852-74.242 139.54-180.687-82.293-59.036-331.856-177.109-457.084-194.104-34.885 37.569-120.756 243.301-125.229 305.916z" class="material-editorconfig__fil1"/></g><path fill="#020202" d="M339 2838c66-6 238 44 252 100-107 13-243 3-252-100zm-59 57c49 35 75 90 159 110 123 31 392-74 84-193-87-34-148-70-245-37-2-144 155-774 222-871 157 25 515 204 718-45 193 11 44 124 166 286 63 83 126 156 265 179 105 18 306 12 409-16 153-40 192-79 196-251l169 38c-21 153-218 409-342 500-171 125-326 200-540 293-95 41-177 116-278 139-193 43-761 114-923 23-44-24-60-92-60-155zm1399-828c7-66 32-103 71-130 27 58-21 114-71 130zm105-184c89 0 170 28 251 55 101 34 129 50 159 149 75 244-632 311-792-3-34-66-19-207 47-232 51-19 222 8 282 17-29 57-136 129-91 256 139 64 244-201 144-242zm-817 12c1-69-2-131 61-158 23 53-15 128-61 158zm-440-47c5-70 101-300 140-342 140 19 419 151 511 217 16 119-47 201-156 202 64-63 96-161 35-244-124-9-137 107-152 262-117-6-298-18-378-95zm-100-80c-37-102-37-261 120-274l-80 223c-21 48-21 37-40 51zm256-310c23-58 36-97 72-148 124-174 149-273 282-356 142-88 600-33 756 17 267 86 398 121 497 351 81 190 136 499 138 706-176 5-166-37-218-70-125-79-512-147-681-148-284-1-117 58-223 25-63-20-59-32-61-54-16-120-47-108-220-194-106-53-217-105-342-129zm1770-49c-19-63 16-59 77-102 35-25 63-51 106-75 161-90 461-105 589 2 52 43 137 127 124 237-27 219-177 339-300 439-125 102-333 207-548 137-18-44-4-323-25-426-19-92-9-102 44-157 156-162 494-280 686-141 81 60 58 83 100 129 52-56-45-244-403-232-243 8-348 198-450 189zM997 840c5-139 133-427 261-527 155-120 317-233 555-98 59 33 56 50 62 132 5 79-2 108-22 172-158 510-290 217-796 338 19-166 163-314 243-391 137-133 236-219 442-191 57 95 63 155-6 266-92 148-115 139-101 240 72-18 94-88 127-158 201-420-91-471-270-394-120 51-334 287-404 429-14 28-29 64-42 95zm792 21c21-125 145-156 145-541 0-166-204-315-471-204-229 94-264 166-386 350-115 174-111 365-210 526-29 46-55 62-87 108-23 34-40 77-63 117-47 77-95 133-133 225-120 3-221 5-233 129-16 170 64 212 64 276-1 69-281 765-203 1180 22 114 97 115 217 129 289 35 664 23 923-81l470-225c119-67 319-194 408-287 63-65 96-120 150-197 74-108 76-106 92-253 98 18 281 61 342 114-7 69-41 36-41 98 39 1 104-48 120-102-41-60-84-50-143-98 47-37 132-54 197-81 140-58 379-234 438-394 47-129 12-344-64-428-80-88-266-133-418-133-181 0-368 130-514 186-56-49-60-105-101-159-47-64-353-224-499-255z" style="fill:#020202" transform="translate(124.37 282.35) scale(.89449)"/><path fill="#fdf2f2" d="M2453 1409c102 9 207-181 450-189 358-12 455 176 403 232-42-46-19-69-100-129-192-139-530-21-686 141-53 55-63 65-44 157 21 103 7 382 25 426 215 70 423-35 548-137 123-100 273-220 300-439 13-110-72-194-124-237-128-107-428-92-589-2-43 24-71 50-106 75-61 43-96 39-77 102z" style="fill:#fdf2f2" transform="translate(124.37 282.35) scale(.89449)"/><path fill="#fef3f3" d="m997 840 49-87c13-31 28-67 42-95 70-142 284-378 404-429 179-77 471-26 270 394-33 70-55 140-127 158-14-101 9-92 101-240 69-111 63-171 6-266-206-28-305 58-442 191-80 77-224 225-243 391 506-121 638 172 796-338 20-64 27-93 22-172-6-82-3-99-62-132-238-135-400-22-555 98-128 100-256 388-261 527z" style="fill:#fef3f3" transform="translate(124.37 282.35) scale(.89449)"/><path fill="#efefef" d="M427 1768c19-14 19-3 40-51l80-223c-157 13-157 172-120 274z" style="fill:#efefef" transform="translate(124.37 282.35) scale(.89449)"/><path fill="#faf1f1" d="M591 2938c-14-56-186-106-252-100 9 103 145 113 252 100z" style="fill:#faf1f1" transform="translate(124.37 282.35) scale(.89449)"/></svg>