<svg xmlns="http://www.w3.org/2000/svg" xml:space="preserve" stroke-linejoin="round" stroke-miterlimit="1.414" clip-rule="evenodd" viewBox="0 0 24 24" class="svg material-folder-pipe-open" width="16" height="16" aria-hidden="true"><path fill="#e57373" d="M19 20H4a2 2 0 0 1-2-2V6c0-1.11.89-2 2-2h6l2 2h7c1.097 0 2 .903 2 2H4v10l2.14-8h17.07l-2.28 8.5c-.23.87-1.01 1.5-1.93 1.5z" style="fill:#00897b"/><path d="M23.285 16.95h-1.288v1.288h-3.864v-1.932h1.288v-1.288h-1.288v-3.22a1.288 1.288 0 0 0-1.288-1.288h-5.153V9.222h-1.288v5.152h1.288v-1.288h3.864v1.932h-1.288v1.288h1.288v3.22a1.288 1.288 0 0 0 1.289 1.288h5.152v1.288h1.288" style="fill:#b2dfdb;stroke-width:.64403"/></svg>