<svg xmlns="http://www.w3.org/2000/svg" viewBox="0 0 24 24" class="svg material-lisp" width="16" height="16" aria-hidden="true"><path fill="#ef5350" d="M12 2C6.483 2 2 6.483 2 12s4.483 10 10 10 10-4.483 10-10S17.517 2 12 2zm0 1.62A8.376 8.376 0 0 1 20.38 12a8.368 8.368 0 0 1-4.694 7.52c-.057.006-.113.017-.17.021a4.507 4.507 0 0 1-1.648-.19 4.468 4.468 0 0 1-.42-.156 4.506 4.506 0 0 1-.407-.193 4.51 4.51 0 0 1-.738-.508 4.491 4.491 0 0 1-.33-.305 4.535 4.535 0 0 1-1.25-3.582c.015-.149.04-.298.07-.445a4.487 4.487 0 0 1 .264-.857 4.49 4.49 0 0 1 .847-1.309 3.656 3.656 0 0 0 .416-.52 4.492 4.492 0 0 0 .696-1.644 4.517 4.517 0 0 0 .09-.895 4.476 4.476 0 0 0-.165-1.2 4.515 4.515 0 0 0-.14-.428 4.51 4.51 0 0 0-.186-.41 4.5 4.5 0 0 0-.484-.756 4.475 4.475 0 0 0-.297-.336 4.516 4.516 0 0 0-.686-.58 4.54 4.54 0 0 0-1.645-.695 4.514 4.514 0 0 0-.894-.09c-.078 0-.156.005-.234.01A8.337 8.337 0 0 1 12 3.618zm1.531 2.784c.726.995 1.338 1.814 1.47 2.916.176 1.46-1.617 5.156-2.333 6.219h1.465c.516-.801 1.652-3.25 1.986-4.266.383.696 1.297 3.367 1.504 4.266h1.334c-.506-1.959-1.515-5.041-3.953-9.092 0 0-.99-.043-1.473-.043zM5.008 8.461h1.334c.207.899 1.12 3.57 1.504 4.266.333-1.016 1.47-3.465 1.986-4.266h1.465c-.717 1.063-2.51 4.76-2.334 6.219.132 1.102.745 1.921 1.47 2.916-.483 0-1.472-.043-1.472-.043-2.439-4.05-3.447-7.133-3.953-9.092z"/></svg>