<svg xmlns="http://www.w3.org/2000/svg" xml:space="preserve" stroke-linejoin="round" stroke-miterlimit="1.414" clip-rule="evenodd" viewBox="0 0 24 24" class="svg material-folder-resource-open" width="16" height="16" aria-hidden="true"><path fill="#fbc02d" d="M19 20H4a2 2 0 0 1-2-2V6c0-1.11.89-2 2-2h6l2 2h7c1.097 0 2 .903 2 2H4v10l2.14-8h17.07l-2.28 8.5c-.23.87-1.01 1.5-1.93 1.5z"/><path fill="#fff9c4" d="M21.598 12.059h-6.085v-1.217h6.085m-2.434 6.085h-3.65V15.71h3.65m2.434-1.217h-6.085v-1.217h6.085m.608-4.26h-7.301a1.217 1.217 0 0 0-1.217 1.218v7.301a1.217 1.217 0 0 0 1.217 1.217h7.301a1.217 1.217 0 0 0 1.217-1.217v-7.301a1.217 1.217 0 0 0-1.217-1.217m-9.735 2.433h-1.217v8.519a1.217 1.217 0 0 0 1.217 1.217h8.519v-1.217h-8.52z"/></svg>