<svg xmlns="http://www.w3.org/2000/svg" viewBox="0 0 300 300" class="svg material-semantic-release" width="16" height="16" aria-hidden="true"><path d="M93.656 252.93c-30.929-17.946-57.303-33.656-58.608-34.91-2.197-2.111-2.372-7.168-2.352-68.012.01-36.152.469-66.413 1.017-67.248.84-1.278 114.93-68.32 116.26-68.32 1.335 0 115.42 67.042 116.26 68.32 1.697 2.584 1.253 132.52-.461 134.58-1.178 1.42-50.022 30.2-110.42 65.063l-5.466 3.155zm74.879 11.529c9.928-5.689 19.12-11.554 20.425-13.033 5.167-5.855 2.22-22.428-7.921-44.553-3.434-7.491-5.89-13.974-5.458-14.406 2.166-2.165 30 21.345 35.714 30.166 8.795 13.576 5.942 13.273 24.626 2.61 9.088-5.185 17.723-10.52 19.191-11.854 2.44-2.22 2.668-4.272 2.668-24.017 0-24.644.382-23.74-12.846-30.433-7.331-3.71-27.076-7.453-39.62-7.51-3.127-.015-6.045-.611-6.486-1.326-1.018-1.646 3.35-3.864 20.305-10.314 10.685-4.064 16.148-5.32 25.765-5.926l12.204-.768V87.052l-16.926-9.863c-9.31-5.425-18.078-9.863-19.485-9.863-4.587 0-18.396 9.537-24.283 16.77-3.164 3.888-8.499 11.144-11.855 16.125-3.357 4.982-6.648 9.076-7.314 9.1-1.699.06.055-16.855 3.282-31.654 1.676-7.688 4.235-14.848 6.755-18.906 2.231-3.592 4.057-7.32 4.057-8.283 0-1.574-38.81-25.189-41.396-25.189-1.803 0-38.26 21.675-40.016 23.79-1.114 1.343-1.456 5.6-1.056 13.167.52 9.845 1.444 13.13 7.728 27.456 3.926 8.95 7.463 17.035 7.86 17.968 1.606 3.762-2.84 1.171-15.601-9.094-15.36-12.355-19.89-17.167-24.644-26.181-1.863-3.533-4-6.376-4.746-6.318-.747.057-9.292 4.806-18.987 10.552l-17.63 10.448v47.348l7.44 4.445c9.78 5.844 13.866 6.917 33.242 8.725 8.95.835 16.8 1.982 17.445 2.548 1.506 1.321-3.334 3.76-20.158 10.16-10.685 4.064-16.148 5.32-25.765 5.926l-12.204.769-.372 21.952c-.44 25.928-2.375 22.64 21.282 36.139l16.252 9.273 7.144-3.85c9.02-4.859 15.585-11.571 25.982-26.562 4.526-6.526 8.717-11.865 9.314-11.865 1.68 0 1.312 5.155-1.614 22.579-2.03 12.092-3.88 18.4-7.474 25.496-4.046 7.985-4.493 9.712-2.918 11.287 1.926 1.926 37.46 23.046 39.11 23.245.513.062 9.056-4.542 18.985-10.231zm-28.054-89.313c-7.395-2.593-15.058-11.41-16.73-19.25-4.594-21.54 17.346-39.532 37.071-30.4 17.296 8.008 21.43 29.242 8.34 42.832-8.106 8.416-17.651 10.686-28.68 6.818zm16.04-7.965c2.435-1.017 6.077-3.81 8.093-6.206 7.074-8.407 3.726-22.934-6.392-27.735-12.968-6.154-26.556 2.647-26.556 17.2 0 7.107 4.494 13.649 11.459 16.683 5.324 2.319 7.957 2.33 13.396.058z" style="fill:#f5f5f5;stroke-width:1.3561"/></svg>