<svg xmlns="http://www.w3.org/2000/svg" xml:space="preserve" viewBox="0 0 200 200" class="svg material-sentry" width="16" height="16" aria-hidden="true"><path fill="#f06292" d="M181.58 148.3c3.8 6.649 4.206 13.637 1.018 19.2-3.189 5.563-9.43 8.684-17.03 8.684h-14.45c.203-2.714.271-5.428.271-8.141 0-3.053-.136-6.106-.34-9.091h9.499c2.307 0 4.206-1.9 4.206-4.207 0-.678-.203-1.424-.475-2.035L103.694 47.35c-.746-1.357-2.17-2.171-3.663-2.171s-2.85.746-3.596 2.035l-9.634 16.69c29.241 22.05 48.848 56.175 51.561 94.914.204 2.985.34 6.038.34 9.091 0 2.714-.136 5.428-.272 8.142H91.278c.272-2.714.407-5.428.407-8.142 0-3.053-.203-6.106-.542-9.09-2.307-21.304-12.755-40.232-28.155-53.53l-6.65 11.533c11.602 10.787 19.54 25.51 21.71 42.063.408 2.985.611 6.038.611 9.091 0 2.782-.203 5.496-.475 8.142H34.425c-7.666 0-13.908-3.189-17.029-8.684-3.188-5.496-2.781-12.551 1.018-19.2l8.956-15.401a52.432 52.432 0 0 1 13.704 10.652l-5.36 9.09c-.34.611-.475 1.29-.543 2.036 0 2.307 1.9 4.206 4.206 4.206h21.235a52.263 52.263 0 0 0-13.162-26.595c-3.934-4.274-8.616-7.87-13.704-10.65L57.424 80.39c5.02 2.782 9.838 6.038 14.247 9.702 20.421 16.554 34.193 41.046 36.704 68.726h12.687c-2.578-32.362-18.86-60.924-43.013-79.852-4.545-3.528-9.362-6.784-14.383-9.566l20.217-35.143c3.8-6.649 9.702-10.448 16.011-10.448 6.378 0 12.212 3.8 16.011 10.448z" class="material-sentry__st0"/></svg>