<svg xmlns="http://www.w3.org/2000/svg" xml:space="preserve" fill-rule="evenodd" stroke-linejoin="round" stroke-miterlimit="1.414" clip-rule="evenodd" viewBox="0 0 24 24" class="svg material-folder-react-components" width="16" height="16" aria-hidden="true"><path fill="#00bcd4" fill-rule="nonzero" d="M10 4H4c-1.11 0-2 .89-2 2v12c0 1.097.903 2 2 2h16c1.097 0 2-.903 2-2V8a2 2 0 0 0-2-2h-8l-2-2z"/><path fill="#b2ebf2" d="M16.473 13.927c.723 0 1.313.59 1.313 1.327 0 .703-.59 1.3-1.313 1.3a1.318 1.318 0 0 1-1.313-1.3c0-.737.59-1.327 1.313-1.327m-3.252 6.946c.443.267 1.412-.14 2.529-1.194a17.015 17.015 0 0 1-1.06-1.335 15.945 15.945 0 0 1-1.686-.252c-.358 1.502-.225 2.535.217 2.78m.499-4.03-.204-.359a5.558 5.558 0 0 0-.203.604c.19.042.4.078.618.113l-.211-.359m4.593-.533.569-1.054-.569-1.053c-.21-.372-.435-.702-.639-1.032-.38-.022-.78-.022-1.2-.022-.422 0-.823 0-1.202.022-.204.33-.428.66-.639 1.032l-.569 1.053.57 1.054c.21.372.434.702.638 1.032.38.021.78.021 1.201.021.421 0 .822 0 1.201-.02.204-.331.428-.661.639-1.033m-1.84-4.72c-.133.155-.274.316-.414.506h.828c-.14-.19-.28-.351-.414-.506m0 7.332c.133-.154.274-.316.414-.505h-.828c.14.19.28.35.414.505m3.245-9.284c-.436-.267-1.405.14-2.522 1.194a16.6 16.6 0 0 1 1.06 1.334c.577.057 1.146.14 1.686.253.359-1.503.225-2.535-.224-2.78m-.492 4.03.204.358c.077-.203.154-.407.203-.604-.19-.042-.4-.077-.618-.112l.211.358m1.018-4.95c1.033.589 1.145 2.141.71 3.953 1.784.527 3.069 1.398 3.069 2.584 0 1.187-1.285 2.058-3.07 2.585.436 1.812.324 3.364-.709 3.954-1.025.59-2.423-.085-3.77-1.37-1.35 1.285-2.747 1.96-3.78 1.37-1.025-.59-1.137-2.142-.702-3.954-1.783-.527-3.069-1.398-3.069-2.585s1.286-2.057 3.07-2.584c-.436-1.812-.324-3.364.702-3.954 1.032-.59 2.43.084 3.778 1.37 1.348-1.286 2.746-1.96 3.771-1.37m-.203 6.538c.239.527.45 1.054.625 1.588 1.475-.443 2.303-1.075 2.303-1.588 0-.512-.828-1.144-2.303-1.587a15.81 15.81 0 0 1-.625 1.587m-7.136 0a15.806 15.806 0 0 1-.625-1.587c-1.474.443-2.303 1.075-2.303 1.587 0 .513.829 1.145 2.303 1.588.176-.534.387-1.06.625-1.588m6.321 1.588-.21.358c.217-.035.428-.07.617-.113a5.643 5.643 0 0 0-.203-.604l-.204.359m-2.03 2.837c1.117 1.053 2.086 1.46 2.522 1.194.45-.246.583-1.278.224-2.781-.54.112-1.11.196-1.685.253-.337.47-.695.92-1.06 1.334m-3.477-6.012.21-.358c-.217.035-.428.07-.617.113.049.196.126.4.203.604l.204-.359m2.03-2.837c-1.117-1.053-2.086-1.46-2.529-1.194-.442.246-.576 1.278-.217 2.781a16.25 16.25 0 0 1 1.685-.253c.337-.47.695-.92 1.06-1.334z"/></svg>