<svg xmlns="http://www.w3.org/2000/svg" xml:space="preserve" fill-rule="evenodd" stroke-linejoin="round" stroke-miterlimit="1.414" clip-rule="evenodd" viewBox="0 0 24 24" class="svg material-folder-terraform" width="16" height="16" aria-hidden="true"><path fill="#5c6bc0" fill-rule="nonzero" d="M10 4H4c-1.11 0-2 .89-2 2v12c0 1.097.903 2 2 2h16c1.097 0 2-.903 2-2V8a2 2 0 0 0-2-2h-8l-2-2z"/><g fill="#c5cae9"><path d="m19.903 17.826 3.822-2.205v-4.417l-3.822 2.21" class="material-folder-terraform__rect-dark"/><path d="m15.66 11.204 3.823 2.21v4.412l-3.822-2.207m-4.242-2.464 3.822 2.207v-4.414L11.42 8.74m4.242 11.777 3.822 2.207V18.31l-3.822-2.208" class="material-folder-terraform__rect-light"/></g></svg>