<svg xmlns="http://www.w3.org/2000/svg" xml:space="preserve" viewBox="0 0 200 200" class="svg material-cuda" width="16" height="16" aria-hidden="true"><path fill="#8bc34a" d="M76.362 75.199V64.116c1.095-.068 2.19-.137 3.284-.137 30.377-.958 50.286 26.135 50.286 26.135s-21.483 29.83-44.539 29.83c-3.079 0-6.089-.48-8.962-1.438v-33.66c11.836 1.436 14.23 6.636 21.277 18.471l15.804-13.273s-11.562-15.12-30.992-15.12c-2.053-.068-4.105.069-6.158.274m0-36.67v16.556l3.284-.205c42.213-1.437 69.784 34.618 69.784 34.618s-31.608 38.45-64.516 38.45c-2.873 0-5.678-.274-8.483-.753v10.262c2.326.274 4.72.48 7.046.48 30.65 0 52.817-15.668 74.3-34.14 3.558 2.874 18.13 9.784 21.14 12.794-20.388 17.104-67.937 30.856-94.893 30.856-2.6 0-5.062-.137-7.525-.41v14.436h116.44V38.532zm0 79.977v8.757C48.038 122.2 40.17 92.712 40.17 92.712s13.615-15.05 36.192-17.514v9.579h-.068c-11.836-1.437-21.14 9.646-21.14 9.646s5.268 18.678 21.209 24.082M26.077 91.481S42.839 66.714 76.43 64.115v-9.03c-37.217 3.009-69.373 34.48-69.373 34.48s18.199 52.68 69.305 57.47v-9.579c-37.492-4.652-50.286-45.975-50.286-45.975z" style="fill:#76b900"/></svg>