<svg xmlns="http://www.w3.org/2000/svg" viewBox="0 0 24 24" class="svg material-folder-circleci-open" width="16" height="16" aria-hidden="true"><path fill="#546e7a" d="M19 20H4a2 2 0 0 1-2-2V6a2 2 0 0 1 2-2h6l2 2h7c1.1 0 2 .9 2 2H4v10l2.14-8h17.07l-2.28 8.5A2 2 0 0 1 19 20z"/><path fill="#eceff1" d="M15.81 14.8a1.5 1.5 0 1 1 3 0 1.5 1.5 0 0 1-3 0zm1.5-6.3a6.3 6.3 0 0 0-6.11 4.74l-.01.06c0 .17.13.3.3.3h2.54a.3.3 0 0 0 .27-.18 3.3 3.3 0 1 1 0 2.75.3.3 0 0 0-.27-.18h-2.54a.3.3 0 0 0-.3.3v.06a6.3 6.3 0 1 0 6.12-7.85z"/></svg>