<svg xmlns="http://www.w3.org/2000/svg" stroke-linejoin="round" stroke-miterlimit="1.414" clip-rule="evenodd" viewBox="0 0 24 24" class="svg material-folder-netlify-open" width="16" height="16" aria-hidden="true"><path fill="#26a69a" d="M19 20H4a2 2 0 0 1-2-2V6c0-1.11.89-2 2-2h6l2 2h7c1.097 0 2 .903 2 2H4v10l2.14-8h17.07l-2.28 8.5c-.23.87-1.01 1.5-1.93 1.5z"/><path fill="#a7ffeb" d="m15.836 7.752-.084.084v3.041l.084.086h1.015l.086-.086V7.836l-.086-.084h-1.015zm-3.037 2.146-.696.696v.14l1.065 1.067h.738l.098-.1v-.738l-1.065-1.065h-.14zm1.634 2.246-.084.086v4.053l.084.086h1.016l.084-.086v-3.07l.047-.049c.32-.013.62-.02.883-.014.509.012.675.34.675.762v2.373l.084.084h1.014l.086-.084V13.75c0-.887-.719-1.606-1.605-1.606h-2.284zm-5.406 1.52-.084.084v1.018l.084.084h4.057l.084-.084v-1.018l-.084-.084H9.027zm10.563 0-.086.084v1.018l.086.084h4.054l.086-.084v-1.018l-.086-.084H19.59zm-6.422 3.05-1.065 1.065v.14l.696.698h.14l1.065-1.066v-.739l-.098-.097h-.738zm2.668.837-.084.086v3.04l.084.087h1.015l.086-.086v-3.041l-.086-.086h-1.015z"/></svg>