<svg xmlns="http://www.w3.org/2000/svg" xml:space="preserve" stroke-linejoin="round" stroke-miterlimit="1.414" clip-rule="evenodd" viewBox="0 0 24 24" class="svg material-folder-php-open" width="16" height="16" aria-hidden="true"><path fill="#1e88e5" d="M19 20H4a2 2 0 0 1-2-2V6c0-1.11.89-2 2-2h6l2 2h7c1.097 0 2 .903 2 2H4v10l2.14-8h17.07l-2.28 8.5c-.23.87-1.01 1.5-1.93 1.5z"/><path fill="#bbdefb" d="M15.508 21.639c-4.692 0-8.492-1.925-8.492-4.302s3.8-4.303 8.492-4.303S24 14.96 24 17.337s-3.8 4.302-8.492 4.302m-3.673-5.626c.383 0 .644.071.772.22.127.141.155.396.092.729-.071.375-.206.615-.41.77-.199.157-.503.234-.914.234h-.615l.375-1.953h.7M9.36 19.941h1.019l.24-1.239h.87c.383 0 .694-.042.942-.12.247-.085.474-.22.68-.41.169-.156.303-.326.41-.517.106-.184.184-.396.219-.623.113-.552.035-.983-.234-1.287-.276-.312-.7-.46-1.288-.46h-1.953L9.36 19.94m5.13-5.895-.906 4.656h1.005l.524-2.667h.806c.255 0 .425.042.503.127.078.085.092.24.05.467l-.404 2.073h1.026l.417-2.172c.092-.439.022-.757-.19-.962-.213-.191-.602-.283-1.168-.283h-.899l.255-1.239h-1.02m5.266 1.967c.389 0 .644.071.77.22.128.141.157.396.093.729-.07.375-.205.615-.403.771-.206.156-.51.234-.92.234h-.602l.354-1.953h.708m-2.477 3.927h1.019l.24-1.238h.864c.389 0 .707-.043.955-.12.248-.086.46-.22.672-.411a1.87 1.87 0 0 0 .41-.517 1.95 1.95 0 0 0 .227-.622c.106-.552.028-.984-.24-1.288-.255-.312-.701-.46-1.288-.46H18.19z"/></svg>