<svg xmlns="http://www.w3.org/2000/svg" xml:space="preserve" stroke-linejoin="round" stroke-miterlimit="1.414" clip-rule="evenodd" viewBox="0 0 24 24" class="svg material-folder-tools-open" width="16" height="16" aria-hidden="true"><path fill="#e57373" d="M19 20H4a2 2 0 0 1-2-2V6c0-1.11.89-2 2-2h6l2 2h7c1.097 0 2 .903 2 2H4v10l2.14-8h17.07l-2.28 8.5c-.23.87-1.01 1.5-1.93 1.5z" style="fill:#1e88e5"/><path d="m18.648 14.537-7.217 7.21-.895-.894 7.21-7.217.902.901m2.864-1.847.377-.378-.505-.505.409-.409-.908-.907-.409.409-.505-.505-.377.377a13.44 13.44 0 0 0-3.707-2.148l-.531 1.144a16.058 16.058 0 0 1 3.107 2.135l-.32.32 1.918 1.918.32-.32a16.06 16.06 0 0 1 2.134 3.107l1.144-.53a13.438 13.438 0 0 0-2.147-3.708z" style="fill:#bbdefb;stroke-width:.63923"/></svg>