<svg xmlns="http://www.w3.org/2000/svg" viewBox="0 0 24 24" class="svg material-folder-serverless-open" width="16" height="16" aria-hidden="true"><path fill="#EF5350" d="M19 20H4a2 2 0 0 1-2-2V6c0-1.11.89-2 2-2h6l2 2h7c1.097 0 2 .903 2 2H4v10l2.14-8h17.07l-2.28 8.5c-.23.87-1.01 1.5-1.93 1.5Z"/><path fill="#ffcdd2" d="M10.814 18.856h2.192l-.679 2.051h-1.513zm0-3.9h3.484l-.68 2.052h-2.804zm0-3.899h4.775l-.68 2.051h-4.095zm6.936 0h5.45v2.051h-6.13zm-1.292 3.9H23.2v2.05h-7.42zm-1.291 3.899H23.2v2.051h-8.712z"/></svg>