<svg xmlns="http://www.w3.org/2000/svg" xml:space="preserve" fill-rule="evenodd" stroke-linejoin="round" stroke-miterlimit="1.414" clip-rule="evenodd" viewBox="0 0 24 24" class="svg material-folder-update" width="16" height="16" aria-hidden="true"><path fill="#43a047" fill-rule="nonzero" d="M10 4H4c-1.11 0-2 .89-2 2v12c0 1.097.903 2 2 2h16c1.097 0 2-.903 2-2V8a2 2 0 0 0-2-2h-8l-2-2z"/><path fill="#c8e6c9" d="M23.286 13.992h-4.348l1.757-1.808c-1.75-1.731-4.584-1.796-6.335-.064a4.416 4.416 0 0 0 0 6.284 4.513 4.513 0 0 0 6.335 0c.872-.866 1.308-1.873 1.308-3.142h1.283c0 1.27-.564 2.917-1.693 4.033-2.25 2.231-5.905 2.231-8.156 0-2.244-2.225-2.264-5.842-.013-8.067a5.763 5.763 0 0 1 8.111 0l1.75-1.801v4.565m-5.45-1.36v2.726l2.245 1.334-.462.775-2.744-1.628v-3.206z"/></svg>