<svg xmlns="http://www.w3.org/2000/svg" xml:space="preserve" fill-rule="evenodd" stroke-linejoin="round" stroke-miterlimit="1.414" clip-rule="evenodd" viewBox="0 0 24 24" class="svg material-folder-pipe" width="16" height="16" aria-hidden="true"><path fill="#e57373" fill-rule="nonzero" d="M10 4H4c-1.11 0-2 .89-2 2v12c0 1.097.903 2 2 2h16c1.097 0 2-.903 2-2V8a2 2 0 0 0-2-2h-8l-2-2z" style="fill:#00897b"/><path d="M23.284 16.949h-1.288v1.288h-3.864v-1.932h1.288v-1.288h-1.288v-3.22a1.288 1.288 0 0 0-1.288-1.288H11.69V9.22h-1.288v5.152h1.288v-1.288h3.864v1.932h-1.288v1.288h1.288v3.22a1.288 1.288 0 0 0 1.289 1.288h5.152V22.1h1.288" style="fill:#b2dfdb;stroke-width:.64403"/></svg>