<svg xmlns="http://www.w3.org/2000/svg" xml:space="preserve" fill-rule="evenodd" stroke-linejoin="round" stroke-miterlimit="1.414" clip-rule="evenodd" viewBox="0 0 24 24" class="svg material-folder-animation" width="16" height="16" aria-hidden="true"><path fill="#e57373" fill-rule="nonzero" d="M10 4H4c-1.11 0-2 .89-2 2v12c0 1.097.903 2 2 2h16c1.097 0 2-.903 2-2V8a2 2 0 0 0-2-2h-8l-2-2z" style="fill:#ec407a"/><g style="fill:#f8bbd0"><path d="M16.648 10.292a3.436 3.436 0 0 1 0 4.859 3.443 3.443 0 0 1-3.47.847 3.493 3.493 0 0 1-2.083 0 3.443 3.443 0 0 1-3.47-.847 3.436 3.436 0 0 1 0-4.859 3.443 3.443 0 0 1 3.47-.847 3.493 3.493 0 0 1 2.082 0 3.443 3.443 0 0 1 3.471.847m-6.941 4.859a3.436 3.436 0 0 1 0-4.859c-.51.073-.996.302-1.389.694a2.454 2.454 0 0 0 0 3.47c.392.393.878.622 1.389.695m2.082 0a3.436 3.436 0 0 1 0-4.859c-.51.073-.996.302-1.388.694a2.454 2.454 0 0 0 0 3.47c.392.393.878.622 1.388.695m4.165-4.165a2.436 2.436 0 0 0-1.388-.694 3.436 3.436 0 0 1 0 4.859c.51-.073.996-.302 1.388-.694a2.454 2.454 0 0 0 0-3.47m-3.47 0a2.454 2.454 0 0 0 0 3.47c.207.208.44.371.693.486a2.35 2.35 0 0 0 .694-.486 2.454 2.454 0 0 0 0-3.47 2.35 2.35 0 0 0-.694-.487 2.35 2.35 0 0 0-.694.486z" style="fill:#f8bbd0;stroke-width:.49083" transform="translate(-1.646 -2.11) scale(1.417)"/></g></svg>