<svg xmlns="http://www.w3.org/2000/svg" viewBox="0 0 100 100" class="svg material-nrwl" width="16" height="16" aria-hidden="true"><path d="M40.434 15.644a34.31 34.31 0 0 0-21.68 60.776 7.058 7.058 0 0 1-2.069-.746 6.813 6.813 0 0 0-3.914-.896 6.974 6.974 0 0 0-6.036 9.478 19.901 19.901 0 0 1 5.665-1.195 20.194 20.194 0 0 1 3.408.06 17.666 17.666 0 0 0 2.815.04c.494-.035.984-.088 1.47-.16a17.206 17.206 0 0 0 5.868-2.033 32.625 32.625 0 0 0 4.394 1.675 44.398 44.398 0 0 0 29.929-1.973 5.343 5.343 0 0 0 1.195-.748l32.258 2.944-30.775-6.147c-.048-1.063-.98-1.793-1.333-2.247a1.38 1.38 0 0 1-.324-.705 16.447 16.447 0 0 0-14.994-15.21 5.008 5.008 0 0 0-1.792-1.94 5.038 5.038 0 0 1-1.907-3.964 5.624 5.624 0 0 0-4.984 4.398 13.955 13.955 0 0 1-3.777-22.28 18.025 18.025 0 0 1 13.147-5.63 18.258 18.258 0 0 1 17.678 13.53 9.144 9.144 0 0 1-5.443 3.205 9.054 9.054 0 0 0-7.375 7.494c3.514 0 5.852 4.782 12.378 4.782a5.923 5.923 0 0 0 5.484-3.683 5.934 5.934 0 0 0 5.493 3.683 11.72 11.72 0 0 0 .763-.033v.014c.08-.005.152-.018.23-.024a11.72 11.72 0 0 0 .455-.048c.236-.027.468-.06.693-.1a11.72 11.72 0 0 0 .37-.072c.262-.055.515-.12.762-.19a11.72 11.72 0 0 0 .301-.087c.309-.097.607-.202.894-.317a11.72 11.72 0 0 0 .127-.05l.1-.043a11.72 11.72 0 0 0 .42-.186v-.006c3.006-1.411 4.865-3.623 7.261-3.623a9.054 9.054 0 0 0-7.26-7.47h-.006a9.054 9.054 0 0 0-.109-.024 9.144 9.144 0 0 1-1.874-.558l-.061-.025a9.144 9.144 0 0 1-.755-.362l-.127-.074a9.144 9.144 0 0 1-.611-.371l-.11-.074a9.144 9.144 0 0 1-.667-.503c-1.085-.894-1.953-2.027-2.403-3.299a34.31 34.31 0 0 0-33.17-24.983zM25.202 42.19c.64.042 1.111.829 1.046 1.749-.066.92-.64 1.627-1.286 1.585-.645-.042-1.105-.83-1.04-1.751s.64-1.625 1.28-1.583zm-4.172 3-.017.016c.323 0 .597.354.597.814s-.227.843-.55.855c-.322.012-.596-.348-.596-.808s.249-.86.566-.877zm-.255 5.292c.539.032 1.1.597 1.284 1.381.209.897-.131 1.747-.759 1.89-.627.144-1.304-.46-1.513-1.363-.209-.902.15-1.757.777-1.907l-.018.019a.783.783 0 0 1 .23-.02zm4.07 6.425c.08-.007.162-.007.246 0 .562.045 1.192.387 1.677.97.777.932.861 2.121.21 2.66-.652.537-1.795.214-2.571-.718-.777-.933-.843-2.122-.21-2.66a1.17 1.17 0 0 1 .648-.252zm17.391 17.16c.316.011.721.16 1.181.274.92.227 1.727.197 1.517 1.064l-.016.018a1.715 1.715 0 0 1-3.33-.807c.105-.437.332-.562.648-.55z" style="fill:#00b8d4;stroke-width:.59763"/></svg>