<svg xmlns="http://www.w3.org/2000/svg" xml:space="preserve" fill-rule="evenodd" stroke-linejoin="round" stroke-miterlimit="1.414" clip-rule="evenodd" viewBox="0 0 24 24" class="svg material-folder-resource" width="16" height="16" aria-hidden="true"><path fill="#fbc02d" fill-rule="nonzero" d="M10 4H4c-1.11 0-2 .89-2 2v12c0 1.097.903 2 2 2h16c1.097 0 2-.903 2-2V8a2 2 0 0 0-2-2h-8l-2-2z"/><path fill="#fff9c4" d="M21.598 12.059h-6.085v-1.217h6.085m-2.434 6.085h-3.65V15.71h3.65m2.434-1.217h-6.085v-1.217h6.085m.608-4.26h-7.301a1.217 1.217 0 0 0-1.217 1.218v7.301a1.217 1.217 0 0 0 1.217 1.217h7.301a1.217 1.217 0 0 0 1.217-1.217v-7.301a1.217 1.217 0 0 0-1.217-1.217m-9.735 2.434h-1.217v8.518a1.217 1.217 0 0 0 1.217 1.217h8.519v-1.217h-8.52z"/></svg>