<svg xmlns="http://www.w3.org/2000/svg" viewBox="0 0 24 24" class="svg material-codecov" width="16" height="16" aria-hidden="true"><path d="M12.006 2.375c-5.528.004-10.028 4.471-10.032 9.959v.025l1.706.995.023-.016a4.908 4.908 0 0 1 3.641-.773 4.75 4.75 0 0 1 2.398 1.193l.293.273.166-.363c.16-.35.346-.68.55-.98a7.78 7.78 0 0 1 .278-.372l.172-.215-.211-.176a6.998 6.998 0 0 0-3.249-1.516 7.16 7.16 0 0 0-3.359.196c.812-3.556 3.939-6.036 7.631-6.039a7.78 7.78 0 0 1 5.516 2.267 7.681 7.681 0 0 1 2.095 3.759 7.182 7.182 0 0 0-2.09-.317h-.127a7.258 7.258 0 0 0-.829.061l-.034.005a6.393 6.393 0 0 0-.327.05 7.338 7.338 0 0 0-.47.101l-.115.03c-.134.036-.27.077-.403.12l-.025.008a7.092 7.092 0 0 0-.878.367l-.023.012a6.56 6.56 0 0 0-.392.214l-.03.018a6.806 6.806 0 0 0-1.77 1.516l-.063.076a6.778 6.778 0 0 0-.557.799l-.05.087a6.8 6.8 0 0 0-.195.36l-.014.025a7.058 7.058 0 0 0-.367.888l-.015.044a6.87 6.87 0 0 0-.343 2.264l.001.094a9.45 9.45 0 0 0 .018.33l.014.155c.006.064.014.127.021.19l.005.034.011.086c.015.106.032.21.052.316.202 1.057.706 2.115 1.458 3.058l.034.042.035-.041c.3-.355 1.044-1.479 1.107-2.154l.001-.012-.006-.011a4.707 4.707 0 0 1-.535-2.169c0-2.52 1.982-4.613 4.51-4.764l.165-.006a4.956 4.956 0 0 1 2.9.856l.023.016 1.684-.979.022-.013v-.025a9.838 9.838 0 0 0-2.934-7.039 9.995 9.995 0 0 0-7.087-2.91" style="fill-rule:evenodd;fill:#ec407a;stroke-width:.40106"/></svg>