<svg xmlns="http://www.w3.org/2000/svg" fill="none" viewBox="0 0 24 24" class="svg material-remix_light" width="16" height="16" aria-hidden="true"><path fill="#455a64" d="M12.87 2.687c4.864 0 7.282 2.28 7.282 5.923 0 2.725-1.702 4.502-4 4.798 1.94.385 3.074 1.48 3.284 3.643l.03.398.027.372.022.347.016.262.017.31.009.177.012.28.01.265.006.151.006.244.006.28.002.134.004.391v.651h-5.015v-.102l.002-.197.003-.193.01-.465.001-.156.002-.245V19.8l-.002-.165-.002-.129-.004-.18-.006-.191-.008-.204-.01-.216-.006-.114-.01-.178-.013-.186-.018-.264-.015-.21a7.28 7.28 0 0 0-.016-.19l-.013-.121c-.166-1.432-.742-2.017-1.73-2.213l-.083-.015a3.92 3.92 0 0 0-.173-.026l-.088-.01a6.733 6.733 0 0 0-.046-.005l-.09-.007-.095-.007-.096-.005-.096-.004-.099-.002-.1-.002h-7.94v-3.88h8.128c.133 0 .262-.001.387-.007l.123-.006.12-.007.119-.01.058-.005.113-.012c.075-.01.148-.019.22-.03l.105-.019c1.319-.234 1.978-.924 1.978-2.27 0-1.51-1.074-2.426-3.222-2.426H3.848V2.687zM9.151 18.42c.659 0 .933.36 1.032.705l.012.05.011.049.007.038.003.018.005.04.004.037.001.017.002.036.001.018v1.885H3.848V18.42z"/></svg>