<svg xmlns="http://www.w3.org/2000/svg" xml:space="preserve" stroke-linejoin="round" stroke-miterlimit="1.414" clip-rule="evenodd" viewBox="0 0 24 24" class="svg material-folder-intellij-open_light" width="16" height="16" aria-hidden="true"><defs><linearGradient id="material-folder-intellij-open_light__a" x1="31.841" x2="110.24" y1="120.56" y2="73.24" gradientUnits="userSpaceOnUse"><stop offset="0" stop-color="#fdd835"/><stop offset="1" stop-color="#f57c00"/></linearGradient><linearGradient id="material-folder-intellij-open_light__b" x1="48.361" x2="119.92" y1="6.908" y2="69.555" gradientUnits="userSpaceOnUse"><stop offset="0" stop-color="#ef5350"/><stop offset=".57" stop-color="#ff6e40"/><stop offset="1" stop-color="#f57c00"/></linearGradient><linearGradient id="material-folder-intellij-open_light__c" x1="52.947" x2="10.538" y1="63.641" y2="37.156" gradientUnits="userSpaceOnUse"><stop offset="0" stop-color="#8e24aa"/><stop offset=".385" stop-color="#ab47bc"/><stop offset=".765" stop-color="#ec407a"/><stop offset=".957" stop-color="#ec407a"/></linearGradient><linearGradient id="material-folder-intellij-open_light__d" x1="52.174" x2="10.771" y1="3.702" y2="37.897" gradientUnits="userSpaceOnUse"><stop offset="0" stop-color="#ef5350"/><stop offset=".364" stop-color="#EE4E72"/><stop offset="1" stop-color="#ec407a"/></linearGradient></defs><path fill="#b0bec5" d="M19 20H4a2 2 0 0 1-2-2V6c0-1.11.89-2 2-2h6l2 2h7c1.097 0 2 .903 2 2H4v10l2.14-8h17.07l-2.28 8.5c-.23.87-1.01 1.5-1.93 1.5z"/><path fill="url(#material-folder-intellij-open_light__a)" d="M118.6 71.8c.9-.8 1.4-1.9 1.5-3.2.1-2.6-1.8-4.7-4.4-4.9-1.2-.1-2.4.4-3.3 1.1l-83.8 45.9c-1.9.8-3.6 2.2-4.7 4.1-2.9 4.8-1.3 11 3.6 13.9 3.4 2 7.5 1.8 10.7-.2.2-.2.5-.3.7-.5l78-54.8c.4-.3 1.5-1.1 1.7-1.4z" transform="translate(10.126 8.976) scale(.11021)"/><path fill="url(#material-folder-intellij-open_light__b)" d="M118.8 65.1 55 2.5C53.6 1 51.6 0 49.3 0c-4.3 0-7.7 3.5-7.7 7.7 0 2.1.8 3.9 2.1 5.3.4.4.8.7 1.2 1l67.4 57.7c.8.7 1.8 1.2 3 1.3 2.6.1 4.7-1.8 4.9-4.4 0-1.3-.5-2.6-1.4-3.5z" transform="translate(10.126 8.976) scale(.11021)"/><path fill="url(#material-folder-intellij-open_light__c)" d="M57.1 59.5c-.1 0-39.4-31-40.2-31.5l-1.8-.9c-5.8-2.2-12.2.8-14.4 6.6-1.9 5.1.2 10.7 4.6 13.4.7.4 1.3.7 2 .9.4.2 45.4 18.8 45.4 18.8 1.8.8 3.9.3 5.1-1.2 1.5-1.9 1.2-4.6-.7-6.1z" transform="translate(10.126 8.976) scale(.11021)"/><path fill="url(#material-folder-intellij-open_light__d)" d="M49.3 0c-1.7 0-3.3.6-4.6 1.5L4.9 28.3c-.1.1-.2.1-.2.2h-.1c-1.7 1.2-3.1 3-3.9 5.1-2.2 5.8.8 12.3 6.6 14.4 3.6 1.4 7.5.7 10.4-1.4.7-.5 1.3-1 1.8-1.6l34.6-31.2c1.8-1.4 3-3.6 3-6.1 0-4.2-3.5-7.7-7.8-7.7z" transform="translate(10.126 8.976) scale(.11021)"/></svg>