<svg xmlns="http://www.w3.org/2000/svg" xml:space="preserve" fill-rule="evenodd" stroke-linejoin="round" stroke-miterlimit="1.414" clip-rule="evenodd" viewBox="0 0 24 24" class="svg material-folder-connection" width="16" height="16" aria-hidden="true"><path fill="#e57373" fill-rule="nonzero" d="M10 4H4c-1.11 0-2 .89-2 2v12c0 1.097.903 2 2 2h16c1.097 0 2-.903 2-2V8a2 2 0 0 0-2-2h-8l-2-2z" style="fill:#00acc1"/><path d="M23.043 12.103c.458.458.458 1.202 0 1.603l-1.603 1.603-4.465-4.465 1.603-1.603c.458-.458 1.202-.458 1.603 0l1.03 1.03 1.717-1.717.802.801-1.717 1.718 1.03 1.03m-3.32 3.32-.802-.801-1.602 1.603-1.202-1.203 1.602-1.602-.801-.802-1.603 1.603-.859-.801-1.602 1.602c-.458.458-.458 1.203 0 1.603l1.03 1.03-2.29 2.29.802.802 2.29-2.29 1.03 1.03c.458.458 1.202.458 1.603 0l1.602-1.602-.801-.802z" style="fill:#b2ebf2;stroke-width:.57244"/></svg>