<svg xmlns="http://www.w3.org/2000/svg" xml:space="preserve" stroke-linejoin="round" stroke-miterlimit="1.414" clip-rule="evenodd" viewBox="0 0 24 24" class="svg material-folder-contract-open" width="16" height="16" aria-hidden="true"><path fill="#e57373" d="M19 20H4a2 2 0 0 1-2-2V6c0-1.11.89-2 2-2h6l2 2h7c1.097 0 2 .903 2 2H4v10l2.14-8h17.07l-2.28 8.5c-.23.87-1.01 1.5-1.93 1.5z" style="fill:#448aff"/><path d="M18.116 15.74a.644.644 0 0 0 0 .94.667.667 0 0 0 .94 0 3.312 3.312 0 0 0 0-4.68l-2.343-2.344a3.312 3.312 0 0 0-4.68 0 3.312 3.312 0 0 0 0 4.68l.985.987a4.574 4.574 0 0 1 .265-1.602l-.31-.318a1.974 1.974 0 0 1 0-2.807 1.974 1.974 0 0 1 2.806 0l2.337 2.337a1.974 1.974 0 0 1 0 2.807m-1.867-2.807a.667.667 0 0 0-.94 0 3.312 3.312 0 0 0 0 4.68l2.344 2.344a3.312 3.312 0 0 0 4.68 0 3.312 3.312 0 0 0 0-4.68l-.986-.987a4.635 4.635 0 0 1-.265 1.609l.311.311a1.974 1.974 0 0 1 0 2.807 1.974 1.974 0 0 1-2.807 0l-2.337-2.337a1.974 1.974 0 0 1 0-2.807.644.644 0 0 0 0-.94z" style="fill:#bbdefb;stroke-width:.66202"/></svg>