<svg xmlns="http://www.w3.org/2000/svg" viewBox="0 0 24 24" class="svg material-silverstripe" width="16" height="16" aria-hidden="true"><g style="fill:#0288d1"><path d="M9.498 21.898a3.775 3.775 0 0 0 .982-5.247l-3.112 2.13a1.89 1.89 0 0 1-2.623-.495 1.891 1.891 0 0 1 .494-2.624l2.843-1.946 1.824-1.25a3.775 3.775 0 0 0 .983-5.248L7.777 9.353l-4.668 3.191-.006.006a5.659 5.659 0 0 0-1.47 7.871c1.757 2.581 5.284 3.24 7.865 1.477zm4.094-7.377c-.012.006-.018.012-.024.018l.024-.018a3.775 3.775 0 0 0-.982 5.247l3.111-2.13a1.88 1.88 0 0 1 2.624.495c.592.86.372 2.032-.488 2.624l-2.843 1.946-1.83 1.25a3.775 3.775 0 0 0-.983 5.248l3.112-2.13 4.667-3.196a5.665 5.665 0 0 0 1.477-7.871 5.643 5.643 0 0 0-7.865-1.483" class="material-silverstripe__st0" style="fill:#0288d1;stroke-width:.61015" transform="translate(1.259 -4.945) scale(.93056)"/></g></svg>