<svg xmlns="http://www.w3.org/2000/svg" xml:space="preserve" fill-rule="evenodd" stroke-linejoin="round" stroke-miterlimit="1.414" clip-rule="evenodd" viewBox="0 0 24 24" class="svg material-folder-fastlane" width="16" height="16" aria-hidden="true"><path fill="#e57373" fill-rule="nonzero" d="M10 4H4c-1.11 0-2 .89-2 2v12c0 1.097.903 2 2 2h16c1.097 0 2-.903 2-2V8a2 2 0 0 0-2-2h-8l-2-2z" style="fill:#1e88e5"/><g style="fill:#e3f2fd;stroke-miterlimit:1.4142;stroke-width:6.6527;stroke:#e3f2fd"><path d="M16.885 8.324a2.008 2.008 0 0 0-1.611 2.893l-2.256 1.685a.802.802 0 1 0 .363.49l2.793-2.052c-.368-.346-.56-.914-.396-1.428a1.357 1.357 0 0 1 2.648.389l.65.013a2.007 2.007 0 0 0-2.191-1.99zm.244 1.276a.805.805 0 1 0 .424 1.488l2.81 2.045c.22-.457.702-.813 1.243-.813a1.36 1.36 0 0 1 .431 2.65l.186.626a2.012 2.012 0 1 0-2.016-3.36l-2.295-1.644a.808.808 0 0 0-.783-.992zm-4.523 1.955a1.978 1.978 0 0 0-1.623.81 1.996 1.996 0 0 0 .447 2.787c.438.32.961.437 1.457.37l.89 2.66a.799.799 0 0 0 .05 1.25.8.8 0 0 0 1.119-.17.797.797 0 0 0-.18-1.114.804.804 0 0 0-.412-.152l-1.07-3.283c-.443.236-1.038.237-1.473-.08a1.35 1.35 0 0 1-.303-1.885c.35-.479.96-.657 1.498-.484l.215-.608c-.2-.067-.409-.1-.615-.101zm9.029 1.32a.802.802 0 0 0-.834 1.041.788.788 0 0 0 .244.361l-1.082 3.278c.5.066.984.414 1.149.924a1.35 1.35 0 0 1-.875 1.697 1.351 1.351 0 0 1-1.504-.479l-.537.366a2.002 2.002 0 0 0 2.24.728 1.997 1.997 0 0 0 1.293-2.512 1.981 1.981 0 0 0-.963-1.146l.86-2.668a.805.805 0 0 0 .7-1.041.797.797 0 0 0-.691-.549zM12.7 17.643a2 2 0 1 0 3.587 1.511l2.807-.027a.8.8 0 1 0-.004-.61l-3.455.009c.092.495-.086 1.065-.52 1.382a1.351 1.351 0 0 1-1.9-1.873z" style="fill:#e3f2fd;stroke-miterlimit:1.4142;stroke-width:.3382;stroke:#e3f2fd" transform="translate(.947 .717) scale(.95802)"/></g></svg>