<svg xmlns="http://www.w3.org/2000/svg" fill="none" viewBox="0 0 24 24" class="svg material-folder-buildkite" width="16" height="16" aria-hidden="true"><path fill="#4CAF50" d="M10 4H4c-1.11 0-2 .89-2 2v12c0 1.097.903 2 2 2h16c1.097 0 2-.903 2-2V8a2 2 0 0 0-2-2h-8l-2-2z"/><path fill="#C8E6C9" fill-rule="evenodd" d="M14.53 14.22v4.53L10 16.53V12l4.53 2.22zm4.575 2.31V12l4.485 2.22-4.485 2.31z" clip-rule="evenodd"/><path fill="#A5D6A7" fill-rule="evenodd" d="M14.53 14.22v4.53l4.575-2.22V12l-4.575 2.22zm4.575 2.31v4.53l4.485-2.31v-4.53l-4.485 2.31z" clip-rule="evenodd"/></svg>