<svg xmlns="http://www.w3.org/2000/svg" viewBox="0 0 24 24" class="svg material-lua" width="16" height="16" aria-hidden="true"><g transform="translate(-.203 -.102)"><circle cx="12.203" cy="12.102" r="10.322" fill="none" stroke="#42a5f5"/><path fill="#42a5f5" fill-rule="evenodd" d="M12.33 5.746a6.483 6.381 0 0 0-6.482 6.381 6.483 6.381 0 0 0 6.482 6.38 6.483 6.381 0 0 0 6.484-6.38 6.483 6.381 0 0 0-6.484-6.38zm1.86 1.916a2.329 2.292 0 0 1 2.33 2.293 2.329 2.292 0 0 1-2.33 2.291 2.329 2.292 0 0 1-2.329-2.29 2.329 2.292 0 0 1 2.328-2.294z"/><ellipse cx="19.631" cy="4.615" fill="#42a5f5" fill-rule="evenodd" rx="2.329" ry="2.292"/></g></svg>