<svg xmlns="http://www.w3.org/2000/svg" style="isolation:isolate" viewBox="0 0 24 24" class="svg material-sublime" width="16" height="16" aria-hidden="true"><defs><clipPath id="material-sublime__a"><path d="M0 0h24v24H0z"/></clipPath></defs><g clip-path="url(#material-sublime__a)"><path fill="#FFB74D" fill-rule="evenodd" d="M11.232 13.667 6.87 12.252a.343.343 0 0 1-.221-.301l-.042-3.352a.331.331 0 0 1 .216-.3l10.279-3.288c.122-.039.22.032.22.16v3.351a.34.34 0 0 1-.219.303l-4.241 1.414 4.311 1.346c.122.038.22.172.22.299v3.304a.343.343 0 0 1-.217.304L6.87 18.988c-.12.042-.218-.029-.219-.155l-.021-3.449a.333.333 0 0 1 .217-.3l4.385-1.417z"/></g></svg>