<svg xmlns="http://www.w3.org/2000/svg" xml:space="preserve" stroke-linejoin="round" stroke-miterlimit="1.414" clip-rule="evenodd" viewBox="0 0 24 24" class="svg material-folder-less-open" width="16" height="16" aria-hidden="true"><path fill="#e57373" d="M19 20H4a2 2 0 0 1-2-2V6c0-1.11.89-2 2-2h6l2 2h7c1.097 0 2 .903 2 2H4v10l2.14-8h17.07l-2.28 8.5c-.23.87-1.01 1.5-1.93 1.5z" style="fill:#0277bd"/><path d="M72.489 479.59v.026a837.12 837.12 0 0 0-6.327-.018c-7.537-.066-13.846 4.053-19.333 8.347-5.988 4.703-11.114 10.842-12.72 19.065-.915 4.822-.721 9.037-.721 13.248v33.184c0 11.717-4.36 20.424-10.274 26.123-3.332 3.3-10.442 6.313-18.53 9.037v14.99c7.168 1.976 14.068 4.65 17.895 8.047 6.335 5.535 10.902 13.5 10.902 23.904v38.754c0 12.875 3.071 22.682 12.007 29.41 8.936 6.722 19.35 10.066 31.244 10.391l7.959-.053v-19.324c-6.209-1.817-9.658-3.925-12.144-6.31-4.475-4.052-7.01-10.634-7.01-19.776v-31.292c-.17-10.643-1.887-18.968-5.763-24.992-3.876-6.01-11.44-11.281-22.695-15.822 12.421-5.69 20.755-13.108 25.005-22.26 2.504-5.442 3.454-12.781 3.454-22.011v-28.692c0-9.478 2.2-16.117 6.01-19.91 2.068-2.058 5.746-3.753 10.855-5.125l8.079.056V479.59H72.488v.001zm87.611 0v.026a837.12 837.12 0 0 1 6.327-.018c7.537-.066 13.846 4.053 19.333 8.347 5.988 4.703 11.114 10.842 12.72 19.065.915 4.822.721 9.037.721 13.248v33.184c0 11.717 4.36 20.424 10.274 26.123 3.332 3.3 10.442 6.313 18.53 9.037v14.99c-7.168 1.976-14.068 4.65-17.895 8.047-6.335 5.535-10.902 13.5-10.902 23.904v38.754c0 12.875-3.071 22.682-12.008 29.41-8.936 6.722-19.35 10.066-31.244 10.391l-7.959-.053v-19.324c6.209-1.817 9.658-3.925 12.144-6.31 4.475-4.052 7.01-10.634 7.01-19.776v-31.292c.171-10.643 1.887-18.968 5.763-24.992 3.876-6.01 11.44-11.282 22.695-15.822-12.42-5.69-20.755-13.108-25.005-22.26-2.504-5.442-3.454-12.781-3.454-22.011v-28.692c0-9.478-2.2-16.117-6.01-19.91-2.068-2.058-5.746-3.753-10.855-5.125l-8.078.056V479.59H160.1v.001z" style="fill:#b3e5fc" transform="matrix(.052 0 0 .052 11.856 -16.073)"/></svg>