<svg xmlns="http://www.w3.org/2000/svg" viewBox="0 0 24 24" class="svg material-ruby" width="16" height="16" aria-hidden="true"><path d="M18.041 3.177c2.24.382 2.879 1.919 2.843 3.527V6.67l-1.013 13.266-13.132.897h.008c-1.093-.044-3.518-.151-3.634-3.545l1.217-2.222 2.462 5.74 2.097-6.77-.045.009.018-.018 6.85 2.186L13.945 9.3l6.53-.409-5.144-4.212 2.71-1.51v.009M3.113 17.252v.017-.017M6.916 6.874c2.63-2.622 6.033-4.168 7.34-2.844 1.297 1.306-.072 4.523-2.702 7.135-2.666 2.613-6.015 4.248-7.322 2.933-1.306-1.324.036-4.612 2.675-7.224z" style="fill:#f44336;stroke-width:.88855"/></svg>