<svg xmlns="http://www.w3.org/2000/svg" xml:space="preserve" stroke-linejoin="round" stroke-miterlimit="1.414" clip-rule="evenodd" viewBox="0 0 24 24" class="svg material-folder-sass-open" width="16" height="16" aria-hidden="true"><path fill="#455A64" d="M19 20H4a2 2 0 0 1-2-2V6c0-1.11.89-2 2-2h6l2 2h7c1.097 0 2 .903 2 2H4v10l2.14-8h17.07l-2.28 8.5c-.23.87-1.01 1.5-1.93 1.5z" style="fill:#f06292"/><path d="M434.3 278.93c-9.3-36.49-69.8-48.48-127.06-28.14-34.08 12.11-70.96 31.11-97.49 55.92-31.54 29.5-36.57 55.17-34.49 65.9 7.31 37.85 59.18 62.6 80.5 80.95v.11c-6.29 3.09-52.3 26.38-63.07 50.19-11.36 25.12 1.81 43.14 10.53 45.57 27.02 7.52 54.74-6 69.65-28.23 14.38-21.45 13.18-49.14 6.93-62.92 8.62-2.27 18.67-3.29 31.44-1.8 36.04 4.21 43.11 26.71 41.76 36.13s-8.91 14.6-11.44 16.16-3.3 2.11-3.09 3.27c.31 1.69 1.48 1.63 3.63 1.26 2.97-.5 18.92-7.66 19.61-25.04.87-22.07-20.28-46.76-57.73-46.11-15.42.27-25.12 1.73-32.13 4.34-.52-.59-1.04-1.18-1.59-1.76-23.15-24.7-65.95-42.17-64.14-75.38.66-12.07 4.86-43.86 82.24-82.42 63.39-31.59 114.14-22.89 122.91-3.63 12.53 27.52-27.12 78.67-92.95 86.05-25.08 2.81-38.29-6.91-41.57-10.53-3.46-3.81-3.97-3.98-5.27-3.27-2.1 1.17-.77 4.53 0 6.54 1.97 5.12 10.03 14.19 23.78 18.7 12.1 3.97 41.54 6.15 77.16-7.62 39.88-15.45 71.03-58.37 61.88-94.24zM264.61 464.87c2.99 11.06 2.66 21.37-.43 30.7a49.428 49.428 0 0 1-2.46 6.08c-2.38 4.94-5.58 9.56-9.49 13.83-11.94 13.02-28.61 17.95-35.76 13.8-7.72-4.48-3.85-22.84 9.98-37.46 14.89-15.74 36.31-25.86 36.31-25.86l-.03-.06 1.88-1.03z" style="fill:#fce4ec;stroke-miterlimit:4;stroke-width:12.423;stroke:#fce4ec" transform="translate(5.344 -1.203) scale(.04037)"/></svg>