<svg xmlns="http://www.w3.org/2000/svg" viewBox="0 0 32 32" class="svg material-php_elephant" width="16" height="16" aria-hidden="true"><path fill="#0288d1" d="M11.416 21.358c-.141-.848-.565-1.555-1.414-1.838-.282-.141-.706-.424-.99-.565-.423-.141-.847-.283-1.13-.424s-.565 0-.848.283c-.142.282 0 .565.141.706.142.283.283.424.566.707.282.424.565.707.99 1.131.282.424.565.707.423 1.272-.141.99-.565 1.98-1.272 2.686-.141.141-.283.141-.283.141-.424 0-.99-.282-1.272-.565-.424-.424-.283-.848.141-1.13a.304.304 0 0 0 .283-.284c.283-.282.424-.565.283-.99-.141-.14-.141-.282-.283-.423-.565-.566-1.272-1.131-1.979-1.696-1.837-1.414-2.686-3.11-2.827-5.09-.141-2.261.424-4.381 1.555-6.36.424-.707.99-1.414 1.838-1.838.565-.283 1.13-.424 1.696-.565 1.555-.425 3.251-.707 4.947-.425 1.414.283 2.545.99 2.969 2.404.283.989.424 1.837.283 2.827-.142 1.979-1.697 3.675-3.534 4.24-.848.283-1.273.142-1.697-.565-.282-.424-.706-.99-.99-1.555v-.141c0-.142-.14-.142-.14-.283.14.848.282 1.696.706 2.403.283.424.566.707 1.131.707 1.838.141 3.251-.424 4.382-1.838 1.131-1.555 1.414-3.392 1.131-5.371 0-.424-.141-.707-.282-1.131 0-.283 0-.424.282-.566.142 0 .283 0 .283-.141 1.414-.283 2.968-.424 4.382-.283 1.696.142 3.251.566 4.665 1.555 2.262 1.414 3.675 3.534 4.382 6.079.141.424.141.706.141 1.13 0 .283-.141.283-.424.142-.282-.142-.424-.424-.565-.566s-.283-.424-.424-.565-.283-.141-.283 0-.141.283-.141.424c-.424 1.414-.99 2.686-1.98 3.675-.14.142-.282.424-.282.566 0 .565-.141 1.13 0 1.696.141 1.13.283 2.403.424 3.534.141.707-.141.99-.707 1.272-.424.141-.848.283-1.413.283h-2.262c0-.848 0-1.696-.707-2.12.141-.566.283-1.131.424-1.838.142-.566 0-.99-.283-1.414-.282-.424-.706-.424-1.13-.282-1.131.706-2.262.706-3.534.282-.566-.141-.99-.141-1.273.424-.282.566-.424 1.131-.424 1.697 0 .706.142 1.554.283 2.261 0 .424 0 .566-.424.707a6.48 6.48 0 0 1-2.827.141h-.141c0-.848 0-1.696-.99-2.12.566-.565.566-1.555.424-2.403zM5.62 18.107c.142-.142.283-.283.283-.566.141-.424-.283-1.13-.707-1.272-.282-.141-.424 0-.565.142-.424.424-.707.848-1.131 1.272 0 .141-.141.141-.141.282-.142.283 0 .566.282.566.142 0 .424 0 .566.141.565 0 .99-.141 1.413-.565zm0-4.665c0-.283-.282-.565-.565-.565s-.707.282-.565.706c0 .283.282.566.706.566.142-.142.424-.424.424-.707z"/></svg>