<svg xmlns="http://www.w3.org/2000/svg" xml:space="preserve" stroke-linejoin="round" stroke-miterlimit="1.414" clip-rule="evenodd" viewBox="0 0 24 24" class="svg material-folder-routes-open" width="16" height="16" aria-hidden="true"><path fill="#43a047" d="M19 20H4a2 2 0 0 1-2-2V6c0-1.11.89-2 2-2h6l2 2h7c1.097 0 2 .903 2 2H4v10l2.14-8h17.07l-2.28 8.5c-.23.87-1.01 1.5-1.93 1.5z"/><path fill="#c8e6c9" d="M11.373 9.095v5.92l2.09-2.09 2.088 2.438c.697.696.697 1.393.697 1.393v4.178h2.785v-4.875s0-.696-.369-1.393-1.024-1.392-1.024-1.392l-2.089-2.382 1.741-1.797m4.527 0-3.106 3.113.32.37s.648.696 1.024 1.392c.146.279.23.55.278.787l3.573-3.572"/></svg>