<svg xmlns="http://www.w3.org/2000/svg" xml:space="preserve" stroke-linejoin="round" stroke-miterlimit="1.414" clip-rule="evenodd" viewBox="0 0 24 24" class="svg material-folder-gulp-open" width="16" height="16" aria-hidden="true"><path fill="#ff5252" d="M19 20H4a2 2 0 0 1-2-2V6c0-1.11.89-2 2-2h6l2 2h7c1.097 0 2 .903 2 2H4v10l2.14-8h17.07l-2.28 8.5c-.23.87-1.01 1.5-1.93 1.5z"/><path fill="#ffcdd2" d="M14.27 17.241a457.81 457.81 0 0 1-.37-3.835c.001-.032-.174-.059-.389-.059h-.391V11.86h3.052V8.974l1.44-.866c.877-.527 1.522-.865 1.65-.865.307 0 .667.389.667.722 0 .146-.044.325-.098.399-.054.073-.556.407-1.116.743l-1.017.61-.022 1.071-.022 1.072h3.057v1.487h-.754l-.762 7.67h-4.552l-.373-3.776z"/></svg>