<svg xmlns="http://www.w3.org/2000/svg" xml:space="preserve" viewBox="0 0 144 152" class="svg material-heroku" width="16" height="16" aria-hidden="true"><path fill="#6963b9" d="M117.91 12.242H26.094c-6.338 0-11.477 5.14-11.477 11.477v104.566c0 6.338 5.14 11.477 11.477 11.477h91.814c6.338 0 11.477-5.14 11.477-11.477V23.72c0-6.338-5.14-11.477-11.477-11.477zm-74.6 108.392V95.13l14.346 12.752zm44.632 0v-38.08c-.062-2.977-1.495-6.552-7.97-6.552-12.966 0-27.51 6.521-27.654 6.586L43.31 86.67v-55.3h12.752v36.201c6.366-2.072 15.266-4.321 23.91-4.321 7.882 0 12.6 3.099 15.17 5.699 5.485 5.547 5.56 12.613 5.552 13.429v38.256zm3.188-68.542H78.378c5.012-6.575 8.158-13.495 9.564-20.722h12.752c-.86 7.243-3.797 14.187-9.564 20.722z"/></svg>