<svg xmlns="http://www.w3.org/2000/svg" xml:space="preserve" fill-rule="evenodd" stroke-linejoin="round" stroke-miterlimit="1.414" clip-rule="evenodd" viewBox="0 0 24 24" class="svg material-folder-unity" width="16" height="16" aria-hidden="true"><path fill="#1976d2" fill-rule="nonzero" d="M10 4H4c-1.11 0-2 .89-2 2v12c0 1.097.903 2 2 2h16c1.097 0 2-.903 2-2V8a2 2 0 0 0-2-2h-8l-2-2z"/><path fill="#bbdefb" d="M16.259 18.052h-1.775l-3.338-3.4 3.338-3.4h1.775l.89-1.537 4.618-1.183 1.271 4.583-.89 1.537.89 1.537-1.271 4.583-4.617-1.183-.891-1.537m.095-.17 3.488.938-2.012-3.488h-4.026l2.55 2.55m4.672.258.938-3.488-.938-3.488-2.02 3.488 2.02 3.488m-4.672-6.718-2.55 2.55h4.026l2.013-3.488z"/></svg>