<svg xmlns="http://www.w3.org/2000/svg" version="1.0" viewBox="0 0 24 24" class="svg material-jsconfig" width="16" height="16" aria-hidden="true"><path fill="#757575" d="M13 9h5.5L13 3.5V9M6 2h8l6 6v12a2 2 0 0 1-2 2H6a2 2 0 0 1-2-2V4c0-1.11.89-2 2-2m9 16v-2H6v2h9m3-4v-2H6v2h12z"/><path fill="#ffca28" d="M10.055 10.14h13v13h-13z"/><path d="M17.681 18.143a1.513 1.515 0 0 0 1.372.845c.576 0 .944-.288.944-.687 0-.475-.378-.645-1.012-.923l-.347-.148c-1.003-.428-1.67-.964-1.67-2.096 0-1.041.794-1.836 2.037-1.836a2.055 2.055 0 0 1 1.978 1.116l-1.082.695a.945.945 0 0 0-.894-.596.604.604 0 0 0-.665.543q-.002.027-.002.055c0 .417.257.585.852.844l.347.149c1.183.506 1.85 1.022 1.85 2.183 0 1.253-.984 1.938-2.305 1.938a2.67 2.67 0 0 1-2.529-1.423zm-4.91.122c.218.387.418.715.893.715.458 0 .746-.18.746-.874V13.38h1.39v4.745c0 1.44-.845 2.096-2.075 2.096a2.158 2.158 0 0 1-2.086-1.27z"/></svg>