<svg xmlns="http://www.w3.org/2000/svg" viewBox="0 0 500 500" class="svg material-gitlab" width="16" height="16" aria-hidden="true"><path fill="#e53935" d="m449.14 208.669-.555-1.482L392.51 60.92a14.547 14.547 0 0 0-5.767-6.956 14.812 14.812 0 0 0-22.244 8.464l-37.85 115.877H173.372l-37.85-115.877a14.838 14.838 0 0 0-22.244-8.464 14.547 14.547 0 0 0-5.766 6.956L51.464 207.214l-.582 1.455a104.107 104.107 0 0 0 34.544 120.32l.212.16.476.37 85.301 63.93 42.32 31.977 25.71 19.441a17.378 17.378 0 0 0 20.948 0l25.71-19.44 42.32-31.979 85.909-64.3.238-.185a104.107 104.107 0 0 0 34.57-120.294z"/><path fill="#ef6c00" d="m449.14 208.669-.555-1.482a189.118 189.118 0 0 0-75.383 33.91L250.077 334.2l78.398 59.248 85.91-64.3.238-.185A104.107 104.107 0 0 0 449.14 208.67z"/><path fill="#f9a825" d="m171.415 393.448 42.32 31.978 25.71 19.441a17.378 17.378 0 0 0 20.948 0l25.71-19.44 42.32-31.979-78.399-59.248z"/><path fill="#ef6c00" d="M126.82 241.096a188.959 188.959 0 0 0-75.356-33.882l-.582 1.455a104.107 104.107 0 0 0 34.544 120.32l.212.16.476.37 85.301 63.93 78.45-59.249z"/></svg>