<svg xmlns="http://www.w3.org/2000/svg" viewBox="0 0 512 512" class="svg material-istanbul" width="16" height="16" aria-hidden="true"><path d="m455.53 83.986-11.783 65.043c-3.209 1.945-3.432 5.288-1.061 6.39h24.253c4.34.482 5.615-6.452.6-5.59zm-12.513 72.299v52.416l-7.432.05c-.964 5.66.85 11.824 4.871 14.493l-.166 124.36c-4.84 1.125-6.397 6.78-.681 8.206l-4.328 38.45-4.58.002v-39.26h-13.144l-.314-79.706c4.358-3.651 2.899-7.653 3.293-11.87h-4.21l-.33-36.048c1.919-1.433 3.1-5.216-.22-5.554l-8.122-44.691c-.713-.971-1.353-.573-1.757 0l-7.474 44.587c-4.072 1.284-3.427 3.075-.95 4.466l.188 37.713s-3.624.034-4.959.1c-.806 6.798 2.805 10.347 2.805 10.347l-.31 53.933-13.674.157v-7.432h-9.453l.052-22.149h2.898s.313-2.19-.685-2.221c-.552-.017-1.278-.012-2.208-.014l.06-25.293-17.313.08v-3.695h-6.098c-14.785-30.857-44.131-50.285-82.68-52.758h-.054l.034-5.635c-.477-2.268-1.488-4.406-4.035-6.674 0 0-.015-.796 0-1.985.195-.035.931-.012 1.214-.526l-.08-2.227s-.14-.893-1.206-1.195c.543-3.73-.762-3.659-.762-3.659l.067-1.435c.92-.907 1.223-2.738-.172-2.705 0 0 .048-4.088-.6-4.25-.648-.162-.9 3.43-.9 3.43-.998.593-1.393 2.478-.251 3.634l-.308 4.923c-.993 1.08-1.496 2.376-.204 3.76l.129 1.935c-2.315.884-4.256 5.013-4.365 6.771l-.048 5.683c-34.286 2.215-68.12 20.402-82.092 52.837l-6.473.048.024 3.728-17.885.055v25.325c-.754-.006-1.335-.018-1.912 0-.998.031-1.373 2.247-1.373 2.247h3.285v22.35l-8.385-.118v7.144l-23.741-.095-.492-52.688c3.397-4.315 3.097-6.793 3.065-12.013h-3.835l-.584-37.795c3.166-.972 3.37-4.75.065-5.312l-8.545-44.105c-.086-.368-.267-.732-.542-.675-.165.035-.364.221-.597.647l-7.645 44.38c-4.678 2.112-2.936 4.001-1.24 5.109l.083 37.75h-5.284c.045 3.495-1.297 7.772 3.53 11.867l.158 79.496H79.786l.274 39.38-4.613.003-3.64-38.807c6.447-1.727 3.907-6.486-.205-7.998 0 0 .24-119.26-.12-122.98-.359-3.715 4.433-4.195 4.433-12.107.94-5.473-4.698-3.855-7.106-3.968v-52.1h-25.24v52.112c-2.668-.038-4.685-.05-5.049.002-1.678.24-2.038 2.996-1.44 7.551.6 4.555 4.14 7.523 4.14 7.523l.647 121.23c.297 4.083-1.291 3.546-2.867 3.935-3.106.498-2.338 6.47 1.797 6.47.66 5.754-7.91 72.399-7.91 72.399l446.22.385-8.474-72.55c7.005-.828 4.182-7.823-1.035-7.704l-.113-124.01c2.219-1.21 6.71-7.235 4.425-15.251l-6.515.044v-52.254zm-184.67 117.54c2.29.067 4.513 1.657 5.179 4.476v16.378H252.42l.357-16.202c.925-3.266 3.28-4.72 5.57-4.653zm-39.291.022c2.45-.047 4.998 1.817 5.683 5.008v15.821l-10.588-.045.288-16.93c.866-2.623 2.712-3.817 4.617-3.853zm102.95.087c1.97.18 3.75 1.868 4.264 4.891v15.956h-9.643l-.032-16.704c1.279-2.998 3.44-4.323 5.411-4.142zm-50.463.004c2.3.098 4.506 1.654 5.115 4.49v16.32l-10.943-.046.143-16.503c.99-2.997 3.385-4.358 5.685-4.26zm-64.88.016c2.204-.116 4.511 1.387 5.26 4.133v16.593h-9.722l.286-17.341c.809-2.227 2.462-3.295 4.176-3.385zm150.05.028c1.692.123 3.362 1.534 4.355 4.8l-.08 4.609c-6.404-.08-6.113.998-9.34 3.196l-.168-7.9c.848-2.892 3.058-4.863 5.233-4.705zm-162.29.022c2.204-.116 4.511 1.387 5.26 4.133v16.595h-9.722l.286-17.343c.809-2.227 2.462-3.295 4.176-3.385zm50.326 0c2.372-.116 4.792 1.387 5.18 4.133v16.595h-9.936l.288-17.343c.81-2.227 2.623-3.295 4.468-3.385zm38.839 0c2.318-.116 4.744 1.387 5.532 4.133v16.595h-10.225l.302-17.343c.851-2.227 2.588-3.295 4.39-3.385zm49.681.031c2.207-.093 4.437 1.435 4.826 4.18v16.596l-9.34-.08.286-17.342c.81-2.227 2.512-3.28 4.228-3.353zm-161.8.012c1.9.137 3.683 1.676 4.474 4.413l.087 16.444h-3.344c-.27-2.142-.849-7.58-4.528-8.398-.24-1.062-1.236-1.68-1.88-2.114l.024-6.343c1.252-2.872 3.267-4.138 5.167-4.001zm11.011.006c2.204-.115 4.511 1.388 5.26 4.133v16.595h-9.722l.288-17.34c.809-2.227 2.46-3.297 4.174-3.387zm48.784 0c2.204-.115 4.511 1.388 5.26 4.133v16.595h-9.722l.288-17.34c.809-2.227 2.46-3.297 4.174-3.387zm113.53.04c2.134-.13 4.23 1.47 5.19 3.956l.025 10.407c-.645.435-1.72 2.048-1.735 4.735-.709.538-1.36.916-1.35 1.713h-6.668V277.93c1.194-2.589 2.878-3.736 4.538-3.837zm-47.549.032c1.981.103 3.779 1.68 4.365 4.52l-.24 16.035h-9.723l.127-16.224c1.324-3.063 3.49-4.435 5.471-4.332zm-137.41.123c1.891-.127 3.805.83 4.577 3.15v6.442h-9.117l.088-6.235c.69-2.017 2.56-3.23 4.452-3.357zm149.47.074c2.235.01 4.475 1.539 4.885 4.535v15.82l-9.742-.046v-15.733c.39-3.077 2.622-4.586 4.857-4.576zm-136.23 24.745h3.372v22.063h-3.372zm170.74 0h3.373v22.063h-3.373zm-184.15 13.778h2.378v15.205h-2.378zm198.94 0h2.38v15.205h-2.38zm-175.74 8.694h2.682v98.544h-2.682zm151.75.004h3.343v98.534h-3.343zm-75.589 17.262c3.923-.08 7.87 2.477 7.978 7.908v25.114H251.27l-.088-25.115c.02-5.113 3.92-7.829 7.843-7.908zm-19.29 11.146c2.942-.025 5.9 1.897 5.983 5.91v15.554h-11.864v-15.69c.014-3.777 2.94-5.75 5.881-5.774zm38.62 0c2.942-.025 5.9 1.897 5.983 5.91v15.554h-11.864v-15.69c.014-3.777 2.94-5.75 5.881-5.774zm-118.69.999h2.39v7.853h-2.39zm198.94 0h2.39v7.853h-2.39zm-198.91 29.184h2.388v8.144h-2.388zm198.94 0h2.39v8.144h-2.39zm-158.72 4.19c2.54-.024 5.094 1.898 5.165 5.912v15.56H194.84v-15.695c.012-3.779 2.536-5.752 5.076-5.777zm19.951.25c2.54-.024 5.092 1.898 5.163 5.912v15.56h-10.241v-15.695c.012-3.779 2.538-5.752 5.078-5.777zm19.733.127c2.756-.024 5.527 1.899 5.604 5.912v15.559H234.09v-15.694c.013-3.778 2.754-5.752 5.51-5.777zm19.699 0c2.756-.024 5.527 1.899 5.604 5.912v15.559h-11.114v-15.694c.013-3.778 2.754-5.752 5.51-5.777zm19.197 0c2.756-.024 5.529 1.899 5.606 5.912v15.559h-11.116v-15.694c.013-3.778 2.754-5.752 5.51-5.777zm20.327 0c2.756-.024 5.529 1.899 5.606 5.912v15.559h-11.116v-15.694c.013-3.778 2.754-5.752 5.51-5.777zm19.548 0c2.756-.024 5.529 1.899 5.606 5.912v15.559H312.86v-15.694c.013-3.778 2.754-5.752 5.51-5.777zM56.941 85.121l-11.783 64.213c-3.209 1.92-3.432 5.22-1.061 6.31H68.35c4.34.475 5.423-6.37.407-6.288z" style="fill:#fdd835;stroke-width:1.0163"/></svg>