<svg xmlns="http://www.w3.org/2000/svg" viewBox="0 0 16 16" class="svg material-godot-assets" width="16" height="16" aria-hidden="true"><g fill="#66bb6a"><path d="M6.651 1.75a7.521 7.521 0 0 0-1.766.604c.014.497.045.972.11 1.454-.218.14-.448.26-.651.423-.208.16-.419.312-.607.498a11.404 11.404 0 0 0-1.179-.686c-.439.473-.85.985-1.187 1.557.253.409.517.792.802 1.156h.008v3.512H2.2l2.152.208a.232.232 0 0 1 .21.215l.066.95 1.878.133.13-.877a.232.232 0 0 1 .229-.198h2.27c.115 0 .213.085.23.198l.13.877 1.877-.133.067-.95a.233.233 0 0 1 .209-.215l2.151-.207.02-.001V6.757h.008c.285-.364.55-.747.802-1.156a9.04 9.04 0 0 0-1.188-1.557c-.408.205-.804.438-1.179.685-.187-.186-.398-.339-.606-.498-.203-.163-.432-.283-.65-.423.064-.483.096-.958.11-1.454a7.572 7.572 0 0 0-1.767-.605 12.5 12.5 0 0 0-.657 1.278 4.418 4.418 0 0 0-.687-.055h-.01a4.408 4.408 0 0 0-.687.055 12.5 12.5 0 0 0-.657-1.278zM4.95 6.885a1.297 1.297 0 1 1 0 2.594 1.297 1.297 0 0 1 0-2.594zm6.102 0a1.297 1.297 0 1 1 0 2.595 1.297 1.297 0 0 1 0-2.595zM8 7.644c.231 0 .418.17.418.38v1.194c0 .21-.188.38-.418.38-.231 0-.418-.17-.418-.38V8.024c0-.21.187-.38.418-.38z"/><path d="m11.886 10.92-.066.955a.231.231 0 0 1-.215.215l-2.292.163h-.018a.232.232 0 0 1-.229-.197l-.13-.893H7.064l-.131.893a.231.231 0 0 1-.247.197l-2.292-.164a.233.233 0 0 1-.215-.215l-.067-.956-1.935-.186.004.48c0 2.045 2.593 3.027 5.814 3.039h.008c3.222-.012 5.814-.994 5.814-3.038l.004-.481z"/></g></svg>