<svg xmlns="http://www.w3.org/2000/svg" viewBox="0 0 24 24" class="svg material-makefile" width="16" height="16" aria-hidden="true"><path d="M3.403 2.47a2.06 2.06 0 0 0-2.06 2.06v12.364a2.06 2.06 0 0 0 2.06 2.06h7.983l1.758 1.654a.31.31 0 0 0 .399.02l1.27-1.024c.388.148.768.227 1.166.266l.687 1.489a.305.305 0 0 0 .362.157l2.334-.704a.308.308 0 0 0 .215-.335l-.245-1.62c.151-.125.296-.255.434-.402.138-.147.262-.307.387-.475l1.62.157a.31.31 0 0 0 .321-.235l.554-2.374a.3.3 0 0 0-.18-.353l-1.525-.595a4.416 4.416 0 0 0-.342-1.141l.942-1.334a.31.31 0 0 0-.046-.397l-1.61-1.509V4.531a2.06 2.06 0 0 0-2.06-2.06zm0 4.121h14.423v4.383c-.31-.1-.62-.168-.94-.204l-.69-1.483a.301.301 0 0 0-.364-.156l-2.334.704a.301.301 0 0 0-.215.334l.26 1.606c-.16.134-.312.27-.45.416a4.743 4.743 0 0 0-.374.46l-1.631-.142a.3.3 0 0 0-.32.235l-.556 2.375a.306.306 0 0 0 .18.352l1.529.59c.046.285.123.56.221.833H3.403zm12.991 6.596a2.136 2.136 0 0 1 1.497.578 2.136 2.136 0 0 1 .097 3.02 2.136 2.136 0 0 1-3.018.094 2.136 2.136 0 0 1-.097-3.018 2.136 2.136 0 0 1 1.521-.674z" style="fill:#ef5350;stroke-width:1.0302"/></svg>