<svg xmlns="http://www.w3.org/2000/svg" viewBox="0 0 100 100" class="svg material-rescript-interface" width="16" height="16" aria-hidden="true"><path fill="#ef5350" d="M35.781 10.461c-10.552 0-15.829.001-19.525 2.691a13.867 13.867 0 0 0-3.103 3.106c-2.692 3.695-2.692 8.97-2.692 19.537v28.408c0 10.552 0 15.824 2.69 19.523a14.201 14.201 0 0 0 3.105 3.121c3.695 2.691 8.973 2.691 19.525 2.691h28.422c10.552 0 15.824 0 19.523-2.691a14.578 14.578 0 0 0 3.121-3.121c2.692-3.694 2.692-8.97 2.692-19.523V35.795c-.004-10.567-.004-15.842-2.692-19.537a14.201 14.201 0 0 0-3.12-3.106c-3.695-2.69-8.97-2.691-19.524-2.691H35.781zm1.582 4.406h25.258c9.378 0 14.065-.001 17.348 2.389a12.619 12.619 0 0 1 2.772 2.76c2.388 3.283 2.388 7.973 2.392 17.363V62.62c0 9.377 0 14.065-2.392 17.348a12.954 12.954 0 0 1-2.772 2.771c-3.287 2.391-7.971 2.393-17.348 2.393H37.363c-9.377 0-14.064-.002-17.348-2.393a12.619 12.619 0 0 1-2.76-2.771c-2.39-3.287-2.388-7.972-2.388-17.348V37.379c0-9.39-.003-14.08 2.388-17.363a12.322 12.322 0 0 1 2.76-2.76c3.284-2.39 7.971-2.389 17.348-2.389z"/><path fill="#ef5350" d="M39.639 29.643c-2.976 0-4.474 0-5.607.574a5.365 5.365 0 0 0-2.33 2.33c-.576 1.135-.577 2.631-.577 5.621v26.078c0 2.473.002 3.725.405 4.702a5.318 5.318 0 0 0 2.875 2.875c.976.402 2.228.402 4.7.402 2.489 0 3.725 0 4.702-.402a5.318 5.318 0 0 0 2.875-2.877c.402-.976.402-2.227.402-4.7V29.642H39.64zm24.412.313a9.388 9.388 0 0 0 0 18.774h.012a9.381 9.381 0 0 0 9.375-9.386 9.388 9.388 0 0 0-9.387-9.389z"/></svg>