<svg xmlns="http://www.w3.org/2000/svg" viewBox="0 0 300 300" class="svg material-ngrx-selectors" width="16" height="16" aria-hidden="true"><path fill="#9ccc65" d="M150 27.324 35.85 68.006l17.303 151.09 96.843 53.586 96.843-53.586 17.303-151.09zm-23.719 38.349c4.346-.075 9.04 1.316 14.265 4.131 2.3 1.24 9.235 2.994 15.407 3.889 21.936 3.18 47.975 19.934 56.21 36.186 5.667 11.183 4.508 17.209-4.18 21.702-7.492 3.874-22.822 2-45.08-5.517l-18.785-6.343-6.683 2.552c-9.683 3.698-19.366 12.877-23.33 22.09-2.858 6.645-3.293 9.768-2.77 20.705.523 10.955 1.315 14.12 5.2 20.997 4.423 7.829 14.576 17.818 16.331 16.064.473-.473-.574-3.648-2.308-7.048-1.735-3.4-2.744-6.825-2.26-7.606.482-.781 5.054 2.123 10.157 6.44 11.35 9.6 24.608 15.74 36.77 17.01 9.985 1.045 12.266-.814 4.787-3.912-2.41-.998-5.544-3.088-6.95-4.641-2.907-3.212-3.072-3.12 9.356-5.906 7.736-1.733 23.026-9.849 23.937-12.71.29-.91-2.195-1.296-6.27-.972-3.706.295-6.732-.087-6.732-.85 0-.76 3.032-4.523 6.732-8.385 13.883-14.489 18.62-25.32 20.098-45.906l1.02-14.217 3.257 6.756c3.601 7.452 4.265 18.202 1.701 27.437-2.141 7.711-.712 8.564 3.208 1.92 4.845-8.212 6.39-6.905 5.54 4.666-.924 12.587-5.243 22.017-14.993 32.686-7.95 8.699-7.001 10.254 2.624 4.326 9.273-5.711 10.511-4.815 5.736 4.155-9.031 16.964-28.122 31.35-47.948 36.161-12.016 2.917-20.537 3.461-31.544 2.018-28.78-3.775-56.001-23.157-68.993-49.114-3.378-6.748-8.154-14.994-10.62-18.348-5.092-6.924-5.529-10.038-2.09-15.286 1.715-2.618 2.116-5.307 1.41-9.308-3.273-18.531-3.167-19.11 4.276-26.659 6.468-6.56 6.878-7.44 6.878-15.092 0-6.637.671-8.813 3.67-11.811 2.02-2.02 5.23-3.7 7.12-3.718 5.49-.05 14.97-5.135 20.584-11.033 4.687-4.927 9.674-7.417 15.262-7.51z" style="fill:#ff6e40"/></svg>