<svg xmlns="http://www.w3.org/2000/svg" stroke-linejoin="round" stroke-miterlimit="1.414" clip-rule="evenodd" viewBox="0 0 24 24" class="svg material-folder-meta-open" width="16" height="16" aria-hidden="true"><path fill="#7CB342" d="M19 20H4a2 2 0 0 1-2-2V6c0-1.11.89-2 2-2h6l2 2h7c1.097 0 2 .903 2 2H4v10l2.14-8h17.07l-2.28 8.5c-.23.87-1.01 1.5-1.93 1.5z"/><path d="M13.313 11.766h-1.122v7.855c0 .618.505 1.123 1.122 1.123h7.855V19.62h-7.855zm8.978-2.244h-6.734c-.617 0-1.122.505-1.122 1.122v6.733c0 .617.505 1.122 1.122 1.122h6.734c.617 0 1.122-.505 1.122-1.122v-6.733c0-.617-.505-1.122-1.122-1.122zm-.561 5.05h-5.611v-1.123h5.61zm-2.245 2.244H16.12v-1.122h3.366zm2.245-4.489h-5.611v-1.122h5.61z" style="fill:#dcedc8;stroke-width:1.0202"/></svg>