<svg xmlns="http://www.w3.org/2000/svg" xml:space="preserve" fill-rule="evenodd" stroke-linejoin="round" stroke-miterlimit="1.414" clip-rule="evenodd" viewBox="0 0 24 24" class="svg material-folder-mjml" width="16" height="16" aria-hidden="true"><path fill="#ff5722" fill-rule="nonzero" d="M10 4H4c-1.11 0-2 .89-2 2v12c0 1.097.903 2 2 2h16c1.097 0 2-.903 2-2V8a2 2 0 0 0-2-2h-8l-2-2z"/><path fill="#ffccbc" d="M12.352 8.996a1.496 1.496 0 1 0 0 2.99h5.91a1.496 1.496 0 0 0 0-2.99h-5.91zm9.768 0a1.527 1.496 0 0 0-1.528 1.494 1.527 1.496 0 0 0 1.528 1.496 1.527 1.496 0 0 0 1.525-1.496 1.527 1.496 0 0 0-1.525-1.494zm-9.74 4.434c-.846 0-1.525.681-1.525 1.527 0 .835.68 1.517 1.525 1.527.846 0 1.528-.681 1.528-1.527 0-.846-.682-1.527-1.528-1.527zm3.694.031a1.5 1.5 0 0 0 .207 2.992h6.044a1.5 1.5 0 0 0-.205-2.992h-6.045zm-3.723 4.303a1.496 1.496 0 1 0 0 2.99h5.91a1.496 1.496 0 0 0 0-2.99h-5.91zm9.768 0a1.527 1.496 0 0 0-1.528 1.494 1.527 1.496 0 0 0 1.528 1.496 1.527 1.496 0 0 0 1.525-1.496 1.527 1.496 0 0 0-1.525-1.494z"/></svg>