<svg xmlns="http://www.w3.org/2000/svg" xml:space="preserve" stroke-linejoin="round" stroke-miterlimit="1.414" clip-rule="evenodd" viewBox="0 0 24 24" class="svg material-folder-bower-open" width="16" height="16" aria-hidden="true"><path fill="#8d6e63" d="M19 20H4a2 2 0 0 1-2-2V6c0-1.11.89-2 2-2h6l2 2h7c1.097 0 2 .903 2 2H4v10l2.14-8h17.07l-2.28 8.5c-.23.87-1.01 1.5-1.93 1.5z"/><path fill="#543729" d="M23.64 15.288c-.77-.74-4.62-1.202-5.834-1.336.059-.139.109-.283.15-.43a4.86 4.86 0 0 1 .53-.197c.022.067.128.321.188.442 2.442.067 2.568-1.815 2.667-2.33.097-.505.092-.992.93-1.882-1.248-.364-3.043.563-3.644 1.943a3.75 3.75 0 0 0-.676-.185c-.16-.648-.996-2.451-3.189-2.451-2.776 0-5.802 2.29-5.802 6.167 0 3.26 2.225 6.116 3.482 6.116.55 0 1.021-.411 1.132-.78.093.253.378 1.038.472 1.238.139.296.779.552 1.059.245.36.2 1.021.32 1.382-.213.693.147 1.307-.267 1.32-.76.34-.019.508-.497.433-.878-.054-.28-.64-1.286-.868-1.633.452.368 1.597.472 1.736 0 .729.572 1.865.272 1.955-.193.885.23 1.901-.275 1.734-.887 1.423-.099 1.24-1.613.842-1.996z"/><path fill="#00acee" d="M19.678 12.06c.306-.609.691-1.272 1.177-1.683-.535.216-1.063.86-1.376 1.55a4.82 4.82 0 0 0-.484-.27c.436-.931 1.449-1.708 2.565-1.769-.748.678-.482 2.087-1.097 2.834a8.052 8.052 0 0 0-.785-.663zm-.484.99c0-.024.01-.203.026-.285a2.585 2.585 0 0 0-.449-.06c-.01.175.074.472.156.65.568-.011.978-.181 1.22-.338-.206-.095-.556-.18-.823-.232-.03.062-.103.219-.13.264z"/><g stroke-width=".973" transform="translate(8.75 8.632) scale(.03326)"><path fill="#2baf2b" d="M250.54 277.39c.004.024.015.057.018.082-2.165-4.657-4.463-10.314-7.208-17.708 10.688 15.557 44.184 7.533 42.427-6.407 16.395 12.336 50.143-2.055 42.471-19.353 16.423 7.653 35.168-7.745 30.964-14.455 28 5.4 54.832 10.783 63.256 12.938-5.595 9.123-18.339 15.566-37.549 11.089 10.38 14.14-9.773 31.105-37.844 21.76 6.18 13.883-18.814 26.38-47.22 11.91.361 13.889-35.24 15.488-49.315.143zm55.543-70.194c32.497 2.495 86.238 7.34 119.51 11.997-2.102-10.828-7.844-13.921-25.905-18.772-19.425 2.072-68.706 6.913-93.604 6.776z"/><path fill="#ffcc2f" d="M285.78 253.36c16.395 12.336 50.143-2.055 42.471-19.353 16.423 7.653 35.168-7.745 30.964-14.455-33.103-6.383-67.84-12.788-75.719-13.908 4.78.254 12.702.797 22.59 1.556 24.899.137 74.18-4.704 93.604-6.775-31.452-7.975-95.666-19.613-140.01-22.48-2.055 3.003-5.833 8.097-12.413 13.51-19.403 41.053-54.557 68.34-93.454 68.34-11.335 0-24.018-1.912-38.233-6.456-8.865 9.497-46.661 16.694-77.329 1.641 24.326 56.961 80.74 94.984 143.19 94.984 52.591 0 75.912-53.704 70.808-67.914-1.238-3.45-6.145-14.889-8.891-22.283 10.689 15.556 44.185 7.532 42.429-6.408z"/><path fill="#cecece" d="M253.91 145.27c4.644-2.526 20.69-12.253 35.981-15.908a67.843 67.843 0 0 1-.536-5.12c-10.032 2.403-28.945 10.51-39.784-.661 22.866 6.9 34.283-6.149 51.09-6.149 10.014 0 24.305 2.798 35.57 7.22-9.061-8.37-38.772-33.63-75.558-33.717-8.213 9.957-17.09 31.526-6.764 54.334z"/><path fill="#ef5734" d="M115.58 253.33c14.215 4.544 26.898 6.457 38.233 6.457 38.896 0 74.05-27.29 93.454-68.341-14.351 11.978-39.291 22.228-78.241 22.228 34.694-7.866 64.56-25.156 79.753-50.427-10.68-16.998-22.263-54.603 7.07-84.33-4.512-14.497-26.475-52.766-75.095-52.766-84.85 0-155.17 71.001-155.17 166.15 0 22.525 4.547 43.65 12.67 62.664 30.666 15.054 68.462 7.858 77.327-1.64z"/><path fill="#ffcc2f" d="M141.03 108.45c0 21.644 17.546 39.191 39.19 39.191s39.192-17.548 39.192-39.191c0-21.644-17.548-39.191-39.192-39.191s-39.19 17.547-39.19 39.191z"/><path fill="#543729" d="M156.76 108.45c0 12.958 10.507 23.463 23.463 23.463 12.96 0 23.464-10.506 23.464-23.463 0-12.959-10.504-23.464-23.464-23.464-12.957 0-23.463 10.506-23.463 23.464z"/><ellipse cx="180.22" cy="98.044" fill="#fff" rx="13.673" ry="8.501"/></g></svg>