<svg xmlns="http://www.w3.org/2000/svg" viewBox="0 0 144 144" class="svg material-rust" width="16" height="16" aria-hidden="true"><path fill="#ff7043" d="M68.252 26.207a3.561 3.561 0 0 1 7.123 0 3.561 3.561 0 0 1-7.123 0M25.766 58.452a3.561 3.561 0 0 1 7.123 0 3.561 3.561 0 0 1-7.123 0m84.97.166a3.561 3.561 0 0 1 7.123 0 3.561 3.561 0 0 1-7.123 0m-74.661 4.88a3.252 3.252 0 0 0 1.651-4.29l-1.58-3.574h6.214v28.01H29.823a43.847 43.847 0 0 1-1.42-16.738zm25.994.688V55.93h14.798c.764 0 5.397.883 5.397 4.347 0 2.877-3.553 3.908-6.475 3.908zm-20.203 44.452a3.561 3.561 0 0 1 7.123 0 3.561 3.561 0 0 1-7.123 0m52.769.166a3.561 3.561 0 0 1 7.123 0 3.561 3.561 0 0 1-7.123 0m1.101-8.076a3.246 3.246 0 0 0-3.856 2.498l-1.787 8.342a43.847 43.847 0 0 1-36.566-.175l-1.787-8.342a3.246 3.246 0 0 0-3.854-2.497l-7.365 1.581a43.847 43.847 0 0 1-3.808-4.488h35.834c.406 0 .676-.074.676-.443V84.528c0-.369-.27-.442-.676-.442h-10.48v-8.035h11.335c1.035 0 5.532.296 6.97 6.045.45 1.768 1.44 7.519 2.116 9.36.674 2.065 3.417 6.19 6.34 6.19h18.501a43.847 43.847 0 0 1-4.06 4.7zm19.898-33.468a43.847 43.847 0 0 1 .093 7.612h-4.499c-.45 0-.631.296-.631.737v2.066c0 4.863-2.742 5.92-5.145 6.19-2.288.258-4.825-.958-5.138-2.358-1.35-7.593-3.6-9.214-7.152-12.016 4.409-2.8 8.996-6.93 8.996-12.457 0-5.97-4.092-9.729-6.881-11.572-3.914-2.58-8.246-3.096-9.415-3.096H39.336A43.847 43.847 0 0 1 63.867 28.52l5.484 5.753a3.243 3.243 0 0 0 4.59.105l6.137-5.869a43.847 43.847 0 0 1 30.017 21.38l-4.201 9.487a3.256 3.256 0 0 0 1.652 4.29zm10.477.154-.143-1.467 4.327-4.036c.88-.82.55-2.472-.574-2.891l-5.532-2.068-.433-1.428 3.45-4.792c.704-.974.058-2.53-1.127-2.724l-5.833-.949-.7-1.31 2.45-5.38c.502-1.095-.43-2.496-1.636-2.45l-5.92.206-.935-1.135 1.36-5.766c.275-1.17-.913-2.36-2.084-2.085l-5.765 1.359-1.136-.935.207-5.92c.046-1.198-1.357-2.135-2.45-1.637l-5.379 2.452-1.31-.703-.95-5.833c-.193-1.183-1.75-1.83-2.723-1.128l-4.796 3.45-1.425-.432-2.068-5.532c-.42-1.127-2.072-1.452-2.89-.576l-4.036 4.33-1.467-.143-3.117-5.036c-.63-1.02-2.318-1.02-2.946 0l-3.117 5.036-1.467.143-4.037-4.33c-.819-.876-2.47-.551-2.89.576l-2.069 5.532-1.426.432-4.795-3.45c-.974-.703-2.53-.055-2.723 1.128l-.951 5.833-1.31.703-5.379-2.452c-1.093-.5-2.496.439-2.45 1.637l.206 5.92-1.136.935-5.765-1.36c-1.171-.272-2.36.915-2.086 2.086l1.358 5.766-.933 1.135-5.92-.206c-1.193-.035-2.134 1.355-1.637 2.45l2.453 5.38-.703 1.31-5.832.949c-1.185.192-1.827 1.75-1.128 2.724l3.45 4.792-.433 1.428-5.532 2.068c-1.123.42-1.452 2.07-.574 2.891l4.328 4.036-.143 1.467-5.035 3.116c-1.02.63-1.02 2.318 0 2.946l5.035 3.117.143 1.467-4.328 4.037c-.878.818-.549 2.468.574 2.89l5.532 2.068.433 1.428-3.45 4.793c-.701.976-.056 2.532 1.129 2.723l5.831.948.703 1.312-2.453 5.378c-.5 1.093.444 2.5 1.638 2.451l5.917-.207.935 1.136-1.358 5.768c-.275 1.168.915 2.355 2.086 2.08l5.765-1.357 1.137.932-.207 5.921c-.046 1.199 1.357 2.136 2.45 1.636l5.379-2.45 1.31.702.95 5.83c.193 1.187 1.75 1.829 2.725 1.13l4.792-3.453 1.427.435 2.069 5.53c.42 1.123 2.072 1.454 2.89.574l4.037-4.328 1.467.146 3.117 5.035c.628 1.016 2.316 1.018 2.946 0l3.117-5.035 1.467-.146 4.036 4.328c.818.88 2.47.549 2.89-.574l2.068-5.53 1.428-.435 4.793 3.453c.974.699 2.53.055 2.722-1.13l.952-5.83 1.31-.703 5.378 2.451c1.093.5 2.493-.435 2.45-1.636l-.206-5.92 1.135-.933 5.765 1.357c1.171.275 2.36-.912 2.085-2.08l-1.358-5.768.932-1.136 5.92.207c1.194.048 2.138-1.358 1.636-2.451l-2.45-5.378.7-1.312 5.833-.948c1.187-.19 1.831-1.747 1.127-2.723l-3.45-4.793.433-1.428 5.532-2.068c1.125-.422 1.454-2.072.574-2.89l-4.327-4.037.143-1.467 5.035-3.117c1.02-.628 1.021-2.315.001-2.946z"/></svg>