<svg xmlns="http://www.w3.org/2000/svg" xml:space="preserve" fill-rule="evenodd" stroke-linejoin="round" stroke-miterlimit="1.414" clip-rule="evenodd" viewBox="0 0 24 24" class="svg material-folder-messages" width="16" height="16" aria-hidden="true"><path fill="#e57373" fill-rule="nonzero" d="M10 4H4c-1.11 0-2 .89-2 2v12c0 1.097.903 2 2 2h16c1.097 0 2-.903 2-2V8a2 2 0 0 0-2-2h-8l-2-2z" style="fill:#ff9800"/><path d="M15.119 23.509a.63.63 0 0 1-.63-.63V20.99h-2.518a1.26 1.26 0 0 1-1.26-1.26v-7.555c0-.7.567-1.26 1.26-1.26h10.075a1.26 1.26 0 0 1 1.259 1.26v7.556a1.26 1.26 0 0 1-1.26 1.26h-3.84l-2.33 2.335a.642.642 0 0 1-.441.183h-.315m-2.518-10.704v1.26h8.815v-1.26h-8.815m0 2.519v1.26h5.037v-1.26H12.6m0 2.518v1.26h6.296v-1.26z" style="fill:#fff9c4;stroke-width:.62968"/></svg>