<svg xmlns="http://www.w3.org/2000/svg" fill="none" viewBox="0 0 24 24" class="svg material-cypress" width="16" height="16" aria-hidden="true"><path fill="#00bfa5" d="M11.998 2A9.993 9.993 0 0 0 2 12a9.993 9.993 0 0 0 10 10c5.528 0 10-4.473 10-10-.001-5.527-4.51-10-10.002-10zm-4.69 12.146c.327.436.763.618 1.381.618.292 0 .583-.037.837-.146.255-.108.546-.255.908-.473l1.019 1.454c-.836.692-1.782 1.018-2.873 1.018-.873 0-1.6-.182-2.254-.545a3.66 3.66 0 0 1-1.454-1.599c-.327-.691-.509-1.491-.509-2.437 0-.908.182-1.745.508-2.436a3.853 3.853 0 0 1 1.457-1.672c.617-.4 1.38-.582 2.217-.582.583 0 1.128.072 1.564.254.49.19.944.46 1.345.8l-1.018 1.382a3.987 3.987 0 0 0-.836-.474c-.254-.108-.582-.145-.873-.145-1.236 0-1.854.945-1.854 2.872-.036.983.146 1.673.437 2.11zm10 2.254c-.363 1.128-.909 1.964-1.673 2.582-.763.619-1.782.946-3.054 1.055l-.254-1.708c.836-.11 1.454-.292 1.854-.583.145-.108.437-.436.437-.436l-3.019-9.673h2.508l1.746 7.236 1.855-7.236h2.436z"/></svg>