<svg viewBox="0 0 16 16" class="svg octicon-cpu" width="16" height="16" aria-hidden="true"><path fill-rule="evenodd" d="M6.5.75a.75.75 0 0 0-1.5 0V2H3.75A1.75 1.75 0 0 0 2 3.75V5H.75a.75.75 0 0 0 0 1.5H2v3H.75a.75.75 0 0 0 0 1.5H2v1.25c0 .966.784 1.75 1.75 1.75H5v1.25a.75.75 0 0 0 1.5 0V14h3v1.25a.75.75 0 0 0 1.5 0V14h1.25A1.75 1.75 0 0 0 14 12.25V11h1.25a.75.75 0 0 0 0-1.5H14v-3h1.25a.75.75 0 0 0 0-1.5H14V3.75A1.75 1.75 0 0 0 12.25 2H11V.75a.75.75 0 0 0-1.5 0V2h-3V.75zm5.75 11.75h-8.5a.25.25 0 0 1-.25-.25v-8.5a.25.25 0 0 1 .25-.25h8.5a.25.25 0 0 1 .25.25v8.5a.25.25 0 0 1-.25.25zM5.75 5a.75.75 0 0 0-.75.75v4.5c0 .414.336.75.75.75h4.5a.75.75 0 0 0 .75-.75v-4.5a.75.75 0 0 0-.75-.75h-4.5zm.75 4.5v-3h3v3h-3z"/></svg>