<svg viewBox="0 0 16 16" class="svg octicon-server" width="16" height="16" aria-hidden="true"><path fill-rule="evenodd" d="M1.75 1A1.75 1.75 0 0 0 0 2.75v4c0 .372.116.717.314 1a1.742 1.742 0 0 0-.314 1v4c0 .966.784 1.75 1.75 1.75h12.5A1.75 1.75 0 0 0 16 12.75v-4c0-.372-.116-.717-.314-1 .198-.283.314-.628.314-1v-4A1.75 1.75 0 0 0 14.25 1H1.75zm0 7.5a.25.25 0 0 0-.25.25v4c0 .138.112.25.25.25h12.5a.25.25 0 0 0 .25-.25v-4a.25.25 0 0 0-.25-.25H1.75zM1.5 2.75a.25.25 0 0 1 .25-.25h12.5a.25.25 0 0 1 .25.25v4a.25.25 0 0 1-.25.25H1.75a.25.25 0 0 1-.25-.25v-4zm5.5 2A.75.75 0 0 1 7.75 4h4.5a.75.75 0 0 1 0 1.5h-4.5A.75.75 0 0 1 7 4.75zM7.75 10a.75.75 0 0 0 0 1.5h4.5a.75.75 0 0 0 0-1.5h-4.5zM3 4.75A.75.75 0 0 1 3.75 4h.5a.75.75 0 0 1 0 1.5h-.5A.75.75 0 0 1 3 4.75zM3.75 10a.75.75 0 0 0 0 1.5h.5a.75.75 0 0 0 0-1.5h-.5z"/></svg>