<svg viewBox="0 0 16 16" class="svg octicon-project" width="16" height="16" aria-hidden="true"><path fill-rule="evenodd" d="M1.75 0A1.75 1.75 0 0 0 0 1.75v12.5C0 15.216.784 16 1.75 16h12.5A1.75 1.75 0 0 0 16 14.25V1.75A1.75 1.75 0 0 0 14.25 0H1.75zM1.5 1.75a.25.25 0 0 1 .25-.25h12.5a.25.25 0 0 1 .25.25v12.5a.25.25 0 0 1-.25.25H1.75a.25.25 0 0 1-.25-.25V1.75zM11.75 3a.75.75 0 0 0-.75.75v7.5a.75.75 0 0 0 1.5 0v-7.5a.75.75 0 0 0-.75-.75zm-8.25.75a.75.75 0 0 1 1.5 0v5.5a.75.75 0 0 1-1.5 0v-5.5zM8 3a.75.75 0 0 0-.75.75v3.5a.75.75 0 0 0 1.5 0v-3.5A.75.75 0 0 0 8 3z"/></svg>