<svg viewBox="0 0 16 16" class="svg octicon-megaphone" width="16" height="16" aria-hidden="true"><path fill-rule="evenodd" d="M15.571.572A.75.75 0 0 1 16 1.25L14.777.668c.001 0 0 0 0 0l-.015.012-.076.056a5.508 5.508 0 0 1-.345.224 9.982 9.982 0 0 1-1.463.719c-1.322.528-3.351 1.07-6.124 1.071a1.6 1.6 0 0 0-.861-.25H4a4 4 0 0 0-1.499 7.71.758.758 0 0 0-.001.04c0 2.32.486 3.93.813 4.75.262.66.897 1 1.517 1h1.197c.685 0 1.228-.389 1.546-.857.317-.466.468-1.09.31-1.696-.2-.767-.382-1.835-.383-3.183 2.394.086 4.177.577 5.378 1.057a9.965 9.965 0 0 1 1.463.719 5.7 5.7 0 0 1 .421.28l.014.012h.002A.75.75 0 0 0 16 11.75V1.25L14.777.668a.75.75 0 0 1 .794-.096zM4.002 10.5c.033 1.969.45 3.306.704 3.946.004.01.01.02.027.03a.185.185 0 0 0 .097.024h1.197c.083 0 .202-.047.305-.2a.608.608 0 0 0 .1-.475 14.036 14.036 0 0 1-.43-3.329 1.64 1.64 0 0 1-.11.004h-1.89zM7.5 8.763c2.601.087 4.573.62 5.935 1.166.41.164.766.33 1.065.483V2.588c-.3.154-.654.319-1.065.483C12.073 3.616 10.1 4.15 7.5 4.237v4.526zM14.777.668zM1.5 6.5A2.5 2.5 0 0 1 4 4h1.893c.059 0 .107.048.107.107v4.786A.107.107 0 0 1 5.893 9H4a2.5 2.5 0 0 1-2.5-2.5z"/></svg>