<svg viewBox="0 0 12 16" class="svg octicon-heart-outline" width="16" height="16" aria-hidden="true"><path fill-rule="evenodd" d="M1.192 3.924C1.909 3.294 2.835 3 3.727 3 4.73 3 5.513 3.485 6 3.894 6.488 3.485 7.271 3 8.273 3c.892 0 1.818.293 2.535.924C11.545 4.572 12 5.525 12 6.7c0 .962-.435 1.891-.944 2.67-.522.8-1.2 1.558-1.852 2.203a24.563 24.563 0 01-1.793 1.6c-.451.365-1.39 1.045-1.39 1.045s-1.277-.921-1.431-1.046a24.57 24.57 0 01-1.793-1.599c-.652-.645-1.33-1.404-1.853-2.202C.434 8.59 0 7.662 0 6.7c0-1.175.455-2.128 1.192-2.776zm4.96 7.694l-.151.122a22.6 22.6 0 01-1.797-1.588c-.599-.593-1.17-1.24-1.586-1.876C2.19 7.621 2 7.088 2 6.7c0-.625.226-1.022.513-1.274.305-.27.743-.426 1.214-.426.344 0 .686.172.993.43.191.161.332.314.455.448.255.278.432.472.826.472a.868.868 0 00.497-.14c.146-.096.264-.232.394-.38.112-.13.234-.27.39-.4.306-.258.647-.43.99-.43.472 0 .91.157 1.215.426.287.252.513.649.513 1.274 0 .388-.19.922-.618 1.576-.416.636-.987 1.283-1.585 1.876-.595.589-1.193 1.1-1.645 1.466z"/></svg>