<svg viewBox="0 0 16 16" class="svg octicon-mirror" width="16" height="16" aria-hidden="true"><path fill-rule="evenodd" d="M8.75 1.75a.75.75 0 00-1.5 0v.5a.75.75 0 001.5 0v-.5zM8 4a.75.75 0 01.75.75v.5a.75.75 0 01-1.5 0v-.5A.75.75 0 018 4zm.75 3.75a.75.75 0 00-1.5 0v.5a.75.75 0 001.5 0v-.5zM8 10a.75.75 0 01.75.75v.5a.75.75 0 01-1.5 0v-.5A.75.75 0 018 10zm0 3a.75.75 0 01.75.75v.5a.75.75 0 01-1.5 0v-.5A.75.75 0 018 13zm7.547-9.939A.75.75 0 0116 3.75v8.5a.75.75 0 01-1.265.545l-4.5-4.25a.75.75 0 010-1.09l4.5-4.25a.75.75 0 01.812-.144zM11.842 8l2.658 2.51V5.49L11.842 8zM0 12.25a.75.75 0 001.265.545l4.5-4.25a.75.75 0 000-1.09l-4.5-4.25A.75.75 0 000 3.75v8.5zm1.5-6.76L4.158 8 1.5 10.51V5.49z"/></svg>