<svg viewBox="0 0 16 16" class="svg octicon-squirrel" width="16" height="16" aria-hidden="true"><path fill-rule="evenodd" d="M12 1C9.79 1 8 2.31 8 3.92c0 1.94.5 3.03 0 6.08 0-4.5-2.77-6.34-4-6.34.05-.5-.48-.66-.48-.66s-.22.11-.3.34c-.27-.31-.56-.27-.56-.27l-.13.58S.7 4.29.68 6.87c.2.33 1.53.6 2.47.43.89.05.67.79.47.99C2.78 9.13 2 8 1 8S0 9 1 9s1 1 3 1c-3.09 1.2 0 4 0 4H3c-1 0-1 1-1 1h6c3 0 5-1 5-3.47 0-.85-.43-1.79-1-2.53-1.11-1.46.23-2.68 1-2 .77.68 3 1 3-2 0-2.21-1.79-4-4-4zM2.5 6c-.28 0-.5-.22-.5-.5s.22-.5.5-.5.5.22.5.5-.22.5-.5.5z"/></svg>