<svg viewBox="0 0 16 16" class="svg octicon-git-pull-request-closed" width="16" height="16" aria-hidden="true"><path fill-rule="evenodd" d="M10.72 1.227a.75.75 0 0 1 1.06 0l.97.97.97-.97a.75.75 0 1 1 1.06 1.061l-.97.97.97.97a.75.75 0 0 1-1.06 1.06l-.97-.97-.97.97a.75.75 0 1 1-1.06-1.06l.97-.97-.97-.97a.75.75 0 0 1 0-1.06zM12.75 6.5a.75.75 0 0 0-.75.75v3.378a2.251 2.251 0 1 0 1.5 0V7.25a.75.75 0 0 0-.75-.75zm0 5.5a.75.75 0 1 0 0 1.5.75.75 0 0 0 0-1.5zM2.5 3.25a.75.75 0 1 1 1.5 0 .75.75 0 0 1-1.5 0zM3.25 1a2.25 2.25 0 0 0-.75 4.372v5.256a2.251 2.251 0 1 0 1.5 0V5.372A2.25 2.25 0 0 0 3.25 1zm0 11a.75.75 0 1 0 0 1.5.75.75 0 0 0 0-1.5z"/></svg>