<svg viewBox="0 0 16 16" class="svg octicon-link-external" width="16" height="16" aria-hidden="true"><path fill-rule="evenodd" d="M10.604 1h4.146a.25.25 0 0 1 .25.25v4.146a.25.25 0 0 1-.427.177L13.03 4.03 9.28 7.78a.75.75 0 0 1-1.06-1.06l3.75-3.75-1.543-1.543A.25.25 0 0 1 10.604 1zM3.75 2A1.75 1.75 0 0 0 2 3.75v8.5c0 .966.784 1.75 1.75 1.75h8.5A1.75 1.75 0 0 0 14 12.25v-3.5a.75.75 0 0 0-1.5 0v3.5a.25.25 0 0 1-.25.25h-8.5a.25.25 0 0 1-.25-.25v-8.5a.25.25 0 0 1 .25-.25h3.5a.75.75 0 0 0 0-1.5h-3.5z"/></svg>