<svg viewBox="0 0 16 16" class="svg octicon-verified" width="16" height="16" aria-hidden="true"><path fill-rule="evenodd" d="M9.585.52a2.678 2.678 0 0 0-3.17 0l-.928.68a1.178 1.178 0 0 1-.518.215L3.83 1.59a2.678 2.678 0 0 0-2.24 2.24l-.175 1.14a1.178 1.178 0 0 1-.215.518l-.68.928a2.678 2.678 0 0 0 0 3.17l.68.928c.113.153.186.33.215.518l.175 1.138a2.678 2.678 0 0 0 2.24 2.24l1.138.175c.187.029.365.102.518.215l.928.68a2.678 2.678 0 0 0 3.17 0l.928-.68a1.17 1.17 0 0 1 .518-.215l1.138-.175a2.678 2.678 0 0 0 2.241-2.241l.175-1.138c.029-.187.102-.365.215-.518l.68-.928a2.678 2.678 0 0 0 0-3.17l-.68-.928a1.179 1.179 0 0 1-.215-.518L14.41 3.83a2.678 2.678 0 0 0-2.24-2.24l-1.138-.175a1.179 1.179 0 0 1-.518-.215L9.585.52zM7.303 1.728c.415-.305.98-.305 1.394 0l.928.68c.348.256.752.423 1.18.489l1.136.174c.51.078.909.478.987.987l.174 1.137c.066.427.233.831.489 1.18l.68.927c.305.415.305.98 0 1.394l-.68.928a2.678 2.678 0 0 0-.489 1.18l-.174 1.136a1.178 1.178 0 0 1-.987.987l-1.137.174a2.678 2.678 0 0 0-1.18.489l-.927.68c-.415.305-.98.305-1.394 0l-.928-.68a2.678 2.678 0 0 0-1.18-.489l-1.136-.174a1.178 1.178 0 0 1-.987-.987l-.174-1.137a2.678 2.678 0 0 0-.489-1.18l-.68-.927a1.178 1.178 0 0 1 0-1.394l.68-.928c.256-.348.423-.752.489-1.18l.174-1.136c.078-.51.478-.909.987-.987l1.137-.174a2.678 2.678 0 0 0 1.18-.489l.927-.68zM11.28 6.78a.75.75 0 0 0-1.06-1.06L7 8.94 5.78 7.72a.75.75 0 0 0-1.06 1.06l1.75 1.75a.75.75 0 0 0 1.06 0l3.75-3.75z"/></svg>