<svg viewBox="0 0 16 16" class="svg octicon-tools" width="16" height="16" aria-hidden="true"><path fill-rule="evenodd" d="M5.433 2.304A4.494 4.494 0 0 0 3.5 6c0 1.598.832 3.002 2.09 3.802.518.328.929.923.902 1.64v.008l-.164 3.337a.75.75 0 1 1-1.498-.073l.163-3.33c.002-.085-.05-.216-.207-.316A5.996 5.996 0 0 1 2 6a5.994 5.994 0 0 1 2.567-4.92 1.482 1.482 0 0 1 1.673-.04c.462.296.76.827.76 1.423v2.82c0 .082.041.16.11.206l.75.51a.25.25 0 0 0 .28 0l.75-.51A.25.25 0 0 0 9 5.282V2.463c0-.596.298-1.127.76-1.423a1.482 1.482 0 0 1 1.673.04A5.994 5.994 0 0 1 14 6a5.996 5.996 0 0 1-2.786 5.068c-.157.1-.209.23-.207.315l.163 3.33a.75.75 0 1 1-1.498.074l-.164-3.345c-.027-.717.384-1.312.902-1.64A4.496 4.496 0 0 0 12.5 6a4.494 4.494 0 0 0-1.933-3.696c-.024.017-.067.067-.067.16v2.818a1.75 1.75 0 0 1-.767 1.448l-.75.51a1.75 1.75 0 0 1-1.966 0l-.75-.51A1.75 1.75 0 0 1 5.5 5.282V2.463c0-.092-.043-.142-.067-.159zm.01-.005z"/></svg>