<svg viewBox="0 0 16 16" class="svg octicon-broadcast" width="16" height="16" aria-hidden="true"><path fill-rule="evenodd" d="M9 9H8c.55 0 1-.45 1-1V7c0-.55-.45-1-1-1H7c-.55 0-1 .45-1 1v1c0 .55.45 1 1 1H6c-.55 0-1 .45-1 1v2h1v3c0 .55.45 1 1 1h1c.55 0 1-.45 1-1v-3h1v-2c0-.55-.45-1-1-1zM7 7h1v1H7V7zm2 4H8v4H7v-4H6v-1h3v1zm2.09-3.5c0-1.98-1.61-3.59-3.59-3.59A3.593 3.593 0 004 8.31v1.98c-.61-.77-1-1.73-1-2.8 0-2.48 2.02-4.5 4.5-4.5S12 5.01 12 7.49c0 1.06-.39 2.03-1 2.8V8.31c.06-.27.09-.53.09-.81zm3.91 0c0 2.88-1.63 5.38-4 6.63v-1.05a6.553 6.553 0 003.09-5.58A6.59 6.59 0 007.5.91 6.59 6.59 0 00.91 7.5c0 2.36 1.23 4.42 3.09 5.58v1.05A7.497 7.497 0 017.5 0C11.64 0 15 3.36 15 7.5z"/></svg>