<svg viewBox="0 0 12 16" class="svg octicon-list-unordered" width="16" height="16" aria-hidden="true"><path fill-rule="evenodd" d="M2 13c0 .59 0 1-.59 1H.59C0 14 0 13.59 0 13c0-.59 0-1 .59-1h.81c.59 0 .59.41.59 1H2zm2.59-9h6.81c.59 0 .59-.41.59-1 0-.59 0-1-.59-1H4.59C4 2 4 2.41 4 3c0 .59 0 1 .59 1zM1.41 7H.59C0 7 0 7.41 0 8c0 .59 0 1 .59 1h.81c.59 0 .59-.41.59-1 0-.59 0-1-.59-1h.01zm0-5H.59C0 2 0 2.41 0 3c0 .59 0 1 .59 1h.81c.59 0 .59-.41.59-1 0-.59 0-1-.59-1h.01zm10 5H4.59C4 7 4 7.41 4 8c0 .59 0 1 .59 1h6.81c.59 0 .59-.41.59-1 0-.59 0-1-.59-1h.01zm0 5H4.59C4 12 4 12.41 4 13c0 .59 0 1 .59 1h6.81c.59 0 .59-.41.59-1 0-.59 0-1-.59-1h.01z"/></svg>