<svg viewBox="0 0 12 16" class="svg octicon-paintcan" width="16" height="16" aria-hidden="true"><path fill-rule="evenodd" d="M6 0C2.69 0 0 2.69 0 6v1c0 .55.45 1 1 1v5c0 1.1 2.24 2 5 2s5-.9 5-2V8c.55 0 1-.45 1-1V6c0-3.31-2.69-6-6-6zm3 10v.5c0 .28-.22.5-.5.5s-.5-.22-.5-.5V10c0-.28-.22-.5-.5-.5s-.5.22-.5.5v2.5c0 .28-.22.5-.5.5s-.5-.22-.5-.5v-2c0-.28-.22-.5-.5-.5s-.5.22-.5.5v.5c0 .55-.45 1-1 1s-1-.45-1-1v-1c-.55 0-1-.45-1-1V7.2c.91.49 2.36.8 4 .8 1.64 0 3.09-.31 4-.8V9c0 .55-.45 1-1 1zM6 7c-1.68 0-3.12-.41-3.71-1C2.88 5.41 4.32 5 6 5c1.68 0 3.12.41 3.71 1-.59.59-2.03 1-3.71 1zm0-3c-2.76 0-5 .89-5 2 0-2.76 2.24-5 5-5s5 2.24 5 5c0-1.1-2.24-2-5-2z"/></svg>