<svg viewBox="0 0 12 16" class="svg octicon-git-merge" width="16" height="16" aria-hidden="true"><path fill-rule="evenodd" d="M10 7c-.73 0-1.38.41-1.73 1.02V8C7.22 7.98 6 7.64 5.14 6.98c-.75-.58-1.5-1.61-1.89-2.44A1.993 1.993 0 002 .99C.89.99 0 1.89 0 3a2 2 0 001 1.72v6.56c-.59.35-1 .99-1 1.72 0 1.11.89 2 2 2a1.993 1.993 0 001-3.72V7.67c.67.7 1.44 1.27 2.3 1.69.86.42 2.03.63 2.97.64v-.02c.36.61 1 1.02 1.73 1.02 1.11 0 2-.89 2-2 0-1.11-.89-2-2-2zm-6.8 6c0 .66-.55 1.2-1.2 1.2-.65 0-1.2-.55-1.2-1.2 0-.65.55-1.2 1.2-1.2.65 0 1.2.55 1.2 1.2zM2 4.2C1.34 4.2.8 3.65.8 3c0-.65.55-1.2 1.2-1.2.65 0 1.2.55 1.2 1.2 0 .65-.55 1.2-1.2 1.2zm8 6c-.66 0-1.2-.55-1.2-1.2 0-.65.55-1.2 1.2-1.2.65 0 1.2.55 1.2 1.2 0 .65-.55 1.2-1.2 1.2z"/></svg>