<svg viewBox="0 0 16 16" class="svg octicon-sidebar-expand" width="16" height="16" aria-hidden="true"><path fill-rule="evenodd" d="m4.177 7.823 2.396-2.396A.25.25 0 0 1 7 5.604v4.792a.25.25 0 0 1-.427.177L4.177 8.177a.25.25 0 0 1 0-.354z"/><path fill-rule="evenodd" d="M0 1.75C0 .784.784 0 1.75 0h12.5C15.216 0 16 .784 16 1.75v12.5A1.75 1.75 0 0 1 14.25 16H1.75A1.75 1.75 0 0 1 0 14.25V1.75zm1.75-.25a.25.25 0 0 0-.25.25v12.5c0 .138.112.25.25.25H9.5v-13H1.75zm12.5 13H11v-13h3.25a.25.25 0 0 1 .25.25v12.5a.25.25 0 0 1-.25.25z"/></svg>