<svg viewBox="0 0 16 16" class="svg octicon-diff-renamed" width="16" height="16" aria-hidden="true"><path fill-rule="evenodd" d="M2.75 2.5h10.5a.25.25 0 0 1 .25.25v10.5a.25.25 0 0 1-.25.25H2.75a.25.25 0 0 1-.25-.25V2.75a.25.25 0 0 1 .25-.25zM13.25 1H2.75A1.75 1.75 0 0 0 1 2.75v10.5c0 .966.784 1.75 1.75 1.75h10.5A1.75 1.75 0 0 0 15 13.25V2.75A1.75 1.75 0 0 0 13.25 1zm-1.47 7.53a.75.75 0 0 0 0-1.06L8.53 4.22a.75.75 0 0 0-1.06 1.06l1.97 1.97H4.75a.75.75 0 0 0 0 1.5h4.69l-1.97 1.97a.75.75 0 1 0 1.06 1.06l3.25-3.25z"/></svg>