<svg viewBox="0 0 16 16" class="svg octicon-git-pull-request-draft" width="16" height="16" aria-hidden="true"><path fill-rule="evenodd" d="M2.5 3.25a.75.75 0 1 1 1.5 0 .75.75 0 0 1-1.5 0zM3.25 1a2.25 2.25 0 0 0-.75 4.372v5.256a2.251 2.251 0 1 0 1.5 0V5.372A2.25 2.25 0 0 0 3.25 1zm0 11a.75.75 0 1 0 0 1.5.75.75 0 0 0 0-1.5zm9.5 3a2.25 2.25 0 1 0 0-4.5 2.25 2.25 0 0 0 0 4.5zm0-3a.75.75 0 1 0 0 1.5.75.75 0 0 0 0-1.5z"/><path d="M14 7.5a1.25 1.25 0 1 1-2.5 0 1.25 1.25 0 0 1 2.5 0zm0-4.25a1.25 1.25 0 1 1-2.5 0 1.25 1.25 0 0 1 2.5 0z"/></svg>