<svg viewBox="0 0 16 16" class="svg octicon-telescope" width="16" height="16" aria-hidden="true"><path fill-rule="evenodd" d="M14.184 1.143a1.75 1.75 0 0 0-2.502-.57L.912 7.916a1.75 1.75 0 0 0-.53 2.32l.447.775a1.75 1.75 0 0 0 2.275.702l11.745-5.656a1.75 1.75 0 0 0 .757-2.451l-1.422-2.464zm-1.657.669a.25.25 0 0 1 .358.081l1.422 2.464a.25.25 0 0 1-.108.35l-2.016.97-1.505-2.605 1.85-1.26zM9.436 3.92l1.391 2.41-5.42 2.61-.942-1.63 4.97-3.39zM3.222 8.157l-1.466 1a.25.25 0 0 0-.075.33l.447.775a.25.25 0 0 0 .325.1l1.598-.769-.83-1.436zm6.253 2.306a.75.75 0 0 0-.944-.252l-1.809.87a.75.75 0 0 0-.293.253L4.38 14.326a.75.75 0 1 0 1.238.848l1.881-2.75v2.826a.75.75 0 0 0 1.5 0v-2.826l1.881 2.75a.75.75 0 0 0 1.238-.848l-2.644-3.863z"/></svg>