<svg viewBox="0 0 16 16" class="svg octicon-strikethrough" width="16" height="16" aria-hidden="true"><path fill-rule="evenodd" d="M7.581 3.25c-2.036 0-2.778 1.082-2.778 1.786 0 .055.002.107.006.157a.75.75 0 0 1-1.496.114 3.56 3.56 0 0 1-.01-.271c0-1.832 1.75-3.286 4.278-3.286 1.418 0 2.721.58 3.514 1.093a.75.75 0 1 1-.814 1.26c-.64-.414-1.662-.853-2.7-.853zm3.474 5.25h3.195a.75.75 0 0 0 0-1.5H1.75a.75.75 0 0 0 0 1.5h6.018c.835.187 1.503.464 1.951.81.439.34.647.725.647 1.197 0 .428-.159.895-.594 1.267-.444.38-1.254.726-2.676.726-1.373 0-2.38-.493-2.86-.956a.75.75 0 0 0-1.042 1.079C3.992 13.393 5.39 14 7.096 14c1.652 0 2.852-.403 3.65-1.085a3.134 3.134 0 0 0 1.12-2.408 2.85 2.85 0 0 0-.811-2.007z"/></svg>