<svg viewBox="0 0 16 16" class="svg octicon-broadcast" width="16" height="16" aria-hidden="true"><path fill-rule="evenodd" d="M3.267 1.457c.3.286.312.76.026 1.06A6.475 6.475 0 001.5 7a6.472 6.472 0 001.793 4.483.75.75 0 01-1.086 1.034 8.89 8.89 0 01-.276-.304l.569-.49-.569.49A7.971 7.971 0 010 7c0-2.139.84-4.083 2.207-5.517a.75.75 0 011.06-.026zm9.466 0a.75.75 0 011.06.026A7.975 7.975 0 0116 7c0 2.139-.84 4.083-2.207 5.517a.75.75 0 11-1.086-1.034A6.475 6.475 0 0014.5 7a6.475 6.475 0 00-1.793-4.483.75.75 0 01.026-1.06zM8.75 8.582a1.75 1.75 0 10-1.5 0v5.668a.75.75 0 001.5 0V8.582zM5.331 4.736a.75.75 0 10-1.143-.972A4.983 4.983 0 003 7c0 1.227.443 2.352 1.177 3.222a.75.75 0 001.146-.967A3.483 3.483 0 014.5 7c0-.864.312-1.654.831-2.264zm6.492-.958a.75.75 0 00-1.146.967c.514.61.823 1.395.823 2.255 0 .86-.31 1.646-.823 2.255a.75.75 0 101.146.967A4.983 4.983 0 0013 7a4.983 4.983 0 00-1.177-3.222z"/></svg>