<svg viewBox="0 0 16 16" class="svg octicon-unverified" width="16" height="16" aria-hidden="true"><path fill-rule="evenodd" d="M6.415.52a2.678 2.678 0 0 1 3.17 0l.928.68c.153.113.33.186.518.215l1.138.175a2.678 2.678 0 0 1 2.241 2.24l.175 1.138c.029.187.102.365.215.518l.68.928a2.678 2.678 0 0 1 0 3.17l-.68.928a1.179 1.179 0 0 0-.215.518l-.175 1.138a2.678 2.678 0 0 1-2.241 2.241l-1.138.175a1.179 1.179 0 0 0-.518.215l-.928.68a2.678 2.678 0 0 1-3.17 0l-.928-.68a1.179 1.179 0 0 0-.518-.215L3.83 14.41a2.678 2.678 0 0 1-2.24-2.24l-.175-1.138a1.179 1.179 0 0 0-.215-.518l-.68-.928a2.678 2.678 0 0 1 0-3.17l.68-.928a1.17 1.17 0 0 0 .215-.518l.175-1.14a2.678 2.678 0 0 1 2.24-2.24l1.138-.175c.187-.029.365-.102.518-.215l.928-.68zm2.282 1.209a1.178 1.178 0 0 0-1.394 0l-.928.68a2.678 2.678 0 0 1-1.18.489l-1.136.174a1.178 1.178 0 0 0-.987.987l-.174 1.137a2.678 2.678 0 0 1-.489 1.18l-.68.927c-.305.415-.305.98 0 1.394l.68.928c.256.348.423.752.489 1.18l.174 1.136c.078.51.478.909.987.987l1.137.174c.427.066.831.233 1.18.489l.927.68c.415.305.98.305 1.394 0l.928-.68a2.678 2.678 0 0 1 1.18-.489l1.136-.174c.51-.078.909-.478.987-.987l.174-1.137c.066-.427.233-.831.489-1.18l.68-.927c.305-.415.305-.98 0-1.394l-.68-.928a2.678 2.678 0 0 1-.489-1.18l-.174-1.136a1.178 1.178 0 0 0-.987-.987l-1.137-.174a2.678 2.678 0 0 1-1.18-.489l-.927-.68zM9 11a1 1 0 1 1-2 0 1 1 0 0 1 2 0zM6.92 6.085c.081-.16.19-.299.34-.398.145-.097.371-.187.74-.187.28 0 .553.087.738.225A.613.613 0 0 1 9 6.25c0 .177-.04.264-.077.318a.956.956 0 0 1-.277.245c-.076.051-.158.1-.258.161l-.007.004c-.093.056-.204.122-.313.195a2.416 2.416 0 0 0-.692.661.75.75 0 0 0 1.248.832.956.956 0 0 1 .276-.245 6.3 6.3 0 0 1 .26-.16l.006-.004c.093-.057.204-.123.313-.195.222-.149.487-.355.692-.662.214-.32.329-.702.329-1.15 0-.76-.36-1.348-.862-1.725A2.76 2.76 0 0 0 8 4c-.631 0-1.154.16-1.572.438-.413.276-.68.638-.849.977a.75.75 0 0 0 1.342.67z"/></svg>