<svg viewBox="0 0 16 16" class="svg octicon-globe" width="16" height="16" aria-hidden="true"><path fill-rule="evenodd" d="M1.543 7.25h2.733c.144-2.074.866-3.756 1.58-4.948.12-.197.237-.381.353-.552a6.506 6.506 0 0 0-4.666 5.5zm2.733 1.5H1.543a6.506 6.506 0 0 0 4.666 5.5 11.13 11.13 0 0 1-.352-.552c-.715-1.192-1.437-2.874-1.581-4.948zm1.504 0h4.44a9.637 9.637 0 0 1-1.363 4.177c-.306.51-.612.919-.857 1.215a9.978 9.978 0 0 1-.857-1.215A9.637 9.637 0 0 1 5.78 8.75zm4.44-1.5H5.78a9.637 9.637 0 0 1 1.363-4.177c.306-.51.612-.919.857-1.215.245.296.55.705.857 1.215A9.638 9.638 0 0 1 10.22 7.25zm1.504 1.5c-.144 2.074-.866 3.756-1.58 4.948-.12.197-.237.381-.353.552a6.506 6.506 0 0 0 4.666-5.5h-2.733zm2.733-1.5h-2.733c-.144-2.074-.866-3.756-1.58-4.948a11.738 11.738 0 0 0-.353-.552 6.506 6.506 0 0 1 4.666 5.5zM8 0a8 8 0 1 0 0 16A8 8 0 0 0 8 0z"/></svg>