<svg viewBox="0 0 16 16" class="svg octicon-plug" width="16" height="16" aria-hidden="true"><path fill-rule="evenodd" d="M10.276 3.09a.25.25 0 0 1 .192-.09h.782a.25.25 0 0 1 .25.25v8.5a.25.25 0 0 1-.25.25h-.782a.25.25 0 0 1-.192-.09l-.95-1.14a.75.75 0 0 0-.483-.264l-3.124-.39a.25.25 0 0 1-.219-.249V5.133a.25.25 0 0 1 .219-.248l3.124-.39a.75.75 0 0 0 .483-.265l.95-1.14zM4 8v1.867a1.75 1.75 0 0 0 1.533 1.737l2.83.354.761.912c.332.4.825.63 1.344.63h.782A1.75 1.75 0 0 0 13 11.75V11h2.25a.75.75 0 0 0 0-1.5H13v-4h2.25a.75.75 0 0 0 0-1.5H13v-.75a1.75 1.75 0 0 0-1.75-1.75h-.782c-.519 0-1.012.23-1.344.63l-.76.913-2.831.353A1.75 1.75 0 0 0 4 5.133V6.5H2.5A2.5 2.5 0 0 0 0 9v5.25a.75.75 0 0 0 1.5 0V9a1 1 0 0 1 1-1H4z"/></svg>