<svg viewBox="0 0 16 16" class="svg octicon-bookmark-slash" width="16" height="16" aria-hidden="true"><path fill-rule="evenodd" d="M1.19 1.143a.75.75 0 10-.88 1.214L3 4.305v9.945a.75.75 0 001.206.596L8 11.944l3.794 2.902A.75.75 0 0013 14.25v-2.703l1.81 1.31a.75.75 0 10.88-1.214l-2.994-2.168a1.09 1.09 0 00-.014-.01L4.196 3.32a.712.712 0 00-.014-.01L1.19 1.143zM4.5 5.39v7.341l3.044-2.328a.75.75 0 01.912 0l3.044 2.328V10.46l-7-5.07zM5.865 1a.75.75 0 000 1.5h5.385a.25.25 0 01.25.25v3.624a.75.75 0 001.5 0V2.75A1.75 1.75 0 0011.25 1H5.865z"/></svg>