<svg viewBox="0 0 14 16" class="svg octicon-mention" width="16" height="16" aria-hidden="true"><path fill-rule="evenodd" d="M6.58 15c1.25 0 2.52-.31 3.56-.94l-.42-.94c-.84.52-1.89.83-3.03.83-3.23 0-5.64-2.08-5.64-5.72 0-4.37 3.23-7.18 6.58-7.18 3.45 0 5.22 2.19 5.22 5.2 0 2.39-1.34 3.86-2.5 3.86-1.05 0-1.36-.73-1.05-2.19l.73-3.75H8.98l-.11.72c-.41-.63-.94-.83-1.56-.83-2.19 0-3.66 2.39-3.66 4.38 0 1.67.94 2.61 2.3 2.61.84 0 1.67-.53 2.3-1.25.11.94.94 1.45 1.98 1.45 1.67 0 3.77-1.67 3.77-5C14 2.61 11.59 0 7.83 0 3.66 0 0 3.33 0 8.33 0 12.71 2.92 15 6.58 15zm-.31-5c-.73 0-1.36-.52-1.36-1.67 0-1.45.94-3.22 2.41-3.22.52 0 .84.2 1.25.83l-.52 3.02c-.63.73-1.25 1.05-1.78 1.05V10z"/></svg>