<svg viewBox="0 0 16 16" class="svg octicon-number" width="16" height="16" aria-hidden="true"><path fill-rule="evenodd" d="M1 5.25a.75.75 0 0 1 .75-.75h12.5a.75.75 0 0 1 0 1.5H1.75A.75.75 0 0 1 1 5.25zm0 5.5a.75.75 0 0 1 .75-.75h12.5a.75.75 0 0 1 0 1.5H1.75a.75.75 0 0 1-.75-.75z"/><path fill-rule="evenodd" d="M6.368 1.01a.75.75 0 0 1 .623.859l-2 12.5a.75.75 0 0 1-1.482-.237l2-12.5a.75.75 0 0 1 .86-.622zm5.5 0a.75.75 0 0 1 .623.859l-2 12.5a.75.75 0 0 1-1.482-.237l2-12.5a.75.75 0 0 1 .86-.622z"/></svg>