<svg viewBox="0 0 16 16" class="svg octicon-bell-slash" width="16" height="16" aria-hidden="true"><path fill-rule="evenodd" d="M8 1.5c-.997 0-1.895.416-2.534 1.086A.75.75 0 0 1 4.38 1.55 5 5 0 0 1 13 5v2.373a.75.75 0 0 1-1.5 0V5A3.5 3.5 0 0 0 8 1.5zM4.182 4.31 1.19 2.143a.75.75 0 1 0-.88 1.214L3 5.305v2.642a.25.25 0 0 1-.042.139L1.255 10.64A1.518 1.518 0 0 0 2.518 13h11.108l1.184.857a.75.75 0 1 0 .88-1.214l-1.375-.996a1.196 1.196 0 0 0-.013-.01L4.198 4.321a.733.733 0 0 0-.016-.011zm7.373 7.19L4.5 6.391v1.556c0 .346-.102.683-.294.97l-1.703 2.556a.018.018 0 0 0-.003.01.015.015 0 0 0 .005.012.017.017 0 0 0 .006.004l.007.001h9.037zM8 16a2 2 0 0 0 1.985-1.75c.017-.137-.097-.25-.235-.25h-3.5c-.138 0-.252.113-.235.25A2 2 0 0 0 8 16z"/></svg>