<svg viewBox="0 0 16 16" class="svg octicon-bell" width="16" height="16" aria-hidden="true"><path d="M8 16a2 2 0 0 0 1.985-1.75c.017-.137-.097-.25-.235-.25h-3.5c-.138 0-.252.113-.235.25A2 2 0 0 0 8 16z"/><path fill-rule="evenodd" d="M8 1.5A3.5 3.5 0 0 0 4.5 5v2.947c0 .346-.102.683-.294.97l-1.703 2.556a.018.018 0 0 0-.003.01l.001.006c0 .002.002.004.004.006a.017.017 0 0 0 .006.004l.007.001h10.964l.007-.001a.016.016 0 0 0 .006-.004.016.016 0 0 0 .004-.006l.001-.007a.017.017 0 0 0-.003-.01l-1.703-2.554a1.75 1.75 0 0 1-.294-.97V5A3.5 3.5 0 0 0 8 1.5zM3 5a5 5 0 0 1 10 0v2.947c0 .05.015.098.042.139l1.703 2.555A1.518 1.518 0 0 1 13.482 13H2.518a1.518 1.518 0 0 1-1.263-2.36l1.703-2.554A.25.25 0 0 0 3 7.947V5z"/></svg>