<svg viewBox="0 0 16 16" class="svg octicon-thumbsup" width="16" height="16" aria-hidden="true"><path fill-rule="evenodd" d="M8.834.066C7.494-.087 6.5 1.048 6.5 2.25v.5c0 1.329-.647 2.124-1.318 2.614-.328.24-.66.403-.918.508A1.75 1.75 0 0 0 2.75 5h-1A1.75 1.75 0 0 0 0 6.75v7.5C0 15.216.784 16 1.75 16h1a1.75 1.75 0 0 0 1.662-1.201c.525.075 1.067.229 1.725.415.152.043.31.088.475.133 1.154.32 2.54.653 4.388.653 1.706 0 2.97-.153 3.722-1.14.353-.463.537-1.042.668-1.672.118-.56.208-1.243.313-2.033l.04-.306c.25-1.869.265-3.318-.188-4.316a2.418 2.418 0 0 0-1.137-1.2C13.924 5.085 13.353 5 12.75 5h-1.422l.015-.113c.07-.518.157-1.17.157-1.637 0-.922-.151-1.719-.656-2.3-.51-.589-1.247-.797-2.01-.884zM4.5 13.3c.705.088 1.39.284 2.072.478l.441.125c1.096.305 2.334.598 3.987.598 1.794 0 2.28-.223 2.528-.549.147-.193.276-.505.394-1.07.105-.502.188-1.124.295-1.93l.04-.3c.25-1.882.189-2.933-.068-3.497a.922.922 0 0 0-.442-.48c-.208-.104-.52-.174-.997-.174H11c-.686 0-1.295-.577-1.206-1.336.023-.192.05-.39.076-.586.065-.488.13-.97.13-1.328 0-.809-.144-1.15-.288-1.316-.137-.158-.402-.304-1.048-.378C8.357 1.521 8 1.793 8 2.25v.5c0 1.922-.978 3.128-1.933 3.825a5.861 5.861 0 0 1-1.567.81V13.3zM2.75 6.5a.25.25 0 0 1 .25.25v7.5a.25.25 0 0 1-.25.25h-1a.25.25 0 0 1-.25-.25v-7.5a.25.25 0 0 1 .25-.25h1z"/></svg>