<svg viewBox="0 0 16 16" class="svg octicon-sidebar-collapse" width="16" height="16" aria-hidden="true"><path fill-rule="evenodd" d="M6.823 7.823 4.427 5.427A.25.25 0 0 0 4 5.604v4.792c0 .223.27.335.427.177l2.396-2.396a.25.25 0 0 0 0-.354z"/><path fill-rule="evenodd" d="M1.75 0A1.75 1.75 0 0 0 0 1.75v12.5C0 15.216.784 16 1.75 16h12.5A1.75 1.75 0 0 0 16 14.25V1.75A1.75 1.75 0 0 0 14.25 0H1.75zM1.5 1.75a.25.25 0 0 1 .25-.25H9.5v13H1.75a.25.25 0 0 1-.25-.25V1.75zM11 14.5v-13h3.25a.25.25 0 0 1 .25.25v12.5a.25.25 0 0 1-.25.25H11z"/></svg>