<svg viewBox="0 0 16 16" class="svg octicon-device-desktop" width="16" height="16" aria-hidden="true"><path fill-rule="evenodd" d="M1.75 2.5h12.5a.25.25 0 0 1 .25.25v7.5a.25.25 0 0 1-.25.25H1.75a.25.25 0 0 1-.25-.25v-7.5a.25.25 0 0 1 .25-.25zM14.25 1H1.75A1.75 1.75 0 0 0 0 2.75v7.5C0 11.216.784 12 1.75 12h3.727c-.1 1.041-.52 1.872-1.292 2.757A.75.75 0 0 0 4.75 16h6.5a.75.75 0 0 0 .565-1.243c-.772-.885-1.193-1.716-1.292-2.757h3.727A1.75 1.75 0 0 0 16 10.25v-7.5A1.75 1.75 0 0 0 14.25 1zM9.018 12H6.982a5.72 5.72 0 0 1-.765 2.5h3.566a5.72 5.72 0 0 1-.765-2.5z"/></svg>