<svg viewBox="0 0 16 16" class="svg octicon-terminal" width="16" height="16" aria-hidden="true"><path fill-rule="evenodd" d="M0 2.75C0 1.784.784 1 1.75 1h12.5c.966 0 1.75.784 1.75 1.75v10.5A1.75 1.75 0 0 1 14.25 15H1.75A1.75 1.75 0 0 1 0 13.25V2.75zm1.75-.25a.25.25 0 0 0-.25.25v10.5c0 .138.112.25.25.25h12.5a.25.25 0 0 0 .25-.25V2.75a.25.25 0 0 0-.25-.25H1.75zM7.25 8a.75.75 0 0 1-.22.53l-2.25 2.25a.75.75 0 1 1-1.06-1.06L5.44 8 3.72 6.28a.75.75 0 1 1 1.06-1.06l2.25 2.25c.141.14.22.331.22.53zm1.5 1.5a.75.75 0 0 0 0 1.5h3a.75.75 0 0 0 0-1.5h-3z"/></svg>