<svg viewBox="0 0 16 16" class="svg octicon-unverified" width="16" height="16" aria-hidden="true"><path fill-rule="evenodd" d="M15.67 7.066l-1.08-1.34a1.5 1.5 0 01-.309-.77l-.19-1.698a1.51 1.51 0 00-1.329-1.33l-1.699-.19c-.3-.03-.56-.159-.78-.329L8.945.33a1.504 1.504 0 00-1.878 0l-1.34 1.08a1.5 1.5 0 01-.77.31l-1.698.19c-.7.08-1.25.63-1.33 1.329l-.19 1.699c-.03.3-.159.56-.329.78L.33 7.055a1.504 1.504 0 000 1.878l1.08 1.34c.17.22.28.48.31.77l.19 1.698c.08.7.63 1.25 1.329 1.33l1.699.19c.3.03.56.159.78.329l1.339 1.08c.55.439 1.329.439 1.878 0l1.34-1.08c.22-.17.48-.28.77-.31l1.698-.19c.7-.08 1.25-.63 1.33-1.329l.19-1.699c.03-.3.159-.56.329-.78l1.08-1.339a1.504 1.504 0 000-1.878zM9 11.5c0 .28-.22.5-.5.5h-1c-.27 0-.5-.22-.5-.5v-1c0-.28.23-.5.5-.5h1c.28 0 .5.22.5.5v1zm1.56-4.89c-.06.17-.17.33-.3.47-.13.16-.14.19-.33.38-.16.17-.31.3-.52.45-.11.09-.2.19-.28.27-.08.08-.14.17-.19.27-.05.1-.08.19-.11.3-.03.11-.03.13-.03.25H7.13c0-.22 0-.31.03-.48.03-.19.08-.36.14-.52.06-.14.14-.28.25-.42.11-.13.23-.25.41-.38.27-.19.36-.3.48-.52.12-.22.2-.38.2-.59 0-.27-.06-.45-.2-.58-.13-.13-.31-.19-.58-.19-.09 0-.19.02-.3.05-.11.03-.17.09-.25.16-.08.07-.14.11-.2.2a.41.41 0 00-.09.28h-2c0-.38.13-.56.27-.83.16-.27.36-.5.61-.67.25-.17.55-.3.88-.38.33-.08.7-.13 1.09-.13.44 0 .83.05 1.17.13.34.09.63.22.88.39.23.17.41.38.55.63.13.25.19.55.19.88 0 .22 0 .42-.08.59l-.02-.01z"/></svg>