<svg viewBox="0 0 16 16" class="svg octicon-share" width="16" height="16" aria-hidden="true"><path fill-rule="evenodd" d="M7.823.177L4.927 3.073a.25.25 0 00.177.427H7.25v5.75a.75.75 0 001.5 0V3.5h2.146a.25.25 0 00.177-.427L8.177.177a.25.25 0 00-.354 0zM3.75 6.5a.25.25 0 00-.25.25v6.5c0 .138.112.25.25.25h8.5a.25.25 0 00.25-.25v-6.5a.25.25 0 00-.25-.25h-1a.75.75 0 010-1.5h1c.966 0 1.75.784 1.75 1.75v6.5A1.75 1.75 0 0112.25 15h-8.5A1.75 1.75 0 012 13.25v-6.5C2 5.784 2.784 5 3.75 5h1a.75.75 0 110 1.5h-1z"/></svg>