<svg viewBox="0 0 16 16" class="svg octicon-tasklist" width="16" height="16" aria-hidden="true"><path fill-rule="evenodd" d="M2.5 3.5v3h3v-3h-3zM2 2a1 1 0 0 0-1 1v4a1 1 0 0 0 1 1h4a1 1 0 0 0 1-1V3a1 1 0 0 0-1-1H2zm4.655 8.595a.75.75 0 0 1 0 1.06L4.03 14.28a.75.75 0 0 1-1.06 0l-1.5-1.5a.75.75 0 1 1 1.06-1.06l.97.97 2.095-2.095a.75.75 0 0 1 1.06 0zM9.75 2.5a.75.75 0 0 0 0 1.5h5.5a.75.75 0 0 0 0-1.5h-5.5zm0 5a.75.75 0 0 0 0 1.5h5.5a.75.75 0 0 0 0-1.5h-5.5zm0 5a.75.75 0 0 0 0 1.5h5.5a.75.75 0 0 0 0-1.5h-5.5z"/></svg>