<svg viewBox="0 0 16 16" class="svg octicon-gift" width="16" height="16" aria-hidden="true"><path fill-rule="evenodd" d="M4.75 1.5a1.25 1.25 0 1 0 0 2.5h2.309c-.233-.818-.542-1.401-.878-1.793-.43-.502-.915-.707-1.431-.707zM2 2.75c0 .45.108.875.3 1.25h-.55A1.75 1.75 0 0 0 0 5.75v2c0 .698.409 1.3 1 1.582v4.918c0 .966.784 1.75 1.75 1.75h10.5A1.75 1.75 0 0 0 15 14.25V9.332c.591-.281 1-.884 1-1.582v-2A1.75 1.75 0 0 0 14.25 4h-.55a2.75 2.75 0 0 0-2.45-4c-.984 0-1.874.42-2.57 1.23A5.086 5.086 0 0 0 8 2.274a5.086 5.086 0 0 0-.68-1.042C6.623.42 5.733 0 4.75 0A2.75 2.75 0 0 0 2 2.75zM8.941 4h2.309a1.25 1.25 0 1 0 0-2.5c-.516 0-1 .205-1.43.707-.337.392-.646.975-.879 1.793zm-1.84 1.5H1.75a.25.25 0 0 0-.25.25v2c0 .138.112.25.25.25h5.5V5.5h-.149zm1.649 0V8h5.5a.25.25 0 0 0 .25-.25v-2a.25.25 0 0 0-.25-.25h-5.5zm0 4h4.75v4.75a.25.25 0 0 1-.25.25h-4.5v-5zm-1.5 0v5h-4.5a.25.25 0 0 1-.25-.25V9.5h4.75z"/></svg>