<svg viewBox="0 0 16 16" class="svg octicon-package" width="16" height="16" aria-hidden="true"><path fill-rule="evenodd" d="M8.878.392a1.75 1.75 0 0 0-1.756 0l-5.25 3.045A1.75 1.75 0 0 0 1 4.951v6.098c0 .624.332 1.2.872 1.514l5.25 3.045a1.75 1.75 0 0 0 1.756 0l5.25-3.045c.54-.313.872-.89.872-1.514V4.951c0-.624-.332-1.2-.872-1.514L8.878.392zM7.875 1.69a.25.25 0 0 1 .25 0l4.63 2.685L8 7.133 3.245 4.375l4.63-2.685zM2.5 5.677v5.372c0 .09.047.171.125.216l4.625 2.683V8.432L2.5 5.677zm6.25 8.271 4.625-2.683a.25.25 0 0 0 .125-.216V5.677L8.75 8.432v5.516z"/></svg>