<svg viewBox="0 0 16 16" class="svg octicon-sliders" width="16" height="16" aria-hidden="true"><path d="M15 2.75a.75.75 0 0 1-.75.75h-4a.75.75 0 0 1 0-1.5h4a.75.75 0 0 1 .75.75zm-8.5.75v1.25a.75.75 0 0 0 1.5 0v-4a.75.75 0 0 0-1.5 0V2H1.75a.75.75 0 0 0 0 1.5H6.5zm1.25 5.25a.75.75 0 0 0 0-1.5h-6a.75.75 0 0 0 0 1.5h6zM15 8a.75.75 0 0 1-.75.75H11.5V10a.75.75 0 1 1-1.5 0V6a.75.75 0 0 1 1.5 0v1.25h2.75A.75.75 0 0 1 15 8zm-9 5.25v-2a.75.75 0 0 0-1.5 0v1.25H1.75a.75.75 0 0 0 0 1.5H4.5v1.25a.75.75 0 0 0 1.5 0v-2zm9 0a.75.75 0 0 1-.75.75h-6a.75.75 0 0 1 0-1.5h6a.75.75 0 0 1 .75.75z"/></svg>