<svg viewBox="0 0 16 16" class="svg octicon-rows" width="16" height="16" aria-hidden="true"><path fill-rule="evenodd" d="M16 2.75A1.75 1.75 0 0 0 14.25 1H1.75A1.75 1.75 0 0 0 0 2.75v2.5A1.75 1.75 0 0 0 1.75 7h12.5A1.75 1.75 0 0 0 16 5.25v-2.5zm-1.75-.25a.25.25 0 0 1 .25.25v2.5a.25.25 0 0 1-.25.25H1.75a.25.25 0 0 1-.25-.25v-2.5a.25.25 0 0 1 .25-.25h12.5zM16 10.75A1.75 1.75 0 0 0 14.25 9H1.75A1.75 1.75 0 0 0 0 10.75v2.5A1.75 1.75 0 0 0 1.75 15h12.5A1.75 1.75 0 0 0 16 13.25v-2.5zm-1.75-.25a.25.25 0 0 1 .25.25v2.5a.25.25 0 0 1-.25.25H1.75a.25.25 0 0 1-.25-.25v-2.5a.25.25 0 0 1 .25-.25h12.5z"/></svg>