<svg viewBox="0 0 16 16" class="svg octicon-database" width="16" height="16" aria-hidden="true"><path fill-rule="evenodd" d="M2.5 3.5c0-.133.058-.318.282-.55.227-.237.592-.484 1.1-.708C4.899 1.795 6.354 1.5 8 1.5c1.647 0 3.102.295 4.117.742.51.224.874.47 1.101.707.224.233.282.418.282.551 0 .133-.058.318-.282.55-.227.237-.592.484-1.1.708C11.101 5.205 9.646 5.5 8 5.5c-1.647 0-3.102-.295-4.117-.742-.51-.224-.874-.47-1.101-.707-.224-.233-.282-.418-.282-.551zM1 3.5c0-.626.292-1.165.7-1.59.406-.422.956-.767 1.579-1.041C4.525.32 6.195 0 8 0c1.805 0 3.475.32 4.722.869.622.274 1.172.62 1.578 1.04.408.426.7.965.7 1.591v9c0 .626-.292 1.165-.7 1.59-.406.422-.956.767-1.579 1.041C11.476 15.68 9.806 16 8 16c-1.805 0-3.475-.32-4.721-.869-.623-.274-1.173-.62-1.579-1.04-.408-.426-.7-.965-.7-1.591v-9zM2.5 8V5.724c.241.15.503.286.779.407C4.525 6.68 6.195 7 8 7c1.805 0 3.475-.32 4.722-.869.275-.121.537-.257.778-.407V8c0 .133-.058.318-.282.55-.227.237-.592.484-1.1.708C11.101 9.705 9.646 10 8 10c-1.647 0-3.102-.295-4.117-.742-.51-.224-.874-.47-1.101-.707C2.558 8.318 2.5 8.133 2.5 8zm0 2.225V12.5c0 .133.058.318.282.55.227.237.592.484 1.1.708 1.016.447 2.471.742 4.118.742 1.647 0 3.102-.295 4.117-.742.51-.224.874-.47 1.101-.707.224-.233.282-.418.282-.551v-2.275c-.241.15-.503.285-.778.406-1.247.549-2.917.869-4.722.869-1.805 0-3.475-.32-4.721-.869a6.236 6.236 0 0 1-.779-.406z"/></svg>