<svg viewBox="0 0 16 16" class="svg octicon-issue-draft" width="16" height="16" aria-hidden="true"><path fill-rule="evenodd" d="M6.749.097a8.054 8.054 0 0 1 2.502 0 .75.75 0 1 1-.233 1.482 6.554 6.554 0 0 0-2.036 0A.75.75 0 0 1 6.749.097zM4.345 1.693A.75.75 0 0 1 4.18 2.74a6.542 6.542 0 0 0-1.44 1.44.75.75 0 0 1-1.212-.883 8.042 8.042 0 0 1 1.769-1.77.75.75 0 0 1 1.048.166zm7.31 0a.75.75 0 0 1 1.048-.165 8.04 8.04 0 0 1 1.77 1.769.75.75 0 1 1-1.214.883 6.542 6.542 0 0 0-1.439-1.44.75.75 0 0 1-.165-1.047zM.955 6.125a.75.75 0 0 1 .624.857 6.554 6.554 0 0 0 0 2.036.75.75 0 0 1-1.482.233 8.054 8.054 0 0 1 0-2.502.75.75 0 0 1 .858-.624zm14.09 0a.75.75 0 0 1 .858.624 8.057 8.057 0 0 1 0 2.502.75.75 0 0 1-1.482-.233 6.55 6.55 0 0 0 0-2.036.75.75 0 0 1 .624-.857zm-13.352 5.53a.75.75 0 0 1 1.048.165 6.542 6.542 0 0 0 1.439 1.44.75.75 0 0 1-.883 1.212 8.04 8.04 0 0 1-1.77-1.769.75.75 0 0 1 .166-1.048zm12.614 0a.75.75 0 0 1 .165 1.048 8.038 8.038 0 0 1-1.769 1.77.75.75 0 1 1-.883-1.214 6.543 6.543 0 0 0 1.44-1.439.75.75 0 0 1 1.047-.165zm-8.182 3.39a.75.75 0 0 1 .857-.624 6.55 6.55 0 0 0 2.036 0 .75.75 0 0 1 .233 1.482 8.057 8.057 0 0 1-2.502 0 .75.75 0 0 1-.624-.858z"/></svg>