<svg viewBox="0 0 16 16" class="svg octicon-paperclip" width="16" height="16" aria-hidden="true"><path fill-rule="evenodd" d="M12.212 3.02a1.75 1.75 0 0 0-2.478.003l-5.83 5.83a3.007 3.007 0 0 0-.88 2.127c0 .795.315 1.551.88 2.116.567.567 1.333.89 2.126.89.79 0 1.548-.321 2.116-.89l5.48-5.48a.75.75 0 0 1 1.061 1.06l-5.48 5.48a4.494 4.494 0 0 1-3.177 1.33c-1.2 0-2.345-.487-3.187-1.33a4.485 4.485 0 0 1-1.32-3.177c0-1.195.475-2.341 1.32-3.186l5.83-5.83a3.25 3.25 0 0 1 5.553 2.297c0 .863-.343 1.691-.953 2.301L7.439 12.39a2.01 2.01 0 0 1-1.416.593 2 2 0 0 1-1.412-.593 1.991 1.991 0 0 1 0-2.828l5.48-5.48a.75.75 0 0 1 1.06 1.06l-5.48 5.48a.491.491 0 0 0 0 .707.5.5 0 0 0 .352.154.509.509 0 0 0 .356-.154l5.833-5.827a1.755 1.755 0 0 0 0-2.481z"/></svg>