<svg viewBox="0 0 16 16" class="svg octicon-feed-rocket" width="16" height="16" aria-hidden="true"><path fill-rule="evenodd" d="M8 16A8 8 0 1 0 8 0a8 8 0 0 0 0 16zm3.031-12a4.38 4.38 0 0 0-3.097 1.283l-.23.229c-.156.157-.308.32-.452.49H5.65a.876.876 0 0 0-.746.417l-.856 1.388a.375.375 0 0 0 .21.556l1.552.477 1.35 1.35.478 1.553a.375.375 0 0 0 .555.21l1.389-.855a.876.876 0 0 0 .416-.746V8.747c.17-.144.333-.295.49-.452l.23-.23A4.38 4.38 0 0 0 12 4.969v-.093A.876.876 0 0 0 11.124 4h-.093zm-5.107 7.144a.81.81 0 0 1-.188.263c-.394.394-1.258.563-1.62.619a.124.124 0 0 1-.143-.143c.056-.362.225-1.226.62-1.62a.808.808 0 0 1 1.33.881z"/></svg>