<svg viewBox="0 0 16 16" class="svg octicon-codescan" width="16" height="16" aria-hidden="true"><path d="M8.47 4.97a.75.75 0 0 0 0 1.06L9.94 7.5 8.47 8.97a.75.75 0 1 0 1.06 1.06l2-2a.75.75 0 0 0 0-1.06l-2-2a.75.75 0 0 0-1.06 0zM6.53 6.03a.75.75 0 0 0-1.06-1.06l-2 2a.75.75 0 0 0 0 1.06l2 2a.75.75 0 1 0 1.06-1.06L5.06 7.5l1.47-1.47z"/><path fill-rule="evenodd" d="M12.246 13.307a7.5 7.5 0 1 1 1.06-1.06l2.474 2.473a.75.75 0 1 1-1.06 1.06l-2.474-2.473zM1.5 7.5a6 6 0 1 1 10.386 4.094.75.75 0 0 0-.292.293A6 6 0 0 1 1.5 7.5z"/></svg>