<svg viewBox="0 0 16 16" class="svg octicon-cache" width="16" height="16" aria-hidden="true"><path fill-rule="evenodd" d="M2.5 5.724c.241.15.503.286.779.407C4.525 6.68 6.195 7 8 7c1.805 0 3.475-.32 4.722-.869.622-.274 1.172-.62 1.578-1.04.408-.426.7-.965.7-1.591s-.292-1.165-.7-1.59c-.406-.422-.956-.767-1.579-1.041C11.476.32 9.806 0 8 0 6.195 0 4.525.32 3.279.869c-.623.274-1.173.62-1.579 1.04-.408.426-.7.965-.7 1.591v9c0 .626.292 1.165.7 1.59.406.422.956.767 1.579 1.041C4.525 15.68 6.195 16 8 16c.45 0 .89-.02 1.317-.058a.75.75 0 1 0-.134-1.494c-.381.034-.777.052-1.183.052-1.647 0-3.102-.295-4.117-.742-.51-.224-.874-.47-1.101-.707-.224-.233-.282-.418-.282-.551v-2.276c.164.102.334.196.507.28 1.102.543 2.582.89 4.204.975a.75.75 0 0 0 .078-1.498c-1.476-.077-2.746-.392-3.62-.822C2.738 8.7 2.5 8.248 2.5 8V5.724zm0-2.224c0-.133.058-.318.282-.55.227-.237.592-.484 1.1-.708C4.899 1.795 6.354 1.5 8 1.5c1.647 0 3.102.295 4.117.742.51.224.874.47 1.101.707.224.233.282.418.282.551 0 .133-.058.318-.282.55-.227.237-.592.484-1.1.708C11.101 5.205 9.646 5.5 8 5.5c-1.647 0-3.102-.295-4.117-.742-.51-.224-.874-.47-1.101-.707-.224-.233-.282-.418-.282-.551z"/><path d="M14.49 7.582a.375.375 0 0 0-.66-.313l-3.625 4.625a.375.375 0 0 0 .295.606h2.127l-.619 2.922a.375.375 0 0 0 .666.304l3.125-4.125A.375.375 0 0 0 15.5 11h-1.778l.769-3.418z"/></svg>