<svg viewBox="0 0 16 16" class="svg octicon-apps" width="16" height="16" aria-hidden="true"><path fill-rule="evenodd" d="M1.5 3.25c0-.966.784-1.75 1.75-1.75h2.5c.966 0 1.75.784 1.75 1.75v2.5A1.75 1.75 0 0 1 5.75 7.5h-2.5A1.75 1.75 0 0 1 1.5 5.75v-2.5zM3.25 3a.25.25 0 0 0-.25.25v2.5c0 .138.112.25.25.25h2.5A.25.25 0 0 0 6 5.75v-2.5A.25.25 0 0 0 5.75 3h-2.5zM1.5 10.25c0-.966.784-1.75 1.75-1.75h2.5c.966 0 1.75.784 1.75 1.75v2.5a1.75 1.75 0 0 1-1.75 1.75h-2.5a1.75 1.75 0 0 1-1.75-1.75v-2.5zM3.25 10a.25.25 0 0 0-.25.25v2.5c0 .138.112.25.25.25h2.5a.25.25 0 0 0 .25-.25v-2.5a.25.25 0 0 0-.25-.25h-2.5zM8.5 3.25c0-.966.784-1.75 1.75-1.75h2.5c.966 0 1.75.784 1.75 1.75v2.5a1.75 1.75 0 0 1-1.75 1.75h-2.5A1.75 1.75 0 0 1 8.5 5.75v-2.5zM10.25 3a.25.25 0 0 0-.25.25v2.5c0 .138.112.25.25.25h2.5a.25.25 0 0 0 .25-.25v-2.5a.25.25 0 0 0-.25-.25h-2.5zM8.5 10.25c0-.966.784-1.75 1.75-1.75h2.5c.966 0 1.75.784 1.75 1.75v2.5a1.75 1.75 0 0 1-1.75 1.75h-2.5a1.75 1.75 0 0 1-1.75-1.75v-2.5zm1.75-.25a.25.25 0 0 0-.25.25v2.5c0 .138.112.25.25.25h2.5a.25.25 0 0 0 .25-.25v-2.5a.25.25 0 0 0-.25-.25h-2.5z"/></svg>