<svg viewBox="0 0 16 16" class="svg octicon-log" width="16" height="16" aria-hidden="true"><path d="M5 8.25a.75.75 0 0 1 .75-.75h4a.75.75 0 0 1 0 1.5h-4A.75.75 0 0 1 5 8.25zM4 10.5A.75.75 0 0 0 4 12h4a.75.75 0 0 0 0-1.5H4z"/><path fill-rule="evenodd" d="M13-.005H3a3 3 0 0 0-3 3c0 .676.224 1.254.603 1.722.526.65 1.331.783 1.907.783h1.177c-.364.662-.814 1.339-1.287 2.048-.205.309-.414.624-.623.946C.891 9.865 0 11.418 0 13a3 3 0 0 0 3 3h10a3 3 0 0 0 1.667-5.494.75.75 0 0 0-.834 1.246A1.5 1.5 0 1 1 11.5 13c0-.642.225-1.347.623-2.136.397-.787.933-1.593 1.501-2.446l.011-.017c.554-.83 1.139-1.709 1.582-2.588.445-.885.783-1.836.783-2.818 0-1.672-1.346-3-3-3zm-10 1.5a1.5 1.5 0 0 0-1.5 1.5c0 .321.1.569.27.778.097.12.325.227.74.227h7.674A2.737 2.737 0 0 1 10 2.995c0-.546.146-1.059.401-1.5H3zm10 0c.831 0 1.5.662 1.5 1.5 0 .646-.225 1.353-.623 2.143-.398.79-.933 1.595-1.501 2.448l-.017.026c-.552.828-1.134 1.702-1.575 2.576C10.338 11.072 10 12.021 10 13c0 .546.146 1.059.401 1.5H3A1.5 1.5 0 0 1 1.5 13c0-1.084.63-2.289 1.537-3.692.177-.274.366-.556.558-.845.632-.948 1.306-1.96 1.773-2.963h6.382a.75.75 0 0 0 .417-1.373c-.444-.298-.667-.656-.667-1.132a1.5 1.5 0 0 1 1.5-1.5z"/></svg>