<svg viewBox="0 0 16 16" class="svg octicon-code-of-conduct" width="16" height="16" aria-hidden="true"><path fill-rule="evenodd" d="M8.048 2.241c.964-.709 2.079-1.238 3.325-1.241a4.613 4.613 0 0 1 3.282 1.355c.41.408.757.86.996 1.428.238.568.348 1.206.347 1.968 0 2.193-1.505 4.254-3.081 5.862-1.496 1.526-3.213 2.796-4.249 3.563l-.22.163a.75.75 0 0 1-.895 0l-.221-.163c-1.036-.767-2.753-2.037-4.249-3.563C1.51 10.008.007 7.952.002 5.762a4.614 4.614 0 0 1 1.353-3.407C3.123.585 6.223.537 8.048 2.24zm-1.153.983c-.81.78-1.546 1.669-2.166 2.417-.184.222-.358.432-.52.623a.75.75 0 0 0 .04 1.016c.35.35.697.697 1.043 1.047.866.875 2.292.914 3.185.032.264-.26.534-.528.802-.797.694-.694 1.8-.701 2.474-.03L12.92 8.7l.283.284c-.244.334-.515.666-.81.995l-1.384-1.28A.75.75 0 1 0 9.99 9.802l1.357 1.252c-.325.31-.656.606-.984.887l-1.48-1.366a.75.75 0 1 0-1.018 1.102L9.191 12.9c-.433.34-.838.643-1.191.905-1.04-.773-2.537-1.907-3.846-3.242C2.611 8.99 1.502 7.306 1.502 5.75a3.114 3.114 0 0 1 .913-2.335c1.159-1.158 3.23-1.224 4.48-.191zm7.112 4.442c.313-.65.491-1.293.491-1.916v-.001c0-.614-.088-1.045-.23-1.385-.143-.339-.357-.633-.673-.949a3.113 3.113 0 0 0-2.218-.915c-1.092.003-2.165.627-3.226 1.602-.823.755-1.554 1.637-2.228 2.45l-.127.154.562.566a.756.756 0 0 0 1.066.02l.794-.79c1.258-1.258 3.312-1.31 4.594-.032.396.394.792.791 1.173 1.173l.022.023z"/></svg>