<svg viewBox="0 0 16 16" class="svg octicon-share" width="16" height="16" aria-hidden="true"><path fill-rule="evenodd" d="M7.823.177 4.927 3.073a.25.25 0 0 0 .177.427H7.25v5.75a.75.75 0 0 0 1.5 0V3.5h2.146a.25.25 0 0 0 .177-.427L8.177.177a.25.25 0 0 0-.354 0zM3.75 6.5a.25.25 0 0 0-.25.25v6.5c0 .138.112.25.25.25h8.5a.25.25 0 0 0 .25-.25v-6.5a.25.25 0 0 0-.25-.25h-1a.75.75 0 0 1 0-1.5h1c.966 0 1.75.784 1.75 1.75v6.5A1.75 1.75 0 0 1 12.25 15h-8.5A1.75 1.75 0 0 1 2 13.25v-6.5C2 5.784 2.784 5 3.75 5h1a.75.75 0 1 1 0 1.5h-1z"/></svg>