<svg viewBox="0 0 16 16" class="svg octicon-file-symlink-file" width="16" height="16" aria-hidden="true"><path fill-rule="evenodd" d="M2 1.75C2 .784 2.784 0 3.75 0h5.586c.464 0 .909.184 1.237.513l2.914 2.914c.329.328.513.773.513 1.237v8.586A1.75 1.75 0 0 1 12.25 15h-7a.75.75 0 0 1 0-1.5h7a.25.25 0 0 0 .25-.25V6H9.75A1.75 1.75 0 0 1 8 4.25V1.5H3.75a.25.25 0 0 0-.25.25V4.5a.75.75 0 0 1-1.5 0V1.75zm7.5-.188V4.25c0 .138.112.25.25.25h2.688a.252.252 0 0 0-.011-.013L9.513 1.573a.248.248 0 0 0-.013-.011zm-8 10.675a2.25 2.25 0 0 1 2.262-2.25L4 9.99v1.938c0 .218.26.331.42.183l2.883-2.677a.25.25 0 0 0 0-.366L4.42 6.39a.25.25 0 0 0-.42.183V8.49l-.23-.001A3.75 3.75 0 0 0 0 12.238v1.012a.75.75 0 0 0 1.5 0v-1.013z"/></svg>