<svg viewBox="0 0 16 16" class="svg octicon-list-ordered" width="16" height="16" aria-hidden="true"><path fill-rule="evenodd" d="M2.003 2.5a.5.5 0 0 0-.723-.447l-1.003.5a.5.5 0 0 0 .446.895l.28-.14V6H.5a.5.5 0 0 0 0 1h2.006a.5.5 0 1 0 0-1h-.503V2.5zM5 3.25a.75.75 0 0 1 .75-.75h8.5a.75.75 0 0 1 0 1.5h-8.5A.75.75 0 0 1 5 3.25zm0 5a.75.75 0 0 1 .75-.75h8.5a.75.75 0 0 1 0 1.5h-8.5A.75.75 0 0 1 5 8.25zm0 5a.75.75 0 0 1 .75-.75h8.5a.75.75 0 0 1 0 1.5h-8.5a.75.75 0 0 1-.75-.75zM.924 10.32l.003-.004a.851.851 0 0 1 .144-.153A.66.66 0 0 1 1.5 10c.195 0 .306.068.374.146a.57.57 0 0 1 .128.376c0 .453-.269.682-.8 1.078l-.035.025C.692 11.98 0 12.495 0 13.5a.5.5 0 0 0 .5.5h2.003a.5.5 0 0 0 0-1H1.146c.132-.197.351-.372.654-.597l.047-.035c.47-.35 1.156-.858 1.156-1.845 0-.365-.118-.744-.377-1.038-.268-.303-.658-.484-1.126-.484-.48 0-.84.202-1.068.392a1.858 1.858 0 0 0-.348.384l-.007.011-.002.004-.001.002-.001.001a.5.5 0 0 0 .851.525zM.5 10.055l-.427-.26.427.26z"/></svg>