<svg viewBox="0 0 16 16" class="svg octicon-sun" width="16" height="16" aria-hidden="true"><path fill-rule="evenodd" d="M8 10.5a2.5 2.5 0 1 0 0-5 2.5 2.5 0 0 0 0 5zM8 12a4 4 0 1 0 0-8 4 4 0 0 0 0 8zM8 0a.75.75 0 0 1 .75.75v1.5a.75.75 0 0 1-1.5 0V.75A.75.75 0 0 1 8 0zm0 13a.75.75 0 0 1 .75.75v1.5a.75.75 0 0 1-1.5 0v-1.5A.75.75 0 0 1 8 13zM2.343 2.343a.75.75 0 0 1 1.061 0l1.06 1.061a.75.75 0 0 1-1.06 1.06l-1.06-1.06a.75.75 0 0 1 0-1.06zm9.193 9.193a.75.75 0 0 1 1.06 0l1.061 1.06a.75.75 0 0 1-1.06 1.061l-1.061-1.06a.75.75 0 0 1 0-1.061zM16 8a.75.75 0 0 1-.75.75h-1.5a.75.75 0 0 1 0-1.5h1.5A.75.75 0 0 1 16 8zM3 8a.75.75 0 0 1-.75.75H.75a.75.75 0 0 1 0-1.5h1.5A.75.75 0 0 1 3 8zm10.657-5.657a.75.75 0 0 1 0 1.061l-1.061 1.06a.75.75 0 1 1-1.06-1.06l1.06-1.06a.75.75 0 0 1 1.06 0zm-9.193 9.193a.75.75 0 0 1 0 1.06l-1.06 1.061a.75.75 0 1 1-1.061-1.06l1.06-1.061a.75.75 0 0 1 1.061 0z"/></svg>