<svg viewBox="0 0 16 16" class="svg octicon-file-code" width="16" height="16" aria-hidden="true"><path fill-rule="evenodd" d="M4 1.75C4 .784 4.784 0 5.75 0h5.586c.464 0 .909.184 1.237.513l2.914 2.914c.329.328.513.773.513 1.237v8.586A1.75 1.75 0 0 1 14.25 15h-9a.75.75 0 0 1 0-1.5h9a.25.25 0 0 0 .25-.25V6h-2.75A1.75 1.75 0 0 1 10 4.25V1.5H5.75a.25.25 0 0 0-.25.25v2.5a.75.75 0 0 1-1.5 0v-2.5zm7.5-.188V4.25c0 .138.112.25.25.25h2.688a.252.252 0 0 0-.011-.013l-2.914-2.914a.272.272 0 0 0-.013-.011zM5.72 6.72a.75.75 0 0 0 0 1.06l1.47 1.47-1.47 1.47a.75.75 0 1 0 1.06 1.06l2-2a.75.75 0 0 0 0-1.06l-2-2a.75.75 0 0 0-1.06 0zM3.28 7.78a.75.75 0 0 0-1.06-1.06l-2 2a.75.75 0 0 0 0 1.06l2 2a.75.75 0 0 0 1.06-1.06L1.81 9.25l1.47-1.47z"/></svg>