<svg viewBox="0 0 16 16" class="svg octicon-pin-off" width="16" height="16" aria-hidden="true"><g>
	<path d="M14.779,13.721L11.061,10l2.205-2.204c0.967-0.968,0.5-2.623-0.832-2.94l-0.73-0.174l2.645-2.625
		c0.274-0.272,0.276-0.716,0.004-0.99s-0.717-0.275-0.99-0.004L1.023,13.308c-0.274,0.272-0.276,0.716-0.004,0.99
		c0.137,0.138,0.317,0.207,0.497,0.207c0.178,0,0.356-0.067,0.493-0.203l2.662-2.642l0.184,0.773
		c0.317,1.332,1.972,1.799,2.94,0.832L10,11.061l3.719,3.719c0.006,0.007,0.012,0.014,0.019,0.02
		c0.298,0.287,0.772,0.279,1.061-0.019S15.078,14.008,14.779,13.721z M6.734,12.204c-0.033,0.032-0.074,0.056-0.12,0.066
		c-0.134,0.031-0.269-0.052-0.3-0.187l-0.396-1.661l4.532-4.498l1.634,0.389c0.045,0.011,0.087,0.034,0.119,0.066
		c0.098,0.098,0.098,0.256,0.001,0.354L6.734,12.204z"/>
	<path d="M4.534,7.527C4.509,7.498,4.485,7.471,4.456,7.445c-0.4-0.427-0.727-0.665-1.262-0.912L1.866,5.92
		C1.839,5.908,1.814,5.891,1.793,5.87c-0.097-0.098-0.097-0.256,0-0.354l3.722-3.722c0.021-0.021,0.045-0.038,0.072-0.05
		C5.714,1.686,5.862,1.741,5.92,1.866l0.612,1.327c0.27,0.585,0.409,0.881,0.875,1.293C7.411,4.49,7.415,4.494,7.419,4.498
		C7.426,4.503,7.431,4.51,7.438,4.516l0.003-0.003C7.573,4.632,7.745,4.71,7.937,4.71c0.41,0,0.742-0.332,0.742-0.742
		c0-0.16-0.062-0.3-0.147-0.421L8.539,3.54C8.328,3.246,8.097,3.002,7.895,2.565L7.282,1.238C7.196,1.051,7.077,0.88,6.931,0.734
		c-0.683-0.684-1.791-0.684-2.475,0L0.734,4.456C0.588,4.602,0.469,4.772,0.383,4.959C-0.022,5.837,0.36,6.877,1.238,7.282
		l1.327,0.613c0.428,0.197,0.59,0.272,0.882,0.626c0.135,0.136,0.321,0.22,0.527,0.22c0.41,0,0.742-0.332,0.742-0.742
		c0-0.154-0.058-0.29-0.139-0.409"/>
</g></svg>