<svg viewBox="0 0 13 16" class="svg octicon-list-ordered" width="16" height="16" aria-hidden="true"><path fill-rule="evenodd" d="M12.01 13c0 .59 0 1-.59 1H4.6c-.59 0-.59-.41-.59-1 0-.59 0-1 .59-1h6.81c.59 0 .59.41.59 1h.01zM4.6 4h6.81C12 4 12 3.59 12 3c0-.59 0-1-.59-1H4.6c-.59 0-.59.41-.59 1 0 .59 0 1 .59 1zm6.81 3H4.6c-.59 0-.59.41-.59 1 0 .59 0 1 .59 1h6.81C12 9 12 8.59 12 8c0-.59 0-1-.59-1zm-9.4-6h-.72c-.3.19-.58.25-1.03.34V2h.75v2.14H.17V5h2.84v-.86h-1V1zm.392 8.12c-.129 0-.592.04-.802.07.53-.56 1.14-1.25 1.14-1.89C2.72 6.52 2.18 6 1.38 6c-.59 0-.97.2-1.38.64l.58.58c.19-.19.38-.38.64-.38.28 0 .48.16.48.52 0 .53-.77 1.2-1.7 2.06V10h3v-.88h-.598zm-.222 3.79v-.03c.44-.19.64-.47.64-.86 0-.7-.56-1.11-1.44-1.11-.48 0-.89.19-1.28.52l.55.64c.25-.2.44-.31.69-.31.27 0 .42.13.42.36 0 .27-.2.44-.86.44v.75c.83 0 .98.17.98.47 0 .25-.23.38-.58.38-.28 0-.56-.14-.81-.38l-.48.66c.3.36.77.56 1.41.56.83 0 1.53-.41 1.53-1.16 0-.5-.31-.81-.77-.94v.01z"/></svg>