<svg viewBox="0 0 16 16" class="svg octicon-link" width="16" height="16" aria-hidden="true"><path fill-rule="evenodd" d="M7.775 3.275a.75.75 0 0 0 1.06 1.06l1.25-1.25a2 2 0 1 1 2.83 2.83l-2.5 2.5a2 2 0 0 1-2.83 0 .75.75 0 0 0-1.06 1.06 3.5 3.5 0 0 0 4.95 0l2.5-2.5a3.5 3.5 0 0 0-4.95-4.95l-1.25 1.25zm-4.69 9.64a2 2 0 0 1 0-2.83l2.5-2.5a2 2 0 0 1 2.83 0 .75.75 0 0 0 1.06-1.06 3.5 3.5 0 0 0-4.95 0l-2.5 2.5a3.5 3.5 0 0 0 4.95 4.95l1.25-1.25a.75.75 0 0 0-1.06-1.06l-1.25 1.25a2 2 0 0 1-2.83 0z"/></svg>