<svg viewBox="0 0 16 16" class="svg octicon-infinity" width="16" height="16" aria-hidden="true"><path fill-rule="evenodd" d="M4 6a2 2 0 100 4c.137 0 .402-.073.796-.318a7.49 7.49 0 001.138-.908c.285-.27.543-.542.753-.774a14.22 14.22 0 00-.753-.774 7.49 7.49 0 00-1.138-.908C4.402 6.073 4.137 6 4 6zm5.313 2c.21.232.468.504.753.774.37.35.764.676 1.138.908.394.245.659.318.796.318a2 2 0 100-4c-.137 0-.402.073-.796.318a7.483 7.483 0 00-1.138.908c-.285.27-.543.542-.753.774zM8 9.527a15.45 15.45 0 01-.691.7 9.587 9.587 0 01-1.457 1.154C5.34 11.698 4.69 12 4 12a4 4 0 010-8c.691 0 1.34.302 1.852.62.531.33 1.034.754 1.457 1.154.255.24.489.481.691.699.202-.218.436-.458.691-.7a9.587 9.587 0 011.457-1.154C10.66 4.302 11.31 4 12 4a4 4 0 010 8c-.691 0-1.34-.302-1.852-.62a9.464 9.464 0 01-1.457-1.154A14.47 14.47 0 018 9.527z"/></svg>