<svg viewBox="0 0 16 16" class="svg octicon-thumbsdown" width="16" height="16" aria-hidden="true"><path fill-rule="evenodd" d="M7.083 15.986c1.34.153 2.334-.982 2.334-2.183v-.5c0-1.329.646-2.123 1.317-2.614.329-.24.66-.403.919-.508a1.75 1.75 0 0 0 1.514.872h1a1.75 1.75 0 0 0 1.75-1.75v-7.5a1.75 1.75 0 0 0-1.75-1.75h-1a1.75 1.75 0 0 0-1.662 1.2c-.525-.074-1.068-.228-1.726-.415L9.305.705C8.151.385 6.765.053 4.917.053c-1.706 0-2.97.152-3.722 1.139-.353.463-.537 1.042-.669 1.672C.41 3.424.32 4.108.214 4.897l-.04.306c-.25 1.869-.266 3.318.188 4.316.244.537.622.943 1.136 1.2.495.248 1.066.334 1.669.334h1.422l-.015.112c-.07.518-.157 1.17-.157 1.638 0 .921.151 1.718.655 2.299.512.589 1.248.797 2.011.884zm4.334-13.232c-.706-.089-1.39-.284-2.072-.479a63.914 63.914 0 0 0-.441-.125c-1.096-.304-2.335-.597-3.987-.597-1.794 0-2.28.222-2.529.548-.147.193-.275.505-.393 1.07-.105.502-.188 1.124-.295 1.93l-.04.3c-.25 1.882-.19 2.933.067 3.497a.921.921 0 0 0 .443.48c.208.104.52.175.997.175h1.75c.685 0 1.295.577 1.205 1.335-.022.192-.049.39-.075.586-.066.488-.13.97-.13 1.329 0 .808.144 1.15.288 1.316.137.157.401.303 1.048.377.307.035.664-.237.664-.693v-.5c0-1.922.978-3.127 1.932-3.825a5.862 5.862 0 0 1 1.568-.809V2.754zm1.75 6.798a.25.25 0 0 1-.25-.25v-7.5a.25.25 0 0 1 .25-.25h1a.25.25 0 0 1 .25.25v7.5a.25.25 0 0 1-.25.25h-1z"/></svg>