<svg viewBox="0 0 16 16" class="svg octicon-issue-reopened" width="16" height="16" aria-hidden="true"><path fill-rule="evenodd" d="M8 1.5a6.491 6.491 0 00-5.285 2.715l1.358 1.358A.25.25 0 013.896 6H.25A.25.25 0 010 5.75V2.104a.25.25 0 01.427-.177l1.216 1.216a8 8 0 0114.315 4.03.748.748 0 01-.668.83.75.75 0 01-.824-.676A6.501 6.501 0 008 1.5zM.712 8.004a.75.75 0 01.822.67 6.501 6.501 0 0011.751 3.111l-1.358-1.358a.25.25 0 01.177-.427h3.646a.25.25 0 01.25.25v3.646a.25.25 0 01-.427.177l-1.216-1.216A8 8 0 01.042 8.827a.75.75 0 01.67-.823zM9 11a1 1 0 11-2 0 1 1 0 012 0zm-.25-6.25a.75.75 0 00-1.5 0v3.5a.75.75 0 001.5 0v-3.5z"/></svg>