<svg viewBox="0 0 16 16" class="svg octicon-verified" width="16" height="16" aria-hidden="true"><path fill-rule="evenodd" d="M15.67 7.066l-1.08-1.34a1.5 1.5 0 01-.309-.77l-.19-1.698a1.51 1.51 0 00-1.329-1.33l-1.699-.19c-.3-.03-.56-.159-.78-.329L8.945.33a1.504 1.504 0 00-1.878 0l-1.34 1.08a1.5 1.5 0 01-.77.31l-1.698.19c-.7.08-1.25.63-1.33 1.329l-.19 1.699c-.03.3-.159.56-.329.78L.33 7.055a1.504 1.504 0 000 1.878l1.08 1.34c.17.22.28.48.31.77l.19 1.698c.08.7.63 1.25 1.329 1.33l1.699.19c.3.03.56.159.78.329l1.339 1.08c.55.439 1.329.439 1.878 0l1.34-1.08c.22-.17.48-.28.77-.31l1.698-.19c.7-.08 1.25-.63 1.33-1.329l.19-1.699c.03-.3.159-.56.329-.78l1.08-1.339a1.504 1.504 0 000-1.878zM6.5 12.01L3 8.51l1.5-1.5 2 2 5-5L13 5.56l-6.5 6.45z"/></svg>