<?xml version="1.0" encoding="UTF-8" standalone="no"?>
<!-- Created with Inkscape (http://www.inkscape.org/) -->
<svg xmlns:dc="http://purl.org/dc/elements/1.1/" xmlns:cc="http://creativecommons.org/ns#" xmlns:rdf="http://www.w3.org/1999/02/22-rdf-syntax-ns#" xmlns:svg="http://www.w3.org/2000/svg" xmlns="http://www.w3.org/2000/svg" xmlns:sodipodi="http://sodipodi.sourceforge.net/DTD/sodipodi-0.dtd" xmlns:inkscape="http://www.inkscape.org/namespaces/inkscape" width="155" height="37" id="svg4152" version="1.1" inkscape:version="0.91 r13725" viewBox="0 0 155 37" sodipodi:docname="button.svg" inkscape:export-filename="/home/nebulon/Cloudron/Assets/button_64.png" inkscape:export-xdpi="155.6129" inkscape:export-ydpi="155.6129">
  <defs id="defs4154"/>
  <sodipodi:namedview id="base" pagecolor="#ffffff" bordercolor="#666666" borderopacity="1.0" inkscape:pageopacity="1" inkscape:pageshadow="2" inkscape:zoom="3.6203867" inkscape:cx="121.3823" inkscape:cy="1.1988893" inkscape:current-layer="g4481" showgrid="true" inkscape:document-units="px" inkscape:grid-bbox="true" inkscape:window-width="1280" inkscape:window-height="736" inkscape:window-x="0" inkscape:window-y="27" inkscape:window-maximized="1" showguides="false"/>
  <metadata id="metadata4157">
    <rdf:RDF>
      <cc:Work rdf:about="">
        <dc:format>image/svg+xml</dc:format>
        <dc:type rdf:resource="http://purl.org/dc/dcmitype/StillImage"/>
        <dc:title/>
      </cc:Work>
    </rdf:RDF>
  </metadata>
  <g id="layer1" inkscape:label="Layer 1" inkscape:groupmode="layer" transform="translate(0,-27)">
    <g id="g5138">
      <rect inkscape:export-ydpi="67.349998" inkscape:export-xdpi="67.349998" ry="3.2883968" y="27.493248" x="0.49324799" height="36.013504" width="154.0135" id="rect4424" style="opacity:1;fill:none;fill-opacity:1;stroke:#03a9f4;stroke-width:0.98649561;stroke-miterlimit:4;stroke-dasharray:none;stroke-dashoffset:0;stroke-opacity:1"/>
      <g transform="translate(-17.67767,3.2702403)" id="g4467">
        <g id="g4382" transform="matrix(0.59473169,0,0,0.59473169,31.04719,102.48374)" inkscape:export-xdpi="67.349998" inkscape:export-ydpi="67.349998">
          <g id="g4496">
            <path inkscape:export-ydpi="67.349998" inkscape:export-xdpi="67.349998" transform="matrix(0.8660254,-0.49999999,0.49999999,0.8660254,51.102849,-7.8015133)" d="m 29.166669,-109.50348 c 1.200386,2.08567 1.17988,17.183595 -0.02617,19.265993 -1.206046,2.082397 -14.291486,9.613601 -16.697919,9.610333 -2.406432,-0.0033 -15.4713664,-7.56999 -16.671752,-9.655655 -1.2003857,-2.085666 -1.1798799,-17.183591 0.026167,-19.265991 1.2060467,-2.0824 14.2914862,-9.6136 16.6979192,-9.61033 2.406432,0.003 15.471366,7.56999 16.671752,9.65565 z" inkscape:randomized="0" inkscape:rounded="0.12490573" inkscape:flatsided="true" sodipodi:arg2="0.0013581913" sodipodi:arg1="-0.52224059" sodipodi:r2="16.307295" sodipodi:r1="19.266006" sodipodi:cy="-99.893143" sodipodi:cx="12.46875" sodipodi:sides="6" id="path4162" style="opacity:1;fill:#03a9f4;fill-opacity:1;stroke:none;stroke-width:1.10000002;stroke-miterlimit:4;stroke-dasharray:none;stroke-dashoffset:0;stroke-opacity:1" sodipodi:type="star"/>
            <rect style="opacity:1;fill:#ffffff;fill-opacity:1;stroke:none;stroke-width:2.29999995;stroke-miterlimit:4;stroke-dasharray:none;stroke-dashoffset:0;stroke-opacity:1" id="rect4168-1-1" width="8.7434387" height="8.7434387" x="2.2207832" y="-104.9176" ry="2.4183984" inkscape:transform-center-x="0.40624986"/>
            <g id="g4491" transform="translate(0,0.14463441)">
              <rect ry="2.4183986" y="-98.734459" x="9.0890703" height="8.7434387" width="8.7434387" id="rect4168-1-1-7" style="opacity:1;fill:#ffffff;fill-opacity:1;stroke:none;stroke-width:2.29999995;stroke-miterlimit:4;stroke-dasharray:none;stroke-dashoffset:0;stroke-opacity:1"/>
              <rect ry="2.4183986" y="-111.39002" x="9.0890703" height="8.7434387" width="8.7434387" id="rect4168-1-1-7-2" style="opacity:1;fill:#ffffff;fill-opacity:1;stroke:none;stroke-width:2.29999995;stroke-miterlimit:4;stroke-dasharray:none;stroke-dashoffset:0;stroke-opacity:1"/>
            </g>
          </g>
        </g>
      </g>
      <g style="fill:#03a9f4;fill-opacity:1" transform="translate(0,-12.132814)" id="g4481">
        <g style="font-style:normal;font-variant:normal;font-weight:500;font-stretch:normal;font-size:16.17625046px;line-height:100%;font-family:'Maven Pro';-inkscape-font-specification:'Maven Pro, Medium';text-align:start;letter-spacing:0px;word-spacing:0px;writing-mode:lr-tb;text-anchor:start;fill:#03a9f4;fill-opacity:1;stroke:none;stroke-width:1px;stroke-linecap:butt;stroke-linejoin:miter;stroke-opacity:1" id="text4135">
          <path d="m 41.656508,62.625017 c -2.555847,0 -3.639656,-1.261747 -3.639656,-4.173473 0,-2.927901 1.083809,-4.173472 3.639656,-4.173472 1.16469,0 2.216146,0.274996 3.122016,0.679402 l 0,-1.391157 c -0.970575,-0.38823 -2.07056,-0.64705 -3.299955,-0.64705 -2.280851,0 -5.014637,0.954399 -5.014637,5.532277 0,4.577879 2.733786,5.532278 5.014637,5.532278 1.229395,0 2.32938,-0.25882 3.299955,-0.64705 l 0,-1.391157 c -0.90587,0.404406 -1.957326,0.679402 -3.122016,0.679402 z" style="font-style:normal;font-variant:normal;font-weight:500;font-stretch:normal;font-size:16.17625046px;line-height:100%;font-family:'Maven Pro';-inkscape-font-specification:'Maven Pro, Medium';text-align:start;writing-mode:lr-tb;text-anchor:start;fill:#03a9f4;fill-opacity:1" id="path4149"/>
          <path d="m 47.031573,52.708976 0,11.145436 1.488215,0 0,-11.145436 -1.488215,0 z" style="font-style:normal;font-variant:normal;font-weight:500;font-stretch:normal;font-size:16.17625046px;line-height:100%;font-family:'Maven Pro';-inkscape-font-specification:'Maven Pro, Medium';text-align:start;writing-mode:lr-tb;text-anchor:start;fill:#03a9f4;fill-opacity:1" id="path4151"/>
          <path d="m 54.478208,55.669229 c -1.730858,0 -3.801418,0.727932 -3.801418,4.157297 0,3.429365 2.07056,4.157296 3.801418,4.157296 1.730859,0 3.801419,-0.727931 3.801419,-4.157296 0,-3.429365 -2.07056,-4.157297 -3.801419,-4.157297 z m 0,7.004317 c -1.213218,0 -2.313203,-0.339701 -2.313203,-2.84702 0,-2.507319 1.099985,-2.84702 2.313203,-2.84702 1.213219,0 2.313204,0.339701 2.313204,2.84702 0,2.507319 -1.099985,2.84702 -2.313204,2.84702 z" style="font-style:normal;font-variant:normal;font-weight:500;font-stretch:normal;font-size:16.17625046px;line-height:100%;font-family:'Maven Pro';-inkscape-font-specification:'Maven Pro, Medium';text-align:start;writing-mode:lr-tb;text-anchor:start;fill:#03a9f4;fill-opacity:1" id="path4153"/>
          <path d="m 65.458345,55.782463 0,4.78817 c 0,1.472039 -0.598521,2.119089 -1.924974,2.119089 -1.342629,0 -1.94115,-0.64705 -1.94115,-2.119089 l 0,-4.78817 -1.472039,0 0,4.674936 c 0,2.248499 1.245572,3.542599 3.413189,3.542599 2.167618,0 3.413189,-1.2941 3.413189,-3.542599 l 0,-4.674936 -1.488215,0 z" style="font-style:normal;font-variant:normal;font-weight:500;font-stretch:normal;font-size:16.17625046px;line-height:100%;font-family:'Maven Pro';-inkscape-font-specification:'Maven Pro, Medium';text-align:start;writing-mode:lr-tb;text-anchor:start;fill:#03a9f4;fill-opacity:1" id="path4155"/>
          <path d="m 69.133133,59.713292 c 0,3.720538 2.232322,4.27053 3.574951,4.27053 3.089664,0 3.332308,-2.005855 3.332308,-2.620552 l 0,-8.654294 -1.472039,0 0,3.186721 c -0.566169,-0.161763 -1.132338,-0.242644 -1.730859,-0.242644 -1.68233,0 -3.704361,0.711755 -3.704361,4.060239 z m 1.472039,0 c 0,-2.410261 1.083808,-2.749963 2.232322,-2.749963 0.598521,0 1.180866,0.113234 1.730859,0.339702 l 0,4.157296 c 0,0.808813 -0.630874,1.213219 -1.860269,1.213219 -0.986751,0 -2.102912,-0.339701 -2.102912,-2.960254 z" style="font-style:normal;font-variant:normal;font-weight:500;font-stretch:normal;font-size:16.17625046px;line-height:100%;font-family:'Maven Pro';-inkscape-font-specification:'Maven Pro, Medium';text-align:start;writing-mode:lr-tb;text-anchor:start;fill:#03a9f4;fill-opacity:1" id="path4157"/>
          <path d="m 79.727313,57.351559 c 0.630874,-0.161762 1.488215,-0.323525 2.442614,-0.339701 l 0,-1.358805 c -2.167618,0 -3.849948,0.77646 -3.930829,0.808813 l 0,7.392546 1.488215,0 0,-6.502853 z" style="font-style:normal;font-variant:normal;font-weight:500;font-stretch:normal;font-size:16.17625046px;line-height:100%;font-family:'Maven Pro';-inkscape-font-specification:'Maven Pro, Medium';text-align:start;writing-mode:lr-tb;text-anchor:start;fill:#03a9f4;fill-opacity:1" id="path4159"/>
          <path d="m 86.957085,55.669229 c -1.730859,0 -3.801419,0.727932 -3.801419,4.157297 0,3.429365 2.07056,4.157296 3.801419,4.157296 1.730858,0 3.801418,-0.727931 3.801418,-4.157296 0,-3.429365 -2.07056,-4.157297 -3.801418,-4.157297 z m 0,7.004317 c -1.213219,0 -2.313204,-0.339701 -2.313204,-2.84702 0,-2.507319 1.099985,-2.84702 2.313204,-2.84702 1.213218,0 2.313203,0.339701 2.313203,2.84702 0,2.507319 -1.099985,2.84702 -2.313203,2.84702 z" style="font-style:normal;font-variant:normal;font-weight:500;font-stretch:normal;font-size:16.17625046px;line-height:100%;font-family:'Maven Pro';-inkscape-font-specification:'Maven Pro, Medium';text-align:start;writing-mode:lr-tb;text-anchor:start;fill:#03a9f4;fill-opacity:1" id="path4161"/>
          <path d="m 94.118867,63.854412 0,-6.551381 c 0.501464,-0.161763 1.16469,-0.291173 1.892621,-0.291173 1.617625,0 1.827916,0.77646 1.827916,1.536744 l 0,5.30581 1.488215,0 0,-5.208753 c 0,-1.876445 -1.213218,-3.008782 -3.251426,-3.008782 -1.892621,0 -3.380836,0.808812 -3.445541,0.841165 l 0,7.37637 1.488215,0 z" style="font-style:normal;font-variant:normal;font-weight:500;font-stretch:normal;font-size:16.17625046px;line-height:100%;font-family:'Maven Pro';-inkscape-font-specification:'Maven Pro, Medium';text-align:start;writing-mode:lr-tb;text-anchor:start;fill:#03a9f4;fill-opacity:1" id="path4163"/>
        </g>
        <g style="font-style:normal;font-weight:normal;font-size:32.19625854px;line-height:125%;font-family:sans-serif;letter-spacing:0px;word-spacing:0px;fill:#03a9f4;fill-opacity:1;stroke:none;stroke-width:1px;stroke-linecap:butt;stroke-linejoin:miter;stroke-opacity:1" id="text4477">
          <path d="m 105.24414,53.529928 0,-1.351991 1.41487,0 0,1.351991 -1.41487,0 z m 0,10.312865 0,-8.504969 1.41487,0 0,8.504969 -1.41487,0 z" style="font-style:normal;font-variant:normal;font-weight:normal;font-stretch:normal;font-size:16.09812927px;line-height:125%;font-family:Arimo;-inkscape-font-specification:'Arimo, Normal';text-align:start;writing-mode:lr-tb;text-anchor:start;fill:#03a9f4;fill-opacity:1" id="path4156"/>
          <path d="m 114.23645,63.842793 0,-5.392245 q 0,-0.841064 -0.16507,-1.304829 -0.16507,-0.463764 -0.52665,-0.668135 -0.36158,-0.204371 -1.06115,-0.204371 -1.02186,0 -1.61139,0.699577 -0.58953,0.699577 -0.58953,1.941523 l 0,4.92848 -1.41487,0 0,-6.689213 q 0,-1.485619 -0.0472,-1.815756 l 1.33628,0 q 0.008,0.0393 0.0157,0.212231 0.008,0.172929 0.0157,0.400881 0.0157,0.220092 0.0314,0.841065 l 0.0236,0 q 0.48735,-0.880367 1.12404,-1.241946 0.64455,-0.369439 1.59566,-0.369439 1.39916,0 2.04371,0.699576 0.65242,0.691717 0.65242,2.295242 l 0,5.667359 -1.42274,0 z" style="font-style:normal;font-variant:normal;font-weight:normal;font-stretch:normal;font-size:16.09812927px;line-height:125%;font-family:Arimo;-inkscape-font-specification:'Arimo, Normal';text-align:start;writing-mode:lr-tb;text-anchor:start;fill:#03a9f4;fill-opacity:1" id="path4158"/>
          <path d="m 124.17987,61.492529 q 0,1.202643 -0.9118,1.855057 -0.90395,0.652415 -2.53892,0.652415 -1.5878,0 -2.45245,-0.518788 -0.85678,-0.526647 -1.11618,-1.634966 l 1.24981,-0.243673 q 0.18079,0.683856 0.74674,1.006133 0.56595,0.314417 1.57208,0.314417 1.07688,0 1.57209,-0.330137 0.50306,-0.330138 0.50306,-0.990413 0,-0.503066 -0.34586,-0.817483 -0.34585,-0.314416 -1.11618,-0.518787 l -1.01399,-0.267254 q -1.21836,-0.314417 -1.73715,-0.613113 -0.51093,-0.306556 -0.80176,-0.738879 -0.29084,-0.432322 -0.29084,-1.061156 0,-1.163341 0.82535,-1.768593 0.8332,-0.613112 2.421,-0.613112 1.40702,0 2.23236,0.495206 0.83321,0.495206 1.0533,1.587804 l -1.27339,0.157208 q -0.11791,-0.56595 -0.63669,-0.864646 -0.51093,-0.306556 -1.37558,-0.306556 -0.95897,0 -1.41487,0.290836 -0.45591,0.290835 -0.45591,0.880366 0,0.361579 0.18865,0.597391 0.18865,0.235813 0.55809,0.400882 0.36944,0.165068 1.55637,0.455904 1.12404,0.282975 1.61924,0.526647 0.49521,0.235813 0.77818,0.526648 0.29084,0.290836 0.44805,0.675996 0.1572,0.3773 0.1572,0.864646 z" style="font-style:normal;font-variant:normal;font-weight:normal;font-stretch:normal;font-size:16.09812927px;line-height:125%;font-family:Arimo;-inkscape-font-specification:'Arimo, Normal';text-align:start;writing-mode:lr-tb;text-anchor:start;fill:#03a9f4;fill-opacity:1" id="path4160"/>
          <path d="m 129.11621,63.779909 q -0.69957,0.18865 -1.43059,0.18865 -1.69785,0 -1.69785,-1.925801 l 0,-5.67522 -0.98255,0 0,-1.029714 1.03757,0 0.4166,-1.902221 0.94325,0 0,1.902221 1.57209,0 0,1.029714 -1.57209,0 0,5.368663 q 0,0.613113 0.19651,0.864646 0.20438,0.243673 0.69958,0.243673 0.28298,0 0.81748,-0.110046 l 0,1.045435 z" style="font-style:normal;font-variant:normal;font-weight:normal;font-stretch:normal;font-size:16.09812927px;line-height:125%;font-family:Arimo;-inkscape-font-specification:'Arimo, Normal';text-align:start;writing-mode:lr-tb;text-anchor:start;fill:#03a9f4;fill-opacity:1" id="path4164"/>
          <path d="m 132.48047,64.000001 q -1.28124,0 -1.9258,-0.675996 -0.64455,-0.675996 -0.64455,-1.855058 0,-1.320549 0.86464,-2.027987 0.87251,-0.707437 2.80617,-0.7546 l 1.91008,-0.03144 0,-0.463765 q 0,-1.037574 -0.44018,-1.485618 -0.44018,-0.448044 -1.38343,-0.448044 -0.95111,0 -1.38344,0.322277 -0.43232,0.322277 -0.51878,1.029715 l -1.47776,-0.133627 q 0.36158,-2.295241 3.41142,-2.295241 1.60352,0 2.41314,0.738879 0.80963,0.731018 0.80963,2.122311 l 0,3.662954 q 0,0.628833 0.16507,0.95111 0.16506,0.314416 0.62883,0.314416 0.20437,0 0.46376,-0.05502 l 0,0.880366 q -0.5345,0.125767 -1.09259,0.125767 -0.78605,0 -1.14762,-0.408742 -0.35372,-0.416602 -0.40089,-1.296968 l -0.0472,0 q -0.54237,0.974691 -1.26553,1.383433 -0.71529,0.400881 -1.74501,0.400881 z m 0.32228,-1.061156 q 0.77818,0 1.38343,-0.353719 0.60525,-0.353718 0.95111,-0.966831 0.35372,-0.620973 0.35372,-1.273387 l 0,-0.699577 -1.5485,0.03144 q -0.99827,0.01572 -1.51706,0.204371 -0.51093,0.188649 -0.78604,0.58167 -0.27512,0.393021 -0.27512,1.029715 0,0.691716 0.36944,1.069016 0.3773,0.3773 1.06902,0.3773 z" style="font-style:normal;font-variant:normal;font-weight:normal;font-stretch:normal;font-size:16.09812927px;line-height:125%;font-family:Arimo;-inkscape-font-specification:'Arimo, Normal';text-align:start;writing-mode:lr-tb;text-anchor:start;fill:#03a9f4;fill-opacity:1" id="path4166"/>
          <path d="m 139.27187,63.842793 0,-11.664856 1.41488,0 0,11.664856 -1.41488,0 z" style="font-style:normal;font-variant:normal;font-weight:normal;font-stretch:normal;font-size:16.09812927px;line-height:125%;font-family:Arimo;-inkscape-font-specification:'Arimo, Normal';text-align:start;writing-mode:lr-tb;text-anchor:start;fill:#03a9f4;fill-opacity:1" id="path4168"/>
          <path d="m 142.85622,63.842793 0,-11.664856 1.41488,0 0,11.664856 -1.41488,0 z" style="font-style:normal;font-variant:normal;font-weight:normal;font-stretch:normal;font-size:16.09812927px;line-height:125%;font-family:Arimo;-inkscape-font-specification:'Arimo, Normal';text-align:start;writing-mode:lr-tb;text-anchor:start;fill:#03a9f4;fill-opacity:1" id="path4170"/>
        </g>
      </g>
    </g>
  </g>
</svg>