<svg xmlns="http://www.w3.org/2000/svg" fill="none" viewBox="0 0 16 16" class="svg forkana-target" width="16" height="16" aria-hidden="true"><path fill="#1f2328" fill-rule="evenodd" d="M14.012 4.138a.7.7 0 0 0 .487-.202l1.274-1.273a.184.184 0 0 0-.094-.31l-1.693-.34-.338-1.692a.184.184 0 0 0-.31-.094l-1.274 1.274a.7.7 0 0 0-.202.487v1.37L8.504 6.716a1.38 1.38 0 1 0 .78.78l3.358-3.358z" clip-rule="evenodd"/><path fill="#1f2328" fill-rule="evenodd" d="M1.103 8a6.897 6.897 0 0 1 8.8-6.63.552.552 0 0 0 .304-1.062 8 8 0 1 0 5.485 5.485.552.552 0 0 0-1.061.304A6.897 6.897 0 1 1 1.104 8" clip-rule="evenodd"/><path fill="#1f2328" fill-rule="evenodd" d="M4.414 8a3.586 3.586 0 0 1 3.999-3.563.552.552 0 1 0 .125-1.096 4.69 4.69 0 1 0 4.12 4.113.552.552 0 0 0-1.096.127q.024.206.024.419a3.586 3.586 0 1 1-7.172 0" clip-rule="evenodd"/></svg>