<svg xmlns="http://www.w3.org/2000/svg" xml:space="preserve" viewBox="0 0 186 162" class="svg gitea-alpine" width="16" height="16" aria-hidden="true"><g fill="#0d597f"><path d="M67 100.75V81.125L52.875 95.25a41.588 41.588 0 0 0 4.3 2.637c1.35.71 2.613 1.25 3.787 1.676a21.12 21.12 0 0 0 3.275.887c1.006.184 1.926.266 2.763.278m72.25-1.625c.025.02.163.137.416.298.255.163.628.372 1.123.578.494.205 1.111.409 1.85.56.745.152 1.612.252 2.625.252.838 0 1.762-.073 2.775-.25a20.93 20.93 0 0 0 3.3-.873 29.25 29.25 0 0 0 3.837-1.676 41.805 41.805 0 0 0 4.375-2.674l-10.712-10.5-35.5-35.625-15.625 15.625-21-21.625-52.75 52.125c1.55 1.075 3 1.95 4.362 2.675a28.324 28.324 0 0 0 3.838 1.675c1.189.414 2.287.696 3.3.872 1.012.178 1.937.251 2.775.251 1.005 0 1.875-.1 2.625-.252a9.726 9.726 0 0 0 1.85-.561c.495-.205.866-.414 1.121-.577s.393-.278.418-.3l23.875-23.875 8.512-8.162 23.625 23.625 8.238 8.475c.024.021.162.137.417.299.255.162.626.37 1.121.577.495.205 1.113.409 1.85.56.745.153 1.625.253 2.625.253.838 0 1.763-.074 2.775-.25a20.966 20.966 0 0 0 3.3-.874 29.323 29.323 0 0 0 3.838-1.675 41.805 41.805 0 0 0 4.375-2.675l-18.875-18.5 3.525-3.525 16.375 16.375 9.55 9.462m-.204-98.75 46.5 80.625-46.5 80.625H46.05L-.45 81.066 46.05.441z"/><path d="M110.75 77 98.363 64.625l.88-.886 12.476 12.337z"/></g></svg>