<svg xmlns="http://www.w3.org/2000/svg" viewBox="0 0 32 32" class="svg gitea-conda" width="16" height="16" aria-hidden="true"><path fill="#43b02a" fill-rule="evenodd" stroke="#43b02a" stroke-width=".068" d="M16.559 8.137a7.2 7.2 0 0 0-1.234-1.708 7.586 7.586 0 0 0-.19 2.183 5.161 5.161 0 0 1 1.424-.475ZM13.617 9.466a7.992 7.992 0 0 0-1.993-1.2 8.123 8.123 0 0 0 .885 2.183c0 .063.443-.475 1.108-.981ZM17.445 7.188a9.143 9.143 0 0 1 1.3-2.246A7.585 7.585 0 0 0 17 2.854a8.35 8.35 0 0 0-1.3 2.278 8.451 8.451 0 0 1 1.74 2.056ZM11.592 11.744a10.276 10.276 0 0 0-2.692-.158 7.478 7.478 0 0 0 1.93 1.9 6.858 6.858 0 0 1 .759-1.74zM6.878 15.161a7.44 7.44 0 0 1 2.942-1.139 10.019 10.019 0 0 1-2.056-2.278 7.639 7.639 0 0 0-2.847 1.2 7.11 7.11 0 0 0 1.961 2.215zM10.516 14.876a6.16 6.16 0 0 0-2.815.886 9.936 9.936 0 0 0 2.815 1.2 7.683 7.683 0 0 1 0-2.088zM14.281 5.543A7.839 7.839 0 0 0 11.592 4.4 8.361 8.361 0 0 0 11.4 7a8.875 8.875 0 0 1 2.47 1.264 10.292 10.292 0 0 1 .411-2.721ZM24.025 3.234a20.488 20.488 0 0 1 .917 4.112 6.823 6.823 0 0 0-3.068 1.519 7.443 7.443 0 0 1 1.55 1.044 1.351 1.351 0 0 0 1.645.316 36.938 36.938 0 0 0 2.721-2.72 1.273 1.273 0 0 0-.159-1.835 20.521 20.521 0 0 0-3.606-2.436ZM4.379 12.06a8.67 8.67 0 0 1 2.847-1.26 7.763 7.763 0 0 1-.759-2.974 14.687 14.687 0 0 0-2.088 4.234ZM11.339 10.668a9.991 9.991 0 0 1-.949-2.784 7.928 7.928 0 0 0-2.911-.126 7.312 7.312 0 0 0 .791 2.879 9.664 9.664 0 0 1 3.069.031ZM6.119 15.73a8.894 8.894 0 0 1-2.025-2.373 14.208 14.208 0 0 0-.063 4.9 8.522 8.522 0 0 1 2.088-2.527Z"/><path fill="#43b02a" fill-rule="evenodd" stroke="#43b02a" stroke-width=".068" d="M22.538 3.487A7.581 7.581 0 0 0 20.323 5.1a11.789 11.789 0 0 1 .823 2.5 9.775 9.775 0 0 1 2.309-1.329 6.593 6.593 0 0 0-.917-2.784ZM19.374 6.3a8.608 8.608 0 0 0-.822 1.676 9.645 9.645 0 0 1 1.329.19 7.568 7.568 0 0 0-.507-1.866ZM19.659 3.9a9.577 9.577 0 0 1 2.056-1.487A15.38 15.38 0 0 0 18.046 2a9.709 9.709 0 0 1 1.613 1.9Z"/><path fill="#43b02a" d="M27.378 23.892c-1.993-1.9-2.4-3.132-4.081-1.835a7.837 7.837 0 0 1-12.591-4.144A10.179 10.179 0 0 1 6.878 16.3a9.427 9.427 0 0 0-2.562 3.321h-.032C7.163 30.5 21.178 33.035 27.663 26.233c1.076-1.139.095-1.933-.285-2.341M6.309 20.855a7.559 7.559 0 0 1 .917-2.025 6.872 6.872 0 0 0 2.151.538c1.013 2.689 4.556 6.264 8.922 6.264a9.632 9.632 0 0 0 6.3-2.309 12.841 12.841 0 0 1 1.772 1.771c.095.127.095.159.095.159-5.766 5.03-15.538 4.302-20.157-4.398"/><path fill="#43b02a" fill-rule="evenodd" stroke="#43b02a" stroke-width=".067" d="M10.67 4.11a19.934 19.934 0 0 0-.214 2.509 10.512 10.512 0 0 0-2.689-.093A18 18 0 0 1 10.67 4.11ZM12.26 3.274a9.107 9.107 0 0 1 2.445 1.053 14.083 14.083 0 0 1 1.253-2.137 12.106 12.106 0 0 0-3.698 1.084z"/></svg>