<svg xmlns="http://www.w3.org/2000/svg" viewBox="0 0 14 16" class="svg gitea-lock-cog" width="16" height="16" aria-hidden="true"><path d="M12.5 7h-.75V4.75C11.75 2.131 9.619 0 7 0S2.25 2.131 2.25 4.75V7H1.5A1.5 1.5 0 0 0 0 8.5v6A1.5 1.5 0 0 0 1.5 16h11a1.5 1.5 0 0 0 1.5-1.5v-6A1.5 1.5 0 0 0 12.5 7M9.25 7h-4.5V4.75C4.75 3.51 5.76 2.5 7 2.5s2.25 1.01 2.25 2.25z"/><path fill="#fff" fill-rule="evenodd" d="M6.433 10.244q-.508.237-.7.765-.192.527.045 1.036.237.508.764.7.528.192 1.036-.045.509-.237.7-.765.193-.527-.044-1.036-.237-.508-.765-.7-.528-.192-1.036.045zM4.765 8.032l1.065-.497q.057-.027.128-.013.07.014.107.067l.548.825q.302-.03.524-.017.162-.28.423-.822.035-.074.097-.103.063-.03.13-.009.239.047.74.234.502.186.551.292.027.057.015.145l-.21.903q.21.16.386.352.689-.228.958-.277.15-.03.214.11l.497 1.065q.031.067.014.136-.017.07-.077.103l-.82.546q.032.271.023.515l.83.437q.065.027.098.1.032.067.003.144-.265.86-.436 1.167-.033.056-.095.085-.058.027-.128.013-.135-.025-.433-.096-.3-.07-.46-.1-.179.24-.382.417l.28.938q.019.067-.014.13-.032.061-.094.09l-1.065.497q-.058.026-.128.013-.071-.014-.105-.062l-.55-.83q-.253.036-.53.019-.183.32-.422.822-.035.074-.093.101-.048.023-.13.009-.231-.045-.736-.233-.505-.187-.554-.293-.03-.062-.01-.147l.204-.901q-.209-.16-.386-.352-.688.228-.957.277-.15.03-.215-.11l-.496-1.065q-.032-.067-.014-.136.017-.07.077-.104l.82-.545q-.033-.271-.024-.515l-.83-.442q-.064-.023-.098-.095-.029-.062-.008-.142.283-.885.447-1.172.023-.051.09-.082.057-.027.128-.014.134.026.433.096.299.071.459.102.182-.237.378-.416l-.275-.94q-.02-.067.013-.13.033-.061.095-.09z"/></svg>