<svg xmlns="http://www.w3.org/2000/svg" xml:space="preserve" viewBox="0 0 59.5 59.5" class="svg gitea-swift" width="16" height="16" aria-hidden="true"><path fill="#F05138" d="M59.387 16.45a82.463 82.463 0 0 0-.027-1.792c-.034-1.301-.111-2.614-.343-3.9-.234-1.308-.618-2.523-1.222-3.71a12.464 12.464 0 0 0-5.452-5.452C51.156.992 49.94.609 48.635.374c-1.287-.232-2.6-.308-3.902-.343a85.714 85.714 0 0 0-1.792-.027C42.231 0 41.522 0 40.813 0H18.578c-.71 0-1.418 0-2.127.004-.598.004-1.196.01-1.793.027-.325.008-.651.02-.978.036-.978.047-1.959.133-2.924.307-.98.176-1.908.436-2.811.81A12.503 12.503 0 0 0 3.89 3.89a12.46 12.46 0 0 0-2.294 3.158C.992 8.235.61 9.45.374 10.758c-.231 1.286-.308 2.599-.343 3.9a85.767 85.767 0 0 0-.027 1.792C-.001 17.16 0 17.869 0 18.578v22.234c0 .71 0 1.419.004 2.129.004.597.01 1.194.027 1.79.035 1.302.112 2.615.343 3.902.235 1.306.618 2.522 1.222 3.71a12.457 12.457 0 0 0 5.453 5.453c1.186.603 2.401.986 3.707 1.22 1.287.232 2.6.309 3.902.344.597.016 1.195.023 1.793.026.709.005 1.418.004 2.127.004h22.235c.71 0 1.419.001 2.128-.004.598-.003 1.195-.01 1.792-.026 1.302-.035 2.615-.112 3.902-.344 1.306-.234 2.521-.617 3.708-1.221a12.461 12.461 0 0 0 5.452-5.453c.604-1.187.988-2.403 1.223-3.71.23-1.286.308-2.599.342-3.9.017-.597.023-1.194.027-1.791.005-.71.004-1.42.004-2.129V18.578c0-.71 0-1.419-.004-2.128z"/><path fill="#fff" d="m47.061 36.661-.004-.005c.066-.223.133-.446.19-.675 2.466-9.82-3.55-21.432-13.731-27.545 4.461 6.048 6.434 13.373 4.681 19.78-.156.572-.344 1.12-.552 1.653-.225-.148-.51-.316-.89-.526 0 0-10.128-6.253-21.104-17.312-.288-.29 5.853 8.776 12.822 16.14-3.283-1.843-12.434-8.5-18.227-13.802.712 1.186 1.559 2.33 2.49 3.43 4.837 6.135 11.145 13.704 18.703 19.517-5.31 3.25-12.814 3.502-20.285.003a30.646 30.646 0 0 1-5.193-3.098c3.162 5.058 8.033 9.423 13.96 11.97 7.07 3.039 14.1 2.833 19.337.05l-.004.007.079-.047c.215-.116.428-.233.637-.358 2.516-1.306 7.485-2.63 10.152 2.559.653 1.27 2.041-5.46-3.062-11.739z"/></svg>