<svg xmlns="http://www.w3.org/2000/svg" viewBox="0 0 16 16" class="svg gitea-issue-dependent" width="16" height="16" aria-hidden="true"><path d="m10.56 14.134 1.728-1.816H7.5a1.105 1.105 0 0 1 0-2.209h4.788L10.56 8.294a1.105 1.105 0 1 1 1.601-1.523l3.502 3.682a1.105 1.105 0 0 1 0 1.522l-3.502 3.682a1.105 1.105 0 0 1-1.6-1.523Z"/><path d="M15.964 2.535A2.535 2.535 0 0 0 13.43 0H2.567A2.536 2.536 0 0 0 .032 2.535v10.862a2.535 2.535 0 0 0 2.535 2.535H4.74a1.086 1.086 0 0 0 0-2.173H2.567a.36.36 0 0 1-.362-.362V2.535a.36.36 0 0 1 .362-.362H13.43a.36.36 0 0 1 .362.362v2.172a1.086 1.086 0 0 0 2.172 0z"/></svg>