<svg xmlns="http://www.w3.org/2000/svg" viewBox="0 0 127.14 96.36" class="svg gitea-discord" width="16" height="16" aria-hidden="true"><path fill="#5865f2" d="M107.7 8.07A105.2 105.2 0 0 0 81.47 0a72 72 0 0 0-3.36 6.83 97.7 97.7 0 0 0-29.11 0A72 72 0 0 0 45.64 0a106 106 0 0 0-26.25 8.09C2.79 32.65-1.71 56.6.54 80.21a105.7 105.7 0 0 0 32.17 16.15 77.7 77.7 0 0 0 6.89-11.11 68.4 68.4 0 0 1-10.85-5.18c.91-.66 1.8-1.34 2.66-2a75.57 75.57 0 0 0 64.32 0c.87.71 1.76 1.39 2.66 2a68.7 68.7 0 0 1-10.87 5.19 77 77 0 0 0 6.89 11.1 105.3 105.3 0 0 0 32.19-16.14c2.64-27.38-4.51-51.11-18.9-72.15M42.45 65.69C36.18 65.69 31 60 31 53s5-12.74 11.43-12.74S54 46 53.89 53s-5.05 12.69-11.44 12.69m42.24 0C78.41 65.69 73.25 60 73.25 53s5-12.74 11.44-12.74S96.23 46 96.12 53s-5.04 12.69-11.43 12.69"/></svg>