<svg xmlns="http://www.w3.org/2000/svg" viewBox="0 0 16 16" class="svg gitea-sync" width="16" height="16" aria-hidden="true"><path d="M14.295 8.005a.75.75 0 0 0-.834.656 5.5 5.5 0 0 1-9.592 2.97l1.204-1.204A.25.25 0 0 0 4.896 10H1.25a.25.25 0 0 0-.25.25v3.646a.25.25 0 0 0 .427.177l1.38-1.38A7.002 7.002 0 0 0 14.95 8.84a.75.75 0 0 0-.656-.834ZM8 2.5a5.5 5.5 0 0 1 4.131 1.869l-1.204 1.204a.25.25 0 0 0 .177.427h3.646a.25.25 0 0 0 .25-.25V2.104a.25.25 0 0 0-.427-.177l-1.38 1.38A7.002 7.002 0 0 0 1.05 7.16a.75.75 0 0 0 1.49.178A5.5 5.5 0 0 1 8 2.5"/></svg>