<svg xmlns="http://www.w3.org/2000/svg" xml:space="preserve" fill-rule="evenodd" stroke-linejoin="round" stroke-miterlimit="2" clip-rule="evenodd" viewBox="0 0 16 16" class="svg gitea-open-with-vscodium" width="16" height="16" aria-hidden="true"><path fill-rule="nonzero" d="m10.2.2.5-.3c.3 0 .5.2.7.4l.2.8-.2 1-.8 2.4c-.3 1-.4 2 0 2.9l.8-2c.2 0 .4.1.4.3l-.3 1L9.2 13l3.1-2.9c.3-.2.7-.5.8-1a2 2 0 0 0-.3-1c-.2-.5-.5-.9-.6-1.4l.1-.7c.1-.1.3-.2.5-.1.2 0 .3.2.4.4.3.5.4 1.2.5 1.8l.6-1.2c0-.2.2-.4.4-.6l.4-.2c.2 0 .4.3.4.4v.6l-.8 1.6-1.4 1.8 1-.4c.2 0 .6.2.7.5 0 .2 0 .4-.2.5-.3.2-.6.2-1 .2-1 0-2.2.6-2.9 1.4L9.6 15c-.4.4-.9 1-1.4.8-.8-.1-.8-1.3-1-1.8 0-.3-.2-.6-.4-.7-.3-.2-.5-.3-.8-.3-.6-.1-1.2 0-1.8-.2l-.8-.4-.4-.7c-.3-.6-.3-1.2-.5-1.8A4 4 0 0 0 1 8l-.4-.4v-.4c.2-.2.5-.2.7 0 .5.2.5.8 1 1.1V6.2s.3-.1.4 0l.2.5L3 9c.4-.4.6-1 .5-1.5L3.4 7l.3-.2c.2 0 .3.2.4.3v.7c0 .6-.3 1.1-.4 1.7-.2.4-.3 1-.1 1.4.1.5.5.9.9 1 .5.3 1.1.4 1.7.4-.4-.6-.7-1.2-.7-2 0-.7.4-1.3.6-2C6.3 7 5.7 5.8 4.8 5l-1.5-.7c-.4-.2-.7-.7-.7-1.2.3-.1.7 0 1 .1L5 4.5l.6.1c.2-.3 0-.6-.2-.8-.3-.5-1-.6-1.3-1a.9.9 0 0 1-.2-.8c0-.2.3-.4.5-.4.4 0 .7.3.9.5.8.8 1.2 1.8 1.4 3s0 2.5-.2 3.7c0 .3-.2.5-.1.8l.2.2c.2 0 .4 0 .5-.2.4-.3.8-.8.9-1.3l.1-1.2.1-.6.4-.2.3.3v.6c-.1.5-.2 1-.5 1.6a2 2 0 0 1-.6 1l-1 1c-.1.2-.2.6-.1.9 0 .2.2.4.4.5.4.2.8.2 1 0 .3-.1.5-.4.7-.6l.5-1.4.4-2.5C9.7 7 9.6 6 9 5.2c-.2-.4-.5-.7-1-1l-1-.8c-.2-.3-.4-.7-.3-1.2h.6c.4.1.7.4.9.8s.4.8.9 1l-1-2c-.1-.3-.3-.5-.2-.8 0-.2.2-.4.4-.4s.4.1.5.3l.2.5 1 3.1a4 4 0 0 0 .4-2.3L10 1V.2Z"/></svg>