<svg xmlns="http://www.w3.org/2000/svg" viewBox="0 0 640 409" class="svg gitea-rpm" width="16" height="16" aria-hidden="true"><path fill="#040404" d="M231.303 13.092c13.965-2.147 28.064-3.716 42.185-4.46 2.508-.598 5.104-.476 7.667-.567 20.042-.64 40.107-.61 60.138.292 36.152 2.556 72.126 8.562 107 18.576l-.147.196c-5.113 6.915-10.241 13.82-15.254 20.809-1.502.277-2.818-.673-4.155-1.151-26.464-10.918-54.628-17.254-82.97-20.687-46.628-4.775-94.368-.939-139.097 13.41-32.93 10.652-64.738 27.075-89.302 51.85-17.41 17.798-30.764 40.818-32.586 66.049-1.687 12.021 1.191 24.02 3.738 35.696l-110.456 19.476c-.267-19.487 4.819-38.774 12.91-56.405 16.098-34.33 44.018-61.76 75.115-82.759 21.03-14.12 43.762-25.641 67.382-34.774 31.463-12.299 64.416-20.698 97.834-25.542z"/><path fill="#d72123" d="M432.95 47.933c5.014-6.986 10.14-13.888 15.254-20.81 46.828 13.71 92.046 35.375 128.987 67.638 15.098 13.521 28.764 28.82 39.251 46.229 12.421 20.487 20.298 43.951 21.143 67.982-36.73-6.42-73.437-12.888-110.167-19.331 4.52-14.377 4.558-30.02 1.463-44.696-5.736-25.353-21.987-47.117-41.596-63.638-16.343-13.754-34.985-24.775-54.739-32.841z"/><path d="M297.519 149.145c2.162-3.521 5.968-6.329 10.298-5.808 4.894.126 8.664 4.169 9.677 8.746l345.3 61.416-1.154 5.784-345.188-60.527c-2.753 4.79-9.14 7.265-14.154 4.436-3.478-1.52-4.666-5.244-6.236-8.367l-21.253-3.405.974-5.978z"/><path fill="#040404" d="m135.757 316.795.194-85.936 36.552.068c38.53.072 47.195.626 64.282 4.108 41.896 8.537 69.704 28.62 75.16 54.273 5.53 26.008-15.066 49.761-56.706 65.415-14.976 5.63-35.297 10.045-51.45 11.188l-6.923.488-.415 27.62-2.457.439c-1.352.241-13.932 2.004-27.964 3.917s-26.62 3.674-27.986 3.915l-2.478.438zm66.671 33.152c1.966-.462 7-2.482 11.188-4.49 15.754-7.55 27.253-18.276 33.441-31.208 4.787-9.989 5.143-19.365 1.141-30.063-4.583-12.255-17.676-25.576-32.43-33.02-4.86-2.45-14.532-5.452-17.554-5.452h-1.729v52.539c0 47.05.124 52.54 1.186 52.54.652 0 2.793-.379 4.758-.84zm-224.422-52.073v-67.382h60.916v1.618c0 1.422.3 1.556 2.475 1.109 14.298-2.941 35.852-4.27 45.095-2.778 3.21.518 8.167 1.734 11.017 2.703 6.034 2.052 16.765 6.692 16.754 7.246-.004.21-2.823 2.066-6.268 4.126s-10.793 6.619-16.331 10.13l-10.07 6.382-2.851-1.938c-5.736-3.897-11.877-5.376-22.31-5.376-5.506 0-11.198.433-13.509 1.028l-3.997 1.028v109.489H-21.99zm374.63-.05v-67.438l119.32.333c121.1.337 124.766.423 140.209 3.253 11.566 2.12 18.365 4.687 21.987 8.309l3.236 3.234v119.766h-60.916V247.404l-3.236-1.391c-2.832-1.218-6.019-1.426-25.509-1.666l-22.276-.274v121.21h-60.905l-.39-118.21-3.045-1.173c-2.419-.93-7.634-1.233-25.32-1.47l-22.275-.296v121.21H352.6z"/></svg>