<svg xmlns="http://www.w3.org/2000/svg" fill="none" viewBox="7 7 26 26" class="svg gitea-feishu" width="16" height="16" aria-hidden="true"><path fill="#00d6b9" d="m21.069 20.504.063-.06.125-.122.085-.084.256-.254.348-.344.299-.296.281-.278.293-.289.269-.266.374-.37.218-.206.419-.359.404-.306.598-.386.617-.33.606-.265.348-.127.177-.058a14.8 14.8 0 0 0-2.793-5.603 1.34 1.34 0 0 0-1.047-.502H12.221a.201.201 0 0 0-.119.364 31.5 31.5 0 0 1 8.943 10.162l.025-.023z"/><path fill="#3370ff" d="M16.791 30c5.57 0 10.423-3.074 12.955-7.618q.133-.239.258-.484a6 6 0 0 1-.425.699 6 6 0 0 1-.17.23 6 6 0 0 1-.225.274q-.092.105-.188.206a6 6 0 0 1-.407.384 6 6 0 0 1-.24.195 7 7 0 0 1-.292.21q-.094.065-.191.122c-.097.057-.134.081-.204.119q-.21.116-.428.215a6 6 0 0 1-.385.157 6 6 0 0 1-.43.138 6 6 0 0 1-.661.143 6 6 0 0 1-.491.055 6.125 6.125 0 0 1-1.543-.085 7 7 0 0 1-.38-.079l-.2-.051-.555-.155-.275-.081-.41-.125-.334-.107-.317-.104-.215-.073-.26-.091-.186-.066-.367-.134-.212-.081-.284-.11-.299-.119-.193-.079-.24-.1-.185-.078-.192-.084-.166-.073-.152-.067-.153-.07-.159-.073-.2-.093-.208-.099-.222-.108-.189-.093a31.2 31.2 0 0 1-8.822-6.583.202.202 0 0 0-.349.138l.005 9.52v.773c0 .448.222.87.595 1.118A14.75 14.75 0 0 0 16.791 30"/><path fill="#133c92" d="m29.746 22.382.051-.093zm.231-.435.014-.025.007-.012z"/><path fill="#133c9a" d="M33.151 16.582a8.45 8.45 0 0 0-3.744-.869 8.5 8.5 0 0 0-2.303.317l-.252.075-.177.058-.348.127-.606.265-.617.33-.598.386-.404.306-.419.359-.218.206-.374.37-.269.266-.293.289-.281.278-.299.296-.348.344-.256.254-.085.084-.125.122-.063.06-.095.09-.105.099a15 15 0 0 1-3.072 2.175l.2.093.159.073.153.07.152.067.166.073.192.084.185.078.24.1.193.079.299.119.284.11.212.081.367.134.186.066.26.09.215.073.317.104.334.107.41.125.275.081.555.155.2.051.379.079.433.062.585.037.525-.014.491-.055a6 6 0 0 0 .66-.143l.43-.138.385-.158.427-.215.204-.119.191-.122.292-.21.24-.195.407-.384.188-.206.225-.274.17-.23a6 6 0 0 0 .421-.693l.144-.288 1.305-2.599-.003.006a8.1 8.1 0 0 1 1.697-2.439z"/></svg>