<svg xmlns="http://www.w3.org/2000/svg" aria-hidden="true" class="gitea-facebook__svg gitea-facebook__gitea-facebook svg gitea-facebook" style="shape-rendering:geometricPrecision;text-rendering:geometricPrecision;image-rendering:optimizeQuality;fill-rule:evenodd;clip-rule:evenodd" viewBox="0 0 128 128" width="16" height="16"><path fill="#395b97" d="M93.5 8.5c-1.452.802-3.118 1.302-5 1.5L10 88.5c-.198 1.882-.698 3.548-1.5 5a551.581 551.581 0 0 1-.5-56c2.5-17.167 12.333-27 29.5-29.5a551.581 551.581 0 0 1 56 .5" style="opacity:.995"/><path fill="#366098" d="M93.5 8.5c15.888 4.225 24.555 14.558 26 31a676.749 676.749 0 0 0-1.5 37l-35 35a32.438 32.438 0 0 0-.5 8 441.615 441.615 0 0 1-1-42h14a379.883 379.883 0 0 0 3-17h-17c-2.5-13.83 3.166-19.83 17-18v-16c-25.755-3.243-36.755 8.09-33 34h-14v17h14v42c-9.34.166-18.673 0-28-.5-15.451-1.953-25.118-10.453-29-25.5.802-1.452 1.302-3.118 1.5-5L88.5 10c1.882-.198 3.548-.698 5-1.5" style="opacity:.976"/><path fill="#346499" d="M119.5 39.5c.167 16.67 0 33.337-.5 50-3.622 20.245-15.788 30.245-36.5 30a32.438 32.438 0 0 1 .5-8l35-35c.169-12.507.669-24.84 1.5-37" style="opacity:.918"/></svg>