<svg xmlns="http://www.w3.org/2000/svg" aria-hidden="true" class="gitea-facebook__svg gitea-facebook__gitea-facebook svg gitea-facebook" style="shape-rendering:geometricPrecision;text-rendering:geometricPrecision;image-rendering:optimizeQuality;fill-rule:evenodd;clip-rule:evenodd" viewBox="0 0 128 128" width="16" height="16"><path fill="#395b97" d="M93.5 8.5q-2.177 1.203-5 1.5L10 88.5q-.297 2.823-1.5 5a552 552 0 0 1-.5-56Q11.75 11.75 37.5 8a552 552 0 0 1 56 .5" style="opacity:.995"/><path fill="#366098" d="M93.5 8.5q23.832 6.337 26 31a677 677 0 0 0-1.5 37l-35 35a32.4 32.4 0 0 0-.5 8 442 442 0 0 1-1-42h14a380 380 0 0 0 3-17h-17q-3.75-20.745 17-18v-16q-38.632-4.865-33 34h-14v17h14v42q-14.01.25-28-.5-23.177-2.93-29-25.5 1.203-2.177 1.5-5L88.5 10q2.823-.297 5-1.5" style="opacity:.976"/><path fill="#346499" d="M119.5 39.5q.25 25.005-.5 50-5.432 30.368-36.5 30a32.4 32.4 0 0 1 .5-8l35-35q.254-18.76 1.5-37" style="opacity:.918"/></svg>