<svg xmlns="http://www.w3.org/2000/svg" preserveAspectRatio="xMidYMid" viewBox="0 0 255 263" class="svg gitea-vagrant" width="16" height="16" aria-hidden="true"><path fill="#1159CC" d="M254.22 20.234 196.03 53.47l-1.64 20.618-44.19 99.772-26.27 17.34 3.18 71.6 49.53-28.55 77.58-189.946zM92.45 56.933V34.051l-.238-.136-38.483 19.102 1.642 23.034L103.4 180.6l26.02-14.71-2.31-28.09z"/><path fill="#127EFF" d="m219.56 0-57.75 33.814h-.04v23.119L127.11 137.8v27.02l-23.12 13.41L57.788 74.146V53.81L92.45 33.848 34.668 0 .006 20.234v24.783L78.022 234.49l49.088 28.31v-71.16l23.09-13.41-.27-.17 46.51-103.914V53.81l57.78-33.576z"/></svg>