<svg xmlns="http://www.w3.org/2000/svg" xml:space="preserve" viewBox="0 0 70 70" class="svg gitea-open-with-jetbrains" width="16" height="16" aria-hidden="true"><linearGradient id="gitea-open-with-jetbrains__a" x1=".79" x2="33.317" y1="40.089" y2="40.089" gradientUnits="userSpaceOnUse"><stop offset=".258" style="stop-color:#f97a12"/><stop offset=".459" style="stop-color:#b07b58"/><stop offset=".724" style="stop-color:#577bae"/><stop offset=".91" style="stop-color:#1e7ce5"/><stop offset="1" style="stop-color:#087cfa"/></linearGradient><path d="M17.7 54.6.8 41.2l8.4-15.6L33.3 35z" style="fill:url(#gitea-open-with-jetbrains__a)"/><linearGradient id="gitea-open-with-jetbrains__b" x1="25.767" x2="79.424" y1="24.88" y2="54.57" gradientUnits="userSpaceOnUse"><stop offset="0" style="stop-color:#f97a12"/><stop offset=".072" style="stop-color:#cb7a3e"/><stop offset=".154" style="stop-color:#9e7b6a"/><stop offset=".242" style="stop-color:#757b91"/><stop offset=".334" style="stop-color:#537bb1"/><stop offset=".432" style="stop-color:#387ccc"/><stop offset=".538" style="stop-color:#237ce0"/><stop offset=".655" style="stop-color:#147cef"/><stop offset=".792" style="stop-color:#0b7cf7"/><stop offset="1" style="stop-color:#087cfa"/></linearGradient><path d="m70 18.7-1.3 40.5L41.8 70 25.6 59.6 49.3 35 38.9 12.3l9.3-11.2z" style="fill:url(#gitea-open-with-jetbrains__b)"/><linearGradient id="gitea-open-with-jetbrains__c" x1="63.228" x2="48.29" y1="42.915" y2="-1.719" gradientUnits="userSpaceOnUse"><stop offset="0" style="stop-color:#fe315d"/><stop offset=".078" style="stop-color:#cb417e"/><stop offset=".16" style="stop-color:#9e4e9b"/><stop offset=".247" style="stop-color:#755bb4"/><stop offset=".339" style="stop-color:#5365ca"/><stop offset=".436" style="stop-color:#386ddb"/><stop offset=".541" style="stop-color:#2374e9"/><stop offset=".658" style="stop-color:#1478f3"/><stop offset=".794" style="stop-color:#0b7bf8"/><stop offset="1" style="stop-color:#087cfa"/></linearGradient><path d="M70 18.7 48.7 43.9l-9.8-31.6 9.3-11.2z" style="fill:url(#gitea-open-with-jetbrains__c)"/><linearGradient id="gitea-open-with-jetbrains__d" x1="10.72" x2="55.524" y1="16.473" y2="90.58" gradientUnits="userSpaceOnUse"><stop offset="0" style="stop-color:#fe315d"/><stop offset=".04" style="stop-color:#f63462"/><stop offset=".104" style="stop-color:#df3a71"/><stop offset=".167" style="stop-color:#c24383"/><stop offset=".291" style="stop-color:#ad4a91"/><stop offset=".55" style="stop-color:#755bb4"/><stop offset=".917" style="stop-color:#1d76ed"/><stop offset="1" style="stop-color:#087cfa"/></linearGradient><path d="M33.7 58.1 5.6 68.3l4.5-15.8L16 33.1 0 27.7 10.1 0l22 2.7 21.6 24.7z" style="fill:url(#gitea-open-with-jetbrains__d)"/><path d="M13.7 13.5h43.2v43.2H13.7z" style="fill:#000"/><path d="M17.7 48.6h16.2v2.7H17.7zM29.4 22.4v-3.3h-9v3.3H23v11.3h-2.6V37h9v-3.3h-2.5V22.4zM38 37.3c-1.4 0-2.6-.3-3.5-.8s-1.7-1.2-2.3-1.9l2.5-2.8c.5.6 1 1 1.5 1.3s1.1.5 1.7.5c.7 0 1.3-.2 1.8-.7.4-.5.6-1.2.6-2.3V19.1h4v11.7c0 1.1-.1 2-.4 2.8s-.7 1.4-1.3 2c-.5.5-1.2 1-2 1.2-.8.3-1.6.5-2.6.5" style="fill:#fff"/></svg>