<svg xmlns="http://www.w3.org/2000/svg" xmlns:xlink="http://www.w3.org/1999/xlink" viewBox="0 0 512 512" class="svg gitea-nuget" width="16" height="16" aria-hidden="true"><defs><path id="gitea-nuget__a" d="M0 46.021V3.701h84.652v84.641H0z"/></defs><g fill="#004880" fill-rule="evenodd" transform="translate(0 6)"><path d="M374.42 454.86c-46.749 0-84.652-37.907-84.652-84.661 0-46.733 37.903-84.661 84.652-84.661s84.652 37.928 84.652 84.661c0 46.754-37.903 84.661-84.652 84.661M205.56 260.82c-29.226 0-52.908-23.705-52.908-52.913 0-29.229 23.681-52.913 52.908-52.913 29.226 0 52.908 23.684 52.908 52.913 0 29.208-23.681 52.913-52.908 52.913M378.17 95.65H236.89c-71.997 0-130.41 58.416-130.41 130.44v141.28c0 72.046 58.41 130.42 130.41 130.42h141.28c72.039 0 130.41-58.374 130.41-130.42V226.09c0-72.025-58.368-130.44-130.41-130.44"/><mask id="gitea-nuget__b" fill="#fff"><use xlink:href="#gitea-nuget__a"/></mask><path d="M84.652 46.012c0 23.388-18.962 42.33-42.326 42.33C18.941 88.342 0 69.399 0 46.012c0-23.366 18.941-42.33 42.326-42.33 23.364 0 42.326 18.964 42.326 42.33" mask="url(#gitea-nuget__b)"/></g></svg>