<svg xmlns="http://www.w3.org/2000/svg" xml:space="preserve" aria-hidden="true" class="gitea-arch__octicon-arch__svg gitea-arch__octicon-arch__gitea-arch gitea-arch__svg gitea-arch__octicon-arch svg gitea-arch" viewBox="0 0 128 128" width="16" height="16"><path d="M104.507 93.106c-15.886-29.291-38.862-73.3-40.98-82.79 0 0-4.614 11.632-12.844 29.554 2.996 4.643 10.373 9.645 13.073 12.855-9.321-2.941-14.997-8.793-14.997-8.793-9.577 20.631-23.104 47.827-38.444 72.94 7.321-3.74 27.493-16.098 41.972-17.724-.488-6.83-.325-26.18 10.9-26.504 11.225-.326 13.99 16.097 12.363 26.667 10.412 2.276 33.838 12.52 42.135 18.374l-8.866-16.748s-12.283-8.374-18.22-12.683c7.645.162 12.01 3.806 13.908 4.852z"/></svg>