<svg xmlns="http://www.w3.org/2000/svg" version="1.0" viewBox="0 0 700 700" class="svg gitea-onedev" width="16" height="16" aria-hidden="true"><path d="M315.5 99.6c-29.5 4-55.8 12-81.2 24.8L223 130l-5.2-4c-14.9-11.3-37.6-14.9-55.8-9-19.1 6.3-35.1 22.2-41.1 41-2.7 8.3-3.6 22.9-1.9 31.2 1.5 8 5 16.5 9.1 22.5 3.1 4.7 3.1 4.8 1.4 7.8C106 260 95.1 294.4 92 337.7c-1.1 15.7-.1 40.2 2.1 53l1.1 6.5-4.9 4.4c-2.8 2.3-7.5 7.6-10.6 11.6-19.4 25.5-24.7 57.9-14.4 88.3 9.2 26.9 31.2 48.8 58.4 58.1 20.6 6.9 40.6 7 61.1.1l6.7-2.2 10.5 7.1c45.6 31 92 45.5 146 45.5 33 0 61.6-5.2 91-16.4 67.6-25.8 122.9-81.1 148.4-148.4l2.7-7.2 7.7-3.8c9.1-4.5 21.1-15.7 25.9-24.3 21.1-37.5-1-84.3-43.2-91.7-19.9-3.5-39.3 2.7-53.9 17.2-7.1 7.1-11.7 14.5-15.3 24.7-3.4 9.4-3.8 25.8-.9 35.3 2.8 9.5 8.5 19.3 15.3 26.4 7.2 7.6 7.2 6 0 20.5-8.9 18.1-20.3 34.1-35.2 49.5-34.6 35.7-78.2 56.3-128.3 60.3-42.8 3.4-89.3-8.9-125-33-1.1-.8-1-1.7.8-5.2 12.1-23.6 13.5-53.7 3.9-78-8.7-21.8-27.5-41.6-48.6-51.2-9-4.1-22.7-7.4-34-8.3l-9.1-.7-.8-9.6c-3.5-46.9 13.5-99.8 45.5-141.7 6.5-8.6 24.3-26.7 33.6-34.2 43.8-35.6 101.3-52.8 158.1-47.2 39.9 3.9 79 19.1 110.6 43 16.9 12.8 37.5 34.9 48.6 52l4.3 6.7-3.3 5.2c-2.9 4.7-3.3 6.3-3.6 13.4-.3 7.3-.1 8.6 2.5 13.6 3.2 6.1 10.2 12 16.3 13.9 22.8 6.8 43-16.9 32.6-38.2-3.1-6.4-9.3-12.2-14.7-13.8-2.5-.8-4.1-2.1-5.2-4.3-.9-1.7-3.2-5.8-5.1-9.2l-3.5-6 3.6-5c17.7-24.4 15.8-57.5-4.4-79.4-8-8.6-15.5-13.6-25.9-17.2-19.8-6.8-38.9-4.2-56.5 7.8l-7.8 5.3-15.3-7.4c-27.9-13.4-55-21.3-84-24.4-13.3-1.5-48.1-1.2-60.3.5z"/><path d="M271.8 271.1c-13.9 2.1-30.5 17.3-40.5 37.4-18.3 36.4-13.4 81.5 9.8 91.5 15.2 6.5 34.5-2.7 48.6-23.2 5.5-8 9.7-15.7 9-16.5-.3-.2-2 .3-3.8 1.2-2.4 1.3-5.1 1.6-10.5 1.3-6.1-.3-7.9-.8-11.6-3.4-8.9-6.2-12.4-19.1-7.9-29 2.4-5.2 9-10.8 14.7-12.4 9.1-2.6 20 1.4 25.2 9.2l2.7 4.2.3-12.4c.4-18.9-3.4-31.6-12.4-40.5-6.3-6.3-14.2-8.8-23.6-7.4zM420.5 271c-11.6 1.9-20.2 11.3-24.9 27-2.1 6.9-3.1 20-2.2 27.4l.8 5.7 2.1-3.2c10.2-15 31.6-14 39.9 2 6 11.5 1.5 25.1-10.4 31.2-5 2.5-15 2.6-20 .1l-3.6-1.9 1.4 3.3c6.1 14.5 20 30.1 32.3 36.1 5.7 2.8 14.4 4 20.4 2.9 5.2-1 12.1-6.1 16.1-11.9 18.1-26.4 8.1-79-20-105.8-10.8-10.2-21.6-14.6-31.9-12.9zM322.5 431.9c-16.1 1.6-23.5 6.1-23.5 14.3 0 11.4 13 21.1 34 25.4 10.2 2 31.2 1.5 40.5-1 13.5-3.7 23.8-10.3 27.6-17.7 4.9-9.7-.2-17.1-13.8-20-6.1-1.2-54.2-2-64.8-1z"/></svg>