<svg xmlns="http://www.w3.org/2000/svg" aria-hidden="true" class="gitea-nextcloud__svg gitea-nextcloud__gitea-nextcloud svg gitea-nextcloud" style="shape-rendering:geometricPrecision;text-rendering:geometricPrecision;image-rendering:optimizeQuality;fill-rule:evenodd;clip-rule:evenodd" viewBox="0 0 128 128" width="16" height="16"><path fill="#0382c9" d="M12.5-.5h102a797 797 0 0 0 7 4.5 69 69 0 0 1 6 8.5v102a786 786 0 0 0-4.5 7 69 69 0 0 1-8.5 6h-102a779 779 0 0 0-7-4.5 69 69 0 0 1-6-8.5v-102a790 790 0 0 0 4.5-7 69 69 0 0 1 8.5-6" style="opacity:.997"/><path fill="#fafcfe" d="M55.5 37.5q24.974-4.236 34.5 19 10.056-15.987 26.5-6.5 14.333 15.01-1 29-15.738 7.595-25.5-6.5Q80.6 93.58 57.5 91 42.704 86.735 37 72.5 27.127 86.416 11.5 79q-15.333-13.99-1-29 16.213-8.884 26.5 6.5 5.57-13.317 18.5-19" style="opacity:1"/><path fill="#0b83c9" d="M58.5 47.5q25.744-1.016 20.5 24-9.807 14.07-25.5 6.5-15.908-18.534 5-30.5" style="opacity:1"/><path fill="#1986cb" d="M18.5 56.5q11.55-.207 9.5 11-6.062 7.22-13 1-2.11-7.285 3.5-12" style="opacity:1"/><path fill="#2088cb" d="M103.5 56.5q11.702.928 8.5 12-7.063 6.405-13-1-2.41-7.592 4.5-11" style="opacity:1"/></svg>