<svg xmlns="http://www.w3.org/2000/svg" version="1.0" viewBox="0 0 2400 2400" class="svg gitea-openid" width="16" height="16" aria-hidden="true"><path fill="#ff7c00" d="m1270 218.3-173.1 84.3-.7 981.8c-.3 540 .2 981.4 1.1 981l174.5-81.8 172.3-80.8v-984.4c0-541.7-.2-984.7-.4-984.4z"/><path fill="#aaa" d="M981.9 785.5c-425.3 63.2-766.5 264.1-889 523a491.5 491.5 0 0 0-43.6 146c-4.2 29.2-4.7 95-1.2 124 19 152.6 115.2 299.9 273.2 418.8 147.7 111 350.5 196.5 568.6 239.7 59 11.6 179 29 200.5 29 2.3 0 3-23.2 3-109.1v-109.2l-5.1-1-37.9-6a1182 1182 0 0 1-305.4-90.6c-122.2-55.7-225.1-137.7-284.6-226.4-107.5-160.5-81.3-344.3 70-491.3 57-55.5 115.4-95.2 199.5-136.1a1112.6 1112.6 0 0 1 269.4-89.2l29.7-6c3.7-1.2 4-8.6 4-111.5V779.5l-6.3.2a823 823 0 0 0-44.8 5.8zm525 104c0 103 .2 110.4 4.1 111.6l29.5 6a1221.6 1221.6 0 0 1 207.7 61.3A1087.8 1087.8 0 0 1 1862 1123c4.6 3.7 1.4 5.8-88 56-51.1 28.5-93 52.7-93 53.4 0 1.9 671.6 146.8 673.2 145.2 1.2-1.2-45.5-496-47-497.6-.2-.2-38.5 21-85 47.2l-89.6 50.2c-4.2 2-8.8.2-27.9-10.7-130.8-75-289.6-132.2-460.8-166.1a1870.8 1870.8 0 0 0-132.9-21.1c-4 0-4.2 6.7-4.2 110z"/><path fill="#cbaa7c" d="M1094.5 2156.9c0 60.6.3 85.5.5 55 .5-30.2.5-79.9 0-110.3-.2-30.2-.5-5.3-.5 55.3z"/></svg>