<svg xmlns="http://www.w3.org/2000/svg" fill="none" viewBox="0 0 48 48" class="svg gitea-microsoftonline" width="16" height="16" aria-hidden="true"><path fill="url(#gitea-microsoftonline__a)" d="m20.084 3.026-.224.136a8 8 0 0 0-1.009.722l.648-.456H25L26 11l-5 5-5 3.475v4.008a8 8 0 0 0 3.857 6.844l5.264 3.186L14 40h-2.145l-3.998-2.42A8 8 0 0 1 4 30.737V17.26a8 8 0 0 1 3.86-6.846l12-7.258q.111-.068.224-.131Z"/><path fill="url(#gitea-microsoftonline__b)" d="m20.084 3.026-.224.136a8 8 0 0 0-1.009.722l.648-.456H25L26 11l-5 5-5 3.475v4.008a8 8 0 0 0 3.857 6.844l5.264 3.186L14 40h-2.145l-3.998-2.42A8 8 0 0 1 4 30.737V17.26a8 8 0 0 1 3.86-6.846l12-7.258q.111-.068.224-.131Z"/><path fill="url(#gitea-microsoftonline__c)" d="M32 19v4.48a8 8 0 0 1-3.857 6.844l-12 7.264a8 8 0 0 1-8.008.16l11.722 7.096a8 8 0 0 0 8.286 0l12-7.264A8 8 0 0 0 44 30.736V27.5L43 26z"/><path fill="url(#gitea-microsoftonline__d)" d="M32 19v4.48a8 8 0 0 1-3.857 6.844l-12 7.264a8 8 0 0 1-8.008.16l11.722 7.096a8 8 0 0 0 8.286 0l12-7.264A8 8 0 0 0 44 30.736V27.5L43 26z"/><path fill="url(#gitea-microsoftonline__e)" d="m40.14 10.415-12-7.258a8 8 0 0 0-8.042-.139l-.238.144A8 8 0 0 0 16 10.008v9.483l3.86-2.334a8 8 0 0 1 8.28 0l12 7.258A8 8 0 0 1 43.997 31q.004-.132.004-.263V17.26a8 8 0 0 0-3.86-6.845Z"/><path fill="url(#gitea-microsoftonline__f)" d="m40.14 10.415-12-7.258a8 8 0 0 0-8.042-.139l-.238.144A8 8 0 0 0 16 10.008v9.483l3.86-2.334a8 8 0 0 1 8.28 0l12 7.258A8 8 0 0 1 43.997 31q.004-.132.004-.263V17.26a8 8 0 0 0-3.86-6.845Z"/><path fill="url(#gitea-microsoftonline__g)" d="M4.004 30.998"/><path fill="url(#gitea-microsoftonline__h)" d="M4.004 30.998"/><defs><radialGradient id="gitea-microsoftonline__a" cx="0" cy="0" r="1" gradientTransform="rotate(110.528 5.021 11.358)scale(33.3657 58.1966)" gradientUnits="userSpaceOnUse"><stop offset=".064" stop-color="#ae7fe2"/><stop offset="1" stop-color="#0078d4"/></radialGradient><radialGradient id="gitea-microsoftonline__c" cx="0" cy="0" r="1" gradientTransform="rotate(-8.367 253.693 -53.118)scale(31.0503 20.5108)" gradientUnits="userSpaceOnUse"><stop offset=".134" stop-color="#d59dff"/><stop offset="1" stop-color="#5e438f"/></radialGradient><radialGradient id="gitea-microsoftonline__e" cx="0" cy="0" r="1" gradientTransform="rotate(194.228 22.182 10.69)scale(24.9228 41.9552)" gradientUnits="userSpaceOnUse"><stop offset=".058" stop-color="#50e6ff"/><stop offset="1" stop-color="#436dcd"/></radialGradient><radialGradient id="gitea-microsoftonline__g" cx="0" cy="0" r="1" gradientTransform="rotate(194.228 22.182 10.69)scale(24.9228 41.9552)" gradientUnits="userSpaceOnUse"><stop offset=".058" stop-color="#50e6ff"/><stop offset="1" stop-color="#436dcd"/></radialGradient><linearGradient id="gitea-microsoftonline__b" x1="17.512" x2="12.751" y1="37.868" y2="29.635" gradientUnits="userSpaceOnUse"><stop stop-color="#114a8b"/><stop offset="1" stop-color="#0078d4" stop-opacity="0"/></linearGradient><linearGradient id="gitea-microsoftonline__d" x1="40.357" x2="35.255" y1="25.377" y2="32.692" gradientUnits="userSpaceOnUse"><stop stop-color="#493474"/><stop offset="1" stop-color="#8c66ba" stop-opacity="0"/></linearGradient><linearGradient id="gitea-microsoftonline__f" x1="16.976" x2="24.487" y1="3.057" y2="3.057" gradientUnits="userSpaceOnUse"><stop stop-color="#2d3f80"/><stop offset="1" stop-color="#436dcd" stop-opacity="0"/></linearGradient><linearGradient id="gitea-microsoftonline__h" x1="16.976" x2="24.487" y1="3.057" y2="3.057" gradientUnits="userSpaceOnUse"><stop stop-color="#2d3f80"/><stop offset="1" stop-color="#436dcd" stop-opacity="0"/></linearGradient></defs></svg>