<svg xmlns="http://www.w3.org/2000/svg" viewBox="0 0 110.42 109.85" class="svg gitea-python" width="16" height="16" aria-hidden="true"><defs><linearGradient id="gitea-python__b" x1="89.137" x2="147.78" y1="111.92" y2="168.1" gradientUnits="userSpaceOnUse"><stop offset="0" stop-color="#ffe052"/><stop offset="1" stop-color="#ffc331"/></linearGradient><linearGradient id="gitea-python__a" x1="55.549" x2="110.15" y1="77.07" y2="131.85" gradientUnits="userSpaceOnUse"><stop offset="0" stop-color="#387eb8"/><stop offset="1" stop-color="#366994"/></linearGradient></defs><g color="#000"><path fill="url(#gitea-python__a)" d="M99.75 67.469c-28.032 0-26.281 12.156-26.281 12.156l.031 12.594h26.75V96H62.875s-17.938-2.034-17.938 26.25 15.656 27.281 15.656 27.281h9.344v-13.125s-.504-15.656 15.406-15.656h26.531s14.906.241 14.906-14.406V82.125s2.263-14.656-27.031-14.656zM85 75.938a4.808 4.808 0 0 1 4.813 4.812A4.808 4.808 0 0 1 85 85.563a4.808 4.808 0 0 1-4.812-4.813A4.808 4.808 0 0 1 85 75.938" transform="translate(-44.94 -67.46)"/><path fill="url(#gitea-python__b)" d="M100.55 177.31c28.032 0 26.281-12.156 26.281-12.156l-.031-12.594h-26.75v-3.781h37.375s17.938 2.034 17.938-26.25-15.656-27.281-15.656-27.281h-9.344v13.125s.504 15.656-15.406 15.656H88.426s-14.906-.241-14.906 14.406v24.219s-2.263 14.656 27.03 14.656zm14.75-8.469c-2.661 0-4.812-2.15-4.812-4.812s2.15-4.813 4.812-4.813 4.813 2.151 4.813 4.813a4.808 4.808 0 0 1-4.813 4.812" transform="translate(-44.94 -67.46)"/></g></svg>