<svg xmlns="http://www.w3.org/2000/svg" viewBox="0 0 2516 543" class="svg gitea-codebase" width="16" height="16" aria-hidden="true"><path d="M760 121.1v80l-6.2-7.2c-11.4-13.2-30.2-25.7-48.3-32.2-13.4-4.7-22.6-6.1-41-6.1-24.5 0-39 3.3-60 13.3-28.8 13.8-54.9 43.1-67.4 75.8L535 250l33 33.4c27.4 27.7 33 33.8 33 36.1 0 2.4-5.7 8.5-34.1 37.1l-34.2 34.3 2.8 7.8c17.3 49.2 57.4 83.9 106 91.9 12.2 1.9 36.1 1.5 47.5-1 24.2-5.3 44.8-16.5 62.2-33.8l8.8-8.7V484h101V41H760v80.1zM716.8 248c14.5 3.5 27.4 10.4 38 20.3l5.2 5v99.6l-5.1 5c-6.8 6.7-14.2 11.5-24.7 16.1-11.5 4.9-21 7-32.6 7-12.6 0-18.2-1.3-29.6-6.7-20.6-9.9-35.1-30.8-39.1-56.4-1.6-10.5-.6-30.5 2.1-39.9 2.8-9.8 8.8-21.1 15.4-29.2 8.3-10 17.4-16 31.1-20.4 9.6-3.1 27.4-3.3 39.3-.4zM1289 262.5V484h35v-50.2l4.2 5.4c20.9 26.6 54.4 46.5 86.7 51.3 44.2 6.7 87.5-7.2 117.1-37.5 15-15.3 29-38.7 36-59.9 13.6-41.5 13.4-100.2-.6-140.2-17.5-50.4-54.4-84.6-102.4-95-14.7-3.2-41.6-3.2-56.7 0-31.4 6.6-58.1 23.3-78.4 49.1l-6.4 8.2-.3-87.1-.2-87.1h-34v221.5zm155-75.4c12.2 1.5 19.3 3.5 29.6 8.4 17.8 8.3 31.2 19.8 41.9 36 14.7 22 22.2 45.7 24.7 77.5 2.5 32.6-3.2 65.9-15.4 90.5-15.3 30.7-37.3 49.5-67.6 57.7-9.6 2.6-33 3.5-45.6 1.9-25.9-3.5-53.7-17.3-72.6-36.1-4.8-4.7-10.3-11-12.3-14l-3.7-5.5V245.3l4.9-6.9c9.4-13.4 25.8-27.2 44.1-37.2 22.6-12.3 47.5-17.2 72-14.1zM167.5 155.6c-29.2 3-49.7 8.7-70.2 19.4-43.4 22.6-72.8 61.4-82.9 109.4-3.5 16.4-4.4 48.2-2 65.7 5 35.7 18.6 64.3 42 88.7 21.3 22.1 43.4 35.8 73 45.2 28.2 8.9 67.6 10.5 98.4 4 19.8-4.2 41.6-13.1 57.6-23.8 7.1-4.7 26.4-23 30.4-28.8l2.2-3.2-32.8-30.9-32.7-30.8-9.5 9.5c-7.5 7.6-11.1 10.4-17.1 13.3-11.2 5.5-21.1 7.7-34.4 7.7-35.9 0-63.7-21.3-72.6-55.6-2.6-10.1-2.9-32.5-.6-42.5 6.2-26.1 23-45.1 47.6-53.7 6.8-2.3 9.4-2.7 23.6-3 14.5-.3 16.8-.1 24.1 2.1 12.3 3.5 22.3 9.8 31.2 19.3l7.6 8.1 32.7-30.5c26.8-24.9 32.6-30.8 31.9-32.2-1.8-3.3-15.1-17.3-21.8-22.9-13.7-11.5-30.2-20.2-50.1-26.5-19.3-6.1-30.1-7.8-52.1-8.1-10.7-.2-21.3-.1-23.5.1zM1042.7 156.1c-33.4 3.2-68.4 18.2-91.1 39-22.6 20.8-38.6 44.6-48 71.8-7 20-8 27.5-8 55.6 0 26.7.8 34.3 5.9 52.6 10.1 35.8 32.1 65.7 64.5 87.4 31.8 21.4 70.3 30.8 115.6 28.5 21.2-1.1 37.4-3.7 57.2-9.2 26.3-7.2 42.8-15.3 62.1-30.7l2.5-1.9-22.3-33.5-22.3-33.5-8.1 5.5c-10.3 7.1-19.4 11.3-32.7 15.3-15.2 4.5-25.5 6-40.5 6-16.4 0-27.9-2.6-42.3-9.6-8-4-11.1-6.2-17.7-12.8-8.2-8.2-14.6-18.7-16.1-26.4l-.6-3.2H1228v-21c0-31.3-3-52.3-10.6-74.2-8.6-24.5-21.1-44.4-39.6-62.4-25.9-25.4-56.5-39.6-93.7-43.3-11.8-1.2-28.5-1.2-41.4 0zm52.7 84.3c20.5 5.7 36.1 21.1 41 40.6l1.3 5.5-65 .3c-35.8.1-65.2 0-65.5-.3-1-1 3-13.1 6.3-19 8.7-15.6 22.4-25.1 41.3-28.5 7.4-1.4 33.8-.4 40.6 1.4zM1733 156c-25.4 3.1-50 12.3-71.5 26.6-8.2 5.5-21.9 16.8-27.7 23l-2.7 2.9 8.5 11c4.7 6.1 8.9 11.4 9.3 11.8.5.5 4.8-3.2 9.7-8 16-15.9 37.1-28 59.4-33.8 9-2.4 13.1-2.8 28.2-3.2 23.7-.7 34 1.2 50.4 9.4 15.6 7.7 26.4 18.1 33 31.8 6.4 13.5 6.7 15.1 7.1 57.2.3 21.1.2 38.3-.2 38.3s-4.2-3.3-8.4-7.3c-18.2-17.3-43.3-29.9-68-34.3-13.1-2.3-35.1-3.4-46-2.3-37.6 3.8-72.9 26.4-87.9 56.4-3.9 7.8-7.7 20-9.2 29.6-1.9 11.6-.8 38.3 1.9 48.2 8.7 32.6 33 58.3 67.1 71 15.4 5.7 23.2 7 42.5 7 40.5.1 72.7-12 99.9-37.5l8.6-8V484h34V365.7c0-97.8-.3-119.8-1.5-127.7-4.2-28.2-16.3-47.8-38.2-62.2-21-13.9-42-19.7-73.3-20.3-9.6-.2-20.9 0-25 .5zm26 151c29.9 3.7 56.2 17.1 73.1 37.3l4.9 5.9v71l-10.2 10.2c-21 20.9-44.6 30.8-77.4 32.5-24 1.3-37.5-.9-52.8-8.5-10.1-5.1-15.3-8.9-23.7-17.5-8.7-8.8-15.6-21.4-18.5-33.4-2.4-9.9-2.4-30-.1-38.5 8.2-30.7 34.9-53.7 68.7-59.3 5.2-.9 27.9-.7 36 .3M2334.5 155.7c-38.2 3.5-73.9 22.8-98.8 53.5-32.7 40.5-45 88.3-37.2 144.7 5.3 37.4 20.1 67.9 45.4 93.2 12 11.9 23.4 20.4 37 27.3 13.3 6.7 21.6 9.7 36.1 12.9 50.8 11.3 100.4 1.8 140.2-26.6 10.2-7.3 24-19.5 23.6-20.9-.8-2.2-16.4-21.7-17.5-21.7-.6-.1-1.8.7-2.5 1.7-2.6 3.6-14.4 13.6-22.3 18.7-16.1 10.6-34.2 17.8-52.9 21.2-13.1 2.4-42.2 2.4-53.6-.1-22.8-4.8-41.4-14.5-57.7-29.9-21.1-20.1-35.8-49.7-39.8-80.4-.8-6.3-1.5-12.3-1.5-13.4 0-1.9 1.8-1.9 134-1.9h134v-11.8c0-41.6-12.4-81.6-34.6-111.4-7.7-10.3-23.7-25.8-33.1-32.1-14.4-9.6-31.5-16.7-48.3-20.1-14.4-2.9-36.7-4.2-50.5-2.9zm35.1 30.4c17.1 2.4 34.5 9.3 47.6 19.1 18.6 13.8 34.8 37.8 42.8 63.7 3.1 9.9 6 26.3 6 33.8v4.3h-233.2l.7-6.3c4.9-45.2 28.8-84.1 63.6-103.6 7.8-4.3 20.6-8.9 29.7-10.5 9.4-1.7 32.3-2 42.8-.5zM2011.5 157.5c-19.4 3-39.4 10.7-51.5 19.7-25.6 19.3-36.9 41.9-35.8 71.7.4 9.6 1 13.1 3.5 20.2 5.5 15.9 16 28.3 33.6 39.6 14.5 9.4 25.9 13.3 73.7 25.2 37.7 9.4 46.8 12.5 62.6 21.1 19.6 10.8 28.3 24 28.4 43 0 29.9-22.9 54-58.5 61.5-12.1 2.6-37.7 3.1-49.5 1.1-13.4-2.3-24.8-6-37.5-12-13.8-6.6-23.5-13.4-34.8-24.5l-8.8-8.6-2.2 2.6c-1.2 1.5-5.9 7.2-10.4 12.7l-8.3 10 9.9 9.5c21.4 20.5 46.3 33 77.9 38.9 10 1.9 15.3 2.2 35.7 2.2 25.8 0 33.1-.8 50.5-6.1 42.9-12.9 69-46.3 69-88.5 0-22.7-8.1-42.2-23.8-57-20.2-19-33.7-24.7-96.2-40.4-28.4-7.1-38.8-10.7-54.4-18.8-18.4-9.5-25.6-19-26.4-35-.8-15.9 3.8-27.9 15.3-39.2 8.4-8.3 20.7-15 34-18.5 11-3 39.5-3.8 54-1.5 27.5 4.2 47.6 14.2 63.9 31.8 6.6 7.1 7.8 8 9.1 6.7.7-.8 5.2-6.1 10-11.9l8.6-10.5-7.3-6.9c-22.8-21.5-47.5-33.3-79.9-38-12.8-1.9-42.7-2-54.4-.1z"/><path fill="#e22c2c" d="M373.6 186.1c-4.8 5-35.3 36.3-67.9 69.5-51.1 52.3-59.2 60.9-59.2 63.5 0 2.5 9.1 12.2 68.3 72.4l68.3 69.5 11.5-12c6.3-6.5 12.4-13 13.5-14.4 1.1-1.4 2.6-2.6 3.2-2.6.7 0 7.7 6.6 15.8 14.6l14.6 14.6 68.9-69.6c51.4-51.9 69-70.2 69.2-72.2.3-2.3-2.7-5.8-22-25.3-12.3-12.4-43.4-43.9-69.1-70l-46.6-47.4-15.5 14.7-15.4 14.6-13.8-14.5c-7.5-8-14.1-14.5-14.5-14.5-.3 0-4.6 4.1-9.3 9.1zm72.8 100.8 31.5 32.4-31.6 32.4c-17.4 17.8-32 32.2-32.4 32.1-.4-.2-15.6-14.7-33.7-32.3l-33.1-32 32.7-32.8c18-18 33.2-32.6 33.9-32.5.7.2 15.4 14.9 32.7 32.7z"/></svg>