<svg xmlns="http://www.w3.org/2000/svg" viewBox="-10 -10 100 100" class="svg gitea-codecommit" width="16" height="16" aria-hidden="true"><g fill="none" fill-rule="evenodd"><path fill="#C925D1" d="M0 0h80v80H0z"/><path fill="#FFF" d="M26.628 28.105h-2.017v-6.982c0-.558.36-.99.926-.99l7.144-.007v1.994H27.95l4.862 4.819-1.445 1.434-4.806-4.728zm28.07 10.867 1.869.827-6.541 14.446-1.868-.827zm1.311 10.493 4.003-2.89-3.526-3.535 1.458-1.422 4.36 4.373a1.002 1.002 0 0 1-.126 1.527l-4.963 3.58zm-9.043-8.802 1.205 1.633-4.061 2.932 3.538 3.536-1.454 1.424-4.374-4.373a1 1 0 0 1 .124-1.528zM69 24.13v42.858c0 .56-.458 1.012-1.024 1.012h-31.26c-.272 0-.53-.107-.723-.297a.96.96 0 0 1-.285-.7V55.034h2.018v10.971h29.256V25.113H37.726v-1.995h30.25c.566 0 1.024.453 1.024 1.012M33.182 34.588c0-1.927 1.585-3.495 3.535-3.495s3.535 1.568 3.535 3.495-1.585 3.495-3.535 3.495-3.535-1.568-3.535-3.495M17.549 66.009c-1.95 0-3.535-1.568-3.535-3.495s1.585-3.494 3.535-3.494 3.535 1.567 3.535 3.494-1.585 3.495-3.535 3.495m-3.535-23.442c0-1.927 1.585-3.495 3.535-3.495 1.982 0 3.535 1.535 3.535 3.495 0 1.927-1.585 3.495-3.535 3.495s-3.535-1.568-3.535-3.495m.004-25.081c0-1.925 1.584-3.491 3.53-3.491 1.948 0 3.532 1.566 3.532 3.49s-1.584 3.491-3.531 3.491-3.531-1.566-3.531-3.49m23.708 29.762v-7.276c2.57-.477 4.535-2.708 4.535-5.384 0-3.022-2.487-5.482-5.544-5.482s-5.545 2.46-5.545 5.482c0 2.676 1.966 4.907 4.536 5.384v7.276c0 1.163-.786 2.218-1.98 2.686l-10.451 4.1c-1.673.657-2.903 1.948-3.434 3.496-.433-.195-.801-.336-1.285-.416v-9.146c2.623-.433 4.535-2.687 4.535-5.401 0-2.764-1.878-4.972-4.535-5.393V22.889c2.626-.431 4.54-2.688 4.54-5.403 0-3.025-2.49-5.486-5.55-5.486S12 14.46 12 17.486c0 2.64 2.022 4.85 4.54 5.369v14.347c-2.515.518-4.536 2.727-4.536 5.365s2.02 4.846 4.536 5.365v9.217c-2.515.52-4.536 2.727-4.536 5.365 0 3.022 2.488 5.482 5.545 5.482s5.544-2.46 5.544-5.482a5.43 5.43 0 0 0-1.458-3.693c.167-1.27 1.066-2.384 2.397-2.905l10.45-4.1c1.98-.777 3.244-2.57 3.244-4.568"/></g></svg>