<svg xmlns="http://www.w3.org/2000/svg" fill="none" viewBox="0 0 96 22" class="svg gitea-gitea" width="16" height="16" aria-hidden="true"><path fill="#1f2328" d="M9.543 3.773V.363C4.656.953.757 4.741.1 9.563h1.434c4.415 0 8.008-2.597 8.008-5.79m.002 7.229V9.539a9 9 0 0 1-.512.422c-2.018 1.542-4.68 2.39-7.496 2.39H.089c.668 5.221 5.153 9.294 10.648 9.37h-.002a10.96 10.96 0 0 0 6.771-2.213c-4.44-.292-7.963-3.995-7.963-8.506z"/><path fill="#1f2328" d="M18.072 16.74h2.009a10.54 10.54 0 0 0 1.686-5.587c.076-5.487-4.045-10.065-9.432-10.774V11a5.745 5.745 0 0 0 5.738 5.738z"/><path fill="#fff" d="M20.081 16.74h-2.009A5.744 5.744 0 0 1 12.334 11V.38v3.394c0 2.166-.987 4.191-2.79 5.767v1.463c0 4.511 3.524 8.214 7.964 8.506a10.8 10.8 0 0 0 2.575-2.77z"/><path fill="#1f2328" d="M44.752 8.18q-1.102-.638-2.643-.637-1.541 0-2.65.636-1.101.63-1.7 1.77-.593 1.133-.593 2.643c0 1.006.197 1.883.592 2.643q.6 1.133 1.7 1.77 1.11.63 2.65.63 1.542 0 2.644-.63a4.3 4.3 0 0 0 1.7-1.77q.599-1.14.598-2.643c0-1.002-.2-1.888-.598-2.643a4.25 4.25 0 0 0-1.7-1.77m-1.083 5.806q-.204.612-.592.955a1.38 1.38 0 0 1-.95.345c-.374 0-.713-.115-.98-.345q-.396-.345-.605-.955-.204-.611-.205-1.414c0-.536.069-1.019.205-1.427q.21-.612.605-.955.4-.344.98-.344c.387 0 .69.114.95.344q.389.345.592.955.21.611.21 1.427c0 .544-.07 1.006-.21 1.414m-15.901 3.464h3.153v-5.242h5.185V9.641H30.92V6.967h5.752v-2.56h-8.905zm26.285-9.914a2.2 2.2 0 0 0-1.407.478q-.605.47-.873 1.44h-.102V7.67h-3.026v9.782h3.115V12.14q0-.586.248-1.018.255-.44.695-.682.445-.248 1-.248.281 0 .636.044.364.045.586.12V7.65a2.5 2.5 0 0 0-.427-.082 3 3 0 0 0-.446-.031zm29.458.412q-.746-.408-1.738-.408-1.109 0-1.809.46a2.8 2.8 0 0 0-1.044 1.197h-.128v-1.53H77.34v9.782h1.503v-5.885q0-.854.325-1.452.325-.6.886-.911a2.6 2.6 0 0 1 1.286-.312q1.045 0 1.644.65.599.642.598 1.794v6.115h1.504V11.23q0-1.247-.414-2.063-.413-.822-1.16-1.223zm-17.782-.28H62.2l-2.75 3.503h-.14V4.406h-3.116V17.45h3.115v-2.937l.644-.779 2.287 3.711 3.598.034-3.568-5.566zM94.81 9.145q-.38-.696-.961-1.04-.574-.343-1.192-.451a6 6 0 0 0-1.083-.115q-.739 0-1.503.204a3.8 3.8 0 0 0-1.402.7q-.637.497-1.019 1.389l1.427.51q.249-.535.86-1.006.613-.472 1.688-.472c.717 0 1.208.174 1.548.523q.516.522.516 1.465v.051q0 .363-.261.51-.255.146-.815.21a60 60 0 0 0-1.445.171q-.682.09-1.357.243a4.7 4.7 0 0 0-1.223.446q-.554.3-.885.828-.332.522-.332 1.363 0 .954.447 1.63.445.67 1.203 1.027.758.35 1.687.35.854 0 1.446-.255t.95-.618q.355-.364.51-.682h.076v1.325h1.504v-6.444q0-1.166-.383-1.86zm-1.12 4.762q0 .613-.319 1.165a2.4 2.4 0 0 1-.93.904q-.611.35-1.503.35c-.595 0-1.094-.132-1.484-.395q-.58-.401-.58-1.185 0-.574.307-.904.312-.338.815-.503.51-.172 1.095-.248.242-.032.63-.076.395-.052.81-.115.42-.07.738-.159.325-.095.421-.21zM73.251 8.106q-.574-.344-1.192-.452a6 6 0 0 0-1.082-.115q-.74 0-1.504.204a3.8 3.8 0 0 0-1.401.7q-.638.497-1.02 1.389l1.428.51q.248-.535.86-1.006.612-.472 1.688-.472c.717 0 1.207.174 1.547.523q.516.522.516 1.465v.051q0 .363-.26.51-.256.146-.816.21-.555.057-1.445.171-.682.09-1.356.243a4.7 4.7 0 0 0-1.223.446q-.555.3-.886.828-.332.522-.332 1.363 0 .954.447 1.63.445.67 1.204 1.027a4 4 0 0 0 1.688.35q.855 0 1.446-.255.592-.255.95-.618.355-.364.51-.682h.076v1.325h1.503v-6.444q0-1.166-.382-1.86t-.963-1.038zm-.159 5.801q0 .613-.319 1.165a2.4 2.4 0 0 1-.93.904q-.61.35-1.503.35c-.595 0-1.094-.132-1.483-.395q-.58-.401-.58-1.185 0-.574.306-.904.312-.338.815-.503.51-.172 1.095-.248.243-.032.631-.076.395-.052.81-.115.42-.07.737-.159.326-.095.421-.21z"/></svg>