<svg xmlns="http://www.w3.org/2000/svg" viewBox="0 0 48 48" class="svg gitea-git" width="16" height="16" aria-hidden="true"><path d="M42.2 22.1 25.9 5.8c-.5-.5-1.2-.8-1.9-.8s-1.4.3-1.9.8l-3.5 3.5 4.1 4.1c.4-.2.8-.3 1.3-.3 1.7 0 3 1.3 3 3 0 .5-.1.9-.3 1.3l4 4c.4-.2.8-.3 1.3-.3 1.7 0 3 1.3 3 3s-1.3 3-3 3-3-1.3-3-3c0-.5.1-.9.3-1.3l-4-4c-.1 0-.2.1-.3.1v10.4c1.2.4 2 1.5 2 2.8 0 1.7-1.3 3-3 3s-3-1.3-3-3c0-1.3.8-2.4 2-2.8V18.8c-1.2-.4-2-1.5-2-2.8 0-.5.1-.9.3-1.3l-4.1-4.1L5.8 22.1c-.5.5-.8 1.2-.8 1.9s.3 1.4.8 1.9l16.3 16.3c.5.5 1.2.8 1.9.8s1.4-.3 1.9-.8l16.3-16.3c.5-.5.8-1.2.8-1.9s-.3-1.4-.8-1.9"/></svg>