<svg viewBox="0 0 768 768" class="svg material-palette" xmlns="http://www.w3.org/2000/svg" width="16" height="16" aria-hidden="true"><path d="M559.5 384c27 0 48-21 48-48s-21-48-48-48-48 21-48 48 21 48 48 48zm-96-127.5c27 0 48-21 48-48s-21-48-48-48-48 21-48 48 21 48 48 48zm-159 0c27 0 48-21 48-48s-21-48-48-48-48 21-48 48 21 48 48 48zm-96 127.5c27 0 48-21 48-48s-21-48-48-48-48 21-48 48 21 48 48 48zM384 96c159 0 288 115.5 288 256.5 0 88.5-72 159-160.5 159H456c-27 0-48 21-48 48 0 12 4.5 22.5 12 31.5s12 21 12 33c0 27-21 48-48 48-159 0-288-129-288-288S225 96 384 96z"/></svg>