<svg xmlns="http://www.w3.org/2000/svg" fill="none" viewBox="0 0 16 16" class="svg octicon-stack-check" width="16" height="16" aria-hidden="true"><path fill="#010409" d="M7.122.392a1.75 1.75 0 0 1 1.756 0l5.003 2.902c.83.481.83 1.68 0 2.162L8.878 8.358a1.75 1.75 0 0 1-1.756 0L2.12 5.456a1.25 1.25 0 0 1 0-2.162zM8.125 1.69a.25.25 0 0 0-.25 0l-4.63 2.685 4.63 2.685a.25.25 0 0 0 .25 0l4.63-2.685zM1.602 7.79a.75.75 0 0 1 1.024-.273l5.249 3.044a.75.75 0 0 1-.753 1.297L1.874 8.814a.75.75 0 0 1-.272-1.025M1.602 11.29a.75.75 0 0 1 1.024-.273l5.249 3.044a.75.75 0 0 1-.753 1.297l-5.248-3.044a.75.75 0 0 1-.272-1.025M14.701 10.49a.75.75 0 1 1 1.098 1.02l-3.719 4a.75.75 0 0 1-1.075.024l-1.781-1.752a.751.751 0 0 1 1.052-1.069l1.23 1.21z"/></svg>