<svg xmlns="http://www.w3.org/2000/svg" viewBox="0 0 16 16" class="svg octicon-people" width="16" height="16" aria-hidden="true"><path d="M2 5.5a3.5 3.5 0 1 1 5.898 2.549 5.51 5.51 0 0 1 3.034 4.084.75.75 0 1 1-1.482.235 4 4 0 0 0-7.9 0 .75.75 0 0 1-1.482-.236A5.5 5.5 0 0 1 3.102 8.05 3.5 3.5 0 0 1 2 5.5M11 4a3.001 3.001 0 0 1 2.22 5.018 5 5 0 0 1 2.56 3.012.749.749 0 0 1-.885.954.75.75 0 0 1-.549-.514 3.51 3.51 0 0 0-2.522-2.372.75.75 0 0 1-.574-.73v-.352a.75.75 0 0 1 .416-.672A1.5 1.5 0 0 0 11 5.5.75.75 0 0 1 11 4m-5.5-.5a2 2 0 1 0-.001 3.999A2 2 0 0 0 5.5 3.5"/></svg>