<svg xmlns="http://www.w3.org/2000/svg" viewBox="0 0 16 16" class="svg octicon-minimize" width="16" height="16" aria-hidden="true"><path d="M6.668 8.583a1 1 0 0 1 .13.012l.017.003q.015.004.031.01c.036.009.073.017.108.032a.7.7 0 0 1 .243.163.7.7 0 0 1 .126.176 1 1 0 0 1 .036.067.8.8 0 0 1 .058.287l-.001 4a.75.75 0 0 1-1.5 0v-2.188L2.53 14.53a.749.749 0 1 1-1.06-1.06l3.387-3.387H2.666a.75.75 0 0 1 0-1.5zM13.47 1.47a.749.749 0 1 1 1.06 1.06l-3.385 3.386h2.188a.75.75 0 0 1 0 1.5l-4 .001a.7.7 0 0 1-.231-.041q-.029-.008-.056-.017a1 1 0 0 1-.067-.036.71.71 0 0 1-.384-.525 1 1 0 0 1-.012-.132v-4a.75.75 0 0 1 1.5 0v2.191z"/></svg>