<svg xmlns="http://www.w3.org/2000/svg" viewBox="0 0 16 16" class="svg octicon-repo-clone" width="16" height="16" aria-hidden="true"><path d="M3.5 0A2.5 2.5 0 0 0 1 2.5v9A2.5 2.5 0 0 0 3.5 14h2.75a.75.75 0 0 0 0-1.5H3.5a1 1 0 0 1 0-2h2.75a.75.75 0 0 0 0-1.5H3.5c-.356 0-.694.074-1 .208V2.5a1 1 0 0 1 1-1h8v2.75a.75.75 0 0 0 1.5 0V.75a.75.75 0 0 0-.75-.75z"/><path d="M8 8.058C8 7.023 8.75 6 9.887 6h5.363a.75.75 0 0 1 .75.75v8.5a.75.75 0 0 1-.75.75h-5A2.25 2.25 0 0 1 8 13.75Zm6.5 3.442v-4H9.887c-.07 0-.156.031-.238.125a.663.663 0 0 0-.149.433v3.57c.235-.083.487-.128.75-.128Zm-5 2.25c0 .414.336.75.75.75h4.25V13h-4.25a.75.75 0 0 0-.75.75"/></svg>