<svg xmlns="http://www.w3.org/2000/svg" viewBox="0 0 16 16" class="svg octicon-shield-x" width="16" height="16" aria-hidden="true"><path d="m8.533.133 5.25 1.68A1.75 1.75 0 0 1 15 3.48V7c0 1.566-.32 3.182-1.303 4.682-.983 1.498-2.585 2.813-5.032 3.855a1.7 1.7 0 0 1-1.33 0c-2.447-1.042-4.049-2.357-5.032-3.855C1.32 10.182 1 8.566 1 7V3.48a1.75 1.75 0 0 1 1.217-1.667l5.25-1.68a1.75 1.75 0 0 1 1.066 0m-.61 1.429zl-5.25 1.68a.25.25 0 0 0-.174.237V7c0 1.36.275 2.666 1.057 3.859.784 1.194 2.121 2.342 4.366 3.298a.2.2 0 0 0 .154 0c2.245-.957 3.582-2.103 4.366-3.297C13.225 9.666 13.5 8.358 13.5 7V3.48a.25.25 0 0 0-.174-.238l-5.25-1.68a.25.25 0 0 0-.153 0M6.78 5.22 8 6.44l1.22-1.22a.749.749 0 0 1 1.275.326.75.75 0 0 1-.215.734L9.06 7.5l1.22 1.22a.749.749 0 0 1-.326 1.275.75.75 0 0 1-.734-.215L8 8.56 6.78 9.78a.75.75 0 0 1-1.042-.018.75.75 0 0 1-.018-1.042L6.94 7.5 5.72 6.28a.749.749 0 0 1 .326-1.275.75.75 0 0 1 .734.215"/></svg>