<svg xmlns="http://www.w3.org/2000/svg" viewBox="0 0 16 16" class="svg octicon-smiley" width="16" height="16" aria-hidden="true"><path d="M8 0a8 8 0 1 1 0 16A8 8 0 0 1 8 0M1.5 8a6.5 6.5 0 1 0 13 0 6.5 6.5 0 0 0-13 0m3.82 1.636a.75.75 0 0 1 1.038.175l.007.009q.155.177.35.31c.264.178.683.37 1.285.37s1.02-.192 1.285-.371q.195-.132.35-.31l.007-.008a.75.75 0 0 1 1.222.87l-.022-.015c.02.013.021.015.021.015v.001l-.001.002-.002.003-.005.007-.014.019a2 2 0 0 1-.184.213q-.241.25-.53.445c-.63.418-1.37.638-2.127.629-.946 0-1.652-.308-2.126-.63a3.3 3.3 0 0 1-.715-.657l-.014-.02-.005-.006-.002-.003v-.002h-.001l.613-.432-.614.43a.75.75 0 0 1 .183-1.044ZM12 7a1 1 0 1 1-2 0 1 1 0 0 1 2 0M5 8a1 1 0 1 1 0-2 1 1 0 0 1 0 2m5.25 2.25.592.416z"/></svg>