<svg xmlns="http://www.w3.org/2000/svg" viewBox="0 0 16 16" class="svg octicon-paperclip" width="16" height="16" aria-hidden="true"><path d="M12.212 3.02a1.753 1.753 0 0 0-2.478.003l-5.83 5.83a3 3 0 0 0-.88 2.127c0 .795.315 1.551.88 2.116.567.567 1.333.89 2.126.89.79 0 1.548-.321 2.116-.89l5.48-5.48a.75.75 0 0 1 1.061 1.06l-5.48 5.48a4.5 4.5 0 0 1-3.177 1.33c-1.2 0-2.345-.487-3.187-1.33a4.48 4.48 0 0 1-1.32-3.177c0-1.195.475-2.341 1.32-3.186l5.83-5.83a3.25 3.25 0 0 1 5.553 2.297c0 .863-.343 1.691-.953 2.301L7.439 12.39c-.375.377-.884.59-1.416.593a2 2 0 0 1-1.412-.593 1.99 1.99 0 0 1 0-2.828l5.48-5.48a.75.75 0 0 1 1.042.018.75.75 0 0 1 .018 1.042l-5.48 5.48a.49.49 0 0 0 0 .707.5.5 0 0 0 .352.154.5.5 0 0 0 .356-.154l5.833-5.827a1.755 1.755 0 0 0 0-2.481Z"/></svg>