<svg xmlns="http://www.w3.org/2000/svg" viewBox="0 0 16 16" class="svg octicon-repo-forked-locked" width="16" height="16" aria-hidden="true"><path d="M9 10.167V9a3 3 0 1 1 6 0v1.168c.591.281 1 .884 1 1.582v2.5A1.75 1.75 0 0 1 14.25 16h-4.5A1.75 1.75 0 0 1 8 14.249v-2.5c0-.698.409-1.3 1-1.582M3.25 1A2.251 2.251 0 0 1 4 5.371v.878c0 .414.336.75.75.75h3.096c-.051.429.008.987.067 1.5H7.75v1.749a2.5 2.5 0 0 0-.5 1.501v.295a.75.75 0 1 0 0 1.409v.796q.002.376.107.72a2.25 2.25 0 0 1-1.106-4.343V8.5h-1.5a2.25 2.25 0 0 1-2.25-2.25v-.878A2.25 2.25 0 0 1 3.25 1m7.5 0a2.25 2.25 0 0 1 1.94 3.388c-.222.379-.55.68-.94.874h-.003a2.22 2.22 0 0 1-1.82.079l-.003-.001A2.248 2.248 0 0 1 10.75 1m2.75 9V9a1.5 1.5 0 0 0-3 0v1ZM3.25 2.499a.75.75 0 1 0 0 1.5.75.75 0 0 0 0-1.5m7.5 0a.75.75 0 1 0 0 1.5.75.75 0 0 0 0-1.5"/><path d="M8.63 7.749a.75.75 0 1 1-1.5 0 .75.75 0 0 1 1.5 0"/></svg>