<svg xmlns="http://www.w3.org/2000/svg" fill="none" viewBox="0 0 16 16" class="svg octicon-sandbox" width="16" height="16" aria-hidden="true"><g clip-path="url(#octicon-sandbox__a)"><path fill="#010409" d="M7.72 8.97a.75.75 0 1 1 1.06 1.06L7.31 11.5l1.47 1.47a.75.75 0 1 1-1.06 1.06l-2-2a.75.75 0 0 1 0-1.06zm3.5 0a.75.75 0 0 1 1.06 0l2 2a.75.75 0 0 1 0 1.06l-2 2a.75.75 0 1 1-1.06-1.06l1.47-1.47-1.47-1.47a.75.75 0 0 1 0-1.06M14.5 8V1.75a.25.25 0 0 0-.25-.25H1.75a.25.25 0 0 0-.25.25v12.5c0 .138.112.25.25.25H3.5a.75.75 0 0 1 0 1.5H1.75A1.75 1.75 0 0 1 0 14.25V1.75C0 .784.784 0 1.75 0h12.5C15.216 0 16 .784 16 1.75V8a.75.75 0 0 1-1.5 0"/></g><defs><clipPath id="octicon-sandbox__a"><path fill="#fff" d="M0 0h16v16H0z"/></clipPath></defs></svg>