<svg xmlns="http://www.w3.org/2000/svg" viewBox="0 0 45 16" class="svg octicon-logo-github" width="16" height="16" aria-hidden="true"><path d="M10.906 13.298V5.741h2.125v7.557zm6.28 0c-1.412 0-1.963-.605-1.963-1.882v-3.9h-1.345V5.741h1.345V4.235l2.124-.498v2.004h1.574v1.775h-1.574v3.429c0 .417.188.578.605.578h.969v1.775zm14.711.135c-1.654 0-2.555-.915-2.555-2.582v-5.11h2.138v4.545c0 .928.417 1.439 1.211 1.439.914 0 1.613-.847 1.613-2.004v-3.98h2.139v7.557h-2.139v-1.277c-.403.82-1.371 1.412-2.407 1.412m10.126 0c-1.103 0-2.044-.592-2.42-1.439v1.304h-2.125V2.756h2.138v4.37c.363-.915 1.345-1.56 2.407-1.56 1.991 0 3.08 1.425 3.08 3.94 0 2.488-1.13 3.927-3.08 3.927m-.753-1.789c1.036 0 1.641-.82 1.641-2.138 0-1.331-.605-2.151-1.641-2.151-.955 0-1.654.86-1.654 2.044v.121c0 1.223.699 2.124 1.654 2.124M26.075 2.756v4.276h-4.008V2.756h-2.286v10.542h2.286V9.076h4.008v4.222h2.286V2.756zM5.083 13.5C1.963 13.5 0 11.362 0 8.013c0-3.348 2.004-5.459 5.177-5.459 2.582 0 4.142 1.102 4.64 2.958l-2.313.552c-.283-1.009-1.09-1.56-2.327-1.56-1.842 0-2.837 1.21-2.837 3.509s.968 3.537 2.783 3.537c1.668 0 2.663-1.022 2.663-2.757V8.39l.592.82H4.935V7.274h5.164v1.224c0 3.213-1.869 5.002-5.016 5.002m6.885-8.472c.713 0 1.264-.551 1.264-1.264S12.681 2.5 11.968 2.5s-1.264.551-1.264 1.264.551 1.264 1.264 1.264"/></svg>