<svg xmlns="http://www.w3.org/2000/svg" viewBox="0 0 17 16" class="svg octicon-feed-pull-request-open" width="16" height="16" aria-hidden="true"><path d="M.5 8a8 8 0 1 1 16 0 8 8 0 0 1-16 0Zm6.75 2.5c0-.793-.527-1.462-1.25-1.678V6.928A1.752 1.752 0 0 0 5.5 3.5 1.75 1.75 0 0 0 5 6.928v1.894a1.752 1.752 0 0 0 .5 3.428 1.75 1.75 0 0 0 1.75-1.75Zm3.25-5h.25a.5.5 0 0 1 .5.5v2.822a1.752 1.752 0 0 0 .5 3.428 1.75 1.75 0 0 0 .5-3.428V6a1.5 1.5 0 0 0-1.5-1.5h-.25V3.129a.25.25 0 0 0-.427-.177L8.202 4.823a.25.25 0 0 0 0 .354l1.871 1.871a.25.25 0 0 0 .427-.177Z"/></svg>