<svg xmlns="http://www.w3.org/2000/svg" viewBox="0 0 16 16" class="svg octicon-repo-forked-locked" width="16" height="16" aria-hidden="true"><path fill-rule="evenodd" d="M9 10.167V9a3 3 0 1 1 6 0v1.167c.591.281 1 .884 1 1.583v2.5A1.75 1.75 0 0 1 14.25 16h-4.5A1.75 1.75 0 0 1 8 14.25v-2.5c0-.699.409-1.302 1-1.583M13.5 10h-3V9a1.5 1.5 0 0 1 3 0z"/><path fill-rule="evenodd" d="M3.25 1a2.247 2.247 0 0 1 1.938 3.388 2.25 2.25 0 0 1-1.189.982v.881a.746.746 0 0 0 .75.748h3.095c-.052.428-.008.986.051 1.499H7.75v1.748c-.315.418-.5.938-.5 1.502v.294a1 1 0 0 0-.256-.041.75.75 0 0 0-.53.22.79.79 0 0 0-.22.547.746.746 0 0 0 .75.748.8.8 0 0 0 .25-.042v.796q.002.376.107.72-.177.03-.357.031a2.247 2.247 0 0 1-1.938-3.388c.268-.456.69-.805 1.19-.983V8.5h-2.5a2.23 2.23 0 0 1-1.586-.66 2.25 2.25 0 0 1-.66-1.591v-.881A2.255 2.255 0 0 1 .03 2.867c.088-.523.36-.998.768-1.34C1.205 1.187 1.72 1 2.25 1zm0 1.499a.75.75 0 0 0-.53.22.8.8 0 0 0-.22.547.75.75 0 0 0 1.5 0 .8.8 0 0 0-.22-.547.75.75 0 0 0-.53-.22m7.5.75a2.247 2.247 0 0 1 1.938 3.388 2.25 2.25 0 0 1-1.189.982V8.96c0 .414.336.75.75.75h.5a.75.75 0 0 1 0 1.5h-.5a3 3 0 0 1-3-3v.54a.746.746 0 0 1 .75-.748h1.01V5a1.5 1.5 0 0 1 1.5-1.5zm0 1.499a.75.75 0 0 0-.53.22.8.8 0 0 0-.22.547.75.75 0 0 0 1.5 0 .8.8 0 0 0-.22-.547.75.75 0 0 0-.53-.22"/><path d="M8.63 7.749a.75.75 0 1 1-1.5 0 .75.75 0 0 1 1.5 0"/></svg>