<svg xmlns="http://www.w3.org/2000/svg" viewBox="0 0 16 16" class="svg octicon-mcp" width="16" height="16" aria-hidden="true"><path d="M5.52 1.12a3.578 3.578 0 0 1 6.078 2.98 3.578 3.578 0 0 1 2.982 6.08l-3.292 3.293a.25.25 0 0 0 0 .354l.843.843a.749.749 0 1 1-1.06 1.06l-.844-.843a1.75 1.75 0 0 1 0-2.474L13.52 9.12a2.08 2.08 0 0 0 0-2.94 2.08 2.08 0 0 0-2.94 0L7.731 9.03A.75.75 0 0 1 6.67 7.97l2.85-2.85a2.08 2.08 0 0 0 0-2.94 2.08 2.08 0 0 0-2.94 0l-4.799 4.8A.75.75 0 0 1 .72 5.92Z"/><path d="M7.52 3.12a.749.749 0 1 1 1.06 1.06L5.731 7.03A2.079 2.079 0 0 0 8.67 9.97l2.85-2.85a.749.749 0 1 1 1.06 1.06l-2.849 2.85A3.578 3.578 0 0 1 4.67 5.97Z"/></svg>