<svg xmlns="http://www.w3.org/2000/svg" viewBox="0 0 16 16" class="svg octicon-git-pull-request-locked" width="16" height="16" aria-hidden="true"><path d="M12 6a3 3 0 0 1 3 3v1.169c.591.281 1 .883 1 1.581v2.5A1.75 1.75 0 0 1 14.25 16h-4.5A1.75 1.75 0 0 1 8 14.25v-2.5c0-.698.409-1.3 1-1.581V9a3 3 0 0 1 3-3m0 1.5A1.5 1.5 0 0 0 10.5 9v1h3V9A1.5 1.5 0 0 0 12 7.5M3.25 1A2.25 2.25 0 0 1 4 5.372v5.257a2.25 2.25 0 1 1-1.5 0V5.372A2.252 2.252 0 0 1 3.25 1m0 1.5a.75.75 0 1 0 0 1.5.75.75 0 0 0 0-1.5m0 9.5a.75.75 0 1 0 0 1.5.75.75 0 0 0 0-1.5M10 .854a.25.25 0 0 0-.427-.177L7.177 3.073a.25.25 0 0 0 0 .355l2.396 2.395A.25.25 0 0 0 10 5.646z"/><path d="M11.997 2.708A2.5 2.5 0 0 0 11 2.5h-1V4h1c.5 0 .891 0 .956.597a.735.735 0 0 0 .746.674.75.75 0 0 0 .746-.674c0-.097 0-.147-.066-.356 0 0-.041-.122-.073-.198a2.2 2.2 0 0 0-.209-.393 2 2 0 0 0-.327-.412l-.039-.036a3 3 0 0 0-.127-.114q-.014-.014-.03-.026a2 2 0 0 0-.172-.129l-.035-.023a3 3 0 0 0-.156-.095l-.047-.025a3 3 0 0 0-.17-.082"/></svg>