<svg xmlns="http://www.w3.org/2000/svg" viewBox="0 0 16 16" class="svg octicon-graph-stacked-area" width="16" height="16" aria-hidden="true"><path d="M10.548 11.513a.775.775 0 0 1-1.096 0L7 9.06 2.56 13.5H14.5V7.56ZM14.72 1.22a.75.75 0 1 1 1.06 1.06l-5.232 5.233a.775.775 0 0 1-1.096 0L7 5.06l-5.72 5.72A.75.75 0 1 1 .22 9.72l6.232-6.233.059-.052a.775.775 0 0 1 1.037.052L10 5.94ZM16 14.225a.776.776 0 0 1-.775.775H.81a.775.775 0 0 1-.548-1.323l6.19-6.19.058-.052a.775.775 0 0 1 1.037.052L10 9.94l4.677-4.676.096-.082A.775.775 0 0 1 16 5.81Z"/></svg>