<svg xmlns="http://www.w3.org/2000/svg" viewBox="0 0 16 16" class="svg octicon-pencil-ai" width="16" height="16" aria-hidden="true"><path d="M11.013 1.427a1.75 1.75 0 0 1 2.474 0l1.086 1.086a1.75 1.75 0 0 1 0 2.474l-8.609 8.61c-.21.21-.471.363-.757.445l-3.251.929a.75.75 0 0 1-.736-.191.75.75 0 0 1-.191-.736l.929-3.251a1.76 1.76 0 0 1 .445-.757Zm-7.549 9.67a.25.25 0 0 0-.064.108l-.558 1.953 1.953-.558a.25.25 0 0 0 .108-.064l6.286-6.286L9.75 4.811Zm8.963-8.61a.25.25 0 0 0-.354 0L10.811 3.75l1.439 1.44 1.263-1.263a.25.25 0 0 0 0-.354Zm-.158 6.676A.25.25 0 0 1 12.502 9a.25.25 0 0 1 .232.163l.238.648a3.72 3.72 0 0 0 2.219 2.219l.649.238a.25.25 0 0 1 .16.202v.063a.25.25 0 0 1-.16.202l-.649.238a3.72 3.72 0 0 0-2.219 2.218l-.238.649a.25.25 0 0 1-.193.16h-.079a.25.25 0 0 1-.193-.16l-.239-.649a3.74 3.74 0 0 0-2.218-2.218l-.649-.238a.248.248 0 0 1-.118-.376.25.25 0 0 1 .118-.091l.649-.238a3.72 3.72 0 0 0 2.218-2.219Z"/></svg>