<svg xmlns="http://www.w3.org/2000/svg" viewBox="0 0 16 16" class="svg octicon-broadcast" width="16" height="16" aria-hidden="true"><path d="M8.75 8.582v5.668a.75.75 0 0 1-1.5 0V8.582a1.75 1.75 0 1 1 1.5 0m3.983-7.125a.75.75 0 0 1 1.06.026A7.98 7.98 0 0 1 16 7c0 2.139-.84 4.083-2.207 5.517a.75.75 0 1 1-1.086-1.034A6.47 6.47 0 0 0 14.5 7a6.47 6.47 0 0 0-1.793-4.483.75.75 0 0 1 .026-1.06m-9.466 0c.3.286.312.76.026 1.06A6.47 6.47 0 0 0 1.5 7a6.47 6.47 0 0 0 1.793 4.483.75.75 0 0 1-1.086 1.034A7.97 7.97 0 0 1 0 7c0-2.139.84-4.083 2.207-5.517a.75.75 0 0 1 1.06-.026m8.556 2.321A5 5 0 0 1 13 7a5 5 0 0 1-1.177 3.222.75.75 0 1 1-1.146-.967A3.5 3.5 0 0 0 11.5 7c0-.86-.309-1.645-.823-2.255a.75.75 0 0 1 1.146-.967m-6.492.958A3.48 3.48 0 0 0 4.5 7a3.48 3.48 0 0 0 .823 2.255.75.75 0 0 1-1.146.967A4.98 4.98 0 0 1 3 7a4.98 4.98 0 0 1 1.188-3.236.75.75 0 1 1 1.143.972"/></svg>