<svg xmlns="http://www.w3.org/2000/svg" viewBox="0 0 16 16" class="svg octicon-pin-slash" width="16" height="16" aria-hidden="true"><path d="m1.655.595 13.75 13.75q.22.219.22.53 0 .311-.22.53-.219.22-.53.22-.311 0-.53-.22L.595 1.655q-.22-.219-.22-.53 0-.311.22-.53.219-.22.53-.22.311 0 .53.22ZM.72 14.22l4.5-4.5q.219-.22.53-.22.311 0 .53.22.22.219.22.53 0 .311-.22.53l-4.5 4.5q-.219.22-.53.22-.311 0-.53-.22-.22-.219-.22-.53 0-.311.22-.53Z"/><path d="m5.424 6.146-1.759.419q-.143.034-.183.175-.04.141.064.245l5.469 5.469q.104.104.245.064.141-.04.175-.183l.359-1.509q.072-.302.337-.465.264-.163.567-.091.302.072.465.337.162.264.09.567l-.359 1.509q-.238.999-1.226 1.278-.988.28-1.714-.446L2.485 8.046q-.726-.726-.446-1.714.279-.988 1.278-1.226l1.759-.419q.303-.072.567.091.265.163.337.465.072.302-.091.567-.163.264-.465.336ZM7.47 3.47q.155-.156.247-.355l.751-1.627Q8.851.659 9.75.498q.899-.16 1.544.486l3.722 3.722q.646.645.486 1.544-.161.899-.99 1.282l-1.627.751q-.199.092-.355.247-.219.22-.53.22-.311 0-.53-.22-.22-.219-.22-.53 0-.311.22-.53.344-.345.787-.549l1.627-.751q.118-.055.141-.183.023-.128-.069-.221l-3.722-3.722q-.092-.092-.221-.069-.128.023-.183.141l-.751 1.627q-.204.443-.549.787-.219.22-.53.22-.311 0-.53-.22-.22-.219-.22-.53 0-.311.22-.53Z"/></svg>