<svg xmlns="http://www.w3.org/2000/svg" viewBox="0 0 16 16" class="svg octicon-file-check" width="16" height="16" aria-hidden="true"><path d="M10.336 0c.464 0 .91.184 1.237.513l2.914 2.914c.33.328.513.773.513 1.237v3.587c0 .199-.079.39-.22.53a.747.747 0 0 1-1.06 0 .75.75 0 0 1-.22-.53V6h-2.75c-.464 0-.909-.184-1.237-.513A1.75 1.75 0 0 1 9 4.25V1.5H3.75a.25.25 0 0 0-.25.25v12.5c0 .138.112.25.25.25H7c.199 0 .39.079.53.22a.747.747 0 0 1 0 1.06A.75.75 0 0 1 7 16H3.75c-.464 0-.909-.184-1.237-.513A1.75 1.75 0 0 1 2 14.25V1.75C2 .784 2.784 0 3.75 0Zm.164 4.25c0 .138.112.25.25.25h2.688l-.011-.013-2.914-2.914-.013-.011Z"/><path d="M15.259 10a.75.75 0 0 1 .686.472.75.75 0 0 1-.171.815l-4.557 4.45a.75.75 0 0 1-1.055-.01L8.22 13.778a.754.754 0 0 1 .04-1.02.75.75 0 0 1 1.02-.038l1.42 1.425 4.025-3.932a.75.75 0 0 1 .534-.213"/></svg>