<svg xmlns="http://www.w3.org/2000/svg" aria-hidden="true" viewBox="0 0 16 16" class="svg octicon-vscode" width="16" height="16"><path d="M10.863 13.919a.8.8 0 0 1-.644.025.8.8 0 0 1-.279-.183L4.816 9.063l-2.232 1.703a.54.54 0 0 1-.691-.031l-.716-.655a.546.546 0 0 1 0-.805L3.112 7.5 1.177 5.725a.546.546 0 0 1 0-.805l.716-.655a.54.54 0 0 1 .691-.031l2.232 1.703L9.94 1.239a.805.805 0 0 1 .923-.159l2.677 1.295c.281.136.46.422.46.736V8h-3.248V4.534L6.864 7.5l3.888 2.966V8H14v3.889c0 .314-.179.6-.46.736z"/></svg>