<svg xmlns="http://www.w3.org/2000/svg" viewBox="0 0 16 16" class="svg octicon-book-locked" width="16" height="16" aria-hidden="true"><path d="M12 6a3 3 0 0 1 3 3v1.168c.591.281 1 .884 1 1.582v2.5A1.75 1.75 0 0 1 14.25 16h-4.5A1.75 1.75 0 0 1 8 14.25v-2.5c0-.698.409-1.301 1-1.582V9a3 3 0 0 1 3-3m0 1.5A1.5 1.5 0 0 0 10.5 9v1h3V9A1.5 1.5 0 0 0 12 7.5"/><path d="M5.003 1c1.227 0 2.317.59 3.001 1.501A3.75 3.75 0 0 1 11.005 1h4.245a.75.75 0 0 1 .75.75V5.5a.75.75 0 0 1-1.5 0v-3h-3.495c-1.21 0-2.204.956-2.255 2.153V6.5a.75.75 0 0 1-1.5 0V4.69A2.25 2.25 0 0 0 5.003 2.5H1.5v9h3.758c.612 0 1.208.15 1.74.429l.005.001a.75.75 0 0 1-.705 1.324l-.001-.001v.002A2.25 2.25 0 0 0 5.258 13H.75a.75.75 0 0 1-.75-.75V1.75A.75.75 0 0 1 .75 1z"/></svg>