<svg xmlns="http://www.w3.org/2000/svg" viewBox="0 0 16 16" class="svg octicon-comment-locked" width="16" height="16" aria-hidden="true"><path d="M12 6a3 3 0 0 1 3 3v1.168c.591.281 1 .884 1 1.582v2.5A1.75 1.75 0 0 1 14.25 16h-4.5A1.75 1.75 0 0 1 8 14.25v-2.5c0-.698.409-1.301 1-1.582V9a3 3 0 0 1 3-3m0 1.5A1.5 1.5 0 0 0 10.5 9v1h3V9A1.5 1.5 0 0 0 12 7.5"/><path d="M10.25 1A1.75 1.75 0 0 1 12 2.75v1.5a.75.75 0 0 1-1.5 0v-1.5a.25.25 0 0 0-.25-.25h-8.5a.25.25 0 0 0-.25.25v5.5a.25.25 0 0 0 .25.25h1c.199 0 .39.079.53.22.141.14.22.331.22.53v2.19l2.72-2.72a.75.75 0 0 1 .53-.22h.35a.75.75 0 0 1 0 1.5h-.039l-2.574 2.573A1.457 1.457 0 0 1 2 11.543V10h-.25A1.75 1.75 0 0 1 0 8.25v-5.5A1.75 1.75 0 0 1 1.75 1zm4 2c.966 0 1.75.784 1.75 1.75v.75q0-.091-.006-.164A.75.75 0 0 1 14.5 5.25v-.5a.25.25 0 0 0-.25-.25h-.5a.75.75 0 0 1-.53-.22.747.747 0 0 1 0-1.06.75.75 0 0 1 .53-.22z"/></svg>