<svg xmlns="http://www.w3.org/2000/svg" viewBox="0 0 16 16" class="svg octicon-file-directory-symlink" width="16" height="16" aria-hidden="true"><path d="M0 2.75C0 1.784.784 1 1.75 1H5a1.75 1.75 0 0 1 1.4.7l.9 1.2a.25.25 0 0 0 .2.1h6.75c.966 0 1.75.784 1.75 1.75v8.5A1.75 1.75 0 0 1 14.25 15H5.375a.75.75 0 0 1 0-1.5h8.875a.25.25 0 0 0 .25-.25v-8.5a.25.25 0 0 0-.25-.25H7.5a1.75 1.75 0 0 1-1.4-.7l-.9-1.2a.25.25 0 0 0-.2-.1H1.75a.25.25 0 0 0-.25.25v3a.75.75 0 0 1-1.5 0z"/><path d="M1.5 12.237a2.25 2.25 0 0 1 2.262-2.249L4 9.989v1.938c0 .218.26.331.42.183l2.883-2.677a.25.25 0 0 0 0-.366L4.42 6.39a.25.25 0 0 0-.42.183v1.916l-.229-.001A3.75 3.75 0 0 0 0 12.237v1.013a.75.75 0 0 0 1.5 0z"/></svg>