<svg xmlns="http://www.w3.org/2000/svg" viewBox="0 0 16 16" class="svg octicon-stack-add" width="16" height="16" aria-hidden="true"><path d="M7.122.392a1.75 1.75 0 0 1 1.756 0l5.003 2.902c.83.481.83 1.68 0 2.162L8.878 8.358a1.75 1.75 0 0 1-1.756 0L2.119 5.456a1.25 1.25 0 0 1 0-2.162ZM8.125 1.69a.25.25 0 0 0-.25 0L3.244 4.375 7.875 7.06a.25.25 0 0 0 .25 0l4.63-2.685ZM1.602 7.789a.75.75 0 0 1 1.024-.272l5.249 3.044a.749.749 0 1 1-.753 1.296L1.874 8.813a.75.75 0 0 1-.272-1.024m0 3.5a.75.75 0 0 1 1.024-.272l5.249 3.044a.749.749 0 1 1-.753 1.296l-5.248-3.044a.75.75 0 0 1-.272-1.024M11.75 15.25v-2h-2a.75.75 0 0 1 0-1.5h2v-2a.75.75 0 0 1 1.5 0v2h2a.75.75 0 0 1 0 1.5h-2v2a.75.75 0 0 1-1.5 0"/></svg>