<svg xmlns="http://www.w3.org/2000/svg" fill="none" viewBox="0 0 16 16" class="svg octicon-flag" width="16" height="16" aria-hidden="true"><path fill="currentColor" d="M15 10.21V2.22c0-.08-.02-.15-.05-.23 0-.02 0-.04-.01-.06-.02-.05-.06-.09-.09-.13s-.04-.08-.07-.11c-.02-.02-.04-.02-.06-.04a.8.8 0 0 0-.19-.12c-2.78-1.11-4.86-.25-6.69.5-1.73.72-3.24 1.33-5.34.57v-.63c0-.41-.34-.75-.75-.75S1 1.56 1 1.97v12.5c0 .41.34.75.75.75s.75-.34.75-.75V4.18c.66.19 1.28.27 1.87.27 1.54 0 2.85-.54 4.05-1.04 1.66-.69 3.12-1.27 5.09-.65v6.43c-2.28-.56-4.06.17-5.66.84-1.25.52-2.41 1-3.79.92-.38-.03-.77.29-.8.7s.29.77.7.8c.14 0 .29.01.42.01 1.52 0 2.8-.53 4.04-1.04 1.79-.74 3.34-1.38 5.56-.5.06.02.12.03.19.03.03 0 .06.02.09.02.23 0 .45-.12.59-.31.04-.05.08-.09.1-.15.02-.05.02-.1.03-.15 0-.04.03-.08.03-.13z"/></svg>