<svg xmlns="http://www.w3.org/2000/svg" viewBox="0 0 16 16" class="svg octicon-passkey-fill" width="16" height="16" aria-hidden="true"><path d="M2.743 4.757a3.757 3.757 0 1 1 5.851 3.119 6 6 0 0 1 2.15 1.383c.17.17.257.405.258.646q.003.897 0 1.795L11 12.778v.721a.5.5 0 0 1-.5.5H1.221a.75.75 0 0 1-.714-.784 6 6 0 0 1 3.899-5.339 3.75 3.75 0 0 1-1.663-3.119"/><path d="M15.75 6.875c0 .874-.448 1.643-1.127 2.09a.27.27 0 0 0-.123.22v.59c0 .067-.026.13-.073.177l-.356.356a.125.125 0 0 0 0 .177l.356.356c.047.047.073.11.073.176v.231c0 .067-.026.13-.073.177l-.356.356a.125.125 0 0 0 0 .177l.356.356c.047.047.073.11.073.177v.287a.25.25 0 0 1-.065.168l-.8.88a.52.52 0 0 1-.77 0l-.8-.88a.25.25 0 0 1-.065-.168V9.185a.26.26 0 0 0-.123-.22 2.5 2.5 0 1 1 3.873-2.09M14 6.5a.75.75 0 1 0-1.5 0 .75.75 0 0 0 1.5 0"/></svg>