<svg xmlns="http://www.w3.org/2000/svg" viewBox="0 0 16 16" class="svg octicon-compose" width="16" height="16" aria-hidden="true"><path d="m14.515.456.965.965a1.555 1.555 0 0 1 0 2.2L9.745 9.355a1.55 1.55 0 0 1-.672.396l-2.89.826a.67.67 0 0 1-.828-.474.66.66 0 0 1 .004-.35l.825-2.89c.073-.254.209-.486.396-.673L12.315.456c.144-.145.316-.259.505-.337a1.54 1.54 0 0 1 1.19 0c.189.078.361.192.505.337m-3.322 3.008-3.67 3.669a.2.2 0 0 0-.057.096L6.97 8.965l1.736-.496a.2.2 0 0 0 .096-.056l3.67-3.67Zm2.065-2.066L12.135 2.52l1.28 1.28 1.122-1.122a.22.22 0 0 0 .065-.157.22.22 0 0 0-.065-.157l-.965-.966a.22.22 0 0 0-.157-.065.23.23 0 0 0-.157.065"/><path d="M0 14.25V2.75A1.75 1.75 0 0 1 1.75 1H7a.75.75 0 0 1 0 1.5H1.75a.25.25 0 0 0-.25.25v11.5a.25.25 0 0 0 .25.25h11.5a.25.25 0 0 0 .25-.25V8.5a.75.75 0 0 1 1.5 0v5.75c0 .464-.184.909-.513 1.237A1.75 1.75 0 0 1 13.25 16H1.75A1.75 1.75 0 0 1 0 14.25"/></svg>