<svg xmlns="http://www.w3.org/2000/svg" viewBox="0 0 16 16" class="svg octicon-feed-issue-draft" width="16" height="16" aria-hidden="true"><path d="M8 0a8 8 0 1 1 0 16A8 8 0 0 1 8 0M3.802 7.334a.75.75 0 0 0-1.482-.233 5.8 5.8 0 0 0 0 1.798.749.749 0 1 0 1.482-.233 4.296 4.296 0 0 1 0-1.332ZM8 2.25a5.8 5.8 0 0 0-.899.07.749.749 0 1 0 .233 1.482 4.296 4.296 0 0 1 1.332 0 .75.75 0 0 0 .233-1.482A5.8 5.8 0 0 0 8 2.25m-.666 9.948a.75.75 0 0 0-.233 1.482 5.8 5.8 0 0 0 1.798 0 .749.749 0 1 0-.233-1.482 4.296 4.296 0 0 1-1.332 0Zm6.346-5.097a.749.749 0 1 0-1.482.233 4.296 4.296 0 0 1 0 1.332.75.75 0 0 0 1.482.233 5.8 5.8 0 0 0 0-1.798Zm-8.178-2.54a.75.75 0 0 0-.882-1.213A5.77 5.77 0 0 0 3.348 4.62a.749.749 0 1 0 1.213.882c.263-.361.58-.678.941-.941Zm-.941 5.937a.75.75 0 0 0-1.213.882 5.77 5.77 0 0 0 1.272 1.272.749.749 0 1 0 .882-1.213 4.285 4.285 0 0 1-.941-.941Zm6.819-7.15a.749.749 0 1 0-.882 1.213c.36.263.679.58.941.941a.75.75 0 0 0 1.213-.882 5.77 5.77 0 0 0-1.272-1.272Zm1.272 8.032a.749.749 0 1 0-1.213-.882c-.262.36-.581.679-.941.941a.75.75 0 0 0 .882 1.213 5.77 5.77 0 0 0 1.272-1.272"/></svg>