<svg xmlns="http://www.w3.org/2000/svg" viewBox="0 0 16 16" class="svg octicon-project-check" width="16" height="16" aria-hidden="true"><path d="M14.25 0C15.216 0 16 .784 16 1.75v6.498a.75.75 0 1 1-1.5.002V6.5h-8v8h.75a.75.75 0 1 1-.001 1.5H1.75A1.75 1.75 0 0 1 0 14.25V1.75C0 .784.784 0 1.75 0ZM1.5 14.25c0 .138.112.25.25.25H5v-8H1.5ZM1.75 1.5a.25.25 0 0 0-.25.25V5H5V1.5Zm4.75 0V5h8V1.75a.25.25 0 0 0-.25-.25Z"/><path d="M15.963 11.737a.75.75 0 0 1-.202.524l-3.5 3.5a.75.75 0 0 1-1.06 0l-2-2a.75.75 0 0 1 1.06-1.06l1.47 1.47 2.97-2.97a.75.75 0 0 1 1.261.536"/></svg>