<svg xmlns="http://www.w3.org/2000/svg" fill="none" viewBox="0 0 16 16" class="svg octicon-stack-remove" width="16" height="16" aria-hidden="true"><path fill="#010409" d="M14.72 10.22a.75.75 0 0 1 1.06 1.06L14.06 13l1.72 1.72a.75.75 0 1 1-1.06 1.06L13 14.06l-1.72 1.72a.75.75 0 0 1-1.06-1.06L11.938 13l-1.72-1.72a.75.75 0 0 1 1.06-1.06L13 11.94zM1.601 11.29a.75.75 0 0 1 1.025-.273l5.249 3.044a.75.75 0 0 1-.753 1.297l-5.248-3.045A.75.75 0 0 1 1.6 11.29M1.601 7.79a.75.75 0 0 1 1.025-.273l5.249 3.044a.75.75 0 0 1-.753 1.297L1.874 8.814A.75.75 0 0 1 1.6 7.789"/><path fill="#010409" fill-rule="evenodd" d="M7.122.393a1.75 1.75 0 0 1 1.755 0l5.003 2.901c.83.482.83 1.68 0 2.162L8.877 8.358a1.75 1.75 0 0 1-1.755 0L2.119 5.456a1.25 1.25 0 0 1 0-2.162zM8.125 1.69a.25.25 0 0 0-.25 0L3.244 4.375l4.63 2.686a.25.25 0 0 0 .25 0l4.63-2.686z" clip-rule="evenodd"/></svg>