<svg xmlns="http://www.w3.org/2000/svg" viewBox="0 0 16 16" class="svg octicon-ai-model" width="16" height="16" aria-hidden="true"><path d="M10.628 7.25a2.25 2.25 0 1 1 0 1.5H8.622a2.25 2.25 0 0 1-2.513 1.466L5.03 12.124a2.25 2.25 0 1 1-1.262-.814l1.035-1.832A2.25 2.25 0 0 1 4.25 8c0-.566.209-1.082.553-1.478L3.768 4.69a2.25 2.25 0 1 1 1.262-.814l1.079 1.908A2.25 2.25 0 0 1 8.622 7.25ZM2.5 2.5a.75.75 0 1 0 1.5 0 .75.75 0 0 0-1.5 0m4 4.75a.75.75 0 1 0 0 1.5.75.75 0 0 0 0-1.5m6.25 0a.75.75 0 1 0 0 1.5.75.75 0 0 0 0-1.5m-9.5 5.5a.75.75 0 1 0 0 1.5.75.75 0 0 0 0-1.5"/></svg>