<svg xmlns="http://www.w3.org/2000/svg" viewBox="0 0 49 16" class="svg octicon-logo-github" width="16" height="16" aria-hidden="true"><path d="M5.606 2.058c2.796 0 4.485 1.194 5.024 3.204l-2.505.597c-.305-1.092-1.179-1.69-2.519-1.69-1.995 0-3.072 1.311-3.072 3.801s1.048 3.83 3.014 3.83c1.656 0 2.7-.93 2.861-2.534H5.344V7.17h5.592v1.326c0 3.48-2.024 5.417-5.432 5.417C2.126 13.912 0 11.596 0 7.97s2.17-5.912 5.606-5.912m28.554 8.373c0 1.005.45 1.559 1.31 1.559.99 0 1.747-.918 1.747-2.17V5.51h2.316v8.183h-2.316V12.31c-.436.888-1.485 1.529-2.606 1.529-1.791 0-2.767-.99-2.767-2.796V5.509h2.315z"/><path fill-rule="evenodd" d="M43.055 7.01c.471-.99 1.535-1.69 2.607-1.69 2.233 0 3.413 1.544 3.334 4.267.078 2.694-1.145 4.252-3.334 4.252-1.116 0-2.136-.641-2.621-1.558v1.412H40.74V2.277h2.315zm1.791.247c-.955 0-1.713.932-1.79 2.213v.131c.077 1.325.835 2.301 1.79 2.301 1.2 0 1.855-.888 1.777-2.315.078-1.442-.577-2.33-1.777-2.33"/><path d="M14.11 13.693h-2.3V5.51h2.3zm4.636-8.183h1.703v1.922h-1.703v3.713c0 .451.204.626.655.626h1.048v1.922h-1.878c-1.53 0-2.126-.655-2.126-2.039V7.432h-1.456V5.509h1.456V3.88l2.3-.54zm5.15-3.233v4.63h4.34v-4.63h2.475v11.416h-2.476V9.121h-4.34v4.572H21.42V2.277zM12.96 2a1.35 1.35 0 0 1 1.369 1.369 1.35 1.35 0 0 1-1.369 1.369 1.35 1.35 0 0 1-1.369-1.37A1.35 1.35 0 0 1 12.96 2"/></svg>