<svg xmlns="http://www.w3.org/2000/svg" viewBox="0 0 16 16" class="svg octicon-git-pull-request-draft" width="16" height="16" aria-hidden="true"><path d="M3.25 1A2.25 2.25 0 0 1 4 5.372v5.256a2.251 2.251 0 1 1-1.5 0V5.372A2.251 2.251 0 0 1 3.25 1m9.5 14a2.25 2.25 0 1 1 0-4.5 2.25 2.25 0 0 1 0 4.5M2.5 3.25a.75.75 0 1 0 1.5 0 .75.75 0 0 0-1.5 0M3.25 12a.75.75 0 1 0 0 1.5.75.75 0 0 0 0-1.5m9.5 0a.75.75 0 1 0 0 1.5.75.75 0 0 0 0-1.5M14 7.5a1.25 1.25 0 1 1-2.5 0 1.25 1.25 0 0 1 2.5 0m0-4.25a1.25 1.25 0 1 1-2.5 0 1.25 1.25 0 0 1 2.5 0"/></svg>