<svg xmlns="http://www.w3.org/2000/svg" viewBox="0 0 16 16" class="svg octicon-bell" width="16" height="16" aria-hidden="true"><path d="M8 16a2 2 0 0 0 1.985-1.75c.017-.137-.097-.25-.235-.25h-3.5c-.138 0-.252.113-.235.25A2 2 0 0 0 8 16M3 5a5 5 0 0 1 10 0v2.947q0 .076.042.139l1.703 2.555A1.519 1.519 0 0 1 13.482 13H2.518a1.516 1.516 0 0 1-1.263-2.36l1.703-2.554A.26.26 0 0 0 3 7.947Zm5-3.5A3.5 3.5 0 0 0 4.5 5v2.947c0 .346-.102.683-.294.97l-1.703 2.556-.003.01.001.006q0 .003.004.006l.006.004.007.001h10.964l.007-.001.006-.004.004-.006.001-.007-.003-.01-1.703-2.554a1.75 1.75 0 0 1-.294-.97V5A3.5 3.5 0 0 0 8 1.5"/></svg>