<svg xmlns="http://www.w3.org/2000/svg" viewBox="0 0 16 16" class="svg octicon-globe" width="16" height="16" aria-hidden="true"><path d="M8 0a8 8 0 1 1 0 16A8 8 0 0 1 8 0M5.78 8.75a9.64 9.64 0 0 0 1.363 4.177q.383.64.857 1.215c.245-.296.551-.705.857-1.215A9.64 9.64 0 0 0 10.22 8.75Zm4.44-1.5a9.64 9.64 0 0 0-1.363-4.177c-.307-.51-.612-.919-.857-1.215a10 10 0 0 0-.857 1.215A9.64 9.64 0 0 0 5.78 7.25Zm-5.944 1.5H1.543a6.51 6.51 0 0 0 4.666 5.5q-.184-.271-.352-.552c-.715-1.192-1.437-2.874-1.581-4.948m-2.733-1.5h2.733c.144-2.074.866-3.756 1.58-4.948q.18-.295.353-.552a6.51 6.51 0 0 0-4.666 5.5m10.181 1.5c-.144 2.074-.866 3.756-1.58 4.948q-.18.296-.353.552a6.51 6.51 0 0 0 4.666-5.5Zm2.733-1.5a6.51 6.51 0 0 0-4.666-5.5q.184.272.353.552c.714 1.192 1.436 2.874 1.58 4.948Z"/></svg>