<svg xmlns="http://www.w3.org/2000/svg" viewBox="0 0 16 16" class="svg octicon-flowchart" width="16" height="16" aria-hidden="true"><path d="M9.25 5c.199 0 .39-.079.53-.22a.747.747 0 0 0 0-1.06.75.75 0 0 0-.53-.22zm-2-1.5a.75.75 0 0 0-.53.22.747.747 0 0 0 0 1.06c.14.141.331.22.53.22zm7 8.75.53.53c.3-.3.3-.77 0-1.06zm-1.47-2.53a.748.748 0 0 0-1.244.23.76.76 0 0 0 .184.83l.53-.53zm-1.06 4a.748.748 0 0 0 .23 1.244.76.76 0 0 0 .83-.184l-.53-.53zm1.53-.72c.199 0 .39-.079.53-.22a.747.747 0 0 0 0-1.06.75.75 0 0 0-.53-.22zm-6-1.5a.75.75 0 0 0-.53.22.747.747 0 0 0 0 1.06c.14.141.331.22.53.22zm3.53-4.72.53-.53-1.06-1.06-.53.53.53.53zM5.72 9.72l-.53.53 1.06 1.06.53-.53-.53-.53zm3.53-5.47V3.5h-2V5h2zm5 8 .53-.53-2-2-.53.53-.53.53 2 2zm0 0-.53-.53-2 2 .53.53.53.53 2-2zm-1 0v-.75h-6V13h6zm-3-6-.53-.53-4 4 .53.53.53.53 4-4zM3.25 2v.75h2v-1.5h-2zm2 0v.75c.28 0 .5.22.5.5h1.5a2 2 0 0 0-2-2zM6.5 3.25h-.75v2h1.5v-2zm0 2h-.75c0 .133-.053.26-.146.354a.5.5 0 0 1-.354.146v1.5a2 2 0 0 0 2-2zM5.25 6.5v-.75h-2v1.5h2zm-2 0v-.75a.5.5 0 0 1-.354-.146.5.5 0 0 1-.146-.354h-1.5c0 1.1.9 2 2 2zM2 5.25h.75v-2h-1.5v2zm0-2h.75c0-.28.22-.5.5-.5v-1.5a2 2 0 0 0-2 2zM11.25 2v.75h2v-1.5h-2zm2 0v.75c.28 0 .5.22.5.5h1.5a2 2 0 0 0-2-2zm1.25 1.25h-.75v2h1.5v-2zm0 2h-.75c0 .133-.053.26-.146.354a.5.5 0 0 1-.354.146v1.5a2 2 0 0 0 2-2zM13.25 6.5v-.75h-2v1.5h2zm-2 0v-.75a.5.5 0 0 1-.354-.146.5.5 0 0 1-.146-.354h-1.5c0 1.1.9 2 2 2zM10 5.25h.75v-2h-1.5v2zm0-2h.75c0-.28.22-.5.5-.5v-1.5a2 2 0 0 0-2 2zM3.25 10v.75h2v-1.5h-2zm2 0v.75c.28 0 .5.22.5.5h1.5a2 2 0 0 0-2-2zm1.25 1.25h-.75v2h1.5v-2zm0 2h-.75c0 .133-.053.26-.146.354a.5.5 0 0 1-.354.146v1.5a2 2 0 0 0 2-2zM5.25 14.5v-.75h-2v1.5h2zm-2 0v-.75a.5.5 0 0 1-.354-.146.5.5 0 0 1-.146-.354h-1.5c0 1.1.9 2 2 2zM2 13.25h.75v-2h-1.5v2zm0-2h.75c0-.28.22-.5.5-.5v-1.5a2 2 0 0 0-2 2z"/></svg>