<svg xmlns="http://www.w3.org/2000/svg" viewBox="0 0 16 16" class="svg octicon-issue-locked" width="16" height="16" aria-hidden="true"><path d="M12.001 6a3 3 0 0 1 3 3v1.168c.591.281 1 .884 1 1.582v2.5a1.75 1.75 0 0 1-1.75 1.75h-4.5a1.75 1.75 0 0 1-1.75-1.75v-2.5c0-.698.409-1.301 1-1.582V9a3 3 0 0 1 3-3m0 1.5a1.5 1.5 0 0 0-1.5 1.5v1h3V9a1.5 1.5 0 0 0-1.5-1.5"/><path d="M5.095.546a8 8 0 0 1 3.847-.49l.259.035a8 8 0 0 1 3.58 1.494l.207.16a8 8 0 0 1 2.148 2.639c.187.369-.005.807-.391.959s-.817-.04-1.013-.406a6.5 6.5 0 0 0-1.242-1.635l-.11-.105-.052-.046a6 6 0 0 0-.226-.193l-.049-.04-.042-.031a6 6 0 0 0-.249-.187l-.082-.057a6 6 0 0 0-.683-.411l-.028-.014a6.5 6.5 0 0 0-1.146-.458l-.039-.011a7 7 0 0 0-.376-.095l-.018-.005a6 6 0 0 0-.409-.075l-.003-.001h-.003l-.015-.002a8 8 0 0 0-.479-.051 6 6 0 0 0-.26-.015l-.155-.004L8 1.5q-.084.001-.168.004-.081 0-.162.004a6 6 0 0 0-.37.029l-.069.009q-.165.02-.325.047l-.079.014a7 7 0 0 0-.383.082q-.405.1-.788.249l-.016.005a6.6 6.6 0 0 0-1.096.553l-.083.053a7 7 0 0 0-.288.197l-.022.017a6 6 0 0 0-.609.509l-.064.061q-.123.119-.238.243l-.038.039a7 7 0 0 0-.254.296l-.015.019q-.017.021-.033.044a6 6 0 0 0-.188.249q-.028.037-.054.076a6.5 6.5 0 0 0-.89 1.854l-.014.048a7 7 0 0 0-.084.327l-.02.089a6.4 6.4 0 0 0-.145 1.159l-.003.129L1.5 8q.001.099.005.196l.003.102a7 7 0 0 0 .034.434q.022.184.052.366l.007.034c.148.84.456 1.625.893 2.321l.034.052q.087.135.18.266l.054.076q.115.157.239.306l.024.029q.113.133.232.259l.073.077q.095.098.195.193.043.043.088.084a7 7 0 0 0 .299.259q.093.074.187.145l.072.052.146.104a6.5 6.5 0 0 0 1.929.904c.399.112.68.492.615.901s-.45.691-.851.588a8 8 0 0 1-3.041-1.528l-.202-.169A8.01 8.01 0 0 1 .059 7.03l.036-.259a8 8 0 0 1 1.507-3.574l.161-.207A8 8 0 0 1 5.095.546"/><path d="M8.001 6.5c.259 0 .511.068.733.192A4 4 0 0 0 8.001 9v.5a1.503 1.503 0 0 1-1.5-1.5 1.503 1.503 0 0 1 1.5-1.5"/></svg>