<svg xmlns="http://www.w3.org/2000/svg" viewBox="0 0 16 16" class="svg octicon-thumbsup" width="16" height="16" aria-hidden="true"><path d="M8.347.631A.75.75 0 0 1 9.123.26l.238.04a3.25 3.25 0 0 1 2.591 4.098L11.494 6h.665a3.25 3.25 0 0 1 3.118 4.167l-1.135 3.859A2.75 2.75 0 0 1 11.503 16H6.586a3.75 3.75 0 0 1-2.184-.702A1.75 1.75 0 0 1 3 16H1.75A1.75 1.75 0 0 1 0 14.25v-6.5C0 6.784.784 6 1.75 6h3.417a.25.25 0 0 0 .217-.127ZM4.75 13.649l.396.33c.404.337.914.521 1.44.521h4.917a1.25 1.25 0 0 0 1.2-.897l1.135-3.859A1.75 1.75 0 0 0 12.159 7.5H10.5a.75.75 0 0 1-.721-.956l.731-2.558a1.75 1.75 0 0 0-1.127-2.14L6.69 6.611a1.75 1.75 0 0 1-1.523.889H4.75ZM3.25 7.5h-1.5a.25.25 0 0 0-.25.25v6.5c0 .138.112.25.25.25H3a.25.25 0 0 0 .25-.25Z"/></svg>