<svg xmlns="http://www.w3.org/2000/svg" viewBox="0 0 16 16" class="svg octicon-smiley-frown" width="16" height="16" aria-hidden="true"><path d="M8 0a7.996 7.996 0 0 1 8 8 8 8 0 1 1-8-8m0 1.5a6.5 6.5 0 1 0 0 13 6.5 6.5 0 0 0 0-13m0 7.996a3.78 3.78 0 0 1 2.127.629q.289.195.53.445.1.1.184.213l.015.019.004.008.002.002.001.002v.001a1 1 0 0 1-.07.05l.071-.05a.753.753 0 0 1-.175 1.046.75.75 0 0 1-1.047-.175l-.007-.009a1.8 1.8 0 0 0-.35-.31c-.265-.179-.683-.371-1.285-.371s-1.021.192-1.285.37a1.8 1.8 0 0 0-.35.31l-.007.01a.747.747 0 0 1-1.038.174h-.001a.75.75 0 0 1-.183-1.044l.614.43-.612-.432v-.002l.002-.002.005-.007.014-.02a3.3 3.3 0 0 1 .715-.657c.474-.322 1.18-.63 2.126-.63M5 6a1 1 0 1 1 0 1.998A1 1 0 0 1 5 6m6 0a1 1 0 1 1 0 1.998A1 1 0 0 1 11 6"/></svg>