<svg xmlns="http://www.w3.org/2000/svg" viewBox="0 0 16 16" class="svg octicon-vscode" width="16" height="16" aria-hidden="true"><path fill="currentColor" fill-rule="evenodd" d="M11.098 1.013a.87.87 0 0 1 .524.073l2.883 1.394a.88.88 0 0 1 .495.793v9.454a.88.88 0 0 1-.495.792l-2.883 1.393a.86.86 0 0 1-.994-.17l-5.519-5.06-2.403 1.835a.58.58 0 0 1-.744-.034l-.772-.705a.59.59 0 0 1 0-.867L3.274 8 1.19 6.088a.59.59 0 0 1 0-.866l.772-.706a.58.58 0 0 1 .744-.034l2.403 1.834 5.519-5.058a.87.87 0 0 1 .47-.245M7.315 8l4.187 3.193V11H11.5V6h.002V4.806z" clip-rule="evenodd"/></svg>