<svg xmlns="http://www.w3.org/2000/svg" viewBox="0 0 16 16" class="svg octicon-smiley-frustrated" width="16" height="16" aria-hidden="true"><path d="M8 0a7.996 7.996 0 0 1 8 8 8 8 0 1 1-8-8m0 1.5a6.5 6.5 0 1 0 0 13 6.5 6.5 0 0 0 0-13m0 6.75c2.487 0 3.518 1.98 3.727 2.818A.75.75 0 0 1 11 12H5a.75.75 0 0 1-.728-.932C4.482 10.23 5.513 8.25 8 8.25m3.259-3.854a.651.651 0 0 1 .482 1.208L10.75 6l.991.396a.651.651 0 0 1-.482 1.208L8.99 6.696a.75.75 0 0 1 0-1.392Zm-7.363.363a.65.65 0 0 1 .845-.363l2.268.908a.75.75 0 0 1 0 1.392l-2.268.908a.651.651 0 0 1-.483-1.208L5.25 6l-.992-.396a.65.65 0 0 1-.362-.845M8 9.75c-.822 0-1.383.351-1.746.75h3.492c-.363-.399-.924-.75-1.746-.75"/></svg>