<svg xmlns="http://www.w3.org/2000/svg" viewBox="0 0 16 16" class="svg octicon-gear" width="16" height="16" aria-hidden="true"><path d="M8 0a8 8 0 0 1 .701.031C9.444.095 9.99.645 10.16 1.29l.288 1.107c.018.066.079.158.212.224q.347.171.668.386c.123.082.233.09.299.071l1.103-.303c.644-.176 1.392.021 1.82.63q.406.578.704 1.218c.315.675.111 1.422-.364 1.891l-.814.806c-.049.048-.098.147-.088.294q.024.386 0 .772c-.01.147.038.246.088.294l.814.806c.475.469.679 1.216.364 1.891a8 8 0 0 1-.704 1.217c-.428.61-1.176.807-1.82.63l-1.102-.302c-.067-.019-.177-.011-.3.071a6 6 0 0 1-.668.386c-.133.066-.194.158-.211.224l-.29 1.106c-.168.646-.715 1.196-1.458 1.26a8 8 0 0 1-1.402 0c-.743-.064-1.289-.614-1.458-1.26l-.289-1.106c-.018-.066-.079-.158-.212-.224a6 6 0 0 1-.668-.386c-.123-.082-.233-.09-.299-.071l-1.103.303c-.644.176-1.392-.021-1.82-.63a8 8 0 0 1-.704-1.218c-.315-.675-.111-1.422.363-1.891l.815-.806c.05-.048.098-.147.088-.294a6 6 0 0 1 0-.772c.01-.147-.038-.246-.088-.294l-.815-.806C.635 6.045.431 5.298.746 4.623a8 8 0 0 1 .704-1.217c.428-.61 1.176-.807 1.82-.63l1.102.302c.067.019.177.011.3-.071q.321-.215.668-.386c.133-.066.194-.158.211-.224l.29-1.106C6.009.645 6.556.095 7.299.03Q7.646 0 8 0m-.571 1.525c-.036.003-.108.036-.137.146l-.289 1.105c-.147.561-.549.967-.998 1.189q-.26.13-.5.29c-.417.278-.97.423-1.529.27l-1.103-.303c-.109-.03-.175.016-.195.045q-.33.47-.573.99c-.014.031-.021.11.059.19l.815.806c.411.406.562.957.53 1.456a5 5 0 0 0 0 .582c.032.499-.119 1.05-.53 1.456l-.815.806c-.081.08-.073.159-.059.19q.243.52.573.989c.02.03.085.076.195.046l1.102-.303c.56-.153 1.113-.008 1.53.27q.242.16.501.29c.447.222.85.629.997 1.189l.289 1.105c.029.109.101.143.137.146a6.6 6.6 0 0 0 1.142 0c.036-.003.108-.036.137-.146l.289-1.105c.147-.561.549-.967.998-1.189q.26-.13.5-.29c.417-.278.97-.423 1.529-.27l1.103.303c.109.029.175-.016.195-.045q.33-.47.573-.99c.014-.031.021-.11-.059-.19l-.815-.806c-.411-.406-.562-.957-.53-1.456a5 5 0 0 0 0-.582c-.032-.499.119-1.05.53-1.456l.815-.806c.081-.08.073-.159.059-.19a6.5 6.5 0 0 0-.573-.989c-.02-.03-.085-.076-.195-.046l-1.102.303c-.56.153-1.113.008-1.53-.27a4.4 4.4 0 0 0-.501-.29c-.447-.222-.85-.629-.997-1.189l-.289-1.105c-.029-.11-.101-.143-.137-.146a6.6 6.6 0 0 0-1.142 0M11 8a3 3 0 1 1-6 0 3 3 0 0 1 6 0M9.5 8a1.5 1.5 0 1 0-3.001.001A1.5 1.5 0 0 0 9.5 8"/></svg>