<svg xmlns="http://www.w3.org/2000/svg" viewBox="0 0 16 16" class="svg octicon-node" width="16" height="16" aria-hidden="true"><path d="M8 5a1.5 1.5 0 0 0 1.061-.439 1.507 1.507 0 0 0 0-2.122 1.507 1.507 0 0 0-2.122 0 1.503 1.503 0 0 0 0 2.122C7.221 4.842 7.602 5 8 5m0 9a1.5 1.5 0 0 0 1.061-.439 1.507 1.507 0 0 0 0-2.122 1.507 1.507 0 0 0-2.122 0 1.503 1.503 0 0 0 0 2.122c.282.281.663.439 1.061.439m-7-2.5v-7a1.75 1.75 0 0 1 1.75-1.75H4.5a.75.75 0 0 1 0 1.5H2.75a.25.25 0 0 0-.25.25v7l.005.049a.246.246 0 0 0 .245.201H4.5a.75.75 0 0 1 0 1.5H2.75A1.75 1.75 0 0 1 1 11.5m12.5 0v-7a.25.25 0 0 0-.201-.245l-.049-.005H11.5a.75.75 0 0 1 0-1.5h1.75A1.75 1.75 0 0 1 15 4.5v7c0 .464-.184.909-.513 1.237a1.75 1.75 0 0 1-1.237.513H11.5a.75.75 0 0 1 0-1.5h1.75a.25.25 0 0 0 .25-.25"/></svg>