<svg xmlns="http://www.w3.org/2000/svg" viewBox="0 0 16 16" class="svg octicon-feed-pull-request-draft" width="16" height="16" aria-hidden="true"><path d="M0 8a8 8 0 1 1 16 0A8 8 0 0 1 0 8m7.25 2.5c0-.793-.527-1.462-1.25-1.678V6.928A1.752 1.752 0 0 0 5.5 3.5 1.75 1.75 0 0 0 5 6.928v1.894a1.752 1.752 0 0 0 .5 3.428 1.75 1.75 0 0 0 1.75-1.75m3.25 1.75a1.75 1.75 0 1 0 .001-3.499 1.75 1.75 0 0 0-.001 3.499m0-4.5a.75.75 0 1 0 0-1.5.75.75 0 0 0 0 1.5m.75-3.25a.75.75 0 1 0-1.5 0 .75.75 0 0 0 1.5 0"/></svg>