<svg xmlns="http://www.w3.org/2000/svg" viewBox="0 0 16 16" class="svg octicon-graph-bar-horizontal" width="16" height="16" aria-hidden="true"><path d="M15.25 15H.75q-.311 0-.53-.22-.22-.219-.22-.53t.22-.53q.219-.22.53-.22h14.5q.311 0 .53.22.22.219.22.53t-.22.53q-.219.22-.53.22"/><path d="M2.25 7h2.5a.25.25 0 0 1 .25.25v6.5a.25.25 0 0 1-.25.25h-2.5a.25.25 0 0 1-.25-.25v-6.5A.25.25 0 0 1 2.25 7m4-4h2.5a.25.25 0 0 1 .25.25v10.5a.25.25 0 0 1-.25.25h-2.5a.25.25 0 0 1-.25-.25V3.25A.25.25 0 0 1 6.25 3m4 6h2.5a.25.25 0 0 1 .25.25v4.5a.25.25 0 0 1-.25.25h-2.5a.25.25 0 0 1-.25-.25v-4.5a.25.25 0 0 1 .25-.25"/></svg>