<svg xmlns="http://www.w3.org/2000/svg" viewBox="0 0 16 16" class="svg octicon-project-template" width="16" height="16" aria-hidden="true"><path d="M12.688 0h1.562C15.217 0 16 .784 16 1.75v1.562c0 .199-.079.39-.22.53a.747.747 0 0 1-1.06 0 .75.75 0 0 1-.22-.53V1.75a.25.25 0 0 0-.25-.25h-1.562a.75.75 0 0 1-.53-.22.747.747 0 0 1 0-1.06.75.75 0 0 1 .53-.22M1.5 1.75v1.562c0 .199-.079.39-.22.53a.747.747 0 0 1-1.06 0 .75.75 0 0 1-.22-.53V1.75C0 .784.784 0 1.75 0h1.562c.199 0 .39.079.53.22a.747.747 0 0 1 0 1.06.75.75 0 0 1-.53.22H1.75a.25.25 0 0 0-.25.25m0 10.938v1.562c0 .138.112.25.25.25h1.562c.199 0 .39.079.53.22a.747.747 0 0 1 0 1.06.75.75 0 0 1-.53.22H1.75c-.464 0-.909-.184-1.237-.513A1.75 1.75 0 0 1 0 14.25v-1.562c0-.199.079-.39.22-.53a.747.747 0 0 1 1.06 0c.141.14.22.331.22.53m14.5 0v1.562a1.75 1.75 0 0 1-1.08 1.617c-.213.088-.44.133-.67.133h-1.562a.75.75 0 0 1-.53-.22.747.747 0 0 1 0-1.06.75.75 0 0 1 .53-.22h1.562a.25.25 0 0 0 .25-.25v-1.562c0-.199.079-.39.22-.53a.747.747 0 0 1 1.06 0c.141.14.22.331.22.53M6.438 0h3.124c.199 0 .39.079.53.22a.747.747 0 0 1 0 1.06.75.75 0 0 1-.53.22H6.438a.75.75 0 0 1-.53-.22.747.747 0 0 1 0-1.06.75.75 0 0 1 .53-.22M1.5 6.438v3.124c0 .199-.079.39-.22.53a.747.747 0 0 1-1.06 0 .75.75 0 0 1-.22-.53V6.438c0-.199.079-.39.22-.53a.747.747 0 0 1 1.06 0c.141.14.22.331.22.53M6.438 14.5h3.124c.199 0 .39.079.53.22a.747.747 0 0 1 0 1.06.75.75 0 0 1-.53.22H6.438a.75.75 0 0 1-.53-.22.747.747 0 0 1 0-1.06.75.75 0 0 1 .53-.22M16 6.438v3.124c0 .199-.079.39-.22.53a.747.747 0 0 1-1.06 0 .75.75 0 0 1-.22-.53V6.438c0-.199.079-.39.22-.53a.747.747 0 0 1 1.06 0c.141.14.22.331.22.53M6.5 10.75v2.5c0 .199-.079.39-.22.53a.747.747 0 0 1-1.06 0 .75.75 0 0 1-.22-.53v-2.5c0-.199.079-.39.22-.53a.747.747 0 0 1 1.06 0c.141.14.22.331.22.53m3.5-5c0-.199.079-.39.22-.53a.75.75 0 0 1 .53-.22h2.5c.199 0 .39.079.53.22a.747.747 0 0 1 0 1.06.75.75 0 0 1-.53.22h-2.5a.75.75 0 0 1-.53-.22.75.75 0 0 1-.22-.53m-4.25 1c.199 0 .39.079.53.22.141.14.22.331.22.53v1c0 .199-.079.39-.22.53a.747.747 0 0 1-1.06 0A.75.75 0 0 1 5 8.5v-1c0-.199.079-.39.22-.53a.75.75 0 0 1 .53-.22m1-1c0-.199.079-.39.22-.53A.75.75 0 0 1 7.5 5h1c.199 0 .39.079.53.22a.747.747 0 0 1 0 1.06.75.75 0 0 1-.53.22h-1a.75.75 0 0 1-.53-.22.75.75 0 0 1-.22-.53m-4.5 0c0-.199.079-.39.22-.53A.75.75 0 0 1 3 5h1c.199 0 .39.079.53.22a.747.747 0 0 1 0 1.06.75.75 0 0 1-.53.22H3a.75.75 0 0 1-.53-.22.75.75 0 0 1-.22-.53M6.5 3v1c0 .199-.079.39-.22.53a.747.747 0 0 1-1.06 0A.75.75 0 0 1 5 4V3c0-.199.079-.39.22-.53a.747.747 0 0 1 1.06 0c.141.14.22.331.22.53"/></svg>