<svg xmlns="http://www.w3.org/2000/svg" viewBox="0 0 16 16" class="svg octicon-graph-bar-vertical" width="16" height="16" aria-hidden="true"><path d="M1 15.25V.75q0-.311.22-.53.219-.22.53-.22t.53.22q.22.219.22.53v14.5q0 .311-.22.53-.219.22-.53.22t-.53-.22Q1 15.561 1 15.25"/><path d="M9 3.25v2.5a.25.25 0 0 1-.25.25h-6.5A.25.25 0 0 1 2 5.75v-2.5A.25.25 0 0 1 2.25 3h6.5a.25.25 0 0 1 .25.25m4 4v2.5a.25.25 0 0 1-.25.25H2.25A.25.25 0 0 1 2 9.75v-2.5A.25.25 0 0 1 2.25 7h10.5a.25.25 0 0 1 .25.25m-6 4v2.5a.25.25 0 0 1-.25.25h-4.5a.25.25 0 0 1-.25-.25v-2.5a.25.25 0 0 1 .25-.25h4.5a.25.25 0 0 1 .25.25"/></svg>