<svg xmlns="http://www.w3.org/2000/svg" viewBox="0 0 16 16" class="svg octicon-cloud-offline" width="16" height="16" aria-hidden="true"><path d="M7.25 2c-.69 0-1.351.13-1.957.371a.75.75 0 1 0 .554 1.394c.43-.17.903-.265 1.403-.265a3.72 3.72 0 0 1 3.541 2.496.75.75 0 0 0 .709.504c1.676 0 3 1.324 3 3a3 3 0 0 1-.681 1.92.75.75 0 0 0 1.156.955A4.5 4.5 0 0 0 16 9.5a4.47 4.47 0 0 0-3.983-4.471A5.22 5.22 0 0 0 7.25 2M.72 1.72a.75.75 0 0 1 1.06 0l2.311 2.31q.045.038.08.08l8.531 8.532.035.034 2.043 2.044a.749.749 0 0 1-.326 1.275.75.75 0 0 1-.734-.215l-1.8-1.799a5 5 0 0 1-.42.019h-8A3.474 3.474 0 0 1 0 10.5c0-1.41.809-2.614 2.001-3.17a5.2 5.2 0 0 1 .646-2.622L.72 2.78a.75.75 0 0 1 0-1.06M3.5 7.25q.006.242.041.481a.75.75 0 0 1-.557.833c-.86.22-1.484.986-1.484 1.936 0 1.124.876 2 2 2h6.94L3.771 5.832A3.8 3.8 0 0 0 3.5 7.25"/></svg>