<svg xmlns="http://www.w3.org/2000/svg" viewBox="0 0 17 16" class="svg octicon-feed-issue-reopen" width="16" height="16" aria-hidden="true"><path d="M.5 8a8 8 0 1 1 16 0 8 8 0 0 1-16 0m3.427-4.323a.25.25 0 0 0-.427.177V6c0 .138.112.25.25.25h2.146a.25.25 0 0 0 .177-.427l-.524-.524a4.003 4.003 0 0 1 6.862 1.858.75.75 0 0 0 1.467-.314 5.502 5.502 0 0 0-9.39-2.605Zm9.573 8.469V10a.25.25 0 0 0-.25-.25h-2.146a.25.25 0 0 0-.177.427l.524.524a4.002 4.002 0 0 1-6.862-1.858.75.75 0 0 0-1.467.314 5.502 5.502 0 0 0 9.39 2.605l.561.561a.25.25 0 0 0 .427-.177ZM10 8a1.5 1.5 0 1 0-3.001.001A1.5 1.5 0 0 0 10 8"/></svg>