<svg xmlns="http://www.w3.org/2000/svg" viewBox="0 0 16 16" class="svg octicon-thumbsdown" width="16" height="16" aria-hidden="true"><path d="M7.653 15.369a.75.75 0 0 1-.776.371l-.238-.04a3.25 3.25 0 0 1-2.591-4.099L4.506 10h-.665A3.25 3.25 0 0 1 .723 5.833l1.135-3.859A2.75 2.75 0 0 1 4.482 0H9.43c.78.003 1.538.25 2.168.702A1.75 1.75 0 0 1 12.989 0h1.272A1.75 1.75 0 0 1 16 1.75v6.5A1.75 1.75 0 0 1 14.25 10h-3.417a.25.25 0 0 0-.217.127ZM11.25 2.351l-.396-.33a2.25 2.25 0 0 0-1.44-.521H4.496a1.25 1.25 0 0 0-1.199.897L2.162 6.256A1.75 1.75 0 0 0 3.841 8.5H5.5a.75.75 0 0 1 .721.956l-.731 2.558a1.75 1.75 0 0 0 1.127 2.14L9.31 9.389a1.75 1.75 0 0 1 1.523-.889h.417Zm1.5 6.149h1.5a.25.25 0 0 0 .25-.25v-6.5a.25.25 0 0 0-.25-.25H13a.25.25 0 0 0-.25.25Z"/></svg>