<svg xmlns="http://www.w3.org/2000/svg" viewBox="0 0 16 16" class="svg octicon-sparkles-fill" width="16" height="16" aria-hidden="true"><path d="M9.6 2.279a.426.426 0 0 1 .8 0l.407 1.112a6.39 6.39 0 0 0 3.802 3.802l1.112.407a.426.426 0 0 1 0 .8l-1.112.407a6.39 6.39 0 0 0-3.802 3.802l-.407 1.112a.426.426 0 0 1-.8 0l-.407-1.112a6.39 6.39 0 0 0-3.802-3.802L4.279 8.4a.426.426 0 0 1 0-.8l1.112-.407a6.39 6.39 0 0 0 3.802-3.802zm-4.267 8.837a.178.178 0 0 1 .334 0l.169.464a2.66 2.66 0 0 0 1.584 1.584l.464.169a.178.178 0 0 1 0 .334l-.464.169a2.66 2.66 0 0 0-1.584 1.584l-.169.464a.178.178 0 0 1-.334 0l-.169-.464a2.66 2.66 0 0 0-1.584-1.584l-.464-.169a.178.178 0 0 1 0-.334l.464-.169a2.66 2.66 0 0 0 1.584-1.584zM2.8.14a.213.213 0 0 1 .4 0l.203.556a3.2 3.2 0 0 0 1.901 1.901l.556.203a.213.213 0 0 1 0 .4l-.556.203a3.2 3.2 0 0 0-1.901 1.901L3.2 5.86a.213.213 0 0 1-.4 0l-.203-.556A3.2 3.2 0 0 0 .696 3.403L.14 3.2a.213.213 0 0 1 0-.4l.556-.203A3.2 3.2 0 0 0 2.597.696z"/></svg>