<svg xmlns="http://www.w3.org/2000/svg" viewBox="0 0 16 16" class="svg octicon-duplicate" width="16" height="16" aria-hidden="true"><path d="M10.5 3a.75.75 0 0 1 .75.75v1h1a.75.75 0 0 1 0 1.5h-1v1a.75.75 0 0 1-1.5 0v-1h-1a.75.75 0 0 1 0-1.5h1v-1A.75.75 0 0 1 10.5 3"/><path d="M6.75 0h7.5C15.216 0 16 .784 16 1.75v7.5A1.75 1.75 0 0 1 14.25 11h-7.5A1.75 1.75 0 0 1 5 9.25v-7.5C5 .784 5.784 0 6.75 0M6.5 1.75v7.5c0 .138.112.25.25.25h7.5a.25.25 0 0 0 .25-.25v-7.5a.25.25 0 0 0-.25-.25h-7.5a.25.25 0 0 0-.25.25"/><path d="M1.75 5A1.75 1.75 0 0 0 0 6.75v7.5C0 15.216.784 16 1.75 16h7.5A1.75 1.75 0 0 0 11 14.25v-1.5a.75.75 0 0 0-1.5 0v1.5a.25.25 0 0 1-.25.25h-7.5a.25.25 0 0 1-.25-.25v-7.5a.25.25 0 0 1 .25-.25h1.5a.75.75 0 0 0 0-1.5z"/></svg>