<svg xmlns="http://www.w3.org/2000/svg" viewBox="0 0 16 16" class="svg octicon-comment-ai" width="16" height="16" aria-hidden="true"><path d="M7.75 1a.75.75 0 0 1 0 1.5h-5a.25.25 0 0 0-.25.25v7.5c0 .138.112.25.25.25h2c.199 0 .39.079.53.22.141.14.22.331.22.53v2.19l2.72-2.72a.75.75 0 0 1 .53-.22h4.5a.25.25 0 0 0 .25-.25v-2a.75.75 0 0 1 1.5 0v2c0 .464-.184.909-.513 1.237A1.75 1.75 0 0 1 13.25 12H9.06l-2.573 2.573A1.457 1.457 0 0 1 4 13.543V12H2.75A1.75 1.75 0 0 1 1 10.25v-7.5C1 1.784 1.784 1 2.75 1zm4.519-.837a.248.248 0 0 1 .466 0l.238.648a3.73 3.73 0 0 0 2.218 2.219l.649.238a.249.249 0 0 1 0 .467l-.649.238a3.73 3.73 0 0 0-2.218 2.218l-.238.649a.248.248 0 0 1-.466 0l-.239-.649a3.73 3.73 0 0 0-2.218-2.218l-.649-.238a.249.249 0 0 1 0-.467l.649-.238A3.73 3.73 0 0 0 12.03.811z"/></svg>