<svg xmlns="http://www.w3.org/2000/svg" viewBox="0 0 16 16" class="svg octicon-smiley-grin" width="16" height="16" aria-hidden="true"><path d="M8 0a7.996 7.996 0 0 1 8 8 8 8 0 1 1-8-8m0 1.5a6.5 6.5 0 1 0 0 13 6.5 6.5 0 0 0 0-13m3 7.75a.75.75 0 0 1 .727.932C11.518 11.02 10.487 13 8 13s-3.518-1.98-3.728-2.818A.75.75 0 0 1 5 9.25ZM8.329 6.164c.895-1.788 3.447-1.788 4.342 0a.75.75 0 0 1-1.342.671.927.927 0 0 0-1.658 0 .75.75 0 0 1-1.342-.671m-5 0c.895-1.788 3.447-1.788 4.342 0a.75.75 0 0 1-1.342.671.927.927 0 0 0-1.658 0 .75.75 0 0 1-1.342-.671m2.925 4.586c.363.399.924.75 1.746.75s1.383-.351 1.746-.75Z"/></svg>