<svg width="124" height="123" viewBox="0 0 124 123" fill="none" xmlns="http://www.w3.org/2000/svg">
<path d="M54.0747 19.5051V0C26.126 3.37684 3.82244 25.0407 0.0673828 52.6183H8.27474C33.5269 52.6183 54.0747 37.7669 54.0747 19.5051Z" fill="#4E40FA"/>
<path d="M54.0829 60.8509V52.4844C53.142 53.3076 52.176 54.1224 51.1511 54.8952C39.6087 63.7153 24.3869 68.5706 8.27457 68.5706H0C3.82226 98.433 29.4776 121.726 60.9042 122.163H60.8958C75.454 122.356 88.9033 117.602 99.6224 109.504C74.2275 107.833 54.0745 86.656 54.0745 60.8509H54.0829Z" fill="#4E40FA"/>
<path d="M102.858 93.6671H114.35C120.314 84.4101 123.834 73.4732 123.993 61.713C124.43 30.3302 100.858 4.1471 70.0449 0.0898438V60.8478C70.0449 78.9417 84.7711 93.6671 102.866 93.6671H102.858Z" fill="#4E40FA"/>
</svg>
