<svg width="17" height="16" viewBox="0 0 17 16" fill="none" xmlns="http://www.w3.org/2000/svg">
<path fill-rule="evenodd" clip-rule="evenodd" d="M8.50008 1.66797C5.00228 1.66797 2.16675 4.5035 2.16675 8.0013C2.16675 11.4991 5.00228 14.3346 8.50008 14.3346C11.9979 14.3346 14.8334 11.4991 14.8334 8.0013C14.8334 4.5035 11.9979 1.66797 8.50008 1.66797ZM1.16675 8.0013C1.16675 3.95121 4.44999 0.667969 8.50008 0.667969C12.5502 0.667969 15.8334 3.95121 15.8334 8.0013C15.8334 12.0514 12.5502 15.3346 8.50008 15.3346C4.44999 15.3346 1.16675 12.0514 1.16675 8.0013Z" fill="#59636E"/>
<path d="M8.5 4C10.5 4 12.5 5.2 12.5 8" stroke="black"/>
</svg>
