
CASCADE Topology V1, (c) Matra-Datavision
Locations 204
1
1.000000000000000 0.000000000000000 0.000000000000000 0.000000000000000 
0.000000000000000 -0.000000000000103 -1.000000000000000 155.000000000000000 
0.000000000000000 1.000000000000000 -0.000000000000103 0.000000000000000 
1
1.000000000000000 0.000000000000000 0.000000000000000 0.000000000000000 
0.000000000000000 1.000000000000000 0.000000000000000 0.000000000000000 
0.000000000000000 0.000000000000000 1.000000000000000 0.000000000000000 
1
1.000000000000000 0.000000000000000 0.000000000000000 -0.000000000000000 
0.000000000000000 1.000000000000000 0.000000000000000 18.500000000000000 
0.000000000000000 0.000000000000000 1.000000000000000 0.000000000001914 
2  1 1 2 -1 3 1 0
1
1.000000000000000 0.000000000000000 0.000000000000000 0.000000000000000 
0.000000000000000 1.000000000000000 0.000000000000000 -37.000000000000000 
0.000000000000000 0.000000000000000 1.000000000000000 -0.000000000003828 
2  1 1 2 -1 3 1 5 1 0
1
1.000000000000000 0.000000000000000 0.000000000000000 0.000000000000000 
0.000000000000000 1.000000000000000 0.000000000000000 0.000000000000000 
0.000000000000000 0.000000000000000 1.000000000000000 0.000000000000000 
2  7 1 1 -1 0
1
1.000000000000000 0.000000000000000 0.000000000000000 0.000000000000000 
0.000000000000000 1.000000000000000 0.000000000000000 -10.000000000000000 
0.000000000000000 0.000000000000000 1.000000000000000 -0.000000000001035 
2  9 -1 7 1 1 -1 0
1
1.000000000000000 0.000000000000000 0.000000000000000 -0.000000000000000 
0.000000000000000 1.000000000000000 0.000000000000000 5.000000000000000 
0.000000000000000 0.000000000000000 1.000000000000000 0.000000000000517 
1
1.000000000000000 0.000000000000000 0.000000000000000 0.000000000000000 
0.000000000000000 1.000000000000000 0.000000000000000 0.000000000000000 
0.000000000000000 0.000000000000000 1.000000000000000 0.000000000000000 
2  11 -1 12 1 1 -1 0
1
1.000000000000000 0.000000000000000 0.000000000000000 0.000000000000000 
0.000000000000000 1.000000000000000 0.000000000000000 -10.000000000000000 
0.000000000000000 0.000000000000000 1.000000000000000 -0.000000000001035 
2  14 -1 11 -1 12 1 1 -1 0
1
1.000000000000000 0.000000000000000 0.000000000000000 -0.000000000000000 
0.000000000000000 1.000000000000000 0.000000000000000 5.500000000000000 
0.000000000000000 0.000000000000000 1.000000000000000 0.000000000000569 
1
1.000000000000000 0.000000000000000 0.000000000000000 0.000000000000000 
0.000000000000000 1.000000000000000 0.000000000000000 0.000000000000000 
0.000000000000000 0.000000000000000 1.000000000000000 0.000000000000000 
2  16 -1 17 1 1 -1 0
1
1.000000000000000 0.000000000000000 0.000000000000000 0.000000000000000 
0.000000000000000 1.000000000000000 0.000000000000000 -11.000000000000000 
0.000000000000000 0.000000000000000 1.000000000000000 -0.000000000001138 
2  19 -1 16 -1 17 1 1 -1 0
1
1.000000000000000 0.000000000000000 0.000000000000000 -0.000000000000000 
0.000000000000000 1.000000000000000 0.000000000000000 6.000000000000000 
0.000000000000000 0.000000000000000 1.000000000000000 0.000000000000621 
1
1.000000000000000 0.000000000000000 0.000000000000000 0.000000000000000 
0.000000000000000 1.000000000000000 0.000000000000000 0.000000000000000 
0.000000000000000 0.000000000000000 1.000000000000000 0.000000000000000 
2  21 -1 22 1 1 -1 0
1
1.000000000000000 0.000000000000000 0.000000000000000 0.000000000000000 
0.000000000000000 1.000000000000000 0.000000000000000 -12.000000000000000 
0.000000000000000 0.000000000000000 1.000000000000000 -0.000000000001242 
2  24 -1 21 -1 22 1 1 -1 0
1
1.000000000000000 0.000000000000000 0.000000000000000 -0.000000000000000 
0.000000000000000 1.000000000000000 0.000000000000000 6.500000000000000 
0.000000000000000 0.000000000000000 1.000000000000000 0.000000000000673 
1
1.000000000000000 0.000000000000000 0.000000000000000 0.000000000000000 
0.000000000000000 1.000000000000000 0.000000000000000 0.000000000000000 
0.000000000000000 0.000000000000000 1.000000000000000 0.000000000000000 
2  26 -1 27 1 1 -1 0
1
1.000000000000000 0.000000000000000 0.000000000000000 0.000000000000000 
0.000000000000000 1.000000000000000 0.000000000000000 -13.000000000000000 
0.000000000000000 0.000000000000000 1.000000000000000 -0.000000000001345 
2  29 -1 26 -1 27 1 1 -1 0
1
1.000000000000000 0.000000000000000 0.000000000000000 -0.000000000000000 
0.000000000000000 1.000000000000000 0.000000000000000 7.000000000000000 
0.000000000000000 0.000000000000000 1.000000000000000 0.000000000000724 
1
1.000000000000000 0.000000000000000 0.000000000000000 0.000000000000000 
0.000000000000000 1.000000000000000 0.000000000000000 0.000000000000000 
0.000000000000000 0.000000000000000 1.000000000000000 0.000000000000000 
2  31 -1 32 1 1 -1 0
1
1.000000000000000 0.000000000000000 0.000000000000000 0.000000000000000 
0.000000000000000 1.000000000000000 0.000000000000000 -14.000000000000000 
0.000000000000000 0.000000000000000 1.000000000000000 -0.000000000001449 
2  34 -1 31 -1 32 1 1 -1 0
1
1.000000000000000 0.000000000000000 0.000000000000000 -0.000000000000000 
0.000000000000000 1.000000000000000 0.000000000000000 7.500000000000000 
0.000000000000000 0.000000000000000 1.000000000000000 0.000000000000776 
1
1.000000000000000 0.000000000000000 0.000000000000000 0.000000000000000 
0.000000000000000 1.000000000000000 0.000000000000000 0.000000000000000 
0.000000000000000 0.000000000000000 1.000000000000000 0.000000000000000 
2  36 -1 37 1 1 -1 0
1
1.000000000000000 0.000000000000000 0.000000000000000 0.000000000000000 
0.000000000000000 1.000000000000000 0.000000000000000 -15.000000000000000 
0.000000000000000 0.000000000000000 1.000000000000000 -0.000000000001552 
2  39 -1 36 -1 37 1 1 -1 0
1
1.000000000000000 0.000000000000000 0.000000000000000 -0.000000000000000 
0.000000000000000 1.000000000000000 0.000000000000000 8.000000000000000 
0.000000000000000 0.000000000000000 1.000000000000000 0.000000000000828 
1
1.000000000000000 0.000000000000000 0.000000000000000 0.000000000000000 
0.000000000000000 1.000000000000000 0.000000000000000 0.000000000000000 
0.000000000000000 0.000000000000000 1.000000000000000 0.000000000000000 
2  41 -1 42 1 1 -1 0
1
1.000000000000000 0.000000000000000 0.000000000000000 0.000000000000000 
0.000000000000000 1.000000000000000 0.000000000000000 -16.000000000000000 
0.000000000000000 0.000000000000000 1.000000000000000 -0.000000000001656 
2  44 -1 41 -1 42 1 1 -1 0
1
1.000000000000000 0.000000000000000 0.000000000000000 -0.000000000000000 
0.000000000000000 1.000000000000000 0.000000000000000 8.500000000000000 
0.000000000000000 0.000000000000000 1.000000000000000 0.000000000000880 
1
1.000000000000000 0.000000000000000 0.000000000000000 0.000000000000000 
0.000000000000000 1.000000000000000 0.000000000000000 0.000000000000000 
0.000000000000000 0.000000000000000 1.000000000000000 0.000000000000000 
2  46 -1 47 1 1 -1 0
1
1.000000000000000 0.000000000000000 0.000000000000000 0.000000000000000 
0.000000000000000 1.000000000000000 0.000000000000000 -17.000000000000000 
0.000000000000000 0.000000000000000 1.000000000000000 -0.000000000001759 
2  49 -1 46 -1 47 1 1 -1 0
1
1.000000000000000 0.000000000000000 0.000000000000000 -0.000000000000000 
0.000000000000000 1.000000000000000 0.000000000000000 9.000000000000000 
0.000000000000000 0.000000000000000 1.000000000000000 0.000000000000931 
1
1.000000000000000 0.000000000000000 0.000000000000000 0.000000000000000 
0.000000000000000 1.000000000000000 0.000000000000000 0.000000000000000 
0.000000000000000 0.000000000000000 1.000000000000000 0.000000000000000 
2  51 -1 52 1 1 -1 0
1
1.000000000000000 0.000000000000000 0.000000000000000 0.000000000000000 
0.000000000000000 1.000000000000000 0.000000000000000 -18.000000000000000 
0.000000000000000 0.000000000000000 1.000000000000000 -0.000000000001863 
2  54 -1 51 -1 52 1 1 -1 0
1
1.000000000000000 0.000000000000000 0.000000000000000 -0.000000000000000 
0.000000000000000 1.000000000000000 0.000000000000000 9.500000000000000 
0.000000000000000 0.000000000000000 1.000000000000000 0.000000000000983 
1
1.000000000000000 0.000000000000000 0.000000000000000 0.000000000000000 
0.000000000000000 1.000000000000000 0.000000000000000 0.000000000000000 
0.000000000000000 0.000000000000000 1.000000000000000 0.000000000000000 
2  56 -1 57 1 1 -1 0
1
1.000000000000000 0.000000000000000 0.000000000000000 0.000000000000000 
0.000000000000000 1.000000000000000 0.000000000000000 -19.000000000000000 
0.000000000000000 0.000000000000000 1.000000000000000 -0.000000000001966 
2  59 -1 56 -1 57 1 1 -1 0
1
1.000000000000000 0.000000000000000 0.000000000000000 -0.000000000000000 
0.000000000000000 1.000000000000000 0.000000000000000 10.000000000000000 
0.000000000000000 0.000000000000000 1.000000000000000 0.000000000001035 
1
1.000000000000000 0.000000000000000 0.000000000000000 0.000000000000000 
0.000000000000000 1.000000000000000 0.000000000000000 0.000000000000000 
0.000000000000000 0.000000000000000 1.000000000000000 0.000000000000000 
2  61 -1 62 1 1 -1 0
1
1.000000000000000 0.000000000000000 0.000000000000000 0.000000000000000 
0.000000000000000 1.000000000000000 0.000000000000000 -20.000000000000000 
0.000000000000000 0.000000000000000 1.000000000000000 -0.000000000002069 
2  64 -1 61 -1 62 1 1 -1 0
1
1.000000000000000 0.000000000000000 0.000000000000000 -0.000000000000000 
0.000000000000000 1.000000000000000 0.000000000000000 10.500000000000000 
0.000000000000000 0.000000000000000 1.000000000000000 0.000000000001086 
1
1.000000000000000 0.000000000000000 0.000000000000000 0.000000000000000 
0.000000000000000 1.000000000000000 0.000000000000000 0.000000000000000 
0.000000000000000 0.000000000000000 1.000000000000000 0.000000000000000 
2  66 -1 67 1 1 -1 0
1
1.000000000000000 0.000000000000000 0.000000000000000 0.000000000000000 
0.000000000000000 1.000000000000000 0.000000000000000 -21.000000000000000 
0.000000000000000 0.000000000000000 1.000000000000000 -0.000000000002173 
2  69 -1 66 -1 67 1 1 -1 0
1
1.000000000000000 0.000000000000000 0.000000000000000 -0.000000000000000 
0.000000000000000 1.000000000000000 0.000000000000000 11.000000000000000 
0.000000000000000 0.000000000000000 1.000000000000000 0.000000000001138 
1
1.000000000000000 0.000000000000000 0.000000000000000 0.000000000000000 
0.000000000000000 1.000000000000000 0.000000000000000 0.000000000000000 
0.000000000000000 0.000000000000000 1.000000000000000 0.000000000000000 
2  71 -1 72 1 1 -1 0
1
1.000000000000000 0.000000000000000 0.000000000000000 0.000000000000000 
0.000000000000000 1.000000000000000 0.000000000000000 -22.000000000000000 
0.000000000000000 0.000000000000000 1.000000000000000 -0.000000000002276 
2  74 -1 71 -1 72 1 1 -1 0
1
1.000000000000000 0.000000000000000 0.000000000000000 -0.000000000000000 
0.000000000000000 1.000000000000000 0.000000000000000 11.500000000000000 
0.000000000000000 0.000000000000000 1.000000000000000 0.000000000001190 
1
1.000000000000000 0.000000000000000 0.000000000000000 0.000000000000000 
0.000000000000000 1.000000000000000 0.000000000000000 0.000000000000000 
0.000000000000000 0.000000000000000 1.000000000000000 0.000000000000000 
2  76 -1 77 1 1 -1 0
1
1.000000000000000 0.000000000000000 0.000000000000000 0.000000000000000 
0.000000000000000 1.000000000000000 0.000000000000000 -23.000000000000000 
0.000000000000000 0.000000000000000 1.000000000000000 -0.000000000002380 
2  79 -1 76 -1 77 1 1 -1 0
1
1.000000000000000 0.000000000000000 0.000000000000000 -0.000000000000000 
0.000000000000000 1.000000000000000 0.000000000000000 12.000000000000000 
0.000000000000000 0.000000000000000 1.000000000000000 0.000000000001242 
1
1.000000000000000 0.000000000000000 0.000000000000000 0.000000000000000 
0.000000000000000 1.000000000000000 0.000000000000000 0.000000000000000 
0.000000000000000 0.000000000000000 1.000000000000000 0.000000000000000 
2  81 -1 82 1 1 -1 0
1
1.000000000000000 0.000000000000000 0.000000000000000 0.000000000000000 
0.000000000000000 1.000000000000000 0.000000000000000 -24.000000000000000 
0.000000000000000 0.000000000000000 1.000000000000000 -0.000000000002483 
2  84 -1 81 -1 82 1 1 -1 0
1
1.000000000000000 0.000000000000000 0.000000000000000 -0.000000000000000 
0.000000000000000 1.000000000000000 0.000000000000000 12.500000000000000 
0.000000000000000 0.000000000000000 1.000000000000000 0.000000000001293 
1
1.000000000000000 0.000000000000000 0.000000000000000 0.000000000000000 
0.000000000000000 1.000000000000000 0.000000000000000 0.000000000000000 
0.000000000000000 0.000000000000000 1.000000000000000 0.000000000000000 
2  86 -1 87 1 1 -1 0
1
1.000000000000000 0.000000000000000 0.000000000000000 0.000000000000000 
0.000000000000000 1.000000000000000 0.000000000000000 -25.000000000000000 
0.000000000000000 0.000000000000000 1.000000000000000 -0.000000000002587 
2  89 -1 86 -1 87 1 1 -1 0
1
1.000000000000000 0.000000000000000 0.000000000000000 -0.000000000000000 
0.000000000000000 1.000000000000000 0.000000000000000 13.000000000000000 
0.000000000000000 0.000000000000000 1.000000000000000 0.000000000001345 
1
1.000000000000000 0.000000000000000 0.000000000000000 0.000000000000000 
0.000000000000000 1.000000000000000 0.000000000000000 0.000000000000000 
0.000000000000000 0.000000000000000 1.000000000000000 0.000000000000000 
2  91 -1 92 1 1 -1 0
1
1.000000000000000 0.000000000000000 0.000000000000000 0.000000000000000 
0.000000000000000 1.000000000000000 0.000000000000000 -26.000000000000000 
0.000000000000000 0.000000000000000 1.000000000000000 -0.000000000002690 
2  94 -1 91 -1 92 1 1 -1 0
1
1.000000000000000 0.000000000000000 0.000000000000000 -0.000000000000000 
0.000000000000000 1.000000000000000 0.000000000000000 13.500000000000000 
0.000000000000000 0.000000000000000 1.000000000000000 0.000000000001397 
1
1.000000000000000 0.000000000000000 0.000000000000000 0.000000000000000 
0.000000000000000 1.000000000000000 0.000000000000000 0.000000000000000 
0.000000000000000 0.000000000000000 1.000000000000000 0.000000000000000 
2  96 -1 97 1 1 -1 0
1
1.000000000000000 0.000000000000000 0.000000000000000 0.000000000000000 
0.000000000000000 1.000000000000000 0.000000000000000 -27.000000000000000 
0.000000000000000 0.000000000000000 1.000000000000000 -0.000000000002794 
2  99 -1 96 -1 97 1 1 -1 0
1
1.000000000000000 0.000000000000000 0.000000000000000 -0.000000000000000 
0.000000000000000 1.000000000000000 0.000000000000000 14.000000000000000 
0.000000000000000 0.000000000000000 1.000000000000000 0.000000000001449 
1
1.000000000000000 0.000000000000000 0.000000000000000 0.000000000000000 
0.000000000000000 1.000000000000000 0.000000000000000 0.000000000000000 
0.000000000000000 0.000000000000000 1.000000000000000 0.000000000000000 
2  101 -1 102 1 1 -1 0
1
1.000000000000000 0.000000000000000 0.000000000000000 0.000000000000000 
0.000000000000000 1.000000000000000 0.000000000000000 -28.000000000000000 
0.000000000000000 0.000000000000000 1.000000000000000 -0.000000000002897 
2  104 -1 101 -1 102 1 1 -1 0
1
1.000000000000000 0.000000000000000 0.000000000000000 -0.000000000000000 
0.000000000000000 1.000000000000000 0.000000000000000 14.500000000000000 
0.000000000000000 0.000000000000000 1.000000000000000 0.000000000001500 
1
1.000000000000000 0.000000000000000 0.000000000000000 0.000000000000000 
0.000000000000000 1.000000000000000 0.000000000000000 0.000000000000000 
0.000000000000000 0.000000000000000 1.000000000000000 0.000000000000000 
2  106 -1 107 1 1 -1 0
1
1.000000000000000 0.000000000000000 0.000000000000000 0.000000000000000 
0.000000000000000 1.000000000000000 0.000000000000000 -29.000000000000000 
0.000000000000000 0.000000000000000 1.000000000000000 -0.000000000003001 
2  109 -1 106 -1 107 1 1 -1 0
1
1.000000000000000 0.000000000000000 0.000000000000000 -0.000000000000000 
0.000000000000000 1.000000000000000 0.000000000000000 15.000000000000000 
0.000000000000000 0.000000000000000 1.000000000000000 0.000000000001552 
1
1.000000000000000 0.000000000000000 0.000000000000000 0.000000000000000 
0.000000000000000 1.000000000000000 0.000000000000000 0.000000000000000 
0.000000000000000 0.000000000000000 1.000000000000000 0.000000000000000 
2  111 -1 112 1 1 -1 0
1
1.000000000000000 0.000000000000000 0.000000000000000 0.000000000000000 
0.000000000000000 1.000000000000000 0.000000000000000 -30.000000000000000 
0.000000000000000 0.000000000000000 1.000000000000000 -0.000000000003104 
2  114 -1 111 -1 112 1 1 -1 0
1
1.000000000000000 0.000000000000000 0.000000000000000 -0.000000000000000 
0.000000000000000 1.000000000000000 0.000000000000000 15.500000000000000 
0.000000000000000 0.000000000000000 1.000000000000000 0.000000000001604 
1
1.000000000000000 0.000000000000000 0.000000000000000 0.000000000000000 
0.000000000000000 1.000000000000000 0.000000000000000 0.000000000000000 
0.000000000000000 0.000000000000000 1.000000000000000 0.000000000000000 
2  116 -1 117 1 1 -1 0
1
1.000000000000000 0.000000000000000 0.000000000000000 0.000000000000000 
0.000000000000000 1.000000000000000 0.000000000000000 -31.000000000000000 
0.000000000000000 0.000000000000000 1.000000000000000 -0.000000000003208 
2  119 -1 116 -1 117 1 1 -1 0
1
1.000000000000000 0.000000000000000 0.000000000000000 -0.000000000000000 
0.000000000000000 1.000000000000000 0.000000000000000 16.000000000000000 
0.000000000000000 0.000000000000000 1.000000000000000 0.000000000001656 
1
1.000000000000000 0.000000000000000 0.000000000000000 0.000000000000000 
0.000000000000000 1.000000000000000 0.000000000000000 0.000000000000000 
0.000000000000000 0.000000000000000 1.000000000000000 0.000000000000000 
2  121 -1 122 1 1 -1 0
1
1.000000000000000 0.000000000000000 0.000000000000000 0.000000000000000 
0.000000000000000 1.000000000000000 0.000000000000000 -32.000000000000000 
0.000000000000000 0.000000000000000 1.000000000000000 -0.000000000003311 
2  124 -1 121 -1 122 1 1 -1 0
1
1.000000000000000 0.000000000000000 0.000000000000000 -0.000000000000000 
0.000000000000000 1.000000000000000 0.000000000000000 16.500000000000000 
0.000000000000000 0.000000000000000 1.000000000000000 0.000000000001707 
1
1.000000000000000 0.000000000000000 0.000000000000000 0.000000000000000 
0.000000000000000 1.000000000000000 0.000000000000000 0.000000000000000 
0.000000000000000 0.000000000000000 1.000000000000000 0.000000000000000 
2  126 -1 127 1 1 -1 0
1
1.000000000000000 0.000000000000000 0.000000000000000 0.000000000000000 
0.000000000000000 1.000000000000000 0.000000000000000 -33.000000000000000 
0.000000000000000 0.000000000000000 1.000000000000000 -0.000000000003415 
2  129 -1 126 -1 127 1 1 -1 0
1
1.000000000000000 0.000000000000000 0.000000000000000 -0.000000000000000 
0.000000000000000 1.000000000000000 0.000000000000000 17.000000000000000 
0.000000000000000 0.000000000000000 1.000000000000000 0.000000000001759 
1
1.000000000000000 0.000000000000000 0.000000000000000 0.000000000000000 
0.000000000000000 1.000000000000000 0.000000000000000 0.000000000000000 
0.000000000000000 0.000000000000000 1.000000000000000 0.000000000000000 
2  131 -1 132 1 1 -1 0
1
1.000000000000000 0.000000000000000 0.000000000000000 0.000000000000000 
0.000000000000000 1.000000000000000 0.000000000000000 -34.000000000000000 
0.000000000000000 0.000000000000000 1.000000000000000 -0.000000000003518 
2  134 -1 131 -1 132 1 1 -1 0
1
1.000000000000000 0.000000000000000 0.000000000000000 -0.000000000000000 
0.000000000000000 1.000000000000000 0.000000000000000 17.500000000000000 
0.000000000000000 0.000000000000000 1.000000000000000 0.000000000001811 
1
1.000000000000000 0.000000000000000 0.000000000000000 0.000000000000000 
0.000000000000000 1.000000000000000 0.000000000000000 0.000000000000000 
0.000000000000000 0.000000000000000 1.000000000000000 0.000000000000000 
2  136 -1 137 1 1 -1 0
1
1.000000000000000 0.000000000000000 0.000000000000000 0.000000000000000 
0.000000000000000 1.000000000000000 0.000000000000000 -35.000000000000000 
0.000000000000000 0.000000000000000 1.000000000000000 -0.000000000003622 
2  139 -1 136 -1 137 1 1 -1 0
1
1.000000000000000 0.000000000000000 0.000000000000000 -0.000000000000000 
0.000000000000000 1.000000000000000 0.000000000000000 18.000000000000000 
0.000000000000000 0.000000000000000 1.000000000000000 0.000000000001863 
1
1.000000000000000 0.000000000000000 0.000000000000000 0.000000000000000 
0.000000000000000 1.000000000000000 0.000000000000000 0.000000000000000 
0.000000000000000 0.000000000000000 1.000000000000000 0.000000000000000 
2  141 -1 142 1 1 -1 0
1
1.000000000000000 0.000000000000000 0.000000000000000 0.000000000000000 
0.000000000000000 1.000000000000000 0.000000000000000 -36.000000000000000 
0.000000000000000 0.000000000000000 1.000000000000000 -0.000000000003725 
2  144 -1 141 -1 142 1 1 -1 0
1
1.000000000000000 0.000000000000000 0.000000000000000 -0.000000000000000 
0.000000000000000 1.000000000000000 0.000000000000000 18.500000000000000 
0.000000000000000 0.000000000000000 1.000000000000000 0.000000000001914 
1
1.000000000000000 0.000000000000000 0.000000000000000 0.000000000000000 
0.000000000000000 1.000000000000000 0.000000000000000 0.000000000000000 
0.000000000000000 0.000000000000000 1.000000000000000 0.000000000000000 
2  146 -1 147 1 1 -1 0
1
1.000000000000000 0.000000000000000 0.000000000000000 0.000000000000000 
0.000000000000000 1.000000000000000 0.000000000000000 -37.000000000000000 
0.000000000000000 0.000000000000000 1.000000000000000 -0.000000000003828 
2  149 -1 146 -1 147 1 1 -1 0
1
1.000000000000000 0.000000000000000 0.000000000000000 -0.000000000000000 
0.000000000000000 1.000000000000000 0.000000000000000 18.500000000000000 
0.000000000000000 0.000000000000000 1.000000000000000 0.000000000001914 
1
1.000000000000000 0.000000000000000 0.000000000000000 0.000000000000000 
0.000000000000000 1.000000000000000 0.000000000000000 0.000000000000000 
0.000000000000000 0.000000000000000 1.000000000000000 0.000000000000000 
2  151 -1 152 1 1 -1 0
1
1.000000000000000 0.000000000000000 0.000000000000000 0.000000000000000 
0.000000000000000 1.000000000000000 0.000000000000000 -37.000000000000000 
0.000000000000000 0.000000000000000 1.000000000000000 -0.000000000003828 
2  154 -1 151 -1 152 1 1 -1 0
1
1.000000000000000 0.000000000000000 0.000000000000000 -0.000000000000000 
0.000000000000000 1.000000000000000 0.000000000000000 18.500000000000000 
0.000000000000000 0.000000000000000 1.000000000000000 0.000000000001914 
1
1.000000000000000 0.000000000000000 0.000000000000000 0.000000000000000 
0.000000000000000 1.000000000000000 0.000000000000000 0.000000000000000 
0.000000000000000 0.000000000000000 1.000000000000000 0.000000000000000 
2  156 -1 157 1 1 -1 0
1
1.000000000000000 0.000000000000000 0.000000000000000 0.000000000000000 
0.000000000000000 1.000000000000000 0.000000000000000 -37.000000000000000 
0.000000000000000 0.000000000000000 1.000000000000000 -0.000000000003828 
2  159 -1 156 -1 157 1 1 -1 0
1
1.000000000000000 0.000000000000000 0.000000000000000 -0.000000000000000 
0.000000000000000 1.000000000000000 0.000000000000000 18.500000000000000 
0.000000000000000 0.000000000000000 1.000000000000000 0.000000000001914 
1
1.000000000000000 0.000000000000000 0.000000000000000 0.000000000000000 
0.000000000000000 1.000000000000000 0.000000000000000 0.000000000000000 
0.000000000000000 0.000000000000000 1.000000000000000 0.000000000000000 
2  161 -1 162 1 1 -1 0
1
1.000000000000000 0.000000000000000 0.000000000000000 0.000000000000000 
0.000000000000000 1.000000000000000 0.000000000000000 -37.000000000000000 
0.000000000000000 0.000000000000000 1.000000000000000 -0.000000000003828 
2  164 -1 161 -1 162 1 1 -1 0
1
1.000000000000000 0.000000000000000 0.000000000000000 -0.000000000000000 
0.000000000000000 1.000000000000000 0.000000000000000 18.500000000000000 
0.000000000000000 0.000000000000000 1.000000000000000 0.000000000001914 
1
1.000000000000000 0.000000000000000 0.000000000000000 0.000000000000000 
0.000000000000000 1.000000000000000 0.000000000000000 0.000000000000000 
0.000000000000000 0.000000000000000 1.000000000000000 0.000000000000000 
2  166 -1 167 1 1 -1 0
1
1.000000000000000 0.000000000000000 0.000000000000000 0.000000000000000 
0.000000000000000 1.000000000000000 0.000000000000000 -37.000000000000000 
0.000000000000000 0.000000000000000 1.000000000000000 -0.000000000003828 
2  169 -1 166 -1 167 1 1 -1 0
1
1.000000000000000 0.000000000000000 0.000000000000000 -0.000000000000000 
0.000000000000000 1.000000000000000 0.000000000000000 18.500000000000000 
0.000000000000000 0.000000000000000 1.000000000000000 0.000000000001914 
1
1.000000000000000 0.000000000000000 0.000000000000000 0.000000000000000 
0.000000000000000 1.000000000000000 0.000000000000000 0.000000000000000 
0.000000000000000 0.000000000000000 1.000000000000000 0.000000000000000 
2  171 -1 172 1 1 -1 0
1
1.000000000000000 0.000000000000000 0.000000000000000 0.000000000000000 
0.000000000000000 1.000000000000000 0.000000000000000 -37.000000000000000 
0.000000000000000 0.000000000000000 1.000000000000000 -0.000000000003828 
2  174 -1 171 -1 172 1 1 -1 0
1
1.000000000000000 0.000000000000000 0.000000000000000 -0.000000000000000 
0.000000000000000 1.000000000000000 0.000000000000000 18.500000000000000 
0.000000000000000 0.000000000000000 1.000000000000000 0.000000000001914 
1
1.000000000000000 0.000000000000000 0.000000000000000 0.000000000000000 
0.000000000000000 1.000000000000000 0.000000000000000 0.000000000000000 
0.000000000000000 0.000000000000000 1.000000000000000 0.000000000000000 
2  176 -1 177 1 1 -1 0
1
1.000000000000000 0.000000000000000 0.000000000000000 0.000000000000000 
0.000000000000000 1.000000000000000 0.000000000000000 -37.000000000000000 
0.000000000000000 0.000000000000000 1.000000000000000 -0.000000000003828 
2  179 -1 176 -1 177 1 1 -1 0
1
1.000000000000000 0.000000000000000 0.000000000000000 -0.000000000000000 
0.000000000000000 1.000000000000000 0.000000000000000 18.500000000000000 
0.000000000000000 0.000000000000000 1.000000000000000 0.000000000001914 
1
1.000000000000000 0.000000000000000 0.000000000000000 0.000000000000000 
0.000000000000000 1.000000000000000 0.000000000000000 0.000000000000000 
0.000000000000000 0.000000000000000 1.000000000000000 0.000000000000000 
2  181 -1 182 1 1 -1 0
1
1.000000000000000 0.000000000000000 0.000000000000000 0.000000000000000 
0.000000000000000 1.000000000000000 0.000000000000000 -37.000000000000000 
0.000000000000000 0.000000000000000 1.000000000000000 -0.000000000003828 
2  184 -1 181 -1 182 1 1 -1 0
1
1.000000000000000 0.000000000000000 0.000000000000000 -0.000000000000000 
0.000000000000000 1.000000000000000 0.000000000000000 18.500000000000000 
0.000000000000000 0.000000000000000 1.000000000000000 0.000000000001914 
1
1.000000000000000 0.000000000000000 0.000000000000000 0.000000000000000 
0.000000000000000 1.000000000000000 0.000000000000000 0.000000000000000 
0.000000000000000 0.000000000000000 1.000000000000000 0.000000000000000 
2  186 -1 187 1 1 -1 0
1
1.000000000000000 0.000000000000000 0.000000000000000 0.000000000000000 
0.000000000000000 1.000000000000000 0.000000000000000 -37.000000000000000 
0.000000000000000 0.000000000000000 1.000000000000000 -0.000000000003828 
2  189 -1 186 -1 187 1 1 -1 0
1
1.000000000000000 0.000000000000000 0.000000000000000 -0.000000000000000 
0.000000000000000 1.000000000000000 0.000000000000000 18.500000000000000 
0.000000000000000 0.000000000000000 1.000000000000000 0.000000000001914 
1
1.000000000000000 0.000000000000000 0.000000000000000 0.000000000000000 
0.000000000000000 1.000000000000000 0.000000000000000 0.000000000000000 
0.000000000000000 0.000000000000000 1.000000000000000 0.000000000000000 
2  191 -1 192 1 1 -1 0
1
1.000000000000000 0.000000000000000 0.000000000000000 0.000000000000000 
0.000000000000000 1.000000000000000 0.000000000000000 -37.000000000000000 
0.000000000000000 0.000000000000000 1.000000000000000 -0.000000000003828 
2  194 -1 191 -1 192 1 1 -1 0
1
1.000000000000000 0.000000000000000 0.000000000000000 -0.000000000000000 
0.000000000000000 1.000000000000000 0.000000000000000 18.500000000000000 
0.000000000000000 0.000000000000000 1.000000000000000 0.000000000001914 
1
1.000000000000000 0.000000000000000 0.000000000000000 0.000000000000000 
0.000000000000000 1.000000000000000 0.000000000000000 0.000000000000000 
0.000000000000000 0.000000000000000 1.000000000000000 0.000000000000000 
2  196 -1 197 1 1 -1 0
1
1.000000000000000 0.000000000000000 0.000000000000000 0.000000000000000 
0.000000000000000 1.000000000000000 0.000000000000000 -37.000000000000000 
0.000000000000000 0.000000000000000 1.000000000000000 -0.000000000003828 
2  199 -1 196 -1 197 1 1 -1 0
2  3 -1 2 1 1 -1 0
2  5 -1 3 -1 2 1 1 -1 0
2  2 -1 3 1 0
2  2 -1 3 1 5 1 0
Curve2ds 82
1 0.00000000000000000 0.00000000000000000 0.00000000000000000 -1.00000000000000000 
1 6.28318530717958623 0.00000000000000000 0.00000000000000000 -1.00000000000000000 
1 0.00000000000000000 0.00000000000000000 1.00000000000000000 0.00000000000000000 
1 0.00000000000000000 -10.00000000000000000 1.00000000000000000 0.00000000000000000 
1 0.00000000000000000 0.00000000000000000 1.00000000000000000 0.00000000000000000 
1 0.00000000000000000 -10.00000000000000000 1.00000000000000000 0.00000000000000000 
1 0.00000000000000000 0.00000000000000000 1.00000000000000000 0.00000000000000000 
1 0.00000000000000000 -11.00000000000000000 1.00000000000000000 0.00000000000000000 
1 0.00000000000000000 0.00000000000000000 1.00000000000000000 0.00000000000000000 
1 0.00000000000000000 -12.00000000000000000 1.00000000000000000 0.00000000000000000 
1 0.00000000000000000 0.00000000000000000 1.00000000000000000 0.00000000000000000 
1 0.00000000000000000 -13.00000000000000000 1.00000000000000000 0.00000000000000000 
1 0.00000000000000000 0.00000000000000000 1.00000000000000000 0.00000000000000000 
1 0.00000000000000000 -14.00000000000000000 1.00000000000000000 0.00000000000000000 
1 0.00000000000000000 0.00000000000000000 1.00000000000000000 0.00000000000000000 
1 0.00000000000000000 -15.00000000000000000 1.00000000000000000 0.00000000000000000 
1 0.00000000000000000 0.00000000000000000 1.00000000000000000 0.00000000000000000 
1 0.00000000000000000 -16.00000000000000000 1.00000000000000000 0.00000000000000000 
1 0.00000000000000000 0.00000000000000000 1.00000000000000000 0.00000000000000000 
1 0.00000000000000000 -17.00000000000000000 1.00000000000000000 0.00000000000000000 
1 0.00000000000000000 0.00000000000000000 1.00000000000000000 0.00000000000000000 
1 0.00000000000000000 -18.00000000000000000 1.00000000000000000 0.00000000000000000 
1 0.00000000000000000 0.00000000000000000 1.00000000000000000 0.00000000000000000 
1 0.00000000000000000 -19.00000000000000000 1.00000000000000000 0.00000000000000000 
1 0.00000000000000000 0.00000000000000000 1.00000000000000000 0.00000000000000000 
1 0.00000000000000000 -20.00000000000000000 1.00000000000000000 0.00000000000000000 
1 0.00000000000000000 0.00000000000000000 1.00000000000000000 0.00000000000000000 
1 0.00000000000000000 -21.00000000000000000 1.00000000000000000 0.00000000000000000 
1 0.00000000000000000 0.00000000000000000 1.00000000000000000 0.00000000000000000 
1 0.00000000000000000 -22.00000000000000000 1.00000000000000000 0.00000000000000000 
1 0.00000000000000000 0.00000000000000000 1.00000000000000000 0.00000000000000000 
1 0.00000000000000000 -23.00000000000000000 1.00000000000000000 0.00000000000000000 
1 0.00000000000000000 0.00000000000000000 1.00000000000000000 0.00000000000000000 
1 0.00000000000000000 -24.00000000000000000 1.00000000000000000 0.00000000000000000 
1 0.00000000000000000 0.00000000000000000 1.00000000000000000 0.00000000000000000 
1 0.00000000000000000 -25.00000000000000000 1.00000000000000000 0.00000000000000000 
1 0.00000000000000000 0.00000000000000000 1.00000000000000000 0.00000000000000000 
1 0.00000000000000000 -26.00000000000000000 1.00000000000000000 0.00000000000000000 
1 0.00000000000000000 0.00000000000000000 1.00000000000000000 0.00000000000000000 
1 0.00000000000000000 -27.00000000000000000 1.00000000000000000 0.00000000000000000 
1 0.00000000000000000 0.00000000000000000 1.00000000000000000 0.00000000000000000 
1 0.00000000000000000 -28.00000000000000000 1.00000000000000000 0.00000000000000000 
1 0.00000000000000000 0.00000000000000000 1.00000000000000000 0.00000000000000000 
1 0.00000000000000000 -29.00000000000000000 1.00000000000000000 0.00000000000000000 
1 0.00000000000000000 0.00000000000000000 1.00000000000000000 0.00000000000000000 
1 0.00000000000000000 -30.00000000000000000 1.00000000000000000 0.00000000000000000 
1 0.00000000000000000 0.00000000000000000 1.00000000000000000 0.00000000000000000 
1 0.00000000000000000 -31.00000000000000000 1.00000000000000000 0.00000000000000000 
1 0.00000000000000000 0.00000000000000000 1.00000000000000000 0.00000000000000000 
1 0.00000000000000000 -32.00000000000000000 1.00000000000000000 0.00000000000000000 
1 0.00000000000000000 0.00000000000000000 1.00000000000000000 0.00000000000000000 
1 0.00000000000000000 -33.00000000000000000 1.00000000000000000 0.00000000000000000 
1 0.00000000000000000 0.00000000000000000 1.00000000000000000 0.00000000000000000 
1 0.00000000000000000 -34.00000000000000000 1.00000000000000000 0.00000000000000000 
1 0.00000000000000000 0.00000000000000000 1.00000000000000000 0.00000000000000000 
1 0.00000000000000000 -35.00000000000000000 1.00000000000000000 0.00000000000000000 
1 0.00000000000000000 0.00000000000000000 1.00000000000000000 0.00000000000000000 
1 0.00000000000000000 -36.00000000000000000 1.00000000000000000 0.00000000000000000 
1 0.00000000000000000 0.00000000000000000 1.00000000000000000 0.00000000000000000 
1 0.00000000000000000 -37.00000000000000000 1.00000000000000000 0.00000000000000000 
1 0.00000000000000000 0.00000000000000000 1.00000000000000000 0.00000000000000000 
1 0.00000000000000000 -37.00000000000000000 1.00000000000000000 0.00000000000000000 
1 0.00000000000000000 0.00000000000000000 1.00000000000000000 0.00000000000000000 
1 0.00000000000000000 -37.00000000000000000 1.00000000000000000 0.00000000000000000 
1 0.00000000000000000 0.00000000000000000 1.00000000000000000 0.00000000000000000 
1 0.00000000000000000 -37.00000000000000000 1.00000000000000000 0.00000000000000000 
1 0.00000000000000000 0.00000000000000000 1.00000000000000000 0.00000000000000000 
1 0.00000000000000000 -37.00000000000000000 1.00000000000000000 0.00000000000000000 
1 0.00000000000000000 0.00000000000000000 1.00000000000000000 0.00000000000000000 
1 0.00000000000000000 -37.00000000000000000 1.00000000000000000 0.00000000000000000 
1 0.00000000000000000 0.00000000000000000 1.00000000000000000 0.00000000000000000 
1 0.00000000000000000 -37.00000000000000000 1.00000000000000000 0.00000000000000000 
1 0.00000000000000000 0.00000000000000000 1.00000000000000000 0.00000000000000000 
1 0.00000000000000000 -37.00000000000000000 1.00000000000000000 0.00000000000000000 
1 0.00000000000000000 0.00000000000000000 1.00000000000000000 0.00000000000000000 
1 0.00000000000000000 -37.00000000000000000 1.00000000000000000 0.00000000000000000 
1 0.00000000000000000 0.00000000000000000 1.00000000000000000 0.00000000000000000 
1 0.00000000000000000 -37.00000000000000000 1.00000000000000000 0.00000000000000000 
1 0.00000000000000000 0.00000000000000000 1.00000000000000000 0.00000000000000000 
1 0.00000000000000000 -37.00000000000000000 1.00000000000000000 0.00000000000000000 
1 0.00000000000000000 0.00000000000000000 1.00000000000000000 0.00000000000000000 
1 0.00000000000000000 -37.00000000000000000 1.00000000000000000 0.00000000000000000 
Curves 2
1 15.00000000000000000 173.50000000000000000 0.00000000000191425 0.00000000000000000 -1.00000000000000000 -0.00000000000010347 
2 -0.00000000000000000 0.00000000000000000 0.00000000000000000 0.00000000000000000 0.00000000000000000 1.00000000000000000 1.00000000000000000 0.00000000000000000 -0.00000000000000000 -0.00000000000000000 1.00000000000000000 0.00000000000000000 15.00000000000000000
Polygon3D 0
PolygonOnTriangulations 0
Surfaces 41
2 0.00000000000000000 173.50000000000000000 0.00000000000191425 -0.00000000000000000 1.00000000000000000 0.00000000000010347 1.00000000000000000 0.00000000000000000 0.00000000000000000 -0.00000000000000000 -0.00000000000010347 1.00000000000000000 15.00000000000000000
2 0.00000000000000000 155.00000000000000000 0.00000000000000000 -0.00000000000000000 1.00000000000000000 0.00000000000010347 1.00000000000000000 0.00000000000000000 0.00000000000000000 -0.00000000000000000 -0.00000000000010347 1.00000000000000000 15.00000000000000000
2 0.00000000000000000 160.00000000000000000 0.00000000000051736 -0.00000000000000000 1.00000000000000000 0.00000000000010347 1.00000000000000000 0.00000000000000000 0.00000000000000000 -0.00000000000000000 -0.00000000000010347 1.00000000000000000 15.00000000000000000
2 0.00000000000000000 160.50000000000000000 0.00000000000056910 -0.00000000000000000 1.00000000000000000 0.00000000000010347 1.00000000000000000 0.00000000000000000 0.00000000000000000 -0.00000000000000000 -0.00000000000010347 1.00000000000000000 15.00000000000000000
2 0.00000000000000000 161.00000000000000000 0.00000000000062084 -0.00000000000000000 1.00000000000000000 0.00000000000010347 1.00000000000000000 0.00000000000000000 0.00000000000000000 -0.00000000000000000 -0.00000000000010347 1.00000000000000000 15.00000000000000000
2 0.00000000000000000 161.50000000000000000 0.00000000000067257 -0.00000000000000000 1.00000000000000000 0.00000000000010347 1.00000000000000000 0.00000000000000000 0.00000000000000000 -0.00000000000000000 -0.00000000000010347 1.00000000000000000 15.00000000000000000
2 0.00000000000000000 162.00000000000000000 0.00000000000072431 -0.00000000000000000 1.00000000000000000 0.00000000000010347 1.00000000000000000 0.00000000000000000 0.00000000000000000 -0.00000000000000000 -0.00000000000010347 1.00000000000000000 15.00000000000000000
2 0.00000000000000000 162.50000000000000000 0.00000000000077605 -0.00000000000000000 1.00000000000000000 0.00000000000010347 1.00000000000000000 0.00000000000000000 0.00000000000000000 -0.00000000000000000 -0.00000000000010347 1.00000000000000000 15.00000000000000000
2 0.00000000000000000 163.00000000000000000 0.00000000000082778 -0.00000000000000000 1.00000000000000000 0.00000000000010347 1.00000000000000000 0.00000000000000000 0.00000000000000000 -0.00000000000000000 -0.00000000000010347 1.00000000000000000 15.00000000000000000
2 0.00000000000000000 163.50000000000000000 0.00000000000087952 -0.00000000000000000 1.00000000000000000 0.00000000000010347 1.00000000000000000 0.00000000000000000 0.00000000000000000 -0.00000000000000000 -0.00000000000010347 1.00000000000000000 15.00000000000000000
2 0.00000000000000000 164.00000000000000000 0.00000000000093126 -0.00000000000000000 1.00000000000000000 0.00000000000010347 1.00000000000000000 0.00000000000000000 0.00000000000000000 -0.00000000000000000 -0.00000000000010347 1.00000000000000000 15.00000000000000000
2 0.00000000000000000 164.50000000000000000 0.00000000000098299 -0.00000000000000000 1.00000000000000000 0.00000000000010347 1.00000000000000000 0.00000000000000000 0.00000000000000000 -0.00000000000000000 -0.00000000000010347 1.00000000000000000 15.00000000000000000
2 0.00000000000000000 165.00000000000000000 0.00000000000103473 -0.00000000000000000 1.00000000000000000 0.00000000000010347 1.00000000000000000 0.00000000000000000 0.00000000000000000 -0.00000000000000000 -0.00000000000010347 1.00000000000000000 15.00000000000000000
2 0.00000000000000000 165.50000000000000000 0.00000000000108646 -0.00000000000000000 1.00000000000000000 0.00000000000010347 1.00000000000000000 0.00000000000000000 0.00000000000000000 -0.00000000000000000 -0.00000000000010347 1.00000000000000000 15.00000000000000000
2 0.00000000000000000 166.00000000000000000 0.00000000000113820 -0.00000000000000000 1.00000000000000000 0.00000000000010347 1.00000000000000000 0.00000000000000000 0.00000000000000000 -0.00000000000000000 -0.00000000000010347 1.00000000000000000 15.00000000000000000
2 0.00000000000000000 166.50000000000000000 0.00000000000118994 -0.00000000000000000 1.00000000000000000 0.00000000000010347 1.00000000000000000 0.00000000000000000 0.00000000000000000 -0.00000000000000000 -0.00000000000010347 1.00000000000000000 15.00000000000000000
2 0.00000000000000000 167.00000000000000000 0.00000000000124167 -0.00000000000000000 1.00000000000000000 0.00000000000010347 1.00000000000000000 0.00000000000000000 0.00000000000000000 -0.00000000000000000 -0.00000000000010347 1.00000000000000000 15.00000000000000000
2 0.00000000000000000 167.50000000000000000 0.00000000000129341 -0.00000000000000000 1.00000000000000000 0.00000000000010347 1.00000000000000000 0.00000000000000000 0.00000000000000000 -0.00000000000000000 -0.00000000000010347 1.00000000000000000 15.00000000000000000
2 0.00000000000000000 168.00000000000000000 0.00000000000134515 -0.00000000000000000 1.00000000000000000 0.00000000000010347 1.00000000000000000 0.00000000000000000 0.00000000000000000 -0.00000000000000000 -0.00000000000010347 1.00000000000000000 15.00000000000000000
2 0.00000000000000000 168.50000000000000000 0.00000000000139688 -0.00000000000000000 1.00000000000000000 0.00000000000010347 1.00000000000000000 0.00000000000000000 0.00000000000000000 -0.00000000000000000 -0.00000000000010347 1.00000000000000000 15.00000000000000000
2 0.00000000000000000 169.00000000000000000 0.00000000000144862 -0.00000000000000000 1.00000000000000000 0.00000000000010347 1.00000000000000000 0.00000000000000000 0.00000000000000000 -0.00000000000000000 -0.00000000000010347 1.00000000000000000 15.00000000000000000
2 0.00000000000000000 169.50000000000000000 0.00000000000150036 -0.00000000000000000 1.00000000000000000 0.00000000000010347 1.00000000000000000 0.00000000000000000 0.00000000000000000 -0.00000000000000000 -0.00000000000010347 1.00000000000000000 15.00000000000000000
2 0.00000000000000000 170.00000000000000000 0.00000000000155209 -0.00000000000000000 1.00000000000000000 0.00000000000010347 1.00000000000000000 0.00000000000000000 0.00000000000000000 -0.00000000000000000 -0.00000000000010347 1.00000000000000000 15.00000000000000000
2 0.00000000000000000 170.50000000000000000 0.00000000000160383 -0.00000000000000000 1.00000000000000000 0.00000000000010347 1.00000000000000000 0.00000000000000000 0.00000000000000000 -0.00000000000000000 -0.00000000000010347 1.00000000000000000 15.00000000000000000
2 0.00000000000000000 171.00000000000000000 0.00000000000165556 -0.00000000000000000 1.00000000000000000 0.00000000000010347 1.00000000000000000 0.00000000000000000 0.00000000000000000 -0.00000000000000000 -0.00000000000010347 1.00000000000000000 15.00000000000000000
2 0.00000000000000000 171.50000000000000000 0.00000000000170730 -0.00000000000000000 1.00000000000000000 0.00000000000010347 1.00000000000000000 0.00000000000000000 0.00000000000000000 -0.00000000000000000 -0.00000000000010347 1.00000000000000000 15.00000000000000000
2 0.00000000000000000 172.00000000000000000 0.00000000000175904 -0.00000000000000000 1.00000000000000000 0.00000000000010347 1.00000000000000000 0.00000000000000000 0.00000000000000000 -0.00000000000000000 -0.00000000000010347 1.00000000000000000 15.00000000000000000
2 0.00000000000000000 172.50000000000000000 0.00000000000181077 -0.00000000000000000 1.00000000000000000 0.00000000000010347 1.00000000000000000 0.00000000000000000 0.00000000000000000 -0.00000000000000000 -0.00000000000010347 1.00000000000000000 15.00000000000000000
2 0.00000000000000000 173.00000000000000000 0.00000000000186251 -0.00000000000000000 1.00000000000000000 0.00000000000010347 1.00000000000000000 0.00000000000000000 0.00000000000000000 -0.00000000000000000 -0.00000000000010347 1.00000000000000000 15.00000000000000000
2 0.00000000000000000 173.50000000000000000 0.00000000000191425 -0.00000000000000000 1.00000000000000000 0.00000000000010347 1.00000000000000000 0.00000000000000000 0.00000000000000000 -0.00000000000000000 -0.00000000000010347 1.00000000000000000 15.00000000000000000
2 0.00000000000000000 173.50000000000000000 0.00000000000191425 -0.00000000000000000 1.00000000000000000 0.00000000000010347 1.00000000000000000 0.00000000000000000 0.00000000000000000 -0.00000000000000000 -0.00000000000010347 1.00000000000000000 15.00000000000000000
2 0.00000000000000000 173.50000000000000000 0.00000000000191425 -0.00000000000000000 1.00000000000000000 0.00000000000010347 1.00000000000000000 0.00000000000000000 0.00000000000000000 -0.00000000000000000 -0.00000000000010347 1.00000000000000000 15.00000000000000000
2 0.00000000000000000 173.50000000000000000 0.00000000000191425 -0.00000000000000000 1.00000000000000000 0.00000000000010347 1.00000000000000000 0.00000000000000000 0.00000000000000000 -0.00000000000000000 -0.00000000000010347 1.00000000000000000 15.00000000000000000
2 0.00000000000000000 173.50000000000000000 0.00000000000191425 -0.00000000000000000 1.00000000000000000 0.00000000000010347 1.00000000000000000 0.00000000000000000 0.00000000000000000 -0.00000000000000000 -0.00000000000010347 1.00000000000000000 15.00000000000000000
2 0.00000000000000000 173.50000000000000000 0.00000000000191425 -0.00000000000000000 1.00000000000000000 0.00000000000010347 1.00000000000000000 0.00000000000000000 0.00000000000000000 -0.00000000000000000 -0.00000000000010347 1.00000000000000000 15.00000000000000000
2 0.00000000000000000 173.50000000000000000 0.00000000000191425 -0.00000000000000000 1.00000000000000000 0.00000000000010347 1.00000000000000000 0.00000000000000000 0.00000000000000000 -0.00000000000000000 -0.00000000000010347 1.00000000000000000 15.00000000000000000
2 0.00000000000000000 173.50000000000000000 0.00000000000191425 -0.00000000000000000 1.00000000000000000 0.00000000000010347 1.00000000000000000 0.00000000000000000 0.00000000000000000 -0.00000000000000000 -0.00000000000010347 1.00000000000000000 15.00000000000000000
2 0.00000000000000000 173.50000000000000000 0.00000000000191425 -0.00000000000000000 1.00000000000000000 0.00000000000010347 1.00000000000000000 0.00000000000000000 0.00000000000000000 -0.00000000000000000 -0.00000000000010347 1.00000000000000000 15.00000000000000000
2 0.00000000000000000 173.50000000000000000 0.00000000000191425 -0.00000000000000000 1.00000000000000000 0.00000000000010347 1.00000000000000000 0.00000000000000000 0.00000000000000000 -0.00000000000000000 -0.00000000000010347 1.00000000000000000 15.00000000000000000
2 0.00000000000000000 173.50000000000000000 0.00000000000191425 -0.00000000000000000 1.00000000000000000 0.00000000000010347 1.00000000000000000 0.00000000000000000 0.00000000000000000 -0.00000000000000000 -0.00000000000010347 1.00000000000000000 15.00000000000000000
1 -0.00000000000000073 155.00000000000000000 0.00000000000000012 -0.00000000000000000 -1.00000000000000000 -0.00000000000010283 0.00000000000000000 0.00000000000010283 -1.00000000000000000 1.00000000000000000 -0.00000000000000000 0.00000000000000000 
Triangulations 0

TShapes 9
Ve
0.000000100000000
15.000000000000000 0.000000000000000 0.000000000000000
0 0

0101101
*
Ed
 0.000000100000000 1 1 0
1  1 0 0.000000000000000 37.000000000000000
3  1 2CN 1 0 0.000000000000000 37.000000000000000
0

0101000
+9 4 -9 6 *
Ed
 0.000000100000000 1 1 0
1  2 0 0.000000000000000 6.283185307179586
2  3 2 8 0.000000000000000 6.283185307179586
2  4 2 10 0.000000000000000 6.283185307179586
2  5 3 13 0.000000000000000 6.283185307179586
2  6 3 15 0.000000000000000 6.283185307179586
2  7 4 18 0.000000000000000 6.283185307179586
2  8 4 20 0.000000000000000 6.283185307179586
2  9 5 23 0.000000000000000 6.283185307179586
2  10 5 25 0.000000000000000 6.283185307179586
2  11 6 28 0.000000000000000 6.283185307179586
2  12 6 30 0.000000000000000 6.283185307179586
2  13 7 33 0.000000000000000 6.283185307179586
2  14 7 35 0.000000000000000 6.283185307179586
2  15 8 38 0.000000000000000 6.283185307179586
2  16 8 40 0.000000000000000 6.283185307179586
2  17 9 43 0.000000000000000 6.283185307179586
2  18 9 45 0.000000000000000 6.283185307179586
2  19 10 48 0.000000000000000 6.283185307179586
2  20 10 50 0.000000000000000 6.283185307179586
2  21 11 53 0.000000000000000 6.283185307179586
2  22 11 55 0.000000000000000 6.283185307179586
2  23 12 58 0.000000000000000 6.283185307179586
2  24 12 60 0.000000000000000 6.283185307179586
2  25 13 63 0.000000000000000 6.283185307179586
2  26 13 65 0.000000000000000 6.283185307179586
2  27 14 68 0.000000000000000 6.283185307179586
2  28 14 70 0.000000000000000 6.283185307179586
2  29 15 73 0.000000000000000 6.283185307179586
2  30 15 75 0.000000000000000 6.283185307179586
2  31 16 78 0.000000000000000 6.283185307179586
2  32 16 80 0.000000000000000 6.283185307179586
2  33 17 83 0.000000000000000 6.283185307179586
2  34 17 85 0.000000000000000 6.283185307179586
2  35 18 88 0.000000000000000 6.283185307179586
2  36 18 90 0.000000000000000 6.283185307179586
2  37 19 93 0.000000000000000 6.283185307179586
2  38 19 95 0.000000000000000 6.283185307179586
2  39 20 98 0.000000000000000 6.283185307179586
2  40 20 100 0.000000000000000 6.283185307179586
2  41 21 103 0.000000000000000 6.283185307179586
2  42 21 105 0.000000000000000 6.283185307179586
2  43 22 108 0.000000000000000 6.283185307179586
2  44 22 110 0.000000000000000 6.283185307179586
2  45 23 113 0.000000000000000 6.283185307179586
2  46 23 115 0.000000000000000 6.283185307179586
2  47 24 118 0.000000000000000 6.283185307179586
2  48 24 120 0.000000000000000 6.283185307179586
2  49 25 123 0.000000000000000 6.283185307179586
2  50 25 125 0.000000000000000 6.283185307179586
2  51 26 128 0.000000000000000 6.283185307179586
2  52 26 130 0.000000000000000 6.283185307179586
2  53 27 133 0.000000000000000 6.283185307179586
2  54 27 135 0.000000000000000 6.283185307179586
2  55 28 138 0.000000000000000 6.283185307179586
2  56 28 140 0.000000000000000 6.283185307179586
2  57 29 143 0.000000000000000 6.283185307179586
2  58 29 145 0.000000000000000 6.283185307179586
2  59 30 148 0.000000000000000 6.283185307179586
2  60 30 150 0.000000000000000 6.283185307179586
2  61 31 153 0.000000000000000 6.283185307179586
2  62 31 155 0.000000000000000 6.283185307179586
2  63 32 158 0.000000000000000 6.283185307179586
2  64 32 160 0.000000000000000 6.283185307179586
2  65 33 163 0.000000000000000 6.283185307179586
2  66 33 165 0.000000000000000 6.283185307179586
2  67 34 168 0.000000000000000 6.283185307179586
2  68 34 170 0.000000000000000 6.283185307179586
2  69 35 173 0.000000000000000 6.283185307179586
2  70 35 175 0.000000000000000 6.283185307179586
2  71 36 178 0.000000000000000 6.283185307179586
2  72 36 180 0.000000000000000 6.283185307179586
2  73 37 183 0.000000000000000 6.283185307179586
2  74 37 185 0.000000000000000 6.283185307179586
2  75 38 188 0.000000000000000 6.283185307179586
2  76 38 190 0.000000000000000 6.283185307179586
2  77 39 193 0.000000000000000 6.283185307179586
2  78 39 195 0.000000000000000 6.283185307179586
2  79 40 198 0.000000000000000 6.283185307179586
2  80 40 200 0.000000000000000 6.283185307179586
2  81 1 201 0.000000000000000 6.283185307179586
2  82 1 202 0.000000000000000 6.283185307179586
0

0101000
+9 0 -9 0 *
Wi

0101100
+8 0 -8 0 -7 4 +7 6 *
Fa
0  0.000000100000000 1 0

0111000
+6 0 *
Wi

0101100
+7 0 *
Fa
0  0.000000100000000 41 0

0111000
+4 1 *
Sh

0101100
+5 0 +3 203 -3 204 *
So

1100000
-2 0 *

+1 0 