
CASCADE Topology V1, (c) Matra-Datavision
Locations 108
1
1.000000000000000 0.000000000000000 0.000000000000000 0.000000000000000 
0.000000000000000 -0.000000000000103 -1.000000000000000 155.000000000000000 
0.000000000000000 1.000000000000000 -0.000000000000103 0.000000000000000 
1
1.000000000000000 0.000000000000000 0.000000000000000 0.000000000000000 
0.000000000000000 1.000000000000000 0.000000000000000 0.000000000000000 
0.000000000000000 0.000000000000000 1.000000000000000 0.000000000000000 
1
1.000000000000000 0.000000000000000 0.000000000000000 -0.000000000000000 
0.000000000000000 1.000000000000000 0.000000000000000 -5000.000000000000000 
0.000000000000000 0.000000000000000 1.000000000000000 -0.000000000515421 
2  1 1 2 -1 3 1 0
1
1.000000000000000 0.000000000000000 0.000000000000000 0.000000000000000 
0.000000000000000 1.000000000000000 0.000000000000000 10000.000000000000000 
0.000000000000000 0.000000000000000 1.000000000000000 0.000000001030842 
2  1 1 2 -1 3 1 5 1 0
1
1.000000000000000 0.000000000000000 0.000000000000000 0.000000000000000 
0.000000000000000 1.000000000000000 0.000000000000000 0.000000000000000 
0.000000000000000 0.000000000000000 1.000000000000000 0.000000000000000 
2  7 1 1 -1 0
1
1.000000000000000 0.000000000000000 0.000000000000000 0.000000000000000 
0.000000000000000 1.000000000000000 0.000000000000000 5.000000000000000 
0.000000000000000 0.000000000000000 1.000000000000000 0.000000000000515 
2  9 -1 7 1 1 -1 0
1
1.000000000000000 0.000000000000000 0.000000000000000 0.000000000000000 
0.000000000000000 1.000000000000000 0.000000000000000 0.000000000000000 
0.000000000000000 0.000000000000000 1.000000000000000 0.000000000000000 
2  11 1 1 -1 0
1
1.000000000000000 0.000000000000000 0.000000000000000 0.000000000000000 
0.000000000000000 1.000000000000000 0.000000000000000 10000.000000000000000 
0.000000000000000 0.000000000000000 1.000000000000000 0.000000001030842 
2  13 -1 11 1 1 -1 0
1
1.000000000000000 0.000000000000000 0.000000000000000 -0.000000000000000 
0.000000000000000 1.000000000000000 0.000000000000000 -5000.000000000000000 
0.000000000000000 0.000000000000000 1.000000000000000 -0.000000000515421 
1
1.000000000000000 0.000000000000000 0.000000000000000 0.000000000000000 
0.000000000000000 1.000000000000000 0.000000000000000 0.000000000000000 
0.000000000000000 0.000000000000000 1.000000000000000 0.000000000000000 
2  15 -1 16 1 1 -1 0
1
1.000000000000000 0.000000000000000 0.000000000000000 0.000000000000000 
0.000000000000000 1.000000000000000 0.000000000000000 10000.000000000000000 
0.000000000000000 0.000000000000000 1.000000000000000 0.000000001030842 
2  18 -1 15 -1 16 1 1 -1 0
1
1.000000000000000 0.000000000000000 0.000000000000000 -0.000000000000000 
0.000000000000000 1.000000000000000 0.000000000000000 -5000.000000000000000 
0.000000000000000 0.000000000000000 1.000000000000000 -0.000000000515421 
1
1.000000000000000 0.000000000000000 0.000000000000000 0.000000000000000 
0.000000000000000 1.000000000000000 0.000000000000000 0.000000000000000 
0.000000000000000 0.000000000000000 1.000000000000000 0.000000000000000 
2  20 -1 21 1 1 -1 0
1
1.000000000000000 0.000000000000000 0.000000000000000 0.000000000000000 
0.000000000000000 1.000000000000000 0.000000000000000 10000.000000000000000 
0.000000000000000 0.000000000000000 1.000000000000000 0.000000001030842 
2  23 -1 20 -1 21 1 1 -1 0
1
1.000000000000000 0.000000000000000 0.000000000000000 -0.000000000000000 
0.000000000000000 1.000000000000000 0.000000000000000 -2.500000000000000 
0.000000000000000 0.000000000000000 1.000000000000000 -0.000000000000258 
1
1.000000000000000 0.000000000000000 0.000000000000000 0.000000000000000 
0.000000000000000 1.000000000000000 0.000000000000000 0.000000000000000 
0.000000000000000 0.000000000000000 1.000000000000000 0.000000000000000 
2  25 -1 26 1 1 -1 0
1
1.000000000000000 0.000000000000000 0.000000000000000 0.000000000000000 
0.000000000000000 1.000000000000000 0.000000000000000 5.000000000000000 
0.000000000000000 0.000000000000000 1.000000000000000 0.000000000000515 
2  28 -1 25 -1 26 1 1 -1 0
1
1.000000000000000 0.000000000000000 0.000000000000000 -0.000000000000000 
0.000000000000000 1.000000000000000 0.000000000000000 -2.500000000000000 
0.000000000000000 0.000000000000000 1.000000000000000 -0.000000000000258 
1
1.000000000000000 0.000000000000000 0.000000000000000 0.000000000000000 
0.000000000000000 1.000000000000000 0.000000000000000 0.000000000000000 
0.000000000000000 0.000000000000000 1.000000000000000 0.000000000000000 
2  30 -1 31 1 1 -1 0
1
1.000000000000000 0.000000000000000 0.000000000000000 0.000000000000000 
0.000000000000000 1.000000000000000 0.000000000000000 5.000000000000000 
0.000000000000000 0.000000000000000 1.000000000000000 0.000000000000515 
2  33 -1 30 -1 31 1 1 -1 0
1
1.000000000000000 0.000000000000000 0.000000000000000 -0.000000000000000 
0.000000000000000 1.000000000000000 0.000000000000000 -25.000000000000000 
0.000000000000000 0.000000000000000 1.000000000000000 -0.000000000002577 
1
1.000000000000000 0.000000000000000 0.000000000000000 0.000000000000000 
0.000000000000000 1.000000000000000 0.000000000000000 0.000000000000000 
0.000000000000000 0.000000000000000 1.000000000000000 0.000000000000000 
2  35 -1 36 1 1 -1 0
1
1.000000000000000 0.000000000000000 0.000000000000000 0.000000000000000 
0.000000000000000 1.000000000000000 0.000000000000000 50.000000000000000 
0.000000000000000 0.000000000000000 1.000000000000000 0.000000000005154 
2  38 -1 35 -1 36 1 1 -1 0
1
1.000000000000000 0.000000000000000 0.000000000000000 -0.000000000000000 
0.000000000000000 1.000000000000000 0.000000000000000 -25.000000000000000 
0.000000000000000 0.000000000000000 1.000000000000000 -0.000000000002577 
1
1.000000000000000 0.000000000000000 0.000000000000000 0.000000000000000 
0.000000000000000 1.000000000000000 0.000000000000000 0.000000000000000 
0.000000000000000 0.000000000000000 1.000000000000000 0.000000000000000 
2  40 -1 41 1 1 -1 0
1
1.000000000000000 0.000000000000000 0.000000000000000 0.000000000000000 
0.000000000000000 1.000000000000000 0.000000000000000 50.000000000000000 
0.000000000000000 0.000000000000000 1.000000000000000 0.000000000005154 
2  43 -1 40 -1 41 1 1 -1 0
1
1.000000000000000 0.000000000000000 0.000000000000000 -0.000000000000000 
0.000000000000000 1.000000000000000 0.000000000000000 -25.000000000000000 
0.000000000000000 0.000000000000000 1.000000000000000 -0.000000000002577 
1
1.000000000000000 0.000000000000000 0.000000000000000 0.000000000000000 
0.000000000000000 1.000000000000000 0.000000000000000 0.000000000000000 
0.000000000000000 0.000000000000000 1.000000000000000 0.000000000000000 
2  45 -1 46 1 1 -1 0
1
1.000000000000000 0.000000000000000 0.000000000000000 0.000000000000000 
0.000000000000000 1.000000000000000 0.000000000000000 50.000000000000000 
0.000000000000000 0.000000000000000 1.000000000000000 0.000000000005154 
2  48 -1 45 -1 46 1 1 -1 0
1
1.000000000000000 0.000000000000000 0.000000000000000 -0.000000000000000 
0.000000000000000 1.000000000000000 0.000000000000000 -25.000000000000000 
0.000000000000000 0.000000000000000 1.000000000000000 -0.000000000002577 
1
1.000000000000000 0.000000000000000 0.000000000000000 0.000000000000000 
0.000000000000000 1.000000000000000 0.000000000000000 0.000000000000000 
0.000000000000000 0.000000000000000 1.000000000000000 0.000000000000000 
2  50 -1 51 1 1 -1 0
1
1.000000000000000 0.000000000000000 0.000000000000000 0.000000000000000 
0.000000000000000 1.000000000000000 0.000000000000000 50.000000000000000 
0.000000000000000 0.000000000000000 1.000000000000000 0.000000000005154 
2  53 -1 50 -1 51 1 1 -1 0
1
1.000000000000000 0.000000000000000 0.000000000000000 -0.000000000000000 
0.000000000000000 1.000000000000000 0.000000000000000 -25.000000000000000 
0.000000000000000 0.000000000000000 1.000000000000000 -0.000000000002577 
1
1.000000000000000 0.000000000000000 0.000000000000000 0.000000000000000 
0.000000000000000 1.000000000000000 0.000000000000000 0.000000000000000 
0.000000000000000 0.000000000000000 1.000000000000000 0.000000000000000 
2  55 -1 56 1 1 -1 0
1
1.000000000000000 0.000000000000000 0.000000000000000 0.000000000000000 
0.000000000000000 1.000000000000000 0.000000000000000 50.000000000000000 
0.000000000000000 0.000000000000000 1.000000000000000 0.000000000005154 
2  58 -1 55 -1 56 1 1 -1 0
1
1.000000000000000 0.000000000000000 0.000000000000000 -0.000000000000000 
0.000000000000000 1.000000000000000 0.000000000000000 -25.000000000000000 
0.000000000000000 0.000000000000000 1.000000000000000 -0.000000000002577 
1
1.000000000000000 0.000000000000000 0.000000000000000 0.000000000000000 
0.000000000000000 1.000000000000000 0.000000000000000 0.000000000000000 
0.000000000000000 0.000000000000000 1.000000000000000 0.000000000000000 
2  60 -1 61 1 1 -1 0
1
1.000000000000000 0.000000000000000 0.000000000000000 0.000000000000000 
0.000000000000000 1.000000000000000 0.000000000000000 50.000000000000000 
0.000000000000000 0.000000000000000 1.000000000000000 0.000000000005154 
2  63 -1 60 -1 61 1 1 -1 0
1
1.000000000000000 0.000000000000000 0.000000000000000 -0.000000000000000 
0.000000000000000 1.000000000000000 0.000000000000000 -25.000000000000000 
0.000000000000000 0.000000000000000 1.000000000000000 -0.000000000002577 
1
1.000000000000000 0.000000000000000 0.000000000000000 0.000000000000000 
0.000000000000000 1.000000000000000 0.000000000000000 0.000000000000000 
0.000000000000000 0.000000000000000 1.000000000000000 0.000000000000000 
2  65 -1 66 1 1 -1 0
1
1.000000000000000 0.000000000000000 0.000000000000000 0.000000000000000 
0.000000000000000 1.000000000000000 0.000000000000000 50.000000000000000 
0.000000000000000 0.000000000000000 1.000000000000000 0.000000000005154 
2  68 -1 65 -1 66 1 1 -1 0
1
1.000000000000000 0.000000000000000 0.000000000000000 -0.000000000000000 
0.000000000000000 1.000000000000000 0.000000000000000 -25.000000000000000 
0.000000000000000 0.000000000000000 1.000000000000000 -0.000000000002577 
1
1.000000000000000 0.000000000000000 0.000000000000000 0.000000000000000 
0.000000000000000 1.000000000000000 0.000000000000000 0.000000000000000 
0.000000000000000 0.000000000000000 1.000000000000000 0.000000000000000 
2  70 -1 71 1 1 -1 0
1
1.000000000000000 0.000000000000000 0.000000000000000 0.000000000000000 
0.000000000000000 1.000000000000000 0.000000000000000 50.000000000000000 
0.000000000000000 0.000000000000000 1.000000000000000 0.000000000005154 
2  73 -1 70 -1 71 1 1 -1 0
1
1.000000000000000 0.000000000000000 0.000000000000000 -0.000000000000000 
0.000000000000000 1.000000000000000 0.000000000000000 -25.000000000000000 
0.000000000000000 0.000000000000000 1.000000000000000 -0.000000000002577 
1
1.000000000000000 0.000000000000000 0.000000000000000 0.000000000000000 
0.000000000000000 1.000000000000000 0.000000000000000 0.000000000000000 
0.000000000000000 0.000000000000000 1.000000000000000 0.000000000000000 
2  75 -1 76 1 1 -1 0
1
1.000000000000000 0.000000000000000 0.000000000000000 0.000000000000000 
0.000000000000000 1.000000000000000 0.000000000000000 50.000000000000000 
0.000000000000000 0.000000000000000 1.000000000000000 0.000000000005154 
2  78 -1 75 -1 76 1 1 -1 0
1
1.000000000000000 0.000000000000000 0.000000000000000 -0.000000000000000 
0.000000000000000 1.000000000000000 0.000000000000000 -25.000000000000000 
0.000000000000000 0.000000000000000 1.000000000000000 -0.000000000002577 
1
1.000000000000000 0.000000000000000 0.000000000000000 0.000000000000000 
0.000000000000000 1.000000000000000 0.000000000000000 0.000000000000000 
0.000000000000000 0.000000000000000 1.000000000000000 0.000000000000000 
2  80 -1 81 1 1 -1 0
1
1.000000000000000 0.000000000000000 0.000000000000000 0.000000000000000 
0.000000000000000 1.000000000000000 0.000000000000000 50.000000000000000 
0.000000000000000 0.000000000000000 1.000000000000000 0.000000000005154 
2  83 -1 80 -1 81 1 1 -1 0
1
1.000000000000000 0.000000000000000 0.000000000000000 -0.000000000000000 
0.000000000000000 1.000000000000000 0.000000000000000 -25.000000000000000 
0.000000000000000 0.000000000000000 1.000000000000000 -0.000000000002577 
1
1.000000000000000 0.000000000000000 0.000000000000000 0.000000000000000 
0.000000000000000 1.000000000000000 0.000000000000000 0.000000000000000 
0.000000000000000 0.000000000000000 1.000000000000000 0.000000000000000 
2  85 -1 86 1 1 -1 0
1
1.000000000000000 0.000000000000000 0.000000000000000 0.000000000000000 
0.000000000000000 1.000000000000000 0.000000000000000 50.000000000000000 
0.000000000000000 0.000000000000000 1.000000000000000 0.000000000005154 
2  88 -1 85 -1 86 1 1 -1 0
1
1.000000000000000 0.000000000000000 0.000000000000000 -0.000000000000000 
0.000000000000000 1.000000000000000 0.000000000000000 -25.000000000000000 
0.000000000000000 0.000000000000000 1.000000000000000 -0.000000000002577 
1
1.000000000000000 0.000000000000000 0.000000000000000 0.000000000000000 
0.000000000000000 1.000000000000000 0.000000000000000 0.000000000000000 
0.000000000000000 0.000000000000000 1.000000000000000 0.000000000000000 
2  90 -1 91 1 1 -1 0
1
1.000000000000000 0.000000000000000 0.000000000000000 0.000000000000000 
0.000000000000000 1.000000000000000 0.000000000000000 50.000000000000000 
0.000000000000000 0.000000000000000 1.000000000000000 0.000000000005154 
2  93 -1 90 -1 91 1 1 -1 0
1
1.000000000000000 0.000000000000000 0.000000000000000 -0.000000000000000 
0.000000000000000 1.000000000000000 0.000000000000000 -25.000000000000000 
0.000000000000000 0.000000000000000 1.000000000000000 -0.000000000002577 
1
1.000000000000000 0.000000000000000 0.000000000000000 0.000000000000000 
0.000000000000000 1.000000000000000 0.000000000000000 0.000000000000000 
0.000000000000000 0.000000000000000 1.000000000000000 0.000000000000000 
2  95 -1 96 1 1 -1 0
1
1.000000000000000 0.000000000000000 0.000000000000000 0.000000000000000 
0.000000000000000 1.000000000000000 0.000000000000000 50.000000000000000 
0.000000000000000 0.000000000000000 1.000000000000000 0.000000000005154 
2  98 -1 95 -1 96 1 1 -1 0
1
1.000000000000000 0.000000000000000 0.000000000000000 -0.000000000000000 
0.000000000000000 1.000000000000000 0.000000000000000 -5000.000000000000000 
0.000000000000000 0.000000000000000 1.000000000000000 -0.000000000515421 
1
1.000000000000000 0.000000000000000 0.000000000000000 0.000000000000000 
0.000000000000000 1.000000000000000 0.000000000000000 0.000000000000000 
0.000000000000000 0.000000000000000 1.000000000000000 0.000000000000000 
2  100 -1 101 1 1 -1 0
1
1.000000000000000 0.000000000000000 0.000000000000000 0.000000000000000 
0.000000000000000 1.000000000000000 0.000000000000000 10000.000000000000000 
0.000000000000000 0.000000000000000 1.000000000000000 0.000000001030842 
2  103 -1 100 -1 101 1 1 -1 0
2  3 -1 2 1 1 -1 0
2  5 -1 3 -1 2 1 1 -1 0
2  2 -1 3 1 0
2  2 -1 3 1 5 1 0
Curve2ds 44
1 0.00000000000000000 0.00000000000000000 0.00000000000000000 -1.00000000000000000 
1 6.28318530717958623 0.00000000000000000 0.00000000000000000 -1.00000000000000000 
1 0.00000000000000000 0.00000000000000000 1.00000000000000000 0.00000000000000000 
1 0.00000000000000000 -5.00000000000000000 1.00000000000000000 0.00000000000000000 
1 0.00000000000000000 0.00000000000000000 1.00000000000000000 0.00000000000000000 
1 0.00000000000000000 -10000.00000000000000000 1.00000000000000000 0.00000000000000000 
1 0.00000000000000000 0.00000000000000000 1.00000000000000000 0.00000000000000000 
1 0.00000000000000000 -10000.00000000000000000 1.00000000000000000 0.00000000000000000 
1 0.00000000000000000 0.00000000000000000 1.00000000000000000 0.00000000000000000 
1 0.00000000000000000 -10000.00000000000000000 1.00000000000000000 0.00000000000000000 
1 0.00000000000000000 0.00000000000000000 1.00000000000000000 0.00000000000000000 
1 0.00000000000000000 -5.00000000000000000 1.00000000000000000 0.00000000000000000 
1 0.00000000000000000 0.00000000000000000 1.00000000000000000 0.00000000000000000 
1 0.00000000000000000 -5.00000000000000000 1.00000000000000000 0.00000000000000000 
1 0.00000000000000000 0.00000000000000000 1.00000000000000000 0.00000000000000000 
1 0.00000000000000000 -50.00000000000000000 1.00000000000000000 0.00000000000000000 
1 0.00000000000000000 0.00000000000000000 1.00000000000000000 0.00000000000000000 
1 0.00000000000000000 -50.00000000000000000 1.00000000000000000 0.00000000000000000 
1 0.00000000000000000 0.00000000000000000 1.00000000000000000 0.00000000000000000 
1 0.00000000000000000 -50.00000000000000000 1.00000000000000000 0.00000000000000000 
1 0.00000000000000000 0.00000000000000000 1.00000000000000000 0.00000000000000000 
1 0.00000000000000000 -50.00000000000000000 1.00000000000000000 0.00000000000000000 
1 0.00000000000000000 0.00000000000000000 1.00000000000000000 0.00000000000000000 
1 0.00000000000000000 -50.00000000000000000 1.00000000000000000 0.00000000000000000 
1 0.00000000000000000 0.00000000000000000 1.00000000000000000 0.00000000000000000 
1 0.00000000000000000 -50.00000000000000000 1.00000000000000000 0.00000000000000000 
1 0.00000000000000000 0.00000000000000000 1.00000000000000000 0.00000000000000000 
1 0.00000000000000000 -50.00000000000000000 1.00000000000000000 0.00000000000000000 
1 0.00000000000000000 0.00000000000000000 1.00000000000000000 0.00000000000000000 
1 0.00000000000000000 -50.00000000000000000 1.00000000000000000 0.00000000000000000 
1 0.00000000000000000 0.00000000000000000 1.00000000000000000 0.00000000000000000 
1 0.00000000000000000 -50.00000000000000000 1.00000000000000000 0.00000000000000000 
1 0.00000000000000000 0.00000000000000000 1.00000000000000000 0.00000000000000000 
1 0.00000000000000000 -50.00000000000000000 1.00000000000000000 0.00000000000000000 
1 0.00000000000000000 0.00000000000000000 1.00000000000000000 0.00000000000000000 
1 0.00000000000000000 -50.00000000000000000 1.00000000000000000 0.00000000000000000 
1 0.00000000000000000 0.00000000000000000 1.00000000000000000 0.00000000000000000 
1 0.00000000000000000 -50.00000000000000000 1.00000000000000000 0.00000000000000000 
1 0.00000000000000000 0.00000000000000000 1.00000000000000000 0.00000000000000000 
1 0.00000000000000000 -50.00000000000000000 1.00000000000000000 0.00000000000000000 
1 0.00000000000000000 0.00000000000000000 1.00000000000000000 0.00000000000000000 
1 0.00000000000000000 -10000.00000000000000000 1.00000000000000000 0.00000000000000000 
1 0.00000000000000000 0.00000000000000000 1.00000000000000000 0.00000000000000000 
1 0.00000000000000000 -10000.00000000000000000 1.00000000000000000 0.00000000000000000 
Curves 2
1 13.00000000000000000 -4845.00000000000000000 -0.00000000051542104 0.00000000000000000 1.00000000000000000 0.00000000000010308 
2 0.00000000000000000 0.00000000000000000 0.00000000000000000 0.00000000000000000 0.00000000000000000 1.00000000000000000 1.00000000000000000 0.00000000000000000 -0.00000000000000000 -0.00000000000000000 1.00000000000000000 0.00000000000000000 13.00000000000000000
Polygon3D 0
PolygonOnTriangulations 0
Surfaces 22
2 0.00000000000000000 -4845.00000000000000000 -0.00000000051542104 0.00000000000000000 -1.00000000000000000 -0.00000000000010303 1.00000000000000000 0.00000000000000000 0.00000000000000000 0.00000000000000000 -0.00000000000010303 1.00000000000000000 13.00000000000000000
2 0.00000000000000000 155.00000000000000000 0.00000000000000000 0.00000000000000000 -1.00000000000000000 -0.00000000000010303 1.00000000000000000 0.00000000000000000 0.00000000000000000 0.00000000000000000 -0.00000000000010303 1.00000000000000000 13.00000000000000000
2 0.00000000000000000 155.00000000000000000 0.00000000000000000 0.00000000000000000 -1.00000000000000000 -0.00000000000010303 1.00000000000000000 0.00000000000000000 0.00000000000000000 0.00000000000000000 -0.00000000000010303 1.00000000000000000 13.00000000000000000
2 0.00000000000000000 -4845.00000000000000000 -0.00000000051542104 0.00000000000000000 -1.00000000000000000 -0.00000000000010303 1.00000000000000000 0.00000000000000000 0.00000000000000000 0.00000000000000000 -0.00000000000010303 1.00000000000000000 13.00000000000000000
2 0.00000000000000000 -4845.00000000000000000 -0.00000000051542104 0.00000000000000000 -1.00000000000000000 -0.00000000000010303 1.00000000000000000 0.00000000000000000 0.00000000000000000 0.00000000000000000 -0.00000000000010303 1.00000000000000000 13.00000000000000000
2 0.00000000000000000 152.50000000000000000 -0.00000000000025771 0.00000000000000000 -1.00000000000000000 -0.00000000000010303 1.00000000000000000 0.00000000000000000 0.00000000000000000 0.00000000000000000 -0.00000000000010303 1.00000000000000000 13.00000000000000000
2 0.00000000000000000 152.50000000000000000 -0.00000000000025771 0.00000000000000000 -1.00000000000000000 -0.00000000000010303 1.00000000000000000 0.00000000000000000 0.00000000000000000 0.00000000000000000 -0.00000000000010303 1.00000000000000000 13.00000000000000000
2 0.00000000000000000 130.00000000000000000 -0.00000000000257711 0.00000000000000000 -1.00000000000000000 -0.00000000000010303 1.00000000000000000 0.00000000000000000 0.00000000000000000 0.00000000000000000 -0.00000000000010303 1.00000000000000000 13.00000000000000000
2 0.00000000000000000 130.00000000000000000 -0.00000000000257711 0.00000000000000000 -1.00000000000000000 -0.00000000000010303 1.00000000000000000 0.00000000000000000 0.00000000000000000 0.00000000000000000 -0.00000000000010303 1.00000000000000000 13.00000000000000000
2 0.00000000000000000 130.00000000000000000 -0.00000000000257711 0.00000000000000000 -1.00000000000000000 -0.00000000000010303 1.00000000000000000 0.00000000000000000 0.00000000000000000 0.00000000000000000 -0.00000000000010303 1.00000000000000000 13.00000000000000000
2 0.00000000000000000 130.00000000000000000 -0.00000000000257711 0.00000000000000000 -1.00000000000000000 -0.00000000000010303 1.00000000000000000 0.00000000000000000 0.00000000000000000 0.00000000000000000 -0.00000000000010303 1.00000000000000000 13.00000000000000000
2 0.00000000000000000 130.00000000000000000 -0.00000000000257711 0.00000000000000000 -1.00000000000000000 -0.00000000000010303 1.00000000000000000 0.00000000000000000 0.00000000000000000 0.00000000000000000 -0.00000000000010303 1.00000000000000000 13.00000000000000000
2 0.00000000000000000 130.00000000000000000 -0.00000000000257711 0.00000000000000000 -1.00000000000000000 -0.00000000000010303 1.00000000000000000 0.00000000000000000 0.00000000000000000 0.00000000000000000 -0.00000000000010303 1.00000000000000000 13.00000000000000000
2 0.00000000000000000 130.00000000000000000 -0.00000000000257711 0.00000000000000000 -1.00000000000000000 -0.00000000000010303 1.00000000000000000 0.00000000000000000 0.00000000000000000 0.00000000000000000 -0.00000000000010303 1.00000000000000000 13.00000000000000000
2 0.00000000000000000 130.00000000000000000 -0.00000000000257711 0.00000000000000000 -1.00000000000000000 -0.00000000000010303 1.00000000000000000 0.00000000000000000 0.00000000000000000 0.00000000000000000 -0.00000000000010303 1.00000000000000000 13.00000000000000000
2 0.00000000000000000 130.00000000000000000 -0.00000000000257711 0.00000000000000000 -1.00000000000000000 -0.00000000000010303 1.00000000000000000 0.00000000000000000 0.00000000000000000 0.00000000000000000 -0.00000000000010303 1.00000000000000000 13.00000000000000000
2 0.00000000000000000 130.00000000000000000 -0.00000000000257711 0.00000000000000000 -1.00000000000000000 -0.00000000000010303 1.00000000000000000 0.00000000000000000 0.00000000000000000 0.00000000000000000 -0.00000000000010303 1.00000000000000000 13.00000000000000000
2 0.00000000000000000 130.00000000000000000 -0.00000000000257711 0.00000000000000000 -1.00000000000000000 -0.00000000000010303 1.00000000000000000 0.00000000000000000 0.00000000000000000 0.00000000000000000 -0.00000000000010303 1.00000000000000000 13.00000000000000000
2 0.00000000000000000 130.00000000000000000 -0.00000000000257711 0.00000000000000000 -1.00000000000000000 -0.00000000000010303 1.00000000000000000 0.00000000000000000 0.00000000000000000 0.00000000000000000 -0.00000000000010303 1.00000000000000000 13.00000000000000000
2 0.00000000000000000 130.00000000000000000 -0.00000000000257711 0.00000000000000000 -1.00000000000000000 -0.00000000000010303 1.00000000000000000 0.00000000000000000 0.00000000000000000 0.00000000000000000 -0.00000000000010303 1.00000000000000000 13.00000000000000000
2 0.00000000000000000 -4845.00000000000000000 -0.00000000051542104 0.00000000000000000 -1.00000000000000000 -0.00000000000010303 1.00000000000000000 0.00000000000000000 0.00000000000000000 0.00000000000000000 -0.00000000000010303 1.00000000000000000 13.00000000000000000
1 -0.00000000000000042 155.00000000000000000 0.00000000000000115 -0.00000000000000000 -1.00000000000000000 -0.00000000000010350 0.00000000000000000 0.00000000000010350 -1.00000000000000000 1.00000000000000000 -0.00000000000000000 0.00000000000000000 
Triangulations 0

TShapes 9
Ve
0.000000100000000
13.000000000000000 0.000000000000000 0.000000000000000
0 0

0101101
*
Ed
 0.000000100000000 1 1 0
1  1 0 0.000000000000000 10000.000000000000000
3  1 2CN 1 0 0.000000000000000 10000.000000000000000
0

0101000
+9 4 -9 6 *
Ed
 0.000000100000000 1 1 0
1  2 0 0.000000000000000 6.283185307179586
2  3 2 8 0.000000000000000 6.283185307179586
2  4 2 10 0.000000000000000 6.283185307179586
2  5 3 12 0.000000000000000 6.283185307179586
2  6 3 14 0.000000000000000 6.283185307179586
2  7 4 17 0.000000000000000 6.283185307179586
2  8 4 19 0.000000000000000 6.283185307179586
2  9 5 22 0.000000000000000 6.283185307179586
2  10 5 24 0.000000000000000 6.283185307179586
2  11 6 27 0.000000000000000 6.283185307179586
2  12 6 29 0.000000000000000 6.283185307179586
2  13 7 32 0.000000000000000 6.283185307179586
2  14 7 34 0.000000000000000 6.283185307179586
2  15 8 37 0.000000000000000 6.283185307179586
2  16 8 39 0.000000000000000 6.283185307179586
2  17 9 42 0.000000000000000 6.283185307179586
2  18 9 44 0.000000000000000 6.283185307179586
2  19 10 47 0.000000000000000 6.283185307179586
2  20 10 49 0.000000000000000 6.283185307179586
2  21 11 52 0.000000000000000 6.283185307179586
2  22 11 54 0.000000000000000 6.283185307179586
2  23 12 57 0.000000000000000 6.283185307179586
2  24 12 59 0.000000000000000 6.283185307179586
2  25 13 62 0.000000000000000 6.283185307179586
2  26 13 64 0.000000000000000 6.283185307179586
2  27 14 67 0.000000000000000 6.283185307179586
2  28 14 69 0.000000000000000 6.283185307179586
2  29 15 72 0.000000000000000 6.283185307179586
2  30 15 74 0.000000000000000 6.283185307179586
2  31 16 77 0.000000000000000 6.283185307179586
2  32 16 79 0.000000000000000 6.283185307179586
2  33 17 82 0.000000000000000 6.283185307179586
2  34 17 84 0.000000000000000 6.283185307179586
2  35 18 87 0.000000000000000 6.283185307179586
2  36 18 89 0.000000000000000 6.283185307179586
2  37 19 92 0.000000000000000 6.283185307179586
2  38 19 94 0.000000000000000 6.283185307179586
2  39 20 97 0.000000000000000 6.283185307179586
2  40 20 99 0.000000000000000 6.283185307179586
2  41 21 102 0.000000000000000 6.283185307179586
2  42 21 104 0.000000000000000 6.283185307179586
2  43 1 105 0.000000000000000 6.283185307179586
2  44 1 106 0.000000000000000 6.283185307179586
0

0101000
+9 0 -9 0 *
Wi

0101100
+8 0 -8 0 -7 4 +7 6 *
Fa
0  0.000000100000000 1 0

0111000
+6 0 *
Wi

0101100
+7 0 *
Fa
0  0.000000100000000 22 0

0111000
+4 1 *
Sh

0101100
+5 0 +3 107 -3 108 *
So

1100000
+2 0 *

+1 0 