
CASCADE Topology V1, (c) Matra-Datavision
Locations 32
1
0.000000000000000 -1.000000000000000 0.000000000000000 0.000000000000000 
-0.000000000000103 0.000000000000000 -1.000000000000000 -130.000000000000000 
1.000000000000000 0.000000000000000 -0.000000000000103 0.000000000000000 
1
1.000000000000000 0.000000000000000 0.000000000000000 0.000000000000000 
0.000000000000000 1.000000000000000 0.000000000000000 0.000000000000000 
0.000000000000000 0.000000000000000 1.000000000000000 0.000000000000000 
1
1.000000000000000 0.000000000000000 0.000000000000000 -0.000000000000000 
0.000000000000000 1.000000000000000 0.000000000000000 18.500000000000000 
0.000000000000000 0.000000000000000 1.000000000000000 0.000000000001914 
2  1 1 2 -1 3 1 0
1
1.000000000000000 0.000000000000000 0.000000000000000 0.000000000000000 
0.000000000000000 1.000000000000000 0.000000000000000 -37.000000000000000 
0.000000000000000 0.000000000000000 1.000000000000000 -0.000000000003828 
2  1 1 2 -1 3 1 5 1 0
1
1.000000000000000 0.000000000000000 0.000000000000000 0.000000000000000 
0.000000000000000 1.000000000000000 0.000000000000000 0.000000000000000 
0.000000000000000 0.000000000000000 1.000000000000000 0.000000000000000 
2  7 1 1 -1 0
1
1.000000000000000 0.000000000000000 0.000000000000000 0.000000000000000 
0.000000000000000 1.000000000000000 0.000000000000000 5.000000000000000 
0.000000000000000 0.000000000000000 1.000000000000000 0.000000000000517 
2  9 -1 7 1 1 -1 0
1
1.000000000000000 0.000000000000000 0.000000000000000 0.000000000000000 
0.000000000000000 1.000000000000000 0.000000000000000 0.000000000000000 
0.000000000000000 0.000000000000000 1.000000000000000 0.000000000000000 
2  11 1 1 -1 0
1
1.000000000000000 0.000000000000000 0.000000000000000 0.000000000000000 
0.000000000000000 1.000000000000000 0.000000000000000 -10.000000000000000 
0.000000000000000 0.000000000000000 1.000000000000000 -0.000000000001035 
2  13 -1 11 1 1 -1 0
1
1.000000000000000 0.000000000000000 0.000000000000000 0.000000000000000 
0.000000000000000 1.000000000000000 0.000000000000000 0.000000000000000 
0.000000000000000 0.000000000000000 1.000000000000000 0.000000000000000 
2  15 1 1 -1 0
1
1.000000000000000 0.000000000000000 0.000000000000000 0.000000000000000 
0.000000000000000 1.000000000000000 0.000000000000000 -37.000000000000000 
0.000000000000000 0.000000000000000 1.000000000000000 -0.000000000003828 
2  17 -1 15 1 1 -1 0
1
1.000000000000000 0.000000000000000 0.000000000000000 -0.000000000000000 
0.000000000000000 1.000000000000000 0.000000000000000 18.500000000000000 
0.000000000000000 0.000000000000000 1.000000000000000 0.000000000001914 
1
1.000000000000000 0.000000000000000 0.000000000000000 0.000000000000000 
0.000000000000000 1.000000000000000 0.000000000000000 0.000000000000000 
0.000000000000000 0.000000000000000 1.000000000000000 0.000000000000000 
2  19 -1 20 1 1 -1 0
1
1.000000000000000 0.000000000000000 0.000000000000000 0.000000000000000 
0.000000000000000 1.000000000000000 0.000000000000000 -37.000000000000000 
0.000000000000000 0.000000000000000 1.000000000000000 -0.000000000003828 
2  22 -1 19 -1 20 1 1 -1 0
1
1.000000000000000 0.000000000000000 0.000000000000000 -0.000000000000000 
0.000000000000000 1.000000000000000 0.000000000000000 18.500000000000000 
0.000000000000000 0.000000000000000 1.000000000000000 0.000000000001914 
1
1.000000000000000 0.000000000000000 0.000000000000000 0.000000000000000 
0.000000000000000 1.000000000000000 0.000000000000000 0.000000000000000 
0.000000000000000 0.000000000000000 1.000000000000000 0.000000000000000 
2  24 -1 25 1 1 -1 0
1
1.000000000000000 0.000000000000000 0.000000000000000 0.000000000000000 
0.000000000000000 1.000000000000000 0.000000000000000 -37.000000000000000 
0.000000000000000 0.000000000000000 1.000000000000000 -0.000000000003828 
2  27 -1 24 -1 25 1 1 -1 0
2  3 -1 2 1 1 -1 0
2  5 -1 3 -1 2 1 1 -1 0
2  2 -1 3 1 0
2  2 -1 3 1 5 1 0
Curve2ds 14
1 0.00000000000000000 0.00000000000000000 0.00000000000000000 -1.00000000000000000 
1 6.28318530717958623 0.00000000000000000 0.00000000000000000 -1.00000000000000000 
1 0.00000000000000000 0.00000000000000000 1.00000000000000000 0.00000000000000000 
1 0.00000000000000000 -5.00000000000000000 1.00000000000000000 0.00000000000000000 
1 0.00000000000000000 0.00000000000000000 1.00000000000000000 0.00000000000000000 
1 0.00000000000000000 -10.00000000000000000 1.00000000000000000 0.00000000000000000 
1 0.00000000000000000 0.00000000000000000 1.00000000000000000 0.00000000000000000 
1 0.00000000000000000 -37.00000000000000000 1.00000000000000000 0.00000000000000000 
1 0.00000000000000000 0.00000000000000000 1.00000000000000000 0.00000000000000000 
1 0.00000000000000000 -37.00000000000000000 1.00000000000000000 0.00000000000000000 
1 0.00000000000000000 0.00000000000000000 1.00000000000000000 0.00000000000000000 
1 0.00000000000000000 -37.00000000000000000 1.00000000000000000 0.00000000000000000 
1 0.00000000000000000 0.00000000000000000 1.00000000000000000 0.00000000000000000 
1 0.00000000000000000 -37.00000000000000000 1.00000000000000000 0.00000000000000000 
Curves 2
1 0.00000000000000000 -111.50000000000154898 15.00000000000191491 0.00000000000000000 -1.00000000000000000 -0.00000000000010347 
2 0.00000000000000000 0.00000000000000000 0.00000000000000000 0.00000000000000000 0.00000000000000000 1.00000000000000000 1.00000000000000000 0.00000000000000000 -0.00000000000000000 -0.00000000000000000 1.00000000000000000 0.00000000000000000 15.00000000000000000
Polygon3D 0
PolygonOnTriangulations 0
Surfaces 7
2 0.00000000000000000 -111.50000000000000000 0.00000000000191425 0.00000000000000000 1.00000000000000000 0.00000000000010347 0.00000000000000000 -0.00000000000010347 1.00000000000000000 -1.00000000000000000 -0.00000000000000000 0.00000000000000000 15.00000000000000000
2 0.00000000000000000 -130.00000000000000000 0.00000000000000000 -0.00000000000000000 -1.00000000000000000 -0.00000000000010347 0.00000000000000000 -0.00000000000010347 1.00000000000000000 -1.00000000000000000 0.00000000000000000 0.00000000000000000 15.00000000000000000
2 0.00000000000000000 -130.00000000000000000 0.00000000000000000 0.00000000000000000 1.00000000000000000 0.00000000000010347 0.00000000000000000 -0.00000000000010347 1.00000000000000000 -1.00000000000000000 -0.00000000000000000 0.00000000000000000 15.00000000000000000
2 0.00000000000000000 -130.00000000000000000 0.00000000000000000 0.00000000000000000 1.00000000000000000 0.00000000000010347 0.00000000000000000 -0.00000000000010347 1.00000000000000000 -1.00000000000000000 -0.00000000000000000 0.00000000000000000 15.00000000000000000
2 0.00000000000000000 -111.50000000000000000 0.00000000000191425 0.00000000000000000 1.00000000000000000 0.00000000000010347 0.00000000000000000 -0.00000000000010347 1.00000000000000000 -1.00000000000000000 -0.00000000000000000 0.00000000000000000 15.00000000000000000
2 0.00000000000000000 -111.50000000000000000 0.00000000000191425 0.00000000000000000 1.00000000000000000 0.00000000000010347 0.00000000000000000 -0.00000000000010347 1.00000000000000000 -1.00000000000000000 -0.00000000000000000 0.00000000000000000 15.00000000000000000
1 -0.00000000000000012 -130.00000000000000000 -0.00000000000000073 -0.00000000000000000 -1.00000000000000000 -0.00000000000010358 0.00000000000000000 0.00000000000010358 -1.00000000000000000 1.00000000000000000 -0.00000000000000000 0.00000000000000000 
Triangulations 0

TShapes 9
Ve
0.000000100000000
15.000000000000000 0.000000000000000 0.000000000000000
0 0

0101101
*
Ed
 0.000000100000000 1 1 0
1  1 0 0.000000000000000 37.000000000000000
3  1 2CN 1 0 0.000000000000000 37.000000000000000
0

0101000
+9 4 -9 6 *
Ed
 0.000000100000000 1 1 0
1  2 0 0.000000000000000 6.283185307179586
2  3 2 8 0.000000000000000 6.283185307179586
2  4 2 10 0.000000000000000 6.283185307179586
2  5 3 12 0.000000000000000 6.283185307179586
2  6 3 14 0.000000000000000 6.283185307179586
2  7 4 16 0.000000000000000 6.283185307179586
2  8 4 18 0.000000000000000 6.283185307179586
2  9 5 21 0.000000000000000 6.283185307179586
2  10 5 23 0.000000000000000 6.283185307179586
2  11 6 26 0.000000000000000 6.283185307179586
2  12 6 28 0.000000000000000 6.283185307179586
2  13 1 29 0.000000000000000 6.283185307179586
2  14 1 30 0.000000000000000 6.283185307179586
0

0101000
+9 0 -9 0 *
Wi

0101100
+8 0 -8 0 -7 4 +7 6 *
Fa
0  0.000000100000000 1 0

0111000
+6 0 *
Wi

0101100
+7 0 *
Fa
0  0.000000100000000 7 0

0111000
+4 1 *
Sh

0101100
+5 0 +3 31 -3 32 *
So

1100000
-2 0 *

+1 0 