
CASCADE Topology V1, (c) Matra-Datavision
Locations 1
1
1.000000000000000 0.000000000000000 0.000000000000000 0.000000000000000 
0.000000000000000 1.000000000000000 0.000000000000000 0.000000000000000 
0.000000000000000 0.000000000000000 1.000000000000000 0.000000000000000 
Curve2ds 60
2 -0.00000000000002842 -0.00000000000000115 1.00000000000000000 0.00000000000000000 -0.00000000000000000 1.00000000000000000 13.00000000000000000
8 0.00000000000000000 6.28318530717958623
1 6.28318530717958623 0.00000000000000000 -1.00000000000000000 -0.00000000000000000 
2 -0.00000000000002842 -0.00000000000000115 1.00000000000000000 0.00000000000000000 -0.00000000000000000 1.00000000000000000 10.00000000000000000
8 0.00000000000000000 6.28318530717958623
1 6.28318530717958623 0.00000000000000000 -1.00000000000000000 -0.00000000000000000 
1 6.28318530717958623 0.00000000000000000 0.00000000000000000 1.00000000000000000 
8 0.00000000000000000 20.00000000000000000
1 0.00000000000000000 0.00000000000000000 0.00000000000000000 1.00000000000000000 
1 0.00000000000000000 20.00000000000000000 1.00000000000000000 0.00000000000000000 
8 0.00000000000000000 6.28318530717958623
1 4.71238898038458665 9.42477796076969021 -0.00000000000000000 -1.00000000000000000 
1 0.00000000000000000 3.14159265359010353 1.00000000000000000 0.00000000000000000 
8 4.71238898038458665 5.16407625231206069
1 0.00000000000000000 9.42477796076969021 1.00000000000000000 0.00000000000000000 
1 5.16407625231206069 0.00000000000000000 0.00000000000000000 1.00000000000000000 
8 3.14159265359010353 9.42477796076969021
1 9.42477796076969021 0.00000000000000000 -1.00000000000000000 -0.00000000000000000 
1 6.28318530717958623 0.00000000000000000 0.00000000000000000 1.00000000000000000 
8 0.00000000000000000 176.42278764375376454
1 0.00000000000000000 0.00000000000000000 0.00000000000000000 1.00000000000000000 
1 0.00000000000000000 176.42278764375376454 1.00000000000000000 0.00000000000000000 
8 0.00000000000000000 6.28318530717958623
1 5.16407625231185285 9.42477796076948238 -0.00000000000000000 -1.00000000000000000 
1 0.00000000000000000 3.14159265358989614 1.00000000000000000 0.00000000000000000 
8 5.16407625231185285 7.53847481769853189
1 0.00000000000000000 9.42477796076948238 1.00000000000000000 0.00000000000000000 
1 7.53847481769853189 0.00000000000000000 0.00000000000000000 1.00000000000000000 
8 3.14159265358989614 9.42477796076948238
1 9.42477796076948238 0.00000000000000000 -1.00000000000000000 -0.00000000000000000 
1 6.28318530717958623 0.00000000000000000 0.00000000000000000 1.00000000000000000 
8 0.00000000000000000 164.31676725154622432
1 0.00000000000000000 0.00000000000000000 0.00000000000000000 1.00000000000000000 
1 0.00000000000000000 164.31676725154622432 1.00000000000000000 0.00000000000000000 
8 0.00000000000000000 6.28318530717958623
1 1.25528951051894566 9.42477796076948238 -0.00000000000000000 -1.00000000000000000 
1 0.00000000000000000 3.14159265358989614 1.00000000000000000 0.00000000000000000 
8 1.25528951051894566 1.57079632679499959
1 0.00000000000000000 9.42477796076948238 1.00000000000000000 0.00000000000000000 
1 1.57079632679499959 0.00000000000000000 0.00000000000000000 1.00000000000000000 
8 3.14159265358989614 9.42477796076948238
1 9.42477796076948238 0.00000000000000000 -1.00000000000000000 -0.00000000000000000 
1 6.28318530717958623 0.00000000000000000 0.00000000000000000 1.00000000000000000 
8 0.00000000000000000 20.00000000000000000
1 0.00000000000000000 0.00000000000000000 0.00000000000000000 1.00000000000000000 
2 -0.00000000000000000 -0.00000000000000157 1.00000000000000000 0.00000000000000000 -0.00000000000000000 1.00000000000000000 13.00000000000000000
8 0.00000000000000000 6.28318530717958623
1 6.28318530717958623 20.00000000000000000 -1.00000000000000000 -0.00000000000000000 
2 -0.00000000000000000 -0.00000000000000157 1.00000000000000000 0.00000000000000000 -0.00000000000000000 1.00000000000000000 10.00000000000000000
8 0.00000000000000000 6.28318530717958623
1 6.28318530717958623 20.00000000000000000 -1.00000000000000000 -0.00000000000000000 
1 6.28318530717958623 0.00000000000000000 0.00000000000000000 1.00000000000000000 
8 0.00000000000000000 20.00000000000000000
1 0.00000000000000000 0.00000000000000000 0.00000000000000000 1.00000000000000000 
1 0.00000000000000000 20.00000000000000000 1.00000000000000000 0.00000000000000000 
8 0.00000000000000000 6.28318530717958623
1 4.71238898038458665 9.42477796076969021 -0.00000000000000000 -1.00000000000000000 
1 0.00000000000000000 3.14159265359010353 1.00000000000000000 0.00000000000000000 
8 4.71238898038458665 5.16407625231206069
1 0.00000000000000000 9.42477796076969021 1.00000000000000000 0.00000000000000000 
1 5.16407625231206069 0.00000000000000000 0.00000000000000000 1.00000000000000000 
8 3.14159265359010353 9.42477796076969021
1 9.42477796076969021 0.00000000000000000 -1.00000000000000000 -0.00000000000000000 
1 6.28318530717958623 0.00000000000000000 0.00000000000000000 1.00000000000000000 
8 0.00000000000000000 176.42278764375376454
1 0.00000000000000000 0.00000000000000000 0.00000000000000000 1.00000000000000000 
1 0.00000000000000000 176.42278764375376454 1.00000000000000000 0.00000000000000000 
8 0.00000000000000000 6.28318530717958623
1 5.16407625231185285 9.42477796076948238 -0.00000000000000000 -1.00000000000000000 
1 0.00000000000000000 3.14159265358989614 1.00000000000000000 0.00000000000000000 
8 5.16407625231185285 7.53847481769853189
1 0.00000000000000000 9.42477796076948238 1.00000000000000000 0.00000000000000000 
1 7.53847481769853189 0.00000000000000000 0.00000000000000000 1.00000000000000000 
8 3.14159265358989614 9.42477796076948238
1 9.42477796076948238 0.00000000000000000 -1.00000000000000000 -0.00000000000000000 
1 6.28318530717958623 0.00000000000000000 0.00000000000000000 1.00000000000000000 
8 0.00000000000000000 164.31676725154622432
1 0.00000000000000000 0.00000000000000000 0.00000000000000000 1.00000000000000000 
1 0.00000000000000000 164.31676725154622432 1.00000000000000000 0.00000000000000000 
8 0.00000000000000000 6.28318530717958623
1 1.25528951051894566 9.42477796076948238 -0.00000000000000000 -1.00000000000000000 
1 0.00000000000000000 3.14159265358989614 1.00000000000000000 0.00000000000000000 
8 1.25528951051894566 1.57079632679499959
1 0.00000000000000000 9.42477796076948238 1.00000000000000000 0.00000000000000000 
1 1.57079632679499959 0.00000000000000000 0.00000000000000000 1.00000000000000000 
8 3.14159265358989614 9.42477796076948238
1 9.42477796076948238 0.00000000000000000 -1.00000000000000000 -0.00000000000000000 
1 6.28318530717958623 0.00000000000000000 0.00000000000000000 1.00000000000000000 
8 0.00000000000000000 20.00000000000000000
1 0.00000000000000000 0.00000000000000000 0.00000000000000000 1.00000000000000000 
Curves 30
2 0.00000000000000000 155.00000000000000000 0.00000000000000000 -1.00000000000000000 -0.00000000000041377 0.00000000000000000 0.00000000000041377 -1.00000000000000000 0.00000000000000000 0.00000000000000000 0.00000000000000000 1.00000000000000000 13.00000000000000000
2 0.00000000000000000 155.00000000000000000 0.00000000000000000 -1.00000000000000000 -0.00000000000041377 0.00000000000000000 0.00000000000041377 -1.00000000000000000 0.00000000000000000 0.00000000000000000 0.00000000000000000 1.00000000000000000 10.00000000000000000
1 0.00000000000000000 142.00000000000000000 0.00000000000000318 1.00000000000000000 0.00000000000000000 0.00000000000000000 
2 20.00000000000000000 155.00000000000000000 0.00000000000000000 1.00000000000000000 0.00000000000000000 0.00000000000000000 0.00000000000000000 -1.00000000000000000 0.00000000000000000 0.00000000000000000 0.00000000000000000 -1.00000000000000000 13.00000000000000000
2 20.00000000000619949 94.99999999999998579 0.00000000000403385 0.00000000000000000 -0.00000000000000000 -1.00000000000000000 1.00000000000000000 0.00000000000000000 0.00000000000000000 0.00000000000000000 -1.00000000000000000 0.00000000000000000 47.00000000000000000
2 46.18905280158308102 148.98271494984498986 0.00000000000000000 -0.89971191583074983 0.43648421335961468 -0.00000000000000000 0.43648421335961468 0.89971191583074983 0.00000000000000000 0.00000000000000000 0.00000000000000000 -1.00000000000000000 13.00000000000000000
1 40.51475802790914571 137.28646004404473047 0.00000000000000318 0.89971191583078947 -0.43648421335953314 0.00000000000000000 
2 204.91873706875330186 71.97695326646515923 0.00000000000000000 0.89971191583078947 -0.43648421335953314 0.00000000000000000 -0.43648421335953314 -0.89971191583078947 0.00000000000000000 0.00000000000000000 -0.00000000000000000 -1.00000000000000000 12.99999999999999822
2 170.00000000000000000 -0.00000000000000000 0.00000000000133778 0.00000000000000000 -0.00000000000000000 -1.00000000000000000 1.00000000000000000 0.00000000000000000 0.00000000000000000 0.00000000000000000 -1.00000000000000000 0.00000000000000000 67.00000000000000000
2 194.82386483974158864 -76.05113894228173876 0.00000000000000000 0.95063923677852169 0.31029831049676987 0.00000000000000000 0.31029831049676987 -0.95063923677852169 0.00000000000000000 0.00000000000000000 0.00000000000000000 -1.00000000000000000 12.99999999999999822
1 190.78998680328479054 -63.69282886416056044 0.00000000000000318 -0.95063923677855255 -0.31029831049667544 0.00000000000000000 
2 38.61789862981260057 -127.03835420671197198 0.00000000000000000 -0.95063923677855255 -0.31029831049667544 0.00000000000000000 -0.31029831049667544 0.95063923677855255 0.00000000000000000 -0.00000000000000000 0.00000000000000000 -1.00000000000000000 12.99999999999999645
2 20.00000000000619949 -69.99999999999998579 0.00000000000133778 0.00000000000000000 -0.00000000000000000 -1.00000000000000000 1.00000000000000000 0.00000000000000000 0.00000000000000000 0.00000000000000000 -1.00000000000000000 0.00000000000000000 47.00000000000000000
2 20.00000000000002132 -130.00000000000000000 0.00000000000000000 1.00000000000000000 -0.00000000000010297 0.00000000000000000 -0.00000000000010297 -1.00000000000000000 0.00000000000000000 0.00000000000000000 -0.00000000000000000 -1.00000000000000000 12.99999999999999822
1 20.00000000000000000 -117.00000000000000000 0.00000000000000318 -1.00000000000000000 0.00000000000000000 0.00000000000000000 
2 0.00000000000000000 -130.00000000000000000 0.00000000000000000 1.00000000000000000 -0.00000000000000000 0.00000000000000000 0.00000000000000000 1.00000000000000000 0.00000000000000000 -0.00000000000000000 0.00000000000000000 1.00000000000000000 12.99999999999999822
2 0.00000000000000000 -130.00000000000000000 0.00000000000000000 1.00000000000000000 -0.00000000000000000 0.00000000000000000 0.00000000000000000 1.00000000000000000 0.00000000000000000 -0.00000000000000000 0.00000000000000000 1.00000000000000000 9.99999999999999822
1 0.00000000000000000 145.00000000000000000 0.00000000000000245 1.00000000000000000 0.00000000000000000 0.00000000000000000 
2 20.00000000000000000 155.00000000000000000 0.00000000000000000 1.00000000000000000 0.00000000000000000 0.00000000000000000 0.00000000000000000 -1.00000000000000000 0.00000000000000000 0.00000000000000000 0.00000000000000000 -1.00000000000000000 10.00000000000000000
2 20.00000000000619949 94.99999999999998579 0.00000000000310296 0.00000000000000000 -0.00000000000000000 -1.00000000000000000 1.00000000000000000 0.00000000000000000 0.00000000000000000 0.00000000000000000 -1.00000000000000000 0.00000000000000000 50.00000000000000000
2 46.18905280158308102 148.98271494984498986 0.00000000000000000 -0.89971191583074983 0.43648421335961468 -0.00000000000000000 0.43648421335961468 0.89971191583074983 0.00000000000000000 0.00000000000000000 0.00000000000000000 -1.00000000000000000 10.00000000000000000
1 41.82421066798774234 139.98559579153709365 0.00000000000000245 0.89971191583078947 -0.43648421335953314 0.00000000000000000 
2 204.91873706875330186 71.97695326646515923 0.00000000000000000 0.89971191583078947 -0.43648421335953314 0.00000000000000000 -0.43648421335953314 -0.89971191583078947 0.00000000000000000 0.00000000000000000 -0.00000000000000000 -1.00000000000000000 9.99999999999999822
2 170.00000000000000000 -0.00000000000000000 0.00000000000102906 0.00000000000000000 -0.00000000000000000 -1.00000000000000000 1.00000000000000000 0.00000000000000000 0.00000000000000000 0.00000000000000000 -1.00000000000000000 0.00000000000000000 70.00000000000000000
2 194.82386483974158864 -76.05113894228173876 0.00000000000000000 0.95063923677852169 0.31029831049676987 0.00000000000000000 0.31029831049676987 -0.95063923677852169 0.00000000000000000 0.00000000000000000 0.00000000000000000 -1.00000000000000000 9.99999999999999822
1 191.72088173477479245 -66.54474657449621589 0.00000000000000245 -0.95063923677855255 -0.31029831049667544 0.00000000000000000 
2 38.61789862981260057 -127.03835420671197198 0.00000000000000000 -0.95063923677855255 -0.31029831049667544 0.00000000000000000 -0.31029831049667544 0.95063923677855255 0.00000000000000000 -0.00000000000000000 0.00000000000000000 -1.00000000000000000 9.99999999999999822
2 20.00000000000619949 -69.99999999999998579 0.00000000000102906 0.00000000000000000 -0.00000000000000000 -1.00000000000000000 1.00000000000000000 0.00000000000000000 0.00000000000000000 0.00000000000000000 -1.00000000000000000 0.00000000000000000 50.00000000000000000
2 20.00000000000002132 -130.00000000000000000 0.00000000000000000 1.00000000000000000 -0.00000000000010297 0.00000000000000000 -0.00000000000010297 -1.00000000000000000 0.00000000000000000 0.00000000000000000 -0.00000000000000000 -1.00000000000000000 9.99999999999999822
1 20.00000000000000000 -120.00000000000000000 0.00000000000000245 -1.00000000000000000 0.00000000000000000 0.00000000000000000 
Polygon3D 0
PolygonOnTriangulations 0
Surfaces 16
1 -0.00000000000000000 154.99999999999997158 0.00000000000000115 -1.00000000000000000 -0.00000000000041377 0.00000000000000000 0.00000000000041377 -1.00000000000000000 0.00000000000000000 0.00000000000000000 0.00000000000000000 1.00000000000000000 
10 0.00000000000000000 6.28318530717958623 0.00000000000000000 20.00000000000000000
2 0.00000000000000000 155.00000000000000000 0.00000000000000000 1.00000000000000000 0.00000000000000000 0.00000000000000000 0.00000000000000000 -1.00000000000000000 0.00000000000000000 0.00000000000000000 0.00000000000000000 -1.00000000000000000 13.00000000000000000
10 0.00000000000000000 6.28318530717958623 0.00000000000000000 20.00000000000000000
2 0.00000000000000000 155.00000000000000000 0.00000000000000000 1.00000000000000000 0.00000000000000000 0.00000000000000000 0.00000000000000000 -1.00000000000000000 0.00000000000000000 0.00000000000000000 0.00000000000000000 -1.00000000000000000 10.00000000000000000
10 4.71238898038458665 5.16407625231206069 3.14159265359010353 9.42477796076969021
5 20.00000000000619949 94.99999999999998579 0.00000000000000000 0.00000000000000000 -0.00000000000000000 -1.00000000000000000 1.00000000000000000 0.00000000000000000 0.00000000000000000 0.00000000000000000 -1.00000000000000000 0.00000000000000000 60.00000000000000000 13.00000000000000000
10 0.00000000000000000 6.28318530717958623 0.00000000000000000 176.42278764375376454
2 46.18905280158307392 148.98271494984498986 0.00000000000000000 0.89971191583078947 -0.43648421335953314 0.00000000000000000 -0.43648421335953314 -0.89971191583078947 0.00000000000000000 0.00000000000000000 -0.00000000000000000 -1.00000000000000000 12.99999999999999822
10 5.16407625231185285 7.53847481769853189 3.14159265358989614 9.42477796076948238
5 170.00000000000000000 -0.00000000000000000 0.00000000000000000 0.00000000000000000 -0.00000000000000000 -1.00000000000000000 1.00000000000000000 0.00000000000000000 0.00000000000000000 0.00000000000000000 -1.00000000000000000 0.00000000000000000 80.00000000000000000 12.99999999999999822
10 0.00000000000000000 6.28318530717958623 0.00000000000000000 164.31676725154622432
2 194.82386483974156022 -76.05113894228173876 0.00000000000000000 -0.95063923677855255 -0.31029831049667544 0.00000000000000000 -0.31029831049667544 0.95063923677855255 0.00000000000000000 -0.00000000000000000 0.00000000000000000 -1.00000000000000000 12.99999999999999645
10 1.25528951051894566 1.57079632679499959 3.14159265358989614 9.42477796076948238
5 20.00000000000619949 -69.99999999999998579 0.00000000000000000 0.00000000000000000 -0.00000000000000000 -1.00000000000000000 1.00000000000000000 0.00000000000000000 0.00000000000000000 0.00000000000000000 -1.00000000000000000 0.00000000000000000 60.00000000000000000 12.99999999999999822
10 0.00000000000000000 6.28318530717958623 0.00000000000000000 20.00000000000000000
2 20.00000000000000000 -130.00000000000000000 0.00000000000000000 -1.00000000000000000 0.00000000000000000 0.00000000000000000 0.00000000000000000 1.00000000000000000 0.00000000000000000 0.00000000000000000 0.00000000000000000 -1.00000000000000000 12.99999999999999822
1 -0.00000000000000000 -130.00000000000000000 0.00000000000000157 1.00000000000000000 -0.00000000000000000 -0.00000000000000000 0.00000000000000000 1.00000000000000000 0.00000000000000000 0.00000000000000000 -0.00000000000000000 1.00000000000000000 
10 0.00000000000000000 6.28318530717958623 0.00000000000000000 20.00000000000000000
2 20.00000000000000000 -130.00000000000000000 0.00000000000000000 -1.00000000000000000 0.00000000000000000 0.00000000000000000 0.00000000000000000 1.00000000000000000 0.00000000000000000 0.00000000000000000 0.00000000000000000 -1.00000000000000000 9.99999999999999822
10 4.71238898038458665 5.16407625231206069 3.14159265359010353 9.42477796076969021
5 20.00000000000619949 94.99999999999998579 0.00000000000000000 0.00000000000000000 -0.00000000000000000 -1.00000000000000000 1.00000000000000000 0.00000000000000000 0.00000000000000000 0.00000000000000000 -1.00000000000000000 0.00000000000000000 60.00000000000000000 10.00000000000000000
10 0.00000000000000000 6.28318530717958623 0.00000000000000000 176.42278764375376454
2 46.18905280158307392 148.98271494984498986 0.00000000000000000 0.89971191583078947 -0.43648421335953314 0.00000000000000000 -0.43648421335953314 -0.89971191583078947 0.00000000000000000 0.00000000000000000 -0.00000000000000000 -1.00000000000000000 9.99999999999999822
10 5.16407625231185285 7.53847481769853189 3.14159265358989614 9.42477796076948238
5 170.00000000000000000 -0.00000000000000000 0.00000000000000000 0.00000000000000000 -0.00000000000000000 -1.00000000000000000 1.00000000000000000 0.00000000000000000 0.00000000000000000 0.00000000000000000 -1.00000000000000000 0.00000000000000000 80.00000000000000000 9.99999999999999822
10 0.00000000000000000 6.28318530717958623 0.00000000000000000 164.31676725154622432
2 194.82386483974156022 -76.05113894228173876 0.00000000000000000 -0.95063923677855255 -0.31029831049667544 0.00000000000000000 -0.31029831049667544 0.95063923677855255 0.00000000000000000 -0.00000000000000000 0.00000000000000000 -1.00000000000000000 9.99999999999999822
10 1.25528951051894566 1.57079632679499959 3.14159265358989614 9.42477796076948238
5 20.00000000000619949 -69.99999999999998579 0.00000000000000000 0.00000000000000000 -0.00000000000000000 -1.00000000000000000 1.00000000000000000 0.00000000000000000 0.00000000000000000 0.00000000000000000 -1.00000000000000000 0.00000000000000000 60.00000000000000000 9.99999999999999822
Triangulations 0

TShapes 82
Ve
0.000000100107581
0.000000000000000 142.000000000000000 0.000000000000000
0 0

0101101
*
Ed
 0.000000100000000 1 1 0
1  1 0 0.000000000000000 6.283185307179586
2  1 1 0 0.000000000000000 6.283185307179586
2  2 2 0 0.000000000000000 6.283185307179586
4 C0 1 0 2 0
0

0101000
+82 0 -82 0 *
Wi

0101100
+81 0 *
Ve
0.000000100082755
0.000000000000000 145.000000000000000 0.000000000000000
0 0

0101101
*
Ed
 0.000000100000000 1 1 0
1  2 0 0.000000000000000 6.283185307179586
2  3 1 0 0.000000000000000 6.283185307179586
2  4 3 0 0.000000000000000 6.283185307179586
4 C0 1 0 3 0
0

0101000
+79 0 -79 0 *
Wi

0101100
-78 0 *
Fa
0  0.000000100000000 1 0

0101000
+80 0 +77 0 *
Ve
0.000000100107585
20.000000000005382 142.000000000000000 0.000000000000000
0 0

0101101
*
Ed
 0.000000100000000 1 1 0
1  3 0 0.000000000000000 20.000000000000000
3  5 6G1 2 0 0.000000000000000 20.000000000000000
0

0101000
+82 0 -75 0 *
Ed
 0.000000100000000 1 1 0
1  4 0 0.000000000000000 6.283185307179586
2  7 2 0 0.000000000000000 6.283185307179586
2  8 4 0 0.000000000000000 6.283185307179586
4 G1 4 0 2 0
0

0101000
+75 0 -75 0 *
Wi

0101100
+74 0 -81 0 -74 0 -73 0 *
Fa
0  0.000000100000000 2 0

0101000
+72 0 *
Ve
0.000000100004041
40.514758027911725 137.286460044043480 0.000000000000000
0 0

0101101
*
Ed
 0.000000100000000 1 1 0
1  5 0 4.712388980384587 5.164076252312061
3  9 10G1 4 0 4.712388980384587 5.164076252312061
0

0101000
+75 0 -70 0 *
Ed
 0.000000100000000 1 1 0
1  6 0 3.141592653590104 9.424777960769690
2  11 4 0 3.141592653590104 9.424777960769690
2  12 5 0 3.141592653590104 9.424777960769690
4 G1 5 0 4 0
0

0101000
+70 0 -70 0 *
Wi

0101100
+69 0 +73 0 -69 0 +68 0 *
Fa
0  0.000000100000000 4 0

0101000
+67 0 *
Ve
0.000000100504452
199.244442295082905 60.280698360665724 0.000000000000000
0 0

0101101
*
Ed
 0.000000100000000 1 1 0
1  7 0 0.000000000000000 176.422787643753765
3  13 14G1 5 0 0.000000000000000 176.422787643753765
0

0101000
+70 0 -65 0 *
Ed
 0.000000100000000 1 1 0
1  8 0 0.000000000000000 6.283185307179586
2  15 5 0 0.000000000000000 6.283185307179586
2  16 6 0 0.000000000000000 6.283185307179586
4 G1 6 0 5 0
0

0101000
+65 0 -65 0 *
Wi

0101100
+64 0 -68 0 -64 0 -63 0 *
Fa
0  0.000000100000000 5 0

0101000
+62 0 *
Ve
0.000000100001337
190.789986803282289 -63.692828864161378 0.000000000000000
0 0

0101101
*
Ed
 0.000000100000000 1 1 0
1  9 0 5.164076252311853 7.538474817698532
3  17 18G1 6 0 5.164076252311853 7.538474817698532
0

0101000
+65 0 -60 0 *
Ed
 0.000000100000000 1 1 0
1  10 0 3.141592653589896 9.424777960769482
2  19 6 0 3.141592653589896 9.424777960769482
2  20 7 0 3.141592653589896 9.424777960769482
4 G1 7 0 6 0
0

0101000
+60 0 -60 0 *
Wi

0101100
+59 0 +63 0 -59 0 +58 0 *
Fa
0  0.000000100000000 6 0

0101000
+57 0 *
Ve
0.000000100431507
34.584020593353095 -114.680044128590922 0.000000000000000
0 0

0101101
*
Ed
 0.000000100000000 1 1 0
1  11 0 0.000000000000000 164.316767251546224
3  21 22G1 7 0 0.000000000000000 164.316767251546224
0

0101000
+60 0 -55 0 *
Ed
 0.000000100000000 1 1 0
1  12 0 0.000000000000000 6.283185307179586
2  23 7 0 0.000000000000000 6.283185307179586
2  24 8 0 0.000000000000000 6.283185307179586
4 G1 8 0 7 0
0

0101000
+55 0 -55 0 *
Wi

0101100
+54 0 -58 0 -54 0 -53 0 *
Fa
0  0.000000100000000 7 0

0101000
+52 0 *
Ve
0.000000100001349
20.000000000000011 -117.000000000000000 0.000000000000000
0 0

0101101
*
Ed
 0.000000100000000 1 1 0
1  13 0 1.255289510518946 1.570796326795000
3  25 26G1 8 0 1.255289510518946 1.570796326795000
0

0101000
+55 0 -50 0 *
Ed
 0.000000100000000 1 1 0
1  14 0 3.141592653589896 9.424777960769482
2  27 8 0 3.141592653589896 9.424777960769482
2  28 9 0 3.141592653589896 9.424777960769482
4 G1 9 0 8 0
0

0101000
+50 0 -50 0 *
Wi

0101100
+49 0 +53 0 -49 0 +48 0 *
Fa
0  0.000000100000000 8 0

0101000
+47 0 *
Ve
0.000000100000000
0.000000000000000 -117.000000000000000 0.000000000000000
0 0

0101101
*
Ed
 0.000000100000000 1 1 0
1  15 0 0.000000000000000 20.000000000000000
3  29 30G1 9 0 0.000000000000000 20.000000000000000
0

0101000
+50 0 -45 0 *
Ed
 0.000000100000000 1 1 0
1  16 0 0.000000000000000 6.283185307179586
2  31 10 0 0.000000000000000 6.283185307179586
2  32 9 0 0.000000000000000 6.283185307179586
4 C0 9 0 10 0
0

0101000
+45 0 -45 0 *
Wi

0101100
+44 0 -48 0 -44 0 +43 0 *
Fa
0  0.000000100000000 9 0

0101000
+42 0 *
Wi

0101100
+43 0 *
Ve
0.000000100000000
-0.000000000000000 -120.000000000000000 0.000000000000000
0 0

0101101
*
Ed
 0.000000100000000 1 1 0
1  17 0 0.000000000000000 6.283185307179586
2  33 10 0 0.000000000000000 6.283185307179586
2  34 11 0 0.000000000000000 6.283185307179586
4 C0 10 0 11 0
0

0101000
+39 0 -39 0 *
Wi

0101100
-38 0 *
Fa
0  0.000000100000000 10 0

0101000
+40 0 +37 0 *
Ve
0.000000100082758
20.000000000004142 145.000000000000000 0.000000000000000
0 0

0101101
*
Ed
 0.000000100000000 1 1 0
1  18 0 0.000000000000000 20.000000000000000
3  35 36G1 3 0 0.000000000000000 20.000000000000000
0

0101000
+79 0 -35 0 *
Ed
 0.000000100000000 1 1 0
1  19 0 0.000000000000000 6.283185307179586
2  37 3 0 0.000000000000000 6.283185307179586
2  38 12 0 0.000000000000000 6.283185307179586
4 G1 12 0 3 0
0

0101000
+35 0 -35 0 *
Wi

0101100
+34 0 -78 0 -34 0 -33 0 *
Fa
0  0.000000100000000 3 0

0101000
+32 0 *
Ve
0.000000100003109
41.824210667989718 139.985595791536127 0.000000000000000
0 0

0101101
*
Ed
 0.000000100000000 1 1 0
1  20 0 4.712388980384587 5.164076252312061
3  39 40G1 12 0 4.712388980384587 5.164076252312061
0

0101000
+35 0 -30 0 *
Ed
 0.000000100000000 1 1 0
1  21 0 3.141592653590104 9.424777960769690
2  41 12 0 3.141592653590104 9.424777960769690
2  42 13 0 3.141592653590104 9.424777960769690
4 G1 13 0 12 0
0

0101000
+30 0 -30 0 *
Wi

0101100
+29 0 +33 0 -29 0 +28 0 *
Fa
0  0.000000100000000 12 0

0101000
+27 0 *
Ve
0.000000100388048
200.553894935160912 62.979834108158379 0.000000000000000
0 0

0101101
*
Ed
 0.000000100000000 1 1 0
1  22 0 0.000000000000000 176.422787643753765
3  43 44G1 13 0 0.000000000000000 176.422787643753765
0

0101000
+30 0 -25 0 *
Ed
 0.000000100000000 1 1 0
1  23 0 0.000000000000000 6.283185307179586
2  45 13 0 0.000000000000000 6.283185307179586
2  46 14 0 0.000000000000000 6.283185307179586
4 G1 14 0 13 0
0

0101000
+25 0 -25 0 *
Wi

0101100
+24 0 -28 0 -24 0 -23 0 *
Fa
0  0.000000100000000 13 0

0101000
+22 0 *
Ve
0.000000100001029
191.720881734772888 -66.544746574496841 0.000000000000000
0 0

0101101
*
Ed
 0.000000100000000 1 1 0
1  24 0 5.164076252311853 7.538474817698532
3  47 48G1 14 0 5.164076252311853 7.538474817698532
0

0101000
+25 0 -20 0 *
Ed
 0.000000100000000 1 1 0
1  25 0 3.141592653589896 9.424777960769482
2  49 14 0 3.141592653589896 9.424777960769482
2  50 15 0 3.141592653589896 9.424777960769482
4 G1 15 0 14 0
0

0101000
+20 0 -20 0 *
Wi

0101100
+19 0 +23 0 -19 0 +18 0 *
Fa
0  0.000000100000000 14 0

0101000
+17 0 *
Ve
0.000000100331928
35.514915524843701 -117.531961838926392 0.000000000000000
0 0

0101101
*
Ed
 0.000000100000000 1 1 0
1  26 0 0.000000000000000 164.316767251546224
3  51 52G1 15 0 0.000000000000000 164.316767251546224
0

0101000
+20 0 -15 0 *
Ed
 0.000000100000000 1 1 0
1  27 0 0.000000000000000 6.283185307179586
2  53 15 0 0.000000000000000 6.283185307179586
2  54 16 0 0.000000000000000 6.283185307179586
4 G1 16 0 15 0
0

0101000
+15 0 -15 0 *
Wi

0101100
+14 0 -18 0 -14 0 -13 0 *
Fa
0  0.000000100000000 15 0

0101000
+12 0 *
Ve
0.000000100001040
20.000000000000011 -120.000000000000000 0.000000000000000
0 0

0101101
*
Ed
 0.000000100000000 1 1 0
1  28 0 1.255289510518946 1.570796326795000
3  55 56G1 16 0 1.255289510518946 1.570796326795000
0

0101000
+15 0 -10 0 *
Ed
 0.000000100000000 1 1 0
1  29 0 3.141592653589896 9.424777960769482
2  57 16 0 3.141592653589896 9.424777960769482
2  58 11 0 3.141592653589896 9.424777960769482
4 G1 11 0 16 0
0

0101000
+10 0 -10 0 *
Wi

0101100
+9 0 +13 0 -9 0 +8 0 *
Fa
0  0.000000100000000 16 0

0101000
+7 0 *
Ed
 0.000000100000000 1 1 0
1  30 0 0.000000000000000 20.000000000000000
3  59 60G1 11 0 0.000000000000000 20.000000000000000
0

0101000
+10 0 -39 0 *
Wi

0101100
+5 0 -8 0 -5 0 +38 0 *
Fa
0  0.000000100000000 11 0

0101000
+4 0 *
Sh

0101100
+76 0 +71 0 +66 0 +61 0 +56 0 +51 0 +46 0 +41 0 -36 0 -31 0 
-26 0 -21 0 -16 0 -11 0 -6 0 -3 0 *
So

1100000
+2 0 *

+1 1 