<svg width="96" height="22" viewBox="0 0 96 22" fill="none" xmlns="http://www.w3.org/2000/svg">
<path d="M9.54275 3.77338V0.363281C4.65644 0.953659 0.757087 4.74118 0.100586 9.56261H1.53549C5.95035 9.56261 9.54275 6.96612 9.54275 3.77338Z" fill="#1F2328"/>
<path d="M9.54425 11.0018V9.53906C9.37976 9.68299 9.21086 9.82544 9.03168 9.96055C7.01371 11.5026 4.35246 12.3514 1.53552 12.3514H0.0888672C0.757118 17.5723 5.24248 21.6448 10.7368 21.7211H10.7354C13.2806 21.7549 15.6319 20.9237 17.506 19.5079C13.0662 19.2157 9.54278 15.5133 9.54278 11.0018H9.54425Z" fill="#1F2328"/>
<path d="M18.0716 16.7391H20.0808C21.1236 15.1207 21.7389 13.2086 21.7668 11.1526C21.8432 5.66587 17.7221 1.08824 12.335 0.378906V11.0013C12.335 14.1647 14.9096 16.7391 18.0731 16.7391H18.0716Z" fill="#1F2328"/>
<path d="M20.0813 16.7391H18.0721C14.9086 16.7391 12.334 14.1661 12.334 11.0013V0.378906V3.77285C12.334 5.93903 11.347 7.96424 9.54492 9.54005V11.0028C9.54492 15.5143 13.0683 19.2167 17.5081 19.5089C18.5215 18.7423 19.3954 17.8068 20.0827 16.7391H20.0813Z" fill="white"/>
<path d="M44.7518 8.17922C44.0177 7.75411 43.1363 7.54297 42.1089 7.54297C41.0815 7.54297 40.1986 7.75552 39.4589 8.17922C38.7248 8.60007 38.158 9.18956 37.7584 9.94909C37.363 10.7044 37.166 11.5858 37.166 12.5919C37.166 13.5979 37.363 14.4751 37.7584 15.2346C38.158 15.9899 38.7248 16.5808 39.4589 17.0045C40.1972 17.4254 41.0815 17.6351 42.1089 17.6351C43.1363 17.6351 44.0177 17.4254 44.7518 17.0045C45.4901 16.5794 46.057 15.9899 46.4523 15.2346C46.852 14.4751 47.0504 13.5937 47.0504 12.5919C47.0504 11.59 46.8506 10.7044 46.4523 9.94909C46.057 9.18956 45.4901 8.59866 44.7518 8.17922ZM43.6691 13.9862C43.5331 14.3943 43.3361 14.7117 43.0768 14.9413C42.8175 15.1709 42.5014 15.2856 42.1273 15.2856C41.7532 15.2856 41.4145 15.1709 41.1467 14.9413C40.8831 14.7117 40.6819 14.3929 40.5416 13.9862C40.4055 13.5781 40.3375 13.1077 40.3375 12.572C40.3375 12.0364 40.4055 11.5532 40.5416 11.1451C40.6819 10.737 40.8831 10.4195 41.1467 10.19C41.4145 9.96043 41.7405 9.84565 42.1273 9.84565C42.5142 9.84565 42.8175 9.96043 43.0768 10.19C43.3361 10.4195 43.5331 10.7384 43.6691 11.1451C43.8094 11.5532 43.8789 12.0279 43.8789 12.572C43.8789 13.1162 43.8094 13.5781 43.6691 13.9862Z" fill="#1F2328"/>
<path d="M27.7676 17.4486H30.9207V12.207H36.1059V9.64077H30.9207V6.96683H36.6727V4.40625H27.7676V17.4486Z" fill="#1F2328"/>
<path d="M54.0532 7.53516C53.5175 7.53516 53.0485 7.69386 52.646 8.0127C52.2421 8.32728 51.9516 8.80623 51.7731 9.4524H51.671V7.66977H48.6455V17.4516H51.7603V12.1405C51.7603 11.7494 51.8425 11.4107 52.0083 11.1217C52.1784 10.8283 52.4094 10.6016 52.7027 10.4401C53.0003 10.2743 53.3333 10.1921 53.7032 10.1921C53.8902 10.1921 54.1028 10.2063 54.3395 10.236C54.5818 10.2658 54.7773 10.3055 54.9247 10.3565V7.64994C54.7929 7.61168 54.6512 7.58475 54.4982 7.56775C54.3451 7.54649 54.1963 7.53657 54.0518 7.53657L54.0532 7.53516Z" fill="#1F2328"/>
<path d="M83.5114 7.94717C83.014 7.6751 82.4344 7.53906 81.7726 7.53906C81.0343 7.53906 80.4306 7.6921 79.9643 7.99818C79.4967 8.30001 79.1495 8.6982 78.9199 9.19557H78.7924V7.6666H77.3398V17.4484H78.8434V11.5634C78.8434 10.9938 78.9511 10.5106 79.1679 10.111C79.3847 9.71137 79.6795 9.40813 80.0536 9.19983C80.432 8.99152 80.8599 8.88808 81.3403 8.88808C82.0361 8.88808 82.5846 9.10488 82.9842 9.53708C83.3838 9.96644 83.5822 10.5644 83.5822 11.3325V17.447H85.0858V11.2304C85.0858 10.3986 84.9483 9.70996 84.672 9.16723C84.3956 8.61884 84.0102 8.21215 83.5128 7.94433L83.5114 7.94717Z" fill="#1F2328"/>
<path d="M65.7287 7.66684H62.2001L59.4494 11.1697H59.3091V4.40625H56.1943V17.4486H59.3091V14.5125L59.9525 13.7332L62.2397 17.4444L65.8378 17.4784L62.2695 11.9123L65.7287 7.66684Z" fill="#1F2328"/>
<path d="M94.8109 9.14456C94.5558 8.68119 94.2356 8.33543 93.8487 8.10588C93.4661 7.87632 93.0693 7.72611 92.6569 7.65384C92.2488 7.57732 91.8888 7.53906 91.5743 7.53906C91.0811 7.53906 90.5809 7.60708 90.0707 7.74312C89.5648 7.8749 89.0986 8.10871 88.6692 8.44313C88.244 8.77472 87.9053 9.23667 87.6503 9.83182L89.0773 10.342C89.2431 9.98486 89.5294 9.65044 89.9375 9.33586C90.3456 9.02128 90.9082 8.86399 91.6253 8.86399C92.3423 8.86399 92.8326 9.03828 93.1727 9.38687C93.5171 9.73546 93.6886 10.2229 93.6886 10.8521V10.9031C93.6886 11.1454 93.6021 11.3155 93.4278 11.4132C93.2578 11.511 92.9857 11.5804 92.613 11.623C92.2431 11.6612 91.7613 11.7179 91.1675 11.7944C90.7126 11.8539 90.2606 11.9347 89.8114 12.0367C89.365 12.1345 88.9583 12.2833 88.5884 12.4831C88.2185 12.6829 87.9238 12.9592 87.7027 13.3106C87.4816 13.6592 87.3711 14.1127 87.3711 14.6738C87.3711 15.3101 87.5199 15.8542 87.8175 16.3048C88.1151 16.7512 88.5161 17.0927 89.0206 17.3308C89.5265 17.5646 90.0891 17.6808 90.7084 17.6808C91.2767 17.6808 91.7599 17.5957 92.1538 17.4257C92.5492 17.2557 92.8652 17.0502 93.1033 16.8079C93.3414 16.5656 93.5114 16.3388 93.6135 16.1263H93.69V17.4512H95.1936V11.0065C95.1936 10.23 95.066 9.60935 94.8109 9.1474V9.14456ZM93.69 13.9072C93.69 14.3153 93.5837 14.7036 93.3711 15.072C93.1628 15.4419 92.8539 15.7423 92.4415 15.9761C92.0334 16.2099 91.5332 16.3261 90.938 16.3261C90.3428 16.3261 89.844 16.1943 89.4542 15.9307C89.0674 15.6629 88.8747 15.269 88.8747 14.7461C88.8747 14.3635 88.9767 14.0631 89.1807 13.842C89.3891 13.6167 89.6611 13.4495 89.9956 13.339C90.3357 13.2242 90.6999 13.142 91.091 13.091C91.2526 13.0697 91.4623 13.0442 91.7216 13.0145C91.9852 12.9805 92.2545 12.9422 92.5308 12.8997C92.8114 12.8529 93.0566 12.8005 93.2691 12.741C93.4859 12.6772 93.6262 12.6078 93.69 12.5313V13.9072Z" fill="#1F2328"/>
<path d="M73.2511 8.10588C72.8684 7.87632 72.4716 7.72611 72.0593 7.65384C71.6511 7.57732 71.2912 7.53906 70.9766 7.53906C70.4834 7.53906 69.9832 7.60708 69.473 7.74312C68.9671 7.8749 68.5009 8.10871 68.0715 8.44313C67.6464 8.77472 67.3077 9.23667 67.0526 9.83182L68.4796 10.342C68.6454 9.98486 68.9317 9.65044 69.3398 9.33586C69.748 9.02128 70.3106 8.86399 71.0276 8.86399C71.7447 8.86399 72.235 9.03828 72.5751 9.38687C72.9194 9.73546 73.0909 10.2229 73.0909 10.8521V10.9031C73.0909 11.1454 73.0045 11.3155 72.8302 11.4132C72.6601 11.511 72.388 11.5804 72.0153 11.623C71.6455 11.6612 71.1636 11.7179 70.5699 11.7944C70.115 11.8539 69.6629 11.9347 69.2137 12.0367C68.7673 12.1345 68.3606 12.2833 67.9907 12.4831C67.6209 12.6829 67.3261 12.9592 67.105 13.3106C66.884 13.6592 66.7734 14.1127 66.7734 14.6738C66.7734 15.3101 66.9222 15.8542 67.2198 16.3048C67.5174 16.7512 67.9185 17.0927 68.4244 17.3308C68.9303 17.5646 69.4915 17.6808 70.1122 17.6808C70.6818 17.6808 71.1636 17.5957 71.5576 17.4257C71.953 17.2557 72.269 17.0502 72.5071 16.8079C72.7451 16.5656 72.9152 16.3388 73.0172 16.1263H73.0938V17.4512H74.5973V11.0065C74.5973 10.23 74.4698 9.60935 74.2147 9.1474C73.9596 8.68403 73.6393 8.33827 73.2525 8.10871L73.2511 8.10588ZM73.0923 13.9072C73.0923 14.3153 72.9861 14.7036 72.7735 15.072C72.5652 15.4419 72.2548 15.7423 71.8439 15.9761C71.4357 16.2099 70.9355 16.3261 70.3403 16.3261C69.7451 16.3261 69.2463 16.1943 68.8566 15.9307C68.4697 15.6629 68.277 15.269 68.277 14.7461C68.277 14.3635 68.379 14.0631 68.5831 13.842C68.7914 13.6167 69.0635 13.4495 69.3979 13.339C69.738 13.2242 70.1022 13.142 70.4934 13.091C70.6549 13.0697 70.8646 13.0442 71.124 13.0145C71.3876 12.9805 71.6568 12.9422 71.9331 12.8997C72.2137 12.8529 72.4589 12.8005 72.6715 12.741C72.8883 12.6772 73.0286 12.6078 73.0923 12.5313V13.9072Z" fill="#1F2328"/>
</svg>
