solid cube
  facet normal 1.000000e+00 0.000000e+00 0.000000e+00
    outer loop
      vertex  1.000000e+00 0.000000e+00 0.000000e+00
      vertex  1.000000e+00 1.000000e+00 0.000000e+00
      vertex  1.000000e+00 0.000000e+00 1.000000e+00
    endloop
  endfacet
  facet normal 1.000000e+00 0.000000e+00 0.000000e+00
    outer loop
      vertex  1.000000e+00 1.000000e+00 0.000000e+00
      vertex  1.000000e+00 1.000000e+00 1.000000e+00
      vertex  1.000000e+00 0.000000e+00 1.000000e+00
    endloop
  endfacet
  facet normal -1.000000e+00 0.000000e+00 0.000000e+00
    outer loop
      vertex  0.000000e+00 0.000000e+00 0.000000e+00
      vertex  0.000000e+00 0.000000e+00 1.000000e+00
      vertex  0.000000e+00 1.000000e+00 0.000000e+00
    endloop
  endfacet
  facet normal -1.000000e+00 0.000000e+00 0.000000e+00
    outer loop
      vertex  0.000000e+00 0.000000e+00 1.000000e+00
      vertex  0.000000e+00 1.000000e+00 1.000000e+00
      vertex  0.000000e+00 1.000000e+00 0.000000e+00
    endloop
  endfacet
  facet normal 0.000000e+00 1.000000e+00 0.000000e+00
    outer loop
      vertex  0.000000e+00 1.000000e+00 0.000000e+00
      vertex  0.000000e+00 1.000000e+00 1.000000e+00
      vertex  1.000000e+00 1.000000e+00 0.000000e+00
    endloop
  endfacet
  facet normal 0.000000e+00 1.000000e+00 0.000000e+00
    outer loop
      vertex  1.000000e+00 1.000000e+00 0.000000e+00
      vertex  0.000000e+00 1.000000e+00 1.000000e+00
      vertex  1.000000e+00 1.000000e+00 1.000000e+00
    endloop
  endfacet
  facet normal 0.000000e+00 -1.000000e+00 0.000000e+00
    outer loop
      vertex  0.000000e+00 0.000000e+00 0.000000e+00
      vertex  1.000000e+00 0.000000e+00 0.000000e+00
      vertex  0.000000e+00 0.000000e+00 1.000000e+00
    endloop
  endfacet
  facet normal 0.000000e+00 -1.000000e+00 0.000000e+00
    outer loop
      vertex  1.000000e+00 0.000000e+00 0.000000e+00
      vertex  1.000000e+00 0.000000e+00 1.000000e+00
      vertex  0.000000e+00 0.000000e+00 1.000000e+00
    endloop
  endfacet
  facet normal 0.000000e+00 0.000000e+00 1.000000e+00
    outer loop
      vertex  0.000000e+00 0.000000e+00 1.000000e+00
      vertex  1.000000e+00 0.000000e+00 1.000000e+00
      vertex  0.000000e+00 1.000000e+00 1.000000e+00
    endloop
  endfacet
  facet normal 0.000000e+00 0.000000e+00 1.000000e+00
    outer loop
      vertex  1.000000e+00 0.000000e+00 1.000000e+00
      vertex  1.000000e+00 1.000000e+00 1.000000e+00
      vertex  0.000000e+00 1.000000e+00 1.000000e+00
    endloop
  endfacet
  facet normal 0.000000e+00 0.000000e+00 -1.000000e+00
    outer loop
      vertex  0.000000e+00 0.000000e+00 0.000000e+00
      vertex  0.000000e+00 1.000000e+00 0.000000e+00
      vertex  1.000000e+00 0.000000e+00 0.000000e+00
    endloop
  endfacet
  facet normal 0.000000e+00 0.000000e+00 -1.000000e+00
    outer loop
      vertex  0.000000e+00 1.000000e+00 0.000000e+00
      vertex  1.000000e+00 1.000000e+00 0.000000e+00
      vertex  1.000000e+00 0.000000e+00 0.000000e+00
    endloop
  endfacet
endsolid cube
