<svg width="16" height="16" viewBox="0 0 16 16" fill="none" xmlns="http://www.w3.org/2000/svg">
<path fill-rule="evenodd" clip-rule="evenodd" d="M14.0118 4.13792C14.1947 4.13792 14.3702 4.06526 14.4995 3.93593L15.7727 2.66277C15.8765 2.5589 15.8227 2.3812 15.6787 2.35239L13.9861 2.01388L13.6476 0.321314C13.6188 0.17728 13.4411 0.123475 13.3372 0.227339L12.0641 1.5005C11.9347 1.62984 11.8621 1.80525 11.8621 1.98816V3.35767L8.50405 6.71569C8.34792 6.65437 8.17789 6.62069 8 6.62069C7.23823 6.62069 6.62069 7.23823 6.62069 8C6.62069 8.76177 7.23823 9.37931 8 9.37931C8.76177 9.37931 9.37931 8.76177 9.37931 8C9.37931 7.82211 9.34563 7.65208 9.28431 7.49594L12.6423 4.13792H14.0118Z" fill="#1F2328"/>
<path fill-rule="evenodd" clip-rule="evenodd" d="M1.10345 8C1.10345 4.19114 4.19114 1.10345 8 1.10345C8.66082 1.10345 9.29904 1.19623 9.9028 1.36914C10.1957 1.45303 10.5012 1.28357 10.5851 0.99064C10.669 0.697707 10.4995 0.39223 10.2066 0.308338C9.50504 0.107421 8.7646 0 8 0C3.58172 0 0 3.58172 0 8C0 12.4183 3.58172 16 8 16C12.4183 16 16 12.4183 16 8C16 7.2354 15.8926 6.49496 15.6917 5.7934C15.6078 5.50047 15.3023 5.33101 15.0094 5.4149C14.7164 5.49879 14.547 5.80427 14.6309 6.0972C14.8038 6.70096 14.8966 7.33918 14.8966 8C14.8966 11.8089 11.8089 14.8966 8 14.8966C4.19114 14.8966 1.10345 11.8089 1.10345 8Z" fill="#1F2328"/>
<path fill-rule="evenodd" clip-rule="evenodd" d="M4.41379 8C4.41379 6.01939 6.01939 4.41379 8 4.41379C8.13985 4.41379 8.27761 4.42177 8.4129 4.43725C8.71564 4.4719 8.98914 4.25457 9.02378 3.95184C9.05843 3.64911 8.8411 3.37561 8.53837 3.34096C8.36151 3.32072 8.18186 3.31034 8 3.31034C5.40998 3.31034 3.31034 5.40998 3.31034 8C3.31034 10.59 5.40998 12.6897 8 12.6897C10.59 12.6897 12.6897 10.59 12.6897 8C12.6897 7.81561 12.679 7.63348 12.6582 7.45424C12.6231 7.15157 12.3492 6.93467 12.0465 6.9698C11.7439 7.00492 11.527 7.27877 11.5621 7.58144C11.578 7.71855 11.5862 7.8582 11.5862 8C11.5862 9.98061 9.98061 11.5862 8 11.5862C6.01939 11.5862 4.41379 9.98061 4.41379 8Z" fill="#1F2328"/>
</svg>
