<?xml version="1.0" encoding="UTF-8"?>
<svg xmlns="http://www.w3.org/2000/svg" viewBox="0 0 2516.000000 543.000000">
<g transform="translate(0.000000,543.000000) scale(0.100000,-0.100000)" fill="#000000" stroke="none">
<path d="M7600 4219 l0 -800 -62 72 c-114 132 -302 257 -483 322 -134 47 -226 61 -410 61 -245 0 -390 -33 -600 -133 -288 -138 -549 -431 -674 -758 l-21 -53 330 -334 c274 -277 330 -338 330 -361 0 -24 -57 -85 -341 -371 l-342 -343 28 -78 c173 -492 574 -839 1060 -919 122 -19 361 -15 475 10 242 53 448 165 622 338 l88 87 0 -184 0 -185 505 0 505 0 0 2215 0 2215 -505 0 -505 0 0 -801z m-432 -1269 c145 -35 274 -104 380 -203 l52 -50 0 -498 0 -498 -51 -50 c-68 -67 -142 -115 -247 -161 -115 -49 -210 -70 -326 -70 -126 0 -182 13 -296 67 -206 99 -351 308 -391 564 -16 105 -6 305 21 399 28 98 88 211 154 292 83 100 174 160 311 204 96 31 274 33 393 4z"/>
<path d="M12890 2805 l0 -2215 175 0 175 0 0 251 0 251 42 -54 c209 -266 544 -465 867 -513 442 -67 875 72 1171 375 150 153 290 387 360 599 136 415 134 1002 -6 1402 -175 504 -544 846 -1024 950 -147 32 -416 32 -567 0 -314 -66 -581 -233 -784 -491 l-64 -82 -3 871 -2 871 -170 0 -170 0 0 -2215z m1550 754 c122 -15 193 -35 296 -84 178 -83 312 -198 419 -360 147 -220 222 -457 247 -775 25 -326 -32 -659 -154 -905 -153 -307 -373 -495 -676 -577 -96 -26 -330 -35 -456 -19 -259 35 -537 173 -726 361 -48 47 -103 110 -123 140 l-37 55 0 791 0 791 49 69 c94 134 258 272 441 372 226 123 475 172 720 141z"/>
<path d="M1675 3874 c-292 -30 -497 -87 -702 -194 -434 -226 -728 -614 -829 -1094 -35 -164 -44 -482 -20 -657 50 -357 186 -643 420 -887 213 -221 434 -358 730 -452 282 -89 676 -105 984 -40 198 42 416 131 576 238 71 47 264 230 304 288 l22 32 -328 309 -327 308 -95 -95 c-75 -76 -111 -104 -171 -133 -112 -55 -211 -77 -344 -77 -359 0 -637 213 -726 556 -26 101 -29 325 -6 425 62 261 230 451 476 537 68 23 94 27 236 30 145 3 168 1 241 -21 123 -35 223 -98 312 -193 l76 -81 327 305 c268 249 326 308 319 322 -18 33 -151 173 -218 229 -137 115 -302 202 -501 265 -193 61 -301 78 -521 81 -107 2 -213 1 -235 -1z"/>
<path d="M10427 3869 c-334 -32 -684 -182 -911 -390 -226 -208 -386 -446 -480 -718 -70 -200 -80 -275 -80 -556 0 -267 8 -343 59 -526 101 -358 321 -657 645 -874 318 -214 703 -308 1156 -285 212 11 374 37 572 92 263 72 428 153 621 307 l25 19 -223 335 -223 335 -81 -55 c-103 -71 -194 -113 -327 -153 -152 -45 -255 -60 -405 -60 -164 0 -279 26 -423 96 -80 40 -111 62 -177 128 -82 82 -146 187 -161 264 l-6 32 1136 0 1136 0 0 210 c0 313 -30 523 -106 742 -86 245 -211 444 -396 624 -259 254 -565 396 -937 433 -118 12 -285 12 -414 0z m527 -843 c205 -57 361 -211 410 -406 l13 -55 -650 -3 c-358 -1 -652 0 -655 3 -10 10 30 131 63 190 87 156 224 251 413 285 74 14 338 4 406 -14z"/>
<path d="M17330 3870 c-254 -31 -500 -123 -715 -266 -82 -55 -219 -168 -277 -230 l-27 -29 85 -110 c47 -61 89 -114 93 -118 5 -5 48 32 97 80 160 159 371 280 594 338 90 24 131 28 282 32 237 7 340 -12 504 -94 156 -77 264 -181 330 -318 64 -135 67 -151 71 -572 3 -211 2 -383 -2 -383 -4 0 -42 33 -84 73 -182 173 -433 299 -680 343 -131 23 -351 34 -460 23 -376 -38 -729 -264 -879 -564 -39 -78 -77 -200 -92 -296 -19 -116 -8 -383 19 -482 87 -326 330 -583 671 -710 154 -57 232 -70 425 -70 405 -1 727 120 999 375 l86 80 0 -191 0 -191 170 0 170 0 0 1183 c0 978 -3 1198 -15 1277 -42 282 -163 478 -382 622 -210 139 -420 197 -733 203 -96 2 -209 0 -250 -5z m260 -1510 c299 -37 562 -171 731 -373 l49 -59 0 -355 0 -355 -102 -102 c-210 -209 -446 -308 -774 -325 -240 -13 -375 9 -528 85 -101 51 -153 89 -237 175 -87 88 -156 214 -185 334 -24 99 -24 300 -1 385 82 307 349 537 687 593 52 9 279 7 360 -3z"/>
<path d="M23345 3873 c-382 -35 -739 -228 -988 -535 -327 -405 -450 -883 -372 -1447 53 -374 201 -679 454 -932 120 -119 234 -204 370 -273 133 -67 216 -97 361 -129 508 -113 1004 -18 1402 266 102 73 240 195 236 209 -8 22 -164 217 -175 217 -6 1 -18 -7 -25 -17 -26 -36 -144 -136 -223 -187 -161 -106 -342 -178 -529 -212 -131 -24 -422 -24 -536 1 -228 48 -414 145 -577 299 -211 201 -358 497 -398 804 -8 63 -15 123 -15 134 0 19 18 19 1340 19 l1340 0 0 118 c0 416 -124 816 -346 1114 -77 103 -237 258 -331 321 -144 96 -315 167 -483 201 -144 29 -367 42 -505 29z m351 -304 c171 -24 345 -93 476 -191 186 -138 348 -378 428 -637 31 -99 60 -263 60 -338 l0 -43 -1166 0 -1166 0 7 63 c49 452 288 841 636 1036 78 43 206 89 297 105 94 17 323 20 428 5z"/>
<path d="M20115 3855 c-194 -30 -394 -107 -515 -197 -256 -193 -369 -419 -358 -717 4 -96 10 -131 35 -202 55 -159 160 -283 336 -396 145 -94 259 -133 737 -252 377 -94 468 -125 626 -211 196 -108 283 -240 284 -430 0 -299 -229 -540 -585 -615 -121 -26 -377 -31 -495 -11 -134 23 -248 60 -375 120 -138 66 -235 134 -348 245 l-88 86 -22 -26 c-12 -15 -59 -72 -104 -127 l-83 -100 99 -95 c214 -205 463 -330 779 -389 100 -19 153 -22 357 -22 258 0 331 8 505 61 429 129 690 463 690 885 0 227 -81 422 -238 570 -202 190 -337 247 -962 404 -284 71 -388 107 -544 188 -184 95 -256 190 -264 350 -8 159 38 279 153 392 84 83 207 150 340 185 110 30 395 38 540 15 275 -42 476 -142 639 -318 66 -71 78 -80 91 -67 7 8 52 61 100 119 l86 105 -73 69 c-228 215 -475 333 -799 380 -128 19 -427 20 -544 1z"/>
<path d="M3736 3569 c-48 -50 -353 -363 -679 -695 -511 -523 -592 -609 -592 -635 0 -25 91 -122 683 -724 l683 -695 115 120 c63 65 124 130 135 144 11 14 26 26 32 26 7 0 77 -66 158 -146 l146 -146 689 696 c514 519 690 702 692 722 3 23 -27 58 -220 253 -123 124 -434 439 -691 700 l-466 474 -155 -147 -154 -146 -138 145 c-75 80 -141 145 -145 145 -3 0 -46 -41 -93 -91z m728 -1008 l315 -324 -316 -324 c-174 -178 -320 -322 -324 -321 -4 2 -156 147 -337 323 l-331 320 327 328 c180 180 332 326 339 325 7 -2 154 -149 327 -327z" fill="#e22c2c"/>
</g>
</svg>