<svg xmlns="http://www.w3.org/2000/svg" viewBox="0 0 16 16">
  <path fill-rule="evenodd" d="M8.75 1.75a.75.75 0 00-1.5 0v.5a.75.75 0 001.5 0v-.5zM8 4a.75.75 0 01.75.75v.5a.75.75 0 01-1.5 0v-.5A.75.75 0 018 4zm.75 3.75a.75.75 0 00-1.5 0v.5a.75.75 0 001.5 0v-.5zM8 10a.75.75 0 01.75.75v.5a.75.75 0 01-1.5 0v-.5A.75.75 0 018 10zm0 3a.75.75 0 01.75.75v.5a.75.75 0 01-1.5 0v-.5A.75.75 0 018 13zm7.55-9.94a.75.75 0 01.45.69v8.5a.75.75 0 01-1.26.55l-4.5-4.26a.75.75 0 010-1.08l4.5-4.25a.75.75 0 01.8-.15zM11.85 8l2.65 2.51V5.49L11.84 8zM0 12.25a.75.75 0 001.26.55l4.5-4.26a.75.75 0 000-1.08L1.26 3.2A.75.75 0 000 3.75v8.5zm1.5-6.76L4.16 8 1.5 10.51V5.49z"/>
</svg>