<?xml version="1.0" encoding="UTF-8" standalone="no"?>
<svg
   xmlns:dc="http://purl.org/dc/elements/1.1/"
   xmlns:cc="http://creativecommons.org/ns#"
   xmlns:rdf="http://www.w3.org/1999/02/22-rdf-syntax-ns#"
   xmlns:svg="http://www.w3.org/2000/svg"
   xmlns="http://www.w3.org/2000/svg"
   id="svg22"
   version="1.1"
   height="32"
   width="32"
   viewBox="0 0 135.467 135.467">
  <metadata
     id="metadata28">
    <rdf:RDF>
      <cc:Work
         rdf:about="">
        <dc:format>image/svg+xml</dc:format>
        <dc:type
           rdf:resource="http://purl.org/dc/dcmitype/StillImage" />
        <dc:title></dc:title>
      </cc:Work>
    </rdf:RDF>
  </metadata>
  <defs
     id="defs26" />
  <g
     style="display:inline;opacity:1"
     id="layer2">
    <path
       transform="scale(4.2333438)"
       d="m 6.5449219,7.9414062 c -2.2551913,-0.00661 -5.2766187,1.605707 -5.109375,5.6464848 0.2612592,6.313685 6.0128993,6.900384 8.3125,6.951171 0.2522831,1.184171 2.9577931,5.267226 4.9609371,5.482422 h 8.777344 C 28.748835,25.62747 32.68891,8.1271609 29.767578,8.0605469 24.874597,8.319619 22.093919,8.4281571 19.617188,8.4472656 v 5.4824224 l -0.765626,-0.38086 -0.0059,-5.0859374 C 16.038015,8.4608828 13.533758,8.3205093 8.8398438,8.0605469 8.2504751,8.0541689 7.4274394,7.9437684 6.5449219,7.9414062 Z m 0.5898437,2.2343748 c 0.3193693,3.234795 0.8402819,5.126247 1.8945313,8.017578 C 6.3406421,17.837848 4.051567,16.959601 3.6308594,13.679688 3.4062143,11.929062 4.1954815,10.096884 7.1347656,10.175781 Z m 10.2363284,3.181641 c 0.168034,0.009 0.336701,0.05051 0.498047,0.128906 l 0.916015,0.445313 -0.65625,1.34375 a 0.82086414,0.82086414 0 0 0 -0.294922,0.04687 0.82086414,0.82086414 0 0 0 -0.49414,1.050781 0.82086414,0.82086414 0 0 0 0.134765,0.240234 l -1.130859,2.314453 a 0.82086413,0.82086413 0 0 0 -0.271484,0.04883 0.82086413,0.82086413 0 0 0 -0.494141,1.050782 0.82086413,0.82086413 0 0 0 1.048828,0.49414 0.82086413,0.82086413 0 0 0 0.496094,-1.050781 0.82086413,0.82086413 0 0 0 -0.193359,-0.300781 l 1.101562,-2.257813 a 0.82086414,0.82086414 0 0 0 0.357422,-0.04492 0.82086414,0.82086414 0 0 0 0.292969,-0.183594 c 1.071888,0.517836 1.346617,0.676855 1.490234,0.867187 0.0269,0.03565 0.05859,0.09835 0.07031,0.138672 0.03618,0.124484 0.0099,0.356877 -0.06641,0.580078 -0.09061,0.265148 -0.53739,1.237437 -0.886719,1.960938 a 0.82086416,0.82086416 0 0 0 -0.320312,0.04687 0.82086416,0.82086416 0 0 0 -0.494141,1.050781 0.82086416,0.82086416 0 0 0 1.050782,0.494141 0.82086416,0.82086416 0 0 0 0.49414,-1.050782 0.82086416,0.82086416 0 0 0 -0.169922,-0.277343 c 0.654882,-1.389699 0.893146,-1.936058 0.978516,-2.302735 0.03091,-0.13266 0.0364,-0.183665 0.03711,-0.363281 7.3e-4,-0.183149 -0.0026,-0.220791 -0.0293,-0.306641 -0.08261,-0.266038 -0.275066,-0.505325 -0.570313,-0.710937 -0.222607,-0.155025 -0.500613,-0.298042 -1.302734,-0.675781 -0.01044,-0.0049 -0.02056,-0.01062 -0.03125,-0.01563 a 0.82086414,0.82086414 0 0 0 -0.04687,-0.300782 0.82086414,0.82086414 0 0 0 -0.177735,-0.287109 l 0.644531,-1.324219 3.574219,1.736328 c 0.645387,0.313592 0.911247,1.085085 0.597657,1.730469 l -2.455079,5.056641 c -0.31359,0.645386 -1.087036,0.911247 -1.732421,0.597656 L 14.28125,20.873047 c -0.645389,-0.313591 -0.9132,-1.087038 -0.599609,-1.732422 l 2.457031,-5.054687 c 0.235193,-0.484041 0.728318,-0.755436 1.232422,-0.728516 z"
       style="fill:#609926;fill-opacity:1;stroke:#428f29;stroke-width:0.23622;stroke-opacity:1;paint-order:markers fill stroke"
       id="path2" />
  </g>
</svg>
