<?xml version="1.0" encoding="UTF-8"?>
<svg width="920" height="537.4" viewBox="0 0 640 409" xmlns="http://www.w3.org/2000/svg">
<g transform="matrix(1.111 0 0 1.111 -37.67 -15.95)">
<path d="m242.1 26.14c12.57-1.932 25.26-3.344 37.97-4.014 2.258-0.538 4.594-0.4281 6.901-0.5105 18.04-0.5753 36.1-0.5493 54.13 0.2629 32.54 2.301 64.92 7.707 96.31 16.72l-0.1329 0.1763c-4.602 6.224-9.218 12.44-13.73 18.73-1.352 0.2495-2.536-0.6058-3.74-1.036-23.82-9.827-49.17-15.53-74.68-18.62-41.97-4.298-84.94-0.8447-125.2 12.07-29.64 9.588-58.27 24.37-80.38 46.67-15.67 16.02-27.69 36.74-29.33 59.45-1.519 10.82 1.072 21.62 3.364 32.13l-99.42 17.53c-0.2403-17.54 4.337-34.9 11.62-50.77 14.49-30.9 39.62-55.59 67.61-74.49 18.93-12.71 39.39-23.08 60.65-31.3 28.32-11.07 57.98-18.63 88.06-22.99z" fill="#040404"/>
<path d="m423.6 57.5c4.513-6.288 9.128-12.5 13.73-18.73 42.15 12.34 82.85 31.84 116.1 60.88 13.59 12.17 25.89 25.94 35.33 41.61 11.18 18.44 18.27 39.56 19.03 61.19-33.06-5.778-66.1-11.6-99.16-17.4 4.068-12.94 4.103-27.02 1.317-40.23-5.163-22.82-19.79-42.41-37.44-57.28-14.71-12.38-31.49-22.3-49.27-29.56z" fill="#d72123"/>
<path d="m301.7 148.6c1.946-3.169 5.372-5.696 9.269-5.227 4.405 0.1127 7.799 3.752 8.711 7.872l310.8 55.28-1.038 5.206-310.7-54.48c-2.478 4.312-8.228 6.539-12.74 3.993-3.131-1.369-4.2-4.72-5.613-7.531l-19.13-3.065 0.8769-5.381z"/>
<path d="m156.1 299.5 0.1743-77.35 32.9 0.0614c34.68 0.0648 42.48 0.5632 57.86 3.698 37.71 7.684 62.74 25.76 67.65 48.85 4.979 23.41-13.56 44.79-51.04 58.88-13.48 5.067-31.77 9.041-46.31 10.07l-6.231 0.4388-0.373 24.86-2.212 0.3956c-1.217 0.2176-12.54 1.804-25.17 3.526s-23.96 3.307-25.19 3.524l-2.23 0.3938zm60.01 29.84c1.769-0.4157 6.3-2.234 10.07-4.041 14.18-6.795 24.53-16.45 30.1-28.09 4.309-8.991 4.629-17.43 1.027-27.06-4.125-11.03-15.91-23.02-29.19-29.72-4.374-2.206-13.08-4.908-15.8-4.908h-1.556v47.29c0 42.35 0.1115 47.29 1.067 47.29 0.5869 0 2.514-0.3402 4.283-0.7559zm-202-46.87v-60.65h54.83v1.456c0 1.28 0.2694 1.401 2.227 0.9981 12.87-2.647 32.27-3.843 40.59-2.5 2.889 0.466 7.351 1.561 9.916 2.433 5.431 1.847 15.09 6.023 15.08 6.522-3e-3 0.1885-2.541 1.86-5.641 3.714s-9.715 5.957-14.7 9.117l-9.064 5.745-2.566-1.744c-5.163-3.508-10.69-4.839-20.08-4.839-4.957 0-10.08 0.3898-12.16 0.925l-3.598 0.925v98.55h-54.83zm337.2-0.0456v-60.7l107.4 0.2996c109 0.304 112.3 0.3808 126.2 2.928 10.41 1.908 16.53 4.219 19.79 7.479l2.913 2.911v107.8h-54.83v-106.1l-2.913-1.252c-2.549-1.096-5.417-1.283-22.96-1.499l-20.05-0.2471v109.1h-54.82l-0.3511-106.4-2.741-1.055c-2.177-0.838-6.871-1.11-22.79-1.323l-20.05-0.2672v109.1h-54.83z" fill="#040404" stroke-width=".6853"/>
</g>
</svg>