<?xml version="1.0" encoding="UTF-8"?>
<svg version="1.1" viewBox="0 0 186 162" xml:space="preserve" xmlns="http://www.w3.org/2000/svg"><g transform="matrix(1.25 0 0 -1.25 -268 592)" fill="#0d597f"><g transform="translate(268 393)"><path d="m0 0v15.7l-11.3-11.3c1.22-0.847 2.36-1.54 3.44-2.11 1.08-0.567 2.09-1 3.03-1.34 0.941-0.334 1.81-0.562 2.62-0.71 0.804-0.147 1.54-0.213 2.21-0.222m57.8 1.3c0.02-0.017 0.13-0.11 0.333-0.239 0.204-0.13 0.502-0.297 0.898-0.462 0.395-0.164 0.889-0.327 1.48-0.448 0.596-0.122 1.29-0.202 2.1-0.202 0.671 0 1.41 0.059 2.22 0.2 0.812 0.142 1.69 0.367 2.64 0.699 0.953 0.333 1.98 0.773 3.07 1.34 1.09 0.572 2.26 1.28 3.5 2.14l-8.57 8.4-28.4 28.5-12.5-12.5-16.8 17.3-42.2-41.7c1.24-0.86 2.4-1.56 3.49-2.14 1.09-0.571 2.12-1.01 3.07-1.34 0.951-0.332 1.83-0.557 2.64-0.698 0.81-0.142 1.55-0.201 2.22-0.201 0.804 0 1.5 0.08 2.1 0.202 0.596 0.121 1.09 0.284 1.48 0.449 0.396 0.164 0.693 0.331 0.897 0.461s0.314 0.223 0.334 0.24l19.1 19.1 6.81 6.53 18.9-18.9 6.59-6.78c0.02-0.017 0.13-0.11 0.334-0.239 0.204-0.13 0.501-0.297 0.897-0.462 0.396-0.164 0.89-0.327 1.48-0.448 0.596-0.122 1.3-0.202 2.1-0.202 0.67 0 1.41 0.059 2.22 0.2 0.811 0.142 1.69 0.367 2.64 0.699 0.952 0.333 1.98 0.773 3.07 1.34 1.09 0.572 2.26 1.28 3.5 2.14l-15.1 14.8 2.82 2.82 13.1-13.1 7.64-7.57m-0.163 79 37.2-64.5-37.2-64.5h-74.5l-37.2 64.5 37.2 64.5z" fill="#0d597f"/></g><g transform="translate(303 412)"><path d="m0 0-9.91 9.9 0.705 0.709 9.98-9.87z" fill="#0d597f"/></g></g></svg>