<?xml version="1.0" standalone="no"?>
<!DOCTYPE svg PUBLIC "-//W3C//DTD SVG 20010904//EN"
 "http://www.w3.org/TR/2001/REC-SVG-20010904/DTD/svg10.dtd">
<svg version="1.0" xmlns="http://www.w3.org/2000/svg"
 width="700.000000pt" height="700.000000pt" viewBox="0 0 700.000000 700.000000"
 preserveAspectRatio="xMidYMid meet">

<g transform="translate(0.000000,700.000000) scale(0.100000,-0.100000)"
fill="#000000" stroke="none">
<path d="M3155 6004 c-295 -40 -558 -120 -812 -248 l-113 -56 -52 40 c-149
113 -376 149 -558 90 -191 -63 -351 -222 -411 -410 -27 -83 -36 -229 -19 -312
15 -80 50 -165 91 -225 31 -47 31 -48 14 -78 -235 -405 -344 -749 -375 -1182
-11 -157 -1 -402 21 -530 l11 -65 -49 -44 c-28 -23 -75 -76 -106 -116 -194
-255 -247 -579 -144 -883 92 -269 312 -488 584 -581 206 -69 406 -70 611 -1
l67 22 105 -71 c456 -310 920 -455 1460 -455 330 0 616 52 910 164 676 258
1229 811 1484 1484 l27 72 77 38 c91 45 211 157 259 243 211 375 -10 843 -432
917 -199 35 -393 -27 -539 -172 -71 -71 -117 -145 -153 -247 -34 -94 -38 -258
-9 -353 28 -95 85 -193 153 -264 72 -76 72 -60 0 -205 -89 -181 -203 -341
-352 -495 -346 -357 -782 -563 -1283 -603 -428 -34 -893 89 -1250 330 -11 8
-10 17 8 52 121 236 135 537 39 780 -87 218 -275 416 -486 512 -90 41 -227 74
-340 83 l-91 7 -8 96 c-35 469 135 998 455 1417 65 86 243 267 336 342 438
356 1013 528 1581 472 399 -39 790 -191 1106 -430 169 -128 375 -349 486 -520
l43 -67 -33 -52 c-29 -47 -33 -63 -36 -134 -3 -73 -1 -86 25 -136 32 -61 102
-120 163 -139 228 -68 430 169 326 382 -31 64 -93 122 -147 138 -25 8 -41 21
-52 43 -9 17 -32 58 -51 92 l-35 60 36 50 c177 244 158 575 -44 794 -80 86
-155 136 -259 172 -198 68 -389 42 -565 -78 l-78 -53 -153 74 c-279 134 -550
213 -840 244 -133 15 -481 12 -603 -5z"/>
<path d="M2718 4289 c-139 -21 -305 -173 -405 -374 -183 -364 -134 -815 98
-915 152 -65 345 27 486 232 55 80 97 157 90 165 -3 2 -20 -3 -38 -12 -24 -13
-51 -16 -105 -13 -61 3 -79 8 -116 34 -89 62 -124 191 -79 290 24 52 90 108
147 124 91 26 200 -14 252 -92 l27 -42 3 124 c4 189 -34 316 -124 405 -63 63
-142 88 -236 74z"/>
<path d="M4205 4290 c-116 -19 -202 -113 -249 -270 -21 -69 -31 -200 -22 -274
l8 -57 21 32 c102 150 316 140 399 -20 60 -115 15 -251 -104 -312 -50 -25
-150 -26 -200 -1 l-36 19 14 -33 c61 -145 200 -301 323 -361 57 -28 144 -40
204 -29 52 10 121 61 161 119 181 264 81 790 -200 1058 -108 102 -216 146
-319 129z"/>
<path d="M3225 2681 c-161 -16 -235 -61 -235 -143 0 -114 130 -211 340 -254
102 -20 312 -15 405 10 135 37 238 103 276 177 49 97 -2 171 -138 200 -61 12
-542 20 -648 10z"/>
</g>
</svg>