<svg xmlns="http://www.w3.org/2000/svg" width="64" height="64"><path d="M49.07 0c.524.405.262.88.095 1.333l-6.643 18.095-8.047 22.12a4.21 4.21 0 0 0-.262 1.429v19.81c0 1.2-.024 1.2-1.214 1.2-1.238 0-2.476-.048-3.714.024-.786.024-1.07-.238-1.048-1.024l.024-7.333V42.928c0-.5-.07-1.048-.262-1.524L14.976 7.333c-.095-.262-.238-.476-.357-.714v-.5c.38-.12.762-.3 1.143-.3l4.12-.024s1.357 0 1.81 1.286l9.7 27.31.405.976.333-1.095 1.905-6.976 8.5-26.31c.12-.333.405-.62.62-.93L49.07 0z" fill="#e52620"/></svg>