<?xml version="1.0" encoding="UTF-8" standalone="no"?>
<svg
   xmlns:dc="http://purl.org/dc/elements/1.1/"
   xmlns:cc="http://creativecommons.org/ns#"
   xmlns:rdf="http://www.w3.org/1999/02/22-rdf-syntax-ns#"
   xmlns:svg="http://www.w3.org/2000/svg"
   xmlns="http://www.w3.org/2000/svg"
   xmlns:sodipodi="http://sodipodi.sourceforge.net/DTD/sodipodi-0.dtd"
   xmlns:inkscape="http://www.inkscape.org/namespaces/inkscape"
   width="67.73333mm"
   height="67.73333mm"
   viewBox="0 0 67.73333 67.73333"
   version="1.1"
   id="svg8"
   inkscape:version="1.0.2 (e86c870879, 2021-01-15)"
   sodipodi:docname="gitea-gogs.svg">
  <defs
     id="defs2" />
  <sodipodi:namedview
     id="base"
     pagecolor="#ffffff"
     bordercolor="#666666"
     borderopacity="1.0"
     inkscape:pageopacity="0.0"
     inkscape:pageshadow="2"
     inkscape:zoom="2.4352161"
     inkscape:cx="145.15203"
     inkscape:cy="129.56614"
     inkscape:document-units="mm"
     inkscape:current-layer="layer3"
     inkscape:document-rotation="0"
     showgrid="false"
     inkscape:window-width="1920"
     inkscape:window-height="1006"
     inkscape:window-x="1200"
     inkscape:window-y="444"
     inkscape:window-maximized="1" />
  <metadata
     id="metadata5">
    <rdf:RDF>
      <cc:Work
         rdf:about="">
        <dc:format>image/svg+xml</dc:format>
        <dc:type
           rdf:resource="http://purl.org/dc/dcmitype/StillImage" />
        <dc:title></dc:title>
      </cc:Work>
    </rdf:RDF>
  </metadata>
  <g
     inkscape:groupmode="layer"
     id="layer3"
     inkscape:label="Layer 3"
     style="display:inline">
    <path
       style="display:inline;fill:#d75547;fill-opacity:1;fill-rule:evenodd;stroke:#428f29;stroke-width:0.0190672;paint-order:markers fill stroke"
       d="M 28.763808,62.186078 C 28.552224,62.156588 28.3282,62.079645 28.265977,62.01509 28.123377,61.867145 27.941284,61.235718 27.375971,58.928893 27.128273,57.918138 26.870167,56.952588 26.8024,56.783223 26.653428,56.410912 26.321729,56.197407 24.664484,55.407125 22.815394,54.525354 20.800132,53.303558 19.034519,51.99383 l -0.753641,-0.55905 -2.322335,0.678345 c -1.277286,0.37309 -2.657942,0.75099 -3.068125,0.839774 l -0.745787,0.161424 -0.351437,-0.536616 C 10.841488,51.124528 8.2297585,46.620395 7.1670955,44.599636 L 6.6102577,43.540752 7.0934858,42.948695 c 0.2657754,-0.325634 1.2926661,-1.41771 2.2819797,-2.426837 l 1.7987515,-1.834779 -0.180416,-1.038637 c -0.160803,-0.925735 -0.180684,-1.319661 -0.182886,-3.623976 -0.002,-2.082515 0.02593,-2.77882 0.143552,-3.580102 L 11.100491,29.449609 9.0366642,27.414662 C 7.5050421,25.904473 6.9326263,25.287565 6.8169034,25.02237 6.6626002,24.668764 6.6626297,24.660735 6.8197249,24.254845 7.2963868,23.023252 11.239804,16.273894 12.005659,15.378857 l 0.257067,-0.300427 0.484759,0.125942 c 0.266618,0.06927 1.585016,0.43706 2.929773,0.817315 l 2.445013,0.691373 0.429771,-0.260466 c 0.236371,-0.143253 0.844892,-0.564341 1.352266,-0.935741 1.30433,-0.954784 2.690014,-1.762213 4.707543,-2.74306 1.87475,-0.911433 1.838916,-0.883043 2.124645,-1.683256 0.06563,-0.1838 0.336217,-1.1703787 0.601305,-2.1923981 0.26509,-1.0220196 0.573575,-2.1360624 0.685518,-2.4756513 0.17614,-0.5343091 0.23295,-0.623873 0.421984,-0.6652627 0.483669,-0.1058996 3.97054,-0.1502609 7.292057,-0.092772 l 3.518704,0.060902 0.430989,1.7479767 c 0.510047,2.0686117 0.909017,3.4804444 1.127722,3.9906574 0.174557,0.407221 0.0081,0.308631 2.593742,1.53554 1.3556,0.643225 2.654323,1.424602 4.307061,2.591347 0.702523,0.495943 1.33877,0.943783 1.413882,0.995202 0.109699,0.0751 0.502152,-0.01615 1.994813,-0.463793 1.022033,-0.306501 2.381778,-0.689488 3.021651,-0.85108 l 1.163411,-0.293805 0.145052,0.19205 c 0.93221,1.234241 5.324678,8.900157 5.324678,9.292846 0,0.333447 -0.488016,0.914807 -2.540796,3.02678 l -1.893181,1.947777 0.15824,0.960735 c 0.227755,1.382822 0.274355,3.126299 0.15827,5.921847 l -0.101763,2.450639 1.510118,1.495377 c 1.549811,1.534681 2.47101,2.550338 2.683271,2.958414 0.115947,0.22291 0.103768,0.264805 -0.328833,1.13109 -1.289906,2.583039 -4.510781,8.106197 -4.924647,8.444791 -0.229142,0.187467 -0.906252,0.05936 -3.361841,-0.636096 -1.264388,-0.358089 -2.427812,-0.66997 -2.585382,-0.693076 -0.254259,-0.03729 -0.377393,0.02128 -1.094426,0.520539 -2.75021,1.914888 -3.396183,2.301016 -5.615132,3.356412 -0.864328,0.4111 -1.586938,0.808234 -1.713456,0.94169 -0.279925,0.295269 -0.499881,1.010417 -1.141053,3.709893 l -0.508517,2.140988 -1.893589,0.04981 c -2.516342,0.0662 -8.338233,0.06367 -8.822539,-0.0038 z m 7.858077,-12.120535 c 2.091378,-0.388455 5.175143,-1.723813 6.867427,-2.973786 1.796481,-1.326945 4.757949,-4.883235 4.97652,-5.976082 0.04707,-0.23538 0.0195,-0.268126 -0.544626,-0.646577 -0.89966,-0.603557 -2.187787,-1.377201 -5.078243,-3.049968 -4.184205,-2.421491 -4.52345,-2.676285 -4.524118,-3.397889 -0.0011,-1.340016 -1.219035,-3.278179 -2.4241,-3.858035 -1.790528,-0.861573 -3.841611,-0.52172 -5.213619,0.863866 -0.315085,0.318202 -0.680808,0.789483 -0.82133,1.058382 -1.355657,2.59418 0.09164,5.558218 3.005202,6.154597 0.886416,0.181439 1.72976,0.07365 2.913276,-0.372328 l 0.879991,-0.331607 2.02184,1.158352 c 2.672299,1.531012 3.61875,2.12207 4.1007,2.560884 0.340094,0.309652 0.391458,0.394601 0.346398,0.57285 -0.0768,0.303803 -0.673843,1.002125 -1.394132,1.630629 -1.608465,1.403495 -3.352982,2.265892 -5.547142,2.742214 -1.178042,0.255735 -3.523379,0.256058 -4.699639,6.79e-4 -1.211182,-0.262989 -1.987409,-0.533958 -3.06492,-1.06991 -3.757271,-1.868855 -6.310115,-5.470633 -6.829909,-9.636234 -0.156607,-1.255046 -0.06748,-3.197221 0.200967,-4.379595 1.024517,-4.512371 4.409288,-7.971423 8.971948,-9.168835 1.368354,-0.359109 1.98948,-0.43042 3.32699,-0.381966 1.261093,0.04568 1.953923,0.167871 3.540434,0.624377 0.565292,0.162659 1.094549,0.260446 1.454278,0.268701 0.495297,0.01136 0.620752,-0.01798 1.009916,-0.236201 1.079693,-0.605431 1.3594,-1.855128 0.602683,-2.692712 -1.317562,-1.458359 -6.682213,-2.214558 -10.373764,-1.462279 -2.483279,0.506053 -5.053495,1.805105 -6.993517,3.534699 -2.575021,2.295712 -4.259712,4.711906 -5.127071,7.353271 -0.924677,2.815913 -1.025226,6.141317 -0.275431,9.109059 0.774038,3.063694 2.549965,5.963534 4.958139,8.095943 2.441521,2.161939 5.76675,3.672334 8.927653,4.055148 1.089179,0.13191 3.734827,0.04956 4.807199,-0.149613 z"
       id="path851" />
  </g>
</svg>
