<?xml version="1.0" encoding="UTF-8"?>
<!DOCTYPE svg PUBLIC "-//W3C//DTD SVG 1.1//EN" "http://www.w3.org/Graphics/SVG/1.1/DTD/svg11.dtd">
<svg xmlns="http://www.w3.org/2000/svg" version="1.1" width="64px" height="64px" style="shape-rendering:geometricPrecision; text-rendering:geometricPrecision; image-rendering:optimizeQuality; fill-rule:evenodd; clip-rule:evenodd" xmlns:xlink="http://www.w3.org/1999/xlink">
<g><path style="opacity:0.958" fill="#ea4536" d="M 23.5,-0.5 C 28.8333,-0.5 34.1667,-0.5 39.5,-0.5C 44.8579,1.02017 49.5245,3.85351 53.5,8C 50.3333,11.1667 47.1667,14.3333 44,17.5C 31.439,9.40936 21.2723,11.7427 13.5,24.5C 10.0026,21.917 6.33592,19.5836 2.5,17.5C 4.61466,11.7902 8.28133,7.29025 13.5,4C 16.8932,2.37997 20.2265,0.879972 23.5,-0.5 Z"/></g>
<g><path style="opacity:0.955" fill="#fabb06" d="M 2.5,17.5 C 6.33592,19.5836 10.0026,21.917 13.5,24.5C 12.2741,28.8445 12.2741,33.1779 13.5,37.5C 10.0105,40.4113 6.3438,43.078 2.5,45.5C 1.5,43.5 0.5,41.5 -0.5,39.5C -0.5,34.1667 -0.5,28.8333 -0.5,23.5C 0.5,21.5 1.5,19.5 2.5,17.5 Z"/></g>
<g><path style="opacity:0.968" fill="#4385f4" d="M 52.5,56.5 C 49.544,53.0317 46.2107,50.0317 42.5,47.5C 45.0579,45.101 47.0579,42.2677 48.5,39C 42.8431,38.5006 37.1764,38.3339 31.5,38.5C 31.5,34.1667 31.5,29.8333 31.5,25.5C 41.8333,25.5 52.1667,25.5 62.5,25.5C 63.4456,34.303 61.9456,42.6363 58,50.5C 56.669,52.9962 54.8356,54.9962 52.5,56.5 Z"/></g>
<g><path style="opacity:0.975" fill="#37a854" d="M 13.5,37.5 C 19.8958,49.9663 29.5625,53.2996 42.5,47.5C 46.2107,50.0317 49.544,53.0317 52.5,56.5C 48.7958,59.3517 44.7958,61.685 40.5,63.5C 34.8333,63.5 29.1667,63.5 23.5,63.5C 14.0187,60.3491 7.01874,54.3491 2.5,45.5C 6.3438,43.078 10.0105,40.4113 13.5,37.5 Z"/></g>
</svg>
