<?xml version="1.0" encoding="UTF-8"?>
<svg version="1.1" viewBox="0 0 59.5 59.5" xml:space="preserve" xmlns="http://www.w3.org/2000/svg">
	<path d="m59.387 16.45c-0.0035-0.5973-0.0101-1.1943-0.0266-1.7923-0.0348-1.3008-0.1117-2.6134-0.3429-3.9003-0.2346-1.3069-0.6181-2.5221-1.2225-3.7093-0.5933-1.1659-1.3689-2.2328-2.2941-3.158-0.925-0.9252-1.9919-1.7007-3.1583-2.2943-1.1862-0.6037-2.4016-0.9871-3.7073-1.2217-1.2876-0.2319-2.6002-0.3083-3.902-0.3435-0.5977-0.0162-1.1948-0.023-1.7923-0.0267-0.7092-4e-3 -1.4189-4e-3 -2.1279-4e-3h-22.235c-0.7097 0-1.4186 0-2.1276 0.0041-0.5977 0.0037-1.1955 0.0105-1.7923 0.0267-0.3254 0.0088-0.6515 0.0202-0.9778 0.0359-0.9788 0.0472-1.9591 0.1337-2.9243 0.3076-0.9793 0.176-1.9079 0.4356-2.8113 0.8091-0.3011 0.1244-0.5995 0.2616-0.8961 0.4125-0.8748 0.4452-1.6938 0.9927-2.4387 1.6289-0.2483 0.2121-0.4884 0.434-0.7196 0.6653-0.9254 0.9252-1.701 1.9921-2.2943 3.158-0.6044 1.1872-0.9874 2.4024-1.2222 3.7093-0.231 1.2869-0.3078 2.5995-0.3428 3.9003-0.0164 0.598-0.0233 1.195-0.0272 1.7923-0.0045 0.7094-0.0039 1.4189-0.0039 2.1281v22.234c0 0.7099-7e-4 1.4187 0.0039 2.1286 0.0039 0.5973 0.0108 1.1943 0.0272 1.7913 0.035 1.3015 0.1117 2.6144 0.3428 3.9007 0.2348 1.3065 0.6178 2.5228 1.2222 3.7097 0.5933 1.1662 1.3689 2.2328 2.2943 3.1576 0.9247 0.9256 1.9919 1.701 3.1584 2.295 1.1863 0.6038 2.4016 0.9867 3.7076 1.2213 1.2868 0.2316 2.6004 0.3086 3.9019 0.3434 0.5968 0.0159 1.1946 0.023 1.7923 0.0264 0.709 0.0051 1.4179 0.0044 2.1276 0.0044h22.235c0.709 0 1.4187 7e-4 2.1278-0.0044 0.5975-0.0034 1.1946-0.0105 1.7923-0.0264 1.3018-0.0348 2.6144-0.1119 3.902-0.3434 1.3057-0.2346 2.5211-0.6176 3.7073-1.2213 1.1664-0.5939 2.2333-1.3694 3.1583-2.295 0.9252-0.9249 1.7009-1.9914 2.2941-3.1576 0.6044-1.1869 0.9879-2.4031 1.2225-3.7097 0.2312-1.2863 0.3081-2.5992 0.3429-3.9007 0.0164-0.597 0.023-1.1939 0.0266-1.7913 0.0046-0.7099 0.0042-1.4187 0.0042-2.1286v-22.234c1e-4 -0.7092 4e-4 -1.4187-0.0041-2.128z" fill="#F05138"/>
	<path d="m47.061 36.661c-0.0014-0.0018-0.0027-0.0031-0.0042-0.0048 0.0657-0.2236 0.1335-0.4458 0.191-0.675 2.465-9.8209-3.5511-21.432-13.732-27.545 4.4613 6.0479 6.4339 13.373 4.6813 19.78-0.1563 0.5714-0.3442 1.1198-0.5519 1.6528-0.2254-0.1481-0.5094-0.3162-0.8908-0.5265 0 0-10.127-6.2527-21.103-17.312-0.288-0.2903 5.8528 8.777 12.822 16.14-3.2834-1.8427-12.434-8.5004-18.227-13.802 0.7117 1.1869 1.5582 2.3298 2.4887 3.4301 4.8375 6.1349 11.146 13.704 18.704 19.517-5.3104 3.2498-12.814 3.5025-20.285 0.0034-1.8479-0.866-3.5851-1.9109-5.1932-3.0981 3.1625 5.0585 8.0332 9.4229 13.961 11.971 7.0695 3.0381 14.1 2.8321 19.336 0.0498l-0.0041 6e-3c0.0239-0.0151 0.0543-0.0316 0.0791-0.0469 0.215-0.1156 0.4284-0.2333 0.6371-0.3576 2.5157-1.3058 7.4847-2.6306 10.152 2.5588 0.6532 1.27 2.0412-5.4604-3.0617-11.739z" fill="#fff"/>
</svg>
