<svg xmlns="http://www.w3.org/2000/svg" viewBox="0 0 640 640" width="64" height="64"><path d="M250.368 634.375c-1.445-1.719-5.882-14.218-9.861-27.776-6.693-22.806-7.834-24.852-15.253-27.32-18.366-6.114-58.769-27.528-76.961-40.792l-19.513-14.226-13.658 2.87c-7.512 1.578-19.901 4.187-27.532 5.797-7.63 1.61-15.629 2.28-17.775 1.49-5.153-1.9-67.213-105.858-67.213-112.59 0-3.117 7.884-13.005 19.58-24.553l19.579-19.334-2.019-10.845c-2.575-13.836-2.626-77.041-.075-93.016l1.944-12.17-19.505-19.26C11.38 232.059 2.602 221.277 2.602 218.692c0-5.203 57.532-102.157 65.08-109.674 4.66-4.64 5.296-4.602 32.6 1.972 23.225 5.593 28.603 6.17 32.394 3.483 2.5-1.772 11.192-8.08 19.316-14.017 17.467-12.767 46.373-28.038 67.035-35.415 16.18-5.777 14.574-3.303 25.386-39.125 2.961-9.81 6.983-19.11 8.937-20.669 2.492-1.987 23.264-2.634 69.573-2.165l66.02.669 7.263 22.5c10.553 32.692 10.945 33.186 32.986 41.62 22.359 8.557 43.687 20.45 67.505 37.646 9.302 6.716 18.52 11.54 20.813 10.892 22.045-6.226 48.383-11.336 52.287-10.146 4.188 1.278 69.76 109.778 70.033 112.359.013.12.079.517-.02.736-1.145 2.52-9.555 11.185-19.532 21.501l-19.721 20.392 2.16 20c2.747 25.424 2.753 54.731.019 79.072l-2.144 19.072 19.705 20.247c10.837 11.136 18.425 17.638 19.39 23.528 1.26 7.694-59.597 102.142-64.49 107.807-4.608 5.336-10.065 5.135-38.606-1.427l-24.061-5.531-7.159 5.454c-20.202 15.39-52.104 34.238-71.37 42.165-11.903 4.898-22.998 10.19-24.655 11.759-1.657 1.57-5.568 11.854-8.691 22.854-9.693 34.139-2.26 31.25-80.395 31.25-50.676 0-67.912-.77-69.89-3.125zm142.478-129.169c43.26-14.006 81.273-41.624 104.19-75.696 12.313-18.306 13.493-29.43 4.006-37.754-3.452-3.028-28.33-17.778-55.285-32.776-26.955-14.999-49.87-28.499-50.92-30-1.052-1.502-1.93-7.29-1.952-12.864-.081-20.804-17.326-43.277-40.282-52.494-12.372-4.967-34.32-4.466-47.013 1.074-20.895 9.12-37.623 33.977-37.623 55.905 0 21.402 16.363 45.103 37.724 54.642 13.858 6.188 35.787 6.059 50.365-.298 6.238-2.72 12.836-4.945 14.663-4.945 5.463 0 77.218 40.737 78.82 44.749 2.349 5.88-26.722 29.365-50.16 40.522-92.78 44.165-201.16-8.158-221.452-106.91-5.11-24.87-3.26-49.806 5.569-75.08 8.57-24.532 17.004-38.117 35.291-56.841 45.768-46.862 118.154-59.479 180.51-31.463 20.447 9.186 24.754 9.315 34.975 1.05 6.357-5.14 8.004-8.43 8.004-15.99 0-12.71-11.123-22.053-38.15-32.046-49.005-18.119-103.977-17.624-150.994 1.358-59.09 23.858-106.171 78.297-119.34 137.993-4.86 22.031-4.667 63.731.398 85.914 2.26 9.897 9.98 29.702 17.157 44.013 11.422 22.775 16.017 28.883 36.867 49.007 43.93 42.4 87.826 59.46 148.697 57.79 26.8-.736 34.718-1.99 55.935-8.86z" fill="#d4553b"/></svg>
