<?xml version="1.0" encoding="UTF-8"?>
<!DOCTYPE svg PUBLIC "-//W3C//DTD SVG 1.1//EN" "http://www.w3.org/Graphics/SVG/1.1/DTD/svg11.dtd">
<svg xmlns="http://www.w3.org/2000/svg" version="1.1" width="64px" height="64px" style="shape-rendering:geometricPrecision; text-rendering:geometricPrecision; image-rendering:optimizeQuality; fill-rule:evenodd; clip-rule:evenodd" xmlns:xlink="http://www.w3.org/1999/xlink">
<g><path style="opacity:1" fill="#59e7ff" d="M 30.5,2.5 C 30.5,10.8333 30.5,19.1667 30.5,27.5C 24.4955,29.0011 18.4955,30.5011 12.5,32C 10.2884,32.7891 8.28841,32.6225 6.5,31.5C 14.2719,21.6092 22.2719,11.9426 30.5,2.5 Z"/></g>
<g><path style="opacity:0.988" fill="#88c6f4" d="M 32.5,3.5 C 34.5869,4.58457 35.9202,6.25124 36.5,8.5C 34.4131,7.41543 33.0798,5.74876 32.5,3.5 Z"/></g>
<g><path style="opacity:0.988" fill="#8bc7f4" d="M 38.5,10.5 C 40.5869,11.5846 41.9202,13.2512 42.5,15.5C 40.4131,14.4154 39.0798,12.7488 38.5,10.5 Z"/></g>
<g><path style="opacity:1" fill="#52abed" d="M 32.5,3.5 C 33.0798,5.74876 34.4131,7.41543 36.5,8.5C 37.5,8.83333 38.1667,9.5 38.5,10.5C 39.0798,12.7488 40.4131,14.4154 42.5,15.5C 45.2427,17.2393 47.2427,19.5726 48.5,22.5C 47.4693,21.645 46.3026,20.9783 45,20.5C 40.3824,22.2205 36.2157,24.5539 32.5,27.5C 32.1667,27.5 31.8333,27.5 31.5,27.5C 31.1743,19.3159 31.5076,11.3159 32.5,3.5 Z"/></g>
<g><path style="opacity:1" fill="#3e9fe6" d="M 48.5,22.5 C 49.5,22.8333 50.1667,23.5 50.5,24.5C 51.0798,26.7488 52.4131,28.4154 54.5,29.5C 55.5,29.8333 56.1667,30.5 56.5,31.5C 48.5456,31.2856 40.5456,29.9523 32.5,27.5C 36.2157,24.5539 40.3824,22.2205 45,20.5C 46.3026,20.9783 47.4693,21.645 48.5,22.5 Z"/></g>
<g><path style="opacity:0.984" fill="#74b8ed" d="M 50.5,24.5 C 52.5869,25.5846 53.9202,27.2512 54.5,29.5C 52.4131,28.4154 51.0798,26.7488 50.5,24.5 Z"/></g>
<g><path style="opacity:0.997" fill="#9bebff" d="M 30.5,27.5 C 30.5,35.1667 30.5,42.8333 30.5,50.5C 21.6894,44.9245 13.0228,39.0912 4.5,33C 5.0442,32.2828 5.71087,31.7828 6.5,31.5C 8.28841,32.6225 10.2884,32.7891 12.5,32C 18.4955,30.5011 24.4955,29.0011 30.5,27.5 Z"/></g>
<g><path style="opacity:1" fill="#86e0fb" d="M 32.5,3.5 C 31.5076,11.3159 31.1743,19.3159 31.5,27.5C 31.5,35.1667 31.5,42.8333 31.5,50.5C 31.1667,50.5 30.8333,50.5 30.5,50.5C 30.5,42.8333 30.5,35.1667 30.5,27.5C 30.5,19.1667 30.5,10.8333 30.5,2.5C 31.3274,1.56127 31.9941,1.89461 32.5,3.5 Z"/></g>
<g><path style="opacity:1" fill="#54b1e0" d="M 31.5,27.5 C 31.8333,27.5 32.1667,27.5 32.5,27.5C 40.5456,29.9523 48.5456,31.2856 56.5,31.5C 58.332,32.1405 58.6653,33.1405 57.5,34.5C 48.8054,39.8444 40.1387,45.1777 31.5,50.5C 31.5,42.8333 31.5,35.1667 31.5,27.5 Z"/></g>
<g><path style="opacity:0.866" fill="#4fe5fe" d="M 31.5,53.5 C 31.5,55.8333 31.5,58.1667 31.5,60.5C 20.8223,54.6183 10.1556,47.9516 -0.5,40.5C -0.5,39.8333 -0.5,39.1667 -0.5,38.5C 0.659436,37.5442 1.8261,36.5442 3,35.5C 12.9076,40.9182 22.4076,46.9182 31.5,53.5 Z"/></g>
<g><path style="opacity:1" fill="#47aced" d="M 62.5,38.5 C 59.2107,39.3739 55.8774,40.0405 52.5,40.5C 52.67,41.8221 52.3366,42.9887 51.5,44C 49.3225,45.2022 46.9892,45.7022 44.5,45.5C 49.0227,41.3125 54.1894,37.9792 60,35.5C 61.3102,36.1301 62.1435,37.1301 62.5,38.5 Z"/></g>
<g><path style="opacity:1" fill="#39a2e7" d="M 62.5,38.5 C 62.8333,38.5 63.1667,38.5 63.5,38.5C 63.5,39.1667 63.5,39.8333 63.5,40.5C 53.0818,47.5891 42.4151,54.2558 31.5,60.5C 31.5,58.1667 31.5,55.8333 31.5,53.5C 31.8417,52.6618 32.5084,52.3284 33.5,52.5C 37.5801,51.9449 41.2467,50.6115 44.5,48.5C 44.5,47.5 44.5,46.5 44.5,45.5C 46.9892,45.7022 49.3225,45.2022 51.5,44C 52.3366,42.9887 52.67,41.8221 52.5,40.5C 55.8774,40.0405 59.2107,39.3739 62.5,38.5 Z"/></g>
<g><path style="opacity:1" fill="#43abec" d="M 44.5,45.5 C 44.5,46.5 44.5,47.5 44.5,48.5C 41.2467,50.6115 37.5801,51.9449 33.5,52.5C 36.6505,49.4208 40.3171,47.0875 44.5,45.5 Z"/></g>
</svg>
