<?xml version="1.0" encoding="UTF-8"?>
<svg viewBox="0 0 110.42 109.85" xmlns="http://www.w3.org/2000/svg">
<defs>
<linearGradient id="b" x1="89.137" x2="147.78" y1="111.92" y2="168.1" gradientUnits="userSpaceOnUse">
<stop stop-color="#ffe052" offset="0"/>
<stop stop-color="#ffc331" offset="1"/>
</linearGradient>
<linearGradient id="a" x1="55.549" x2="110.15" y1="77.07" y2="131.85" gradientUnits="userSpaceOnUse">
<stop stop-color="#387eb8" offset="0"/>
<stop stop-color="#366994" offset="1"/>
</linearGradient>
</defs>
<g transform="translate(-473.36 -251.72)">
<g transform="translate(428.42 184.26)">
<path d="m99.75 67.469c-28.032 2e-6 -26.281 12.156-26.281 12.156l0.03125 12.594h26.75v3.7812h-37.375s-17.938-2.0343-17.938 26.25c-2e-6 28.284 15.656 27.281 15.656 27.281h9.3438v-13.125s-0.50365-15.656 15.406-15.656h26.531s14.906 0.24096 14.906-14.406v-24.219c0-2e-6 2.2632-14.656-27.031-14.656zm-14.75 8.4688c2.6614-2e-6 4.8125 2.1511 4.8125 4.8125 2e-6 2.6614-2.1511 4.8125-4.8125 4.8125-2.6614 2e-6 -4.8125-2.1511-4.8125-4.8125-2e-6 -2.6614 2.1511-4.8125 4.8125-4.8125z" color="#000000" fill="url(#a)"/>
<path d="m100.55 177.31c28.032 0 26.281-12.156 26.281-12.156l-0.03125-12.594h-26.75v-3.7812h37.375s17.938 2.0343 17.938-26.25c1e-5 -28.284-15.656-27.281-15.656-27.281h-9.3438v13.125s0.50366 15.656-15.406 15.656h-26.531s-14.906-0.24096-14.906 14.406v24.219s-2.2632 14.656 27.031 14.656zm14.75-8.4688c-2.6614 0-4.8125-2.1511-4.8125-4.8125s2.1511-4.8125 4.8125-4.8125 4.8125 2.1511 4.8125 4.8125c1e-5 2.6614-2.1511 4.8125-4.8125 4.8125z" color="#000000" fill="url(#b)"/>
</g>
</g>
</svg>
