<?xml version="1.0" encoding="UTF-8"?>
<svg preserveAspectRatio="xMidYMid" viewBox="0.88 3 721.12 556.07" xmlns="http://www.w3.org/2000/svg">
<defs>
<linearGradient id="b" y2="1">
<stop stop-color="#cbced0" offset="0"/>
<stop stop-color="#84838b" offset="1"/>
</linearGradient>
<linearGradient id="a" y2="1">
<stop stop-color="#276dc3" offset="0"/>
<stop stop-color="#165caa" offset="1"/>
</linearGradient>
</defs>
<path d="m361.45 485.94c-199.12 0-360.55-108.11-360.55-241.47 0-133.36 161.42-241.47 360.55-241.47 199.12 0 360.55 108.11 360.55 241.47 0 133.36-161.42 241.47-360.55 241.47zm55.188-388.53c-151.35 0-274.05 73.908-274.05 165.08s122.7 165.08 274.05 165.08c151.35 0 263.05-50.529 263.05-165.08 0-114.51-111.7-165.08-263.05-165.08z" fill="url(#b)" fill-rule="evenodd"/>
<path d="m550 377s21.822 6.585 34.5 13c4.399 2.226 12.01 6.668 17.5 12.5 5.378 5.712 8 11.5 8 11.5l86 145-139 0.062-65-122.06s-13.31-22.869-21.5-29.5c-6.832-5.531-9.745-7.5-16.5-7.5h-33.026l0.026 158.97-123 0.052v-406.09h247s112.5 2.029 112.5 109.06-107.5 115-107.5 115zm-53.5-135.98-74.463-0.048-0.037 69.05 74.5-0.024s34.5-0.107 34.5-35.125c0-35.722-34.5-33.853-34.5-33.853z" fill="url(#a)" fill-rule="evenodd"/>
</svg>