<?xml version="1.0" encoding="UTF-8"?>
<!DOCTYPE svg PUBLIC "-//W3C//DTD SVG 1.1//EN" "http://www.w3.org/Graphics/SVG/1.1/DTD/svg11.dtd">
<svg xmlns="http://www.w3.org/2000/svg" version="1.1" width="128px" height="128px" style="shape-rendering:geometricPrecision; text-rendering:geometricPrecision; image-rendering:optimizeQuality; fill-rule:evenodd; clip-rule:evenodd" xmlns:xlink="http://www.w3.org/1999/xlink">
<g><path style="opacity:0.997" fill="#0382c9" d="M 12.5,-0.5 C 46.5,-0.5 80.5,-0.5 114.5,-0.5C 116.769,0.97576 119.102,2.47576 121.5,4C 123.752,6.73612 125.752,9.56945 127.5,12.5C 127.5,46.5 127.5,80.5 127.5,114.5C 126.024,116.769 124.524,119.102 123,121.5C 120.264,123.752 117.431,125.752 114.5,127.5C 80.5,127.5 46.5,127.5 12.5,127.5C 10.2314,126.024 7.89805,124.524 5.5,123C 3.24806,120.264 1.24806,117.431 -0.5,114.5C -0.5,80.5 -0.5,46.5 -0.5,12.5C 0.97576,10.2314 2.47576,7.89805 4,5.5C 6.73612,3.24806 9.56945,1.24806 12.5,-0.5 Z"/></g>
<g><path style="opacity:1" fill="#fafcfe" d="M 55.5,37.5 C 72.1487,34.6762 83.6487,41.0096 90,56.5C 96.7038,45.8419 105.537,43.6752 116.5,50C 126.055,60.0068 125.722,69.6734 115.5,79C 105.008,84.0633 96.5078,81.8966 90,72.5C 83.734,86.5529 72.9007,92.7196 57.5,91C 47.6359,88.1574 40.8026,81.9908 37,72.5C 30.4181,81.7772 21.9181,83.9438 11.5,79C 1.27849,69.6734 0.945152,60.0068 10.5,50C 21.3086,44.0771 30.1419,46.2438 37,56.5C 40.7129,47.6222 46.8796,41.2888 55.5,37.5 Z"/></g>
<g><path style="opacity:1" fill="#0b83c9" d="M 58.5,47.5 C 75.6629,46.8226 82.4962,54.8226 79,71.5C 72.4619,80.8791 63.9619,83.0457 53.5,78C 42.8945,65.644 44.5612,55.4773 58.5,47.5 Z"/></g>
<g><path style="opacity:1" fill="#1986cb" d="M 18.5,56.5 C 26.2008,56.3622 29.3674,60.0289 28,67.5C 23.9586,72.3125 19.6253,72.6459 15,68.5C 13.5934,63.6427 14.76,59.6427 18.5,56.5 Z"/></g>
<g><path style="opacity:1" fill="#2088cb" d="M 103.5,56.5 C 111.301,57.1189 114.135,61.1189 112,68.5C 107.291,72.7695 102.958,72.4361 99,67.5C 97.3926,62.4383 98.8926,58.7716 103.5,56.5 Z"/></g>
</svg>
