<svg xmlns="http://www.w3.org/2000/svg" fill="none" viewBox="0 0 48 48"><path fill="url(#a)" d="m20.084 3.026-.224.136a8.007 8.007 0 0 0-1.009.722l.648-.456H25L26 11l-5 5-5 3.475v4.008a8 8 0 0 0 3.857 6.844l5.264 3.186L14 40h-2.145l-3.998-2.42A8 8 0 0 1 4 30.737V17.26a8 8 0 0 1 3.86-6.846l12-7.258c.074-.045.149-.089.224-.131Z"/><path fill="url(#b)" d="m20.084 3.026-.224.136a8.007 8.007 0 0 0-1.009.722l.648-.456H25L26 11l-5 5-5 3.475v4.008a8 8 0 0 0 3.857 6.844l5.264 3.186L14 40h-2.145l-3.998-2.42A8 8 0 0 1 4 30.737V17.26a8 8 0 0 1 3.86-6.846l12-7.258c.074-.045.149-.089.224-.131Z"/><path fill="url(#c)" d="M32 19v4.48a8 8 0 0 1-3.857 6.844l-12 7.264a8 8 0 0 1-8.008.16l11.722 7.096a8 8 0 0 0 8.286 0l12-7.264A8 8 0 0 0 44 30.736V27.5L43 26l-11-7Z"/><path fill="url(#d)" d="M32 19v4.48a8 8 0 0 1-3.857 6.844l-12 7.264a8 8 0 0 1-8.008.16l11.722 7.096a8 8 0 0 0 8.286 0l12-7.264A8 8 0 0 0 44 30.736V27.5L43 26l-11-7Z"/><path fill="url(#e)" d="m40.14 10.415-12-7.258a8 8 0 0 0-8.042-.139l-.238.144A8 8 0 0 0 16 10.008v9.483l3.86-2.334a8 8 0 0 1 8.28 0l12 7.258A8 8 0 0 1 43.997 31c.003-.088.004-.175.004-.263V17.26a8 8 0 0 0-3.86-6.845Z"/><path fill="url(#f)" d="m40.14 10.415-12-7.258a8 8 0 0 0-8.042-.139l-.238.144A8 8 0 0 0 16 10.008v9.483l3.86-2.334a8 8 0 0 1 8.28 0l12 7.258A8 8 0 0 1 43.997 31c.003-.088.004-.175.004-.263V17.26a8 8 0 0 0-3.86-6.845Z"/><path fill="url(#g)" d="M4.004 30.998Z"/><path fill="url(#h)" d="M4.004 30.998Z"/><defs><radialGradient id="a" cx="0" cy="0" r="1" gradientTransform="translate(17.4186 10.6383) rotate(110.528) scale(33.3657 58.1966)" gradientUnits="userSpaceOnUse"><stop offset=".064" stop-color="#AE7FE2"/><stop offset="1" stop-color="#0078D4"/></radialGradient><radialGradient id="c" cx="0" cy="0" r="1" gradientTransform="translate(10.4299 36.3511) rotate(-8.36717) scale(31.0503 20.5108)" gradientUnits="userSpaceOnUse"><stop offset=".134" stop-color="#D59DFF"/><stop offset="1" stop-color="#5E438F"/></radialGradient><radialGradient id="e" cx="0" cy="0" r="1" gradientTransform="translate(41.0552 26.504) rotate(-165.772) scale(24.9228 41.9552)" gradientUnits="userSpaceOnUse"><stop offset=".058" stop-color="#50E6FF"/><stop offset="1" stop-color="#436DCD"/></radialGradient><radialGradient id="g" cx="0" cy="0" r="1" gradientTransform="translate(41.0552 26.504) rotate(-165.772) scale(24.9228 41.9552)" gradientUnits="userSpaceOnUse"><stop offset=".058" stop-color="#50E6FF"/><stop offset="1" stop-color="#436DCD"/></radialGradient><linearGradient id="b" x1="17.512" x2="12.751" y1="37.868" y2="29.635" gradientUnits="userSpaceOnUse"><stop stop-color="#114A8B"/><stop offset="1" stop-color="#0078D4" stop-opacity="0"/></linearGradient><linearGradient id="d" x1="40.357" x2="35.255" y1="25.377" y2="32.692" gradientUnits="userSpaceOnUse"><stop stop-color="#493474"/><stop offset="1" stop-color="#8C66BA" stop-opacity="0"/></linearGradient><linearGradient id="f" x1="16.976" x2="24.487" y1="3.057" y2="3.057" gradientUnits="userSpaceOnUse"><stop stop-color="#2D3F80"/><stop offset="1" stop-color="#436DCD" stop-opacity="0"/></linearGradient><linearGradient id="h" x1="16.976" x2="24.487" y1="3.057" y2="3.057" gradientUnits="userSpaceOnUse"><stop stop-color="#2D3F80"/><stop offset="1" stop-color="#436DCD" stop-opacity="0"/></linearGradient></defs></svg>