<?xml version="1.0" encoding="UTF-8"?>
<svg viewBox="0 0 502.87 502.87" xmlns="http://www.w3.org/2000/svg">
<defs>
	<style>.cls-1{fill:#01579b;}.cls-2{fill:#40c4ff;}.cls-3{fill:#29b6f6;}.cls-4{fill:#fff;}.cls-4,.cls-5,.cls-6{opacity:0.2;isolation:isolate;}.cls-5{fill:#263238;}.cls-6{fill:url(#a);}</style>
	<radialGradient id="a" cx="251.42" cy="631.97" r="251.4" gradientTransform="translate(0 -380.56)" gradientUnits="userSpaceOnUse">
		<stop stop-color="#fff" stop-opacity=".1" offset="0"/>
		<stop stop-color="#fff" stop-opacity="0" offset="1"/>
	</radialGradient>
</defs>
<path class="cls-1" d="M102.56,400.31l-86-86C6.32,303.82,0,289,0,274.58c0-6.69,3.77-17.16,6.62-23.15L86,86Z"/>
<path class="cls-2" d="M397,102.56l-86-86C303.49,9,287.85,0,274.61,0c-11.38,0-22.55,2.29-29.76,6.62L86.07,86Z"/>
<polygon class="cls-2" points="205.11 502.87 413.55 502.87 413.55 413.55 258.05 363.9 115.79 413.55"/>
<path class="cls-3" d="M86,354c0,26.54,3.33,33.05,16.53,46.32l13.23,13.24H413.55L268,248.14,86,86Z"/>
<path class="cls-1" d="M350.7,86H86L413.55,413.51h89.32V208.4L397,102.52C382.12,87.62,368.92,86,350.7,86Z"/>
<path class="cls-4" d="M105.88,403.6C92.65,390.33,89.36,377.24,89.36,354V89.32L86.07,86V354c0,23.25,0,29.69,19.81,49.61l9.91,9.91h0Z"/>
<polygon class="cls-5" points="499.58 205.11 499.58 410.22 410.26 410.22 413.55 413.55 502.87 413.55 502.87 208.4"/>
<path class="cls-4" d="M397,102.56C380.61,86.14,367.19,86,347.41,86H86.07l3.29,3.29H347.41c9.87,0,34.79-1.66,49.61,13.24Z"/>
<path class="cls-6" d="M499.58,205.11,397,102.56l-86-86C303.49,9,287.85,0,274.61,0c-11.38,0-22.55,2.29-29.76,6.62L86.07,86,6.65,251.43C3.81,257.46,0,267.92,0,274.58c0,14.45,6.36,29.2,16.52,39.7L95.83,393a92.42,92.42,0,0,0,6.73,7.32l3.29,3.29,9.9,9.91,86,86,3.29,3.29h208.4V413.51h89.32V208.4Z"/>
</svg>
