<svg width="2169" height="2500" viewBox="0 0 256 295" xmlns="http://www.w3.org/2000/svg" preserveAspectRatio="xMinYMin meet"><g fill="#205081"><path d="M128 0C57.732 0 .012 18.822.012 42.663c0 6.274 15.057 95.364 21.331 130.498 2.51 16.312 43.918 38.898 106.657 38.898 62.74 0 102.893-22.586 106.657-38.898 6.274-35.134 21.331-124.224 21.331-130.498C254.734 18.822 198.268 0 128 0zm0 183.199c-22.586 0-40.153-17.567-40.153-40.153s17.567-40.153 40.153-40.153 40.153 17.567 40.153 40.153c0 21.331-17.567 40.153-40.153 40.153zm0-127.988c-45.172 0-81.561-7.53-81.561-17.567 0-10.039 36.389-17.567 81.561-17.567 45.172 0 81.561 7.528 81.561 17.567 0 10.038-36.389 17.567-81.561 17.567z"/><path d="M220.608 207.04c-2.51 0-3.764 1.255-3.764 1.255s-31.37 25.096-87.835 25.096c-56.466 0-87.835-25.096-87.835-25.096s-2.51-1.255-3.765-1.255c-2.51 0-5.019 1.255-5.019 5.02v1.254c5.02 26.35 8.784 45.172 8.784 47.682 3.764 18.822 41.408 33.88 86.58 33.88s82.816-15.058 86.58-33.88c0-2.51 3.765-21.332 8.784-47.682v-1.255c1.255-2.51 0-5.019-2.51-5.019z"/><circle cx="128" cy="141.791" r="20.077"/></g></svg>