<svg xmlns="http://www.w3.org/2000/svg" viewBox="0 0 62 65" fill="#fff" fill-rule="evenodd" stroke="#000" stroke-linecap="round" stroke-linejoin="round">
<g><path fill="#3f7a9c" d="M41.868 16.659l.248.19c1.503 1.172 2.825 2.564 3.919 4.128l.9 1.414 2.774-1.601-1.05-1.65c-.959-1.37-2.068-2.628-3.304-3.748.728-.642 1.491-1.459 2.215-2.403 2.158-2.813 3.141-5.657 2.204-6.376s-3.43.966-5.589 3.779c-.725.944-1.317 1.892-1.748 2.762-3.013-1.94-6.525-3.176-10.308-3.48.189-.957.298-2.076.298-3.273 0-3.546-.951-6.4-2.133-6.4S28.16 2.854 28.16 6.4c0 1.198.109 2.317.298 3.273-3.783.304-7.296 1.54-10.308 3.48-.431-.87-1.024-1.818-1.748-2.762-2.158-2.813-4.651-4.498-5.589-3.779s.045 3.563 2.204 6.376c.725.944 1.487 1.761 2.215 2.403-1.236 1.12-2.345 2.378-3.304 3.748a22.33 22.33 0 0 0-1.05 1.65l2.774 1.601a19.13 19.13 0 0 1 .9-1.414 19.21 19.21 0 0 1 3.919-4.128l.248-.19c3.214-2.424 7.221-3.859 11.574-3.859s8.36 1.435 11.574 3.859zM14.551 43.023A19.15 19.15 0 0 0 30.293 51.2a19.15 19.15 0 0 0 15.742-8.177l2.624 1.837c-.959 1.37-2.068 2.628-3.304 3.748.728.642 1.491 1.459 2.215 2.403 2.158 2.813 3.141 5.657 2.204 6.376s-3.43-.966-5.589-3.779c-.725-.944-1.317-1.892-1.748-2.762-3.013 1.94-6.525 3.176-10.308 3.48.189.957.298 2.076.298 3.273 0 3.546-.951 6.4-2.133 6.4s-2.133-2.854-2.133-6.4c0-1.198.109-2.317.298-3.273-3.783-.304-7.296-1.54-10.308-3.48-.431.87-1.024 1.818-1.748 2.762-2.158 2.813-4.651 4.498-5.589 3.779s.045-3.563 2.204-6.376c.725-.944 1.487-1.761 2.215-2.403-1.236-1.12-2.345-2.378-3.304-3.748zM44.8 40.533V24.32h4.693l3.413 9.813 3.413-9.813h4.267v16.213h-3.84v-5.12l.853-5.973-3.84 9.813h-2.133l-3.84-9.813.853 5.973v5.12zM31.147 24.32v16.213h10.667V37.12h-6.4v-12.8zm-14.08 0v16.213H28.16V37.12h-6.827v-2.987h5.547V30.72h-5.547v-2.987h6.4V24.32zm-12.8 16.213v-6.4h5.12v6.4h4.267V24.32H9.387v5.973h-5.12V24.32H0v16.213z" stroke="none"/></g>
</svg>