<svg xmlns="http://www.w3.org/2000/svg" style="shape-rendering:geometricPrecision;text-rendering:geometricPrecision;image-rendering:optimizeQuality;fill-rule:evenodd;clip-rule:evenodd" viewBox="0 0 128 128" class="svg gitea-nextcloud" width="16" height="16" aria-hidden="true"><path fill="#0382c9" d="M12.5-.5h102a796.486 796.486 0 0 0 7 4.5 68.97 68.97 0 0 1 6 8.5v102a785.54 785.54 0 0 0-4.5 7 68.927 68.927 0 0 1-8.5 6h-102a779.088 779.088 0 0 0-7-4.5 68.94 68.94 0 0 1-6-8.5v-102a789.852 789.852 0 0 0 4.5-7 68.982 68.982 0 0 1 8.5-6Z" style="opacity:.997"/><path fill="#fafcfe" d="M55.5 37.5c16.649-2.824 28.149 3.51 34.5 19 6.704-10.658 15.537-12.825 26.5-6.5 9.555 10.007 9.222 19.673-1 29-10.492 5.063-18.992 2.897-25.5-6.5C83.734 86.553 72.9 92.72 57.5 91c-9.864-2.843-16.697-9.01-20.5-18.5-6.582 9.277-15.082 11.444-25.5 6.5-10.222-9.327-10.555-18.993-1-29 10.809-5.923 19.642-3.756 26.5 6.5 3.713-8.878 9.88-15.211 18.5-19Z" style="opacity:1"/><path fill="#0b83c9" d="M58.5 47.5c17.163-.677 23.996 7.323 20.5 24-6.538 9.38-15.038 11.546-25.5 6.5-10.605-12.356-8.939-22.523 5-30.5Z" style="opacity:1"/><path fill="#1986cb" d="M18.5 56.5c7.7-.138 10.867 3.529 9.5 11-4.041 4.813-8.375 5.146-13 1-1.407-4.857-.24-8.857 3.5-12Z" style="opacity:1"/><path fill="#2088cb" d="M103.5 56.5c7.801.619 10.635 4.619 8.5 12-4.709 4.27-9.042 3.936-13-1-1.607-5.062-.107-8.728 4.5-11Z" style="opacity:1"/></svg>