<?xml version="1.0" encoding="UTF-8"?>
<svg preserveAspectRatio="xMidYMid" version="1.1" viewBox="0 0 255 263" xmlns="http://www.w3.org/2000/svg">
<polygon points="254.22 20.234 196.03 53.47 194.39 74.088 150.2 173.86 123.93 191.2 127.11 262.8 176.64 234.25 254.22 44.304" fill="#1159CC"/>
<polygon points="92.45 56.933 92.45 34.051 92.212 33.915 53.729 53.017 55.371 76.051 103.4 180.6 129.42 165.89 127.11 137.8" fill="#1159CC"/>
<polygon points="219.56 0 161.81 33.814 161.77 33.814 161.77 33.848 161.77 33.848 161.77 33.848 161.77 56.933 127.11 137.8 127.11 164.82 103.99 178.23 57.788 74.146 57.788 53.81 92.45 33.848 34.668 0 0.0057522 20.234 0.0057522 45.017 78.022 234.49 127.11 262.8 127.11 191.64 150.2 178.23 149.93 178.06 196.44 74.146 196.44 53.844 196.44 53.81 254.22 20.234" fill="#127EFF"/>
</svg>
