<svg xmlns="http://www.w3.org/2000/svg" fill="none" viewBox="7 7 26 26" width="20" height="20"><path d="M21.069 20.504l.063-.06.125-.122.085-.084.256-.254.348-.344.299-.296.281-.278.293-.289.269-.266.374-.37.218-.206.419-.359.404-.306.598-.386.617-.33.606-.265.348-.127.177-.058a14.78 14.78 0 0 0-2.793-5.603c-.252-.318-.639-.502-1.047-.502H12.221c-.196 0-.277.249-.119.364a31.49 31.49 0 0 1 8.943 10.162c.008-.007.016-.015.025-.023z" fill="#00d6b9"/><path d="M16.791 30c5.57 0 10.423-3.074 12.955-7.618.089-.159.175-.321.258-.484a6.12 6.12 0 0 1-.425.699c-.055.078-.111.155-.17.23a6.29 6.29 0 0 1-.225.274c-.062.07-.123.138-.188.206a5.61 5.61 0 0 1-.407.384 5.53 5.53 0 0 1-.24.195 7.12 7.12 0 0 1-.292.21c-.063.043-.126.084-.191.122s-.134.081-.204.119c-.14.078-.282.149-.428.215a5.53 5.53 0 0 1-.385.157 5.81 5.81 0 0 1-.43.138 5.91 5.91 0 0 1-.661.143c-.162.025-.325.044-.491.055-.173.012-.348.016-.525.014-.193-.003-.388-.015-.585-.037-.144-.015-.289-.037-.433-.062-.126-.022-.252-.049-.38-.079l-.2-.051-.555-.155-.275-.081-.41-.125-.334-.107-.317-.104-.215-.073-.26-.091-.186-.066-.367-.134-.212-.081-.284-.11-.299-.119-.193-.079-.24-.1-.185-.078-.192-.084-.166-.073-.152-.067-.153-.07-.159-.073-.2-.093-.208-.099-.222-.108-.189-.093c-3.335-1.668-6.295-3.89-8.822-6.583-.126-.134-.349-.045-.349.138l.005 9.52v.773c0 .448.222.87.595 1.118C10.946 29.092 13.762 30 16.791 30z" fill="#3370ff"/><path d="M29.746 22.382h0l.051-.093-.051.093zm.231-.435l.014-.025.007-.012-.021.037z" fill="#133c92"/><path d="M33.151 16.582c-1.129-.556-2.399-.869-3.744-.869a8.45 8.45 0 0 0-2.303.317l-.252.075-.177.058-.348.127-.606.265-.617.33-.598.386-.404.306-.419.359-.218.206-.374.37-.269.266-.293.289-.281.278-.299.296-.348.344-.256.254-.085.084-.125.122-.063.06-.095.09-.105.099c-.924.848-1.956 1.581-3.072 2.175l.2.093.159.073.153.07.152.067.166.073.192.084.185.078.24.1.193.079.299.119.284.11.212.081.367.134.186.066.26.09.215.073.317.104.334.107.41.125.275.081.555.155.2.051.379.079.433.062.585.037.525-.014.491-.055a5.61 5.61 0 0 0 .66-.143l.43-.138.385-.158.427-.215.204-.119.191-.122.292-.21.24-.195.407-.384.188-.206.225-.274.17-.23a6.13 6.13 0 0 0 .421-.693l.144-.288 1.305-2.599-.003.006a8.07 8.07 0 0 1 1.697-2.439z" fill="#133c9a"/></svg>
