<?xml version="1.0" encoding="UTF-8"?>
<!DOCTYPE svg PUBLIC "-//W3C//DTD SVG 1.1//EN" "http://www.w3.org/Graphics/SVG/1.1/DTD/svg11.dtd">
<svg xmlns="http://www.w3.org/2000/svg" version="1.1" width="128px" height="128px" style="shape-rendering:geometricPrecision; text-rendering:geometricPrecision; image-rendering:optimizeQuality; fill-rule:evenodd; clip-rule:evenodd" xmlns:xlink="http://www.w3.org/1999/xlink">
<g><path style="opacity:0.995" fill="#395b97" d="M 93.5,8.5 C 92.0484,9.30192 90.3817,9.80192 88.5,10C 62.3333,36.1667 36.1667,62.3333 10,88.5C 9.80192,90.3817 9.30192,92.0484 8.5,93.5C 7.38525,74.8578 7.21858,56.1912 8,37.5C 10.5,20.3333 20.3333,10.5 37.5,8C 56.1912,7.21858 74.8578,7.38525 93.5,8.5 Z"/></g>
<g><path style="opacity:0.976" fill="#366098" d="M 93.5,8.5 C 109.388,12.7251 118.055,23.0585 119.5,39.5C 118.669,51.6599 118.169,63.9932 118,76.5C 106.333,88.1667 94.6667,99.8333 83,111.5C 82.5026,114.146 82.3359,116.813 82.5,119.5C 81.5042,105.677 81.1709,91.6766 81.5,77.5C 86.1667,77.5 90.8333,77.5 95.5,77.5C 96.6285,71.8576 97.6285,66.1909 98.5,60.5C 92.8333,60.5 87.1667,60.5 81.5,60.5C 78.9993,46.6691 84.6659,40.6691 98.5,42.5C 98.5,37.1667 98.5,31.8333 98.5,26.5C 72.745,23.2568 61.745,34.5901 65.5,60.5C 60.8333,60.5 56.1667,60.5 51.5,60.5C 51.5,66.1667 51.5,71.8333 51.5,77.5C 56.1667,77.5 60.8333,77.5 65.5,77.5C 65.5,91.5 65.5,105.5 65.5,119.5C 56.1607,119.666 46.8274,119.5 37.5,119C 22.0485,117.047 12.3818,108.547 8.5,93.5C 9.30192,92.0484 9.80192,90.3817 10,88.5C 36.1667,62.3333 62.3333,36.1667 88.5,10C 90.3817,9.80192 92.0484,9.30192 93.5,8.5 Z"/></g>
<g><path style="opacity:0.918" fill="#346499" d="M 119.5,39.5 C 119.667,56.17 119.5,72.8367 119,89.5C 115.378,109.745 103.212,119.745 82.5,119.5C 82.3359,116.813 82.5026,114.146 83,111.5C 94.6667,99.8333 106.333,88.1667 118,76.5C 118.169,63.9932 118.669,51.6599 119.5,39.5 Z"/></g>
</svg>
