<?xml version="1.0" encoding="UTF-8" standalone="no"?>
<svg
   xmlns:dc="http://purl.org/dc/elements/1.1/"
   xmlns:cc="http://creativecommons.org/ns#"
   xmlns:rdf="http://www.w3.org/1999/02/22-rdf-syntax-ns#"
   xmlns:svg="http://www.w3.org/2000/svg"
   xmlns="http://www.w3.org/2000/svg"
   xmlns:sodipodi="http://sodipodi.sourceforge.net/DTD/sodipodi-0.dtd"
   xmlns:inkscape="http://www.inkscape.org/namespaces/inkscape"
   viewBox="0 0 640 640"
   version="1.1"
   id="svg5"
   sodipodi:docname="gogs-min.svg"
   inkscape:version="1.0.1 (3bc2e813f5, 2020-09-07, custom)">
  <metadata
     id="metadata11">
    <rdf:RDF>
      <cc:Work
         rdf:about="">
        <dc:format>image/svg+xml</dc:format>
        <dc:type
           rdf:resource="http://purl.org/dc/dcmitype/StillImage" />
        <dc:title></dc:title>
      </cc:Work>
    </rdf:RDF>
  </metadata>
  <defs
     id="defs9" />
  <sodipodi:namedview
     pagecolor="#ffffff"
     bordercolor="#666666"
     borderopacity="1"
     objecttolerance="10"
     gridtolerance="10"
     guidetolerance="10"
     inkscape:pageopacity="0"
     inkscape:pageshadow="2"
     inkscape:window-width="1920"
     inkscape:window-height="1006"
     id="namedview7"
     showgrid="false"
     inkscape:zoom="0.93249707"
     inkscape:cx="234.6009"
     inkscape:cy="284.38507"
     inkscape:window-x="1200"
     inkscape:window-y="444"
     inkscape:window-maximized="1"
     inkscape:current-layer="svg5" />
  <g
     inkscape:groupmode="layer"
     id="layer2"
     inkscape:label="Layer 2" />
  <g
     inkscape:groupmode="layer"
     id="layer1"
     inkscape:label="Layer 1"
     style="display:inline">
    <path
       style="fill:#d4553b;stroke-width:2.55031"
       d="m 250.36789,634.375 c -1.44483,-1.71875 -5.88227,-14.2181 -9.86098,-27.77635 -6.69249,-22.80595 -7.8343,-24.85115 -15.25258,-27.3203 C 206.8884,573.1653 166.48498,551.75063 148.29268,538.487 l -19.51219,-14.22593 -13.65854,2.86948 c -7.51219,1.5782 -19.901389,4.18715 -27.531545,5.79767 -7.630155,1.61053 -15.629211,2.28063 -17.775682,1.48913 C 64.661838,532.51725 2.601626,428.55993 2.601626,421.8284 c 0,-3.11753 7.884808,-13.0053 19.579633,-24.5534 l 19.579633,-19.334 -2.018659,-10.8455 c -2.57519,-13.83555 -2.626268,-77.04075 -0.07516,-93.01523 l 1.94349,-12.16972 -19.504465,-19.25978 C 11.378635,232.0579 2.601626,221.27609 2.601626,218.69121 c 0,-5.2029 57.532152,-102.15672 65.080427,-109.67425 4.659559,-4.64059 5.296408,-4.60206 32.600287,1.97239 23.22483,5.59226 28.60256,6.17048 32.39379,3.48304 2.50025,-1.77231 11.19234,-8.08029 19.31577,-14.01771 17.46698,-12.766667 46.37313,-28.037912 67.03529,-35.415045 16.17911,-5.776525 14.57375,-3.30238 25.38626,-39.124727 2.9608,-9.809301 6.98211,-19.1101675 8.93623,-20.6685927 2.49214,-1.9875028 23.26459,-2.633879 69.57317,-2.1649078 L 388.94309,3.75 l 7.26311,22.5 c 10.55303,32.691693 10.94471,33.185898 32.9854,41.620307 22.35926,8.55632 43.68746,20.45054 67.50512,37.645963 9.30247,6.71604 18.51962,11.53957 20.813,10.89191 22.04527,-6.22576 48.3833,-11.33638 52.28709,-10.14576 4.1882,1.27736 69.75935,109.77724 70.03307,112.35831 0.0127,0.11959 0.079,0.51684 -0.0207,0.73662 -1.14407,2.52007 -9.55394,11.18496 -19.53071,21.5008 l -19.7216,20.39185 2.16062,20 c 2.74651,25.4237 2.75281,54.73103 0.0182,79.07175 l -2.14363,19.07178 19.70461,20.24712 c 10.83751,11.1359 18.42577,17.63827 19.39007,23.5287 1.25956,7.69396 -59.59701,102.14185 -64.48931,107.80645 -4.60885,5.33641 -10.06504,5.13478 -38.60665,-1.42665 l -24.0609,-5.53135 -7.15861,5.45375 c -20.20246,15.39118 -52.10435,34.23885 -71.37054,42.1658 -11.90296,4.8974 -22.99743,10.18875 -24.65436,11.75853 -1.65695,1.56977 -5.56805,11.85412 -8.69138,22.85412 -9.69335,34.139 -2.26094,31.25 -80.39516,31.25 -50.67554,0 -67.91159,-0.77067 -69.89069,-3.125 z M 392.84553,505.20647 c 43.26033,-14.00689 81.27355,-41.6243 104.19091,-75.69682 12.31266,-18.30598 13.49283,-29.43015 4.00536,-37.75402 -3.45143,-3.0281 -28.32947,-17.77723 -55.28456,-32.77585 -26.95511,-14.99863 -49.8694,-28.49863 -50.92066,-30 -1.05127,-1.50138 -1.92931,-7.29015 -1.95122,-12.86393 -0.0817,-20.80432 -17.32675,-43.27697 -40.28249,-52.49383 -12.37208,-4.96744 -34.32028,-4.46597 -47.01252,1.07416 -20.89507,9.12064 -37.62287,33.97682 -37.62287,55.90454 0,21.4022 16.3628,45.10363 37.72358,54.64238 13.85784,6.1883 35.78739,6.05855 50.3654,-0.298 6.23758,-2.7198 12.83548,-4.9451 14.66206,-4.9451 5.46352,0 77.21896,40.73747 78.82076,44.74865 2.34823,5.8803 -26.72276,29.36525 -50.16052,40.52208 -92.7802,44.16522 -201.16009,-8.15735 -221.45129,-106.91003 -5.11028,-24.87057 -3.26094,-49.80537 5.56848,-75.08032 8.56979,-24.53174 17.00403,-38.11601 35.29122,-56.84037 45.76752,-46.86165 118.15353,-59.47872 180.51031,-31.46342 20.44618,9.18594 24.75372,9.31541 34.97444,1.05118 6.35741,-5.14045 8.0045,-8.43092 8.0045,-15.99102 0,-12.70887 -11.12372,-22.05234 -38.15136,-32.0456 -49.00446,-18.11904 -103.97622,-17.62462 -150.99288,1.35804 -59.09075,23.85748 -106.17147,78.29655 -119.34084,137.99288 -4.86024,22.0313 -4.66672,63.73128 0.39871,85.9144 2.25981,9.89645 9.98037,29.7019 17.1568,44.01213 11.42179,22.7757 16.01676,28.88387 36.86687,49.00767 43.92936,42.3991 87.82598,59.45895 148.69685,57.78908 26.80021,-0.73523 34.71813,-1.98925 55.93496,-8.85888 z"
       id="path1017"
       sodipodi:nodetypes="cssscssssscsscsssssssssscsssssssscsccsssscsssssccssssssssssssssssssssssssssss" />
  </g>
</svg>
