<?xml version="1.0" encoding="UTF-8"?>
<svg version="1.1" viewBox="0 0 512 512" xmlns="http://www.w3.org/2000/svg" xmlns:xlink="http://www.w3.org/1999/xlink">
<defs>
<polygon id="a" points="0 46.021 0 3.7003 84.652 3.7003 84.652 88.342 0 88.342"/>
</defs>
<g fill="none" fill-rule="evenodd">
<g transform="translate(0 6)" fill="#004880" fill-rule="evenodd">
<path d="m374.42 454.86c-46.749 0-84.652-37.907-84.652-84.661 0-46.733 37.903-84.661 84.652-84.661s84.652 37.928 84.652 84.661c0 46.754-37.903 84.661-84.652 84.661m-168.86-194.04c-29.226 0-52.908-23.705-52.908-52.913 0-29.229 23.681-52.913 52.908-52.913 29.226 0 52.908 23.684 52.908 52.913 0 29.208-23.681 52.913-52.908 52.913m172.61-165.17h-141.28c-71.997 0-130.41 58.416-130.41 130.44v141.28c0 72.046 58.41 130.42 130.41 130.42h141.28c72.039 0 130.41-58.374 130.41-130.42v-141.28c0-72.025-58.368-130.44-130.41-130.44"/>
<mask id="b" fill="white">
<use xlink:href="#a"/>
</mask>
<path d="m84.652 46.012c0 23.388-18.962 42.33-42.326 42.33-23.385 0-42.326-18.943-42.326-42.33 0-23.366 18.941-42.33 42.326-42.33 23.364 0 42.326 18.964 42.326 42.33" mask="url(#b)"/>
</g>
</g>
</svg>
