<?xml version="1.0" encoding="UTF-8"?>
<svg clip-rule="evenodd" fill-rule="evenodd" stroke-linecap="round" stroke-linejoin="round" version="1.1" viewBox="0 0 32 32" xml:space="preserve" xmlns="http://www.w3.org/2000/svg">
<path d="m15.993 1.54c-7.972 0-14.461 6.492-14.461 14.462 0 7.969 6.492 14.461 14.461 14.461 7.97 0 14.462-6.492 14.462-14.461 0-7.97-6.492-14.462-14.462-14.462zm-0.021 1.285c0.511 0.013 0.924 0.439 0.924 0.951 0 0.522-0.43 0.952-0.952 0.952s-0.951-0.43-0.951-0.952 0.429-0.952 0.951-0.952c0.01 0 0.019 1e-3 0.028 1e-3zm2.178 1.566c3.379 0.633 6.313 2.723 8.016 5.709l-1.123 2.533c-0.193 0.438 6e-3 0.952 0.44 1.147l2.16 0.958c0.067 0.675 0.076 1.355 0.025 2.031h-1.202c-0.12 0-0.169 0.08-0.169 0.196v0.551c0 1.297-0.731 1.582-1.373 1.652-0.612 0.07-1.288-0.257-1.374-0.63-0.361-2.029-0.961-2.46-1.909-3.21 1.178-0.746 2.401-1.85 2.401-3.325 0-1.594-1.092-2.597-1.835-3.09-1.046-0.688-2.203-0.826-2.515-0.826h-12.421c1.717-1.918 4.02-3.218 6.55-3.696l1.466 1.536c0.33 0.346 0.878 0.361 1.223 0.028l1.64-1.564zm-13.522 7.043c0.511 0.015 0.924 0.44 0.924 0.951 0 0.522-0.43 0.952-0.952 0.952s-0.951-0.43-0.951-0.952 0.429-0.951 0.951-0.951h0.028zm22.685 0.043c0.511 0.015 0.924 0.44 0.924 0.951 0 0.522-0.43 0.952-0.952 0.952s-0.951-0.43-0.951-0.952 0.429-0.952 0.951-0.952c0.01 0 0.019 0 0.028 1e-3zm-20.892 0.153h1.658v7.477h-3.347c-0.414-1.452-0.542-2.97-0.38-4.47l2.05-0.912c0.438-0.195 0.637-0.706 0.441-1.144l-0.422-0.951zm6.92 0.079h3.949c0.205 0 1.441 0.236 1.441 1.163 0 0.768-0.948 1.043-1.728 1.043h-3.665l3e-3 -2.206zm0 5.373h3.026c0.275 0 1.477 0.079 1.86 1.615 0.119 0.471 0.385 2.007 0.566 2.499 0.18 0.551 0.911 1.652 1.691 1.652h4.938c-0.331 0.444-0.693 0.863-1.083 1.255l-2.01-0.432c-0.468-0.101-0.93 0.199-1.031 0.667l-0.477 2.228c-3.104 1.406-6.672 1.389-9.762-0.046l-0.478-2.228c-0.101-0.468-0.56-0.767-1.028-0.667l-1.967 0.423c-0.365-0.377-0.704-0.778-1.016-1.2h9.567c0.107 0 0.181-0.018 0.181-0.119v-3.384c0-0.097-0.074-0.119-0.181-0.119h-2.799l3e-3 -2.144zm-4.415 7.749c0.512 0.015 0.924 0.44 0.924 0.951 0 0.522-0.429 0.952-0.951 0.952s-0.952-0.43-0.952-0.952 0.43-0.952 0.952-0.952c9e-3 0 0.018 1e-3 0.027 1e-3zm14.089 0.043c0.511 0.015 0.924 0.439 0.923 0.951 0 0.522-0.429 0.952-0.951 0.952s-0.951-0.43-0.951-0.952 0.429-0.952 0.951-0.952c9e-3 0 0.018 0 0.028 1e-3z"/><path d="m29.647 16.002c0 7.49-6.163 13.653-13.654 13.653-7.49 0-13.654-6.163-13.654-13.653 0-7.491 6.164-13.654 13.654-13.654 7.491 0 13.654 6.163 13.654 13.654zm-0.257-1.319 2.13 1.319-2.13 1.318 1.83 1.71-2.344 0.878 1.463 2.035-2.475 0.404 1.04 2.282-2.506-0.089 0.575 2.442-2.441-0.576 0.089 2.506-2.283-1.04-0.403 2.475-2.035-1.462-0.878 2.343-1.71-1.829-1.319 2.129-1.318-2.129-1.71 1.829-0.878-2.343-2.035 1.462-0.404-2.475-2.282 1.04 0.089-2.506-2.442 0.576 0.575-2.442-2.505 0.089 1.04-2.282-2.475-0.404 1.462-2.035-2.343-0.878 1.829-1.71-2.129-1.318 2.129-1.319-1.829-1.71 2.343-0.878-1.462-2.035 2.475-0.404-1.04-2.282 2.505 0.089-0.575-2.441 2.442 0.575-0.089-2.506 2.282 1.04 0.404-2.475 2.035 1.463 0.878-2.344 1.71 1.83 1.318-2.13 1.319 2.13 1.71-1.83 0.878 2.344 2.035-1.463 0.403 2.475 2.283-1.04-0.089 2.506 2.441-0.575-0.575 2.441 2.506-0.089-1.04 2.282 2.475 0.404-1.463 2.035 2.344 0.878-1.83 1.71z"/></svg>