<?xml version="1.0" encoding="UTF-8"?>
<svg version="1.1" viewBox="0 0 36 36" xmlns="http://www.w3.org/2000/svg">
<g fill="none" fill-rule="evenodd">
<g transform="translate(-54 -32)">
<path d="m72 57.8c-4.3 0-7.7-3.6-7.7-8s3.4-7.9 7.7-7.9c3.5 0 6.4 2.4 7.3 5.7h3c-1-5-5.2-8.7-10.3-8.7-5.9 0-10.6 4.9-10.6 10.9 0 6.1 4.7 11 10.6 11 5.1 0 9.3-3.7 10.3-8.7h-3c-0.9 3.3-3.8 5.7-7.3 5.7" fill="#435363"/>
<path d="m66.8 55.2c1.3 1.4 3.1 2.3 5.2 2.3v-3.2c-1.2 0-2.3-0.5-3.1-1.3l-2.1 2.2" fill="#435363"/>
<path d="m64.6 49.8c0 1.1 0.3 2.2 0.6 3.1l2.9-1.3c-0.3-0.5-0.4-1.1-0.4-1.8 0-2.4 1.9-4.4 4.3-4.4v-3.2c-4.1 0-7.4 3.4-7.4 7.6" fill="#F38B00"/>
<path d="m74.6 42.7-1.1 3c0.9 0.4 1.7 1.1 2.2 1.9h3.3c-0.7-2.2-2.3-4-4.4-4.9" fill="#435363"/>
<path d="m73.5 54 1.1 2.9c2.1-0.8 3.7-2.6 4.4-4.8h-3.3c-0.5 0.8-1.3 1.5-2.2 1.9" fill="#F38B00"/>
<path d="m58.4 54.1c-0.1-0.2-0.1-0.3-0.1-0.5-0.1-0.2-0.1-0.3-0.2-0.5v-0.1c0-0.1 0-0.3-0.1-0.4v-0.2-0.3c-0.1-0.1-0.1-0.2-0.1-0.3-0.1-0.6-0.1-1.3-0.1-2h-2.9c0 0.8 0 1.5 0.1 2.2 0 0.2 0.1 0.4 0.1 0.6v0.1c0 0.2 0.1 0.4 0.1 0.5s0 0.2 0.1 0.3v0.3c0.1 0.1 0.1 0.2 0.1 0.4 0 0 0.1 0.1 0.1 0.2 0 0.2 0 0.3 0.1 0.4v0.2c0.2 0.7 0.5 1.3 0.7 2l2.7-1.2c-0.2-0.6-0.4-1.1-0.6-1.7" fill="#435363"/>
<path d="m72 64.6c-3.9 0-7.5-1.7-10.1-4.4l-2 2.2c3.1 3.2 7.3 5.2 12.1 5.2 8.7 0 15.8-6.8 16.9-15.5h-2.9c-1.1 7-7 12.5-14 12.5" fill="#F38B00"/>
<path d="m72 35.1c3.1 0 6.1 1.1 8.4 2.9l1.8-2.4c-2.9-2.2-6.4-3.5-10.2-3.5-7.3 0-13.5 4.7-15.9 11.3l2.7 1.1c2-5.5 7.2-9.4 13.2-9.4" fill="#F38B00"/>
<path d="m86 47.6h2.9c-0.3-2.6-1.2-5-2.5-7.2l-2.4 1.6c1 1.7 1.7 3.6 2 5.6" fill="#435363"/>
<path d="m82.7 47.6h2.9c-0.8-5.1-4.1-9.3-8.6-11.1l-1.1 2.8c3.5 1.3 6 4.5 6.8 8.3" fill="#F38B00"/>
<path d="m72 38.5v-3c-5.9 0-10.9 3.8-12.9 9.1l2.7 1.1c1.6-4.2 5.5-7.2 10.2-7.2" fill="#435363"/>
<path d="m61 49.8h-2.9c0 6.1 3.6 11.2 8.7 13.4l1.1-2.8c-4-1.7-6.9-5.8-6.9-10.6" fill="#F38B00"/>
<path d="m72 61.2v3c6.9 0 12.6-5.3 13.6-12.1h-2.9c-1 5.2-5.4 9.1-10.7 9.1" fill="#435363"/>
</g>
</g>
</svg>
