
CASCADE Topology V1, (c) Matra-Datavision
Locations 10
1
0.000000000000000 -0.000000000000000 1.000000000000000 -0.000000000007634 
-0.000000000000103 -1.000000000000000 0.000000000000000 0.000000000000000 
1.000000000000000 -0.000000000000103 -0.000000000000000 0.000000000000000 
1
1.000000000000000 0.000000000000000 0.000000000000000 0.000000000000000 
0.000000000000000 -0.000000000000103 -1.000000000000000 0.000000000000000 
0.000000000000000 1.000000000000000 -0.000000000000103 0.000000000000000 
2  1 1 2 -1 0
1
1.000000000000000 0.000000000000000 0.000000000000000 -49.000000000000000 
0.000000000000000 1.000000000000000 0.000000000000000 0.000000000000011 
0.000000000000000 0.000000000000000 1.000000000000000 -0.000000000000000 
2  1 1 2 -1 4 1 0
2  1 -1 0
2  2 1 1 -1 0
2  4 -1 2 1 1 -1 0
2  2 -1 0
2  2 -1 4 1 0
Curve2ds 7
1 0.00000000000000000 0.00000000000000000 0.00000000000000000 -1.00000000000000000 
1 2.50000000000258282 -24.99999999999974065 -0.00000000000010347 1.00000000000000000 
1 0.00000000000000000 0.00000000000000000 0.00000000000000000 -1.00000000000000000 
1 5.00000000000000000 0.00000000000000000 0.00000000000000000 -1.00000000000000000 
1 0.00000000000000000 0.00000000000000000 1.00000000000000000 0.00000000000000000 
1 0.00000000000000022 -49.00000000000000000 1.00000000000000000 0.00000000000000000 
1 2.49999999999741007 25.00000000000025935 -1.00000000000000000 -0.00000000000010347 
Curves 8
1 -0.00000000000762827 25.00000000000099831 -25.00000000000000000 -1.00000000000000000 0.00000000000000022 -0.00000000000000000 
1 -0.00000000000762716 30.00000000000099831 -25.00000000000000000 -1.00000000000000000 0.00000000000000022 -0.00000000000000000 
1 25.00000000000099831 -25.00000000000000000 0.00000000000000000 1.00000000000000000 0.00000000000000000 0.00000000000000000 
1 -0.00000000000762716 30.00000000000099831 25.00000000000000000 -1.00000000000000000 0.00000000000000022 -0.00000000000000000 
1 30.00000000000099831 -25.00000000000000000 0.00000000000000000 0.00000000000000000 1.00000000000000000 0.00000000000000000 
1 -0.00000000000762827 25.00000000000099831 25.00000000000000000 -1.00000000000000000 0.00000000000000022 -0.00000000000000000 
1 30.00000000000099831 25.00000000000000000 0.00000000000000000 -1.00000000000000000 0.00000000000000000 0.00000000000000000 
1 25.00000000000099831 25.00000000000000000 0.00000000000000000 0.00000000000000000 -1.00000000000000000 0.00000000000000000 
Polygon3D 0
PolygonOnTriangulations 0
Surfaces 5
1 -0.00000000000762827 25.00000000000099831 -25.00000000000000000 0.00000000000000000 -0.00000000000000000 -1.00000000000000000 0.00000000000000022 1.00000000000000000 0.00000000000000000 1.00000000000000000 -0.00000000000000022 0.00000000000000000 
1 -0.00000000000762716 30.00000000000099831 -25.00000000000000000 0.00000000000000022 1.00000000000000000 0.00000000000000000 -0.00000000000000000 0.00000000000000000 1.00000000000000000 1.00000000000000000 -0.00000000000000022 0.00000000000000000 
1 -0.00000000000762716 30.00000000000099831 25.00000000000000000 -0.00000000000000000 0.00000000000000000 1.00000000000000000 -0.00000000000000022 -1.00000000000000000 0.00000000000000000 1.00000000000000000 -0.00000000000000022 0.00000000000000000 
1 -0.00000000000762771 -0.00000000000284631 27.50000000000100187 1.00000000000000000 0.00000000000000000 -0.00000000000000022 0.00000000000000022 0.00000000000000000 1.00000000000000000 0.00000000000000000 -1.00000000000000000 0.00000000000000000 
1 -0.00000000000762827 25.00000000000099831 25.00000000000000000 -0.00000000000000022 -1.00000000000000000 -0.00000000000000000 0.00000000000000000 0.00000000000000000 -1.00000000000000000 1.00000000000000000 -0.00000000000000022 0.00000000000000000 
Triangulations 0

TShapes 24
Ve
0.000000100000000
25.000000000000998 -25.000000000000000 0.000000000000000
0 0

0101101
*
Ed
 0.000000100000000 1 1 0
1  1 0 0.000000000000000 49.000000000000000
0

0101000
+24 3 -24 5 *
Ve
0.000000100000000
30.000000000000998 -25.000000000000000 0.000000000000000
0 0

0101101
*
Ed
 0.000000100000000 1 1 0
1  2 0 0.000000000000000 49.000000000000000
0

0101000
+22 3 -22 5 *
Ed
 0.000000100000000 1 1 0
1  3 0 0.000000000000000 5.000000000000000
0

0101000
+24 0 -22 0 *
Wi

0101100
+23 0 -21 0 -20 3 +20 5 *
Fa
0  0.000000100000000 1 0

0111000
+19 0 *
Ve
0.000000100000000
30.000000000000998 25.000000000000000 0.000000000000000
0 0

0101101
*
Ed
 0.000000100000000 1 1 0
1  4 0 0.000000000000000 49.000000000000000
2  1 3 0 0.000000000000000 49.000000000000000
0

0101000
+17 3 -17 5 *
Ed
 0.000000100000000 1 1 0
1  5 0 0.000000000000000 50.000000000000000
2  2 4 6 0.000000000000000 50.000000000000000
0

0101000
+22 0 -17 0 *
Wi

0101100
+21 0 -16 0 -15 3 +15 5 *
Fa
0  0.000000100000000 2 0

0111000
+14 0 *
Ve
0.000000212133034
25.000000000000998 25.000000000000000 0.000000000000000
0 0

0101101
*
Ed
 0.000000100000000 1 1 0
1  6 0 0.000000000000000 49.000000000000000
2  3 5 0 0.000000000000000 49.000000000000000
2  4 3 0 0.000000000000000 49.000000000000000
0

0101000
+12 3 -12 5 *
Ed
 0.000000100000000 1 1 0
1  7 0 0.000000000000000 5.000000000000000
2  5 3 7 0.000000000000000 5.000000000000000
2  6 3 8 0.000000000000000 5.000000000000000
2  7 4 6 0.000000000000000 5.000000000000000
0

0101000
+17 0 -12 0 *
Wi

0101100
+16 0 -11 0 -10 3 +10 5 *
Fa
0  0.000000100000000 3 0

0111000
+9 0 *
Ed
 0.000000100000000 1 1 0
1  8 0 0.000000000000000 50.000000000000000
0

0101000
+12 0 -24 0 *
Wi

0101100
+11 0 -23 0 -7 3 +7 5 *
Fa
0  0.000000100000000 5 0

0111000
+6 0 *
Wi

0101100
+20 0 +15 0 +10 0 +7 0 *
Fa
0  0.000000100000000 4 0

0111000
+4 1 *
Sh

0101100
+18 0 +13 0 +8 0 +5 0 +3 9 -3 10 *
So

1100000
+2 0 *

+1 0 