
CASCADE Topology V1, (c) Matra-Datavision
Locations 33
1
1.000000000000000 0.000000000000000 0.000000000000000 0.000000000000000 
0.000000000000000 -0.000000000000103 -1.000000000000000 0.000000000000000 
0.000000000000000 1.000000000000000 -0.000000000000103 0.000000000000000 
1
1.000000000000000 0.000000000000000 0.000000000000000 0.000000000000000 
0.000000000000000 -0.000000000000103 -1.000000000000000 0.000000000000000 
0.000000000000000 1.000000000000000 -0.000000000000103 0.000000000000000 
1
1.000000000000000 0.000000000000000 0.000000000000000 0.000000000000000 
0.000000000000000 -0.000000000000103 -1.000000000000000 0.000000000000000 
0.000000000000000 1.000000000000000 -0.000000000000103 0.000000000000000 
2  2 1 3 -1 0
1
-1.000000000000000 0.000000000000000 0.000000000000000 0.000000000000000 
0.000000000000000 -0.000000000000103 1.000000000000000 22.000000000000000 
0.000000000000000 1.000000000000000 0.000000000000103 0.000000000002276 
1
1.000000000000000 0.000000000000000 0.000000000000000 0.000000000000000 
0.000000000000000 -0.000000000000103 -1.000000000000000 0.000000000000000 
0.000000000000000 1.000000000000000 -0.000000000000103 0.000000000000000 
1
1.000000000000000 0.000000000000000 0.000000000000000 -0.000000000000000 
0.000000000000000 1.000000000000000 0.000000000000000 -0.000000000000000 
0.000000000000000 0.000000000000000 1.000000000000000 3.000000000000000 
2  5 1 6 -1 7 1 2 1 3 -1 0
2  3 1 2 -1 7 -1 6 1 5 -1 0
2  5 1 6 -1 7 1 0
1
1.000000000000000 0.000000000000000 0.000000000000000 0.000000000000000 
0.000000000000000 1.000000000000000 0.000000000000000 0.000000000000000 
0.000000000000000 0.000000000000000 1.000000000000000 -6.000000000000000 
2  5 1 6 -1 7 1 11 1 0
2  5 1 6 -1 7 1 11 1 2 1 3 -1 0
2  3 1 2 -1 11 -1 7 -1 6 1 5 -1 0
1
0.000000000000000 -0.000000000000000 1.000000000000000 -0.000000000007634 
-0.000000000000103 -1.000000000000000 0.000000000000000 0.000000000000000 
1.000000000000000 -0.000000000000103 -0.000000000000000 0.000000000000000 
1
1.000000000000000 0.000000000000000 0.000000000000000 -49.000000000000000 
0.000000000000000 1.000000000000000 0.000000000000000 0.000000000000011 
0.000000000000000 0.000000000000000 1.000000000000000 -0.000000000000000 
2  15 1 3 -1 16 1 0
2  15 -1 0
1
1.000000000000000 0.000000000000000 0.000000000000000 0.000000000000000 
0.000000000000000 1.000000000000000 0.000000000000000 0.000000000000000 
0.000000000000000 0.000000000000000 1.000000000000000 0.000000000000000 
1
1.000000000000000 0.000000000000000 0.000000000000000 0.000000000000000 
0.000000000000000 1.000000000000000 0.000000000000000 0.000000000000000 
0.000000000000000 0.000000000000000 1.000000000000000 0.000000000000000 
1
1.000000000000000 0.000000000000000 0.000000000000000 0.000000000000000 
0.000000000000000 1.000000000000000 0.000000000000000 0.000000000000000 
0.000000000000000 0.000000000000000 1.000000000000000 0.000000000000000 
2  19 -1 20 -1 21 -1 16 -1 3 1 15 -1 0
2  16 -1 3 1 15 -1 0
2  6 -1 7 1 2 1 3 -1 0
2  7 -1 6 1 5 -1 0
2  11 -1 7 -1 6 1 5 -1 0
2  6 -1 7 1 11 1 2 1 3 -1 0
2  3 -1 16 1 0
2  3 1 15 -1 0
2  15 1 3 -1 0
2  2 -1 0
2  3 1 2 -1 0
2  3 -1 0
Curve2ds 28
1 7.85398163397399962 0.00000000000000000 0.00000000000000000 -1.00000000000000000 
1 -2.50000000000258993 24.99999999999974065 0.00000000000010347 -1.00000000000000000 
1 44.00000000000000000 -0.00000000000000555 -0.00000000000000000 -1.00000000000000000 
1 0.00000000000000000 0.00000000000000000 1.00000000000000000 0.00000000000000000 
1 0.00000000000000000 -6.00000000000000000 1.00000000000000000 0.00000000000000000 
1 0.00000000000000000 0.00000000000000000 1.00000000000000000 0.00000000000000000 
1 0.00000000000000000 -6.00000000000000000 1.00000000000000000 0.00000000000000000 
1 0.00000000000000000 0.00000000000000000 1.00000000000000000 0.00000000000000000 
1 0.00000000000000000 -6.00000000000000000 1.00000000000000000 0.00000000000000000 
1 4.71238898038499965 0.00000000000000000 0.00000000000000000 -1.00000000000000000 
1 -2.49999999999741718 -25.00000000000025935 1.00000000000000000 0.00000000000010347 
1 2.50000000000258282 -24.99999999999974065 -0.00000000000010347 1.00000000000000000 
1 0.00000000000000000 0.00000000000000000 1.00000000000000000 0.00000000000000000 
1 0.00000000000000022 -49.00000000000000000 1.00000000000000000 0.00000000000000000 
1 2.49999999999741007 25.00000000000025935 -1.00000000000000000 -0.00000000000010347 
1 -0.00000000000000000 -48.99999999999999289 1.00000000000000000 0.00000000000000000 
1 -2.50000000000258993 24.99999999999974065 0.00000000000010347 -1.00000000000000000 
1 0.00000000000000000 0.00000000000000000 1.00000000000000000 0.00000000000000000 
1 -2.50000000000258993 24.99999999999974065 0.00000000000010347 -1.00000000000000000 
1 0.00000000000000000 0.00000000000000000 0.00000000000000000 -1.00000000000000000 
1 5.00000000000000000 0.00000000000000000 0.00000000000000000 -1.00000000000000000 
1 4.71238898038499965 0.00000000000000000 0.00000000000000000 -1.00000000000000000 
1 7.85398163397399962 0.00000000000000000 0.00000000000000000 -1.00000000000000000 
1 -2.50000000000003553 -19.00000000000025935 0.00000000000010347 -1.00000000000000000 
1 0.00000000000000000 0.00000000000000000 0.00000000000000000 -1.00000000000000000 
1 6.28318530717958623 0.00000000000000000 0.00000000000000000 -1.00000000000000000 
1 -2.49999999999741718 -25.00000000000025935 1.00000000000000000 0.00000000000010347 
1 0.00000000000000000 0.00000000000000000 0.00000000000000000 -1.00000000000000000 
Curves 21
1 0.00000000000763382 24.99999999999900169 0.00000000000000000 1.00000000000000000 0.00000000000000000 0.00000000000000000 
1 -50.00000000001208633 24.99999999999900169 -19.00000000000000000 0.00000000000000000 0.00000000000000000 -1.00000000000000000 
1 25.00000000000099831 25.00000000000000000 0.00000000000000000 0.00000000000000000 -1.00000000000000000 0.00000000000000000 
2 50.00000000000000000 -0.00000000000100000 0.00000000000000000 0.00000000000000000 0.00000000000000000 1.00000000000000000 1.00000000000000000 0.00000000000000000 -0.00000000000000000 -0.00000000000000000 1.00000000000000000 0.00000000000000000 25.00000000000000000
1 50.00000000000774492 -25.00000000000099831 0.00000000000000000 -1.00000000000000000 0.00000000000000000 0.00000000000000000 
1 0.00000000000000000 -25.00000000000099831 0.00000000000000000 0.00000000000053107 1.00000000000000000 0.00000000000000000 
2 0.00000000000000000 0.00000000000000000 0.00000000000000000 0.00000000000000000 0.00000000000000000 1.00000000000000000 1.00000000000000000 0.00000000000000000 -0.00000000000000000 -0.00000000000000000 1.00000000000000000 0.00000000000000000 15.78947368421099995
1 0.00000000000763382 15.78947368421099995 0.00000000000000000 0.00000000000000000 1.00000000000000000 0.00000000000000000 
2 50.00000000000000000 -0.00000000000100000 0.00000000000000000 0.00000000000000000 0.00000000000000000 1.00000000000000000 1.00000000000000000 0.00000000000000000 -0.00000000000000000 -0.00000000000000000 1.00000000000000000 0.00000000000000000 10.00000000000000000
1 -50.00000000000774492 -25.00000000000099831 -19.00000000000000000 0.00000000000000000 0.00000000000000000 -1.00000000000000000 
1 25.00000000000099831 -25.00000000000000000 0.00000000000000000 1.00000000000000000 0.00000000000000000 0.00000000000000000 
1 30.00000000000099831 -25.00000000000000000 0.00000000000000000 0.00000000000000000 1.00000000000000000 0.00000000000000000 
1 30.00000000000099831 25.00000000000000000 0.00000000000000000 -1.00000000000000000 0.00000000000000000 0.00000000000000000 
1 -0.00000000000762827 25.00000000000099831 25.00000000000000000 -1.00000000000000000 0.00000000000000022 -0.00000000000000000 
1 0.00000000000000000 -25.00000000000099831 -19.00000000000000000 0.00000000000000000 0.00000000000000000 -1.00000000000000000 
1 -0.00000000000489143 -15.78947368421099995 -19.00000000000000000 0.00000000000000000 0.00000000000000000 -1.00000000000000000 
1 -0.00000000000763382 15.78947368421099995 -19.00000000000000000 0.00000000000000000 0.00000000000000000 -1.00000000000000000 
1 -0.00000000000763382 24.99999999999900169 -19.00000000000000000 0.00000000000000000 0.00000000000000000 -1.00000000000000000 
1 -60.00000000000000000 -0.00000000000100000 -19.00000000000000000 0.00000000000000000 0.00000000000000000 -1.00000000000000000 
1 -0.00000000000762716 30.00000000000099831 -25.00000000000000000 -1.00000000000000000 0.00000000000000022 -0.00000000000000000 
1 -0.00000000000762716 30.00000000000099831 25.00000000000000000 -1.00000000000000000 0.00000000000000022 -0.00000000000000000 
Polygon3D 0
PolygonOnTriangulations 0
Surfaces 14
1 -0.00000000000763382 24.99999999999900169 -19.00000000000000000 0.00000000000000000 1.00000000000000000 0.00000000000000000 -1.00000000000000000 0.00000000000000000 0.00000000000000000 0.00000000000000000 -0.00000000000000000 1.00000000000000000 
2 -50.00000000000000000 -0.00000000000100000 -19.00000000000000000 -0.00000000000000000 -0.00000000000000000 1.00000000000000000 -1.00000000000000000 0.00000000000000000 0.00000000000000000 0.00000000000000000 1.00000000000000000 0.00000000000000000 25.00000000000000000
1 -0.00000000000762771 -0.00000000000284631 27.50000000000100187 1.00000000000000000 0.00000000000000000 -0.00000000000000022 0.00000000000000022 0.00000000000000000 1.00000000000000000 0.00000000000000000 -1.00000000000000000 0.00000000000000000 
1 -49.00000000000763123 27.50000000000101252 0.00000000000000080 1.00000000000000000 -0.00000000000000022 0.00000000000000000 0.00000000000000022 1.00000000000000000 -0.00000000000010347 0.00000000000000000 0.00000000000010347 1.00000000000000000 
1 -32.24536711117904986 22.00000000000000000 0.00000000000045804 0.00000000000000000 -1.00000000000000000 -0.00000000000010346 0.00000000000000000 0.00000000000010346 -1.00000000000000000 1.00000000000000000 0.00000000000000000 0.00000000000000000 
1 -0.00000000000762827 25.00000000000099831 25.00000000000000000 -0.00000000000000022 -1.00000000000000000 -0.00000000000000000 0.00000000000000000 0.00000000000000000 -1.00000000000000000 1.00000000000000000 -0.00000000000000022 0.00000000000000000 
2 0.00000000000000000 0.00000000000000000 -19.00000000000000000 -0.00000000000000000 -0.00000000000000000 1.00000000000000000 -1.00000000000000000 0.00000000000000000 0.00000000000000000 0.00000000000000000 1.00000000000000000 0.00000000000000000 15.78947368421099995
2 -50.00000000000000000 -0.00000000000100000 -19.00000000000000000 -0.00000000000000000 -0.00000000000000000 1.00000000000000000 -1.00000000000000000 0.00000000000000000 0.00000000000000000 0.00000000000000000 1.00000000000000000 0.00000000000000000 10.00000000000000000
1 -50.00000000000774492 -25.00000000000099831 -19.00000000000000000 0.00000000000000000 -1.00000000000000000 0.00000000000000000 1.00000000000000000 0.00000000000000000 0.00000000000000000 -0.00000000000000000 0.00000000000000000 1.00000000000000000 
1 -0.00000000000762716 30.00000000000099831 25.00000000000000000 -0.00000000000000000 0.00000000000000000 1.00000000000000000 -0.00000000000000022 -1.00000000000000000 0.00000000000000000 1.00000000000000000 -0.00000000000000022 0.00000000000000000 
1 0.00000000000000000 -25.00000000000099831 -19.00000000000000000 1.00000000000000000 0.00000000000053107 0.00000000000000000 -0.00000000000053107 1.00000000000000000 0.00000000000000000 0.00000000000000000 -0.00000000000000000 1.00000000000000000 
1 -0.00000000000763382 15.78947368421099995 -19.00000000000000000 1.00000000000000000 -0.00000000000000000 0.00000000000000000 0.00000000000000000 1.00000000000000000 0.00000000000000000 -0.00000000000000000 0.00000000000000000 1.00000000000000000 
1 -0.00000000000762827 25.00000000000099831 -25.00000000000000000 0.00000000000000000 -0.00000000000000000 -1.00000000000000000 0.00000000000000022 1.00000000000000000 0.00000000000000000 1.00000000000000000 -0.00000000000000022 0.00000000000000000 
1 -0.00000000000762716 30.00000000000099831 -25.00000000000000000 0.00000000000000022 1.00000000000000000 0.00000000000000000 -0.00000000000000000 0.00000000000000000 1.00000000000000000 1.00000000000000000 -0.00000000000000022 0.00000000000000000 
Triangulations 0

TShapes 75
Ve
0.000100000000000
-49.000000000007624 25.000000000000007 -19.000000000000000
0 0

0101101
*
Ve
0.000000100000000
50.000000000012086 24.999999999999002 0.000000000000000
0 0

0101101
*
Ed
 0.000000100000000 1 1 0
1  1 0 48.999999999999993 50.000000000004455
0

0101000
+75 9 -74 0 *
Ed
 0.000000100000000 1 1 0
1  2 0 0.000000000000000 6.000000000000000
2  1 2 0 0.000000000000000 6.000000000000000
4 G1 1 0 2 0
0

0101000
+74 10 -74 12 *
Ve
0.000000212133034
-49.000000000007624 25.000000000001009 -25.000000000000000
0 0

0101101
*
Ed
 0.000000100000000 1 1 0
1  1 0 48.999999999999993 50.000000000004455
0

0101000
+71 14 -74 0 *
Ed
 0.000000100002007 1 1 0
1  3 0 44.000000000000000 50.000000000000000
2  2 3 18 44.000000000000000 50.000000000000000
2  2 4 22 44.000000000000000 50.000000000000000
0

0101000
+75 23 -71 23 *
Wi

0101100
-73 8 -72 4 +70 13 +69 17 *
Fa
0  0.000000100000000 1 4

0101000
+68 0 *
Ve
0.000001000019966
-0.000000000007634 24.999999999999002 -19.000000000000000
0 0

0101101
*
Ed
 0.000000100002007 1 1 0
1  1 0 0.000000000000000 48.999999999999993
2  3 6 9 0.000000000000000 48.999999999999993
0

0101000
+66 9 -75 9 *
Ve
0.000000100000000
50.000000000007745 -25.000000000000998 0.000000000000000
0 0

0101101
*
Ed
 0.000000100000000 1 1 0
1  4 0 4.712388980385000 7.853981633974000
2  4 2 25 4.712388980385000 7.853981633974000
2  5 2 26 4.712388980385000 7.853981633974000
0

0101000
+64 0 -74 0 *
Ve
0.000000100000000
0.000000000000000 -25.000000000000998 0.000000000000000
0 0

0101101
*
Ed
 0.000000100000000 1 1 0
1  5 0 0.000000000000000 50.000000000007745
0

0101000
+64 0 -62 0 *
Ve
0.000000100000000
0.000000000004891 -15.789473684211000 0.000000000000000
0 0

0101101
*
Ed
 0.000000100000000 1 1 0
1  6 0 0.000000000000000 9.210526315789998
0

0101000
+62 0 -60 0 *
Ve
0.000000100000000
0.000000000007634 15.789473684211000 0.000000000000000
0 0

0101101
*
Ed
 0.000000100000000 1 1 0
1  7 0 4.712388980385000 7.853981633974000
2  6 7 25 4.712388980385000 7.853981633974000
2  7 7 26 4.712388980385000 7.853981633974000
0

0101000
+60 0 -58 0 *
Ed
 0.000000100000000 1 1 0
1  8 0 0.000000000000000 9.210526315788002
0

0101000
+58 0 -66 9 *
Wi

0101100
+65 8 +73 8 -63 8 +61 8 +59 8 +57 8 +56 8 *
Ve
0.000000100000000
60.000000000000000 -0.000000000001000 0.000000000000000
0 0

0101101
*
Ed
 0.000000100000000 1 1 0
1  9 0 0.000000000000000 6.283185307179586
2  8 8 25 0.000000000000000 6.283185307179586
2  9 8 26 0.000000000000000 6.283185307179586
0

0101000
+54 0 -54 0 *
Wi

0101100
+53 8 *
Fa
0  0.000000100000000 5 24

0101000
+55 0 +52 0 *
Ed
 0.000000100000000 1 1 0
1  10 0 0.000000000000000 6.000000000000000
2  10 2 0 0.000000000000000 6.000000000000000
4 G1 2 0 9 0
0

0101000
+64 10 -64 12 *
Wi

0101100
+50 0 -72 0 -63 10 +63 12 *
Fa
0  0.000000100000000 2 0

0101000
+49 0 *
Ve
0.000000100002007
-0.000000000007631 25.000000000000000 -25.000000000000000
0 0

0101101
*
Ed
 0.000000100002007 1 1 0
1  1 0 0.000000000000000 48.999999999999993
0

0101000
+47 14 -71 14 *
Ed
 0.000000100000000 1 1 0
1  8 0 0.000000000000000 9.210526315788002
0

0101000
+58 0 -47 14 *
Wi

0101100
+46 13 +70 13 -63 13 +61 13 +59 13 +57 13 +45 13 *
Wi

0101100
+53 13 *
Fa
0  0.000000100000000 5 27

0101000
+44 0 +43 0 *
Ve
0.000000100000000
30.000000000000998 -25.000000000000000 0.000000000000000
0 0

0101101
*
Ed
 0.000000100000000 1 1 0
1  11 0 0.000000000000000 5.000000000000000
2  11 3 18 0.000000000000000 5.000000000000000
0

0101000
+71 23 -41 0 *
Ve
0.000000100000000
30.000000000000998 25.000000000000000 0.000000000000000
0 0

0101101
*
Ed
 0.000000100000000 1 1 0
1  12 0 0.000000000000000 50.000000000000000
2  12 3 18 0.000000000000000 50.000000000000000
0

0101000
+41 0 -39 0 *
Ve
0.000000212133034
25.000000000000998 25.000000000000000 0.000000000000000
0 0

0101101
*
Ed
 0.000000100000000 1 1 0
1  13 0 0.000000000000000 5.000000000000000
2  13 10 29 0.000000000000000 5.000000000000000
2  14 10 23 0.000000000000000 5.000000000000000
2  15 3 18 0.000000000000000 5.000000000000000
0

0101000
+39 0 -37 0 *
Ed
 0.000000100000000 1 1 0
1  3 0 0.000000000000000 44.000000000000000
2  16 6 23 0.000000000000000 44.000000000000000
2  17 3 18 0.000000000000000 44.000000000000000
0

0101000
+37 0 -75 23 *
Wi

0101100
+40 17 +38 17 +36 17 +35 17 +69 17 *
Fa
0  0.000000100000000 3 28

0101000
+34 0 *
Ed
 0.000000100000000 1 1 0
1  3 0 0.000000000000000 44.000000000000000
2  18 6 29 0.000000000000000 44.000000000000000
2  19 3 18 0.000000000000000 44.000000000000000
0

0101000
+37 0 -66 29 *
Ed
 0.000000100000000 1 1 0
1  14 0 0.000000000000000 49.000000000000000
2  20 6 0 0.000000000000000 49.000000000000000
2  21 10 0 0.000000000000000 49.000000000000000
0

0101000
+37 30 -37 17 *
Wi

0101100
-32 30 -65 8 +35 17 +31 0 *
Fa
0  0.000000100000000 6 0

0101000
+30 0 *
Ed
 0.000000100000000 1 1 0
1  15 0 0.000000000000000 6.000000000000000
0

0101000
+62 10 -62 12 *
Wi

0101100
+50 0 -28 0 -61 10 +61 12 *
Fa
0  0.000000100000000 9 0

0101000
+27 0 *
Ed
 0.000000100000000 1 1 0
1  16 0 0.000000000000000 6.000000000000000
2  22 7 0 0.000000000000000 6.000000000000000
0

0101000
+60 10 -60 12 *
Wi

0101100
+28 0 -25 0 -59 10 +59 12 *
Fa
0  0.000000100000000 11 0

0101000
+24 0 *
Ed
 0.000000100000000 1 1 0
1  17 0 0.000000000000000 6.000000000000000
2  23 7 0 0.000000000000000 6.000000000000000
0

0101000
+58 10 -58 12 *
Wi

0101100
+25 0 -22 0 -57 10 +57 12 *
Fa
0  0.000000100000000 7 0

0101000
+21 0 *
Ed
 0.000000100001997 1 1 0
1  18 0 0.000000000000000 6.000000000000000
2  24 3 31 0.000000000000000 6.000000000000000
0

0101000
+66 32 -47 32 *
Wi

0101100
+22 4 -19 4 -56 8 +45 13 *
Fa
0  0.000000100000000 12 4

0101000
+18 0 *
Ed
 0.000000100000000 1 1 0
1  19 0 0.000000000000000 6.000000000000000
3  25 26CN 8 0 0.000000000000000 6.000000000000000
0

0101000
+54 10 -54 12 *
Wi

0101100
+16 0 -16 0 -53 10 +53 12 *
Fa
0  0.000000100000000 8 0

0101000
+15 0 *
Ed
 0.000000100000000 1 1 0
1  20 0 0.000000000000000 49.000000000000000
0

0101000
+41 30 -41 17 *
Ed
 0.000000100000000 1 1 0
1  11 0 0.000000000000000 5.000000000000000
2  27 3 18 0.000000000000000 5.000000000000000
0

0101000
+47 29 -41 0 *
Wi

0101100
+46 13 -13 0 -12 30 +40 17 *
Fa
0  0.000000100000000 13 0

0101000
+11 0 *
Ed
 0.000000100000000 1 1 0
1  21 0 0.000000000000000 49.000000000000000
2  28 10 0 0.000000000000000 49.000000000000000
0

0101000
+39 30 -39 17 *
Wi

0101100
+13 0 -9 0 -38 30 +38 17 *
Fa
0  0.000000100000000 14 0

0101000
+8 0 *
Wi

0101100
+9 0 -31 0 -36 30 +36 17 *
Fa
0  0.000000100000000 10 0

0101000
+6 0 *
Wi

0101100
+12 30 +38 30 +36 30 +32 30 +19 4 *
Fa
0  0.000000100000000 3 33

0101000
+4 0 *
Sh

0101100
+67 0 +51 0 -48 4 -42 0 -33 0 +29 0 +26 4 +23 4 +20 4 +17 0 
+14 4 +10 0 +7 0 +5 0 +3 0 *
So

0100000
+2 0 *

+1 1 