
CASCADE Topology V1, (c) Matra-Datavision
Locations 73
1
1.000000000000000 0.000000000000000 0.000000000000000 0.000000000000000 
0.000000000000000 -0.000000000000103 -1.000000000000000 0.000000000000000 
0.000000000000000 1.000000000000000 -0.000000000000103 0.000000000000000 
1
1.000000000000000 0.000000000000000 0.000000000000000 0.000000000000000 
0.000000000000000 1.000000000000000 0.000000000000000 0.000000000000000 
0.000000000000000 0.000000000000000 1.000000000000000 0.000000000000000 
1
1.000000000000000 0.000000000000000 0.000000000000000 0.000000000000000 
0.000000000000000 1.000000000000000 0.000000000000000 0.000000000000000 
0.000000000000000 0.000000000000000 1.000000000000000 0.000000000000000 
2  2 1 3 1 0
2  3 -1 2 -1 0
1
0.000000000000000 -0.000000000000000 1.000000000000000 -0.000000000007634 
-0.000000000000103 -1.000000000000000 0.000000000000000 0.000000000000000 
1.000000000000000 -0.000000000000103 -0.000000000000000 0.000000000000000 
1
1.000000000000000 0.000000000000000 0.000000000000000 0.000000000000000 
0.000000000000000 -0.000000000000103 -1.000000000000000 0.000000000000000 
0.000000000000000 1.000000000000000 -0.000000000000103 0.000000000000000 
1
1.000000000000000 0.000000000000000 0.000000000000000 -49.000000000000000 
0.000000000000000 1.000000000000000 0.000000000000000 0.000000000000011 
0.000000000000000 0.000000000000000 1.000000000000000 -0.000000000000000 
1
1.000000000000000 0.000000000000000 0.000000000000000 0.000000000000000 
0.000000000000000 1.000000000000000 0.000000000000000 0.000000000000000 
0.000000000000000 0.000000000000000 1.000000000000000 0.000000000000000 
2  6 1 7 -1 8 1 9 1 2 1 3 1 0
2  8 -1 7 1 6 -1 0
2  6 -1 0
2  3 -1 2 -1 9 -1 8 -1 7 1 6 -1 0
2  7 -1 8 1 9 1 2 1 3 1 0
1
1.000000000000000 0.000000000000000 0.000000000000000 0.000000000000000 
0.000000000000000 -0.000000000000103 -1.000000000000000 0.000000000000000 
0.000000000000000 1.000000000000000 -0.000000000000103 0.000000000000000 
1
1.000000000000000 0.000000000000000 0.000000000000000 -0.000000000000000 
0.000000000000000 1.000000000000000 0.000000000000000 -0.000000000000000 
0.000000000000000 0.000000000000000 1.000000000000000 3.000000000000000 
1
1.000000000000000 0.000000000000000 0.000000000000000 0.000000000000000 
0.000000000000000 1.000000000000000 0.000000000000000 0.000000000000000 
0.000000000000000 0.000000000000000 1.000000000000000 0.000000000000000 
2  15 -1 16 1 17 1 2 1 3 1 0
1
1.000000000000000 0.000000000000000 0.000000000000000 0.000000000000000 
0.000000000000000 -0.000000000000103 -1.000000000000000 0.000000000000000 
0.000000000000000 1.000000000000000 -0.000000000000103 0.000000000000000 
2  15 -1 16 1 19 1 7 -1 9 1 2 1 3 1 0
2  9 1 2 1 3 1 0
2  9 -1 8 -1 7 1 6 -1 0
2  7 1 6 -1 0
2  2 -1 9 -1 8 -1 7 1 6 -1 0
2  7 -1 8 1 9 1 2 1 0
2  3 -1 0
2  6 1 7 -1 9 1 2 1 3 1 0
2  3 -1 2 -1 9 -1 7 1 6 -1 0
2  17 1 2 1 3 1 0
2  19 1 7 -1 9 1 2 1 3 1 0
2  15 -1 16 1 17 1 0
1
-1.000000000000000 0.000000000000000 0.000000000000000 0.000000000000000 
0.000000000000000 -0.000000000000103 1.000000000000000 22.000000000000000 
0.000000000000000 1.000000000000000 0.000000000000103 0.000000000002276 
2  32 1 15 -1 16 1 17 1 2 1 3 1 0
2  16 -1 15 1 32 -1 0
2  32 -1 0
2  3 -1 2 -1 17 -1 16 -1 15 1 32 -1 0
2  17 -1 16 -1 15 1 32 -1 0
2  32 1 15 -1 16 1 17 1 0
2  15 -1 16 1 19 1 7 -1 0
2  3 -1 2 -1 9 -1 0
2  32 1 15 -1 16 1 19 1 7 -1 9 1 2 1 3 1 0
2  3 -1 2 -1 9 -1 7 1 19 -1 16 -1 15 1 32 -1 0
1
1.000000000000000 0.000000000000000 0.000000000000000 0.000000000000000 
0.000000000000000 1.000000000000000 0.000000000000000 0.000000000000000 
0.000000000000000 0.000000000000000 1.000000000000000 -6.000000000000000 
2  43 -1 16 -1 15 1 32 -1 0
2  7 1 19 -1 16 -1 15 1 32 -1 0
2  32 1 15 -1 16 1 19 1 7 -1 0
2  6 1 7 -1 8 1 9 1 0
2  32 1 15 -1 16 1 43 1 17 1 0
2  17 -1 43 -1 16 -1 15 1 32 -1 0
2  19 1 7 -1 0
2  32 1 15 -1 16 1 0
2  32 1 15 -1 16 1 43 1 0
2  32 1 15 -1 16 1 43 1 19 1 7 -1 0
2  7 1 19 -1 43 -1 16 -1 15 1 32 -1 0
2  6 1 7 -1 8 1 0
2  2 -1 0
2  6 1 7 -1 9 1 2 1 0
2  2 -1 9 -1 7 1 6 -1 0
2  9 -1 7 1 6 -1 0
2  9 1 2 1 0
2  9 -1 0
2  6 1 7 -1 8 1 9 1 2 1 0
2  2 -1 9 -1 0
2  32 1 15 -1 16 1 43 1 19 1 7 -1 9 1 2 1 0
2  7 -1 9 1 2 1 0
2  7 -1 9 1 0
2  7 -1 9 1 2 1 3 1 0
2  19 -1 0
2  7 1 19 -1 0
2  32 1 15 -1 16 1 43 1 17 1 2 1 3 1 0
2  32 1 15 -1 16 1 43 1 19 1 7 -1 9 1 2 1 3 1 0
2  15 -1 16 1 43 1 17 1 0
2  15 -1 16 1 43 1 19 1 7 -1 0
Curve2ds 96
1 -0.00000000000000000 -48.99999999999999289 1.00000000000000000 0.00000000000000000 
1 -2.50000000000258993 24.99999999999974065 0.00000000000010347 -1.00000000000000000 
1 -1.57079632679489656 49.00000000000000000 1.00000000000000000 0.00000000000000000 
2 -7.50000000000146283 13.99999999999922373 0.00000000000010347 -1.00000000000000000 1.00000000000000000 0.00000000000010347 5.00000000000000000
1 -4.71238898038468967 49.00000000000000000 1.00000000000000000 0.00000000000000000 
2 -7.49999999999856559 -14.00000000000077627 0.00000000000010347 -1.00000000000000000 -1.00000000000000000 -0.00000000000010347 5.00000000000000000
1 -13.75000000000338041 18.99999999999857891 -1.00000000000000000 -0.00000000000010349 
1 -13.75000000000141753 -16.75463288882858137 1.00000000000000000 -0.00000000000000022 
1 -13.74999999999944755 -19.00000000000142109 -1.00000000000000000 -0.00000000000010346 
1 -13.75000000000141753 -16.75463288882858137 1.00000000000000000 -0.00000000000000022 
1 -2.50000000000258993 24.99999999999974065 0.00000000000010347 -1.00000000000000000 
1 0.00000000000000000 0.00000000000000000 1.00000000000000000 0.00000000000000000 
1 0.00000000000000022 -49.00000000000000000 1.00000000000000000 0.00000000000000000 
1 2.49999999999741007 25.00000000000025935 -1.00000000000000000 -0.00000000000010347 
1 -2.49999999999741718 -25.00000000000025935 1.00000000000000000 0.00000000000010347 
1 -3.14159265358979223 49.00000000000000000 1.00000000000000000 0.00000000000000000 
2 -2.20000000000210338 20.29999999999977334 -1.00000000000000000 -0.00000000000010347 0.00000000000010347 -1.00000000000000000 4.70000000000000018
1 -1.57079632679489656 49.00000000000000711 1.00000000000000000 0.00000000000000000 
2 -2.19999999999790230 -20.30000000000022808 -1.00000000000000000 -0.00000000000010347 0.00000000000010347 -1.00000000000000000 4.70000000000000018
1 2.50000000000258282 -24.99999999999974065 -0.00000000000010347 1.00000000000000000 
1 0.00000000000000000 0.00000000000000000 1.00000000000000000 0.00000000000000000 
1 -2.50000000000258993 24.99999999999974065 0.00000000000010347 -1.00000000000000000 
1 0.00000000000000000 0.00000000000000000 0.00000000000000000 1.00000000000000000 
1 11.00000000000000000 -0.00000000000000762 -0.00000000000000000 -1.00000000000000000 
1 0.00000000000000000 0.00000000000000000 0.00000000000000000 1.00000000000000000 
1 39.00000000000000000 -0.00000000000000762 -0.00000000000000000 -1.00000000000000000 
1 -1.57079632679489656 -0.00000000000000207 1.00000000000000000 0.00000000000000000 
2 4.21052631578999836 5.00000000000000000 0.00000000000000000 1.00000000000000000 1.00000000000000000 -0.00000000000000000 5.00000000000000000
1 1.57079632679489656 0.00000000000000000 0.00000000000000000 1.00000000000000000 
1 -20.00000000000281730 32.24536711117141152 -0.00000000000000000 -1.00000000000000000 
1 -4.71238898038468967 -0.00000000000000207 1.00000000000000000 0.00000000000000000 
2 4.21052631578999836 5.00000000000000000 0.00000000000000000 -1.00000000000000000 -1.00000000000000000 -0.00000000000000000 5.00000000000000000
1 1.57079632679489656 0.00000000000000000 0.00000000000000000 1.00000000000000000 
1 -20.00000000000281730 32.24536711117141152 0.00000000000000000 -1.00000000000000000 
1 0.00000000000000000 -0.00000000000000000 1.00000000000000000 -0.00000000000000000 
1 -15.78947368421281894 32.24536711117141863 -1.00000000000000000 -0.00000000000000000 
1 0.00000000000000000 0.00000000000000000 1.00000000000000000 0.00000000000000000 
2 -0.00000000000181836 32.24536711117904986 0.00000000000000000 -1.00000000000000000 -1.00000000000000000 -0.00000000000000000 15.78947368421099995
1 24.99999999999917932 32.24536711117904986 -1.00000000000000000 -0.00000000000053107 
1 -0.00000000000000000 -0.00000000000000000 1.00000000000000000 0.00000000000000000 
1 -25.00000000000082068 32.24536711117141863 0.00000000000000000 -1.00000000000000000 
1 24.99999999999917932 -17.75463288882869506 0.00000000000000000 1.00000000000000000 
1 0.00000000000000000 0.00000000000000000 1.00000000000000000 0.00000000000000000 
2 -0.00000000000081836 -17.75463288882095014 0.00000000000000000 -1.00000000000000000 -1.00000000000000000 -0.00000000000000000 25.00000000000000000
1 0.00000000000000000 0.00000000000000000 1.00000000000000000 0.00000000000000000 
2 -0.00000000000081836 -17.75463288882095014 0.00000000000000000 -1.00000000000000000 -1.00000000000000000 -0.00000000000000000 10.00000000000000000
1 0.00000000000000000 0.00000000000000000 1.00000000000000000 0.00000000000000000 
1 0.00000000000000000 -6.00000000000000000 1.00000000000000000 0.00000000000000000 
1 0.00000000000000000 0.00000000000000000 1.00000000000000000 0.00000000000000000 
1 0.00000000000000000 -6.00000000000000000 1.00000000000000000 0.00000000000000000 
1 0.00000000000000000 0.00000000000000000 1.00000000000000000 0.00000000000000000 
1 0.00000000000000000 -6.00000000000000000 1.00000000000000000 0.00000000000000000 
1 7.85398163397399962 0.00000000000000000 0.00000000000000000 -1.00000000000000000 
1 50.00000000000445510 0.00000000000000000 0.00000000000000000 -1.00000000000000000 
1 -0.00000000000000000 -6.00000000000000000 1.00000000000000000 0.00000000000000000 
1 -25.00000000000082068 32.24536711117141863 0.00000000000000000 -1.00000000000000000 
1 7.85398163397399962 0.00000000000000000 0.00000000000000000 -1.00000000000000000 
1 1.57079632679489656 0.00000000000000000 0.00000000000000000 1.00000000000000000 
1 4.69999999999999929 0.00000000000000000 0.00000000000000000 -1.00000000000000000 
1 0.00000000000000000 0.00000000000000000 0.00000000000000000 -1.00000000000000000 
1 5.00000000000000000 0.00000000000000000 0.00000000000000000 -1.00000000000000000 
1 -2.49999999999741718 -25.00000000000025935 1.00000000000000000 0.00000000000010347 
1 0.00000000000000000 0.00000000000000000 0.00000000000000000 1.00000000000000000 
1 0.30000000000000071 0.00000000000000000 0.00000000000000000 -1.00000000000000000 
1 -3.14159265358979223 0.00000000000000000 1.00000000000000000 0.00000000000000000 
2 -2.20000000000210338 20.29999999999977334 -1.00000000000000000 -0.00000000000010347 0.00000000000010347 -1.00000000000000000 4.70000000000000018
1 0.00000000000000000 0.00000000000000000 0.00000000000000000 1.00000000000000000 
1 45.29999999999999716 0.00000000000000000 -0.00000000000000000 -1.00000000000000000 
1 -1.57079632679489656 0.00000000000000000 1.00000000000000000 0.00000000000000000 
2 -2.19999999999790230 -20.30000000000022808 -1.00000000000000000 -0.00000000000010347 0.00000000000010347 -1.00000000000000000 4.70000000000000018
1 1.57079632679489656 0.00000000000000000 0.00000000000000000 1.00000000000000000 
1 4.69999999999999929 0.00000000000000000 -0.00000000000000000 -1.00000000000000000 
1 9.21052631578999836 -6.00000000000000000 0.00000000000000000 1.00000000000000000 
1 -2.50000000000003553 -19.00000000000025935 0.00000000000010347 -1.00000000000000000 
1 9.21052631578800174 0.00000000000000000 0.00000000000000000 -1.00000000000000000 
1 7.85398163397399962 0.00000000000000000 0.00000000000000000 -1.00000000000000000 
1 0.00000000000000000 -0.00000000000000000 0.00000000000000000 -1.00000000000000000 
1 -15.78947368421282071 32.24536711117141863 -1.00000000000000000 -0.00000000000000000 
1 0.00000000000000000 -6.00000000000000000 1.00000000000000000 -0.00000000000000000 
1 7.85398163397399962 0.00000000000000000 0.00000000000000000 -1.00000000000000000 
1 4.71238898038499965 0.00000000000000000 0.00000000000000000 -1.00000000000000000 
1 0.00000000000000000 -6.00000000000000000 1.00000000000000000 0.00000000000000000 
2 -0.00000000000181836 32.24536711117904986 0.00000000000000000 -1.00000000000000000 -1.00000000000000000 -0.00000000000000000 15.78947368421099995
1 24.99999999999917932 32.24536711117904986 -1.00000000000000000 -0.00000000000053107 
1 4.71238898038499965 0.00000000000000000 0.00000000000000000 -1.00000000000000000 
1 24.99999999999917932 -17.75463288882869506 0.00000000000000000 1.00000000000000000 
1 0.00000000000000000 -6.00000000000000000 1.00000000000000000 0.00000000000000000 
2 -0.00000000000081836 -17.75463288882095014 0.00000000000000000 -1.00000000000000000 -1.00000000000000000 -0.00000000000000000 25.00000000000000000
1 0.00000000000000000 0.00000000000000000 0.00000000000000000 -1.00000000000000000 
1 6.28318530717958623 0.00000000000000000 0.00000000000000000 -1.00000000000000000 
1 0.00000000000000000 -6.00000000000000000 1.00000000000000000 0.00000000000000000 
2 -0.00000000000081836 -17.75463288882095014 0.00000000000000000 -1.00000000000000000 -1.00000000000000000 -0.00000000000000000 10.00000000000000000
1 4.71238898038499965 0.00000000000000000 0.00000000000000000 -1.00000000000000000 
1 4.71238898038499965 0.00000000000000000 0.00000000000000000 -1.00000000000000000 
1 0.00000000000000000 0.00000000000000000 0.00000000000000000 -1.00000000000000000 
1 6.28318530717958623 0.00000000000000000 0.00000000000000000 -1.00000000000000000 
Curves 59
1 25.00000000000099831 25.00000000000000000 0.00000000000000000 0.00000000000000000 -1.00000000000000000 0.00000000000000000 
8 1.57079632679489656 3.14159265358979312
2 -49.00000000000763833 20.00000000000099831 14.00000000000000000 1.00000000000000000 -0.00000000000000000 -0.00000000000000000 0.00000000000000000 0.00000000000000000 -1.00000000000000000 0.00000000000000000 1.00000000000000000 0.00000000000000000 5.00000000000000000
8 4.71238898038468967 6.28318530717958712
2 -49.00000000000763833 20.00000000000099831 -14.00000000000000000 -1.00000000000000000 0.00000000000000000 0.00000000000000000 0.00000000000000000 0.00000000000000000 -1.00000000000000000 -0.00000000000000000 -1.00000000000000000 -0.00000000000000000 5.00000000000000000
8 -11.25000000000040856 -6.25000000000139977
1 -49.00000000000763123 13.74999999999959854 19.00000000000000000 -0.00000000000000022 -1.00000000000000000 -0.00000000000000001 
8 -11.25000000000040856 -6.25000000000139622
1 -49.00000000000763123 13.74999999999959854 -19.00000000000000000 -0.00000000000000022 -1.00000000000000000 0.00000000000000001 
1 30.00000000000099831 25.00000000000000000 0.00000000000000000 -1.00000000000000000 0.00000000000000000 0.00000000000000000 
1 25.00000000000099831 -25.00000000000000000 0.00000000000000000 1.00000000000000000 0.00000000000000000 0.00000000000000000 
8 3.14159265358979223 4.71238898038468967
2 -49.00000000000763833 25.30000000000100968 20.30000000000000071 1.00000000000000000 -0.00000000000000022 0.00000000000000000 -0.00000000000000022 -1.00000000000000000 0.00000000000000000 0.00000000000000000 -0.00000000000000000 -1.00000000000000000 4.70000000000000018
8 1.57079632679489656 3.14159265358979312
2 -49.00000000000763833 25.30000000000100968 -20.30000000000000071 1.00000000000000000 -0.00000000000000022 0.00000000000000000 -0.00000000000000022 -1.00000000000000000 0.00000000000000000 0.00000000000000000 -0.00000000000000000 -1.00000000000000000 4.70000000000000018
1 30.00000000000099831 -25.00000000000000000 0.00000000000000000 0.00000000000000000 1.00000000000000000 0.00000000000000000 
1 -0.00000000000763589 25.00000000000099831 14.00000000000000000 -1.00000000000000000 0.00000000000000000 0.00000000000000000 
1 -0.00000000000763589 25.00000000000099831 -14.00000000000000000 -1.00000000000000000 0.00000000000000000 0.00000000000000000 
8 1.57079632679489656 3.14159265358979312
2 -0.00000000000763382 20.00000000000099831 14.00000000000000000 1.00000000000000000 -0.00000000000000000 -0.00000000000000000 0.00000000000000000 0.00000000000000000 -1.00000000000000000 0.00000000000000000 1.00000000000000000 0.00000000000000000 5.00000000000000000
1 -0.00000000000763589 20.00000000000099831 19.00000000000000000 -1.00000000000000000 0.00000000000000000 0.00000000000000000 
8 4.71238898038468967 6.28318530717958623
2 -0.00000000000763382 20.00000000000099831 -14.00000000000000000 -1.00000000000000000 0.00000000000000000 0.00000000000000000 0.00000000000000000 0.00000000000000000 -1.00000000000000000 -0.00000000000000000 -1.00000000000000000 -0.00000000000000000 5.00000000000000000
1 -0.00000000000763589 20.00000000000099831 -19.00000000000000000 -1.00000000000000000 0.00000000000000000 0.00000000000000000 
1 0.00000000000763382 15.78947368421099995 -38.00000000000000000 -0.00000000000000000 1.00000000000000000 -0.00000000000000000 
2 0.00000000000000000 0.00000000000000000 -38.00000000000000000 0.00000000000000000 0.00000000000000000 1.00000000000000000 1.00000000000000000 0.00000000000000000 -0.00000000000000000 -0.00000000000000000 1.00000000000000000 0.00000000000000000 15.78947368421099995
1 0.00000000000000000 -25.00000000000099831 -38.00000000000000000 0.00000000000053107 1.00000000000000000 -0.00000000000000000 
1 0.00000000000763382 24.99999999999900169 -38.00000000000000000 1.00000000000000000 -0.00000000000000000 -0.00000000000000000 
1 50.00000000000774492 -25.00000000000099831 -38.00000000000000000 -1.00000000000000000 -0.00000000000000000 -0.00000000000000000 
2 50.00000000000000000 -0.00000000000100000 -38.00000000000000000 0.00000000000000000 0.00000000000000000 1.00000000000000000 1.00000000000000000 0.00000000000000000 -0.00000000000000000 -0.00000000000000000 1.00000000000000000 0.00000000000000000 25.00000000000000000
2 50.00000000000000000 -0.00000000000100000 -38.00000000000000000 0.00000000000000000 0.00000000000000000 1.00000000000000000 1.00000000000000000 0.00000000000000000 -0.00000000000000000 -0.00000000000000000 1.00000000000000000 0.00000000000000000 10.00000000000000000
1 0.00000000000763382 15.78947368421099995 0.00000000000000000 0.00000000000000000 1.00000000000000000 0.00000000000000000 
2 0.00000000000000000 0.00000000000000000 0.00000000000000000 0.00000000000000000 0.00000000000000000 1.00000000000000000 1.00000000000000000 0.00000000000000000 -0.00000000000000000 -0.00000000000000000 1.00000000000000000 0.00000000000000000 15.78947368421099995
1 0.00000000000000000 -25.00000000000099831 0.00000000000000000 0.00000000000053107 1.00000000000000000 0.00000000000000000 
1 0.00000000000763382 24.99999999999900169 0.00000000000000000 1.00000000000000000 0.00000000000000000 0.00000000000000000 
1 50.00000000000774492 -25.00000000000099831 0.00000000000000000 -1.00000000000000000 0.00000000000000000 0.00000000000000000 
2 50.00000000000000000 -0.00000000000100000 0.00000000000000000 0.00000000000000000 0.00000000000000000 1.00000000000000000 1.00000000000000000 0.00000000000000000 -0.00000000000000000 -0.00000000000000000 1.00000000000000000 0.00000000000000000 25.00000000000000000
2 50.00000000000000000 -0.00000000000100000 0.00000000000000000 0.00000000000000000 0.00000000000000000 1.00000000000000000 1.00000000000000000 0.00000000000000000 -0.00000000000000000 -0.00000000000000000 1.00000000000000000 0.00000000000000000 10.00000000000000000
1 -50.00000000001208633 24.99999999999900169 19.00000000000000000 -0.00000000000000000 -0.00000000000000000 1.00000000000000000 
1 0.00000000000763382 24.99999999999900169 -50.00000000000000000 1.00000000000000000 -0.00000000000000000 -0.00000000000000000 
1 -50.00000000001208633 24.99999999999900169 -19.00000000000000000 0.00000000000000000 0.00000000000000000 -1.00000000000000000 
1 -0.00000000000762820 25.30000000000099902 25.00000000000000000 -1.00000000000000000 0.00000000000000022 -0.00000000000000000 
1 -0.00000000000762827 25.00000000000099831 25.00000000000000000 -1.00000000000000000 0.00000000000000022 -0.00000000000000000 
1 -0.00000000000762820 25.30000000000099902 -25.00000000000000000 -1.00000000000000000 0.00000000000000022 -0.00000000000000000 
8 3.14159265358979223 4.71238898038468967
2 -0.00000000000762820 25.30000000000099902 20.30000000000000071 1.00000000000000000 -0.00000000000000022 0.00000000000000000 -0.00000000000000022 -1.00000000000000000 0.00000000000000000 0.00000000000000000 -0.00000000000000000 -1.00000000000000000 4.70000000000000018
1 -0.00000000000762716 30.00000000000099831 20.30000000000000071 -1.00000000000000000 0.00000000000000022 -0.00000000000000000 
8 1.57079632679489656 3.14159265358979312
2 -0.00000000000762820 25.30000000000099902 -20.30000000000000071 1.00000000000000000 -0.00000000000000022 0.00000000000000000 -0.00000000000000022 -1.00000000000000000 0.00000000000000000 0.00000000000000000 -0.00000000000000000 -1.00000000000000000 4.70000000000000018
1 -0.00000000000762716 30.00000000000099831 -20.30000000000000071 -1.00000000000000000 0.00000000000000022 -0.00000000000000000 
8 6.00000000000000000 11.00000000000000000
1 -0.00000000000762827 25.00000000000099831 25.00000000000000000 0.00000000000000000 0.00000000000000000 -1.00000000000000000 
8 -5.00000000000000000 0.00000000000000000
1 -0.00000000000763382 24.99999999999900169 -19.00000000000000000 0.00000000000000000 0.00000000000000000 -1.00000000000000000 
1 -0.00000000000763382 24.99999999999900169 -19.00000000000000000 0.00000000000000000 0.00000000000000000 -1.00000000000000000 
1 -0.00000000000763382 15.78947368421099995 19.00000000000000000 -0.00000000000000000 -0.00000000000000000 1.00000000000000000 
1 0.00000000000763382 15.78947368421099995 -50.00000000000000000 -0.00000000000000000 1.00000000000000000 -0.00000000000000000 
1 -0.00000000000763382 15.78947368421099995 -19.00000000000000000 0.00000000000000000 0.00000000000000000 -1.00000000000000000 
1 -0.00000000000489143 -15.78947368421099995 19.00000000000000000 -0.00000000000000000 -0.00000000000000000 1.00000000000000000 
2 0.00000000000000000 0.00000000000000000 -50.00000000000000000 0.00000000000000000 0.00000000000000000 1.00000000000000000 1.00000000000000000 0.00000000000000000 -0.00000000000000000 -0.00000000000000000 1.00000000000000000 0.00000000000000000 15.78947368421099995
1 0.00000000000000000 -25.00000000000099831 19.00000000000000000 -0.00000000000000000 -0.00000000000000000 1.00000000000000000 
1 0.00000000000000000 -25.00000000000099831 -50.00000000000000000 0.00000000000053107 1.00000000000000000 -0.00000000000000000 
1 -50.00000000000774492 -25.00000000000099831 19.00000000000000000 -0.00000000000000000 -0.00000000000000000 1.00000000000000000 
1 50.00000000000774492 -25.00000000000099831 -50.00000000000000000 -1.00000000000000000 -0.00000000000000000 -0.00000000000000000 
2 50.00000000000000000 -0.00000000000100000 -50.00000000000000000 0.00000000000000000 0.00000000000000000 1.00000000000000000 1.00000000000000000 0.00000000000000000 -0.00000000000000000 -0.00000000000000000 1.00000000000000000 0.00000000000000000 25.00000000000000000
1 -60.00000000000000000 -0.00000000000100000 19.00000000000000000 -0.00000000000000000 -0.00000000000000000 1.00000000000000000 
2 50.00000000000000000 -0.00000000000100000 -50.00000000000000000 0.00000000000000000 0.00000000000000000 1.00000000000000000 1.00000000000000000 0.00000000000000000 -0.00000000000000000 -0.00000000000000000 1.00000000000000000 0.00000000000000000 10.00000000000000000
1 -0.00000000000489143 -15.78947368421099995 -19.00000000000000000 0.00000000000000000 0.00000000000000000 -1.00000000000000000 
1 0.00000000000000000 -25.00000000000099831 -19.00000000000000000 0.00000000000000000 0.00000000000000000 -1.00000000000000000 
1 -50.00000000000774492 -25.00000000000099831 -19.00000000000000000 0.00000000000000000 0.00000000000000000 -1.00000000000000000 
1 -60.00000000000000000 -0.00000000000100000 -19.00000000000000000 0.00000000000000000 0.00000000000000000 -1.00000000000000000 
Polygon3D 0
PolygonOnTriangulations 0
Surfaces 27
1 -49.00000000000763123 27.50000000000101252 0.00000000000000080 1.00000000000000000 -0.00000000000000022 0.00000000000000000 0.00000000000000022 1.00000000000000000 -0.00000000000010347 0.00000000000000000 0.00000000000010347 1.00000000000000000 
1 -0.00000000000762827 25.00000000000099831 25.00000000000000000 -0.00000000000000022 -1.00000000000000000 -0.00000000000000000 0.00000000000000000 0.00000000000000000 -1.00000000000000000 1.00000000000000000 -0.00000000000000022 0.00000000000000000 
1 -0.00000000000762771 -0.00000000000284631 27.50000000000100187 1.00000000000000000 0.00000000000000000 -0.00000000000000022 0.00000000000000022 0.00000000000000000 1.00000000000000000 0.00000000000000000 -1.00000000000000000 0.00000000000000000 
2 -0.00000000000763589 20.00000000000099831 14.00000000000000000 -1.00000000000000000 0.00000000000000000 0.00000000000000000 0.00000000000000000 1.00000000000000000 0.00000000000000000 -0.00000000000000000 -0.00000000000000000 1.00000000000000000 5.00000000000000000
2 -0.00000000000763589 20.00000000000099831 -14.00000000000000000 -1.00000000000000000 0.00000000000000000 0.00000000000000000 0.00000000000000000 1.00000000000000000 0.00000000000000000 0.00000000000000000 0.00000000000000000 -1.00000000000000000 5.00000000000000000
1 -32.24536711117904986 -16.00000000000000000 -0.00000000000347393 0.00000000000000000 1.00000000000000000 0.00000000000010349 0.00000000000000000 0.00000000000010349 -1.00000000000000000 1.00000000000000000 -0.00000000000000000 -0.00000000000000000 
1 -32.24536711117904986 22.00000000000000000 0.00000000000045804 0.00000000000000000 -1.00000000000000000 -0.00000000000010346 0.00000000000000000 0.00000000000010346 -1.00000000000000000 1.00000000000000000 0.00000000000000000 0.00000000000000000 
1 -0.00000000000762716 30.00000000000099831 25.00000000000000000 -0.00000000000000000 0.00000000000000000 1.00000000000000000 -0.00000000000000022 -1.00000000000000000 0.00000000000000000 1.00000000000000000 -0.00000000000000022 0.00000000000000000 
2 -0.00000000000762820 25.30000000000099902 20.30000000000000071 -1.00000000000000000 0.00000000000000022 -0.00000000000000000 0.00000000000000022 1.00000000000000000 0.00000000000000000 -0.00000000000000000 -0.00000000000000000 1.00000000000000000 4.70000000000000018
2 -0.00000000000762820 25.30000000000099902 -20.30000000000000071 -1.00000000000000000 0.00000000000000022 -0.00000000000000000 0.00000000000000000 0.00000000000000000 -1.00000000000000000 0.00000000000000022 1.00000000000000000 0.00000000000000000 4.70000000000000018
1 -0.00000000000763382 15.78947368421099995 19.00000000000000000 1.00000000000000000 -0.00000000000000000 -0.00000000000000000 0.00000000000000000 1.00000000000000000 0.00000000000000000 -0.00000000000000000 0.00000000000000000 -1.00000000000000000 
1 -0.00000000000763382 15.78947368421099995 -19.00000000000000000 1.00000000000000000 -0.00000000000000000 0.00000000000000000 0.00000000000000000 1.00000000000000000 0.00000000000000000 -0.00000000000000000 0.00000000000000000 1.00000000000000000 
2 0.00000000000000000 0.00000000000000000 19.00000000000000000 -0.00000000000000000 -0.00000000000000000 -1.00000000000000000 -1.00000000000000000 0.00000000000000000 0.00000000000000000 0.00000000000000000 1.00000000000000000 -0.00000000000000000 15.78947368421099995
1 -0.00000000000763382 24.99999999999900169 19.00000000000000000 -0.00000000000000000 1.00000000000000000 -0.00000000000000000 -1.00000000000000000 -0.00000000000000000 -0.00000000000000000 0.00000000000000000 -0.00000000000000000 -1.00000000000000000 
2 -50.00000000000000000 -0.00000000000100000 19.00000000000000000 -0.00000000000000000 -0.00000000000000000 -1.00000000000000000 -1.00000000000000000 0.00000000000000000 0.00000000000000000 0.00000000000000000 1.00000000000000000 -0.00000000000000000 25.00000000000000000
2 -50.00000000000000000 -0.00000000000100000 19.00000000000000000 -0.00000000000000000 -0.00000000000000000 -1.00000000000000000 -1.00000000000000000 0.00000000000000000 0.00000000000000000 0.00000000000000000 1.00000000000000000 -0.00000000000000000 10.00000000000000000
2 0.00000000000000000 0.00000000000000000 -19.00000000000000000 -0.00000000000000000 -0.00000000000000000 1.00000000000000000 -1.00000000000000000 0.00000000000000000 0.00000000000000000 0.00000000000000000 1.00000000000000000 0.00000000000000000 15.78947368421099995
2 -50.00000000000000000 -0.00000000000100000 -19.00000000000000000 -0.00000000000000000 -0.00000000000000000 1.00000000000000000 -1.00000000000000000 0.00000000000000000 0.00000000000000000 0.00000000000000000 1.00000000000000000 0.00000000000000000 25.00000000000000000
2 -50.00000000000000000 -0.00000000000100000 -19.00000000000000000 -0.00000000000000000 -0.00000000000000000 1.00000000000000000 -1.00000000000000000 0.00000000000000000 0.00000000000000000 0.00000000000000000 1.00000000000000000 0.00000000000000000 10.00000000000000000
1 -32.24536711117904986 -28.00000000000000000 -0.00000000000471560 0.00000000000000000 1.00000000000000000 0.00000000000010349 0.00000000000000000 0.00000000000010349 -1.00000000000000000 1.00000000000000000 -0.00000000000000000 -0.00000000000000000 
1 -0.00000000000763382 24.99999999999900169 -19.00000000000000000 0.00000000000000000 1.00000000000000000 0.00000000000000000 -1.00000000000000000 0.00000000000000000 0.00000000000000000 0.00000000000000000 -0.00000000000000000 1.00000000000000000 
1 -0.00000000000762827 25.00000000000099831 -25.00000000000000000 0.00000000000000000 -0.00000000000000000 -1.00000000000000000 0.00000000000000022 1.00000000000000000 0.00000000000000000 1.00000000000000000 -0.00000000000000022 0.00000000000000000 
1 -0.00000000000762716 30.00000000000099831 -25.00000000000000000 0.00000000000000022 1.00000000000000000 0.00000000000000000 -0.00000000000000000 0.00000000000000000 1.00000000000000000 1.00000000000000000 -0.00000000000000022 0.00000000000000000 
1 0.00000000000000000 -25.00000000000099831 19.00000000000000000 1.00000000000000000 0.00000000000053107 -0.00000000000000000 -0.00000000000053107 1.00000000000000000 -0.00000000000000000 -0.00000000000000000 -0.00000000000000000 -1.00000000000000000 
1 -50.00000000000774492 -25.00000000000099831 19.00000000000000000 -0.00000000000000000 -1.00000000000000000 -0.00000000000000000 1.00000000000000000 -0.00000000000000000 0.00000000000000000 0.00000000000000000 -0.00000000000000000 -1.00000000000000000 
1 0.00000000000000000 -25.00000000000099831 -19.00000000000000000 1.00000000000000000 0.00000000000053107 0.00000000000000000 -0.00000000000053107 1.00000000000000000 0.00000000000000000 0.00000000000000000 -0.00000000000000000 1.00000000000000000 
1 -50.00000000000774492 -25.00000000000099831 -19.00000000000000000 0.00000000000000000 -1.00000000000000000 0.00000000000000000 1.00000000000000000 0.00000000000000000 0.00000000000000000 -0.00000000000000000 0.00000000000000000 1.00000000000000000 
Triangulations 0

TShapes 173
Ve
0.000000100000000
-49.000000000007624 25.000000000000998 14.000000000000000
0 0

0101101
*
Ve
0.000000100000000
-49.000000000007624 25.000000000000998 -14.000000000000000
0 0

0101101
*
Ed
 0.000000100000000 1 1 0
1  1 0 11.000000000000000 39.000000000000000
2  1 2 11 11.000000000000000 39.000000000000000
2  2 3 12 11.000000000000000 39.000000000000000
2  2 1 13 11.000000000000000 39.000000000000000
0

0101000
+173 13 -172 13 *
Ve
0.000100000000000
-49.000000000007638 20.000000000000998 19.000000000000000
0 0

0101101
*
Ed
 0.000000100000000 1 1 0
1  2 0 1.570796326794897 3.141592653589793
2  3 4 0 1.570796326794897 3.141592653589793
2  4 3 14 1.570796326794897 3.141592653589793
2  4 1 0 1.570796326794897 3.141592653589793
0

0101000
+173 0 -170 0 *
Ve
0.000100000000000
-49.000000000007638 20.000000000000998 -19.000000000000000
0 0

0101101
*
Ed
 0.000000100000000 1 1 0
1  3 0 4.712388980384690 6.283185307179587
2  5 5 0 4.712388980384690 6.283185307179587
2  6 3 14 4.712388980384690 6.283185307179587
2  6 1 0 4.712388980384690 6.283185307179587
0

0101000
+172 0 -168 0 *
Ve
0.000100000000000
-49.000000000007624 25.000000000000007 19.000000000000000
0 0

0101101
*
Ed
 0.000100000000000 1 1 0
1  4 0 -11.250000000000409 -6.250000000001400
2  7 3 14 -11.250000000000409 -6.250000000001400
2  7 1 0 -11.250000000000409 -6.250000000001400
2  8 6 18 -11.250000000000409 -6.250000000001400
0

0101000
+166 4 -170 0 *
Ve
0.000100000000000
-49.000000000007624 25.000000000000007 -19.000000000000000
0 0

0101101
*
Ed
 0.000100000000000 1 1 0
1  5 0 -11.250000000000409 -6.250000000001396
2  9 3 14 -11.250000000000409 -6.250000000001396
2  9 1 0 -11.250000000000409 -6.250000000001396
2  10 7 20 -11.250000000000409 -6.250000000001396
0

0101000
+164 21 -168 0 *
Ve
0.000000212133034
-49.000000000007624 25.000000000001009 25.000000000000000
0 0

0101101
*
Ed
 0.000000100002007 1 1 0
1  1 0 0.000000000000000 6.000000000000000
2  1 2 11 0.000000000000000 6.000000000000000
2  2 3 12 0.000000000000000 6.000000000000000
2  2 1 13 0.000000000000000 6.000000000000000
0

0101000
+162 22 -166 22 *
Ve
0.000000212133034
-49.000000000007624 25.000000000001009 -25.000000000000000
0 0

0101101
*
Ed
 0.000000100002007 1 1 0
1  1 0 44.000000000000000 50.000000000000000
2  11 3 12 44.000000000000000 50.000000000000000
2  11 1 13 44.000000000000000 50.000000000000000
0

0101000
+164 11 -160 11 *
Ve
0.000000100000000
-49.000000000007631 25.300000000001010 25.000000000000000
0 0

0101101
*
Ed
 0.000000100000000 1 1 0
1  6 0 4.699999999999999 5.000000000000000
2  12 8 23 4.699999999999999 5.000000000000000
2  13 8 11 4.699999999999999 5.000000000000000
2  14 3 12 4.699999999999999 5.000000000000000
2  14 1 13 4.699999999999999 5.000000000000000
0

0101000
+158 24 -162 22 *
Ve
0.000000100000000
-49.000000000007624 25.300000000001010 -25.000000000000000
0 0

0101101
*
Ed
 0.000000100000000 1 1 0
1  7 0 0.000000000000000 0.300000000000001
2  15 3 12 0.000000000000000 0.300000000000001
2  15 1 13 0.000000000000000 0.300000000000001
0

0101000
-156 24 +160 11 *
Ve
0.000000100000000
-49.000000000007631 30.000000000001009 20.300000000000001
0 0

0101101
*
Ed
 0.000000100000000 1 1 0
1  8 0 3.141592653589792 4.712388980384690
2  16 9 0 3.141592653589792 4.712388980384690
2  17 3 25 3.141592653589792 4.712388980384690
2  17 1 26 3.141592653589792 4.712388980384690
0

0101000
+154 0 -158 0 *
Ve
0.000000100000000
-49.000000000007631 30.000000000001009 -20.300000000000001
0 0

0101101
*
Ed
 0.000000100000000 1 1 0
1  9 0 1.570796326794897 3.141592653589793
2  18 10 0 1.570796326794897 3.141592653589793
2  19 3 25 1.570796326794897 3.141592653589793
2  19 1 26 1.570796326794897 3.141592653589793
0

0101000
+156 0 -152 0 *
Ed
 0.000000100000000 1 1 0
1  10 0 4.699999999999999 45.299999999999997
2  20 3 12 4.699999999999999 45.299999999999997
2  20 1 13 4.699999999999999 45.299999999999997
0

0101000
+152 24 -154 24 *
Wi

0101100
+171 10 -169 0 +167 0 +165 0 -163 0 +161 10 +159 10 +157 10 +155 10 +153 3 
+151 3 +150 10 *
Fa
0  0.000000100000000 1 5

0101000
+149 5 *
Ve
0.000001000019966
-0.000000000007628 25.000000000000998 14.000000000000000
0 0

0101101
*
Ve
0.000001000019966
-0.000000000007628 25.000000000000998 -14.000000000000000
0 0

0101101
*
Ed
 0.000000100000000 1 1 0
1  1 0 11.000000000000000 39.000000000000000
2  21 2 23 11.000000000000000 39.000000000000000
2  22 3 12 11.000000000000000 39.000000000000000
0

0101000
+147 28 -146 28 *
Ed
 0.000000100000000 1 1 0
1  11 0 -0.000000000000008 48.999999999999993
2  23 4 0 -0.000000000000008 48.999999999999993
2  24 2 21 -0.000000000000008 48.999999999999993
4 G1 4 0 2 21
0

0101000
+147 0 -173 0 *
Ed
 0.000000100000000 1 1 0
1  12 0 -0.000000000000008 48.999999999999993
2  25 5 0 -0.000000000000008 48.999999999999993
2  26 2 21 -0.000000000000008 48.999999999999993
4 G1 5 0 2 21
0

0101000
+146 0 -172 0 *
Wi

0101100
-145 27 +144 0 -143 0 +171 10 *
Fa
0  0.000000100000000 2 9

0101000
+142 5 *
Ve
0.000000100000000
-0.000000000007629 20.000000000000998 19.000000000000000
0 0

0101101
*
Ed
 0.000000100000000 1 1 0
1  13 0 1.570796326794897 3.141592653589793
2  27 4 0 1.570796326794897 3.141592653589793
2  28 11 29 1.570796326794897 3.141592653589793
0

0101000
+147 0 -140 0 *
Ed
 0.000000100000000 1 1 0
1  14 0 -0.000000000000007 49.000000000000000
2  29 4 0 -0.000000000000007 49.000000000000000
2  30 6 18 -0.000000000000007 49.000000000000000
4 G1 4 0 6 18
0

0101000
+140 0 -170 0 *
Wi

0101100
+139 0 -144 0 +138 0 -169 0 *
Fa
0  0.000000000000000 4 0

0101000
+137 0 *
Ve
0.000000100000000
-0.000000000007629 20.000000000000998 -19.000000000000000
0 0

0101101
*
Ed
 0.000000100000000 1 1 0
1  15 0 4.712388980384690 6.283185307179586
2  31 5 0 4.712388980384690 6.283185307179586
2  32 12 30 4.712388980384690 6.283185307179586
0

0101000
+146 0 -135 0 *
Ed
 0.000000100000000 1 1 0
1  16 0 -0.000000000000007 49.000000000000000
2  33 5 0 -0.000000000000007 49.000000000000000
2  34 7 20 -0.000000000000007 49.000000000000000
4 G1 5 0 7 20
0

0101000
+135 0 -168 0 *
Wi

0101100
+134 0 -143 0 +133 0 -167 0 *
Fa
0  0.000000000000000 5 0

0101000
+132 0 *
Ve
0.000000100000000
-0.000000000007634 15.789473684211000 19.000000000000000
0 0

0101101
*
Ed
 0.000000100000000 1 1 0
1  17 0 0.000000000000000 4.210526315789998
2  35 11 34 0.000000000000000 4.210526315789998
2  36 6 35 0.000000000000000 4.210526315789998
0

0101000
-140 36 +130 34 *
Ve
0.000000100000000
-0.000000000004891 -15.789473684211000 19.000000000000000
0 0

0101101
*
Ed
 0.000000100000000 1 1 0
1  18 0 4.712388980385000 7.853981633974000
2  37 13 34 4.712388980385000 7.853981633974000
2  38 6 35 4.712388980385000 7.853981633974000
0

0101000
+128 34 -130 34 *
Ve
0.000000100000000
0.000000000000000 -25.000000000000998 19.000000000000000
0 0

0101101
*
Ed
 0.000000100000000 1 1 0
1  19 0 0.000000000000000 9.210526315789998
2  39 6 35 0.000000000000000 9.210526315789998
0

0101000
+126 34 -128 34 *
Ve
0.000000100000000
-50.000000000012086 24.999999999999002 19.000000000000000
0 0

0101101
*
Ed
 0.000000100000000 1 1 0
1  20 0 48.999999999999993 50.000000000004455
2  40 14 34 48.999999999999993 50.000000000004455
2  41 6 35 48.999999999999993 50.000000000004455
0

0101000
+166 37 -124 34 *
Ve
0.000000100000000
-50.000000000007745 -25.000000000000998 19.000000000000000
0 0

0101101
*
Ed
 0.000000100000000 1 1 0
1  21 0 0.000000000000000 50.000000000007745
2  42 6 35 0.000000000000000 50.000000000007745
0

0101000
+122 34 -126 34 *
Ed
 0.000000100000000 1 1 0
1  22 0 4.712388980385000 7.853981633974000
2  43 15 34 4.712388980385000 7.853981633974000
2  44 6 35 4.712388980385000 7.853981633974000
0

0101000
+122 34 -124 34 *
Wi

0101100
+129 33 +138 0 +127 33 -165 0 +125 33 +123 33 +121 33 -120 33 *
Ve
0.000000100000000
-60.000000000000000 -0.000000000001000 19.000000000000000
0 0

0101101
*
Ed
 0.000000100000000 1 1 0
1  23 0 0.000000000000000 6.283185307179586
2  45 16 34 0.000000000000000 6.283185307179586
2  46 6 35 0.000000000000000 6.283185307179586
0

0101000
+118 34 -118 34 *
Wi

0101100
+117 38 *
Fa
0  0.000000100000000 6 31

0101000
+119 5 +116 0 *
Ve
0.000000100000000
0.000000000007634 15.789473684211000 0.000000000000000
0 0

0101101
*
Ed
 0.000000100000000 1 1 0
1  24 0 0.000000000000000 4.210526315789998
0

0101000
-135 42 +114 0 *
Ve
0.000000100000000
0.000000000004891 -15.789473684211000 0.000000000000000
0 0

0101101
*
Ed
 0.000000100000000 1 1 0
1  25 0 4.712388980385000 7.853981633974000
2  47 17 34 4.712388980385000 7.853981633974000
2  48 17 44 4.712388980385000 7.853981633974000
0

0101000
+112 0 -114 0 *
Ve
0.000000100000000
0.000000000000000 -25.000000000000998 0.000000000000000
0 0

0101101
*
Ed
 0.000000100000000 1 1 0
1  26 0 0.000000000000000 9.210526315789998
0

0101000
+110 0 -112 0 *
Ve
0.000000100000000
50.000000000012086 24.999999999999002 0.000000000000000
0 0

0101101
*
Ed
 0.000000100000000 1 1 0
1  27 0 48.999999999999993 50.000000000004455
0

0101000
+164 45 -108 0 *
Ve
0.000000100000000
50.000000000007745 -25.000000000000998 0.000000000000000
0 0

0101101
*
Ed
 0.000000100000000 1 1 0
1  28 0 0.000000000000000 50.000000000007745
0

0101000
+106 0 -110 0 *
Ed
 0.000000100000000 1 1 0
1  29 0 4.712388980385000 7.853981633974000
2  49 18 34 4.712388980385000 7.853981633974000
2  50 18 44 4.712388980385000 7.853981633974000
0

0101000
+106 0 -108 0 *
Wi

0101100
+113 41 +133 0 +111 41 -163 0 +109 41 +107 41 +105 41 -104 41 *
Ve
0.000000100000000
60.000000000000000 -0.000000000001000 0.000000000000000
0 0

0101101
*
Ed
 0.000000100000000 1 1 0
1  30 0 0.000000000000000 6.283185307179586
2  51 19 34 0.000000000000000 6.283185307179586
2  52 19 44 0.000000000000000 6.283185307179586
0

0101000
+102 0 -102 0 *
Wi

0101100
+101 46 *
Fa
0  0.000000100000000 7 39

0101000
+103 40 +100 0 *
Ve
0.000000100000000
-50.000000000012086 24.999999999999002 25.000000000000000
0 0

0101101
*
Ed
 0.000000100000000 1 1 0
1  31 0 0.000000000000000 6.000000000000000
2  53 15 0 0.000000000000000 6.000000000000000
4 G1 14 0 15 0
2  54 14 0 0.000000000000000 6.000000000000000
0

0101000
+124 0 -98 0 *
Ed
 0.000000100000000 1 1 0
1  32 0 48.999999999999993 50.000000000004455
2  55 14 44 48.999999999999993 50.000000000004455
2  56 20 35 48.999999999999993 50.000000000004455
0

0101000
+162 49 -98 44 *
Wi

0101100
-161 47 -123 38 -97 17 +96 48 *
Fa
0  0.000000100000000 14 17

0101000
+95 0 *
Ed
 0.000000100000000 1 1 0
1  33 0 0.000000000000000 6.000000000000000
2  57 18 0 0.000000000000000 6.000000000000000
4 G1 21 0 18 0
0

0101000
+108 51 -108 52 *
Ed
 0.000000100000000 1 1 0
1  27 0 48.999999999999993 50.000000000004455
0

0101000
+160 54 -108 0 *
Wi

0101100
-107 46 -93 50 +92 53 +159 55 *
Fa
0  0.000000100000000 21 50

0101000
+91 0 *
Ve
0.000000100000000
-0.000000000007628 25.300000000000999 25.000000000000000
0 0

0101101
*
Ve
0.000000212133034
-0.000000000007628 25.000000000000998 25.000000000000000
0 0

0101101
*
Ed
 0.000000100000000 1 1 0
1  6 0 4.699999999999999 5.000000000000000
2  12 8 23 4.699999999999999 5.000000000000000
2  13 8 11 4.699999999999999 5.000000000000000
2  14 3 12 4.699999999999999 5.000000000000000
0

0101000
+89 58 -88 59 *
Ed
 0.000000100000000 1 1 0
1  34 0 -0.000000000000000 48.999999999999993
2  58 9 0 -0.000000000000000 48.999999999999993
2  59 8 60 -0.000000000000000 48.999999999999993
4 G1 9 0 8 60
0

0101000
+89 0 -158 0 *
Ed
 0.000000100002007 1 1 0
1  35 0 0.000000000000000 49.000000000000000
2  60 2 0 0.000000000000000 49.000000000000000
2  61 8 0 0.000000000000000 49.000000000000000
0

0101000
+88 61 -162 61 *
Wi

0101100
-87 57 +86 0 -85 60 +157 62 *
Fa
0  0.000000100000000 8 9

0101000
+84 56 *
Ve
0.000000100000000
-0.000000000007628 25.300000000000999 -25.000000000000000
0 0

0101101
*
Ve
0.000000100002007
-0.000000000007631 25.000000000000000 -25.000000000000000
0 0

0101101
*
Ed
 0.000000100000000 1 1 0
1  7 0 0.000000000000000 0.300000000000001
2  62 3 12 0.000000000000000 0.300000000000001
0

0101000
-82 58 +81 23 *
Ed
 0.000000100000000 1 1 0
1  36 0 -0.000000000000000 49.000000000000000
2  63 10 0 -0.000000000000000 49.000000000000000
2  64 22 60 -0.000000000000000 49.000000000000000
4 G1 10 0 22 60
0

0101000
+82 0 -156 0 *
Ed
 0.000000100002007 1 1 0
1  27 0 0.000000000000000 48.999999999999993
0

0101000
+81 54 -160 54 *
Wi

0101100
-80 57 -79 0 +78 64 +155 62 *
Fa
0  0.000000100000000 22 0

0101000
+77 63 *
Ve
0.000000100000000
-0.000000000007627 30.000000000000998 20.300000000000001
0 0

0101101
*
Ed
 0.000000100000000 1 1 0
1  37 0 3.141592653589792 4.712388980384690
2  65 9 0 3.141592653589792 4.712388980384690
2  66 3 65 3.141592653589792 4.712388980384690
0

0101000
+75 0 -89 0 *
Ed
 0.000000100000000 1 1 0
1  38 0 -0.000000000000000 49.000000000000000
2  67 9 0 -0.000000000000000 49.000000000000000
2  68 23 60 -0.000000000000000 49.000000000000000
4 G1 9 0 23 60
0

0101000
+75 0 -154 0 *
Wi

0101100
+74 0 -73 0 +86 0 -153 0 *
Fa
0  0.000000000000000 9 0

0101000
+72 0 *
Ve
0.000000100000000
-0.000000000007627 30.000000000000998 -20.300000000000001
0 0

0101101
*
Ed
 0.000000100000000 1 1 0
1  39 0 1.570796326794897 3.141592653589793
2  69 10 0 1.570796326794897 3.141592653589793
2  70 3 65 1.570796326794897 3.141592653589793
0

0101000
+82 0 -70 0 *
Ed
 0.000000100000000 1 1 0
1  40 0 -0.000000000000000 49.000000000000000
2  71 10 0 -0.000000000000000 49.000000000000000
2  72 23 60 -0.000000000000000 49.000000000000000
4 G1 10 0 23 60
0

0101000
+70 0 -152 0 *
Wi

0101100
+69 0 -79 0 +68 0 -151 0 *
Fa
0  0.000000000000000 10 0

0101000
+67 0 *
Ed
 0.000000100000000 1 1 0
1  10 0 4.699999999999999 45.299999999999997
2  20 3 12 4.699999999999999 45.299999999999997
0

0101000
+70 58 -75 58 *
Wi

0101100
-65 57 +68 0 -73 0 +150 62 *
Fa
0  0.000000100000000 23 0

0101000
+64 63 *
Ve
0.000001000019966
-0.000000000007634 24.999999999999002 19.000000000000000
0 0

0101101
*
Ed
 0.000001000019966 1 1 0
1  41 0 6.000000000000000 11.000000000000000
2  22 3 67 6.000000000000000 11.000000000000000
2  73 11 29 6.000000000000000 11.000000000000000
0

0101000
+62 4 -147 0 *
Ve
0.000001000019966
-0.000000000007634 24.999999999999002 -19.000000000000000
0 0

0101101
*
Ed
 0.000001000019966 1 1 0
1  42 0 -5.000000000000000 0.000000000000000
2  74 3 67 -5.000000000000000 0.000000000000000
2  75 12 30 -5.000000000000000 0.000000000000000
0

0101000
+146 0 -60 21 *
Ed
 0.000000100001997 1 1 0
1  1 0 0.000000000000000 6.000000000000000
2  21 2 23 0.000000000000000 6.000000000000000
2  22 3 12 0.000000000000000 6.000000000000000
0

0101000
+88 59 -62 59 *
Ed
 0.000000100001997 1 1 0
1  43 0 0.000000000000000 6.000000000000000
2  74 3 68 0.000000000000000 6.000000000000000
0

0101000
+60 69 -81 69 *
Wi

0101100
+145 27 +61 0 +59 0 +58 27 +57 30 +87 27 +80 27 +74 3 +69 3 +65 27 
*
Fa
0  0.000000100000000 3 66

0101000
+56 5 *
Ve
0.000000100000000
-0.000000000007634 15.789473684211000 25.000000000000000
0 0

0101101
*
Ed
 0.000000100000000 1 1 0
1  44 0 0.000000000000000 6.000000000000000
2  76 13 0 0.000000000000000 6.000000000000000
2  77 11 0 0.000000000000000 6.000000000000000
0

0101000
+130 0 -54 0 *
Ed
 0.000000100000000 1 1 0
1  45 0 0.000000000000000 9.210526315788002
2  78 20 35 0.000000000000000 9.210526315788002
2  79 11 44 0.000000000000000 9.210526315788002
0

0101000
+54 44 -88 49 *
Wi

0101100
-129 33 +139 0 +53 29 +61 0 +52 70 +58 27 *
Fa
0  0.000000100000000 11 17

0101000
+51 5 *
Ed
 0.000000100000000 1 1 0
1  46 0 0.000000000000000 6.000000000000000
2  80 17 0 0.000000000000000 6.000000000000000
0

0101000
+114 51 -114 52 *
Ed
 0.000000100000000 1 1 0
1  24 0 0.000000000000000 9.210526315788002
0

0101000
+114 0 -81 54 *
Wi

0101100
-113 41 +134 0 +49 30 -59 0 +48 71 -57 30 *
Fa
0  0.000000100000000 12 50

0101000
+47 40 *
Ve
0.000000100000000
-0.000000000004891 -15.789473684211000 25.000000000000000
0 0

0101101
*
Ed
 0.000000100000000 1 1 0
1  47 0 0.000000000000000 6.000000000000000
2  81 13 0 0.000000000000000 6.000000000000000
0

0101000
+128 0 -45 0 *
Ed
 0.000000100000000 1 1 0
1  48 0 4.712388980385000 7.853981633974000
2  82 13 44 4.712388980385000 7.853981633974000
2  83 20 35 4.712388980385000 7.853981633974000
0

0101000
+45 44 -54 44 *
Wi

0101100
+44 0 -53 0 -127 51 +43 52 *
Fa
0  0.000000100000000 13 0

0101000
+42 0 *
Ve
0.000000100000000
0.000000000000000 -25.000000000000998 25.000000000000000
0 0

0101101
*
Ed
 0.000000100000000 1 1 0
1  49 0 0.000000000000000 6.000000000000000
0

0101000
+126 0 -40 0 *
Ed
 0.000000100000000 1 1 0
1  50 0 0.000000000000000 9.210526315789998
2  84 20 35 0.000000000000000 9.210526315789998
0

0101000
+40 44 -45 44 *
Wi

0101100
+39 0 -44 0 -125 51 +38 52 *
Fa
0  0.000000100000000 24 0

0101000
+37 0 *
Ve
0.000000100000000
-50.000000000007745 -25.000000000000998 25.000000000000000
0 0

0101101
*
Ed
 0.000000100000000 1 1 0
1  51 0 0.000000000000000 6.000000000000000
2  85 15 0 0.000000000000000 6.000000000000000
4 G1 15 0 25 0
0

0101000
+122 0 -35 0 *
Ed
 0.000000100000000 1 1 0
1  52 0 0.000000000000000 50.000000000007745
2  86 20 35 0.000000000000000 50.000000000007745
0

0101000
+35 44 -40 44 *
Wi

0101100
+34 0 -39 0 -121 51 +33 52 *
Fa
0  0.000000100000000 25 0

0101000
+32 0 *
Ed
 0.000000100000000 1 1 0
1  53 0 4.712388980385000 7.853981633974000
2  87 15 44 4.712388980385000 7.853981633974000
2  88 20 35 4.712388980385000 7.853981633974000
0

0101000
+35 44 -98 44 *
Wi

0101100
+34 0 -97 0 -120 51 +30 52 *
Fa
0  0.000000100000000 15 0

0101000
+29 0 *
Ve
0.000000100000000
-60.000000000000000 -0.000000000001000 25.000000000000000
0 0

0101101
*
Ed
 0.000000100000000 1 1 0
1  54 0 0.000000000000000 6.000000000000000
3  89 90CN 16 0 0.000000000000000 6.000000000000000
0

0101000
+118 0 -27 0 *
Ed
 0.000000100000000 1 1 0
1  55 0 0.000000000000000 6.283185307179586
2  91 16 44 0.000000000000000 6.283185307179586
2  92 20 35 0.000000000000000 6.283185307179586
0

0101000
+27 44 -27 44 *
Wi

0101100
+26 0 -26 0 -117 51 +25 52 *
Fa
0  0.000000100000000 16 0

0101000
+24 0 *
Ed
 0.000000100000000 1 1 0
1  56 0 0.000000000000000 6.000000000000000
2  93 17 0 0.000000000000000 6.000000000000000
0

0101000
+112 51 -112 52 *
Wi

0101100
+22 0 -49 0 -111 51 +111 52 *
Fa
0  0.000000100000000 17 0

0101000
+21 0 *
Ed
 0.000000100000000 1 1 0
1  57 0 0.000000000000000 6.000000000000000
0

0101000
+110 51 -110 52 *
Wi

0101100
+19 0 -22 0 -109 51 +109 52 *
Fa
0  0.000000100000000 26 0

0101000
+18 0 *
Ed
 0.000000100000000 1 1 0
1  58 0 0.000000000000000 6.000000000000000
2  94 18 0 0.000000000000000 6.000000000000000
4 G1 18 0 27 0
0

0101000
+106 51 -106 52 *
Wi

0101100
+16 0 -19 0 -105 51 +105 52 *
Fa
0  0.000000100000000 27 0

0101000
+15 0 *
Wi

0101100
+16 0 -93 0 -104 51 +104 52 *
Fa
0  0.000000100000000 18 0

0101000
+13 0 *
Ed
 0.000000100000000 1 1 0
1  59 0 0.000000000000000 6.000000000000000
3  95 96CN 19 0 0.000000000000000 6.000000000000000
0

0101000
+102 51 -102 52 *
Wi

0101100
+11 0 -11 0 -101 51 +101 52 *
Fa
0  0.000000100000000 19 0

0101000
+10 0 *
Wi

0101100
+85 9 +96 48 -30 48 +33 48 +38 48 +43 48 +52 48 *
Wi

0101100
+25 48 *
Fa
0  0.000000100000000 20 72

0101000
+8 0 +7 0 *
Wi

0101100
+78 53 +92 53 -104 53 +105 53 +109 53 +111 53 +48 53 *
Wi

0101100
+101 53 *
Fa
0  0.000000100000000 7 73

0101000
+5 0 +4 0 *
Sh

0101100
-148 4 +141 4 +136 0 -131 0 -115 4 +99 21 -94 4 +90 21 +83 4 +76 21 
-71 3 -66 3 +63 21 +55 4 -50 4 +46 21 -41 29 -36 29 -31 29 +28 29 
-23 29 +20 30 +17 30 +14 30 -12 30 +9 30 +6 4 -3 21 *
So

0100000
+2 0 *

+1 1 