
CASCADE Topology V1, (c) Matra-Datavision
Locations 10
1
-1.000000000000000 0.000000000000000 0.000000000000000 0.000000000000000 
0.000000000000000 -0.000000000000103 1.000000000000000 22.000000000000000 
0.000000000000000 1.000000000000000 0.000000000000103 0.000000000002276 
1
1.000000000000000 0.000000000000000 0.000000000000000 0.000000000000000 
0.000000000000000 -0.000000000000103 -1.000000000000000 0.000000000000000 
0.000000000000000 1.000000000000000 -0.000000000000103 0.000000000000000 
1
1.000000000000000 0.000000000000000 0.000000000000000 -0.000000000000000 
0.000000000000000 1.000000000000000 0.000000000000000 -0.000000000000000 
0.000000000000000 0.000000000000000 1.000000000000000 3.000000000000000 
2  1 1 2 -1 3 1 0
1
1.000000000000000 0.000000000000000 0.000000000000000 0.000000000000000 
0.000000000000000 1.000000000000000 0.000000000000000 0.000000000000000 
0.000000000000000 0.000000000000000 1.000000000000000 -6.000000000000000 
2  1 1 2 -1 3 1 5 1 0
2  3 -1 2 1 1 -1 0
2  5 -1 3 -1 2 1 1 -1 0
2  2 -1 3 1 0
2  2 -1 3 1 5 1 0
Curve2ds 12
1 7.85398163397399962 0.00000000000000000 0.00000000000000000 -1.00000000000000000 
1 4.71238898038499965 0.00000000000000000 0.00000000000000000 -1.00000000000000000 
1 0.00000000000000000 0.00000000000000000 1.00000000000000000 0.00000000000000000 
1 0.00000000000000000 -6.00000000000000000 1.00000000000000000 0.00000000000000000 
1 4.71238898038499965 0.00000000000000000 0.00000000000000000 -1.00000000000000000 
1 7.85398163397399962 0.00000000000000000 0.00000000000000000 -1.00000000000000000 
1 0.00000000000000000 0.00000000000000000 1.00000000000000000 0.00000000000000000 
1 0.00000000000000000 -6.00000000000000000 1.00000000000000000 0.00000000000000000 
1 0.00000000000000000 0.00000000000000000 0.00000000000000000 -1.00000000000000000 
1 6.28318530717958623 0.00000000000000000 0.00000000000000000 -1.00000000000000000 
1 0.00000000000000000 0.00000000000000000 1.00000000000000000 0.00000000000000000 
1 0.00000000000000000 -6.00000000000000000 1.00000000000000000 0.00000000000000000 
Curves 14
1 -0.00000000000763382 24.99999999999900169 -19.00000000000000000 0.00000000000000000 0.00000000000000000 -1.00000000000000000 
1 -50.00000000001208633 24.99999999999900169 -19.00000000000000000 0.00000000000000000 0.00000000000000000 -1.00000000000000000 
1 0.00000000000763382 24.99999999999900169 0.00000000000000000 1.00000000000000000 0.00000000000000000 0.00000000000000000 
1 -50.00000000000774492 -25.00000000000099831 -19.00000000000000000 0.00000000000000000 0.00000000000000000 -1.00000000000000000 
2 50.00000000000000000 -0.00000000000100000 0.00000000000000000 0.00000000000000000 0.00000000000000000 1.00000000000000000 1.00000000000000000 0.00000000000000000 -0.00000000000000000 -0.00000000000000000 1.00000000000000000 0.00000000000000000 25.00000000000000000
1 0.00000000000000000 -25.00000000000099831 -19.00000000000000000 0.00000000000000000 0.00000000000000000 -1.00000000000000000 
1 50.00000000000774492 -25.00000000000099831 0.00000000000000000 -1.00000000000000000 0.00000000000000000 0.00000000000000000 
1 -0.00000000000489143 -15.78947368421099995 -19.00000000000000000 0.00000000000000000 0.00000000000000000 -1.00000000000000000 
1 0.00000000000000000 -25.00000000000099831 0.00000000000000000 0.00000000000053107 1.00000000000000000 0.00000000000000000 
1 -0.00000000000763382 15.78947368421099995 -19.00000000000000000 0.00000000000000000 0.00000000000000000 -1.00000000000000000 
2 0.00000000000000000 0.00000000000000000 0.00000000000000000 0.00000000000000000 0.00000000000000000 1.00000000000000000 1.00000000000000000 0.00000000000000000 -0.00000000000000000 -0.00000000000000000 1.00000000000000000 0.00000000000000000 15.78947368421099995
1 0.00000000000763382 15.78947368421099995 0.00000000000000000 0.00000000000000000 1.00000000000000000 0.00000000000000000 
1 -60.00000000000000000 -0.00000000000100000 -19.00000000000000000 0.00000000000000000 0.00000000000000000 -1.00000000000000000 
2 50.00000000000000000 -0.00000000000100000 0.00000000000000000 0.00000000000000000 0.00000000000000000 1.00000000000000000 1.00000000000000000 0.00000000000000000 -0.00000000000000000 -0.00000000000000000 1.00000000000000000 0.00000000000000000 10.00000000000000000
Polygon3D 0
PolygonOnTriangulations 0
Surfaces 8
1 -0.00000000000763382 24.99999999999900169 -19.00000000000000000 0.00000000000000000 1.00000000000000000 0.00000000000000000 -1.00000000000000000 0.00000000000000000 0.00000000000000000 0.00000000000000000 -0.00000000000000000 1.00000000000000000 
2 -50.00000000000000000 -0.00000000000100000 -19.00000000000000000 -0.00000000000000000 -0.00000000000000000 1.00000000000000000 -1.00000000000000000 0.00000000000000000 0.00000000000000000 0.00000000000000000 1.00000000000000000 0.00000000000000000 25.00000000000000000
1 -50.00000000000774492 -25.00000000000099831 -19.00000000000000000 0.00000000000000000 -1.00000000000000000 0.00000000000000000 1.00000000000000000 0.00000000000000000 0.00000000000000000 -0.00000000000000000 0.00000000000000000 1.00000000000000000 
1 0.00000000000000000 -25.00000000000099831 -19.00000000000000000 1.00000000000000000 0.00000000000053107 0.00000000000000000 -0.00000000000053107 1.00000000000000000 0.00000000000000000 0.00000000000000000 -0.00000000000000000 1.00000000000000000 
2 0.00000000000000000 0.00000000000000000 -19.00000000000000000 -0.00000000000000000 -0.00000000000000000 1.00000000000000000 -1.00000000000000000 0.00000000000000000 0.00000000000000000 0.00000000000000000 1.00000000000000000 0.00000000000000000 15.78947368421099995
1 -0.00000000000763382 15.78947368421099995 -19.00000000000000000 1.00000000000000000 -0.00000000000000000 0.00000000000000000 0.00000000000000000 1.00000000000000000 0.00000000000000000 -0.00000000000000000 0.00000000000000000 1.00000000000000000 
2 -50.00000000000000000 -0.00000000000100000 -19.00000000000000000 -0.00000000000000000 -0.00000000000000000 1.00000000000000000 -1.00000000000000000 0.00000000000000000 0.00000000000000000 0.00000000000000000 1.00000000000000000 0.00000000000000000 10.00000000000000000
1 -32.24536711117904986 22.00000000000000000 0.00000000000045804 0.00000000000000000 -1.00000000000000000 -0.00000000000010346 0.00000000000000000 0.00000000000010346 -1.00000000000000000 1.00000000000000000 0.00000000000000000 0.00000000000000000 
Triangulations 0

TShapes 40
Ve
0.000000100000000
0.000000000007634 24.999999999999002 0.000000000000000
0 0

0101101
*
Ed
 0.000000100000000 1 1 0
1  1 0 0.000000000000000 6.000000000000000
0

0101000
+40 4 -40 6 *
Ve
0.000000100000000
50.000000000012086 24.999999999999002 0.000000000000000
0 0

0101101
*
Ed
 0.000000100000000 1 1 0
1  2 0 0.000000000000000 6.000000000000000
2  1 2 0 0.000000000000000 6.000000000000000
4 G1 1 0 2 0
0

0101000
+38 4 -38 6 *
Ed
 0.000000100000000 1 1 0
1  3 0 0.000000000000000 50.000000000004455
0

0101000
+40 0 -38 0 *
Wi

0101100
+39 0 -37 0 -36 4 +36 6 *
Fa
0  0.000000100000000 1 0

0111000
+35 0 *
Ve
0.000000100000000
50.000000000007745 -25.000000000000998 0.000000000000000
0 0

0101101
*
Ed
 0.000000100000000 1 1 0
1  4 0 0.000000000000000 6.000000000000000
2  2 2 0 0.000000000000000 6.000000000000000
4 G1 2 0 3 0
0

0101000
+33 4 -33 6 *
Ed
 0.000000100000000 1 1 0
1  5 0 4.712388980385000 7.853981633974000
2  3 2 7 4.712388980385000 7.853981633974000
2  4 2 8 4.712388980385000 7.853981633974000
0

0101000
+33 0 -38 0 *
Wi

0101100
+32 0 -37 0 -31 4 +31 6 *
Fa
0  0.000000100000000 2 0

0111000
+30 0 *
Ve
0.000000100000000
0.000000000000000 -25.000000000000998 0.000000000000000
0 0

0101101
*
Ed
 0.000000100000000 1 1 0
1  6 0 0.000000000000000 6.000000000000000
0

0101000
+28 4 -28 6 *
Ed
 0.000000100000000 1 1 0
1  7 0 0.000000000000000 50.000000000007745
0

0101000
+33 0 -28 0 *
Wi

0101100
+32 0 -27 0 -26 4 +26 6 *
Fa
0  0.000000100000000 3 0

0111000
+25 0 *
Ve
0.000000100000000
0.000000000004891 -15.789473684211000 0.000000000000000
0 0

0101101
*
Ed
 0.000000100000000 1 1 0
1  8 0 0.000000000000000 6.000000000000000
2  5 5 0 0.000000000000000 6.000000000000000
0

0101000
+23 4 -23 6 *
Ed
 0.000000100000000 1 1 0
1  9 0 0.000000000000000 9.210526315789998
0

0101000
+28 0 -23 0 *
Wi

0101100
+27 0 -22 0 -21 4 +21 6 *
Fa
0  0.000000100000000 4 0

0111000
+20 0 *
Ve
0.000000100000000
0.000000000007634 15.789473684211000 0.000000000000000
0 0

0101101
*
Ed
 0.000000100000000 1 1 0
1  10 0 0.000000000000000 6.000000000000000
2  6 5 0 0.000000000000000 6.000000000000000
0

0101000
+18 4 -18 6 *
Ed
 0.000000100000000 1 1 0
1  11 0 4.712388980385000 7.853981633974000
2  7 5 7 4.712388980385000 7.853981633974000
2  8 5 8 4.712388980385000 7.853981633974000
0

0101000
+23 0 -18 0 *
Wi

0101100
+22 0 -17 0 -16 4 +16 6 *
Fa
0  0.000000100000000 5 0

0111000
+15 0 *
Ed
 0.000000100000000 1 1 0
1  12 0 0.000000000000000 9.210526315788002
0

0101000
+18 0 -40 0 *
Wi

0101100
+17 0 -39 0 -13 4 +13 6 *
Fa
0  0.000000100000000 6 0

0111000
+12 0 *
Ve
0.000000100000000
60.000000000000000 -0.000000000001000 0.000000000000000
0 0

0101101
*
Ed
 0.000000100000000 1 1 0
1  13 0 0.000000000000000 6.000000000000000
3  9 10CN 7 0 0.000000000000000 6.000000000000000
0

0101000
+10 4 -10 6 *
Ed
 0.000000100000000 1 1 0
1  14 0 0.000000000000000 6.283185307179586
2  11 7 7 0.000000000000000 6.283185307179586
2  12 7 8 0.000000000000000 6.283185307179586
0

0101000
+10 0 -10 0 *
Wi

0101100
+9 0 -9 0 -8 4 +8 6 *
Fa
0  0.000000100000000 7 0

0111000
+7 0 *
Wi

0101100
+36 1 -31 1 +26 1 +21 1 +16 1 +13 1 *
Wi

0101100
+8 1 *
Fa
0  0.000000100000000 8 0

0111000
+5 0 +4 0 *
Sh

0101100
+34 0 -29 0 +24 0 +19 0 +14 0 +11 0 +6 0 +3 9 -3 10 *
So

1100000
+2 0 *

+1 0 