
CASCADE Topology V1, (c) Matra-Datavision
Locations 61
1
1.000000000000000 0.000000000000000 0.000000000000000 0.000000000000000 
0.000000000000000 1.000000000000000 0.000000000000000 0.000000000000000 
0.000000000000000 0.000000000000000 1.000000000000000 0.000000000000000 
1
1.000000000000000 0.000000000000000 0.000000000000000 0.000000000000000 
0.000000000000000 1.000000000000000 0.000000000000000 0.000000000000000 
0.000000000000000 0.000000000000000 1.000000000000000 0.000000000000000 
1
1.000000000000000 0.000000000000000 0.000000000000000 0.000000000000000 
0.000000000000000 1.000000000000000 0.000000000000000 0.000000000000000 
0.000000000000000 0.000000000000000 1.000000000000000 0.000000000000000 
2  2 1 3 1 0
2  3 -1 2 -1 0
1
0.000000000000000 -0.000000000000000 1.000000000000000 -0.000000000007634 
-0.000000000000103 -1.000000000000000 0.000000000000000 0.000000000000000 
1.000000000000000 -0.000000000000103 -0.000000000000000 0.000000000000000 
1
1.000000000000000 0.000000000000000 0.000000000000000 0.000000000000000 
0.000000000000000 -0.000000000000103 -1.000000000000000 0.000000000000000 
0.000000000000000 1.000000000000000 -0.000000000000103 0.000000000000000 
1
1.000000000000000 0.000000000000000 0.000000000000000 -49.000000000000000 
0.000000000000000 1.000000000000000 0.000000000000000 0.000000000000011 
0.000000000000000 0.000000000000000 1.000000000000000 -0.000000000000000 
1
1.000000000000000 0.000000000000000 0.000000000000000 0.000000000000000 
0.000000000000000 1.000000000000000 0.000000000000000 0.000000000000000 
0.000000000000000 0.000000000000000 1.000000000000000 0.000000000000000 
2  6 1 7 -1 8 1 9 1 2 1 3 1 0
1
1.000000000000000 0.000000000000000 0.000000000000000 0.000000000000000 
0.000000000000000 -0.000000000000103 -1.000000000000000 0.000000000000000 
0.000000000000000 1.000000000000000 -0.000000000000103 0.000000000000000 
2  11 -1 3 -1 2 -1 9 -1 8 -1 7 1 6 -1 0
2  11 -1 0
2  11 -1 3 -1 0
2  6 1 7 -1 9 1 2 1 3 1 0
2  11 -1 3 -1 2 -1 9 -1 7 1 6 -1 0
2  9 1 2 1 3 1 0
1
1.000000000000000 0.000000000000000 0.000000000000000 0.000000000000000 
0.000000000000000 -0.000000000000103 -1.000000000000000 0.000000000000000 
0.000000000000000 1.000000000000000 -0.000000000000103 0.000000000000000 
1
1.000000000000000 0.000000000000000 0.000000000000000 -0.000000000000000 
0.000000000000000 1.000000000000000 0.000000000000000 -0.000000000000000 
0.000000000000000 0.000000000000000 1.000000000000000 3.000000000000000 
1
1.000000000000000 0.000000000000000 0.000000000000000 0.000000000000000 
0.000000000000000 1.000000000000000 0.000000000000000 0.000000000000000 
0.000000000000000 0.000000000000000 1.000000000000000 0.000000000000000 
2  18 -1 19 1 20 1 2 1 3 1 0
1
1.000000000000000 0.000000000000000 0.000000000000000 0.000000000000000 
0.000000000000000 -0.000000000000103 -1.000000000000000 0.000000000000000 
0.000000000000000 1.000000000000000 -0.000000000000103 0.000000000000000 
2  18 -1 19 1 22 1 7 -1 9 1 2 1 3 1 0
2  18 -1 19 1 20 1 0
1
-1.000000000000000 0.000000000000000 0.000000000000000 0.000000000000000 
0.000000000000000 -0.000000000000103 1.000000000000000 22.000000000000000 
0.000000000000000 1.000000000000000 0.000000000000103 0.000000000002276 
2  25 1 18 -1 19 1 20 1 2 1 3 1 0
2  11 -1 3 -1 2 -1 20 -1 19 -1 18 1 25 -1 0
2  19 -1 18 1 25 -1 0
2  25 1 18 -1 19 1 20 1 0
2  18 -1 19 1 22 1 7 -1 0
2  3 -1 2 -1 9 -1 0
2  25 1 18 -1 19 1 22 1 7 -1 9 1 2 1 3 1 0
2  11 -1 3 -1 2 -1 9 -1 7 1 22 -1 19 -1 18 1 25 -1 0
2  25 1 18 -1 19 1 22 1 7 -1 0
2  6 1 7 -1 8 1 9 1 0
2  11 -1 3 -1 2 -1 20 -1 0
1
1.000000000000000 0.000000000000000 0.000000000000000 0.000000000000000 
0.000000000000000 1.000000000000000 0.000000000000000 0.000000000000000 
0.000000000000000 0.000000000000000 1.000000000000000 -6.000000000000000 
2  25 1 18 -1 19 1 37 1 20 1 0
2  11 -1 3 -1 2 -1 20 -1 37 -1 19 -1 18 1 25 -1 0
2  22 1 7 -1 0
2  11 -1 3 -1 2 -1 9 -1 7 1 22 -1 0
2  25 1 18 -1 19 1 37 1 22 1 7 -1 0
2  11 -1 3 -1 2 -1 9 -1 7 1 22 -1 37 -1 19 -1 18 1 25 -1 0
2  6 1 7 -1 8 1 0
2  2 -1 0
2  6 1 7 -1 9 1 2 1 0
2  9 1 2 1 0
2  11 -1 3 -1 2 -1 9 -1 0
2  6 1 7 -1 8 1 9 1 2 1 0
2  2 -1 9 -1 0
2  25 1 18 -1 19 1 37 1 22 1 7 -1 9 1 2 1 0
2  7 -1 9 1 0
2  22 1 7 -1 9 1 2 1 3 1 0
2  20 1 2 1 3 1 0
2  25 1 18 -1 19 1 37 1 20 1 2 1 3 1 0
2  25 1 18 -1 19 1 37 1 22 1 7 -1 9 1 2 1 3 1 0
2  25 1 18 -1 19 1 0
2  25 1 18 -1 19 1 37 1 0
2  37 -1 19 -1 18 1 25 -1 0
2  18 -1 19 1 37 1 20 1 0
2  18 -1 19 1 37 1 22 1 7 -1 0
Curve2ds 40
1 -1.57079632679489656 49.00000000000000000 1.00000000000000000 0.00000000000000000 
1 -4.71238898038468967 49.00000000000000000 1.00000000000000000 0.00000000000000000 
1 -3.14159265358979223 49.00000000000000000 1.00000000000000000 0.00000000000000000 
1 -1.57079632679489656 49.00000000000000711 1.00000000000000000 0.00000000000000000 
1 0.00000000000000000 0.00000000000000000 0.00000000000000000 1.00000000000000000 
1 0.00000000000000000 0.00000000000000000 0.00000000000000000 1.00000000000000000 
1 -1.57079632679489656 -0.00000000000000207 1.00000000000000000 0.00000000000000000 
1 1.57079632679489656 0.00000000000000000 0.00000000000000000 1.00000000000000000 
1 -4.71238898038468967 -0.00000000000000207 1.00000000000000000 0.00000000000000000 
1 1.57079632679489656 0.00000000000000000 0.00000000000000000 1.00000000000000000 
1 0.00000000000000000 0.00000000000000000 1.00000000000000000 0.00000000000000000 
1 0.00000000000000000 0.00000000000000000 1.00000000000000000 0.00000000000000000 
1 0.00000000000000000 0.00000000000000000 1.00000000000000000 0.00000000000000000 
1 0.00000000000000000 0.00000000000000000 1.00000000000000000 0.00000000000000000 
1 0.00000000000000000 0.00000000000000000 1.00000000000000000 0.00000000000000000 
1 0.00000000000000000 0.00000000000000000 1.00000000000000000 0.00000000000000000 
1 7.85398163397399962 0.00000000000000000 0.00000000000000000 -1.00000000000000000 
1 7.85398163397399962 0.00000000000000000 0.00000000000000000 -1.00000000000000000 
1 1.57079632679489656 0.00000000000000000 0.00000000000000000 1.00000000000000000 
1 0.00000000000000000 0.00000000000000000 0.00000000000000000 1.00000000000000000 
1 -3.14159265358979223 0.00000000000000000 1.00000000000000000 0.00000000000000000 
1 0.00000000000000000 0.00000000000000000 0.00000000000000000 1.00000000000000000 
1 -1.57079632679489656 0.00000000000000000 1.00000000000000000 0.00000000000000000 
1 1.57079632679489656 0.00000000000000000 0.00000000000000000 1.00000000000000000 
1 7.85398163397399962 0.00000000000000000 0.00000000000000000 -1.00000000000000000 
1 7.85398163397399962 0.00000000000000000 0.00000000000000000 -1.00000000000000000 
1 4.71238898038499965 0.00000000000000000 0.00000000000000000 -1.00000000000000000 
1 0.00000000000000000 -6.00000000000000000 1.00000000000000000 0.00000000000000000 
1 4.71238898038499965 0.00000000000000000 0.00000000000000000 -1.00000000000000000 
1 0.00000000000000000 -6.00000000000000000 1.00000000000000000 0.00000000000000000 
1 0.00000000000000000 0.00000000000000000 0.00000000000000000 -1.00000000000000000 
1 6.28318530717958623 0.00000000000000000 0.00000000000000000 -1.00000000000000000 
1 0.00000000000000000 -6.00000000000000000 1.00000000000000000 0.00000000000000000 
1 4.71238898038499965 0.00000000000000000 0.00000000000000000 -1.00000000000000000 
1 0.00000000000000000 -6.00000000000000000 1.00000000000000000 0.00000000000000000 
1 4.71238898038499965 0.00000000000000000 0.00000000000000000 -1.00000000000000000 
1 0.00000000000000000 -6.00000000000000000 1.00000000000000000 0.00000000000000000 
1 0.00000000000000000 0.00000000000000000 0.00000000000000000 -1.00000000000000000 
1 6.28318530717958623 0.00000000000000000 0.00000000000000000 -1.00000000000000000 
1 0.00000000000000000 -6.00000000000000000 1.00000000000000000 0.00000000000000000 
Curves 74
1 -25.00000000000259703 24.99999999999842260 0.00000000000001110 1.00000000000000000 0.00000000000010347 -0.00000000000000022 
8 1.57079632679489656 3.14159265358979312
2 -49.00000000000763833 -14.00000000000206946 19.99999999999954881 1.00000000000000000 0.00000000000000000 -0.00000000000000000 0.00000000000000000 1.00000000000000000 0.00000000000010347 0.00000000000000000 -0.00000000000010347 1.00000000000000000 5.00000000000000000
8 4.71238898038468967 6.28318530717958712
2 -49.00000000000763833 13.99999999999793054 20.00000000000244782 -1.00000000000000000 0.00000000000000000 0.00000000000000000 0.00000000000000000 1.00000000000000000 0.00000000000010347 0.00000000000000000 0.00000000000010347 -1.00000000000000000 5.00000000000000000
8 -11.25000000000040856 -6.25000000000139977
1 -49.00000000000763123 -19.00000000000142109 13.74999999999763212 -0.00000000000000022 0.00000000000010349 -1.00000000000000000 
8 -11.25000000000040856 -6.25000000000139622
1 -49.00000000000763123 18.99999999999857891 13.75000000000156497 -0.00000000000000022 0.00000000000010346 -1.00000000000000000 
1 -25.00000000000259703 24.99999999999842260 0.00000000000001110 1.00000000000000000 0.00000000000010347 -0.00000000000000022 
1 -25.00000000000259703 24.99999999999842260 0.00000000000001110 1.00000000000000000 0.00000000000010347 -0.00000000000000022 
1 -25.00000000000311573 29.99999999999842260 0.00000000000001221 0.00000000000010347 -1.00000000000000000 -0.00000000000000022 
1 24.99999999999740297 25.00000000000359535 0.00000000000000000 -0.00000000000010347 1.00000000000000000 0.00000000000000022 
8 3.14159265358979223 4.71238898038468967
2 -49.00000000000763833 -20.30000000000261906 25.29999999999891003 1.00000000000000000 0.00000000000000000 -0.00000000000000022 -0.00000000000000022 0.00000000000010347 -1.00000000000000000 0.00000000000000000 1.00000000000000000 0.00000000000010347 4.70000000000000018
8 1.57079632679489656 3.14159265358979312
2 -49.00000000000763833 20.29999999999738236 25.30000000000310934 1.00000000000000000 0.00000000000000000 -0.00000000000000022 -0.00000000000000022 0.00000000000010347 -1.00000000000000000 0.00000000000000000 1.00000000000000000 0.00000000000010347 4.70000000000000018
1 24.99999999999688427 30.00000000000359535 0.00000000000000111 -1.00000000000000000 -0.00000000000010347 0.00000000000000022 
1 -25.00000000000258638 24.99999999999841194 0.00000000000001110 1.00000000000000000 0.00000000000010347 -0.00000000000000022 
1 -0.00000000000763589 -14.00000000000258638 24.99999999999954881 -1.00000000000000000 -0.00000000000000000 0.00000000000000000 
1 -0.00000000000763589 13.99999999999741362 25.00000000000244782 -1.00000000000000000 -0.00000000000000000 0.00000000000000000 
8 1.57079632679489656 3.14159265358979312
2 -0.00000000000763382 -14.00000000000206946 19.99999999999954881 1.00000000000000000 0.00000000000000000 -0.00000000000000000 0.00000000000000000 1.00000000000000000 0.00000000000010347 0.00000000000000000 -0.00000000000010347 1.00000000000000000 5.00000000000000000
1 -0.00000000000763589 -19.00000000000207123 19.99999999999903366 -1.00000000000000000 -0.00000000000000000 0.00000000000000000 
8 4.71238898038468967 6.28318530717958623
2 -0.00000000000763382 13.99999999999793054 20.00000000000244782 -1.00000000000000000 0.00000000000000000 0.00000000000000000 0.00000000000000000 1.00000000000000000 0.00000000000010347 0.00000000000000000 0.00000000000010347 -1.00000000000000000 5.00000000000000000
1 -0.00000000000763589 18.99999999999792877 20.00000000000296296 -1.00000000000000000 -0.00000000000000000 0.00000000000000000 
1 0.00000000000763382 -19.00000000000163425 -34.78947368420902819 -0.00000000000000000 -0.00000000000010347 -1.00000000000000000 
2 0.00000000000000000 -19.00000000000000000 -18.99999999999803180 0.00000000000000000 1.00000000000000000 -0.00000000000010347 1.00000000000000000 0.00000000000000000 0.00000000000000000 0.00000000000000000 -0.00000000000010347 -1.00000000000000000 15.78947368421099995
1 0.00000000000000000 -18.99999999999741362 6.00000000000296652 0.00000000000053107 -0.00000000000010347 -1.00000000000000000 
1 0.00000000000763382 -19.00000000000258638 -43.99999999999702993 1.00000000000000000 0.00000000000000000 0.00000000000000000 
1 50.00000000000774492 -18.99999999999741362 6.00000000000296652 -1.00000000000000000 0.00000000000000000 0.00000000000000000 
2 50.00000000000000000 -19.00000000000000000 -18.99999999999703348 0.00000000000000000 1.00000000000000000 -0.00000000000010347 1.00000000000000000 0.00000000000000000 0.00000000000000000 0.00000000000000000 -0.00000000000010347 -1.00000000000000000 25.00000000000000000
2 50.00000000000000000 -19.00000000000000000 -18.99999999999703348 0.00000000000000000 1.00000000000000000 -0.00000000000010347 1.00000000000000000 0.00000000000000000 0.00000000000000000 0.00000000000000000 -0.00000000000010347 -1.00000000000000000 10.00000000000000000
1 0.00000000000763382 18.99999999999836575 -34.78947368421296460 0.00000000000000000 -0.00000000000010347 -1.00000000000000000 
2 0.00000000000000000 19.00000000000000000 -19.00000000000196465 0.00000000000000000 1.00000000000000000 -0.00000000000010347 1.00000000000000000 0.00000000000000000 0.00000000000000000 0.00000000000000000 -0.00000000000010347 -1.00000000000000000 15.78947368421099995
1 0.00000000000000000 19.00000000000258638 5.99999999999903366 0.00000000000053107 -0.00000000000010347 -1.00000000000000000 
1 0.00000000000763382 18.99999999999741362 -44.00000000000096634 1.00000000000000000 0.00000000000000000 0.00000000000000000 
1 50.00000000000774492 19.00000000000258638 5.99999999999903366 -1.00000000000000000 0.00000000000000000 -0.00000000000000000 
2 50.00000000000000000 19.00000000000000000 -19.00000000000096634 0.00000000000000000 1.00000000000000000 -0.00000000000010347 1.00000000000000000 0.00000000000000000 0.00000000000000000 0.00000000000000000 -0.00000000000010347 -1.00000000000000000 25.00000000000000000
2 50.00000000000000000 19.00000000000000000 -19.00000000000096634 0.00000000000000000 1.00000000000000000 -0.00000000000010347 1.00000000000000000 0.00000000000000000 0.00000000000000000 0.00000000000000000 -0.00000000000010347 -1.00000000000000000 10.00000000000000000
1 -50.00000000001208633 -19.00000000000258638 24.99999999999703704 0.00000000000000000 -1.00000000000000000 -0.00000000000010347 
1 0.00000000000763382 -25.00000000000258638 -49.99999999999641886 1.00000000000000000 0.00000000000000000 0.00000000000000000 
1 -50.00000000001208633 18.99999999999741362 25.00000000000096634 0.00000000000000000 1.00000000000000000 0.00000000000010347 
1 0.00000000000763382 24.99999999999741362 -50.00000000000159162 1.00000000000000000 0.00000000000000000 0.00000000000000000 
1 -25.00000000000310507 29.99999999999841194 0.00000000000001221 0.00000000000010347 -1.00000000000000000 -0.00000000000000022 
1 -0.00000000000762820 -25.00000000000261835 25.29999999999841265 -1.00000000000000000 -0.00000000000000000 0.00000000000000022 
1 -0.00000000000762827 -25.00000000000258638 24.99999999999841194 -1.00000000000000000 -0.00000000000000000 0.00000000000000022 
1 24.99999999999741362 25.00000000000358469 0.00000000000000000 -0.00000000000010347 1.00000000000000000 0.00000000000000022 
1 -0.00000000000762820 24.99999999999738165 25.30000000000358540 -1.00000000000000000 -0.00000000000000000 0.00000000000000022 
1 0.00000000000763382 24.99999999999741362 -50.00000000000159162 1.00000000000000000 0.00000000000000000 0.00000000000000000 
8 3.14159265358979223 4.71238898038468967
2 -0.00000000000762820 -20.30000000000261906 25.29999999999889937 1.00000000000000000 0.00000000000000000 -0.00000000000000022 -0.00000000000000022 0.00000000000010347 -1.00000000000000000 0.00000000000000000 1.00000000000000000 0.00000000000010347 4.70000000000000018
1 -0.00000000000762716 -20.30000000000310578 29.99999999999889866 -1.00000000000000000 -0.00000000000000000 0.00000000000000022 
8 1.57079632679489656 3.14159265358979312
2 -0.00000000000762820 20.29999999999738236 25.30000000000309868 1.00000000000000000 0.00000000000000000 -0.00000000000000022 -0.00000000000000022 0.00000000000010347 -1.00000000000000000 0.00000000000000000 1.00000000000000000 0.00000000000010347 4.70000000000000018
1 -0.00000000000762716 20.29999999999689564 30.00000000000309797 -1.00000000000000000 -0.00000000000000000 0.00000000000000022 
1 24.99999999999689493 30.00000000000358469 0.00000000000000111 -1.00000000000000000 -0.00000000000010347 0.00000000000000022 
8 6.00000000000000000 11.00000000000000000
1 -0.00000000000762827 -25.00000000000258638 24.99999999999841194 0.00000000000000000 1.00000000000000000 0.00000000000010347 
8 -5.00000000000000000 0.00000000000000000
1 -0.00000000000763382 18.99999999999741362 25.00000000000096634 0.00000000000000000 1.00000000000000000 0.00000000000010347 
1 -25.00000000000258638 24.99999999999841194 0.00000000000001110 1.00000000000000000 0.00000000000010347 -0.00000000000000022 
1 -0.00000000000763382 18.99999999999741362 25.00000000000096634 0.00000000000000000 1.00000000000000000 0.00000000000010347 
1 -0.00000000000763382 -19.00000000000163425 15.78947368420903352 0.00000000000000000 -1.00000000000000000 -0.00000000000010347 
1 0.00000000000763382 -25.00000000000163425 -40.78947368420841713 -0.00000000000000000 -0.00000000000010347 -1.00000000000000000 
1 -0.00000000000763382 18.99999999999836575 15.78947368421296638 0.00000000000000000 1.00000000000000000 0.00000000000010347 
1 0.00000000000763382 24.99999999999836575 -40.78947368421358988 0.00000000000000000 -0.00000000000010347 -1.00000000000000000 
1 -0.00000000000489143 -18.99999999999836575 -15.78947368421296638 0.00000000000000000 -1.00000000000000000 -0.00000000000010347 
2 0.00000000000000000 -25.00000000000000000 -24.99999999999741362 0.00000000000000000 1.00000000000000000 -0.00000000000010347 1.00000000000000000 0.00000000000000000 0.00000000000000000 0.00000000000000000 -0.00000000000010347 -1.00000000000000000 15.78947368421099995
1 0.00000000000000000 -18.99999999999741362 -25.00000000000296296 0.00000000000000000 -1.00000000000000000 -0.00000000000010347 
1 0.00000000000000000 -24.99999999999741362 0.00000000000358469 0.00000000000053107 -0.00000000000010347 -1.00000000000000000 
1 -50.00000000000774492 -18.99999999999741362 -25.00000000000296296 0.00000000000000000 -1.00000000000000000 -0.00000000000010347 
1 50.00000000000774492 -24.99999999999741362 0.00000000000358469 -1.00000000000000000 0.00000000000000000 0.00000000000000000 
2 50.00000000000000000 -25.00000000000000000 -24.99999999999641176 0.00000000000000000 1.00000000000000000 -0.00000000000010347 1.00000000000000000 0.00000000000000000 0.00000000000000000 0.00000000000000000 -0.00000000000010347 -1.00000000000000000 25.00000000000000000
1 -60.00000000000000000 -19.00000000000000000 -0.00000000000296598 0.00000000000000000 -1.00000000000000000 -0.00000000000010347 
2 50.00000000000000000 -25.00000000000000000 -24.99999999999641176 0.00000000000000000 1.00000000000000000 -0.00000000000010347 1.00000000000000000 0.00000000000000000 0.00000000000000000 0.00000000000000000 -0.00000000000010347 -1.00000000000000000 10.00000000000000000
1 -0.00000000000489143 19.00000000000163425 -15.78947368420903352 0.00000000000000000 1.00000000000000000 0.00000000000010347 
2 0.00000000000000000 25.00000000000000000 -25.00000000000258638 0.00000000000000000 1.00000000000000000 -0.00000000000010347 1.00000000000000000 0.00000000000000000 0.00000000000000000 0.00000000000000000 -0.00000000000010347 -1.00000000000000000 15.78947368421099995
1 0.00000000000000000 19.00000000000258638 -24.99999999999903366 0.00000000000000000 1.00000000000000000 0.00000000000010347 
1 0.00000000000000000 25.00000000000258638 -0.00000000000158806 0.00000000000053107 -0.00000000000010347 -1.00000000000000000 
1 -50.00000000000774492 19.00000000000258638 -24.99999999999903366 0.00000000000000000 1.00000000000000000 0.00000000000010347 
1 50.00000000000774492 25.00000000000258638 -0.00000000000158806 -1.00000000000000000 0.00000000000000000 -0.00000000000000000 
2 50.00000000000000000 25.00000000000000000 -25.00000000000158806 0.00000000000000000 1.00000000000000000 -0.00000000000010347 1.00000000000000000 0.00000000000000000 0.00000000000000000 0.00000000000000000 -0.00000000000010347 -1.00000000000000000 25.00000000000000000
1 -60.00000000000000000 19.00000000000000000 0.00000000000096598 0.00000000000000000 1.00000000000000000 0.00000000000010347 
2 50.00000000000000000 25.00000000000000000 -25.00000000000158806 0.00000000000000000 1.00000000000000000 -0.00000000000010347 1.00000000000000000 0.00000000000000000 0.00000000000000000 0.00000000000000000 -0.00000000000010347 -1.00000000000000000 10.00000000000000000
Polygon3D 0
PolygonOnTriangulations 0
Surfaces 28
1 -49.00000000000763123 -0.00000000000284631 27.50000000000101252 1.00000000000000000 0.00000000000000000 -0.00000000000000022 0.00000000000000022 0.00000000000000000 1.00000000000000000 0.00000000000000000 -1.00000000000000000 0.00000000000000000 
2 -0.00000000000763589 -14.00000000000206946 19.99999999999954881 -1.00000000000000000 -0.00000000000000000 0.00000000000000000 0.00000000000000000 -0.00000000000010347 1.00000000000000000 -0.00000000000000000 -1.00000000000000000 -0.00000000000010347 5.00000000000000000
2 -0.00000000000763589 13.99999999999793054 20.00000000000244782 -1.00000000000000000 -0.00000000000000000 0.00000000000000000 0.00000000000000000 -0.00000000000010347 1.00000000000000000 0.00000000000000000 1.00000000000000000 0.00000000000010347 5.00000000000000000
2 -0.00000000000762820 -20.30000000000261906 25.29999999999889937 -1.00000000000000000 -0.00000000000000000 0.00000000000000022 0.00000000000000022 -0.00000000000010347 1.00000000000000000 -0.00000000000000000 -1.00000000000000000 -0.00000000000010347 4.70000000000000018
2 -0.00000000000762820 20.29999999999738236 25.30000000000309868 -1.00000000000000000 -0.00000000000000000 0.00000000000000022 0.00000000000000000 1.00000000000000000 0.00000000000010347 0.00000000000000022 -0.00000000000010347 1.00000000000000000 4.70000000000000018
1 -0.00000000000762827 -25.00000000000258638 24.99999999999841194 -0.00000000000000022 0.00000000000010347 -1.00000000000000000 0.00000000000000000 1.00000000000000000 0.00000000000010347 1.00000000000000000 0.00000000000000000 -0.00000000000000022 
1 -32.24536711117904986 3.00000000000575051 -18.99999999999969091 0.00000000000000000 -0.00000000000020696 1.00000000000000000 0.00000000000000000 1.00000000000000000 0.00000000000020696 1.00000000000000000 -0.00000000000000000 -0.00000000000000000 
1 -32.24536711117904986 2.99999999999788658 19.00000000000030909 0.00000000000000000 0.00000000000020693 -1.00000000000000000 0.00000000000000000 1.00000000000000000 0.00000000000020693 1.00000000000000000 -0.00000000000000000 0.00000000000000000 
2 0.00000000000000000 -19.00000000000000000 -0.00000000000196598 -0.00000000000000000 1.00000000000000000 0.00000000000010347 -1.00000000000000000 0.00000000000000000 -0.00000000000000000 -0.00000000000000000 -0.00000000000010347 1.00000000000000000 15.78947368421099995
2 -50.00000000000000000 -19.00000000000000000 -0.00000000000296598 -0.00000000000000000 1.00000000000000000 0.00000000000010347 -1.00000000000000000 0.00000000000000000 -0.00000000000000000 -0.00000000000000000 -0.00000000000010347 1.00000000000000000 25.00000000000000000
2 -50.00000000000000000 -19.00000000000000000 -0.00000000000296598 -0.00000000000000000 1.00000000000000000 0.00000000000010347 -1.00000000000000000 0.00000000000000000 -0.00000000000000000 -0.00000000000000000 -0.00000000000010347 1.00000000000000000 10.00000000000000000
2 0.00000000000000000 19.00000000000000000 0.00000000000196598 0.00000000000000000 -1.00000000000000000 -0.00000000000010347 -1.00000000000000000 -0.00000000000000000 0.00000000000000000 0.00000000000000000 -0.00000000000010347 1.00000000000000000 15.78947368421099995
2 -50.00000000000000000 19.00000000000000000 0.00000000000096598 0.00000000000000000 -1.00000000000000000 -0.00000000000010347 -1.00000000000000000 -0.00000000000000000 0.00000000000000000 0.00000000000000000 -0.00000000000010347 1.00000000000000000 25.00000000000000000
2 -50.00000000000000000 19.00000000000000000 0.00000000000096598 0.00000000000000000 -1.00000000000000000 -0.00000000000010347 -1.00000000000000000 -0.00000000000000000 0.00000000000000000 0.00000000000000000 -0.00000000000010347 1.00000000000000000 10.00000000000000000
1 -0.00000000000763382 -19.00000000000258638 24.99999999999703704 0.00000000000000000 -0.00000000000010347 1.00000000000000000 -1.00000000000000000 0.00000000000000000 0.00000000000000000 0.00000000000000000 1.00000000000000000 0.00000000000010347 
1 -0.00000000000763382 18.99999999999741362 25.00000000000096634 0.00000000000000000 -0.00000000000010347 1.00000000000000000 -1.00000000000000000 0.00000000000000000 0.00000000000000000 -0.00000000000000000 -1.00000000000000000 -0.00000000000010347 
1 -0.00000000000762716 -25.00000000000310507 29.99999999999841194 -0.00000000000000000 -1.00000000000000000 -0.00000000000010347 -0.00000000000000022 0.00000000000010347 -1.00000000000000000 1.00000000000000000 0.00000000000000000 -0.00000000000000022 
1 -0.00000000000762827 24.99999999999741362 25.00000000000358469 0.00000000000000000 1.00000000000000000 0.00000000000010347 0.00000000000000022 -0.00000000000010347 1.00000000000000000 1.00000000000000000 0.00000000000000000 -0.00000000000000022 
1 -0.00000000000762716 24.99999999999689493 30.00000000000358469 0.00000000000000022 -0.00000000000010347 1.00000000000000000 0.00000000000000000 -1.00000000000000000 -0.00000000000010347 1.00000000000000000 0.00000000000000000 -0.00000000000000022 
1 -0.00000000000762771 -27.50000000000100187 -0.00000000000569181 1.00000000000000000 0.00000000000000022 0.00000000000000000 0.00000000000000022 -1.00000000000000000 -0.00000000000010347 -0.00000000000000000 0.00000000000010347 -1.00000000000000000 
1 -0.00000000000763382 -19.00000000000163425 15.78947368420903352 1.00000000000000000 0.00000000000000000 0.00000000000000000 0.00000000000000000 -0.00000000000010347 1.00000000000000000 -0.00000000000000000 1.00000000000000000 0.00000000000010347 
1 -0.00000000000763382 18.99999999999836575 15.78947368421296638 1.00000000000000000 0.00000000000000000 0.00000000000000000 0.00000000000000000 -0.00000000000010347 1.00000000000000000 0.00000000000000000 -1.00000000000000000 -0.00000000000010347 
1 0.00000000000000000 -18.99999999999741362 -25.00000000000296296 1.00000000000000000 -0.00000000000000000 0.00000000000053107 -0.00000000000053107 -0.00000000000010347 1.00000000000000000 -0.00000000000000000 1.00000000000000000 0.00000000000010347 
1 -50.00000000000774492 -18.99999999999741362 -25.00000000000296296 -0.00000000000000000 0.00000000000010347 -1.00000000000000000 1.00000000000000000 0.00000000000000000 0.00000000000000000 -0.00000000000000000 1.00000000000000000 0.00000000000010347 
1 0.00000000000000000 19.00000000000258638 -24.99999999999903366 1.00000000000000000 -0.00000000000000000 0.00000000000053107 -0.00000000000053107 -0.00000000000010347 1.00000000000000000 0.00000000000000000 -1.00000000000000000 -0.00000000000010347 
1 -50.00000000000774492 19.00000000000258638 -24.99999999999903366 0.00000000000000000 0.00000000000010347 -1.00000000000000000 1.00000000000000000 0.00000000000000000 0.00000000000000000 0.00000000000000000 -1.00000000000000000 -0.00000000000010347 
1 -32.24536711117904986 -2.99999999999300782 -25.00000000000030909 0.00000000000000000 -0.00000000000020696 1.00000000000000000 0.00000000000000000 1.00000000000000000 0.00000000000020696 1.00000000000000000 -0.00000000000000000 -0.00000000000000000 
1 -32.24536711117904986 -3.00000000000335509 24.99999999999969091 0.00000000000000000 0.00000000000020693 -1.00000000000000000 0.00000000000000000 1.00000000000000000 0.00000000000020693 1.00000000000000000 -0.00000000000000000 0.00000000000000000 
Triangulations 0

TShapes 184
Ve
0.000000100000000
-49.000000000007624 -24.999999999998099 -14.000000000005173
0 0

0101101
*
Ve
0.000000100000000
-49.000000000007624 -25.000000000003897 13.999999999994827
0 0

0101101
*
Ed
 0.000000100000000 1 1 0
1  1 0 11.000000000000000 39.000000000000000
0

0101000
+184 12 -183 12 *
Ve
0.000100000000000
-49.000000000007638 -19.999999999997069 -19.000000000004139
0 0

0101101
*
Ed
 0.000000100000000 1 1 0
1  2 0 1.570796326794897 3.141592653589793
2  1 2 0 1.570796326794897 3.141592653589793
0

0101000
+184 13 -181 13 *
Ve
0.000100000000000
-49.000000000007638 -20.000000000004928 18.999999999995858
0 0

0101101
*
Ed
 0.000000100000000 1 1 0
1  3 0 4.712388980384690 6.283185307179587
2  2 3 0 4.712388980384690 6.283185307179587
0

0101000
+183 13 -179 13 *
Ve
0.000100000000000
-49.000000000007624 -24.999999999996078 -19.000000000005173
0 0

0101101
*
Ed
 0.000100000000000 1 1 0
1  4 0 -11.250000000000409 -6.250000000001400
0

0101000
+177 13 -181 13 *
Ve
0.000100000000000
-49.000000000007624 -25.000000000003936 18.999999999994827
0 0

0101101
*
Ed
 0.000100000000000 1 1 0
1  5 0 -11.250000000000409 -6.250000000001396
0

0101000
+175 13 -179 13 *
Ve
0.000000212133034
-49.000000000007624 -24.999999999995836 -25.000000000005173
0 0

0101101
*
Ed
 0.000000100002007 1 1 0
1  6 0 0.000000000000000 6.000000000000000
0

0101000
+173 12 -177 12 *
Ve
0.000000212133034
-49.000000000007624 -25.000000000006182 24.999999999994827
0 0

0101101
*
Ed
 0.000000100002007 1 1 0
1  7 0 44.000000000000000 50.000000000000000
0

0101000
+175 12 -171 12 *
Ve
0.000000100000000
-49.000000000007631 -25.299999999995837 -25.000000000005237
0 0

0101101
*
Ed
 0.000000100000000 1 1 0
1  8 0 4.699999999999999 5.000000000000000
0

0101000
+169 12 -173 12 *
Ve
0.000000100000000
-49.000000000007624 -25.300000000006182 24.999999999994763
0 0

0101101
*
Ed
 0.000000100000000 1 1 0
1  9 0 0.000000000000000 0.300000000000001
0

0101000
-167 12 +171 12 *
Ve
0.000000100000000
-49.000000000007631 -29.999999999996810 -20.300000000006211
0 0

0101101
*
Ed
 0.000000100000000 1 1 0
1  10 0 3.141592653589792 4.712388980384690
2  3 4 0 3.141592653589792 4.712388980384690
0

0101000
+165 14 -169 14 *
Ve
0.000000100000000
-49.000000000007631 -30.000000000005208 20.299999999993791
0 0

0101101
*
Ed
 0.000000100000000 1 1 0
1  11 0 1.570796326794897 3.141592653589793
2  4 5 0 1.570796326794897 3.141592653589793
0

0101000
+167 14 -163 14 *
Ed
 0.000000100000000 1 1 0
1  12 0 4.699999999999999 45.299999999999997
0

0101000
+163 12 -165 12 *
Wi

0101100
+182 10 -180 0 +178 0 +176 0 -174 0 +172 10 +170 10 +168 10 +166 10 +164 3 
+162 3 +161 10 *
Fa
0  0.000000100000000 1 5

0101000
+160 5 *
Ve
0.000001000019966
-0.000000000007628 -24.999999999998099 -14.000000000005173
0 0

0101101
*
Ve
0.000001000019966
-0.000000000007628 -25.000000000003897 13.999999999994827
0 0

0101101
*
Ed
 0.000000100000000 1 1 0
1  13 0 11.000000000000000 39.000000000000000
0

0101000
+158 16 -157 16 *
Ed
 0.000000100000000 1 1 0
1  14 0 -0.000000000000008 48.999999999999993
2  5 2 0 -0.000000000000008 48.999999999999993
4 G1 6 17 2 0
0

0101000
+158 13 -184 13 *
Ed
 0.000000100000000 1 1 0
1  15 0 -0.000000000000008 48.999999999999993
2  6 3 0 -0.000000000000008 48.999999999999993
4 G1 6 17 3 0
0

0101000
+157 13 -183 13 *
Wi

0101100
-156 15 +155 0 -154 0 +182 10 *
Fa
0  0.000000100000000 6 9

0101000
+153 5 *
Ve
0.000000100000000
-0.000000000007629 -19.999999999997069 -19.000000000004139
0 0

0101101
*
Ed
 0.000000100000000 1 1 0
1  16 0 1.570796326794897 3.141592653589793
2  7 2 0 1.570796326794897 3.141592653589793
0

0101000
+158 13 -151 13 *
Ed
 0.000000100000000 1 1 0
1  17 0 -0.000000000000007 49.000000000000000
2  8 2 0 -0.000000000000007 49.000000000000000
4 G1 2 0 7 21
0

0101000
+151 13 -181 13 *
Wi

0101100
+150 0 -155 0 +149 0 -180 0 *
Fa
0  0.000000100000000 2 0

0101000
+148 0 *
Ve
0.000000100000000
-0.000000000007629 -20.000000000004928 18.999999999995858
0 0

0101101
*
Ed
 0.000000100000000 1 1 0
1  18 0 4.712388980384690 6.283185307179586
2  9 3 0 4.712388980384690 6.283185307179586
0

0101000
+157 13 -146 13 *
Ed
 0.000000100000000 1 1 0
1  19 0 -0.000000000000007 49.000000000000000
2  10 3 0 -0.000000000000007 49.000000000000000
4 G1 3 0 8 23
0

0101000
+146 13 -179 13 *
Wi

0101100
+145 0 -154 0 +144 0 -178 0 *
Fa
0  0.000000100000000 3 0

0101000
+143 0 *
Ve
0.000000100000000
-0.000000000007634 -15.789473684207067 -19.000000000003268
0 0

0101101
*
Ed
 0.000000100000000 1 1 0
1  20 0 0.000000000000000 4.210526315789998
0

0101000
-151 27 +141 27 *
Ve
0.000000100000000
-0.000000000004891 15.789473684214933 -18.999999999996732
0 0

0101101
*
Ed
 0.000000100000000 1 1 0
1  21 0 4.712388980385000 7.853981633974000
2  11 9 28 4.712388980385000 7.853981633974000
0

0101000
+139 27 -141 27 *
Ve
0.000000100000000
0.000000000000000 25.000000000004928 -18.999999999994827
0 0

0101101
*
Ed
 0.000000100000000 1 1 0
1  22 0 0.000000000000000 9.210526315789998
0

0101000
+137 27 -139 27 *
Ve
0.000000100000000
-50.000000000012086 -24.999999999995072 -19.000000000005173
0 0

0101101
*
Ed
 0.000000100000000 1 1 0
1  23 0 48.999999999999993 50.000000000004455
0

0101000
+177 27 -135 27 *
Ve
0.000000100000000
-50.000000000007745 25.000000000004928 -18.999999999994827
0 0

0101101
*
Ed
 0.000000100000000 1 1 0
1  24 0 0.000000000000000 50.000000000007745
0

0101000
+133 27 -137 27 *
Ed
 0.000000100000000 1 1 0
1  25 0 4.712388980385000 7.853981633974000
2  12 10 28 4.712388980385000 7.853981633974000
0

0101000
+133 27 -135 27 *
Wi

0101100
+140 26 +149 0 +138 26 -176 0 +136 26 +134 26 +132 26 -131 26 *
Ve
0.000000100000000
-60.000000000000000 0.000000000004932 -19.000000000000000
0 0

0101101
*
Ed
 0.000000100000000 1 1 0
1  26 0 0.000000000000000 6.283185307179586
2  13 11 28 0.000000000000000 6.283185307179586
0

0101000
+129 27 -129 27 *
Wi

0101100
+128 29 *
Fa
0  0.000000100000000 7 24

0101000
+130 5 +127 0 *
Ve
0.000000100000000
-0.000000000007634 -15.789473684214933 18.999999999996732
0 0

0101101
*
Ed
 0.000000100000000 1 1 0
1  27 0 0.000000000000000 4.210526315789998
0

0101000
-146 33 +125 33 *
Ve
0.000000100000000
-0.000000000004891 15.789473684207067 19.000000000003268
0 0

0101101
*
Ed
 0.000000100000000 1 1 0
1  28 0 4.712388980385000 7.853981633974000
2  14 12 28 4.712388980385000 7.853981633974000
0

0101000
+123 33 -125 33 *
Ve
0.000000100000000
0.000000000000000 24.999999999997069 19.000000000005173
0 0

0101101
*
Ed
 0.000000100000000 1 1 0
1  29 0 0.000000000000000 9.210526315789998
0

0101000
+121 33 -123 33 *
Ve
0.000000100000000
-50.000000000012086 -25.000000000002931 18.999999999994827
0 0

0101101
*
Ed
 0.000000100000000 1 1 0
1  30 0 48.999999999999993 50.000000000004455
0

0101000
+175 33 -119 33 *
Ve
0.000000100000000
-50.000000000007745 24.999999999997069 19.000000000005173
0 0

0101101
*
Ed
 0.000000100000000 1 1 0
1  31 0 0.000000000000000 50.000000000007745
0

0101000
+117 33 -121 33 *
Ed
 0.000000100000000 1 1 0
1  32 0 4.712388980385000 7.853981633974000
2  15 13 28 4.712388980385000 7.853981633974000
0

0101000
+117 33 -119 33 *
Wi

0101100
+124 32 +144 0 +122 32 -174 0 +120 32 +118 32 +116 32 -115 32 *
Ve
0.000000100000000
-60.000000000000000 -0.000000000002932 19.000000000000000
0 0

0101101
*
Ed
 0.000000100000000 1 1 0
1  33 0 0.000000000000000 6.283185307179586
2  16 14 28 0.000000000000000 6.283185307179586
0

0101000
+113 33 -113 33 *
Wi

0101100
+112 34 *
Fa
0  0.000000100000000 8 30

0101000
+114 31 +111 0 *
Ve
0.000000100000000
-50.000000000012086 -24.999999999993829 -25.000000000005173
0 0

0101101
*
Ed
 0.000000100000000 1 1 0
1  34 0 0.000000000000000 6.000000000000000
2  17 10 0 0.000000000000000 6.000000000000000
4 G1 15 0 10 0
0

0101000
+135 36 -109 36 *
Ed
 0.000000100000000 1 1 0
1  35 0 48.999999999999993 50.000000000004455
0

0101000
+173 39 -109 39 *
Wi

0101100
-172 35 -134 29 -108 20 +107 38 *
Fa
0  0.000000100000000 15 20

0101000
+106 0 *
Ve
0.000000100000000
-50.000000000012086 -25.000000000004174 24.999999999994827
0 0

0101101
*
Ed
 0.000000100000000 1 1 0
1  36 0 0.000000000000000 6.000000000000000
2  18 13 0 0.000000000000000 6.000000000000000
4 G1 16 0 13 0
0

0101000
+119 41 -104 41 *
Ed
 0.000000100000000 1 1 0
1  37 0 48.999999999999993 50.000000000004455
0

0101000
+171 43 -104 43 *
Wi

0101100
-118 34 -103 40 +102 42 +170 44 *
Fa
0  0.000000100000000 16 40

0101000
+101 0 *
Ve
0.000000100000000
-0.000000000007628 -25.299999999995826 -25.000000000005237
0 0

0101101
*
Ve
0.000000212133034
-0.000000000007628 -24.999999999995826 -25.000000000005173
0 0

0101101
*
Ed
 0.000000100000000 1 1 0
1  38 0 4.699999999999999 5.000000000000000
0

0101000
+99 16 -98 16 *
Ed
 0.000000100000000 1 1 0
1  39 0 -0.000000000000000 48.999999999999993
2  19 4 0 -0.000000000000000 48.999999999999993
4 G1 17 47 4 0
0

0101000
+99 14 -169 14 *
Ed
 0.000000100002007 1 1 0
1  40 0 0.000000000000000 49.000000000000000
0

0101000
+98 48 -173 48 *
Wi

0101100
-97 46 +96 0 -95 47 +168 49 *
Fa
0  0.000000100000000 17 9

0101000
+94 45 *
Ve
0.000000100000000
-0.000000000007628 -25.300000000006172 24.999999999994763
0 0

0101101
*
Ve
0.000000100002007
-0.000000000007631 -25.000000000005173 24.999999999994827
0 0

0101101
*
Ed
 0.000000100000000 1 1 0
1  41 0 0.000000000000000 0.300000000000001
0

0101000
-92 16 +91 16 *
Ed
 0.000000100000000 1 1 0
1  42 0 -0.000000000000000 49.000000000000000
2  20 5 0 -0.000000000000000 49.000000000000000
4 G1 18 47 5 0
0

0101000
+92 14 -167 14 *
Ed
 0.000000100002007 1 1 0
1  43 0 0.000000000000000 48.999999999999993
0

0101000
+91 43 -171 43 *
Wi

0101100
-90 46 -89 0 +88 51 +166 49 *
Fa
0  0.000000100000000 18 0

0101000
+87 50 *
Ve
0.000000100000000
-0.000000000007627 -29.999999999996799 -20.300000000006211
0 0

0101101
*
Ed
 0.000000100000000 1 1 0
1  44 0 3.141592653589792 4.712388980384690
2  21 4 0 3.141592653589792 4.712388980384690
0

0101000
+85 14 -99 14 *
Ed
 0.000000100000000 1 1 0
1  45 0 -0.000000000000000 49.000000000000000
2  22 4 0 -0.000000000000000 49.000000000000000
4 G1 4 0 19 47
0

0101000
+85 14 -165 14 *
Wi

0101100
+84 0 -83 0 +96 0 -164 0 *
Fa
0  0.000000100000000 4 0

0101000
+82 0 *
Ve
0.000000100000000
-0.000000000007627 -30.000000000005198 20.299999999993791
0 0

0101101
*
Ed
 0.000000100000000 1 1 0
1  46 0 1.570796326794897 3.141592653589793
2  23 5 0 1.570796326794897 3.141592653589793
0

0101000
+92 14 -80 14 *
Ed
 0.000000100000000 1 1 0
1  47 0 -0.000000000000000 49.000000000000000
2  24 5 0 -0.000000000000000 49.000000000000000
4 G1 5 0 19 47
0

0101000
+80 14 -163 14 *
Wi

0101100
+79 0 -89 0 +78 0 -162 0 *
Fa
0  0.000000100000000 5 0

0101000
+77 0 *
Ed
 0.000000100000000 1 1 0
1  48 0 4.699999999999999 45.299999999999997
0

0101000
+80 16 -85 16 *
Wi

0101100
-75 46 +78 0 -83 0 +161 49 *
Fa
0  0.000000100000000 19 0

0101000
+74 50 *
Ve
0.000001000019966
-0.000000000007634 -24.999999999995072 -19.000000000005173
0 0

0101101
*
Ed
 0.000001000019966 1 1 0
1  49 0 6.000000000000000 11.000000000000000
0

0101000
+72 13 -158 13 *
Ve
0.000001000019966
-0.000000000007634 -25.000000000002931 18.999999999994827
0 0

0101101
*
Ed
 0.000001000019966 1 1 0
1  50 0 -5.000000000000000 0.000000000000000
0

0101000
+157 13 -70 13 *
Ed
 0.000000100001997 1 1 0
1  51 0 0.000000000000000 6.000000000000000
0

0101000
+98 16 -72 16 *
Ed
 0.000000100001997 1 1 0
1  52 0 0.000000000000000 6.000000000000000
0

0101000
+70 41 -91 41 *
Wi

0101100
+156 15 +71 0 +69 0 +68 15 +67 53 +97 15 +90 15 +84 3 +79 3 +75 15 
*
Fa
0  0.000000100000000 20 52

0101000
+66 5 *
Ve
0.000000100000000
-0.000000000007634 -15.789473684205827 -25.000000000003268
0 0

0101101
*
Ed
 0.000000100000000 1 1 0
1  53 0 0.000000000000000 6.000000000000000
2  25 9 0 0.000000000000000 6.000000000000000
0

0101000
+141 36 -64 36 *
Ed
 0.000000100000000 1 1 0
1  54 0 0.000000000000000 9.210526315788002
0

0101000
+64 39 -98 39 *
Wi

0101100
-140 26 +150 0 +63 54 +71 0 +62 55 +68 15 *
Fa
0  0.000000100000000 21 20

0101000
+61 5 *
Ve
0.000000100000000
-0.000000000007634 -15.789473684216173 24.999999999996732
0 0

0101101
*
Ed
 0.000000100000000 1 1 0
1  55 0 0.000000000000000 6.000000000000000
2  26 12 0 0.000000000000000 6.000000000000000
0

0101000
+125 41 -59 41 *
Ed
 0.000000100000000 1 1 0
1  56 0 0.000000000000000 9.210526315788002
0

0101000
+59 43 -91 43 *
Wi

0101100
-124 32 +145 0 +58 53 -69 0 +57 56 -67 53 *
Fa
0  0.000000100000000 22 40

0101000
+56 31 *
Ve
0.000000100000000
-0.000000000004891 15.789473684216173 -24.999999999996732
0 0

0101101
*
Ed
 0.000000100000000 1 1 0
1  57 0 0.000000000000000 6.000000000000000
2  27 9 0 0.000000000000000 6.000000000000000
0

0101000
+139 36 -54 36 *
Ed
 0.000000100000000 1 1 0
1  58 0 4.712388980385000 7.853981633974000
2  28 9 59 4.712388980385000 7.853981633974000
0

0101000
+54 39 -64 39 *
Wi

0101100
+53 0 -63 0 -138 57 +52 58 *
Fa
0  0.000000100000000 9 0

0101000
+51 0 *
Ve
0.000000100000000
0.000000000000000 25.000000000006171 -24.999999999994827
0 0

0101101
*
Ed
 0.000000100000000 1 1 0
1  59 0 0.000000000000000 6.000000000000000
0

0101000
+137 36 -49 36 *
Ed
 0.000000100000000 1 1 0
1  60 0 0.000000000000000 9.210526315789998
0

0101000
+49 39 -54 39 *
Wi

0101100
+48 0 -53 0 -136 57 +47 58 *
Fa
0  0.000000100000000 23 0

0101000
+46 0 *
Ve
0.000000100000000
-50.000000000007745 25.000000000006171 -24.999999999994827
0 0

0101101
*
Ed
 0.000000100000000 1 1 0
1  61 0 0.000000000000000 6.000000000000000
2  29 10 0 0.000000000000000 6.000000000000000
4 G1 24 0 10 0
0

0101000
+133 36 -44 36 *
Ed
 0.000000100000000 1 1 0
1  62 0 0.000000000000000 50.000000000007745
0

0101000
+44 39 -49 39 *
Wi

0101100
+43 0 -48 0 -132 57 +42 58 *
Fa
0  0.000000100000000 24 0

0101000
+41 0 *
Ed
 0.000000100000000 1 1 0
1  63 0 4.712388980385000 7.853981633974000
2  30 10 59 4.712388980385000 7.853981633974000
0

0101000
+44 39 -109 39 *
Wi

0101100
+43 0 -108 0 -131 57 +39 58 *
Fa
0  0.000000100000000 10 0

0101000
+38 0 *
Ve
0.000000100000000
-60.000000000000000 0.000000000006174 -25.000000000000000
0 0

0101101
*
Ed
 0.000000100000000 1 1 0
1  64 0 0.000000000000000 6.000000000000000
3  31 32CN 11 0 0.000000000000000 6.000000000000000
0

0101000
+129 36 -36 36 *
Ed
 0.000000100000000 1 1 0
1  65 0 0.000000000000000 6.283185307179586
2  33 11 59 0.000000000000000 6.283185307179586
0

0101000
+36 39 -36 39 *
Wi

0101100
+35 0 -35 0 -128 57 +34 58 *
Fa
0  0.000000100000000 11 0

0101000
+33 0 *
Ve
0.000000100000000
-0.000000000004891 15.789473684205827 25.000000000003268
0 0

0101101
*
Ed
 0.000000100000000 1 1 0
1  66 0 0.000000000000000 6.000000000000000
2  34 12 0 0.000000000000000 6.000000000000000
0

0101000
+123 41 -31 41 *
Ed
 0.000000100000000 1 1 0
1  67 0 4.712388980385000 7.853981633974000
2  35 12 59 4.712388980385000 7.853981633974000
0

0101000
+31 43 -59 43 *
Wi

0101100
+30 0 -58 0 -122 57 +29 58 *
Fa
0  0.000000100000000 12 0

0101000
+28 0 *
Ve
0.000000100000000
0.000000000000000 24.999999999995826 25.000000000005173
0 0

0101101
*
Ed
 0.000000100000000 1 1 0
1  68 0 0.000000000000000 6.000000000000000
0

0101000
+121 41 -26 41 *
Ed
 0.000000100000000 1 1 0
1  69 0 0.000000000000000 9.210526315789998
0

0101000
+26 43 -31 43 *
Wi

0101100
+25 0 -30 0 -120 57 +24 58 *
Fa
0  0.000000100000000 25 0

0101000
+23 0 *
Ve
0.000000100000000
-50.000000000007745 24.999999999995826 25.000000000005173
0 0

0101101
*
Ed
 0.000000100000000 1 1 0
1  70 0 0.000000000000000 6.000000000000000
2  36 13 0 0.000000000000000 6.000000000000000
4 G1 26 0 13 0
0

0101000
+117 41 -21 41 *
Ed
 0.000000100000000 1 1 0
1  71 0 0.000000000000000 50.000000000007745
0

0101000
+21 43 -26 43 *
Wi

0101100
+20 0 -25 0 -116 57 +19 58 *
Fa
0  0.000000100000000 26 0

0101000
+18 0 *
Ed
 0.000000100000000 1 1 0
1  72 0 4.712388980385000 7.853981633974000
2  37 13 59 4.712388980385000 7.853981633974000
0

0101000
+21 43 -104 43 *
Wi

0101100
+20 0 -103 0 -115 57 +16 58 *
Fa
0  0.000000100000000 13 0

0101000
+15 0 *
Ve
0.000000100000000
-60.000000000000000 -0.000000000004174 25.000000000000000
0 0

0101101
*
Ed
 0.000000100000000 1 1 0
1  73 0 0.000000000000000 6.000000000000000
3  38 39CN 14 0 0.000000000000000 6.000000000000000
0

0101000
+113 41 -13 41 *
Ed
 0.000000100000000 1 1 0
1  74 0 0.000000000000000 6.283185307179586
2  40 14 59 0.000000000000000 6.283185307179586
0

0101000
+13 43 -13 43 *
Wi

0101100
+12 0 -12 0 -112 57 +11 58 *
Fa
0  0.000000100000000 14 0

0101000
+10 0 *
Wi

0101100
+95 9 +107 38 -39 38 +42 38 +47 38 +52 38 +62 38 *
Wi

0101100
+34 38 *
Fa
0  0.000000100000000 27 60

0101000
+8 0 +7 0 *
Wi

0101100
+88 42 +102 42 -16 42 +19 42 +24 42 +29 42 +57 42 *
Wi

0101100
+11 42 *
Fa
0  0.000000100000000 28 61

0101000
+5 0 +4 0 *
Sh

0101100
-159 4 +152 4 +147 0 -142 0 -126 4 +110 17 -105 4 +100 17 +93 4 +86 17 
-81 3 -76 3 +73 17 +65 4 -60 4 +55 17 -50 54 -45 54 -40 54 +37 54 
-32 54 +27 53 +22 53 +17 53 -14 53 +9 53 +6 4 -3 17 *
So

0100000
+2 0 *

+1 1 