
CASCADE Topology V1, (c) Matra-Datavision
Locations 59
1
1.000000000000000 0.000000000000000 0.000000000000000 0.000000000000000 
0.000000000000000 -0.000000000000103 -1.000000000000000 0.000000000000000 
0.000000000000000 1.000000000000000 -0.000000000000103 0.000000000000000 
1
1.000000000000000 0.000000000000000 0.000000000000000 0.000000000000000 
0.000000000000000 1.000000000000000 0.000000000000000 0.000000000000000 
0.000000000000000 0.000000000000000 1.000000000000000 0.000000000000000 
1
1.000000000000000 0.000000000000000 0.000000000000000 0.000000000000000 
0.000000000000000 -0.000000000000103 -1.000000000000000 0.000000000000000 
0.000000000000000 1.000000000000000 -0.000000000000103 0.000000000000000 
1
1.000000000000000 0.000000000000000 0.000000000000000 -49.000000000000000 
0.000000000000000 1.000000000000000 0.000000000000000 0.000000000000011 
0.000000000000000 0.000000000000000 1.000000000000000 -0.000000000000000 
1
1.000000000000000 0.000000000000000 0.000000000000000 0.000000000000000 
0.000000000000000 1.000000000000000 0.000000000000000 0.000000000000000 
0.000000000000000 0.000000000000000 1.000000000000000 0.000000000000000 
2  3 -1 4 1 5 1 0
2  2 -1 0
1
0.000000000000000 -0.000000000000000 1.000000000000000 -0.000000000007634 
-0.000000000000103 -1.000000000000000 0.000000000000000 0.000000000000000 
1.000000000000000 -0.000000000000103 -0.000000000000000 0.000000000000000 
2  8 1 3 -1 4 1 5 1 2 1 0
2  8 -1 0
1
1.000000000000000 0.000000000000000 0.000000000000000 0.000000000000000 
0.000000000000000 1.000000000000000 0.000000000000000 0.000000000000000 
0.000000000000000 0.000000000000000 1.000000000000000 0.000000000000000 
2  11 -1 2 -1 5 -1 4 -1 3 1 8 -1 0
2  2 -1 5 -1 4 -1 3 1 8 -1 0
2  4 -1 3 1 8 -1 0
2  3 -1 4 1 5 1 2 1 0
2  11 -1 0
2  5 -1 4 -1 3 1 8 -1 0
2  3 1 8 -1 0
2  5 1 2 1 0
2  2 -1 5 -1 0
2  8 1 3 -1 5 1 2 1 0
2  2 -1 5 -1 3 1 8 -1 0
1
-1.000000000000000 0.000000000000000 0.000000000000000 0.000000000000000 
0.000000000000000 -0.000000000000103 1.000000000000000 22.000000000000000 
0.000000000000000 1.000000000000000 0.000000000000103 0.000000000002276 
1
1.000000000000000 0.000000000000000 0.000000000000000 0.000000000000000 
0.000000000000000 -0.000000000000103 -1.000000000000000 0.000000000000000 
0.000000000000000 1.000000000000000 -0.000000000000103 0.000000000000000 
1
1.000000000000000 0.000000000000000 0.000000000000000 -0.000000000000000 
0.000000000000000 1.000000000000000 0.000000000000000 -0.000000000000000 
0.000000000000000 0.000000000000000 1.000000000000000 3.000000000000000 
1
1.000000000000000 0.000000000000000 0.000000000000000 0.000000000000000 
0.000000000000000 1.000000000000000 0.000000000000000 0.000000000000000 
0.000000000000000 0.000000000000000 1.000000000000000 -6.000000000000000 
1
1.000000000000000 0.000000000000000 0.000000000000000 0.000000000000000 
0.000000000000000 -0.000000000000103 -1.000000000000000 0.000000000000000 
0.000000000000000 1.000000000000000 -0.000000000000103 0.000000000000000 
2  23 1 24 -1 25 1 26 1 27 1 3 -1 5 1 2 1 0
2  3 1 27 -1 26 -1 25 -1 24 1 23 -1 0
2  3 -1 5 1 2 1 0
2  27 1 3 -1 0
2  23 1 24 -1 25 1 27 1 3 -1 0
2  3 1 27 -1 25 -1 24 1 23 -1 0
2  23 1 24 -1 25 1 0
2  23 1 24 -1 25 1 26 1 0
2  23 1 24 -1 25 1 26 1 27 1 3 -1 0
2  8 1 3 -1 4 1 0
2  8 1 3 -1 5 1 0
2  5 -1 3 1 8 -1 0
2  23 1 24 -1 25 1 27 1 3 -1 5 1 0
2  8 1 3 -1 4 1 5 1 0
1
1.000000000000000 0.000000000000000 0.000000000000000 0.000000000000000 
0.000000000000000 1.000000000000000 0.000000000000000 0.000000000000000 
0.000000000000000 0.000000000000000 1.000000000000000 0.000000000000000 
2  23 1 24 -1 25 1 42 1 0
2  25 -1 24 1 23 -1 0
2  23 -1 0
2  42 -1 25 -1 24 1 23 -1 0
2  23 1 24 -1 25 1 26 1 42 1 0
2  26 -1 25 -1 24 1 23 -1 0
2  42 -1 26 -1 25 -1 24 1 23 -1 0
2  5 -1 0
2  3 -1 5 1 0
2  27 1 3 -1 5 1 2 1 0
2  27 -1 0
2  3 1 27 -1 0
2  24 -1 25 1 26 1 27 1 3 -1 0
2  24 -1 25 1 27 1 3 -1 0
2  24 -1 25 1 42 1 0
2  42 1 2 1 0
2  24 -1 25 1 26 1 42 1 0
Curve2ds 75
1 -2.49999999999741718 -25.00000000000025935 1.00000000000000000 0.00000000000010347 
1 -1.57079632679489656 49.00000000000000711 1.00000000000000000 0.00000000000000000 
2 -2.19999999999790230 -20.30000000000022808 -1.00000000000000000 -0.00000000000010347 0.00000000000010347 -1.00000000000000000 4.70000000000000018
1 -2.50000000000258993 24.99999999999974065 0.00000000000010347 -1.00000000000000000 
1 2.50000000000258282 -24.99999999999974065 -0.00000000000010347 1.00000000000000000 
1 -0.00000000000000000 -48.99999999999999289 1.00000000000000000 0.00000000000000000 
1 -2.50000000000258993 24.99999999999974065 0.00000000000010347 -1.00000000000000000 
1 -3.14159265358979223 49.00000000000000000 1.00000000000000000 0.00000000000000000 
2 -2.20000000000210338 20.29999999999977334 -1.00000000000000000 -0.00000000000010347 0.00000000000010347 -1.00000000000000000 4.70000000000000018
1 0.00000000000000000 0.00000000000000000 1.00000000000000000 0.00000000000000000 
1 0.00000000000000022 -49.00000000000000000 1.00000000000000000 0.00000000000000000 
1 2.49999999999741007 25.00000000000025935 -1.00000000000000000 -0.00000000000010347 
1 -2.49999999999741718 -25.00000000000025935 1.00000000000000000 0.00000000000010347 
1 0.00000000000000000 0.00000000000000000 0.00000000000000000 1.00000000000000000 
1 0.30000000000000071 0.00000000000000000 0.00000000000000000 -1.00000000000000000 
1 -1.57079632679489656 0.00000000000000000 1.00000000000000000 0.00000000000000000 
2 -2.19999999999790230 -20.30000000000022808 -1.00000000000000000 -0.00000000000010347 0.00000000000010347 -1.00000000000000000 4.70000000000000018
1 1.57079632679489656 0.00000000000000000 0.00000000000000000 1.00000000000000000 
1 4.69999999999999929 0.00000000000000000 -0.00000000000000000 -1.00000000000000000 
1 7.85398163397399962 0.00000000000000000 0.00000000000000000 -1.00000000000000000 
1 0.00000000000000000 0.00000000000000000 0.00000000000000000 1.00000000000000000 
1 45.29999999999999716 0.00000000000000000 -0.00000000000000000 -1.00000000000000000 
1 0.00000000000000000 0.00000000000000000 1.00000000000000000 0.00000000000000000 
1 -2.50000000000258993 24.99999999999974065 0.00000000000010347 -1.00000000000000000 
1 44.00000000000000000 -0.00000000000000555 -0.00000000000000000 -1.00000000000000000 
1 -0.00000000000000000 -0.00000000000000000 1.00000000000000000 0.00000000000000000 
1 -25.00000000000082068 32.24536711117141863 0.00000000000000000 -1.00000000000000000 
1 -3.14159265358979223 0.00000000000000000 1.00000000000000000 0.00000000000000000 
2 -2.20000000000210338 20.29999999999977334 -1.00000000000000000 -0.00000000000010347 0.00000000000010347 -1.00000000000000000 4.70000000000000018
1 1.57079632679489656 0.00000000000000000 0.00000000000000000 1.00000000000000000 
1 4.69999999999999929 0.00000000000000000 0.00000000000000000 -1.00000000000000000 
1 7.85398163397399962 0.00000000000000000 0.00000000000000000 -1.00000000000000000 
1 50.00000000000445510 0.00000000000000000 0.00000000000000000 -1.00000000000000000 
1 -0.00000000000000000 -6.00000000000000000 1.00000000000000000 0.00000000000000000 
1 -25.00000000000082068 32.24536711117141863 0.00000000000000000 -1.00000000000000000 
1 0.00000000000000000 0.00000000000000000 0.00000000000000000 -1.00000000000000000 
1 5.00000000000000000 0.00000000000000000 0.00000000000000000 -1.00000000000000000 
1 -2.50000000000003553 -19.00000000000025935 0.00000000000010347 -1.00000000000000000 
1 0.00000000000000000 0.00000000000000000 1.00000000000000000 0.00000000000000000 
1 0.00000000000000000 -6.00000000000000000 1.00000000000000000 0.00000000000000000 
1 0.00000000000000000 0.00000000000000000 1.00000000000000000 0.00000000000000000 
1 0.00000000000000000 -6.00000000000000000 1.00000000000000000 0.00000000000000000 
1 0.00000000000000000 0.00000000000000000 1.00000000000000000 0.00000000000000000 
1 0.00000000000000000 -6.00000000000000000 1.00000000000000000 0.00000000000000000 
1 4.71238898038499965 0.00000000000000000 0.00000000000000000 -1.00000000000000000 
1 0.00000000000000000 0.00000000000000000 1.00000000000000000 0.00000000000000000 
2 -0.00000000000081836 -17.75463288882095014 0.00000000000000000 -1.00000000000000000 -1.00000000000000000 -0.00000000000000000 25.00000000000000000
1 24.99999999999917932 -17.75463288882869506 0.00000000000000000 1.00000000000000000 
1 24.99999999999917932 32.24536711117904986 -1.00000000000000000 -0.00000000000053107 
1 0.00000000000000000 0.00000000000000000 1.00000000000000000 0.00000000000000000 
2 -0.00000000000181836 32.24536711117904986 0.00000000000000000 -1.00000000000000000 -1.00000000000000000 -0.00000000000000000 15.78947368421099995
1 0.00000000000000000 -0.00000000000000000 1.00000000000000000 -0.00000000000000000 
1 -15.78947368421281894 32.24536711117141863 -1.00000000000000000 -0.00000000000000000 
1 0.00000000000000000 0.00000000000000000 1.00000000000000000 0.00000000000000000 
2 -0.00000000000081836 -17.75463288882095014 0.00000000000000000 -1.00000000000000000 -1.00000000000000000 -0.00000000000000000 10.00000000000000000
1 4.71238898038499965 0.00000000000000000 0.00000000000000000 -1.00000000000000000 
1 0.00000000000000000 -6.00000000000000000 1.00000000000000000 0.00000000000000000 
2 -0.00000000000081836 -17.75463288882095014 0.00000000000000000 -1.00000000000000000 -1.00000000000000000 -0.00000000000000000 25.00000000000000000
1 24.99999999999917932 -17.75463288882869506 0.00000000000000000 1.00000000000000000 
1 24.99999999999917932 32.24536711117904986 -1.00000000000000000 -0.00000000000053107 
1 0.00000000000000000 -6.00000000000000000 1.00000000000000000 0.00000000000000000 
2 -0.00000000000181836 32.24536711117904986 0.00000000000000000 -1.00000000000000000 -1.00000000000000000 -0.00000000000000000 15.78947368421099995
1 -15.78947368421282071 32.24536711117141863 -1.00000000000000000 -0.00000000000000000 
1 0.00000000000000000 -6.00000000000000000 1.00000000000000000 -0.00000000000000000 
1 0.00000000000000000 -6.00000000000000000 1.00000000000000000 0.00000000000000000 
2 -0.00000000000081836 -17.75463288882095014 0.00000000000000000 -1.00000000000000000 -1.00000000000000000 -0.00000000000000000 10.00000000000000000
1 7.85398163397399962 0.00000000000000000 0.00000000000000000 -1.00000000000000000 
1 7.85398163397399962 0.00000000000000000 0.00000000000000000 -1.00000000000000000 
1 0.00000000000000000 -0.00000000000000000 0.00000000000000000 -1.00000000000000000 
1 4.71238898038499965 0.00000000000000000 0.00000000000000000 -1.00000000000000000 
1 0.00000000000000000 0.00000000000000000 0.00000000000000000 -1.00000000000000000 
1 6.28318530717958623 0.00000000000000000 0.00000000000000000 -1.00000000000000000 
1 4.71238898038499965 0.00000000000000000 0.00000000000000000 -1.00000000000000000 
1 0.00000000000000000 0.00000000000000000 0.00000000000000000 -1.00000000000000000 
1 6.28318530717958623 0.00000000000000000 0.00000000000000000 -1.00000000000000000 
Curves 47
1 25.00000000000099831 -25.00000000000000000 0.00000000000000000 1.00000000000000000 0.00000000000000000 0.00000000000000000 
8 1.57079632679489656 3.14159265358979312
2 -49.00000000000763833 25.30000000000100968 -20.30000000000000071 1.00000000000000000 -0.00000000000000022 0.00000000000000000 -0.00000000000000022 -1.00000000000000000 0.00000000000000000 0.00000000000000000 -0.00000000000000000 -1.00000000000000000 4.70000000000000018
1 25.00000000000099831 25.00000000000000000 0.00000000000000000 0.00000000000000000 -1.00000000000000000 0.00000000000000000 
1 30.00000000000099831 -25.00000000000000000 0.00000000000000000 0.00000000000000000 1.00000000000000000 0.00000000000000000 
8 3.14159265358979223 4.71238898038468967
2 -49.00000000000763833 25.30000000000100968 20.30000000000000071 1.00000000000000000 -0.00000000000000022 0.00000000000000000 -0.00000000000000022 -1.00000000000000000 0.00000000000000000 0.00000000000000000 -0.00000000000000000 -1.00000000000000000 4.70000000000000018
1 30.00000000000099831 25.00000000000000000 0.00000000000000000 -1.00000000000000000 0.00000000000000000 0.00000000000000000 
1 -0.00000000000762820 25.30000000000099902 -25.00000000000000000 -1.00000000000000000 0.00000000000000022 -0.00000000000000000 
1 0.00000000000763382 24.99999999999900169 0.00000000000000000 1.00000000000000000 0.00000000000000000 0.00000000000000000 
8 1.57079632679489656 3.14159265358979312
2 -0.00000000000762820 25.30000000000099902 -20.30000000000000071 1.00000000000000000 -0.00000000000000022 0.00000000000000000 -0.00000000000000022 -1.00000000000000000 0.00000000000000000 0.00000000000000000 -0.00000000000000000 -1.00000000000000000 4.70000000000000018
1 -0.00000000000762716 30.00000000000099831 -20.30000000000000071 -1.00000000000000000 0.00000000000000022 -0.00000000000000000 
1 -50.00000000001208633 24.99999999999900169 -19.00000000000000000 0.00000000000000000 0.00000000000000000 -1.00000000000000000 
1 -0.00000000000762716 30.00000000000099831 20.30000000000000071 -1.00000000000000000 0.00000000000000022 -0.00000000000000000 
1 0.00000000000763382 24.99999999999900169 -38.00000000000000000 1.00000000000000000 -0.00000000000000000 -0.00000000000000000 
8 3.14159265358979223 4.71238898038468967
2 -0.00000000000762820 25.30000000000099902 20.30000000000000071 1.00000000000000000 -0.00000000000000022 0.00000000000000000 -0.00000000000000022 -1.00000000000000000 0.00000000000000000 0.00000000000000000 -0.00000000000000000 -1.00000000000000000 4.70000000000000018
1 -0.00000000000762820 25.30000000000099902 25.00000000000000000 -1.00000000000000000 0.00000000000000022 -0.00000000000000000 
1 -50.00000000001208633 24.99999999999900169 19.00000000000000000 -0.00000000000000000 -0.00000000000000000 1.00000000000000000 
1 0.00000000000763382 24.99999999999900169 -50.00000000000000000 1.00000000000000000 -0.00000000000000000 -0.00000000000000000 
1 -0.00000000000762827 25.00000000000099831 25.00000000000000000 -1.00000000000000000 0.00000000000000022 -0.00000000000000000 
1 -0.00000000000763382 24.99999999999900169 -19.00000000000000000 0.00000000000000000 0.00000000000000000 -1.00000000000000000 
2 50.00000000000000000 -0.00000000000100000 0.00000000000000000 0.00000000000000000 0.00000000000000000 1.00000000000000000 1.00000000000000000 0.00000000000000000 -0.00000000000000000 -0.00000000000000000 1.00000000000000000 0.00000000000000000 25.00000000000000000
1 50.00000000000774492 -25.00000000000099831 0.00000000000000000 -1.00000000000000000 0.00000000000000000 0.00000000000000000 
1 0.00000000000000000 -25.00000000000099831 0.00000000000000000 0.00000000000053107 1.00000000000000000 0.00000000000000000 
2 0.00000000000000000 0.00000000000000000 0.00000000000000000 0.00000000000000000 0.00000000000000000 1.00000000000000000 1.00000000000000000 0.00000000000000000 -0.00000000000000000 -0.00000000000000000 1.00000000000000000 0.00000000000000000 15.78947368421099995
1 0.00000000000763382 15.78947368421099995 0.00000000000000000 0.00000000000000000 1.00000000000000000 0.00000000000000000 
2 50.00000000000000000 -0.00000000000100000 0.00000000000000000 0.00000000000000000 0.00000000000000000 1.00000000000000000 1.00000000000000000 0.00000000000000000 -0.00000000000000000 -0.00000000000000000 1.00000000000000000 0.00000000000000000 10.00000000000000000
1 -50.00000000000774492 -25.00000000000099831 -19.00000000000000000 0.00000000000000000 0.00000000000000000 -1.00000000000000000 
2 50.00000000000000000 -0.00000000000100000 -38.00000000000000000 0.00000000000000000 0.00000000000000000 1.00000000000000000 1.00000000000000000 0.00000000000000000 -0.00000000000000000 -0.00000000000000000 1.00000000000000000 0.00000000000000000 25.00000000000000000
1 50.00000000000774492 -25.00000000000099831 -38.00000000000000000 -1.00000000000000000 -0.00000000000000000 -0.00000000000000000 
1 0.00000000000000000 -25.00000000000099831 -38.00000000000000000 0.00000000000053107 1.00000000000000000 -0.00000000000000000 
2 0.00000000000000000 0.00000000000000000 -38.00000000000000000 0.00000000000000000 0.00000000000000000 1.00000000000000000 1.00000000000000000 0.00000000000000000 -0.00000000000000000 -0.00000000000000000 1.00000000000000000 0.00000000000000000 15.78947368421099995
1 0.00000000000763382 15.78947368421099995 -38.00000000000000000 -0.00000000000000000 1.00000000000000000 -0.00000000000000000 
2 50.00000000000000000 -0.00000000000100000 -38.00000000000000000 0.00000000000000000 0.00000000000000000 1.00000000000000000 1.00000000000000000 0.00000000000000000 -0.00000000000000000 -0.00000000000000000 1.00000000000000000 0.00000000000000000 10.00000000000000000
1 -50.00000000000774492 -25.00000000000099831 19.00000000000000000 -0.00000000000000000 -0.00000000000000000 1.00000000000000000 
2 50.00000000000000000 -0.00000000000100000 -50.00000000000000000 0.00000000000000000 0.00000000000000000 1.00000000000000000 1.00000000000000000 0.00000000000000000 -0.00000000000000000 -0.00000000000000000 1.00000000000000000 0.00000000000000000 25.00000000000000000
1 50.00000000000774492 -25.00000000000099831 -50.00000000000000000 -1.00000000000000000 -0.00000000000000000 -0.00000000000000000 
1 0.00000000000000000 -25.00000000000099831 -50.00000000000000000 0.00000000000053107 1.00000000000000000 -0.00000000000000000 
2 0.00000000000000000 0.00000000000000000 -50.00000000000000000 0.00000000000000000 0.00000000000000000 1.00000000000000000 1.00000000000000000 0.00000000000000000 -0.00000000000000000 -0.00000000000000000 1.00000000000000000 0.00000000000000000 15.78947368421099995
1 0.00000000000763382 15.78947368421099995 -50.00000000000000000 -0.00000000000000000 1.00000000000000000 -0.00000000000000000 
2 50.00000000000000000 -0.00000000000100000 -50.00000000000000000 0.00000000000000000 0.00000000000000000 1.00000000000000000 1.00000000000000000 0.00000000000000000 -0.00000000000000000 -0.00000000000000000 1.00000000000000000 0.00000000000000000 10.00000000000000000
1 -0.00000000000763382 15.78947368421099995 -19.00000000000000000 0.00000000000000000 0.00000000000000000 -1.00000000000000000 
1 -0.00000000000763382 15.78947368421099995 19.00000000000000000 -0.00000000000000000 -0.00000000000000000 1.00000000000000000 
1 0.00000000000000000 -25.00000000000099831 -19.00000000000000000 0.00000000000000000 0.00000000000000000 -1.00000000000000000 
1 -0.00000000000489143 -15.78947368421099995 -19.00000000000000000 0.00000000000000000 0.00000000000000000 -1.00000000000000000 
1 -60.00000000000000000 -0.00000000000100000 -19.00000000000000000 0.00000000000000000 0.00000000000000000 -1.00000000000000000 
1 0.00000000000000000 -25.00000000000099831 19.00000000000000000 -0.00000000000000000 -0.00000000000000000 1.00000000000000000 
1 -0.00000000000489143 -15.78947368421099995 19.00000000000000000 -0.00000000000000000 -0.00000000000000000 1.00000000000000000 
1 -60.00000000000000000 -0.00000000000100000 19.00000000000000000 -0.00000000000000000 -0.00000000000000000 1.00000000000000000 
Polygon3D 0
PolygonOnTriangulations 0
Surfaces 25
1 -0.00000000000762771 -0.00000000000284631 27.50000000000100187 1.00000000000000000 0.00000000000000000 -0.00000000000000022 0.00000000000000022 0.00000000000000000 1.00000000000000000 0.00000000000000000 -1.00000000000000000 0.00000000000000000 
1 -49.00000000000763123 27.50000000000101252 0.00000000000000080 1.00000000000000000 -0.00000000000000022 0.00000000000000000 0.00000000000000022 1.00000000000000000 -0.00000000000010347 0.00000000000000000 0.00000000000010347 1.00000000000000000 
2 -0.00000000000762820 25.30000000000099902 -20.30000000000000071 -1.00000000000000000 0.00000000000000022 -0.00000000000000000 0.00000000000000000 0.00000000000000000 -1.00000000000000000 0.00000000000000022 1.00000000000000000 0.00000000000000000 4.70000000000000018
1 -0.00000000000762827 25.00000000000099831 25.00000000000000000 -0.00000000000000022 -1.00000000000000000 -0.00000000000000000 0.00000000000000000 0.00000000000000000 -1.00000000000000000 1.00000000000000000 -0.00000000000000022 0.00000000000000000 
2 -0.00000000000762820 25.30000000000099902 20.30000000000000071 -1.00000000000000000 0.00000000000000022 -0.00000000000000000 0.00000000000000022 1.00000000000000000 0.00000000000000000 -0.00000000000000000 -0.00000000000000000 1.00000000000000000 4.70000000000000018
1 -0.00000000000762716 30.00000000000099831 25.00000000000000000 -0.00000000000000000 0.00000000000000000 1.00000000000000000 -0.00000000000000022 -1.00000000000000000 0.00000000000000000 1.00000000000000000 -0.00000000000000022 0.00000000000000000 
1 -0.00000000000762827 25.00000000000099831 -25.00000000000000000 0.00000000000000000 -0.00000000000000000 -1.00000000000000000 0.00000000000000022 1.00000000000000000 0.00000000000000000 1.00000000000000000 -0.00000000000000022 0.00000000000000000 
1 -0.00000000000762716 30.00000000000099831 -25.00000000000000000 0.00000000000000022 1.00000000000000000 0.00000000000000000 -0.00000000000000000 0.00000000000000000 1.00000000000000000 1.00000000000000000 -0.00000000000000022 0.00000000000000000 
1 -0.00000000000763382 24.99999999999900169 -19.00000000000000000 0.00000000000000000 1.00000000000000000 0.00000000000000000 -1.00000000000000000 0.00000000000000000 0.00000000000000000 0.00000000000000000 -0.00000000000000000 1.00000000000000000 
2 -50.00000000000000000 -0.00000000000100000 -19.00000000000000000 -0.00000000000000000 -0.00000000000000000 1.00000000000000000 -1.00000000000000000 0.00000000000000000 0.00000000000000000 0.00000000000000000 1.00000000000000000 0.00000000000000000 25.00000000000000000
1 -0.00000000000763382 24.99999999999900169 19.00000000000000000 -0.00000000000000000 1.00000000000000000 -0.00000000000000000 -1.00000000000000000 -0.00000000000000000 -0.00000000000000000 0.00000000000000000 -0.00000000000000000 -1.00000000000000000 
1 -32.24536711117904986 -16.00000000000000000 -0.00000000000347393 0.00000000000000000 1.00000000000000000 0.00000000000010349 0.00000000000000000 0.00000000000010349 -1.00000000000000000 1.00000000000000000 -0.00000000000000000 -0.00000000000000000 
2 -50.00000000000000000 -0.00000000000100000 19.00000000000000000 -0.00000000000000000 -0.00000000000000000 -1.00000000000000000 -1.00000000000000000 0.00000000000000000 0.00000000000000000 0.00000000000000000 1.00000000000000000 -0.00000000000000000 25.00000000000000000
1 -32.24536711117904986 -28.00000000000000000 -0.00000000000471560 0.00000000000000000 1.00000000000000000 0.00000000000010349 0.00000000000000000 0.00000000000010349 -1.00000000000000000 1.00000000000000000 -0.00000000000000000 -0.00000000000000000 
1 -32.24536711117904986 22.00000000000000000 0.00000000000045804 0.00000000000000000 -1.00000000000000000 -0.00000000000010346 0.00000000000000000 0.00000000000010346 -1.00000000000000000 1.00000000000000000 0.00000000000000000 0.00000000000000000 
2 0.00000000000000000 0.00000000000000000 -19.00000000000000000 -0.00000000000000000 -0.00000000000000000 1.00000000000000000 -1.00000000000000000 0.00000000000000000 0.00000000000000000 0.00000000000000000 1.00000000000000000 0.00000000000000000 15.78947368421099995
2 -50.00000000000000000 -0.00000000000100000 -19.00000000000000000 -0.00000000000000000 -0.00000000000000000 1.00000000000000000 -1.00000000000000000 0.00000000000000000 0.00000000000000000 0.00000000000000000 1.00000000000000000 0.00000000000000000 10.00000000000000000
1 -50.00000000000774492 -25.00000000000099831 -19.00000000000000000 0.00000000000000000 -1.00000000000000000 0.00000000000000000 1.00000000000000000 0.00000000000000000 0.00000000000000000 -0.00000000000000000 0.00000000000000000 1.00000000000000000 
2 0.00000000000000000 0.00000000000000000 19.00000000000000000 -0.00000000000000000 -0.00000000000000000 -1.00000000000000000 -1.00000000000000000 0.00000000000000000 0.00000000000000000 0.00000000000000000 1.00000000000000000 -0.00000000000000000 15.78947368421099995
1 -0.00000000000763382 15.78947368421099995 19.00000000000000000 1.00000000000000000 -0.00000000000000000 -0.00000000000000000 0.00000000000000000 1.00000000000000000 0.00000000000000000 -0.00000000000000000 0.00000000000000000 -1.00000000000000000 
2 -50.00000000000000000 -0.00000000000100000 19.00000000000000000 -0.00000000000000000 -0.00000000000000000 -1.00000000000000000 -1.00000000000000000 0.00000000000000000 0.00000000000000000 0.00000000000000000 1.00000000000000000 -0.00000000000000000 10.00000000000000000
1 -50.00000000000774492 -25.00000000000099831 19.00000000000000000 -0.00000000000000000 -1.00000000000000000 -0.00000000000000000 1.00000000000000000 -0.00000000000000000 0.00000000000000000 0.00000000000000000 -0.00000000000000000 -1.00000000000000000 
1 -0.00000000000763382 15.78947368421099995 -19.00000000000000000 1.00000000000000000 -0.00000000000000000 0.00000000000000000 0.00000000000000000 1.00000000000000000 0.00000000000000000 -0.00000000000000000 0.00000000000000000 1.00000000000000000 
1 0.00000000000000000 -25.00000000000099831 -19.00000000000000000 1.00000000000000000 0.00000000000053107 0.00000000000000000 -0.00000000000053107 1.00000000000000000 0.00000000000000000 0.00000000000000000 -0.00000000000000000 1.00000000000000000 
1 0.00000000000000000 -25.00000000000099831 19.00000000000000000 1.00000000000000000 0.00000000000053107 -0.00000000000000000 -0.00000000000053107 1.00000000000000000 -0.00000000000000000 -0.00000000000000000 -0.00000000000000000 -1.00000000000000000 
Triangulations 0

TShapes 151
Ve
0.000000100000000
-49.000000000007624 25.300000000001010 -25.000000000000000
0 0

0101101
*
Ve
0.000000212133034
-49.000000000007624 25.000000000001009 -25.000000000000000
0 0

0101101
*
Ed
 0.000000100000000 1 1 0
1  1 0 0.000000000000000 0.300000000000001
2  1 1 10 0.000000000000000 0.300000000000001
2  1 2 12 0.000000000000000 0.300000000000001
0

0101000
-151 13 +150 14 *
Ve
0.000000100000000
-49.000000000007631 30.000000000001009 -20.300000000000001
0 0

0101101
*
Ed
 0.000000100000000 1 1 0
1  2 0 1.570796326794897 3.141592653589793
2  2 3 0 1.570796326794897 3.141592653589793
2  3 1 15 1.570796326794897 3.141592653589793
2  3 2 16 1.570796326794897 3.141592653589793
0

0101000
+151 0 -148 0 *
Ve
0.000100000000000
-49.000000000007624 25.000000000000007 -19.000000000000000
0 0

0101101
*
Ed
 0.000000100002007 1 1 0
1  3 0 44.000000000000000 50.000000000000000
2  4 1 10 44.000000000000000 50.000000000000000
2  4 2 12 44.000000000000000 50.000000000000000
0

0101000
+146 14 -150 14 *
Ve
0.000000100000000
-49.000000000007631 30.000000000001009 20.300000000000001
0 0

0101101
*
Ed
 0.000000100000000 1 1 0
1  4 0 4.699999999999999 45.299999999999997
2  5 1 10 4.699999999999999 45.299999999999997
2  5 2 12 4.699999999999999 45.299999999999997
0

0101000
+148 13 -144 13 *
Ve
0.000100000000000
-49.000000000007624 25.000000000000007 19.000000000000000
0 0

0101101
*
Ed
 0.000000100000000 1 1 0
1  3 0 6.000000000000000 44.000000000000000
2  6 4 14 6.000000000000000 44.000000000000000
2  7 1 10 6.000000000000000 44.000000000000000
0

0101000
+142 17 -146 14 *
Ve
0.000000100000000
-49.000000000007631 25.300000000001010 25.000000000000000
0 0

0101101
*
Ed
 0.000000100000000 1 1 0
1  5 0 3.141592653589792 4.712388980384690
2  8 5 0 3.141592653589792 4.712388980384690
2  9 1 15 3.141592653589792 4.712388980384690
2  9 2 16 3.141592653589792 4.712388980384690
0

0101000
+144 0 -140 0 *
Ve
0.000000212133034
-49.000000000007624 25.000000000001009 25.000000000000000
0 0

0101101
*
Ed
 0.000000100002007 1 1 0
1  3 0 0.000000000000000 6.000000000000000
2  6 4 14 0.000000000000000 6.000000000000000
2  7 1 10 0.000000000000000 6.000000000000000
2  7 2 12 0.000000000000000 6.000000000000000
0

0101000
+138 17 -142 17 *
Ed
 0.000000100000000 1 1 0
1  6 0 4.699999999999999 5.000000000000000
2  10 6 18 4.699999999999999 5.000000000000000
2  11 6 14 4.699999999999999 5.000000000000000
2  12 1 10 4.699999999999999 5.000000000000000
2  12 2 12 4.699999999999999 5.000000000000000
0

0101000
+140 13 -138 17 *
Wi

0101100
+149 9 +147 0 +145 9 +143 9 +141 9 +139 0 +137 9 +136 9 *
Fa
0  0.000000100000000 1 6

0101000
+135 7 *
Ve
0.000000100000000
-0.000000000007628 25.300000000000999 -25.000000000000000
0 0

0101101
*
Ve
0.000000100002007
-0.000000000007631 25.000000000000000 -25.000000000000000
0 0

0101101
*
Ed
 0.000000100000000 1 1 0
1  1 0 0.000000000000000 0.300000000000001
2  13 1 10 0.000000000000000 0.300000000000001
0

0101000
-133 22 +132 18 *
Ed
 0.000000100000000 1 1 0
1  7 0 -0.000000000000000 49.000000000000000
2  14 3 0 -0.000000000000000 49.000000000000000
2  15 7 19 -0.000000000000000 49.000000000000000
4 G1 3 0 7 19
0

0101000
+133 0 -151 0 *
Ed
 0.000000100002007 1 1 0
1  8 0 0.000000000000000 48.999999999999993
0

0101000
+132 29 -150 29 *
Wi

0101100
-131 21 -130 0 +129 28 +149 9 *
Fa
0  0.000000100000000 7 0

0101000
+128 20 *
Ve
0.000000100000000
-0.000000000007627 30.000000000000998 -20.300000000000001
0 0

0101101
*
Ed
 0.000000100000000 1 1 0
1  9 0 1.570796326794897 3.141592653589793
2  16 3 0 1.570796326794897 3.141592653589793
2  17 1 30 1.570796326794897 3.141592653589793
0

0101000
+133 0 -126 0 *
Ed
 0.000000100000000 1 1 0
1  10 0 -0.000000000000000 49.000000000000000
2  18 3 0 -0.000000000000000 49.000000000000000
2  19 8 19 -0.000000000000000 49.000000000000000
4 G1 3 0 8 19
0

0101000
+126 0 -148 0 *
Wi

0101100
+125 0 -130 0 +124 0 -147 0 *
Fa
0  0.000000000000000 3 0

0101000
+123 0 *
Ve
0.000000100000000
50.000000000012086 24.999999999999002 0.000000000000000
0 0

0101101
*
Ed
 0.000000100000000 1 1 0
1  8 0 48.999999999999993 50.000000000004455
0

0101000
+146 33 -121 0 *
Ed
 0.000000100000000 1 1 0
1  11 0 0.000000000000000 6.000000000000000
2  20 10 0 0.000000000000000 6.000000000000000
4 G1 9 0 10 0
0

0101000
+121 34 -121 35 *
Ed
 0.000000100000000 1 1 0
1  8 0 48.999999999999993 50.000000000004455
0

0101000
+150 29 -121 0 *
Wi

0101100
-120 32 -119 31 +118 36 +145 37 *
Fa
0  0.000000100000000 9 31

0101000
+117 0 *
Ve
0.000000100000000
-0.000000000007627 30.000000000000998 20.300000000000001
0 0

0101101
*
Ed
 0.000000100000000 1 1 0
1  4 0 4.699999999999999 45.299999999999997
2  5 1 10 4.699999999999999 45.299999999999997
0

0101000
+126 22 -115 22 *
Ed
 0.000000100000000 1 1 0
1  12 0 -0.000000000000000 49.000000000000000
2  21 5 0 -0.000000000000000 49.000000000000000
2  22 8 19 -0.000000000000000 49.000000000000000
4 G1 5 0 8 19
0

0101000
+115 0 -144 0 *
Wi

0101100
-114 21 +124 0 -113 0 +143 9 *
Fa
0  0.000000100000000 8 0

0101000
+112 20 *
Ve
0.000001000019966
-0.000000000007634 24.999999999999002 19.000000000000000
0 0

0101101
*
Ve
0.000001000019966
-0.000000000007634 24.999999999999002 -19.000000000000000
0 0

0101101
*
Ed
 0.000000100000000 1 1 0
1  3 0 6.000000000000000 44.000000000000000
2  23 4 18 6.000000000000000 44.000000000000000
2  24 1 10 6.000000000000000 44.000000000000000
0

0101000
+110 39 -109 18 *
Ed
 0.000000100002007 1 1 0
1  8 0 0.000000000000000 48.999999999999993
2  25 4 33 0.000000000000000 48.999999999999993
0

0101000
+109 33 -146 33 *
Ed
 0.000000100002007 1 1 0
1  13 0 0.000000000000000 48.999999999999993
2  26 11 44 0.000000000000000 48.999999999999993
2  27 12 45 0.000000000000000 48.999999999999993
0

0101000
+110 46 -142 46 *
Wi

0101100
-108 38 -107 40 +141 41 +106 43 *
Fa
0  0.000000100000000 4 5

0101000
+105 0 *
Ve
0.000000100000000
-0.000000000007628 25.300000000000999 25.000000000000000
0 0

0101101
*
Ed
 0.000000100000000 1 1 0
1  14 0 3.141592653589792 4.712388980384690
2  28 5 0 3.141592653589792 4.712388980384690
2  29 1 30 3.141592653589792 4.712388980384690
0

0101000
+115 0 -103 0 *
Ed
 0.000000100000000 1 1 0
1  15 0 -0.000000000000000 48.999999999999993
2  30 5 0 -0.000000000000000 48.999999999999993
2  31 6 19 -0.000000000000000 48.999999999999993
4 G1 5 0 6 19
0

0101000
+103 0 -140 0 *
Wi

0101100
+102 0 -113 0 +101 0 -139 0 *
Fa
0  0.000000000000000 5 0

0101000
+100 0 *
Ve
0.000000100000000
-50.000000000012086 24.999999999999002 19.000000000000000
0 0

0101101
*
Ed
 0.000000100000000 1 1 0
1  13 0 48.999999999999993 50.000000000004455
2  26 11 44 48.999999999999993 50.000000000004455
2  27 12 45 48.999999999999993 50.000000000004455
0

0101000
+142 46 -98 44 *
Ve
0.000000100000000
-50.000000000012086 24.999999999999002 25.000000000000000
0 0

0101101
*
Ed
 0.000000100000000 1 1 0
1  16 0 0.000000000000000 6.000000000000000
2  32 13 0 0.000000000000000 6.000000000000000
4 G1 11 0 13 0
2  33 11 0 0.000000000000000 6.000000000000000
0

0101000
+98 0 -96 0 *
Ed
 0.000000100000000 1 1 0
1  17 0 48.999999999999993 50.000000000004455
2  34 11 48 48.999999999999993 50.000000000004455
2  35 14 45 48.999999999999993 50.000000000004455
0

0101000
+138 49 -96 48 *
Wi

0101100
-137 41 -97 43 -95 42 +94 47 *
Fa
0  0.000000100000000 11 42

0101000
+93 0 *
Ve
0.000000212133034
-0.000000000007628 25.000000000000998 25.000000000000000
0 0

0101101
*
Ed
 0.000000100000000 1 1 0
1  6 0 4.699999999999999 5.000000000000000
2  10 6 18 4.699999999999999 5.000000000000000
2  11 6 14 4.699999999999999 5.000000000000000
2  12 1 10 4.699999999999999 5.000000000000000
0

0101000
+103 22 -91 39 *
Ed
 0.000000100002007 1 1 0
1  18 0 0.000000000000000 49.000000000000000
2  36 4 0 0.000000000000000 49.000000000000000
2  37 6 0 0.000000000000000 49.000000000000000
0

0101000
+91 50 -138 50 *
Wi

0101100
-90 21 +101 0 -89 19 +136 9 *
Fa
0  0.000000100000000 6 5

0101000
+88 7 *
Ed
 0.000000100001997 1 1 0
1  19 0 0.000000000000000 6.000000000000000
2  38 1 53 0.000000000000000 6.000000000000000
0

0101000
+109 54 -132 54 *
Ed
 0.000000100001997 1 1 0
1  3 0 0.000000000000000 6.000000000000000
2  23 4 18 0.000000000000000 6.000000000000000
2  24 1 10 0.000000000000000 6.000000000000000
0

0101000
+91 39 -110 39 *
Wi

0101100
+131 21 +125 0 +86 52 +114 21 +108 21 +102 0 +85 21 +90 21 *
Fa
0  0.000000100000000 1 51

0101000
+84 7 *
Ve
0.000000100000000
50.000000000007745 -25.000000000000998 0.000000000000000
0 0

0101101
*
Ed
 0.000000100000000 1 1 0
1  20 0 4.712388980385000 7.853981633974000
2  39 10 44 4.712388980385000 7.853981633974000
2  40 10 48 4.712388980385000 7.853981633974000
0

0101000
+82 0 -121 0 *
Ve
0.000000100000000
0.000000000000000 -25.000000000000998 0.000000000000000
0 0

0101101
*
Ed
 0.000000100000000 1 1 0
1  21 0 0.000000000000000 50.000000000007745
0

0101000
+82 0 -80 0 *
Ve
0.000000100000000
0.000000000004891 -15.789473684211000 0.000000000000000
0 0

0101101
*
Ed
 0.000000100000000 1 1 0
1  22 0 0.000000000000000 9.210526315789998
0

0101000
+80 0 -78 0 *
Ve
0.000000100000000
0.000000000007634 15.789473684211000 0.000000000000000
0 0

0101101
*
Ed
 0.000000100000000 1 1 0
1  23 0 4.712388980385000 7.853981633974000
2  41 16 44 4.712388980385000 7.853981633974000
2  42 16 48 4.712388980385000 7.853981633974000
0

0101000
+78 0 -76 0 *
Ed
 0.000000100000000 1 1 0
1  24 0 0.000000000000000 9.210526315788002
0

0101000
+76 0 -132 29 *
Wi

0101100
+129 36 +118 36 -81 36 +79 36 +77 36 +75 36 +74 36 *
Ve
0.000000100000000
60.000000000000000 -0.000000000001000 0.000000000000000
0 0

0101101
*
Ed
 0.000000100000000 1 1 0
1  25 0 0.000000000000000 6.283185307179586
2  43 17 44 0.000000000000000 6.283185307179586
2  44 17 48 0.000000000000000 6.283185307179586
0

0101000
+72 0 -72 0 *
Wi

0101100
+71 36 *
Fa
0  0.000000100000000 15 55

0101000
+73 0 +70 0 *
Ed
 0.000000100000000 1 1 0
1  24 0 0.000000000000000 9.210526315788002
0

0101000
+76 0 -109 33 *
Wi

0101100
+107 32 +120 32 -81 32 +79 32 +77 32 +75 32 +68 32 *
Wi

0101100
+71 32 *
Fa
0  0.000000100000000 15 56

0101000
+67 0 +66 0 *
Ed
 0.000000100000000 1 1 0
1  26 0 0.000000000000000 6.000000000000000
2  45 10 0 0.000000000000000 6.000000000000000
4 G1 10 0 18 0
0

0101000
+82 34 -82 35 *
Wi

0101100
+64 0 -119 0 -81 34 +81 35 *
Fa
0  0.000000100000000 10 0

0101000
+63 0 *
Ve
0.000000100000000
-50.000000000007745 -25.000000000000998 19.000000000000000
0 0

0101101
*
Ed
 0.000000100000000 1 1 0
1  27 0 4.712388980385000 7.853981633974000
2  46 13 44 4.712388980385000 7.853981633974000
2  47 12 45 4.712388980385000 7.853981633974000
0

0101000
+61 44 -98 44 *
Ve
0.000000100000000
0.000000000000000 -25.000000000000998 19.000000000000000
0 0

0101101
*
Ed
 0.000000100000000 1 1 0
1  28 0 0.000000000000000 50.000000000007745
2  48 12 45 0.000000000000000 50.000000000007745
0

0101000
+61 44 -59 44 *
Ve
0.000000100000000
-0.000000000004891 -15.789473684211000 19.000000000000000
0 0

0101101
*
Ed
 0.000000100000000 1 1 0
1  29 0 0.000000000000000 9.210526315789998
2  49 12 45 0.000000000000000 9.210526315789998
0

0101000
+59 44 -57 44 *
Ve
0.000000100000000
-0.000000000007634 15.789473684211000 19.000000000000000
0 0

0101101
*
Ed
 0.000000100000000 1 1 0
1  30 0 4.712388980385000 7.853981633974000
2  50 19 44 4.712388980385000 7.853981633974000
2  51 12 45 4.712388980385000 7.853981633974000
0

0101000
+57 44 -55 44 *
Ed
 0.000000100000000 1 1 0
1  31 0 0.000000000000000 9.210526315788002
2  52 20 44 0.000000000000000 9.210526315788002
2  53 12 45 0.000000000000000 9.210526315788002
0

0101000
+55 44 -110 46 *
Wi

0101100
+106 43 +97 43 -60 43 +58 43 +56 43 +54 43 +53 43 *
Ve
0.000000100000000
-60.000000000000000 -0.000000000001000 19.000000000000000
0 0

0101101
*
Ed
 0.000000100000000 1 1 0
1  32 0 0.000000000000000 6.283185307179586
2  54 21 44 0.000000000000000 6.283185307179586
2  55 12 45 0.000000000000000 6.283185307179586
0

0101000
+51 44 -51 44 *
Wi

0101100
+50 43 *
Fa
0  0.000000100000000 12 57

0101000
+52 0 +49 0 *
Ve
0.000000100000000
-50.000000000007745 -25.000000000000998 25.000000000000000
0 0

0101101
*
Ed
 0.000000100000000 1 1 0
1  33 0 0.000000000000000 6.000000000000000
2  56 13 0 0.000000000000000 6.000000000000000
4 G1 13 0 22 0
0

0101000
+61 0 -47 0 *
Ed
 0.000000100000000 1 1 0
1  34 0 4.712388980385000 7.853981633974000
2  57 13 48 4.712388980385000 7.853981633974000
2  58 14 45 4.712388980385000 7.853981633974000
0

0101000
+47 48 -96 48 *
Wi

0101100
+46 0 -95 0 -60 34 +45 35 *
Fa
0  0.000000100000000 13 0

0101000
+44 0 *
Ve
0.000000100000000
0.000000000000000 -25.000000000000998 25.000000000000000
0 0

0101101
*
Ed
 0.000000100000000 1 1 0
1  35 0 0.000000000000000 50.000000000007745
2  59 14 45 0.000000000000000 50.000000000007745
0

0101000
+47 48 -42 48 *
Ve
0.000000100000000
-0.000000000004891 -15.789473684211000 25.000000000000000
0 0

0101101
*
Ed
 0.000000100000000 1 1 0
1  36 0 0.000000000000000 9.210526315789998
2  60 14 45 0.000000000000000 9.210526315789998
0

0101000
+42 48 -40 48 *
Ve
0.000000100000000
-0.000000000007634 15.789473684211000 25.000000000000000
0 0

0101101
*
Ed
 0.000000100000000 1 1 0
1  37 0 4.712388980385000 7.853981633974000
2  61 19 48 4.712388980385000 7.853981633974000
2  62 14 45 4.712388980385000 7.853981633974000
0

0101000
+40 48 -38 48 *
Ed
 0.000000100000000 1 1 0
1  38 0 0.000000000000000 9.210526315788002
2  63 14 45 0.000000000000000 9.210526315788002
2  64 20 48 0.000000000000000 9.210526315788002
0

0101000
+38 48 -91 49 *
Wi

0101100
+89 5 +94 47 -45 47 +41 47 +39 47 +37 47 +36 47 *
Ve
0.000000100000000
-60.000000000000000 -0.000000000001000 25.000000000000000
0 0

0101101
*
Ed
 0.000000100000000 1 1 0
1  39 0 0.000000000000000 6.283185307179586
2  65 21 48 0.000000000000000 6.283185307179586
2  66 14 45 0.000000000000000 6.283185307179586
0

0101000
+34 48 -34 48 *
Wi

0101100
+33 47 *
Fa
0  0.000000100000000 14 59

0101000
+35 0 +32 0 *
Ed
 0.000000100000000 1 1 0
1  40 0 0.000000000000000 6.000000000000000
2  67 16 0 0.000000000000000 6.000000000000000
0

0101000
+76 34 -76 35 *
Wi

0101100
+30 31 -86 31 -68 32 +74 36 *
Fa
0  0.000000100000000 23 31

0101000
+29 0 *
Ed
 0.000000100000000 1 1 0
1  41 0 0.000000000000000 6.000000000000000
2  68 19 0 0.000000000000000 6.000000000000000
2  69 20 0 0.000000000000000 6.000000000000000
0

0101000
+55 0 -38 0 *
Wi

0101100
+27 42 +85 38 -53 43 +36 47 *
Fa
0  0.000000100000000 20 42

0101000
+26 0 *
Ed
 0.000000100000000 1 1 0
1  42 0 0.000000000000000 6.000000000000000
0

0101000
+80 34 -80 35 *
Wi

0101100
+64 0 -24 0 -79 34 +79 35 *
Fa
0  0.000000100000000 18 0

0101000
+23 0 *
Ed
 0.000000100000000 1 1 0
1  43 0 0.000000000000000 6.000000000000000
2  70 16 0 0.000000000000000 6.000000000000000
0

0101000
+78 34 -78 35 *
Wi

0101100
+24 0 -21 0 -77 34 +77 35 *
Fa
0  0.000000100000000 24 0

0101000
+20 0 *
Wi

0101100
+21 0 -30 0 -75 34 +75 35 *
Fa
0  0.000000100000000 16 0

0101000
+18 0 *
Ed
 0.000000100000000 1 1 0
1  44 0 0.000000000000000 6.000000000000000
3  71 72CN 17 0 0.000000000000000 6.000000000000000
0

0101000
+72 34 -72 35 *
Wi

0101100
+16 0 -16 0 -71 34 +71 35 *
Fa
0  0.000000100000000 17 0

0101000
+15 0 *
Ed
 0.000000100000000 1 1 0
1  45 0 0.000000000000000 6.000000000000000
0

0101000
+59 0 -42 0 *
Wi

0101100
+46 0 -13 0 -58 34 +41 35 *
Fa
0  0.000000100000000 22 0

0101000
+12 0 *
Ed
 0.000000100000000 1 1 0
1  46 0 0.000000000000000 6.000000000000000
2  73 19 0 0.000000000000000 6.000000000000000
0

0101000
+57 0 -40 0 *
Wi

0101100
+13 0 -10 0 -56 34 +39 35 *
Fa
0  0.000000100000000 25 0

0101000
+9 0 *
Wi

0101100
+10 0 -27 0 -54 34 +37 35 *
Fa
0  0.000000100000000 19 0

0101000
+7 0 *
Ed
 0.000000100000000 1 1 0
1  47 0 0.000000000000000 6.000000000000000
3  74 75CN 21 0 0.000000000000000 6.000000000000000
0

0101000
+51 0 -34 0 *
Wi

0101100
+5 0 -5 0 -50 34 +33 35 *
Fa
0  0.000000100000000 21 0

0101000
+4 0 *
Sh

0101100
-134 2 +127 19 -122 0 +116 19 +111 19 +104 2 -99 0 -92 2 +87 2 +83 2 
-69 19 +65 19 -62 52 -48 2 +43 58 +31 2 +28 19 -25 2 +22 52 +19 52 
+17 52 +14 52 -11 58 -8 58 -6 58 -3 58 *
So

0100000
+2 0 *

+1 1 