
CASCADE Topology V1, (c) Matra-Datavision
Locations 48
1
1.000000000000000 0.000000000000000 0.000000000000000 0.000000000000000 
0.000000000000000 -0.000000000000103 -1.000000000000000 0.000000000000000 
0.000000000000000 1.000000000000000 -0.000000000000103 0.000000000000000 
1
1.000000000000000 0.000000000000000 0.000000000000000 0.000000000000000 
0.000000000000000 1.000000000000000 0.000000000000000 0.000000000000000 
0.000000000000000 0.000000000000000 1.000000000000000 0.000000000000000 
1
1.000000000000000 0.000000000000000 0.000000000000000 0.000000000000000 
0.000000000000000 -0.000000000000103 -1.000000000000000 0.000000000000000 
0.000000000000000 1.000000000000000 -0.000000000000103 0.000000000000000 
1
1.000000000000000 0.000000000000000 0.000000000000000 0.000000000000000 
0.000000000000000 -0.000000000000103 -1.000000000000000 0.000000000000000 
0.000000000000000 1.000000000000000 -0.000000000000103 0.000000000000000 
2  3 1 4 -1 0
1
-1.000000000000000 0.000000000000000 0.000000000000000 0.000000000000000 
0.000000000000000 -0.000000000000103 1.000000000000000 22.000000000000000 
0.000000000000000 1.000000000000000 0.000000000000103 0.000000000002276 
1
1.000000000000000 0.000000000000000 0.000000000000000 0.000000000000000 
0.000000000000000 -0.000000000000103 -1.000000000000000 0.000000000000000 
0.000000000000000 1.000000000000000 -0.000000000000103 0.000000000000000 
1
1.000000000000000 0.000000000000000 0.000000000000000 -0.000000000000000 
0.000000000000000 1.000000000000000 0.000000000000000 -0.000000000000000 
0.000000000000000 0.000000000000000 1.000000000000000 3.000000000000000 
2  6 1 7 -1 8 1 3 1 4 -1 0
2  4 1 3 -1 8 -1 7 1 6 -1 0
2  6 1 7 -1 8 1 0
1
1.000000000000000 0.000000000000000 0.000000000000000 0.000000000000000 
0.000000000000000 1.000000000000000 0.000000000000000 0.000000000000000 
0.000000000000000 0.000000000000000 1.000000000000000 -6.000000000000000 
2  6 1 7 -1 8 1 12 1 0
2  6 1 7 -1 8 1 12 1 3 1 4 -1 0
2  4 1 3 -1 12 -1 8 -1 7 1 6 -1 0
1
0.000000000000000 -0.000000000000000 1.000000000000000 -0.000000000007634 
-0.000000000000103 -1.000000000000000 0.000000000000000 0.000000000000000 
1.000000000000000 -0.000000000000103 -0.000000000000000 0.000000000000000 
1
1.000000000000000 0.000000000000000 0.000000000000000 -49.000000000000000 
0.000000000000000 1.000000000000000 0.000000000000000 0.000000000000011 
0.000000000000000 0.000000000000000 1.000000000000000 -0.000000000000000 
2  16 1 4 -1 17 1 0
2  16 -1 0
1
1.000000000000000 0.000000000000000 0.000000000000000 0.000000000000000 
0.000000000000000 1.000000000000000 0.000000000000000 0.000000000000000 
0.000000000000000 0.000000000000000 1.000000000000000 0.000000000000000 
1
1.000000000000000 0.000000000000000 0.000000000000000 0.000000000000000 
0.000000000000000 1.000000000000000 0.000000000000000 0.000000000000000 
0.000000000000000 0.000000000000000 1.000000000000000 0.000000000000000 
2  20 -1 21 -1 2 -1 17 -1 4 1 16 -1 0
2  17 -1 4 1 16 -1 0
2  7 -1 8 1 3 1 4 -1 0
2  8 -1 7 1 6 -1 0
2  12 -1 8 -1 7 1 6 -1 0
2  3 1 4 -1 2 1 0
2  7 -1 8 1 12 1 3 1 4 -1 0
2  4 -1 17 1 2 1 0
2  16 1 4 -1 17 1 2 1 0
2  4 1 16 -1 0
2  2 -1 17 -1 4 1 16 -1 0
2  16 1 4 -1 2 1 0
2  2 -1 4 1 16 -1 0
2  6 1 7 -1 8 1 3 1 4 -1 2 1 0
1
1.000000000000000 0.000000000000000 0.000000000000000 0.000000000000000 
0.000000000000000 1.000000000000000 0.000000000000000 0.000000000000000 
0.000000000000000 0.000000000000000 1.000000000000000 0.000000000000000 
2  6 1 7 -1 8 1 36 1 0
2  6 -1 0
2  36 -1 8 -1 7 1 6 -1 0
2  3 -1 0
2  4 1 3 -1 0
2  16 1 4 -1 0
2  2 -1 0
2  6 1 7 -1 8 1 12 1 36 1 0
2  36 -1 12 -1 8 -1 7 1 6 -1 0
2  4 -1 2 1 0
2  7 -1 8 1 36 1 0
2  7 -1 8 1 12 1 36 1 0
Curve2ds 60
1 7.85398163397399962 0.00000000000000000 0.00000000000000000 -1.00000000000000000 
1 -2.50000000000258993 24.99999999999974065 0.00000000000010347 -1.00000000000000000 
1 44.00000000000000000 -0.00000000000000555 -0.00000000000000000 -1.00000000000000000 
1 0.00000000000000000 0.00000000000000000 1.00000000000000000 0.00000000000000000 
1 0.00000000000000000 -6.00000000000000000 1.00000000000000000 0.00000000000000000 
1 0.00000000000000000 0.00000000000000000 1.00000000000000000 0.00000000000000000 
1 0.00000000000000000 -6.00000000000000000 1.00000000000000000 0.00000000000000000 
1 0.00000000000000000 0.00000000000000000 1.00000000000000000 0.00000000000000000 
1 0.00000000000000000 -6.00000000000000000 1.00000000000000000 0.00000000000000000 
1 4.71238898038499965 0.00000000000000000 0.00000000000000000 -1.00000000000000000 
1 -2.49999999999741718 -25.00000000000025935 1.00000000000000000 0.00000000000010347 
1 2.50000000000258282 -24.99999999999974065 -0.00000000000010347 1.00000000000000000 
1 0.00000000000000000 0.00000000000000000 1.00000000000000000 0.00000000000000000 
1 0.00000000000000022 -49.00000000000000000 1.00000000000000000 0.00000000000000000 
1 2.49999999999741007 25.00000000000025935 -1.00000000000000000 -0.00000000000010347 
1 -0.00000000000000000 -48.99999999999999289 1.00000000000000000 0.00000000000000000 
1 -2.50000000000258993 24.99999999999974065 0.00000000000010347 -1.00000000000000000 
1 0.00000000000000000 0.00000000000000000 1.00000000000000000 0.00000000000000000 
1 -2.50000000000258993 24.99999999999974065 0.00000000000010347 -1.00000000000000000 
1 -0.00000000000000000 -0.00000000000000000 1.00000000000000000 0.00000000000000000 
1 -25.00000000000082068 32.24536711117141863 0.00000000000000000 -1.00000000000000000 
1 4.71238898038499965 0.00000000000000000 0.00000000000000000 -1.00000000000000000 
1 7.85398163397399962 0.00000000000000000 0.00000000000000000 -1.00000000000000000 
1 -2.50000000000003553 -19.00000000000025935 0.00000000000010347 -1.00000000000000000 
1 0.00000000000000000 0.00000000000000000 0.00000000000000000 -1.00000000000000000 
1 6.28318530717958623 0.00000000000000000 0.00000000000000000 -1.00000000000000000 
1 -2.49999999999741718 -25.00000000000025935 1.00000000000000000 0.00000000000010347 
1 0.00000000000000000 0.00000000000000000 0.00000000000000000 -1.00000000000000000 
1 0.00000000000000000 0.00000000000000000 0.00000000000000000 -1.00000000000000000 
1 5.00000000000000000 0.00000000000000000 0.00000000000000000 -1.00000000000000000 
1 7.85398163397399962 0.00000000000000000 0.00000000000000000 -1.00000000000000000 
1 50.00000000000445510 0.00000000000000000 0.00000000000000000 -1.00000000000000000 
1 -0.00000000000000000 -6.00000000000000000 1.00000000000000000 0.00000000000000000 
1 -25.00000000000082068 32.24536711117141863 0.00000000000000000 -1.00000000000000000 
1 0.00000000000000000 0.00000000000000000 1.00000000000000000 0.00000000000000000 
2 -0.00000000000081836 -17.75463288882095014 0.00000000000000000 -1.00000000000000000 -1.00000000000000000 -0.00000000000000000 25.00000000000000000
1 24.99999999999917932 -17.75463288882869506 0.00000000000000000 1.00000000000000000 
1 24.99999999999917932 32.24536711117904986 -1.00000000000000000 -0.00000000000053107 
1 0.00000000000000000 0.00000000000000000 1.00000000000000000 0.00000000000000000 
2 -0.00000000000181836 32.24536711117904986 0.00000000000000000 -1.00000000000000000 -1.00000000000000000 -0.00000000000000000 15.78947368421099995
1 0.00000000000000000 -0.00000000000000000 1.00000000000000000 -0.00000000000000000 
1 -15.78947368421281894 32.24536711117141863 -1.00000000000000000 -0.00000000000000000 
1 0.00000000000000000 0.00000000000000000 1.00000000000000000 0.00000000000000000 
2 -0.00000000000081836 -17.75463288882095014 0.00000000000000000 -1.00000000000000000 -1.00000000000000000 -0.00000000000000000 10.00000000000000000
1 0.00000000000000000 -6.00000000000000000 1.00000000000000000 0.00000000000000000 
2 -0.00000000000081836 -17.75463288882095014 0.00000000000000000 -1.00000000000000000 -1.00000000000000000 -0.00000000000000000 25.00000000000000000
1 24.99999999999917932 -17.75463288882869506 0.00000000000000000 1.00000000000000000 
1 24.99999999999917932 32.24536711117904986 -1.00000000000000000 -0.00000000000053107 
1 0.00000000000000000 -6.00000000000000000 1.00000000000000000 0.00000000000000000 
2 -0.00000000000181836 32.24536711117904986 0.00000000000000000 -1.00000000000000000 -1.00000000000000000 -0.00000000000000000 15.78947368421099995
1 -15.78947368421282071 32.24536711117141863 -1.00000000000000000 -0.00000000000000000 
1 0.00000000000000000 -6.00000000000000000 1.00000000000000000 -0.00000000000000000 
1 0.00000000000000000 -6.00000000000000000 1.00000000000000000 0.00000000000000000 
2 -0.00000000000081836 -17.75463288882095014 0.00000000000000000 -1.00000000000000000 -1.00000000000000000 -0.00000000000000000 10.00000000000000000
1 4.71238898038499965 0.00000000000000000 0.00000000000000000 -1.00000000000000000 
1 7.85398163397399962 0.00000000000000000 0.00000000000000000 -1.00000000000000000 
1 0.00000000000000000 -0.00000000000000000 0.00000000000000000 -1.00000000000000000 
1 4.71238898038499965 0.00000000000000000 0.00000000000000000 -1.00000000000000000 
1 0.00000000000000000 0.00000000000000000 0.00000000000000000 -1.00000000000000000 
1 6.28318530717958623 0.00000000000000000 0.00000000000000000 -1.00000000000000000 
Curves 41
1 0.00000000000763382 24.99999999999900169 0.00000000000000000 1.00000000000000000 0.00000000000000000 0.00000000000000000 
1 -50.00000000001208633 24.99999999999900169 -19.00000000000000000 0.00000000000000000 0.00000000000000000 -1.00000000000000000 
1 25.00000000000099831 25.00000000000000000 0.00000000000000000 0.00000000000000000 -1.00000000000000000 0.00000000000000000 
2 50.00000000000000000 -0.00000000000100000 0.00000000000000000 0.00000000000000000 0.00000000000000000 1.00000000000000000 1.00000000000000000 0.00000000000000000 -0.00000000000000000 -0.00000000000000000 1.00000000000000000 0.00000000000000000 25.00000000000000000
1 50.00000000000774492 -25.00000000000099831 0.00000000000000000 -1.00000000000000000 0.00000000000000000 0.00000000000000000 
1 0.00000000000000000 -25.00000000000099831 0.00000000000000000 0.00000000000053107 1.00000000000000000 0.00000000000000000 
2 0.00000000000000000 0.00000000000000000 0.00000000000000000 0.00000000000000000 0.00000000000000000 1.00000000000000000 1.00000000000000000 0.00000000000000000 -0.00000000000000000 -0.00000000000000000 1.00000000000000000 0.00000000000000000 15.78947368421099995
1 0.00000000000763382 15.78947368421099995 0.00000000000000000 0.00000000000000000 1.00000000000000000 0.00000000000000000 
2 50.00000000000000000 -0.00000000000100000 0.00000000000000000 0.00000000000000000 0.00000000000000000 1.00000000000000000 1.00000000000000000 0.00000000000000000 -0.00000000000000000 -0.00000000000000000 1.00000000000000000 0.00000000000000000 10.00000000000000000
1 -50.00000000000774492 -25.00000000000099831 -19.00000000000000000 0.00000000000000000 0.00000000000000000 -1.00000000000000000 
1 25.00000000000099831 -25.00000000000000000 0.00000000000000000 1.00000000000000000 0.00000000000000000 0.00000000000000000 
1 30.00000000000099831 -25.00000000000000000 0.00000000000000000 0.00000000000000000 1.00000000000000000 0.00000000000000000 
1 30.00000000000099831 25.00000000000000000 0.00000000000000000 -1.00000000000000000 0.00000000000000000 0.00000000000000000 
1 0.00000000000763382 24.99999999999900169 -38.00000000000000000 1.00000000000000000 -0.00000000000000000 -0.00000000000000000 
1 0.00000000000000000 -25.00000000000099831 -19.00000000000000000 0.00000000000000000 0.00000000000000000 -1.00000000000000000 
1 -0.00000000000489143 -15.78947368421099995 -19.00000000000000000 0.00000000000000000 0.00000000000000000 -1.00000000000000000 
1 -0.00000000000763382 15.78947368421099995 -19.00000000000000000 0.00000000000000000 0.00000000000000000 -1.00000000000000000 
1 -0.00000000000763382 24.99999999999900169 -19.00000000000000000 0.00000000000000000 0.00000000000000000 -1.00000000000000000 
1 -60.00000000000000000 -0.00000000000100000 -19.00000000000000000 0.00000000000000000 0.00000000000000000 -1.00000000000000000 
1 -0.00000000000762716 30.00000000000099831 -25.00000000000000000 -1.00000000000000000 0.00000000000000022 -0.00000000000000000 
1 -0.00000000000762716 30.00000000000099831 25.00000000000000000 -1.00000000000000000 0.00000000000000022 -0.00000000000000000 
1 -0.00000000000762827 25.00000000000099831 25.00000000000000000 -1.00000000000000000 0.00000000000000022 -0.00000000000000000 
1 -50.00000000001208633 24.99999999999900169 19.00000000000000000 -0.00000000000000000 -0.00000000000000000 1.00000000000000000 
1 0.00000000000763382 24.99999999999900169 -50.00000000000000000 1.00000000000000000 -0.00000000000000000 -0.00000000000000000 
2 50.00000000000000000 -0.00000000000100000 -38.00000000000000000 0.00000000000000000 0.00000000000000000 1.00000000000000000 1.00000000000000000 0.00000000000000000 -0.00000000000000000 -0.00000000000000000 1.00000000000000000 0.00000000000000000 25.00000000000000000
1 50.00000000000774492 -25.00000000000099831 -38.00000000000000000 -1.00000000000000000 -0.00000000000000000 -0.00000000000000000 
1 0.00000000000000000 -25.00000000000099831 -38.00000000000000000 0.00000000000053107 1.00000000000000000 -0.00000000000000000 
2 0.00000000000000000 0.00000000000000000 -38.00000000000000000 0.00000000000000000 0.00000000000000000 1.00000000000000000 1.00000000000000000 0.00000000000000000 -0.00000000000000000 -0.00000000000000000 1.00000000000000000 0.00000000000000000 15.78947368421099995
1 0.00000000000763382 15.78947368421099995 -38.00000000000000000 -0.00000000000000000 1.00000000000000000 -0.00000000000000000 
2 50.00000000000000000 -0.00000000000100000 -38.00000000000000000 0.00000000000000000 0.00000000000000000 1.00000000000000000 1.00000000000000000 0.00000000000000000 -0.00000000000000000 -0.00000000000000000 1.00000000000000000 0.00000000000000000 10.00000000000000000
2 50.00000000000000000 -0.00000000000100000 -50.00000000000000000 0.00000000000000000 0.00000000000000000 1.00000000000000000 1.00000000000000000 0.00000000000000000 -0.00000000000000000 -0.00000000000000000 1.00000000000000000 0.00000000000000000 25.00000000000000000
1 50.00000000000774492 -25.00000000000099831 -50.00000000000000000 -1.00000000000000000 -0.00000000000000000 -0.00000000000000000 
1 0.00000000000000000 -25.00000000000099831 -50.00000000000000000 0.00000000000053107 1.00000000000000000 -0.00000000000000000 
2 0.00000000000000000 0.00000000000000000 -50.00000000000000000 0.00000000000000000 0.00000000000000000 1.00000000000000000 1.00000000000000000 0.00000000000000000 -0.00000000000000000 -0.00000000000000000 1.00000000000000000 0.00000000000000000 15.78947368421099995
1 0.00000000000763382 15.78947368421099995 -50.00000000000000000 -0.00000000000000000 1.00000000000000000 -0.00000000000000000 
2 50.00000000000000000 -0.00000000000100000 -50.00000000000000000 0.00000000000000000 0.00000000000000000 1.00000000000000000 1.00000000000000000 0.00000000000000000 -0.00000000000000000 -0.00000000000000000 1.00000000000000000 0.00000000000000000 10.00000000000000000
1 -50.00000000000774492 -25.00000000000099831 19.00000000000000000 -0.00000000000000000 -0.00000000000000000 1.00000000000000000 
1 -0.00000000000763382 15.78947368421099995 19.00000000000000000 -0.00000000000000000 -0.00000000000000000 1.00000000000000000 
1 0.00000000000000000 -25.00000000000099831 19.00000000000000000 -0.00000000000000000 -0.00000000000000000 1.00000000000000000 
1 -0.00000000000489143 -15.78947368421099995 19.00000000000000000 -0.00000000000000000 -0.00000000000000000 1.00000000000000000 
1 -60.00000000000000000 -0.00000000000100000 19.00000000000000000 -0.00000000000000000 -0.00000000000000000 1.00000000000000000 
Polygon3D 0
PolygonOnTriangulations 0
Surfaces 23
1 -0.00000000000763382 24.99999999999900169 -19.00000000000000000 0.00000000000000000 1.00000000000000000 0.00000000000000000 -1.00000000000000000 0.00000000000000000 0.00000000000000000 0.00000000000000000 -0.00000000000000000 1.00000000000000000 
2 -50.00000000000000000 -0.00000000000100000 -19.00000000000000000 -0.00000000000000000 -0.00000000000000000 1.00000000000000000 -1.00000000000000000 0.00000000000000000 0.00000000000000000 0.00000000000000000 1.00000000000000000 0.00000000000000000 25.00000000000000000
1 -0.00000000000762771 -0.00000000000284631 27.50000000000100187 1.00000000000000000 0.00000000000000000 -0.00000000000000022 0.00000000000000022 0.00000000000000000 1.00000000000000000 0.00000000000000000 -1.00000000000000000 0.00000000000000000 
1 -49.00000000000763123 27.50000000000101252 0.00000000000000080 1.00000000000000000 -0.00000000000000022 0.00000000000000000 0.00000000000000022 1.00000000000000000 -0.00000000000010347 0.00000000000000000 0.00000000000010347 1.00000000000000000 
1 -32.24536711117904986 22.00000000000000000 0.00000000000045804 0.00000000000000000 -1.00000000000000000 -0.00000000000010346 0.00000000000000000 0.00000000000010346 -1.00000000000000000 1.00000000000000000 0.00000000000000000 0.00000000000000000 
1 -0.00000000000762827 25.00000000000099831 25.00000000000000000 -0.00000000000000022 -1.00000000000000000 -0.00000000000000000 0.00000000000000000 0.00000000000000000 -1.00000000000000000 1.00000000000000000 -0.00000000000000022 0.00000000000000000 
2 0.00000000000000000 0.00000000000000000 -19.00000000000000000 -0.00000000000000000 -0.00000000000000000 1.00000000000000000 -1.00000000000000000 0.00000000000000000 0.00000000000000000 0.00000000000000000 1.00000000000000000 0.00000000000000000 15.78947368421099995
2 -50.00000000000000000 -0.00000000000100000 -19.00000000000000000 -0.00000000000000000 -0.00000000000000000 1.00000000000000000 -1.00000000000000000 0.00000000000000000 0.00000000000000000 0.00000000000000000 1.00000000000000000 0.00000000000000000 10.00000000000000000
1 -50.00000000000774492 -25.00000000000099831 -19.00000000000000000 0.00000000000000000 -1.00000000000000000 0.00000000000000000 1.00000000000000000 0.00000000000000000 0.00000000000000000 -0.00000000000000000 0.00000000000000000 1.00000000000000000 
1 -0.00000000000762716 30.00000000000099831 25.00000000000000000 -0.00000000000000000 0.00000000000000000 1.00000000000000000 -0.00000000000000022 -1.00000000000000000 0.00000000000000000 1.00000000000000000 -0.00000000000000022 0.00000000000000000 
1 -0.00000000000763382 24.99999999999900169 19.00000000000000000 -0.00000000000000000 1.00000000000000000 -0.00000000000000000 -1.00000000000000000 -0.00000000000000000 -0.00000000000000000 0.00000000000000000 -0.00000000000000000 -1.00000000000000000 
1 -32.24536711117904986 -16.00000000000000000 -0.00000000000347393 0.00000000000000000 1.00000000000000000 0.00000000000010349 0.00000000000000000 0.00000000000010349 -1.00000000000000000 1.00000000000000000 -0.00000000000000000 -0.00000000000000000 
1 0.00000000000000000 -25.00000000000099831 -19.00000000000000000 1.00000000000000000 0.00000000000053107 0.00000000000000000 -0.00000000000053107 1.00000000000000000 0.00000000000000000 0.00000000000000000 -0.00000000000000000 1.00000000000000000 
1 -0.00000000000763382 15.78947368421099995 -19.00000000000000000 1.00000000000000000 -0.00000000000000000 0.00000000000000000 0.00000000000000000 1.00000000000000000 0.00000000000000000 -0.00000000000000000 0.00000000000000000 1.00000000000000000 
1 -0.00000000000762827 25.00000000000099831 -25.00000000000000000 0.00000000000000000 -0.00000000000000000 -1.00000000000000000 0.00000000000000022 1.00000000000000000 0.00000000000000000 1.00000000000000000 -0.00000000000000022 0.00000000000000000 
1 -0.00000000000762716 30.00000000000099831 -25.00000000000000000 0.00000000000000022 1.00000000000000000 0.00000000000000000 -0.00000000000000000 0.00000000000000000 1.00000000000000000 1.00000000000000000 -0.00000000000000022 0.00000000000000000 
2 -50.00000000000000000 -0.00000000000100000 19.00000000000000000 -0.00000000000000000 -0.00000000000000000 -1.00000000000000000 -1.00000000000000000 0.00000000000000000 0.00000000000000000 0.00000000000000000 1.00000000000000000 -0.00000000000000000 25.00000000000000000
1 -32.24536711117904986 -28.00000000000000000 -0.00000000000471560 0.00000000000000000 1.00000000000000000 0.00000000000010349 0.00000000000000000 0.00000000000010349 -1.00000000000000000 1.00000000000000000 -0.00000000000000000 -0.00000000000000000 
2 0.00000000000000000 0.00000000000000000 19.00000000000000000 -0.00000000000000000 -0.00000000000000000 -1.00000000000000000 -1.00000000000000000 0.00000000000000000 0.00000000000000000 0.00000000000000000 1.00000000000000000 -0.00000000000000000 15.78947368421099995
1 -0.00000000000763382 15.78947368421099995 19.00000000000000000 1.00000000000000000 -0.00000000000000000 -0.00000000000000000 0.00000000000000000 1.00000000000000000 0.00000000000000000 -0.00000000000000000 0.00000000000000000 -1.00000000000000000 
2 -50.00000000000000000 -0.00000000000100000 19.00000000000000000 -0.00000000000000000 -0.00000000000000000 -1.00000000000000000 -1.00000000000000000 0.00000000000000000 0.00000000000000000 0.00000000000000000 1.00000000000000000 -0.00000000000000000 10.00000000000000000
1 -50.00000000000774492 -25.00000000000099831 19.00000000000000000 -0.00000000000000000 -1.00000000000000000 -0.00000000000000000 1.00000000000000000 -0.00000000000000000 0.00000000000000000 0.00000000000000000 -0.00000000000000000 -1.00000000000000000 
1 0.00000000000000000 -25.00000000000099831 19.00000000000000000 1.00000000000000000 0.00000000000053107 -0.00000000000000000 -0.00000000000053107 1.00000000000000000 -0.00000000000000000 -0.00000000000000000 -0.00000000000000000 -1.00000000000000000 
Triangulations 0

TShapes 134
Ve
0.000100000000000
-49.000000000007624 25.000000000000007 -19.000000000000000
0 0

0101101
*
Ve
0.000000100000000
50.000000000012086 24.999999999999002 0.000000000000000
0 0

0101101
*
Ed
 0.000000100000000 1 1 0
1  1 0 48.999999999999993 50.000000000004455
0

0101000
+134 10 -133 0 *
Ed
 0.000000100000000 1 1 0
1  2 0 0.000000000000000 6.000000000000000
2  1 2 0 0.000000000000000 6.000000000000000
4 G1 1 0 2 0
0

0101000
+133 11 -133 13 *
Ve
0.000000212133034
-49.000000000007624 25.000000000001009 -25.000000000000000
0 0

0101101
*
Ed
 0.000000100000000 1 1 0
1  1 0 48.999999999999993 50.000000000004455
0

0101000
+130 15 -133 0 *
Ed
 0.000000100002007 1 1 0
1  3 0 44.000000000000000 50.000000000000000
2  2 3 19 44.000000000000000 50.000000000000000
2  2 4 22 44.000000000000000 50.000000000000000
0

0101000
+134 23 -130 23 *
Wi

0101100
-132 9 -131 5 +129 14 +128 18 *
Fa
0  0.000000100000000 1 5

0101000
+127 0 *
Ve
0.000001000019966
-0.000000000007634 24.999999999999002 -19.000000000000000
0 0

0101101
*
Ed
 0.000000100002007 1 1 0
1  1 0 0.000000000000000 48.999999999999993
2  3 6 10 0.000000000000000 48.999999999999993
0

0101000
+125 10 -134 10 *
Ve
0.000000100000000
50.000000000007745 -25.000000000000998 0.000000000000000
0 0

0101101
*
Ed
 0.000000100000000 1 1 0
1  4 0 4.712388980385000 7.853981633974000
2  4 2 25 4.712388980385000 7.853981633974000
2  5 2 26 4.712388980385000 7.853981633974000
0

0101000
+123 0 -133 0 *
Ve
0.000000100000000
0.000000000000000 -25.000000000000998 0.000000000000000
0 0

0101101
*
Ed
 0.000000100000000 1 1 0
1  5 0 0.000000000000000 50.000000000007745
0

0101000
+123 0 -121 0 *
Ve
0.000000100000000
0.000000000004891 -15.789473684211000 0.000000000000000
0 0

0101101
*
Ed
 0.000000100000000 1 1 0
1  6 0 0.000000000000000 9.210526315789998
0

0101000
+121 0 -119 0 *
Ve
0.000000100000000
0.000000000007634 15.789473684211000 0.000000000000000
0 0

0101101
*
Ed
 0.000000100000000 1 1 0
1  7 0 4.712388980385000 7.853981633974000
2  6 7 25 4.712388980385000 7.853981633974000
2  7 7 26 4.712388980385000 7.853981633974000
0

0101000
+119 0 -117 0 *
Ed
 0.000000100000000 1 1 0
1  8 0 0.000000000000000 9.210526315788002
0

0101000
+117 0 -125 10 *
Wi

0101100
+124 9 +132 9 -122 9 +120 9 +118 9 +116 9 +115 9 *
Ve
0.000000100000000
60.000000000000000 -0.000000000001000 0.000000000000000
0 0

0101101
*
Ed
 0.000000100000000 1 1 0
1  9 0 0.000000000000000 6.283185307179586
2  8 8 25 0.000000000000000 6.283185307179586
2  9 8 26 0.000000000000000 6.283185307179586
0

0101000
+113 0 -113 0 *
Wi

0101100
+112 9 *
Fa
0  0.000000100000000 5 24

0101000
+114 0 +111 0 *
Ed
 0.000000100000000 1 1 0
1  10 0 0.000000000000000 6.000000000000000
2  10 2 0 0.000000000000000 6.000000000000000
4 G1 2 0 9 0
0

0101000
+123 11 -123 13 *
Wi

0101100
+109 0 -131 0 -122 11 +122 13 *
Fa
0  0.000000100000000 2 0

0101000
+108 0 *
Ve
0.000000100002007
-0.000000000007631 25.000000000000000 -25.000000000000000
0 0

0101101
*
Ed
 0.000000100002007 1 1 0
1  1 0 0.000000000000000 48.999999999999993
0

0101000
+106 15 -130 15 *
Ed
 0.000000100000000 1 1 0
1  8 0 0.000000000000000 9.210526315788002
0

0101000
+117 0 -106 15 *
Wi

0101100
+105 14 +129 14 -122 14 +120 14 +118 14 +116 14 +104 14 *
Wi

0101100
+112 14 *
Fa
0  0.000000100000000 5 28

0101000
+103 0 +102 0 *
Ve
0.000000100000000
30.000000000000998 -25.000000000000000 0.000000000000000
0 0

0101101
*
Ed
 0.000000100000000 1 1 0
1  11 0 0.000000000000000 5.000000000000000
2  11 3 19 0.000000000000000 5.000000000000000
0

0101000
+130 23 -100 0 *
Ve
0.000000100000000
30.000000000000998 25.000000000000000 0.000000000000000
0 0

0101101
*
Ed
 0.000000100000000 1 1 0
1  12 0 0.000000000000000 50.000000000000000
2  12 3 19 0.000000000000000 50.000000000000000
0

0101000
+100 0 -98 0 *
Ve
0.000000212133034
-49.000000000007624 25.000000000001009 25.000000000000000
0 0

0101101
*
Ed
 0.000000100000000 1 1 0
1  13 0 0.000000000000000 5.000000000000000
2  13 10 31 0.000000000000000 5.000000000000000
2  14 10 23 0.000000000000000 5.000000000000000
2  15 3 19 0.000000000000000 5.000000000000000
0

0101000
+98 0 -96 32 *
Ve
0.000100000000000
-49.000000000007624 25.000000000000007 19.000000000000000
0 0

0101101
*
Ed
 0.000000100002007 1 1 0
1  3 0 0.000000000000000 6.000000000000000
2  16 6 23 0.000000000000000 6.000000000000000
2  17 3 19 0.000000000000000 6.000000000000000
2  17 4 22 0.000000000000000 6.000000000000000
0

0101000
+96 32 -94 32 *
Ed
 0.000000100000000 1 1 0
1  3 0 6.000000000000000 44.000000000000000
2  16 6 23 6.000000000000000 44.000000000000000
2  17 3 19 6.000000000000000 44.000000000000000
0

0101000
+94 32 -134 23 *
Wi

0101100
+99 30 +97 30 +95 30 +93 30 +92 30 +128 30 *
Fa
0  0.000000100000000 3 29

0101000
+91 0 *
Ve
0.000001000019966
-0.000000000007634 24.999999999999002 19.000000000000000
0 0

0101101
*
Ed
 0.000000100000000 1 1 0
1  3 0 6.000000000000000 44.000000000000000
2  18 6 31 6.000000000000000 44.000000000000000
2  19 3 19 6.000000000000000 44.000000000000000
0

0101000
+89 34 -125 31 *
Ed
 0.000000100002007 1 1 0
1  14 0 0.000000000000000 48.999999999999993
2  20 11 25 0.000000000000000 48.999999999999993
2  21 12 38 0.000000000000000 48.999999999999993
0

0101000
+89 39 -94 39 *
Wi

0101100
-88 33 -124 35 +92 30 +87 37 *
Fa
0  0.000000100000000 6 2

0101000
+86 0 *
Ed
 0.000000100000000 1 1 0
1  15 0 0.000000000000000 6.000000000000000
0

0101000
+121 11 -121 13 *
Wi

0101100
+109 0 -84 0 -120 11 +120 13 *
Fa
0  0.000000100000000 9 0

0101000
+83 0 *
Ed
 0.000000100000000 1 1 0
1  16 0 0.000000000000000 6.000000000000000
2  22 7 0 0.000000000000000 6.000000000000000
0

0101000
+119 11 -119 13 *
Wi

0101100
+84 0 -81 0 -118 11 +118 13 *
Fa
0  0.000000100000000 13 0

0101000
+80 0 *
Ed
 0.000000100000000 1 1 0
1  17 0 0.000000000000000 6.000000000000000
2  23 7 0 0.000000000000000 6.000000000000000
0

0101000
+117 11 -117 13 *
Wi

0101100
+81 0 -78 0 -116 11 +116 13 *
Fa
0  0.000000100000000 7 0

0101000
+77 0 *
Ed
 0.000000100001997 1 1 0
1  18 0 0.000000000000000 6.000000000000000
2  24 3 40 0.000000000000000 6.000000000000000
0

0101000
+125 41 -106 41 *
Wi

0101100
+78 5 -75 5 -115 9 +104 14 *
Fa
0  0.000000100000000 14 5

0101000
+74 0 *
Ed
 0.000000100000000 1 1 0
1  19 0 0.000000000000000 6.000000000000000
3  25 26CN 8 0 0.000000000000000 6.000000000000000
0

0101000
+113 11 -113 13 *
Wi

0101100
+72 0 -72 0 -112 11 +112 13 *
Fa
0  0.000000100000000 8 0

0101000
+71 0 *
Ed
 0.000000100000000 1 1 0
1  20 0 0.000000000000000 49.000000000000000
0

0101000
+100 42 -100 18 *
Ed
 0.000000100000000 1 1 0
1  11 0 0.000000000000000 5.000000000000000
2  27 3 19 0.000000000000000 5.000000000000000
0

0101000
+106 31 -100 0 *
Wi

0101100
+105 14 -69 0 -68 42 +99 18 *
Fa
0  0.000000100000000 15 0

0101000
+67 0 *
Ed
 0.000000100000000 1 1 0
1  21 0 0.000000000000000 49.000000000000000
2  28 10 0 0.000000000000000 49.000000000000000
0

0101000
+98 42 -98 18 *
Wi

0101100
+69 0 -65 0 -97 42 +97 18 *
Fa
0  0.000000100000000 16 0

0101000
+64 0 *
Ve
0.000000212133034
-0.000000000007628 25.000000000000998 25.000000000000000
0 0

0101101
*
Ed
 0.000000100002007 1 1 0
1  22 0 0.000000000000000 49.000000000000000
2  29 6 0 0.000000000000000 49.000000000000000
2  30 10 0 0.000000000000000 49.000000000000000
0

0101000
+62 43 -96 43 *
Ed
 0.000000100000000 1 1 0
1  13 0 0.000000000000000 5.000000000000000
2  13 10 31 0.000000000000000 5.000000000000000
2  14 10 23 0.000000000000000 5.000000000000000
2  15 3 19 0.000000000000000 5.000000000000000
0

0101000
+98 0 -62 34 *
Wi

0101100
+65 2 -61 2 -60 33 +95 30 *
Fa
0  0.000000100000000 10 2

0101000
+59 0 *
Ve
0.000000100000000
-50.000000000012086 24.999999999999002 19.000000000000000
0 0

0101101
*
Ed
 0.000000100000000 1 1 0
1  14 0 48.999999999999993 50.000000000004455
2  20 11 25 48.999999999999993 50.000000000004455
2  21 12 38 48.999999999999993 50.000000000004455
0

0101000
+94 39 -57 25 *
Ve
0.000000100000000
-50.000000000012086 24.999999999999002 25.000000000000000
0 0

0101101
*
Ed
 0.000000100000000 1 1 0
1  23 0 0.000000000000000 6.000000000000000
2  31 17 0 0.000000000000000 6.000000000000000
4 G1 11 0 17 0
2  32 11 0 0.000000000000000 6.000000000000000
0

0101000
+57 0 -55 0 *
Ed
 0.000000100000000 1 1 0
1  24 0 48.999999999999993 50.000000000004455
2  33 11 26 48.999999999999993 50.000000000004455
2  34 18 38 48.999999999999993 50.000000000004455
0

0101000
+96 45 -55 26 *
Wi

0101100
-93 30 -56 37 -54 36 +53 44 *
Fa
0  0.000000100000000 11 36

0101000
+52 0 *
Ed
 0.000000100001997 1 1 0
1  3 0 0.000000000000000 6.000000000000000
2  18 6 31 0.000000000000000 6.000000000000000
2  19 3 19 0.000000000000000 6.000000000000000
0

0101000
+62 34 -89 34 *
Wi

0101100
+68 33 +97 33 +60 33 +50 33 +88 33 +75 27 *
Fa
0  0.000000100000000 3 46

0101000
+49 0 *
Ve
0.000000100000000
-50.000000000007745 -25.000000000000998 19.000000000000000
0 0

0101101
*
Ed
 0.000000100000000 1 1 0
1  25 0 4.712388980385000 7.853981633974000
2  35 17 25 4.712388980385000 7.853981633974000
2  36 12 38 4.712388980385000 7.853981633974000
0

0101000
+47 25 -57 25 *
Ve
0.000000100000000
0.000000000000000 -25.000000000000998 19.000000000000000
0 0

0101101
*
Ed
 0.000000100000000 1 1 0
1  26 0 0.000000000000000 50.000000000007745
2  37 12 38 0.000000000000000 50.000000000007745
0

0101000
+47 25 -45 25 *
Ve
0.000000100000000
-0.000000000004891 -15.789473684211000 19.000000000000000
0 0

0101101
*
Ed
 0.000000100000000 1 1 0
1  27 0 0.000000000000000 9.210526315789998
2  38 12 38 0.000000000000000 9.210526315789998
0

0101000
+45 25 -43 25 *
Ve
0.000000100000000
-0.000000000007634 15.789473684211000 19.000000000000000
0 0

0101101
*
Ed
 0.000000100000000 1 1 0
1  28 0 4.712388980385000 7.853981633974000
2  39 19 25 4.712388980385000 7.853981633974000
2  40 12 38 4.712388980385000 7.853981633974000
0

0101000
+43 25 -41 25 *
Ed
 0.000000100000000 1 1 0
1  29 0 0.000000000000000 9.210526315788002
2  41 20 25 0.000000000000000 9.210526315788002
2  42 12 38 0.000000000000000 9.210526315788002
0

0101000
+41 25 -89 39 *
Wi

0101100
+87 37 +56 37 -46 37 +44 37 +42 37 +40 37 +39 37 *
Ve
0.000000100000000
-60.000000000000000 -0.000000000001000 19.000000000000000
0 0

0101101
*
Ed
 0.000000100000000 1 1 0
1  30 0 0.000000000000000 6.283185307179586
2  43 21 25 0.000000000000000 6.283185307179586
2  44 12 38 0.000000000000000 6.283185307179586
0

0101000
+37 25 -37 25 *
Wi

0101100
+36 37 *
Fa
0  0.000000100000000 12 47

0101000
+38 0 +35 0 *
Ve
0.000000100000000
-50.000000000007745 -25.000000000000998 25.000000000000000
0 0

0101101
*
Ed
 0.000000100000000 1 1 0
1  31 0 4.712388980385000 7.853981633974000
2  45 17 26 4.712388980385000 7.853981633974000
2  46 18 38 4.712388980385000 7.853981633974000
0

0101000
+33 26 -55 26 *
Ve
0.000000100000000
0.000000000000000 -25.000000000000998 25.000000000000000
0 0

0101101
*
Ed
 0.000000100000000 1 1 0
1  32 0 0.000000000000000 50.000000000007745
2  47 18 38 0.000000000000000 50.000000000007745
0

0101000
+33 26 -31 26 *
Ve
0.000000100000000
-0.000000000004891 -15.789473684211000 25.000000000000000
0 0

0101101
*
Ed
 0.000000100000000 1 1 0
1  33 0 0.000000000000000 9.210526315789998
2  48 18 38 0.000000000000000 9.210526315789998
0

0101000
+31 26 -29 26 *
Ve
0.000000100000000
-0.000000000007634 15.789473684211000 25.000000000000000
0 0

0101101
*
Ed
 0.000000100000000 1 1 0
1  34 0 4.712388980385000 7.853981633974000
2  49 19 26 4.712388980385000 7.853981633974000
2  50 18 38 4.712388980385000 7.853981633974000
0

0101000
+29 26 -27 26 *
Ed
 0.000000100000000 1 1 0
1  35 0 0.000000000000000 9.210526315788002
2  51 18 38 0.000000000000000 9.210526315788002
2  52 20 26 0.000000000000000 9.210526315788002
0

0101000
+27 26 -62 45 *
Wi

0101100
+61 2 +53 44 -32 44 +30 44 +28 44 +26 44 +25 44 *
Ve
0.000000100000000
-60.000000000000000 -0.000000000001000 25.000000000000000
0 0

0101101
*
Ed
 0.000000100000000 1 1 0
1  36 0 0.000000000000000 6.283185307179586
2  53 21 26 0.000000000000000 6.283185307179586
2  54 18 38 0.000000000000000 6.283185307179586
0

0101000
+23 26 -23 26 *
Wi

0101100
+22 44 *
Fa
0  0.000000100000000 18 48

0101000
+24 0 +21 0 *
Ed
 0.000000100000000 1 1 0
1  37 0 0.000000000000000 6.000000000000000
2  55 17 0 0.000000000000000 6.000000000000000
4 G1 17 0 22 0
0

0101000
+47 0 -33 0 *
Wi

0101100
+19 0 -54 0 -46 11 +32 13 *
Fa
0  0.000000100000000 17 0

0101000
+18 0 *
Ed
 0.000000100000000 1 1 0
1  38 0 0.000000000000000 6.000000000000000
2  56 19 0 0.000000000000000 6.000000000000000
2  57 20 0 0.000000000000000 6.000000000000000
0

0101000
+41 0 -27 0 *
Wi

0101100
+16 36 +50 33 -39 37 +25 44 *
Fa
0  0.000000100000000 20 36

0101000
+15 0 *
Ed
 0.000000100000000 1 1 0
1  39 0 0.000000000000000 6.000000000000000
0

0101000
+45 0 -31 0 *
Wi

0101100
+19 0 -13 0 -44 11 +30 13 *
Fa
0  0.000000100000000 22 0

0101000
+12 0 *
Ed
 0.000000100000000 1 1 0
1  40 0 0.000000000000000 6.000000000000000
2  58 19 0 0.000000000000000 6.000000000000000
0

0101000
+43 0 -29 0 *
Wi

0101100
+13 0 -10 0 -42 11 +28 13 *
Fa
0  0.000000100000000 23 0

0101000
+9 0 *
Wi

0101100
+10 0 -16 0 -40 11 +26 13 *
Fa
0  0.000000100000000 19 0

0101000
+7 0 *
Ed
 0.000000100000000 1 1 0
1  41 0 0.000000000000000 6.000000000000000
3  59 60CN 21 0 0.000000000000000 6.000000000000000
0

0101000
+37 0 -23 0 *
Wi

0101100
+5 0 -5 0 -36 11 +22 13 *
Fa
0  0.000000100000000 21 0

0101000
+4 0 *
Sh

0101100
+126 2 +110 2 -107 27 -101 2 -90 0 +85 0 +82 27 +79 27 +76 27 +73 2 
+70 27 +66 2 +63 2 +58 0 -51 0 +48 0 -34 0 +20 0 +17 36 -14 0 
-11 36 -8 36 -6 36 -3 36 *
So

0100000
+2 0 *

+1 1 